<svg width="128" height="148" viewBox="0 0 128 148" fill="none" xmlns="http://www.w3.org/2000/svg">
<path fill-rule="evenodd" clip-rule="evenodd" d="M59.4708 98.0785C59.0025 97.5005 58.8559 97.919 58.4316 98.1861C58.8381 98.6638 59.0106 98.4417 59.4708 98.0785ZM22.7002 62.034C22.1325 61.57 21.5735 62.2089 20.9897 62.3587C20.9628 63.3696 22.2856 62.5025 22.7002 62.034ZM20.0676 64.1082C19.6427 63.4371 18.6474 65.0607 18.6595 65.5641C19.3431 65.4803 19.5903 64.5547 20.0676 64.1082ZM18.3491 102.092C15.4258 98.4211 24.9549 101.019 21.0151 104.347C18.7504 106.635 17.0047 101.141 16.307 102.742C16.41 107.846 22.6371 107.344 24.0809 103.198C23.4004 94.8483 11.7914 100.057 18.3491 102.092ZM33.1274 64.2608C32.95 58.0354 26.6023 57.9769 23.3063 61.9295C21.1099 64.9571 23.0928 68.5034 25.8238 70.2683C28.9147 69.8812 33.159 67.901 33.1274 64.2608ZM40.7769 93.1864C41.0777 91.4769 38.3134 87.147 36.2535 88.3976C35.3417 89.2191 35.0126 87.051 33.9732 87.7822C29.7566 88.5873 29.948 93.6858 32.0769 96.5617C34.6746 100.43 41.4063 97.5031 40.7769 93.1864ZM15.863 75.3051C8.97552 75.5271 10.4584 88.3395 16.124 88.9577C23.5183 87.7971 23.6438 75.758 15.863 75.3051ZM29.174 118.486C29.6453 126.393 40.7647 122.783 40.5632 116.633C40.5555 113.095 37.2735 109.542 33.5866 110.131C29.4419 110.815 30.6986 115.546 29.174 118.486ZM54.3977 99.9506C54.5227 94.9589 48.3765 96.6309 50.4881 97.6638C54.737 98.1744 51.1388 102.321 50.2255 99.0928C50.3238 98.2523 49.5891 98.1651 49.0778 98.6563C48.058 99.9225 48.8912 101.812 50.574 102.167C52.2326 102.747 53.1422 100.927 54.572 101.194C55.8934 101.538 57.0795 101.221 57.792 99.9195C56.6298 99.8483 55.559 100.607 54.3977 99.9506ZM20.4483 58.3554C25.0397 52.7888 33.4342 54.0378 39.0078 57.2157C42.4596 60.4366 44.29 65.0344 46.7522 68.6954C49.7745 71.9897 44.4451 70.9239 44.8441 75.592C44.1299 80.088 49.3116 82.0759 52.9736 79.3081C55.6848 75.5156 62.5782 82.4513 67.816 80.1087C68.3171 80.0001 68.5229 80.5619 68.8807 80.7015C72.166 79.9398 65.7756 84.6037 66.2869 86.4629C60.0256 91.9122 62.6496 103.409 69.7478 107.985C72.8131 109.29 64.315 112.533 63.2674 113.425C61.761 114.763 62.7265 107.226 57.726 108.609C52.8302 109.694 55.6424 115.554 53.7195 118.342C53.3295 118.283 52.9558 118.251 52.943 118.813C51.8918 118.831 51.111 118.698 50.683 119.955C50.1951 120.003 49.8799 120.163 49.9561 120.716C45.5454 124.117 48.5817 129.582 51.4245 132.952C52.8353 136.219 54.9451 140.079 57.5344 142.562C55.8833 144.75 46.2646 144.022 42.7127 141.351C44.225 138.448 40.8773 133.547 37.708 135.486C35.7344 137.295 34.7598 137.817 32.5696 135.905C26.2534 129.769 22.6424 121.187 17.9064 113.802C10.7282 103.667 8.29552 91.5107 6.35181 79.4129C6.64646 70.7843 16.4378 65.5508 20.4483 58.3554Z" fill="#1D71D8"/>
<path fill-rule="evenodd" clip-rule="evenodd" d="M39.0718 48.2347C38.121 48.3388 38.4849 48.7435 38.9794 49.0911C39.8216 49.0524 39.7094 48.6082 39.0718 48.2347ZM98.1781 48.8349C97.5929 47.9019 97.7141 45.1548 96.1247 45.7325C95.349 46.532 92.1204 46.7619 92.8673 48.0674C94.7672 49.91 94.3999 52.3138 93.5899 54.6469C95.9573 55.6509 98.4829 51.5481 98.1781 48.8349ZM72.3622 54.6738C69.265 50.781 72.8007 46.0584 70.9801 45.6042C68.687 45.6061 64.5054 42.861 64.0885 46.5448C62.9572 52.0839 67.63 54.0891 72.3622 54.6738ZM12.9075 24.3672C12.7853 26.5642 18.7145 25.6895 20.4638 26.3332C21.3713 27.0124 24.7562 20.112 23.4833 20.0485C21.801 19.4354 19.991 16.5253 18.23 17.5152C14.6235 20.5829 12.8045 18.4225 12.9075 24.3672ZM61.8398 11.9239C48.403 13.3932 61.9582 31.5446 67.3987 18.8389C69.0964 11.9996 61.7093 19.7999 59.0517 20.3247C56.1198 19.6126 64.8844 15.8046 65.942 14.7409C67.6861 13.3306 63.4103 11.6653 61.8398 11.9239ZM80.7972 12.491C78.3395 11.9756 73.5365 15.9951 75.6933 17.5129C76.7875 17.1451 78.1443 15.0185 79.2233 16.0536C79.5748 19.027 73.1128 17.5795 75.9315 21.3588C77.7743 22.7803 81.4827 17.0973 83.9805 17.6298C84.6741 19.3595 76.1451 21.8198 77.723 23.2422C86.9137 28.697 90.8158 12.1347 80.7972 12.491ZM69.8172 55.8634C60.8831 53.3868 51.2543 51.1006 42.0848 49.4026C38.7541 51.5499 35.1416 52.4219 41.4298 53.3265C48.3012 54.8004 55.2047 56.1624 61.9787 58.0493C64.7608 58.8636 67.1168 56.3696 69.8172 55.8634ZM36.2385 36.5228C44.7297 38.5136 53.968 40.049 62.6519 42.1616C67.9231 43.009 72.9914 45.7786 77.6323 42.1569C78.2382 41.0703 72.4389 41.0699 71.3417 40.5649C63.3743 38.9804 55.3746 37.7382 47.4068 36.1402C43.586 34.9341 39.9686 35.0734 36.2385 36.5228ZM72.5484 49.2708C72.4497 50.7664 73.0747 53.876 74.8659 53.691C81.8591 50.7053 88.5071 46.9964 95.5591 44.144C102.365 41.9473 96.8058 41.5762 97.5756 36.34C97.6105 35.5623 97.3123 35.6552 96.7958 35.8741C90.755 38.3517 84.7793 40.9827 78.7762 43.5495C75.7952 44.4596 72.2067 45.4823 72.5484 49.2708ZM99.2444 23.3718C96.2565 23.2903 88.726 19.2586 87.4169 22.636C81.6905 29.5804 75.4817 25.2178 72.4335 18.4703C68.2658 17.2501 68.5588 25.1661 62.787 25.0759C59.8366 25.4725 56.4179 23.6977 55.3321 20.8563C54.109 19.0479 48.6335 22.6122 46.4164 22.7596C44.3519 23.7414 41.8414 24.0585 39.7939 24.7677C45.1975 26.2778 52.1266 26.6153 57.9878 28.0879C65.679 29.1919 73.2493 30.9648 80.946 32.0288C82.7236 32.5596 83.7454 30.1155 85.5124 29.8771C90.4047 27.7665 95.2343 25.3034 100.325 23.9032C101.156 23.1568 99.5856 23.7133 99.2444 23.3718ZM33.8372 40.9421C31.8734 42.7799 35.5987 48.3307 36.6832 45.5047C33.9844 38.069 40.0581 38.5845 35.421 37.5114C33.9515 36.5988 33.5034 38.4331 33.2909 39.4815C31.9573 39.6961 33.1262 40.8054 33.8372 40.9421ZM43.4881 39.506C42.1337 39.4468 40.3027 38.0554 39.9431 39.8876C38.1596 37.0238 39.4683 39.758 38.2988 39.991C37.8028 40.1255 37.7031 41.8864 38.1202 42.2324C39.3449 41.7948 39.0897 43.3504 38.9792 43.98C37.5833 44.2606 39.1634 45.5038 39.3263 46.1813C43.0566 48.7748 48.8948 48.5006 53.3374 50.007C54.8719 49.8798 64.1514 53.7973 62.612 51.1415C60.5055 41.4556 68.657 45.4622 54.7675 42.0148C50.7887 41.3876 47.3997 40.2934 43.4881 39.506ZM69.7856 57.2427C66.352 57.8998 68.571 61.211 66.5249 59.0229C66.1212 57.9011 64.2806 59.0521 65.1789 59.7171C66.7276 61.9543 67.1949 64.3934 66.6968 66.9227C68.4665 67.2822 67.1168 66.0913 67.9624 66.12C69.1849 66.3379 70.2504 65.3793 71.5047 65.269C73.6862 63.189 72.6097 56.1673 69.7856 57.2427ZM101.44 24.5722C95.6414 27.3852 89.5296 29.548 83.6096 32.1038C82.4014 33.0764 85.3826 35.5483 84.2078 37.5611C84.4361 41.4529 100.135 31.5616 102.924 30.8739C106.574 29.5339 106.001 22.1485 101.44 24.5722ZM74.2469 58.8144C75.8028 63.499 72.9572 65.1351 79.2808 61.9187C84.6215 58.9355 95.8091 56.8588 91.4 48.5841C89.6601 47.9489 86.7938 49.9355 85.217 51.1266C82.7162 51.1828 80.2793 53.347 77.6383 53.8753C76.8033 54.6393 71.5862 55.7967 72.6156 56.7883C75.1519 56.3662 72.5654 57.2262 74.2469 58.8144ZM69.3162 38.4888C72.4845 37.9077 80.2654 42.7737 82.1096 38.7074C82.8917 37.2573 83.3645 33.9794 81.2425 33.5818C74.8545 32.4233 68.6291 31.6858 62.2379 30.3046C55.6642 29.3465 49.1629 27.9744 42.6398 26.7294C40.7996 26.7897 43.4876 30.6595 41.9372 32.2254C39.2595 35.2518 66.2394 37.1805 69.3162 38.4888ZM38.0131 56.3202C37.3736 56.1984 36.7341 56.0766 36.0945 55.9547C38.3816 55.451 34.9456 53.2687 34.9294 52.1269C35.056 51.7668 36.942 50.4976 37.2837 50.2349C37.5463 49.0373 36.3833 47.7545 35.2751 47.4202C31.8414 47.0898 30.3758 42.2812 32.2106 39.8076C31.6906 39.3214 31.7821 38.8631 32.0415 38.2735C31.782 36.0693 30.2222 33.9724 29.5023 31.8387C26.2748 25.3059 25.9052 17.1891 22.0928 28.8595C25.1916 35.0926 27.7426 41.5695 30.6539 47.8895C34.2705 54.0153 33.7473 59.6993 29.8694 50.1048C29.8676 49.1521 29.2934 49.4574 28.7872 49.6128C29.2833 47.9341 28.319 46.5413 27.7312 44.8992C25.3265 41.1643 22.9344 28.7443 19.262 27.8741C17.6693 28.1726 12.4676 25.8701 13.4306 27.5021C15.5738 30.9939 15.8963 36.7984 19.3292 38.9526C18.4898 40.6308 19.6606 41.9799 20.2084 43.5224C20.3915 44.6469 21.4171 43.9877 22.1743 43.881C22.7288 45.2938 21.6084 44.3622 20.7665 44.8527C22.9087 47.8509 23.169 52.7708 25.413 54.3442C22.7216 59.6952 17.9362 39.9468 16.2062 37.6521C14.3319 32.0969 10.2973 26.9339 11.9948 20.8722C13.2568 5.65285 12.729 12.2498 24.5837 18.8595C27.7594 23.3201 29.4446 28.959 31.8909 33.9359C32.3458 34.5309 32.7774 37.1853 33.7274 36.3992C34.5034 35.3272 35.7469 35.0928 36.8462 34.7836C40.7698 33.7246 41.9556 27.8285 38.6855 26.0821C37.8872 25.8225 35.861 24.646 37.2388 24.0661C42.8817 22.83 48.1301 20.3362 53.6261 18.5938C54.3037 18.3538 54.6611 17.9725 54.6667 17.1545C54.7352 13.6425 58.2483 9.93477 61.7379 10.0049C64.0284 9.94331 66.0124 10.8023 67.5417 12.5259C68.3482 13.3201 68.6659 14.7898 69.6898 15.3343C71.0669 15.2937 73.5056 16.9159 74.2513 15.2943C75.8022 11.553 80.2776 9.45979 84.0557 11.2583C87.3139 12.6881 88.7296 15.2399 88.765 18.6711C91.533 21.9925 104.994 20.1523 106.339 25.6779C109.411 34.8325 92.5305 30.2459 101.006 41.6978C103.711 43.6385 97.4876 43.6971 98.3226 45.3358C101.322 49.292 98.007 51.5941 98.8196 54.0492C100.456 52.2959 101.052 49.5458 102.76 47.9226C108.609 36.8536 127.659 39.128 114.385 41.4948C107.035 42.931 102.238 49.7858 99.6518 56.3708C99.497 57.3518 98.5795 59.6068 98.0901 58.5196C97.1333 57.5248 98.1718 56.4281 98.4647 55.4213C96.2604 55.117 93.447 57.8953 90.8814 58.0865C92.5448 58.9636 99.4621 58.7235 95.0615 60.565C89.2013 58.653 88.5329 59.3078 83.2254 61.9774C62.1202 72.2657 65.5127 68.9327 44.1612 64.4661C40.736 60.0646 59.7718 67.6661 63.3503 67.578C66.1716 67.7953 64.9654 62.873 64.319 61.2545C62.3049 58.9359 58.4708 59.4159 55.6602 58.322C50.9444 57.1758 45.9974 56.5906 41.5826 54.6082C39.4824 55.1776 36.4554 52.1475 38.0131 56.3202Z" fill="#093DB9"/>
<path fill-rule="evenodd" clip-rule="evenodd" d="M93.2141 100.617C93.2419 100.563 93.2801 100.531 93.1896 100.534L93.2141 100.617ZM94.0257 99.8124C93.6468 99.5665 93.583 99.676 93.3471 99.9383C93.6153 100.202 93.728 99.9926 94.0257 99.8124ZM81.0846 94.7454C81.66 94.3889 82.9488 93.0257 82.8405 92.2554C81.3013 91.8389 81.2407 93.6993 81.0846 94.7454ZM79.4398 98.9344C79.2133 98.1109 78.5 99.6482 78.2202 99.9662C76.717 101.917 79.3275 105.113 79.4398 98.9344ZM108.383 111.643C108.237 109.715 108.271 108.157 107.474 106.481C106.938 107.001 107.38 113.766 108.383 111.643ZM76.741 98.2036C75.2781 98.2284 74.4044 98.2965 75.9051 99.7381C76.7449 100.601 76.7726 100.623 77.6329 99.8953C78.2213 98.789 78.382 97.7712 76.741 98.2036ZM106.378 94.4136C105.652 94.8758 102.977 99.0593 105.628 98.9622C107.832 99.2301 106.127 95.7254 106.378 94.4136ZM106.526 81.1372C106.781 82.7409 106.294 84.8565 108.382 83.4634C109.787 82.5243 110.938 83.5135 111.776 81.8566C110.798 80.7713 108.788 80.669 107.449 80.0838C106.768 79.8134 106.661 80.9273 106.526 81.1372ZM106.864 70.5661C107.811 68.6263 97.1513 76.9781 99.4962 76.9316C108.722 80.1115 105.558 78.4115 106.864 70.5661ZM81.7765 90.9413C84.2561 93.6781 93.2484 79.4936 96.3969 77.713C96.511 75.7487 89.9069 75.8811 88.0184 75.257C84.9438 75.9137 83.1885 87.6026 81.7765 90.9413ZM106.009 80.8793C106.062 80.2478 106.146 79.6199 105.309 79.3942C102.723 79.21 99.4488 76.6513 97.1564 78.0728C95.6562 79.9886 84.4082 89.9385 86.8529 90.4597C92.9268 88.8187 98.9202 86.9328 104.842 84.8117C106.454 84.3167 105.638 82.1627 106.009 80.8793ZM63.3768 99.9061C64.6777 97.7437 69.533 98.6857 72.0922 97.7623C73.7326 97.5479 71.6326 96.2601 71.2733 95.4919C69.0698 94.0085 65.5874 95.9669 62.9702 95.8484C63.4406 94.2882 67.5579 94.9644 69.3079 94.3243C71.3207 93.217 64.5002 88.1659 65.8262 86.2762C67.8551 88.3254 68.8114 92.0157 71.5076 93.7458C72.0443 94.4855 73.09 97.1371 74.3542 97.4674C76.8417 97.2854 80.3992 98.0844 80.2272 94.4732C81.4442 90.9932 74.6884 94.4638 72.9327 94.278C72.0007 92.6227 80.9264 93.3903 81.0309 90.8989C82.9189 77.5991 91.9227 73.6732 77.651 74.5441C76.3119 74.6112 77.8502 73.5206 78.2107 72.9901C78.3819 72.8161 78.681 72.7679 78.9218 72.6624C79.7909 74.4759 83.591 73.3807 85.4587 74.1069C89.1811 72.1413 88.6612 64.9409 92.845 62.6662C92.0902 64.699 86.2575 73.6121 88.0818 74.4692C100.02 77.6072 97.4089 76.1763 106.437 69.3768C108.573 66.7983 108.063 62.6366 109.581 59.5807C109.827 58.7151 109.625 58.4702 108.711 58.2769C107.999 57.6219 106.95 57.1828 106.073 57.9438C105.547 57.0571 104.831 57.9136 104.228 57.7417C103.639 57.5857 102.843 57.4014 103.819 57.0994C107.768 56.297 110.983 58.3227 113.527 61.1542C114.667 63.5538 111.87 60.7266 111.301 59.8617C109.672 58.5102 108.727 66.7024 108.293 67.9898C111.08 67.7177 115.424 61.5053 116.411 66.1794C113.956 64.0997 111.124 67.6026 108.791 68.5609C107.445 69.4441 106.253 78.3183 107.477 79.2466C110.365 80.0478 112.564 81.9968 114.164 78.3692C112.117 83.5317 117.027 78.833 118.974 77.431C119.926 76.7388 119.625 75.733 119.547 74.7279C120.861 75.099 120.258 76.6889 120.315 77.6724C115.013 81.7753 112.276 81.0095 120.23 83.9532C123.69 84.4081 122.826 86.9168 119.169 84.1993C116.657 83.4307 112.882 80.4619 111.384 84.1241C108.947 88.5223 105.91 92.7321 107.458 97.9774C107.563 99.1287 107.603 99.2016 108.708 99.4507C114.369 100.502 119.816 102.357 125.319 104.014C127.342 104.764 126.119 101.693 126.175 100.671C127.165 102.157 127.058 103.919 127.063 105.62C124.017 105.164 121.379 108.437 118.42 109.22C116.494 110.755 108.962 111.307 109.558 113.923C110.906 118.261 108.688 124.285 115.108 122.732C107.691 126.798 110.734 116.654 108.368 112.909C106.213 115.302 107.947 119.131 107.748 122.095C108.295 122.835 109.054 121.87 109.68 122.98C107.205 122.755 107.734 123.256 107.634 125.41C107.807 133.073 104.753 141.407 96.7421 143.705C100.122 129.799 102.666 115.664 103.661 101.389C103.755 98.6645 106.933 102.27 106.695 103.854C106.66 104.344 107.136 105.059 107.586 105.347C109.786 106.338 107.66 111.89 110.277 111.426C115.026 109.81 119.572 107.726 124.035 105.444C125.756 103.399 111.289 101.456 109.134 100.293C107.954 99.9791 107.777 100.154 107.896 101.39C108.327 103.023 107.814 105.794 107.261 102.66C106.911 99.4139 107.472 100.191 104.249 99.5085C103.85 99.3674 101.802 99.0743 102.992 98.511C104.726 96.3312 106.202 93.0528 106.041 90.1352C105.553 85.7308 106.598 85.9373 107.105 90.1291C109.869 86.4641 112.819 80.363 106.167 86.1542C105.513 84.0033 101.673 87.6719 99.8522 87.5048C95.4988 88.4615 91.3926 90.6515 86.8958 90.8601C84.0458 91.7647 82.166 94.5242 80.7247 97.0042C84.2861 97.8173 89.0974 96.5215 92.016 97.9676C94.7659 96.8085 98.2792 98.3236 101.286 98.2397C102.151 98.3302 102.173 98.433 101.907 99.2813C101.911 100.531 101.291 102.003 102.197 103.106C102.189 105.881 100.855 108.754 101.088 111.394C101.574 113.053 100.521 114.486 100.022 115.86C100.046 116.59 100.239 117.254 99.6578 117.841C100.057 119.181 98.5832 120.334 99.2605 121.729C99.3207 121.854 98.8228 122.409 98.7939 122.393C97.6372 121.741 97.7969 122.826 97.6671 123.305C95.8229 128.147 94.8407 143.893 91.2612 145.652C89.7538 138.258 86.042 130.74 86.6852 123.056C87.074 121.567 96.7754 95.006 91.3443 105.153L91.3594 105.138C89.4944 109.052 85.3617 128.035 84.9002 112.649C85.4542 109.506 82.5067 102.756 86.3544 101.62C89.0552 101.188 90.9922 99.0308 93.8513 99.2367C96.0415 97.5258 83.2595 98.4484 81.2047 98.108C79.2993 98.2429 80.4791 101.15 79.7135 102.39C79.1366 103.267 80.6233 105.639 78.8541 104.478C78.0654 104.01 77.3222 101.505 76.3282 102.604C75.8948 103.736 72.5339 106.536 73.8376 106.941C75.1107 106.42 76.5332 105.939 77.7647 105.472C78.0343 106.266 77.4764 107.489 76.4595 107.697C75.1268 107.939 76.4366 109.434 75.5172 110.042C74.0089 112.447 72.6733 114.678 71.1301 117.022C68.1621 118.194 70.1133 111.228 70.0088 109.607C71.6906 107.931 75.825 103.043 75.8545 100.924C73.2588 96.4195 67.535 99.8739 63.3768 99.9061Z" fill="#CCCCCC"/>
<path fill-rule="evenodd" clip-rule="evenodd" d="M58.0525 143.107C57.2425 140.982 60.713 138.618 61.538 136.509C63.7023 133.566 65.3802 130.125 67.372 127.214C68.5894 128.051 67.6315 131.109 67.8167 132.757C67.8046 136.248 68.5546 139.721 68.6377 143.235C69.0032 144.037 68.9334 148.383 69.993 147.023C70.2062 138.503 67.4431 128.713 70.998 120.814C73.2259 117.857 74.6768 114.495 76.653 111.401C77.7111 109.78 81.7849 100.296 83.0998 105.388C82.822 110.651 83.8688 115.736 84.0613 121.073C84.0294 121.693 82.9953 121.388 83.2395 121.985C83.6793 124.118 82.0396 125.898 81.4084 127.833C81.407 128.71 82.0117 131.929 80.849 131.347C80.789 131.632 81.2561 132.483 80.2708 132.363C79.8477 132.308 79.2335 132.374 78.9616 133.05C76.8383 137.845 74.6499 142.676 73.0279 147.658C71.7753 148.227 69.9983 147.955 68.5463 147.773C64.6861 146.826 60.8635 146.162 58.0525 143.107Z" fill="#CCCCCC"/>
<path fill-rule="evenodd" clip-rule="evenodd" d="M102.385 105.33C102.214 105.214 102.153 105.256 102.105 105.444C102.275 105.559 102.335 105.515 102.385 105.33ZM92.7543 145.045C94.3798 137.797 96.1092 130.565 97.6673 123.305C97.7969 122.826 97.6373 121.741 98.7939 122.393C98.8229 122.409 99.3209 121.854 99.2606 121.729C98.5832 120.334 100.057 119.182 99.6578 117.841C100.369 116.628 99.8703 115.282 100.864 114.048C101.307 111.727 100.889 109.417 101.689 107.025C102.445 104.325 101.511 101.907 101.907 99.2814C102.579 97.2848 97.0024 98.2641 95.634 97.7131C94.4149 97.7733 93.036 97.0081 92.016 97.9674C90.6365 96.33 79.4684 98.5444 81.1198 96.1613C82.7201 94.2176 83.9839 91.9145 86.4575 91.0013C89.8673 90.7954 92.9864 89.3222 96.3299 88.6534C99.0902 87.3811 102.256 87.1694 104.892 85.5304C105.646 85.0188 105.816 85.4467 106.168 86.1549C106.791 84.5926 111.937 82.4146 109.938 85.2814C107.766 88.3197 107.4 93.1108 106.298 86.6489C105.519 87.5938 105.988 89.0122 106.04 90.135C106.43 92.9428 104.639 95.2718 103.712 97.7734C103.603 98.4309 101.927 98.7151 102.97 99.1287C105.899 100.294 107.399 98.8272 107.261 102.66C107.8 105.805 108.341 103.008 107.896 101.39C107.316 98.1332 120.235 103.971 122.679 103.945C129.3 105.131 111.97 110.493 110.278 111.426C108.302 112.137 109.064 108.025 108.518 106.812C108.534 105.546 106.644 105.134 106.695 103.854C106.94 102.266 103.749 98.6712 103.662 101.388C102.724 107.659 100.239 147.605 92.7543 145.045Z" fill="#1EA7F2"/>
<path fill-rule="evenodd" clip-rule="evenodd" d="M73.0282 147.658C74.65 142.676 76.8382 137.845 78.9615 133.05C79.3557 131.813 81.1273 132.919 80.9342 131.678C82.4335 129.528 80.542 127.713 83.0313 124.255C83.7816 123.395 82.584 121.745 83.7514 121.49C84.3336 119.01 83.6277 115.589 83.4118 112.902C82.3352 111.454 84.4838 102.683 81.5514 104.031C76.9334 108.695 75.0661 115.612 70.9989 120.813C67.7152 127.666 69.9149 136.366 69.8576 143.831C70.3486 149.574 69.0247 147.253 68.6383 143.235C66.9104 119.02 69.842 126.162 57.7835 142.096C57.3269 143.48 56.9878 141.298 56.1593 141.143C55.6255 140.997 55.3343 139.964 54.9341 139.33C57.6664 137.587 59.2054 131 61.9021 131.075C62.7304 130.804 61.9131 130.428 62.3783 129.944C64.3154 128.761 65.507 126.175 66.4791 124.262C66.1652 122.538 67.6909 121.121 67.1897 120.807C66.7468 120.378 66.6211 119.891 67.5153 119.736C68.5401 119.187 67.5844 117.75 67.5635 116.859C66.202 116.341 67.2297 115.193 66.9355 114.38C66.5795 113.667 67.3888 112.25 66.3119 111.972C67.5748 111.231 68.4532 109.889 70.0094 109.607C69.3856 112.594 68.9464 121.62 72.5488 114.603C73.8812 113.809 73.9738 111.979 74.9663 110.813C75.3116 110.102 76.2875 109.631 75.8284 108.693C75.5147 107.371 77.9182 107.752 77.8752 105.878C78.0388 104.42 72.8073 108.306 73.4863 106.455C77.6197 101.669 75.0212 101.107 79.7505 104.874C79.7122 103.764 79.5751 97.7163 81.2036 98.1085C85.4384 98.1696 89.6749 98.1544 93.9022 98.4777C96.0075 99.085 92.2284 99.4696 91.4056 99.4979C89.6897 100.142 88.2703 101.439 86.3553 101.62C82.7265 101.325 85.2243 115.954 85.7354 118.541C86.5178 118.942 87.0448 117.728 86.9227 117.031C88.329 115.713 87.7436 113.565 89.0408 112.12C90.3438 110.184 90.0545 106.85 91.4526 105.198C96.3707 95.2538 88.2316 118.254 87.8457 119.821C84.9578 125.693 87.8796 132.264 89.1563 138.264C89.287 140.524 92.3662 144.373 90.6361 145.865C85.8483 143.254 86.5263 134.832 84.5106 130.03C80.714 134.387 80.1314 149.614 73.0282 147.658Z" fill="#1EA7F2"/>
<path fill-rule="evenodd" clip-rule="evenodd" d="M126.174 100.671C126.084 101.756 127.062 103.445 126.027 104.16C122.171 103.199 118.342 101.781 114.477 100.754C112.435 99.6171 107.892 100.656 107.456 97.9781C107.345 95.649 106.418 93.1685 107.699 91.0131C109.799 88.4708 110.536 81.7617 114.595 82.4231C119.079 84.0887 122.135 84.4918 123.255 89.3411C123.324 90.0042 122.427 90.0846 123.298 90.5146C122.92 92.0564 123.697 93.0244 124.537 94.2487C123.934 96.4709 126.265 98.4921 126.174 100.671Z" fill="#1EA7F2"/>
<path fill-rule="evenodd" clip-rule="evenodd" d="M103.234 57.4283C104.214 58.1952 105.26 57.012 106.073 57.9432C106.391 57.5454 106.828 57.636 107.262 57.5818C108.015 57.3566 108.141 58.0568 108.711 58.2769C109.625 58.4701 109.827 58.7151 109.58 59.5804C108.679 62.2611 107.959 64.9897 107.484 67.7814C106.928 69.8321 104.443 70.4461 103.071 71.8854C101.102 73.2709 99.5155 76.089 97.0149 76.3168C95.3093 75.4733 87.051 75.3475 87.5888 73.4982C90.4737 67.7772 92.1369 60.0658 99.0719 58.5883C100.695 59.6883 101.534 57.1154 103.234 57.4283Z" fill="#1EA7F2"/>
<path fill-rule="evenodd" clip-rule="evenodd" d="M117.828 111.334C117.107 112.157 117.087 112.345 117.841 112.936C118.385 112.301 118.451 112.131 117.828 111.334ZM115.108 122.733C111.851 123.085 110.659 123.303 110.413 119.521C110.605 117.386 108.144 113.261 110.508 112.222C123.624 109.076 128.529 98.8022 127.247 112.455C126.425 118.089 121.048 123.15 115.108 122.733Z" fill="#1EA7F2"/>
<path fill-rule="evenodd" clip-rule="evenodd" d="M114.164 78.3692C113.338 79.0656 113.001 81.0528 111.692 80.6367C110.331 79.7786 107.199 80.0579 106.925 78.2883C107.482 75.1917 106.766 71.0102 108.791 68.5609C111.134 67.591 113.981 64.0812 116.442 66.2005C119.494 73.996 118.156 71.0698 114.15 78.3824L114.164 78.3692Z" fill="#1EA7F2"/>
<path fill-rule="evenodd" clip-rule="evenodd" d="M75.9556 147.931C79.4464 146.468 82.9758 127.903 84.9619 131.363C86.3291 135.681 86.3837 143.845 90.635 145.865C85.7671 147.203 81.0893 148.265 75.9556 147.931Z" fill="#CCCCCC"/>
<path fill-rule="evenodd" clip-rule="evenodd" d="M110.539 54.1148C115.136 54.5234 115.504 47.1218 110.652 47.2059C106.284 47.2734 106.064 54.1403 110.539 54.1148ZM110.693 55.6243C104.763 55.8912 104.225 45.6243 110.735 45.6157C117.146 45.2892 117.672 55.9663 110.693 55.6243Z" fill="#093DB9"/>
<mask id="mask0_1265_37807" style="mask-type:alpha" maskUnits="userSpaceOnUse" x="32" y="0" width="11" height="10">
<path d="M32.7351 0H42.2658V9.51335H32.7351V0Z" fill="#CCCCCC"/>
</mask>
<g mask="url(#mask0_1265_37807)">
<path fill-rule="evenodd" clip-rule="evenodd" d="M35.6809 2.0046C34.7656 2.18196 32.7878 2.69481 32.7351 1.27487C33.055 0.0849908 34.7081 0.909463 35.6335 0.353167C36.9064 0.115144 39.6096 -0.736276 39.013 1.54257C38.3356 4.90516 44.0928 -1.37876 41.6647 8.80469C41.4491 9.61575 40.2391 9.76474 39.7889 9.07204C38.9057 8.05774 41.2448 4.44193 39.2999 4.90682C34.0499 6.54294 38.3979 1.43822 35.6809 2.0046Z" fill="#093DB9"/>
</g>
<mask id="mask1_1265_37807" style="mask-type:alpha" maskUnits="userSpaceOnUse" x="119" y="39" width="9" height="8">
<path d="M119.908 39.1029H127.51V46.9267H119.908V39.1029Z" fill="#CCCCCC"/>
</mask>
<g mask="url(#mask1_1265_37807)">
<path fill-rule="evenodd" clip-rule="evenodd" d="M125.832 43.124C126.113 39.807 121.326 40.204 121.139 42.7667C120.983 45.6688 125.748 46.0642 125.832 43.124ZM123.524 39.1032C128.764 39.0536 128.808 46.4786 123.829 46.9226C118.65 47.1309 118.657 39.1768 123.524 39.1032Z" fill="#093DB9"/>
</g>
<path fill-rule="evenodd" clip-rule="evenodd" d="M9.5505 51.6298C14.0916 50.7764 11.9073 44.0202 7.83614 45.8485C4.59417 47.3487 6.29796 51.903 9.5505 51.6298ZM13.5149 48.4767C13.9035 54.1857 4.85724 54.214 4.96468 48.701C4.71454 43.0073 13.5674 42.7478 13.5149 48.4767Z" fill="#093DB9"/>
<path fill-rule="evenodd" clip-rule="evenodd" d="M9.07545 64.2668C9.28024 61.4461 4.85503 60.7956 4.78594 64.095C4.76255 67.3631 9.10359 67.5718 9.07545 64.2668ZM3.54371 64.2755C3.4935 58.7847 10.8602 59.4584 10.7345 64.3971C10.8867 69.2553 3.56318 69.556 3.54371 64.2755Z" fill="#093DB9"/>
<mask id="mask2_1265_37807" style="mask-type:alpha" maskUnits="userSpaceOnUse" x="0" y="55" width="21" height="5">
<path d="M0.48999 55.4177H20.4484V59.9964H0.48999V55.4177Z" fill="#CCCCCC"/>
</mask>
<g mask="url(#mask2_1265_37807)">
<path fill-rule="evenodd" clip-rule="evenodd" d="M20.4482 58.3554C20.071 58.9025 19.694 59.4497 19.317 59.9964C17.0947 57.9549 12.8684 57.5409 9.72301 57.0044C6.64759 56.276 3.20451 57.9251 0.489746 57.3726C5.93293 53.4683 14.4685 56.2741 20.4482 58.3554Z" fill="#093DB9"/>
</g>
<path fill-rule="evenodd" clip-rule="evenodd" d="M115.019 63.9846C106.955 69.3829 107.616 69.7873 110.127 60.4828C110.989 57.8255 112.444 62.2129 113.923 62.2393C113.322 62.9052 114.471 62.5234 115.019 63.9846Z" fill="#1EA7F2"/>
<path fill-rule="evenodd" clip-rule="evenodd" d="M110.438 37.2112C112.535 37.2491 112.324 33.9402 110.327 33.9112C108.049 33.984 108.334 37.2385 110.438 37.2112ZM110.181 38.7665C106.447 38.5907 106.497 32.7561 110.365 32.4152C114.27 32.1063 114.969 38.7131 110.181 38.7665Z" fill="#093DB9"/>
<path fill-rule="evenodd" clip-rule="evenodd" d="M121.72 84.0935C112.726 81.3854 113.752 82.6578 119.849 77.7814C121.165 77.3731 120.33 79.9843 120.993 80.1896C121.273 81.4872 121.794 82.7407 121.72 84.0935Z" fill="#1EA7F2"/>
<path fill-rule="evenodd" clip-rule="evenodd" d="M35.1755 137.559C43.8717 127.921 44.9345 149.424 40.1696 137.606C38.6964 135.872 37.0756 139.171 35.1755 137.559Z" fill="#CCCCCC"/>
<path fill-rule="evenodd" clip-rule="evenodd" d="M110.523 14.9617C110.487 17.0658 108.774 15.8555 108.871 14.4254C108.885 12.4157 106.696 14.5246 105.994 13.2832C107.293 11.3031 108.895 13.5595 108.504 9.74322C109.999 7.7221 109.29 12.6907 111.088 11.6726C112.037 11.1684 113.391 12.2158 112.196 12.9346C110.561 13.2088 109.815 13.0355 110.523 14.9617Z" fill="#093DB9"/>
<path fill-rule="evenodd" clip-rule="evenodd" d="M109.68 122.98C107.908 121.384 107.586 123.699 107.694 119.957C107.364 117.727 106.689 114.623 108.367 112.909C109.354 115.646 110.564 120.779 109.68 122.98Z" fill="#1EA7F2"/>
<path fill-rule="evenodd" clip-rule="evenodd" d="M119.548 74.728C120.338 78.0606 115.89 79.7015 113.512 80.9988C113.711 80.1431 113.989 79.1688 114.15 78.3825C114.483 78.8161 114.679 78.64 114.931 78.2639C116.202 77.0465 118.68 70.6089 119.548 74.728Z" fill="#1EA7F2"/>
<path fill-rule="evenodd" clip-rule="evenodd" d="M37.0591 138.146C38.9637 135.958 41.5931 137.739 40.5761 140.359C39.1845 139.969 37.9047 139.403 37.0591 138.146Z" fill="#1D71D8"/>
<path fill-rule="evenodd" clip-rule="evenodd" d="M119.038 73.1823C117.018 73.2021 115.921 78.9366 114.149 78.3828C115.209 75.7642 118.372 73.5084 118.181 70.6696C118.438 71.4879 119.669 72.3731 119.038 73.1823Z" fill="#CCCCCC"/>
<path fill-rule="evenodd" clip-rule="evenodd" d="M125.984 99.1574C123.9 95.7784 124.049 91.3957 125.984 97.9717C126.202 98.4101 126.411 98.7582 125.984 99.1574Z" fill="#CCCCCC"/>
<path fill-rule="evenodd" clip-rule="evenodd" d="M102.711 57.3876C102.159 57.7127 101.487 57.9265 100.97 58.282C100.223 59.0505 100.085 59.0882 99.0718 58.5883C99.223 57.3158 101.651 57.7629 102.711 57.3876Z" fill="#CCCCCC"/>
<path fill-rule="evenodd" clip-rule="evenodd" d="M123.256 89.3406C122.44 88.5642 122.346 87.5725 122.419 86.5312C123.234 87.3082 123.432 88.2688 123.256 89.3406Z" fill="#CCCCCC"/>
<path fill-rule="evenodd" clip-rule="evenodd" d="M117.169 67.9517C116.939 67.3629 116.238 66.9696 116.443 66.2008C117.458 66.7722 117.504 66.8838 117.169 67.9517Z" fill="#CCCCCC"/>
<path fill-rule="evenodd" clip-rule="evenodd" d="M123.776 93.0447C123.283 92.448 122.955 91.8154 123.34 91.0284C123.486 91.7006 123.631 92.3726 123.776 93.0447Z" fill="#CCCCCC"/>
<path fill-rule="evenodd" clip-rule="evenodd" d="M116.357 122.734C116.856 122.707 117.356 122.68 117.855 122.653C117.38 123.136 116.876 123.075 116.357 122.734Z" fill="#CCCCCC"/>
<path fill-rule="evenodd" clip-rule="evenodd" d="M121.706 83.1763C121.598 82.6438 121.49 82.1112 121.382 81.5786C121.999 82.0081 121.842 82.5945 121.706 83.1763Z" fill="#CCCCCC"/>
<path fill-rule="evenodd" clip-rule="evenodd" d="M117.775 69.5342C117.132 69.381 116.989 68.9977 117.262 68.4224C117.433 68.793 117.604 69.1636 117.775 69.5342Z" fill="#CCCCCC"/>
<path fill-rule="evenodd" clip-rule="evenodd" d="M119.333 122.174C119.676 121.983 120.019 121.792 120.362 121.601C120.019 121.792 119.676 121.983 119.333 122.174Z" fill="#CCCCCC"/>
<path fill-rule="evenodd" clip-rule="evenodd" d="M123.298 90.5148C123.011 90.2817 122.503 90.0594 123.262 89.7756C123.62 90.0052 123.661 90.2501 123.298 90.5148Z" fill="#CCCCCC"/>
<path fill-rule="evenodd" clip-rule="evenodd" d="M120.994 80.1897C120.59 79.9605 120.42 79.7087 120.916 79.3923C120.942 79.6583 120.968 79.9241 120.994 80.1897Z" fill="#CCCCCC"/>
<path fill-rule="evenodd" clip-rule="evenodd" d="M114.306 62.849C114.148 62.6718 113.307 62.9089 113.942 62.25C114.063 62.4497 114.184 62.6494 114.306 62.849Z" fill="#CCCCCC"/>
<path fill-rule="evenodd" clip-rule="evenodd" d="M127.285 106.382C126.662 106.284 126.999 105.921 127.076 105.63C127.146 105.88 127.215 106.131 127.285 106.382Z" fill="#CCCCCC"/>
<path fill-rule="evenodd" clip-rule="evenodd" d="M124.264 93.797C124.138 93.6063 124.012 93.4153 123.886 93.2245C124.012 93.4154 124.138 93.6063 124.264 93.797Z" fill="#CCCCCC"/>
<path fill-rule="evenodd" clip-rule="evenodd" d="M126.09 100.37C126.028 100.3 125.91 100.268 126.024 100.178C126.086 100.229 126.108 100.293 126.09 100.37Z" fill="#CCCCCC"/>
<path fill-rule="evenodd" clip-rule="evenodd" d="M121.371 81.5599C121.332 81.4771 121.292 81.3944 121.253 81.3118C121.292 81.3945 121.332 81.4773 121.371 81.5599Z" fill="#CCCCCC"/>
<path fill-rule="evenodd" clip-rule="evenodd" d="M118.808 122.316C118.894 122.288 118.98 122.259 119.066 122.231C118.98 122.259 118.894 122.288 118.808 122.316Z" fill="#CCCCCC"/>
<path fill-rule="evenodd" clip-rule="evenodd" d="M51.5569 129.373C51.4545 129.505 51.7263 129.521 51.6331 129.382C51.6238 129.368 51.5833 129.376 51.5569 129.373ZM59.5965 129.732C60.197 129.283 60.4645 129.15 59.8117 128.667C59.4166 129.045 59.0862 129.181 59.5965 129.732ZM66.3118 111.971C67.9394 112.694 65.7949 116.163 67.5632 116.859C69.035 120.726 65.9483 119.245 67.1887 120.807C67.7269 121.029 66.1286 122.686 66.4791 124.262C65.5069 126.178 64.3168 128.757 62.3788 129.944C62.2852 129.964 62.15 130.359 62.2145 130.444C62.5726 130.921 62.0759 130.888 61.9024 131.075C61.5391 131.466 61.4507 131.204 61.3559 130.889C57.8144 133.34 55.2286 144.611 52.6743 134.897C54.6882 130.108 55.0713 118.42 59.0887 116.087C61.9963 115.65 61.0284 110.417 58.5451 110.09C53.5586 110.519 57.359 118.043 54.2987 121.527C53.4834 122.623 54.3412 124.287 53.2937 125.351C52.491 126.653 52.9953 128.447 52.1375 129.761C52.2726 136.459 49.1482 129.604 48.03 127.13C46.1695 123.468 49.9204 120.636 52.4922 118.861C53.2794 118.64 53.3592 119.752 53.7187 118.342C54.27 118.02 54.4217 117.271 54.4681 116.688C52.6001 109.754 60.7924 104.096 62.4494 113.077C62.5425 114.554 64.1911 112.566 65.0738 112.524C65.8046 112.879 65.8095 112.261 66.3118 111.971Z" fill="#CCCCCC"/>
<path fill-rule="evenodd" clip-rule="evenodd" d="M76.9772 74.4263C78.5963 74.9276 86.6193 73.627 85.6227 76.1821C83.7518 80.9787 82.1613 85.8708 81.0312 90.8989C79.6281 93.4661 75.2827 92.563 72.7851 93.7703C72.4876 95.0794 76.963 93.1424 78.0983 93.2069C80.304 92.3853 80.6894 93.0709 80.1025 95.2039C80.022 98.2557 76.3999 97.1485 74.3539 97.4679C73.7552 97.3594 71.8599 95.0885 71.9369 94.4497C69.9478 92.1246 67.532 89.5496 66.2871 86.4626C66.7694 83.4737 70.0378 81.6432 71.2817 79.1174C73.8268 78.4272 74.4923 75.4105 76.9772 74.4263Z" fill="#1EA7F2"/>
<path fill-rule="evenodd" clip-rule="evenodd" d="M45.763 66.6604C67.4837 70.1207 67.3564 77.558 87.959 64.2352C88.73 64.2013 88.7172 64.6897 88.6237 65.2321C87.9028 65.3975 87.3135 65.3359 87.1508 66.239C82.8349 69.2601 77.8426 71.2471 72.9114 73.1454C70.8796 73.7874 71.4217 76.1804 71.0194 77.7018C71.3831 78.8562 71.249 80.6792 69.5551 80.3528C69.0282 79.6924 69.8347 78.008 68.5943 78.3662C68.0992 78.3306 65.5234 78.8571 66.8081 77.6598C66.8227 77.6446 66.6124 77.337 66.5692 77.3514C65.844 77.5939 65.6292 77.236 65.404 76.6013C65.2748 76.1519 63.5428 75.5698 65.0085 75.6762C68.1756 77.2493 67.0969 73.5632 68.1691 77.3573C69.966 77.1961 70.098 73.9873 68.3155 73.4506C67.0449 73.111 65.6911 74.6381 64.8813 73.0406C61.6916 71.3146 63.3229 75.4682 63.0832 76.9642C63.1397 78.125 63.9566 79.2346 64.3068 80.3563C61.0578 80.7925 61.4929 78.0576 60.9344 75.6311C60.8065 74.3389 62.6559 70.6844 59.7015 71.975C57.1444 70.4631 53.3079 70.3497 50.2032 69.295C48.5199 68.8411 45.4913 69.1075 45.763 66.6604Z" fill="#093DB9"/>
<path fill-rule="evenodd" clip-rule="evenodd" d="M63.377 99.906C67.5329 99.8727 73.2609 96.4208 75.8536 100.923C75.7535 103.482 72.6083 105.748 71.5262 108.23C70.2719 110.23 63.7611 102.199 63.377 99.906Z" fill="#1EA7F2"/>
<path fill-rule="evenodd" clip-rule="evenodd" d="M31.0626 117.318C32.2016 127.289 44.1794 114.603 34.9175 112.029C31.0651 111.256 31.9186 115.11 31.0626 117.318ZM29.1741 118.486C30.6991 115.544 29.4418 110.817 33.5866 110.131C37.2744 109.544 40.5545 113.093 40.5632 116.634C40.7638 122.783 29.6454 126.394 29.1741 118.486Z" fill="#CCCCCC"/>
<path fill-rule="evenodd" clip-rule="evenodd" d="M19.9005 81.8124C20.494 78.2543 15.1942 74.6526 13.4632 78.4757C13.4237 79.5807 14.7708 78.5126 13.7711 80.4808C12.6007 87.587 18.6315 89.6438 19.9005 81.8124ZM15.8632 75.3052C23.6433 75.7597 23.519 87.7974 16.1241 88.9573C10.4588 88.3402 8.97536 75.5274 15.8632 75.3052Z" fill="#CCCCCC"/>
<path fill-rule="evenodd" clip-rule="evenodd" d="M32.0589 89.6726C30.423 92.965 34.1621 98.5639 38.3695 95.5896C41.3576 90.5414 31.7772 86.0847 33.8262 93.4451C32.8538 94.6451 32.2175 90.5903 32.0589 89.6726ZM40.777 93.1865C41.4053 97.5013 34.6749 100.432 32.0768 96.5613C29.9483 93.6864 29.7563 88.5866 33.9734 87.7821C35.0132 87.0518 35.3411 89.219 36.2532 88.3982C38.3212 87.1473 41.0688 91.4735 40.777 93.1865Z" fill="#CCCCCC"/>
<path fill-rule="evenodd" clip-rule="evenodd" d="M24.1268 64.2864C25.244 74.2431 37.1907 61.6924 27.6008 60.9061C25.8731 60.9305 23.823 61.9949 24.1268 64.2864ZM33.1276 64.2606C33.1577 67.9025 28.9163 69.879 25.8238 70.2684C23.0947 68.5036 21.1081 64.9562 23.3067 61.9285C26.6022 57.9793 32.9524 58.0332 33.1276 64.2606Z" fill="#CCCCCC"/>
<path fill-rule="evenodd" clip-rule="evenodd" d="M18.3492 102.092C11.7885 100.049 23.4099 94.8561 24.0815 103.199C22.6354 107.343 16.4102 107.847 16.3064 102.742C17.1303 101.362 17.8802 104.909 19.4522 104.753C22.0233 105.217 22.8326 101.11 20.2033 100.549C18.8412 100.116 16.4682 100.357 18.3492 102.092Z" fill="#CCCCCC"/>
<path fill-rule="evenodd" clip-rule="evenodd" d="M53.4902 76.659C56.2144 77.8996 54.5153 77.7676 52.9734 79.3084C50.6351 81.0807 47.2577 80.9319 45.7551 79.1742C44.0846 76.7607 44.4479 72.4391 47.4152 71.1374C48.0418 70.8737 47.8191 70.4335 47.659 70.0039C48.9716 71.7636 48.4403 71.5762 47.1874 72.9059C44.8165 78.1398 49.7514 80.2144 53.4902 76.659Z" fill="#CCCCCC"/>
<path fill-rule="evenodd" clip-rule="evenodd" d="M65.4793 87.0197C65.9472 88.5352 71.0223 93.7328 69.3091 94.3251C60.7359 96.6303 61.9785 93.2201 65.4793 87.0197Z" fill="#1EA7F2"/>
<path fill-rule="evenodd" clip-rule="evenodd" d="M57.5585 116.767C56.6101 119.691 50.7984 143.638 52.2183 130.543C52.3726 128.871 52.7196 126.966 53.2932 125.351C54.342 124.287 53.4822 122.623 54.2993 121.528C54.9217 120.802 54.6514 119.766 55.4627 119.052C56.1053 117.954 55.4588 116.256 57.5585 116.767Z" fill="#1EA7F2"/>
<path fill-rule="evenodd" clip-rule="evenodd" d="M62.9702 95.8493C66.5463 95.721 70.9403 93.244 72.8617 97.4764C69.9057 97.6975 61.2729 101.536 62.9702 95.8493Z" fill="#1EA7F2"/>
<path fill-rule="evenodd" clip-rule="evenodd" d="M53.8464 101.09C47.4752 105.619 48.1736 95.7122 50.2266 99.0922C49.9387 100.247 51.8358 100.634 52.3777 99.7666C53.2282 98.6149 51.3436 97.7322 50.4886 97.6632C49.1266 97.6042 50.6674 96.4932 51.1406 96.4649C53.4795 96.1031 55.245 99.2078 53.8464 101.09Z" fill="#CCCCCC"/>
<path fill-rule="evenodd" clip-rule="evenodd" d="M53.8464 101.09C54.2249 99.2672 55.9049 100.691 57.2412 99.8973C58.7998 100.486 55.0076 101.853 53.8464 101.09Z" fill="#1EA7F2"/>
<path fill-rule="evenodd" clip-rule="evenodd" d="M30.6812 52.0894C32.5686 54.9032 30.0898 55.7488 29.6216 52.604C30.017 52.5185 30.5467 52.7105 30.6812 52.0894Z" fill="#CCCCCC"/>
<path fill-rule="evenodd" clip-rule="evenodd" d="M29.6222 52.6039C29.9879 53.6502 30.1516 55.2133 29.0524 53.5794C28.3913 54.1191 28.4731 53.2855 28.1958 53.1156C28.5408 52.1871 29.0885 51.1758 29.6222 52.6039Z" fill="#093DB9"/>
<path fill-rule="evenodd" clip-rule="evenodd" d="M24.9513 55.0766C24.9379 54.5804 25.6964 54.3083 25.0439 54.3439C22.9764 52.1729 29.5828 55.0867 24.9513 55.0766Z" fill="#1EA7F2"/>
<path fill-rule="evenodd" clip-rule="evenodd" d="M28.1956 53.1156C28.473 53.2856 28.3912 54.1191 29.0525 53.5794C30.4181 54.8145 27.7768 54.3568 26.9031 54.6738C27.1231 54.0092 28.2723 54.0843 28.1956 53.1156Z" fill="#CCCCCC"/>
<path fill-rule="evenodd" clip-rule="evenodd" d="M67.816 80.1093C68.0974 79.4382 67.5162 79.015 67.3467 78.4745C68.8805 77.7032 68.8998 80.0744 67.816 80.1093Z" fill="#1EA7F2"/>
<path fill-rule="evenodd" clip-rule="evenodd" d="M20.0677 64.1082C19.5904 64.5549 19.3434 65.4801 18.66 65.5646C18.6473 65.0613 19.6422 63.4375 20.0677 64.1082Z" fill="#1EA7F2"/>
<path fill-rule="evenodd" clip-rule="evenodd" d="M22.7004 62.034C22.287 62.502 20.962 63.3699 20.9897 62.3588C21.5745 62.2087 22.1317 61.5702 22.7004 62.034Z" fill="#1EA7F2"/>
<path fill-rule="evenodd" clip-rule="evenodd" d="M52.4922 118.861C52.0329 119.464 51.4194 119.811 50.6829 119.955C51.0787 118.986 51.5579 118.696 52.4922 118.861Z" fill="#1EA7F2"/>
<path fill-rule="evenodd" clip-rule="evenodd" d="M69.2329 79.1467C69.8098 80.1302 69.1608 81.4114 68.2686 80.1454C68.5747 79.7997 68.9142 79.4816 69.2329 79.1467Z" fill="#1EA7F2"/>
<path fill-rule="evenodd" clip-rule="evenodd" d="M59.4709 98.0785C59.0109 98.4416 58.838 98.6637 58.4319 98.1859C58.8565 97.9189 59.0023 97.5004 59.4709 98.0785Z" fill="#CCCCCC"/>
<path fill-rule="evenodd" clip-rule="evenodd" d="M53.7188 118.342C53.4209 119.26 53.4209 119.26 52.9429 118.812C52.9559 118.251 53.3295 118.283 53.7188 118.342Z" fill="#1EA7F2"/>
<path fill-rule="evenodd" clip-rule="evenodd" d="M66.0198 112.073C65.9744 112.789 65.4972 112.6 65.074 112.524C65.3893 112.373 65.7045 112.223 66.0198 112.073Z" fill="#1EA7F2"/>
<path fill-rule="evenodd" clip-rule="evenodd" d="M50.6197 119.982C50.3985 120.227 50.1772 120.472 49.9562 120.716C49.8984 120.219 50.1308 119.985 50.6197 119.982Z" fill="#1EA7F2"/>
<path fill-rule="evenodd" clip-rule="evenodd" d="M51.0618 132.541C51.1781 132.673 51.2944 132.806 51.4105 132.938C51.2942 132.806 51.178 132.674 51.0618 132.541Z" fill="#1EA7F2"/>
<path fill-rule="evenodd" clip-rule="evenodd" d="M66.0636 86.3084C65.9991 86.3233 65.8843 86.3081 65.8264 86.2762C65.9056 86.2869 65.9845 86.2976 66.0636 86.3084Z" fill="#1EA7F2"/>
<path fill-rule="evenodd" clip-rule="evenodd" d="M54.1239 118.036C54.0582 118.08 53.9924 118.125 53.9268 118.169C53.9928 118.124 54.0583 118.08 54.1239 118.036Z" fill="#1EA7F2"/>
<path fill-rule="evenodd" clip-rule="evenodd" d="M67.0134 64.7396C66.5646 63.6524 67.1811 62.9682 67.8402 62.4965C67.6642 61.7539 66.9495 62.4644 66.508 62.2039C66.2493 61.1599 64.4441 59.6852 65.2039 58.8284C66.8104 57.85 66.0534 59.6733 67.3073 59.8217C68.9447 62.1622 69.6519 58.4384 70.5313 60.1662C70.9484 60.5799 71.3737 60.5656 71.4004 59.9149C71.4297 58.5198 69.8735 59.9093 70.2882 58.5796C71.6684 57.3051 72.8083 59.1215 72.464 60.5323C71.8278 60.9572 69.6785 60.779 71.779 61.6046C72.6829 62.5072 71.6765 63.2367 71.0827 62.1239C70.1178 62.2639 69.8215 61.8192 68.8549 61.6049C68.1026 62.1573 69.2694 62.1318 69.3036 62.5556C68.8589 63.8085 67.5729 63.0956 67.157 64.0818C66.9666 64.8064 68.3109 64.1612 67.0134 64.7396Z" fill="#CCCCCC"/>
<path fill-rule="evenodd" clip-rule="evenodd" d="M44.7397 42.1358C44.68 41.4936 44.5263 41.5726 44.3051 42.0923C44.3322 42.5634 44.5196 42.5548 44.7397 42.1358ZM46.048 46.1675C45.6523 45.9415 45.2038 45.8181 45.2688 45.2637C45.1168 45.3818 44.8528 45.4824 44.8313 45.6207C44.6614 46.7712 43.0926 46.6577 43.5987 45.5255C43.6828 45.0386 43.6114 44.9926 42.9862 45.1633C41.387 45.4824 42.7411 43.6691 42.4629 42.8044C42.2654 41.648 43.8198 41.811 43.6152 40.6119C43.3558 39.3931 44.9326 39.7178 45.6848 39.9737C47.4116 40.8705 45.723 40.0216 45.3359 40.9618C45.1739 41.5924 45.8273 41.4418 46.0924 41.6666C45.1618 42.2558 45.7109 43.422 45.1286 44.131C43.7206 44.7252 46.7104 45.0801 47.2359 45.0591C47.0909 46.3707 46.0404 45.2983 46.048 46.1675Z" fill="#CCCCCC"/>
<path fill-rule="evenodd" clip-rule="evenodd" d="M68.2795 31.4401C67.6636 32.0153 66.8718 35.7192 66.5594 34.3464C67.0857 33.6461 65.7213 32.713 66.0723 33.8065C65.1021 34.4178 64.9067 34.6103 64.7006 33.4018C63.3076 33.4985 64.1692 32.3932 63.8965 31.9308C61.9317 29.3064 66.7238 31.5136 68.2795 31.4401Z" fill="#CCCCCC"/>
<path fill-rule="evenodd" clip-rule="evenodd" d="M71.2258 38.4096C71.4707 38.1328 71.6971 37.9502 71.3404 37.7832C70.9118 37.8767 70.9865 38.0217 71.2258 38.4096ZM73.7594 35.9046C75.1275 36.2231 74.0562 34.8669 74.9494 35.1538C75.9717 35.0908 78.0185 36.5015 76.0146 36.454C75.7297 37.0576 75.0634 37.0503 74.4672 36.9649C73.555 37.0277 73.5557 37.0392 73.9462 37.7535C73.599 38.5807 73.6069 38.5586 72.8597 38.2934C71.6278 38.5015 69.6132 39.0632 70.6846 37.064C73.4173 37.7009 71.4629 35.9052 73.7594 35.9046Z" fill="#1EA7F2"/>
<path fill-rule="evenodd" clip-rule="evenodd" d="M22.2375 48.1397C23.1316 48.0907 23.5204 49.3098 24.6904 49.6048C25.6534 49.8311 24.7018 48.5614 26.5495 48.6344C27.5886 48.1926 27.8964 49.0636 28.365 49.646C27.9608 49.6541 26.569 49.5661 27.4348 48.9684C25.4033 48.9971 26.7755 49.1495 25.9557 50.4121C24.221 52.5771 22.6496 50.0717 22.2375 48.1397Z" fill="#CCCCCC"/>
<path fill-rule="evenodd" clip-rule="evenodd" d="M76.5398 60.0373C75.7517 59.6721 74.5301 57.5181 74.2469 58.8146C73.8752 58.5094 74.0547 58.0266 73.9419 57.6188C73.2973 57.6224 73.4997 57.0623 74.0597 56.8799C69.6536 56.8969 75.1127 54.5078 74.5134 56.142C74.5362 56.5008 74.9879 55.6747 74.9564 56.3071C74.8581 58.609 78.9019 58.142 76.5398 60.0373Z" fill="#1D71D8"/>
<path fill-rule="evenodd" clip-rule="evenodd" d="M23.4448 51.1892C24.9029 51.0912 25.857 51.2064 26.4197 49.655C27.1708 50.385 27.9239 51.8756 26.2752 52.0569C25.4481 52.0572 25.7203 52.408 26.0508 52.8559C27.4167 54.1465 25.3998 53.8988 24.6766 53.0934L24.6831 53.1008C24.3688 52.1658 23.6444 52.0182 23.4448 51.1892Z" fill="#1D71D8"/>
<path fill-rule="evenodd" clip-rule="evenodd" d="M44.246 39.6853C43.6143 39.7023 43.5749 40.3153 43.6153 40.612C43.7062 41.2788 43.3153 41.5431 42.9032 41.8357C42.1192 42.5392 42.5147 44.1077 42.1698 45.1332C40.9543 48.4276 41.2991 43.3271 41.7742 42.1479C42.5074 41.7486 42.9023 41.1982 42.7501 40.2516C43.4571 40.0539 43.4441 39.2937 44.246 39.6853Z" fill="#1D71D8"/>
<path fill-rule="evenodd" clip-rule="evenodd" d="M85.3769 51.9216C83.679 52.5118 86.0584 52.4793 86.0337 53.4386C85.3427 53.9234 87.7299 54.5207 85.1574 54.2444C84.4779 54.1968 84.7866 56.0037 84.0721 54.8531C84.5838 54.5089 83.6155 53.7135 84.4908 53.48C83.9003 52.9285 83.1395 52.0411 83.9171 51.3157C84.2336 51.9274 84.8065 51.9216 85.3769 51.9216Z" fill="#CCCCCC"/>
<path fill-rule="evenodd" clip-rule="evenodd" d="M48.4653 48.8969C48.8546 46.145 46.5225 48.572 47.4926 46.5003C48.3536 44.9972 53.0134 50.9926 48.4653 48.8969Z" fill="#CCCCCC"/>
<path fill-rule="evenodd" clip-rule="evenodd" d="M23.4022 45.1494C22.5234 45.2476 22.0154 46.0199 22.0019 44.7249C22.8684 44.6085 21.9164 44.1216 22.1745 43.8816C21.5016 43.163 21.2496 43.9562 21.1399 42.7719C22.1872 40.7693 23.6443 42.716 22.9411 44.1749C22.3472 45.0472 23.5917 44.6363 23.4022 45.1494Z" fill="#CCCCCC"/>
<path fill-rule="evenodd" clip-rule="evenodd" d="M28.2861 46.3898C27.4844 46.9985 27.61 45.563 26.619 45.9373C26.5909 46.3536 26.9086 47.498 26.1624 47.0108C26.4122 46.4745 26.0321 46.3979 25.6564 46.3181C26.2619 45.7596 25.8403 44.9771 25.5971 44.6958C24.624 43.1646 26.3306 42.5169 26.389 45.072C26.9184 46.0891 27.6514 43.4822 28.2861 46.3898Z" fill="#CCCCCC"/>
<path fill-rule="evenodd" clip-rule="evenodd" d="M70.2031 59.535C69.0166 59.2743 68.5184 58.5113 67.8213 59.7714C66.4554 57.297 71.0437 57.0919 70.2031 59.535Z" fill="#1EA7F2"/>
<path fill-rule="evenodd" clip-rule="evenodd" d="M46.0924 41.6666C43.6494 40.786 47.6302 39.7944 48.4506 40.6172C46.8264 43.7155 47.0119 39.7921 46.0759 41.6703C46.0759 41.6702 46.0924 41.6666 46.0924 41.6666Z" fill="#1D71D8"/>
<path fill-rule="evenodd" clip-rule="evenodd" d="M74.7805 62.0416C76.7635 61.0214 75.4474 63.0648 76.7193 63.0001C75.2385 64.0747 74.3939 64.0478 74.7805 62.0416Z" fill="#CCCCCC"/>
<path fill-rule="evenodd" clip-rule="evenodd" d="M18.4801 38.7218C18.4297 38.3922 19.6152 38.4877 18.7682 37.884C19.3795 37.6109 19.968 36.4891 20.5304 37.3515C19.9459 39.3797 21.7152 39.7145 18.4801 38.7218Z" fill="#CCCCCC"/>
<path fill-rule="evenodd" clip-rule="evenodd" d="M33.9562 40.2698C33.6653 40.3654 33.8494 40.5096 33.9923 40.6585C34.3415 40.6977 34.058 40.4339 33.9562 40.2698ZM33.2906 39.4814C33.6166 39.6308 33.9528 39.9215 34.2662 39.899C35.4905 39.6298 34.4364 42.3088 34.0544 41.5849C34.0776 40.7549 31.509 40.0345 33.2906 39.4814Z" fill="#1EA7F2"/>
<path fill-rule="evenodd" clip-rule="evenodd" d="M77.6384 53.8757C77.3785 54.5841 76.8308 55.7372 76.0951 55.998C75.6182 55.7783 76.3714 55.7702 76.197 55.6129C74.4261 54.6693 76.7308 54.4919 77.6384 53.8757Z" fill="#1EA7F2"/>
<path fill-rule="evenodd" clip-rule="evenodd" d="M69.6121 65.7433C69.6312 64.8635 70.2085 64.0243 71.2339 64.1672C71.75 64.4045 71.1149 64.6555 71.1518 64.9035C71.957 65.5666 70.1581 65.455 69.6121 65.7433Z" fill="#1EA7F2"/>
<path fill-rule="evenodd" clip-rule="evenodd" d="M43.488 39.506C43.4133 40.345 41.9321 40.5674 41.2789 40.333C41.2187 40.0367 41.7546 39.4996 40.9448 39.5071C41.4331 38.618 42.6578 39.5111 43.488 39.506Z" fill="#CCCCCC"/>
<path fill-rule="evenodd" clip-rule="evenodd" d="M67.8211 59.7712C68.765 58.1541 70.3338 59.5178 69.1145 60.8492C68.2636 60.5498 69.6706 59.8108 68.594 60.0169C68.0549 60.6037 66.7618 59.8074 67.8211 59.7712Z" fill="#1D71D8"/>
<path fill-rule="evenodd" clip-rule="evenodd" d="M71.1409 38.7205C72.2195 37.8435 73.5814 39.0669 73.9463 37.7534C74.0783 39.9182 72.6277 38.9636 71.1409 38.7205Z" fill="#CCCCCC"/>
<path fill-rule="evenodd" clip-rule="evenodd" d="M28.3649 49.6461C30.6314 49.0321 29.8892 50.3878 28.4163 51.1005C28.3927 50.6295 27.535 49.4268 28.3649 49.6461Z" fill="#1D71D8"/>
<path fill-rule="evenodd" clip-rule="evenodd" d="M21.1397 42.7721C21.2506 43.9594 21.5011 43.161 22.1747 43.8816C19.7365 44.9312 19.9118 42.8117 21.1397 42.7721Z" fill="#1EA7F2"/>
<path fill-rule="evenodd" clip-rule="evenodd" d="M70.288 58.5796C69.6838 57.8782 71.0476 57.5412 69.7854 57.2428C71.3464 56.4842 72.1279 58.0272 70.288 58.5796Z" fill="#1D71D8"/>
<path fill-rule="evenodd" clip-rule="evenodd" d="M36.0962 43.3857C35.4418 43.9711 35.3702 45.5319 34.4685 44.4875C34.2566 44.2586 34.3598 44.1418 34.7632 44.0549C35.2344 43.9162 35.9861 41.9536 36.0962 43.3857Z" fill="#CCCCCC"/>
<path fill-rule="evenodd" clip-rule="evenodd" d="M74.777 60.0483C75.7769 60.1974 75.6822 61.3118 74.7683 61.4956C74.7713 61.0129 74.7741 60.5306 74.777 60.0483Z" fill="#CCCCCC"/>
<path fill-rule="evenodd" clip-rule="evenodd" d="M39.0718 48.2347C39.7093 48.6082 39.8216 49.0529 38.9792 49.091C38.485 48.7431 38.1211 48.3391 39.0718 48.2347Z" fill="#CCCCCC"/>
<path fill-rule="evenodd" clip-rule="evenodd" d="M81.6072 38.817C82.8316 38.5297 81.2694 40.5107 80.4414 40.426C80.4029 39.8687 80.1447 39.1812 80.9588 39.429C81.5866 39.6366 81.672 39.3177 81.6072 38.817Z" fill="#CCCCCC"/>
<path fill-rule="evenodd" clip-rule="evenodd" d="M85.3769 51.9217C84.8065 51.9217 84.2336 51.9275 83.917 51.3159C84.5368 50.6598 85.4314 51.0409 85.3769 51.9217Z" fill="#1D71D8"/>
<path fill-rule="evenodd" clip-rule="evenodd" d="M80.3494 39.4233C81.079 41.0455 78.7276 39.9919 79.4587 39.3139C79.8957 39.1645 80.274 38.7401 80.3494 39.4233Z" fill="#1D71D8"/>
<path fill-rule="evenodd" clip-rule="evenodd" d="M69.7856 57.2428C70.443 57.4746 70.5936 57.5929 70.028 58.0981C69.2083 58.2693 68.9006 57.4684 69.7856 57.2428Z" fill="#CCCCCC"/>
<path fill-rule="evenodd" clip-rule="evenodd" d="M39.087 42.9356C39.2443 41.9911 39.9362 42.0111 39.841 42.9488C39.4687 43.1731 38.905 43.6909 39.087 42.9356Z" fill="#1EA7F2"/>
<path fill-rule="evenodd" clip-rule="evenodd" d="M75.7664 39.7253C76.73 39.8907 77.6936 40.0561 78.6568 40.2213C77.6931 40.056 76.7297 39.8907 75.7664 39.7253Z" fill="#1EA7F2"/>
<path fill-rule="evenodd" clip-rule="evenodd" d="M99.5244 24.0265C99.7576 23.5396 100.164 23.1789 100.641 23.6186C100.383 24.0169 99.9373 23.9624 99.5244 24.0265Z" fill="#1D71D8"/>
<path fill-rule="evenodd" clip-rule="evenodd" d="M102.988 24.1145C102.501 24.2616 102.014 24.4088 101.527 24.556C102.014 24.4088 102.501 24.2616 102.988 24.1145Z" fill="#1D71D8"/>
<path fill-rule="evenodd" clip-rule="evenodd" d="M67.2773 59.7979C66.9405 59.6226 66.3447 59.6987 66.5246 59.0223C66.7755 59.281 67.0264 59.5395 67.2773 59.7979Z" fill="#1D71D8"/>
<path fill-rule="evenodd" clip-rule="evenodd" d="M73.4685 57.5412C74.1616 57.4666 73.9565 57.9793 74.0059 58.4419C73.8268 58.1418 73.6476 57.8415 73.4685 57.5412Z" fill="#CCCCCC"/>
<path fill-rule="evenodd" clip-rule="evenodd" d="M74.2563 58.8129C74.6563 57.6423 74.8221 58.7385 74.6531 59.3982C74.5208 59.2029 74.3886 59.008 74.2563 58.8129Z" fill="#CCCCCC"/>
<path fill-rule="evenodd" clip-rule="evenodd" d="M67.8193 38.2684C68.3008 38.3343 68.7824 38.4001 69.2635 38.4657C68.7819 38.3998 68.3006 38.3342 67.8193 38.2684Z" fill="#1EA7F2"/>
<path fill-rule="evenodd" clip-rule="evenodd" d="M24.6832 53.4789C24.5039 54.3207 24.033 52.6353 24.6831 53.1008C24.6654 53.1921 24.6882 53.3568 24.6832 53.4789Z" fill="#1D71D8"/>
<path fill-rule="evenodd" clip-rule="evenodd" d="M99.2442 23.372C98.9301 23.2903 98.616 23.2086 98.3022 23.1271C98.6165 23.2088 98.9304 23.2904 99.2442 23.372Z" fill="#1D71D8"/>
<path fill-rule="evenodd" clip-rule="evenodd" d="M83.07 51.6963C82.9571 51.7269 82.8443 51.7575 82.7324 51.7875C82.8456 51.7566 82.9579 51.7264 83.07 51.6963Z" fill="#CCCCCC"/>
<path fill-rule="evenodd" clip-rule="evenodd" d="M69.3162 38.4889C69.475 38.5313 69.634 38.5738 69.7924 38.6163C69.6335 38.5739 69.4748 38.5313 69.3162 38.4889Z" fill="#1EA7F2"/>
<path fill-rule="evenodd" clip-rule="evenodd" d="M101.44 24.5721C101.306 24.6505 101.172 24.729 101.039 24.8072C101.173 24.7287 101.307 24.6505 101.44 24.5721Z" fill="#1D71D8"/>
<path fill-rule="evenodd" clip-rule="evenodd" d="M66.8975 65.2705C66.9192 65.3531 66.9927 65.4265 66.8626 65.4506C66.8111 65.3779 66.8227 65.3181 66.8975 65.2705Z" fill="#CCCCCC"/>
<path fill-rule="evenodd" clip-rule="evenodd" d="M28.7068 49.1121C28.752 49.0321 28.7974 48.9521 28.8421 48.8722C28.7967 48.9522 28.7517 49.0321 28.7068 49.1121Z" fill="#1D71D8"/>
<path fill-rule="evenodd" clip-rule="evenodd" d="M74.0144 58.521C74.0919 58.6188 74.1693 58.7166 74.2468 58.8146C74.1693 58.7165 74.0918 58.6187 74.0144 58.521Z" fill="#CCCCCC"/>
<path fill-rule="evenodd" clip-rule="evenodd" d="M106.009 80.8794C105.642 82.1619 106.45 84.3175 104.842 84.8119C98.9203 86.9328 92.9269 88.8188 86.854 90.4598C84.3412 90.0177 95.6968 79.9446 97.1555 78.0734C99.4512 76.6479 102.72 79.2133 105.309 79.3933C106.145 79.6199 106.062 80.2478 106.009 80.8794Z" fill="#1EA7F2"/>
<path fill-rule="evenodd" clip-rule="evenodd" d="M81.7766 90.9414C83.1873 87.6042 84.9386 75.9313 88.017 75.2568C89.9139 75.8734 96.4999 75.756 96.3971 77.7115C93.1945 79.535 84.3348 93.6191 81.7766 90.9414Z" fill="#1EA7F2"/>
<path fill-rule="evenodd" clip-rule="evenodd" d="M88.4356 65.3474C93.5254 62.1773 87.227 70.869 86.6869 73.4601C86.8815 74.6728 78.2786 73.7547 78.9218 72.663C81.9905 70.0782 85.4808 67.797 88.4356 65.3474Z" fill="#1EA7F2"/>
<path fill-rule="evenodd" clip-rule="evenodd" d="M106.865 70.5662C105.559 78.4242 108.717 80.1064 99.4969 76.9316C97.1364 76.9977 107.798 68.6315 106.865 70.5662Z" fill="#1EA7F2"/>
<path fill-rule="evenodd" clip-rule="evenodd" d="M106.526 81.1372C106.896 78.8743 109.761 81.1399 111.19 81.3227C112.371 81.6799 111.071 82.8471 110.845 82.9618C109.859 82.522 109.185 83.2731 108.382 83.4636C106.295 84.8554 106.781 82.7415 106.526 81.1372Z" fill="#1EA7F2"/>
<path fill-rule="evenodd" clip-rule="evenodd" d="M106.378 94.4137C106.127 95.7232 107.831 99.2313 105.629 98.9626C102.977 99.0575 105.651 94.8797 106.378 94.4137Z" fill="#1EA7F2"/>
<path fill-rule="evenodd" clip-rule="evenodd" d="M90.9106 64.285C87.5274 65.683 89.7122 65.0236 87.9595 64.2359C90.0246 63.0349 95.801 60.3011 90.9106 64.285Z" fill="#1D71D8"/>
<path fill-rule="evenodd" clip-rule="evenodd" d="M76.7408 98.2037C78.38 97.7707 78.2236 98.7906 77.6327 99.8955C76.7724 100.623 76.7449 100.602 75.9049 99.7379C74.4051 98.2959 75.2772 98.2285 76.7408 98.2037Z" fill="#1EA7F2"/>
<path fill-rule="evenodd" clip-rule="evenodd" d="M108.383 111.644C107.382 113.758 106.938 107.021 107.474 106.481C108.272 108.158 108.238 109.714 108.383 111.644Z" fill="#1EA7F2"/>
<path fill-rule="evenodd" clip-rule="evenodd" d="M79.4398 98.9344C79.3426 105.054 76.7159 101.981 78.2194 99.9663C78.499 99.6465 79.2139 98.1125 79.4398 98.9344Z" fill="#1EA7F2"/>
<path fill-rule="evenodd" clip-rule="evenodd" d="M81.0847 94.7455C81.2399 93.7007 81.3024 91.8375 82.8403 92.2552C82.9497 93.025 81.6599 94.3891 81.0847 94.7455Z" fill="#1EA7F2"/>
<path fill-rule="evenodd" clip-rule="evenodd" d="M94.0259 99.8123C93.7281 99.9927 93.6153 100.202 93.3472 99.9383C93.5833 99.676 93.6468 99.5667 94.0259 99.8123Z" fill="#1EA7F2"/>
<path fill-rule="evenodd" clip-rule="evenodd" d="M93.2139 100.617L93.1895 100.534C93.28 100.53 93.2418 100.563 93.2139 100.617Z" fill="#1EA7F2"/>
<path fill-rule="evenodd" clip-rule="evenodd" d="M80.9533 131.661C80.891 131.549 80.6641 131.43 80.8495 131.347C80.8896 131.431 80.891 131.657 80.9533 131.661Z" fill="#1EA7F2"/>
<path fill-rule="evenodd" clip-rule="evenodd" d="M102.385 105.331C102.335 105.515 102.275 105.559 102.105 105.444C102.153 105.255 102.214 105.214 102.385 105.331Z" fill="#CCCCCC"/>
<path fill-rule="evenodd" clip-rule="evenodd" d="M91.3442 105.153C91.3803 105.168 91.4164 105.183 91.4525 105.198C91.4155 105.185 91.3739 105.12 91.3442 105.153Z" fill="#CCCCCC"/>
<path fill-rule="evenodd" clip-rule="evenodd" d="M117.828 111.334C118.451 112.13 118.385 112.301 117.841 112.936C117.087 112.345 117.107 112.157 117.828 111.334Z" fill="#CCCCCC"/>
<path fill-rule="evenodd" clip-rule="evenodd" d="M8.01758 51.3958C8.45433 51.4639 8.89108 51.532 9.32807 51.6003C8.89132 51.532 8.45445 51.4639 8.01758 51.3958Z" fill="#CCCCCC"/>
<path fill-rule="evenodd" clip-rule="evenodd" d="M9.55054 51.6298C9.81218 51.5454 10.0737 51.4609 10.3354 51.3763C10.0738 51.4609 9.81218 51.5453 9.55054 51.6298Z" fill="#CCCCCC"/>
<path fill-rule="evenodd" clip-rule="evenodd" d="M57.5584 116.767C54.0703 117.628 55.4135 109.686 58.5444 110.09C60.5521 110.289 61.0384 113.137 60.7225 114.78C59.5821 115.443 58.2109 115.517 57.5584 116.767Z" fill="#1D71D8"/>
<path fill-rule="evenodd" clip-rule="evenodd" d="M57.8555 116.417C58.4046 115.363 59.7992 115.437 60.7222 114.78C60.5577 116 58.8342 116.054 57.8555 116.417Z" fill="#1EA7F2"/>
<path fill-rule="evenodd" clip-rule="evenodd" d="M59.5967 129.732C59.0864 129.181 59.4167 129.045 59.8121 128.667C60.4646 129.151 60.1972 129.283 59.5967 129.732Z" fill="#1EA7F2"/>
<path fill-rule="evenodd" clip-rule="evenodd" d="M51.5569 129.374C51.5834 129.376 51.6238 129.369 51.6331 129.382C51.7262 129.521 51.4545 129.505 51.5569 129.374Z" fill="#1EA7F2"/>
<path fill-rule="evenodd" clip-rule="evenodd" d="M57.1599 74.4092C57.2263 73.9955 57.3804 73.5568 57.4023 73.1549C57.5771 73.7554 57.6658 74.1759 57.9237 73.356C58.7875 74.0599 61.4722 73.3828 60.8697 75.0822C56.8064 72.6491 58.2679 76.3959 57.1599 74.4092Z" fill="#1EA7F2"/>
<path fill-rule="evenodd" clip-rule="evenodd" d="M81.9633 70.2251C81.3159 68.3781 84.767 68.3383 85.7642 67.3347C84.9793 68.2767 83.1785 69.3581 81.9633 70.2251Z" fill="#CCCCCC"/>
<path fill-rule="evenodd" clip-rule="evenodd" d="M61.5923 72.1567C60.5032 72.0453 60.5032 72.0453 59.4382 72.9579C59.1982 72.7546 59.2871 72.188 58.7041 72.3525C57.5593 72.4012 58.2852 73.8842 57.4025 73.1548C57.2607 71.9746 60.1878 71.7193 57.6815 71.1953C58.3298 71.2419 59.1267 70.9246 59.3964 71.907C60.2952 71.8298 60.7114 71.4791 61.5923 72.1567Z" fill="#1D71D8"/>
<path fill-rule="evenodd" clip-rule="evenodd" d="M68.3155 73.4503C68.1817 74.6675 67.7175 75.9407 66.5645 76.17C67.2815 74.9115 66.2043 73.1361 68.3155 73.4503Z" fill="#1D71D8"/>
<path fill-rule="evenodd" clip-rule="evenodd" d="M69.2326 79.1467C68.0678 80.5129 68.4401 79.5923 68.5944 78.3664C69.4552 78.0956 69.3154 78.6446 69.2326 79.1467Z" fill="#CCCCCC"/>
<path fill-rule="evenodd" clip-rule="evenodd" d="M63.0664 74.677C63.4088 74.7075 63.8615 74.614 63.7854 75.1927C63.3828 76.2098 62.583 75.4545 63.0664 74.677Z" fill="#CCCCCC"/>
<path fill-rule="evenodd" clip-rule="evenodd" d="M88.4356 65.3475C88.1229 65.8112 87.8076 66.2716 87.1506 66.2389C87.3266 65.5777 87.6929 65.1915 88.4356 65.3475Z" fill="#1D71D8"/>
<path fill-rule="evenodd" clip-rule="evenodd" d="M85.8515 67.3344C85.8057 67.3416 85.7239 67.327 85.6833 67.3052C85.8282 67.1863 85.973 67.0669 86.1177 66.9476C86.0289 67.0764 85.9401 67.2055 85.8515 67.3344Z" fill="#1D71D8"/>
<path fill-rule="evenodd" clip-rule="evenodd" d="M71.108 78.6473C71.1702 78.711 71.1916 78.7862 71.1716 78.8727C71.1118 78.7903 70.9805 78.7403 71.108 78.6473Z" fill="#1EA7F2"/>
<path fill-rule="evenodd" clip-rule="evenodd" d="M71.0895 77.65C71.1191 77.7305 71.2016 77.8032 71.0852 77.8542C71.0562 77.7715 70.9653 77.698 71.0895 77.65Z" fill="#1EA7F2"/>
<path fill-rule="evenodd" clip-rule="evenodd" d="M71.2283 75.9456C71.2671 76.0116 71.2526 76.0778 71.1896 76.1202C71.1576 76.0338 71.1057 75.9537 71.2283 75.9456Z" fill="#1EA7F2"/>
<path fill-rule="evenodd" clip-rule="evenodd" d="M60.9342 75.6316C60.8674 75.5534 60.8749 75.4831 60.9567 75.4214C60.9833 75.5135 61.0795 75.5954 60.9342 75.6316Z" fill="#1EA7F2"/>
<path fill-rule="evenodd" clip-rule="evenodd" d="M53.4901 76.6589C47.9719 81.9156 43.6169 74.6536 48.7449 71.853C50.006 73.6279 52.5932 75.026 53.4901 76.6589Z" fill="#1D71D8"/>
<path fill-rule="evenodd" clip-rule="evenodd" d="M55.3877 72.9379C55.7326 72.8501 55.3516 71.7181 56.2179 72.3663C57.3433 72.8541 55.5436 74.148 55.3877 72.9379Z" fill="#1EA7F2"/>
<path fill-rule="evenodd" clip-rule="evenodd" d="M58.1594 76.8713C57.3997 77.1176 57.0417 77.6558 56.4819 77.0723C57.1402 76.5952 57.3033 76.17 58.1594 76.8713Z" fill="#CCCCCC"/>
<path fill-rule="evenodd" clip-rule="evenodd" d="M57.1599 74.4092C57.6702 75.2392 57.8363 75.4965 56.7261 75.327C56.8521 75.0124 56.5412 74.4912 57.1599 74.4092Z" fill="#1D71D8"/>
<path fill-rule="evenodd" clip-rule="evenodd" d="M54.6277 72.9726C53.9015 73.0525 54.0129 72.3735 54.504 72.0518C54.5325 72.3481 54.8563 72.7256 54.6277 72.9726Z" fill="#CCCCCC"/>
<path fill-rule="evenodd" clip-rule="evenodd" d="M53.5975 76.3864C53.3807 76.2237 53.1638 76.061 52.947 75.8983C53.1167 76.0109 54.1179 76.3057 53.5975 76.3864Z" fill="#CCCCCC"/>
<path fill-rule="evenodd" clip-rule="evenodd" d="M55.3877 72.9379C55.4034 73.4471 54.7712 73.3923 54.6279 72.9725C54.7667 72.6882 55.129 72.9406 55.3877 72.9379Z" fill="#CCCCCC"/>
<path fill-rule="evenodd" clip-rule="evenodd" d="M31.0625 117.318C31.9174 115.112 31.0662 111.254 34.9182 112.029C44.1802 114.608 32.2 127.286 31.0625 117.318Z" fill="#1D71D8"/>
<path fill-rule="evenodd" clip-rule="evenodd" d="M19.9004 81.8124C18.6273 89.6506 12.6003 87.5797 13.7713 80.4805C14.7708 78.5159 13.4235 79.5795 13.463 78.4759C15.1946 74.653 20.4934 78.254 19.9004 81.8124Z" fill="#1D71D8"/>
<path fill-rule="evenodd" clip-rule="evenodd" d="M32.059 89.6726C32.213 90.5823 32.8573 94.6504 33.8263 93.4455C31.7767 86.0826 41.3592 90.5445 38.3698 95.59C34.1605 98.5638 30.4236 92.9643 32.059 89.6726Z" fill="#1D71D8"/>
<path fill-rule="evenodd" clip-rule="evenodd" d="M24.1266 64.2865C23.7681 59.4682 32.0372 59.9128 31.2259 64.62C30.342 68.4034 24.0147 69.851 24.1266 64.2865Z" fill="#1D71D8"/>
<path fill-rule="evenodd" clip-rule="evenodd" d="M24.6832 53.479C24.5984 52.9129 24.8479 53.2224 25.168 53.415C25.0063 53.4367 24.8447 53.4577 24.6832 53.479Z" fill="#093DB9"/>
<path fill-rule="evenodd" clip-rule="evenodd" d="M75.2652 37.0446C75.7905 36.5935 76.0936 36.9804 76.5832 37.2461C77.1486 37.4866 77.6305 36.6901 76.9734 36.4155C76.7722 36.1305 77.0903 35.9935 77.3016 36.039C80.5303 38.0766 76.3921 36.943 76.701 38.7037C75.8681 38.3265 73.6318 38.0551 75.2652 37.0446Z" fill="#CCCCCC"/>
<path fill-rule="evenodd" clip-rule="evenodd" d="M73.7595 35.9047C71.7001 35.9062 73.1283 36.9367 71.7634 37.1907C72.1662 36.2968 70.9706 34.5821 72.8531 34.8072C72.345 36.2997 74.0211 33.8498 73.7595 35.9047Z" fill="#CCCCCC"/>
<path fill-rule="evenodd" clip-rule="evenodd" d="M72.8528 34.8072C71.6691 35.1062 70.8044 33.6648 72.2181 33.2491C72.2942 33.5829 72.5346 34.5937 73.0625 34.0523C73.8527 33.7619 73.4215 35.5128 72.8528 34.8072Z" fill="#1D71D8"/>
<path fill-rule="evenodd" clip-rule="evenodd" d="M68.7613 34.2265C68.0328 33.9838 68.3067 33.2819 68.1304 32.7898C69.1497 31.9219 69.6981 33.6393 68.7613 34.2265Z" fill="#1EA7F2"/>
<path fill-rule="evenodd" clip-rule="evenodd" d="M70.2165 36.0499C69.4032 35.708 70.0321 37.0832 69.3319 36.7273C69.6881 35.215 68.5427 35.5647 69.0717 35.0269C69.9718 35.4036 70.19 33.4687 70.2165 36.0499Z" fill="#CCCCCC"/>
<path fill-rule="evenodd" clip-rule="evenodd" d="M76.701 38.7037C76.2981 38.2794 76.772 38.2561 76.9683 38.0723C79.3599 35.9837 78.5945 39.042 76.701 38.7037Z" fill="#1D71D8"/>
<path fill-rule="evenodd" clip-rule="evenodd" d="M70.0231 34.5254C69.2883 35.9557 68.3631 34.1525 69.3496 33.4454C69.552 33.541 70.1534 33.234 69.7931 33.915C69.7257 34.0423 69.9391 34.3181 70.0231 34.5254Z" fill="#1D71D8"/>
<path fill-rule="evenodd" clip-rule="evenodd" d="M80.3493 39.4233C79.8965 38.6632 81.1232 38.9851 81.6072 38.8169C81.8277 39.7956 80.9704 39.3449 80.3493 39.4233Z" fill="#1EA7F2"/>
<path fill-rule="evenodd" clip-rule="evenodd" d="M71.5217 35.9359C72.4477 36.6452 71.758 37.4604 70.7871 37.1109C70.9208 36.6408 71.1495 36.2555 71.5217 35.9359Z" fill="#1D71D8"/>
<path fill-rule="evenodd" clip-rule="evenodd" d="M73.5286 34.0634C73.3732 34.0598 73.2178 34.0561 73.0625 34.052C75.1837 32.691 75.2699 35.2893 73.5286 34.0634Z" fill="#CCCCCC"/>
<path fill-rule="evenodd" clip-rule="evenodd" d="M73.5287 34.0635C74.2146 34.3153 74.0532 35.2093 73.3252 34.9605C73.3936 34.661 73.4611 34.3623 73.5287 34.0635Z" fill="#1EA7F2"/>
<path fill-rule="evenodd" clip-rule="evenodd" d="M71.045 36.4362C70.923 36.6011 70.9056 37.1708 70.6848 37.064C70.2272 36.254 70.0651 35.5508 71.045 36.4362Z" fill="#CCCCCC"/>
<path fill-rule="evenodd" clip-rule="evenodd" d="M69.1081 34.6064C69.0974 34.7431 69.0867 34.8797 69.0762 35.0163C69.0869 34.8796 69.0975 34.743 69.1081 34.6064Z" fill="#CCCCCC"/>
<path fill-rule="evenodd" clip-rule="evenodd" d="M77.3164 59.8384C78.5532 60.993 79.0474 57.2359 79.7668 58.8555C80.3322 59.9529 78.3945 59.8976 78.4125 61.0447C77.3906 60.6985 76.9847 61.1937 77.3164 59.8384Z" fill="#1D71D8"/>
<path fill-rule="evenodd" clip-rule="evenodd" d="M89.8311 52.1639C89.6626 51.3347 89.6435 51.0807 90.5542 51.409C91.007 52.0466 89.4805 53.3855 89.8311 52.1639Z" fill="#CCCCCC"/>
<path fill-rule="evenodd" clip-rule="evenodd" d="M79.1737 55.1063C79.7353 55.653 79.9194 56.0214 79.2003 56.558C79.0157 56.1565 78.5873 55.2842 79.1737 55.1063Z" fill="#1D71D8"/>
<path fill-rule="evenodd" clip-rule="evenodd" d="M77.3165 59.8384C77.2393 60.5247 77.3078 61.1759 76.4954 61.3298C76.6891 60.7591 76.4739 58.662 77.3165 59.8384Z" fill="#CCCCCC"/>
<path fill-rule="evenodd" clip-rule="evenodd" d="M87.8311 52.5267C87.9232 53.1374 86.569 54.0231 86.5779 53.119C86.9694 52.8124 87.3302 51.9341 87.8311 52.5267Z" fill="#CCCCCC"/>
<path fill-rule="evenodd" clip-rule="evenodd" d="M80.5381 59.7866C80.993 59.6659 81.65 58.8892 81.8825 59.327C81.8081 59.8416 80.9232 60.6696 80.5381 59.7866Z" fill="#CCCCCC"/>
<path fill-rule="evenodd" clip-rule="evenodd" d="M77.7926 58.1611C77.4366 57.8778 76.5021 57.6354 77.1691 57.3383C77.5916 57.5756 78.4241 57.6099 77.7926 58.1611Z" fill="#CCCCCC"/>
<path fill-rule="evenodd" clip-rule="evenodd" d="M77.6322 59.068C77.4113 58.8759 77.1905 58.6839 76.9695 58.4918C77.6031 58.2091 77.7201 58.5206 77.6322 59.068Z" fill="#CCCCCC"/>
<path fill-rule="evenodd" clip-rule="evenodd" d="M78.2605 61.055C78.5666 60.9136 78.2671 61.4972 78.2742 61.6561C78.0433 61.3829 77.8748 61.2532 78.2605 61.055Z" fill="#CCCCCC"/>
<path fill-rule="evenodd" clip-rule="evenodd" d="M77.5359 60.7942C77.8916 60.8298 78.0307 60.9376 77.9724 61.2738C77.827 61.1139 77.6814 60.9541 77.5359 60.7942Z" fill="#CCCCCC"/>
<path fill-rule="evenodd" clip-rule="evenodd" d="M89.0513 52.9416C89.1486 52.8808 89.1636 52.943 89.1752 53.039C89.103 53.035 89.0504 53.0298 89.0513 52.9416Z" fill="#CCCCCC"/>
<path fill-rule="evenodd" clip-rule="evenodd" d="M79.5968 53.2316C79.5672 53.2721 79.5375 53.3125 79.5078 53.353C79.5376 53.321 79.5673 53.2257 79.5968 53.2316Z" fill="#093DB9"/>
<path fill-rule="evenodd" clip-rule="evenodd" d="M25.6564 46.318C26.3186 46.3574 26.2358 46.7447 26.1622 47.3146C25.6601 47.8907 25.6879 47.9857 26.5494 48.634C24.3139 49.6316 23.6929 47.0828 25.6564 46.318Z" fill="#1EA7F2"/>
<path fill-rule="evenodd" clip-rule="evenodd" d="M24.1948 48.1504C24.7735 48.348 26.0046 49.7615 24.6902 49.6053C23.3067 49.3126 21.9303 47.2003 24.1948 48.1504Z" fill="#1D71D8"/>
<path fill-rule="evenodd" clip-rule="evenodd" d="M18.1894 33.3534C18.8487 34.0129 20.1774 34.9153 19.787 35.9486C19.0665 35.1454 18.0362 34.5572 18.1894 33.3534Z" fill="#1EA7F2"/>
<path fill-rule="evenodd" clip-rule="evenodd" d="M22.9464 40.3209C22.2576 39.7837 21.5948 39.4166 22.1497 38.4639C23.0811 38.7472 22.8914 39.5418 22.9464 40.3209Z" fill="#1EA7F2"/>
<path fill-rule="evenodd" clip-rule="evenodd" d="M19.787 35.9489C20.9425 35.1151 20.3636 36.9399 19.1002 36.7905C17.9788 36.8511 19.156 35.8496 19.787 35.9489Z" fill="#CCCCCC"/>
<path fill-rule="evenodd" clip-rule="evenodd" d="M23.4021 45.1494C23.4644 44.5813 24.1466 44.9099 24.5477 44.9675C24.2859 46.0601 23.9711 46.1658 23.4021 45.1494Z" fill="#1D71D8"/>
<path fill-rule="evenodd" clip-rule="evenodd" d="M18.1895 33.3535C18.4086 34.3649 18.1798 34.513 17.1228 34.588C17.2668 34.0526 18.2831 34.0251 17.6447 33.2719C17.523 33.1284 18.0037 33.1504 18.1895 33.3535Z" fill="#CCCCCC"/>
<path fill-rule="evenodd" clip-rule="evenodd" d="M22.4446 37.2288C22.5045 36.905 22.2433 36.2965 22.7559 36.4986C22.648 36.7279 22.5622 37.0442 22.4446 37.2288Z" fill="#CCCCCC"/>
<path fill-rule="evenodd" clip-rule="evenodd" d="M22.4549 37.239C22.3335 37.3343 22.2122 37.7509 22.0762 37.5534C22.2031 37.4599 22.329 37.295 22.4549 37.239Z" fill="#CCCCCC"/>
<path fill-rule="evenodd" clip-rule="evenodd" d="M25.9124 43.1731C25.9329 43.1396 25.9535 43.106 25.9741 43.0724C25.9519 43.1041 25.9445 43.2042 25.9124 43.1731Z" fill="#CCCCCC"/>
<path fill-rule="evenodd" clip-rule="evenodd" d="M54.3631 45.9174C55.4286 46.7174 57.8688 45.7368 58.0337 47.0635C57.2747 47.5432 56.6526 46.2832 55.8426 47.0355C55.2493 47.4079 55.0742 46.2241 54.572 46.8543C54.3146 46.5663 53.903 46.1871 54.3631 45.9174Z" fill="#1EA7F2"/>
<path fill-rule="evenodd" clip-rule="evenodd" d="M48.9256 46.8909C47.8377 45.5463 47.429 46.7511 46.0051 46.1782C47.2433 45.5392 47.4743 44.6269 49.0716 45.304C47.9389 45.7332 49.5092 46.411 48.9256 46.8909Z" fill="#1D71D8"/>
<path fill-rule="evenodd" clip-rule="evenodd" d="M52.6952 43.8153C49.6882 42.7543 52.9131 41.621 52.8708 43.9941C53.5035 46.0493 49.9397 43.8021 52.6952 43.8153Z" fill="#1D71D8"/>
<path fill-rule="evenodd" clip-rule="evenodd" d="M46.0924 41.6666C46.3368 42.5503 45.3949 43.2944 46.0113 44.2399C46.0055 44.7184 45.6361 45.0677 45.1521 44.6655C44.4733 44.4978 44.5377 44.3896 45.1283 44.1308C45.7102 43.4232 45.1628 42.2541 46.0924 41.6666Z" fill="#1EA7F2"/>
<path fill-rule="evenodd" clip-rule="evenodd" d="M52.777 46.4012C51.4079 47.3011 51.4602 47.1602 50.675 45.7792C51.5952 45.0348 51.9751 46.6692 52.777 46.4012Z" fill="#1EA7F2"/>
<path fill-rule="evenodd" clip-rule="evenodd" d="M51.9019 45.8633C52.1401 45.4638 52.286 44.8205 52.9268 45.4295C53.0966 45.9504 52.2419 46.1038 51.9019 45.8633Z" fill="#1EA7F2"/>
<path fill-rule="evenodd" clip-rule="evenodd" d="M51.9995 45.9598C52.4744 45.9613 52.9878 45.7338 52.777 46.4012C52.4264 46.4152 52.0157 46.5351 51.9995 45.9598Z" fill="#1D71D8"/>
<path fill-rule="evenodd" clip-rule="evenodd" d="M41.2786 40.3325C44.341 40.3992 41.5199 40.3 41.7741 42.148C41.0284 41.813 41.7474 41.2375 40.9722 40.9244C40.5714 40.7954 40.9275 40.4271 41.2786 40.3325Z" fill="#1EA7F2"/>
<path fill-rule="evenodd" clip-rule="evenodd" d="M42.9863 45.1634C44.0831 44.7452 43.4422 45.8177 43.5032 46.3656C42.9412 46.1761 43.0614 45.6358 42.9863 45.1634Z" fill="#1D71D8"/>
<path fill-rule="evenodd" clip-rule="evenodd" d="M41.0847 46.2144C41.5995 46.1201 42.2211 45.7919 41.6269 46.4613C41.387 46.755 41.29 46.7092 41.0847 46.2144Z" fill="#CCCCCC"/>
<path fill-rule="evenodd" clip-rule="evenodd" d="M41.5469 42.5189C41.5771 42.5723 41.5702 42.6205 41.526 42.6633C41.3526 42.5647 41.338 42.5447 41.5469 42.5189Z" fill="#1EA7F2"/>
<path fill-rule="evenodd" clip-rule="evenodd" d="M35.1587 44.974C35.0957 45.0754 35.0326 45.1769 34.9697 45.2783C35.0277 45.1484 34.9821 44.7643 35.1587 44.974Z" fill="#CCCCCC"/>
<path fill-rule="evenodd" clip-rule="evenodd" d="M70.2029 59.535C70.6021 58.5711 71.9534 59.6237 71.1754 60.535C70.6711 60.3546 70.3539 60.0557 70.2029 59.535Z" fill="#1D71D8"/>
<path fill-rule="evenodd" clip-rule="evenodd" d="M70.8637 62.0175C70.8335 63.3581 70.1949 63.4628 69.3032 62.5554C69.5801 62.1877 70.4049 62.251 70.8637 62.0175Z" fill="#1EA7F2"/>
<path fill-rule="evenodd" clip-rule="evenodd" d="M68.4787 63.5479C68.2332 64.9689 69.0374 64.4679 69.0533 65.3611C68.2718 64.5312 66.9304 64.3176 68.4787 63.5479Z" fill="#1EA7F2"/>
<path fill-rule="evenodd" clip-rule="evenodd" d="M69.454 61.792C69.3655 61.8442 69.3631 61.881 69.443 61.9453C69.5315 61.8932 69.5342 61.8564 69.454 61.792ZM70.0191 62.2621C69.4884 62.5751 68.1076 62.1853 68.8548 61.6052C69.3114 61.6887 69.8858 61.7182 70.0191 62.2621Z" fill="#1D71D8"/>
<path fill-rule="evenodd" clip-rule="evenodd" d="M68.3067 63.5662C68.0725 63.8153 67.0725 65.0721 67.1572 64.0821C67.2969 63.4907 67.7689 63.3975 68.3067 63.5662Z" fill="#093DB9"/>
<path fill-rule="evenodd" clip-rule="evenodd" d="M71.8144 60.9891C71.9474 62.0282 71.1579 61.3779 70.6868 60.9965C71.0726 60.9728 71.9582 60.3101 71.8144 60.9891Z" fill="#1EA7F2"/>
<path fill-rule="evenodd" clip-rule="evenodd" d="M67.8384 60.3546C68.2491 60.1516 68.6391 59.9223 69.1165 59.9981C68.8457 60.6488 68.4208 60.5174 67.8384 60.3546Z" fill="#1EA7F2"/>
<path fill-rule="evenodd" clip-rule="evenodd" d="M44.7399 42.1358C44.5198 42.5546 44.3321 42.5635 44.3054 42.0922C44.5266 41.5725 44.6803 41.4937 44.7399 42.1358Z" fill="#1EA7F2"/>
<path fill-rule="evenodd" clip-rule="evenodd" d="M27.9492 49.6198C29.8688 54.7739 24.1508 47.6769 27.1604 49.1375C27.1331 49.7727 27.6608 49.5008 27.9492 49.6198Z" fill="#093DB9"/>
<path fill-rule="evenodd" clip-rule="evenodd" d="M41.7805 42.0767C41.8995 41.4693 41.7199 40.6567 42.7451 40.6712C42.8425 41.4268 42.4147 41.8225 41.7805 42.0767Z" fill="#CCCCCC"/>
<path fill-rule="evenodd" clip-rule="evenodd" d="M26.1621 47.3145C26.4393 46.7637 26.8482 47.4803 26.6186 45.9369C27.2995 45.7646 27.4319 46.1453 27.8761 46.6116C27.1035 46.457 28.7623 49.2278 26.1621 47.3145Z" fill="#093DB9"/>
<path fill-rule="evenodd" clip-rule="evenodd" d="M81.6797 70.4285C81.7723 70.3607 81.8648 70.2929 81.9574 70.2252C81.8649 70.293 81.7723 70.3608 81.6797 70.4285Z" fill="#CCCCCC"/>
<path fill-rule="evenodd" clip-rule="evenodd" d="M57.9238 73.356C57.7968 72.7191 58.1718 72.5028 58.7041 72.3525C60.233 72.9945 59.9292 74.617 57.9238 73.356Z" fill="#093DB9"/>
<path fill-rule="evenodd" clip-rule="evenodd" d="M72.8528 34.8071C73.445 35.0414 73.0267 35.2198 72.7139 35.5273C72.7603 35.2872 72.8065 35.0472 72.8528 34.8071Z" fill="#1EA7F2"/>
<path fill-rule="evenodd" clip-rule="evenodd" d="M69.454 61.792C69.5343 61.8565 69.5315 61.8933 69.443 61.9454C69.3631 61.881 69.3656 61.8442 69.454 61.792Z" fill="#CCCCCC"/>
</svg>
