<svg width="132" height="157" viewBox="0 0 132 157" fill="none" xmlns="http://www.w3.org/2000/svg">
<path fill-rule="evenodd" clip-rule="evenodd" d="M31.1434 103.122C31.5347 102.857 31.9852 102.59 31.3898 102.393C30.9918 102.592 30.621 102.742 31.1434 103.122ZM25.5757 112.572C26.1304 112.187 26.9952 111.935 26.1743 111.753C25.825 111.933 25.2699 112.069 25.5757 112.572ZM16.0984 122.547C15.549 122.135 15.3276 121.929 15.0279 122.556C15.2461 123.058 15.5203 122.819 16.0984 122.547ZM28.5087 134.851C28.2234 135.187 27.3598 135.594 28.0478 135.762C28.5178 135.478 29.1953 135.388 28.5087 134.851ZM49.4011 94.4366C48.9223 94.0499 48.7229 93.6573 48.287 94.3073C48.7726 94.6249 48.9114 95.2262 49.4011 94.4366ZM32.1732 106.26C32.2113 105.812 32.1756 105.457 31.6327 105.511C30.7183 105.659 32.0304 107.14 32.1732 106.26ZM38.0367 107.718C37.2424 106.859 37.1314 107.213 36.7003 108.027C37.0422 108.616 37.4871 107.968 38.0367 107.718ZM24.1184 111.977C23.3179 112.54 23.4786 112.681 24.2007 113.062C24.7615 112.828 24.4214 112.401 24.1184 111.977ZM28.0505 111.936C27.7408 112.696 28.0698 113.063 28.6174 113.356C30.6177 113.983 29.2878 109.719 27.9555 110C27.0467 110.174 28.0134 111.496 28.0505 111.936ZM48.6745 135.201C51.1785 134.801 45.3455 130.911 44.8571 131.559C44.4283 133.317 47.4131 134.369 48.6745 135.201ZM11.1243 129.078C9.80735 130.679 13.5018 131.551 14.3931 132.445C17.1819 131.346 12.5333 129.24 11.1243 129.078ZM73.6785 128.989C73.0642 125.647 71.2638 130.938 71.3842 132.198C72.6889 136.071 73.4651 130.247 73.6785 128.989ZM30.5485 135.943C29.4312 136.979 28.655 138.575 28.0908 140.034C27.9808 142.513 30.1474 140.434 30.3085 139.088C30.4989 138.211 32.1996 136.121 30.5485 135.943ZM52.2516 113.806C50.6347 112.457 48.3232 112.679 46.3687 112.809C44.0433 113.908 53.2466 116.152 52.2516 113.806ZM34.544 128.627C40.943 127.519 43.564 117.411 35.5 116.902C26.3757 116.208 24.0547 129.107 34.544 128.627ZM61.0749 122.478C54.5397 121.663 50.9889 130.84 55.9935 134.91C59.2922 135.955 63.2505 136.409 65.7496 133.538C66.9866 130.934 65.3026 132.193 64.0395 133.223C59.5246 135.948 53.4466 132.873 55.2341 127.259C57.2933 120.924 68.5062 123.656 63.8307 130.028C60.5445 134.892 56.8577 126.761 60.9853 125.837C61.6849 125.982 62.2062 126.824 62.1793 127.593C62.1584 128.296 60.7026 128.005 61.2196 128.937C63.3135 129.979 63.5093 126.623 62.296 125.574C58.2509 122.596 56.2964 131.098 59.8469 132.577C66.7315 135.393 69.0723 121.868 61.0749 122.478ZM4.3829 142.559C2.57012 149.635 14.0346 157.41 18.5152 148.25C21.3354 139.258 8.80329 134.221 4.3829 142.559ZM39.3852 99.2077C42.8922 99.7762 42.9994 95.3129 39.4535 95.7791C37.3547 96.7152 37.781 100.816 39.2289 102.153C41.6389 103.227 43.642 100.893 44.5429 98.9596C45.6495 93.5336 37.3974 91.4528 35.4696 96.4305C31.141 108.112 49.9877 109.713 47.3052 98.8809C46.5212 98.1621 46.7929 99.9801 46.5892 100.413C46.1259 104.919 38.4597 106.035 36.9533 101.757C36.5203 98.9379 35.8586 94.9286 39.7903 94.7915C46.959 94.8295 40.4915 104.733 39.3852 99.2077ZM34.5063 143.001C35.2609 141.872 32.9407 141.355 32.9421 142.585C32.8038 143.393 34.4334 144.032 34.5063 143.001ZM43.8939 120.445C44.4521 121.881 44.0763 119.638 43.2781 120.128C42.1856 120.622 43.2546 121.275 43.8939 120.445ZM5.10808 150.972C4.70168 150.461 4.48025 149.816 4.14456 149.241C3.92986 148.934 3.71688 148.624 3.50133 148.317C2.9396 145.6 0.087886 138.772 2.60114 136.998C3.25175 136.537 4.98335 135.71 4.51672 134.722C3.57278 133.53 2.79936 135.589 1.81851 135.351C1.40153 134.449 1.69977 133.173 0.964112 132.305C0.564242 129.698 0.325904 127.083 0.231445 124.448C1.24823 125.734 7.03543 121.834 4.3215 121.397C-0.244376 123.739 0.637412 124.466 0.486686 119.346C0.259473 117.615 2.49192 113.998 4.31347 115.197C6.04485 118.361 9.45508 120.688 13.0599 120.878C23.3629 121.22 21.5791 108.284 18.9133 102.62C27.7112 97.6935 23.1099 97.139 28.0993 102.908C29.1486 101.002 25.6889 98.3384 27.0759 97.0414C31.2089 94.3434 35.3785 91.9595 39.332 89.1418C40.5 90.4883 42.4003 88.9255 43.6509 90.5327C44.6869 90.2995 50.8938 92.3525 50.1582 93.6314C49.8973 93.9918 50.069 94.106 50.4296 94.042C52.0645 93.7095 53.0069 95.5507 54.2899 96.2888C54.3842 96.3678 54.5003 96.5844 54.466 96.6292C53.9322 97.3235 54.56 96.9936 54.7916 97.0067C63.9977 104.218 56.6782 100.494 55.2242 106.908C52.594 114.919 63.4294 117.875 68.583 113.3C70.5751 113.901 70.6437 116.321 71.7529 117.786C72.6247 119.344 74.2663 120.476 74.8357 122.181C80.3682 131.979 83.8255 134.479 72.4959 142.183C68.6683 144.79 64.3636 146.225 60.0626 147.662C59.3714 147.987 59.3652 143.713 58.82 142.879C58.5435 142.031 57.8118 142.264 57.6005 142.947C57.2691 144.512 58.1713 146.023 58.576 147.482C60.2229 148.411 55.7336 148.53 55.2345 149.247C54.1446 148.679 53.5689 149.81 52.651 150.098C51.1585 149.213 50.3108 151.179 48.8316 150.91C48.5334 150.829 48.2715 150.742 48.3288 150.327C48.6926 147.071 46.2646 143.729 42.8714 143.546C36.8152 143.448 34.448 147.915 34.2942 152.829C28.969 152.552 27.6892 155.794 26.3831 148.959C25.3892 147.26 24.5726 149.222 25.0903 150.352C25.0658 151.351 26.5237 153.035 25.397 153.626C22.2706 154.251 19.2645 153.789 16.1339 154.183C12.1391 154.313 7.40299 155.06 5.10808 150.972Z" fill="#1D71D8"/>
<path fill-rule="evenodd" clip-rule="evenodd" d="M120.821 147.548C120.83 147.518 120.839 147.487 120.849 147.457C120.78 147.496 120.715 147.523 120.821 147.548ZM125.239 152.879C124.581 150.756 123.214 148.737 121.192 147.836C121.848 149.911 123.694 151.419 125.239 152.879ZM105.807 131.044C112.777 134.323 105.638 124.82 102.613 126.932C98.8559 132.001 100.834 131.789 105.807 131.044ZM103.846 132.087C101.132 132.124 99.7798 133.443 99.4868 136.102C99.4257 139.212 116.531 131.976 103.846 132.087ZM104.169 140.632C99.4631 141.339 97.7178 140.447 97.4558 146.106C97.3488 146.542 97.5358 146.667 97.83 146.705C101.224 145.668 104.372 143.507 107.445 141.69C108.409 140.556 105.059 140.964 104.169 140.632ZM110.842 136.659C109.704 131.127 108.344 136.709 105.02 137.032C103.318 138.129 98.3378 137.188 98.8148 139.719C98.6587 140.623 98.7066 140.695 99.5447 140.539C102.405 140.006 105.265 139.887 108.141 140.45C109.79 140.488 110.731 138.231 110.842 136.659ZM97.4937 149.452C97.4043 150.979 99.4809 155.046 101.136 152.761C102.258 150.802 104.048 149.571 105.84 148.362C107.153 146.637 113.241 146.602 112.919 145.117C112.142 143.846 109.977 140.669 108.38 142.352C106.571 143.835 104.339 144.843 102.32 146.042C100.613 147.229 97.1512 146.816 97.4937 149.452ZM105.831 125.627C104.19 125.936 109.92 127.881 110.543 133.423C113.875 137.095 109.479 140.161 110.54 141.446C111.806 142.053 112.52 143.256 113.367 144.324C113.953 145.099 114.351 146.196 115.679 145.452C116.477 145.299 119.183 146.399 118.92 145.085C117.011 138.571 119.737 141.121 114.748 135.933C109.879 127.127 120.379 124.487 105.831 125.627ZM59.5292 147.048C59.804 148.655 62.5188 146.815 63.4208 146.414C69.8378 144.134 78.0321 140.638 80.0544 133.386C80.7812 130.878 78.1088 128.994 77.4858 126.719C75.4515 123.706 74.1174 120.611 71.7492 117.819C70.6393 116.353 70.574 113.937 68.583 113.335C68.2233 111.896 67.3722 110.302 66.1403 109.261C65.8142 108.048 67.0556 107.669 67.7912 106.958C69.584 105.319 72.017 105.16 73.657 103.313C77.5119 100.324 78.9135 99.0671 84.0107 100.501C85.7949 99.3648 87.9327 101.465 90.0638 100.903C93.0717 102.2 96.6348 101.255 99.6103 102.897C108.353 105.316 120.42 106.686 122.925 116.896C123.114 120.955 122.301 124.851 121.273 128.76C119.85 128.199 118.681 127.078 117.106 126.73C113.873 125.004 114.433 129.792 114.388 131.729C113.951 133.145 117.456 139.813 118.213 136.847C118.833 134.486 120.54 130.526 123.187 130.782C120.392 132.991 116.021 138.808 121.918 139.698C123.778 140.168 125.654 140.09 127.504 139.512C131.982 140.121 121.648 141.8 120.362 140.091C117.53 138.42 119.244 143.537 119.622 144.987C120.012 146.832 121.262 144.779 122.207 144.46C123.407 143.203 130.259 140.534 129.057 142.515C126.626 143.102 121.576 144.177 121.28 146.691C124.943 148.268 125.317 152.731 128.265 154.773C124.548 155.82 122.425 150.613 120.335 148.143C117.399 145.665 116.386 161.11 116.183 153.647C116.15 147.941 122.97 146.209 115.494 146.328C113.325 146.153 114.934 149.49 114.38 150.842C114.025 152.369 112.934 156.668 111.093 155.983C112.456 154.098 115.722 147.505 112.51 146.614C109.257 147.646 105.888 148.445 103.507 151.057C99.5277 155.846 102.274 153.952 95.7679 153.806C87.1815 152.82 78.6926 152.242 70.1902 150.518C65.3151 149.731 60.553 147.496 55.8003 149.099C56.4845 148.187 57.6934 148.696 58.5816 148.234C58.9264 148.059 59.3266 147.774 58.5859 147.501C58.1142 146.69 58.9236 147.007 59.5292 147.048Z" fill="#1EA7F2"/>
<path fill-rule="evenodd" clip-rule="evenodd" d="M87.1247 95.3912C86.7004 95.1128 86.4911 94.7299 86.0816 95.1936C86.5154 95.6417 86.6039 96.1467 87.1247 95.3912ZM46.7576 24.0087C44.9004 23.382 52.5774 37.8848 52.9152 34.1461C53.9941 30.3869 55.0437 26.6197 56.1165 22.8591C56.3403 21.0976 53.8251 20.2103 52.8002 19.0277C51.7089 18.5009 52.3427 18.1909 51.9866 17.4144C51.1227 17.7661 51.4952 18.2189 50.3643 17.6288C47.2161 16.1424 44.9947 19.8105 45.91 22.5496C46.2295 23.103 47.1772 22.7669 47.7409 22.9285C48.2821 22.972 47.9502 22.4787 48.1269 22.3161C48.627 22.1248 49.0131 21.2479 49.368 21.9555C49.8029 24.1252 46.9406 22.932 49.2008 25.7634C48.2945 25.7182 47.8723 25.0571 47.6072 24.2536C47.2253 24.8579 46.8339 24.6424 46.7576 24.0087ZM85.3513 100.142C84.8752 100.2 84.3249 99.9294 83.9472 100.478C83.9151 100.525 83.6044 100.379 83.4232 100.323C84.7047 97.1024 86.0312 93.8969 87.2153 90.6389C91.7172 76.5023 96.7494 60.9478 93.5994 46.0611C91.8149 41.7333 87.7975 47.1474 86.1488 48.9592C83.7306 51.865 83.4672 55.8071 82.3417 59.2864C82.4039 61.8064 76.8867 71.4946 81.6821 69.115C85.9014 70.1761 71.7708 71.8532 71.2362 75.7702C70.6367 76.0124 70.6531 74.5778 69.9623 75.5208C68.5098 76.6162 67.0103 77.5435 65.7357 78.9498C64.8882 78.8132 64.8056 79.3663 64.7996 79.9881C62.2434 83.2025 59.9291 86.2197 59.0762 90.3747C58.4451 92.3501 57.5681 90.4854 58.0825 89.3746C58.046 88.4359 59.5874 86.67 58.3807 86.2204C54.2413 84.8772 49.8759 84.1565 45.9452 82.2439C43.1705 81.0563 42.9229 77.6607 42.6394 75.0252C38.4754 74.9268 39.9074 79.5321 39.7609 82.4268C39.463 84.8294 41.2396 87.9758 40.3822 89.9185C37.2645 86.5008 38.7182 79.9575 38.439 75.4044C35.6136 72.1022 32.6874 68.0488 34.7052 63.4884C35.107 62.1614 36.9096 60.3768 38.4585 61.3039C38.7655 61.6261 38.3218 61.7213 38.1842 61.936C38.0101 62.3896 38.2441 63.1043 38.0555 63.6244C36.7042 63.4806 37.6749 61.8418 36.5282 63.0176C35.7266 63.4298 34.8167 65.57 35.8601 65.9923C35.9803 66.0073 36.1877 66.231 36.1665 66.3032C36.0004 66.8403 35.6176 66.0867 35.3803 66.6295C35.4939 69.2201 36.621 71.7325 38.8062 73.1469C41.2038 74.8875 43.5473 72.7465 44.0476 70.1552C45.4119 68.1944 45.4335 71.615 44.9193 72.4961C42.2327 79.0568 47.2313 82.3018 53.0914 83.3269C55.2469 83.4914 58.3409 85.8266 60.0918 84.3438C63.8843 77.7766 70.2801 73.2421 77.195 70.4018C79.3887 67.5031 79.2525 63.034 80.7202 59.6244C82.9542 51.5726 84.9645 43.4522 87.4442 35.4746C88.1416 31.1763 91.2453 26.2421 89.2362 22.0648C83.6119 17.253 75.1553 16.8543 68.2295 14.691C59.694 12.8984 60.1698 15.3526 57.9244 22.5965C56.7269 24.3918 50.852 52.2658 49.2805 46.8761C49.3459 45.0303 52.1651 40.1606 50.7004 39.2417C46.5396 39.1648 43.7873 42.2535 43.3565 46.2125C42.2559 47.7385 45.5721 48.0382 43.9828 49.4958C43.3622 58.9502 62.8767 63.1688 53.6258 49.206C52.8188 47.8293 53.7777 47.2138 54.447 48.4788C62.5117 58.1603 53.1534 63.8218 45.3685 56.0526C43.9162 54.8345 44.2674 53.1705 42.3682 54.5073C44.9384 46.9524 33.7553 53.8427 42.7238 64.3253C43.0333 64.6798 44.2036 66.2521 44.0736 64.7731C45.1015 67.9412 49.1911 66.0423 49.1376 63.2776C48.785 61.1477 50.91 60.8271 51.0347 62.8852C48.4498 77.339 32.6027 58.7769 39.1305 51.6007C39.8272 50.4406 41.0604 50.6317 42.0565 49.9719C41.9124 49.5342 41.1252 49.5823 41.5967 49.178C41.4847 44.679 42.8231 39.6458 47.5193 37.8326C48.4895 36.8283 52.3105 38.1499 51.6891 36.5269C48.0009 31.4951 43.2152 24.6412 45.0073 18.1484C49.3129 11.2621 56.7383 22.0246 57.04 19.7527C58.8215 5.50732 77.802 16.7781 86.2828 18.0687C95.8716 20.8428 89.9649 31.2099 88.4672 37.7239C87.9687 40.5158 83.7591 49.7994 88.4779 44.3331C98.7027 37.3107 96.6481 58.2833 95.7817 63.6164C93.7098 76.1356 90.3602 88.4701 85.3513 100.142Z" fill="#093DB9"/>
<path fill-rule="evenodd" clip-rule="evenodd" d="M69.889 66.6399C69.8731 66.5326 69.8098 66.3543 69.8482 66.3287C71.126 65.7908 69.9921 64.7765 70.7957 64.2332C72.2163 63.965 71.3497 66.7619 72.4236 65.9915C73.2707 64.244 73.6919 62.2102 74.0579 60.3402C73.1602 59.9349 74.8244 59.5039 74.7079 58.2551C75.3446 57.0266 73.5331 55.5097 74.9183 55.1355C75.1443 55.3673 75.1114 56.1546 75.4374 55.7297C75.6491 54.787 76.4382 53.3409 74.9961 54.2664C74.5112 53.8241 75.1085 51.9319 75.877 52.4643C77.1771 52.5456 77.3385 47.7885 78.0693 46.5045C78.1692 46.1435 78.2979 45.9053 77.6601 45.9877C77.134 46.0558 76.5621 45.4346 76.01 46.0552C75.9605 46.1108 75.6249 46.0331 75.6179 45.987C75.1853 44.9274 73.7618 45.2388 72.8409 44.9333C70.6279 44.6783 68.4673 43.0488 66.4691 43.7563C66.1085 42.5652 62.3982 42.498 61.1573 42.2011C60.9169 43.445 60.8249 42.1704 60.679 42.1516C57.0837 39.6283 58.4174 44.6906 57.1191 46.4846C54.348 47.5306 57.2216 42.1201 57.2941 40.6973C57.5515 39.0687 68.9217 41.6014 68.988 43.1801C69.6671 43.4603 69.5938 42.6575 69.9491 42.3058C72.5218 42.6422 75.208 43.348 77.8735 44.0014C78.8008 44.1203 80.5203 45.2804 79.6334 46.1193C79.0616 49.6533 77.6281 53.0105 76.8153 56.5102C75.6661 60.3629 74.5095 64.2136 73.4204 68.084C72.559 71.3055 68.3599 68.6952 66.0918 68.6809C59.5411 68.0692 57.3524 64.3453 65.6575 66.7462C67.1472 66.6642 71.7287 69.4165 72.0223 67.5923C72.6276 67.2081 72.7226 66.9711 72.0044 66.8075C71.1766 66.798 70.6772 68.1566 70.0001 67.6002C70.0493 67.0312 71.1238 66.3661 69.889 66.6399Z" fill="#093DB9"/>
<path fill-rule="evenodd" clip-rule="evenodd" d="M27.9579 40.233C26.8258 36.331 25.7933 41.1675 26.0578 42.3097C26.7451 42.3389 27.9258 41.2171 27.9579 40.233ZM25.9317 31.3137C22.3286 31.0658 23.6958 35.6356 25.7666 35.1354C25.879 34.0679 28.0222 31.2486 25.9317 31.3137ZM26.1284 29.9037C28.062 30.333 27.6081 28.4418 28.4698 27.3094C29.8525 26.3685 29.3668 28.7129 29.18 29.425C28.7178 31.5587 33.0486 31.8083 32.3356 34.4105C30.7618 36.3665 28.9216 26.9773 27.5075 36.1537C27.5542 37.9474 30.785 38.1726 29.3066 41.7764C28.1821 44.8213 24.7589 43.0391 24.5783 46.4078C23.6255 48.3079 22.2375 45.9209 23.0769 44.7556C23.3226 42.873 20.0971 42.2474 20.1157 40.0261C20.1005 39.3345 19.6943 37.868 20.767 37.8189C21.5246 37.8227 21.8482 38.4638 21.729 39.1243C21.5555 40.1697 23.2053 42.3624 24.0074 41.4368C24.1081 39.7133 26.0181 37.6756 24.2591 36.4332C20.6509 34.03 21.9742 29.2031 26.1284 29.9037Z" fill="#093DB9"/>
<path fill-rule="evenodd" clip-rule="evenodd" d="M109.607 90.9895C109.594 89.8549 108.439 88.7427 107.441 89.1252C107.618 90.4964 109.091 93.8144 109.607 90.9895ZM103.49 87.8023C104.077 87.8439 104.656 87.827 104.266 87.1093C103.061 80.9529 98.389 87.6954 103.49 87.8023ZM104.026 89.2739C100.315 90.0847 97.5652 85.3264 101.435 83.1847C103.262 82.2616 100.381 80.6103 101.623 79.4189C102.402 79.3673 102.757 80.5313 103.153 81.0716C103.954 82.9152 108.772 80.0668 108.44 83.25C103.55 82.5355 103.917 82.9525 106.23 87.0026C107.603 88.1729 110.012 86.5017 111.076 89.8635C112.178 92.032 109.808 93.254 109.997 94.893C110.437 95.665 111.08 96.7171 110.241 97.4388C109.413 97.6984 108.717 96.5785 108.471 95.8809C107.854 94.6588 101.978 96.1293 102.443 92.5003C103.629 91.3279 104.435 94.0928 105.86 93.6248C108.275 94.1595 105.798 88.5895 104.026 89.2739Z" fill="#093DB9"/>
<path fill-rule="evenodd" clip-rule="evenodd" d="M101.413 154.134C101.683 150.807 111.551 144.932 113.639 147.177C114.205 156.689 109.425 157.437 101.838 154.611C101.696 154.452 101.555 154.293 101.413 154.134Z" fill="#CCCCCC"/>
<path fill-rule="evenodd" clip-rule="evenodd" d="M24.4547 73.809C23.5609 67.1543 17.324 69.925 15.9101 74.7215C14.6197 75.6327 13.5804 74.0773 12.2096 74.9389C11.0926 75.4002 9.41984 75.4052 8.94615 76.6802C5.29444 82.11 17.8239 86.5616 21.6154 84.1067C23.3963 81.0687 25.5956 76.853 24.4547 73.809ZM25.8015 75.2898C25.4703 79.4137 24.6795 85.223 20.1206 86.1231C15.1869 86.282 8.7837 84.2596 6.9992 79.2148C6.31429 73.2018 12.4547 74.4902 15.2247 72.6264C18.4042 66.2254 26.2047 67.8708 25.8015 75.2898Z" fill="#093DB9"/>
<path fill-rule="evenodd" clip-rule="evenodd" d="M4.97803 113.528C6.47483 112.227 7.27226 115.513 8.56427 116.15C13.9071 117.24 20.1085 110.897 15.8246 106.056C15.4796 105.676 15.4714 105.353 15.9073 105.032C20.2049 99.4638 21.4574 117.345 17.0084 118.604C12.7896 121.043 6.10079 118.027 4.97803 113.528Z" fill="#1D71D8"/>
<path fill-rule="evenodd" clip-rule="evenodd" d="M128.232 154.767C125.263 152.724 124.899 148.268 121.209 146.69C121.541 144.186 126.539 143.089 129.026 142.516C131.176 140.227 132.525 155.341 128.232 154.767Z" fill="#CCCCCC"/>
<path fill-rule="evenodd" clip-rule="evenodd" d="M35.7494 150.25C35.9242 152.188 35.1817 152.875 37.89 152.602C38.7932 152.543 38.9487 152.409 38.7398 151.522C38.5447 147.303 46.0083 146.668 46.2837 151.152C50.1226 143.165 35.9101 142.52 35.7494 150.25ZM5.44092 151.563C8.59107 155.743 14.5778 154.314 19.089 153.867C27.404 154.18 25.7128 154.568 24.9137 148.974C27.0152 146.278 26.4762 153.839 28.4638 153.549C30.3667 152.54 33.0438 153.588 34.6773 152.496C32.5631 145.862 43.1375 140.05 47.083 146.082C48.5867 147.373 47.7166 150.235 48.7383 150.954C47.7002 151.686 45.9336 151.371 44.6435 151.706C45.3121 150.355 44.851 149.417 43.3845 149.152C40.7147 148.076 37.7818 153.185 42.0194 152.428C34.3557 153.571 26.5104 154.086 18.7295 154.561C14.3768 154.219 7.46003 156.792 5.44092 151.563Z" fill="#CCCCCC"/>
<path fill-rule="evenodd" clip-rule="evenodd" d="M113.665 49.6958C113.58 47.6551 118.099 47.0763 119.893 46.5389C121.539 46.6441 120.832 49.6919 121.139 50.89C122.718 55.4603 117.73 55.0295 114.873 56.8246C111.325 58.6875 110.052 49.4372 106.735 51.2579C100.792 53.3001 105.038 50.2419 107.737 49.4138C109.751 49.0697 110.93 52.2907 112.486 53.3714C112.49 53.4942 112.722 53.6007 112.797 53.7669C112.771 53.8583 112.922 53.8909 112.974 54.0015C114.392 56.7074 117.31 53.847 119.526 53.3504C120.029 52.9847 119.824 52.4851 119.571 52.1925C119.045 51.361 119.679 50.3352 119.376 49.3662C118.866 48.9216 119.353 47.8727 118.453 48.7473C117.591 50.3627 116.85 48.7829 115.553 49.4621C114.934 49.6504 114.312 49.7274 113.665 49.6958Z" fill="#093DB9"/>
<path fill-rule="evenodd" clip-rule="evenodd" d="M128.619 139.442C123.269 140.822 115.199 139.73 121.047 132.945C122.934 130.163 124.486 131.151 125.858 133.842C126.614 135.832 128.303 137.269 128.619 139.442Z" fill="#CCCCCC"/>
<path fill-rule="evenodd" clip-rule="evenodd" d="M122.715 130.424C118.454 131.801 118.509 139.29 116.973 137.152C114.357 134.952 113.936 131.472 114.46 128.266C114.485 123.806 121.727 128.593 122.715 130.424Z" fill="#CCCCCC"/>
<path fill-rule="evenodd" clip-rule="evenodd" d="M5.03777 114.401C13.8424 125.639 23.4683 116.907 18.6547 105.022C16.4042 99.1119 21.9718 107.084 21.0339 111.429C22.4675 119.317 13.4122 123.706 7.49737 118.795C6.53857 118.035 2.11128 113.855 5.03777 114.401Z" fill="#CCCCCC"/>
<path fill-rule="evenodd" clip-rule="evenodd" d="M61.2623 28.2586C57.2879 32.2541 64.4103 38.0391 67.1308 32.9094C69.1384 29.5951 64.2109 25.4887 61.2623 28.2586ZM63.3918 36.5722C58.035 36.2607 56.6686 27.6038 62.4211 26.286C70.3038 24.1581 71.3794 37.0044 63.3918 36.5722Z" fill="#093DB9"/>
<path fill-rule="evenodd" clip-rule="evenodd" d="M116.82 155.613C116.64 152.127 119.036 143.951 121.961 150.589C129.859 158.17 123.436 154.865 116.82 155.613Z" fill="#CCCCCC"/>
<path fill-rule="evenodd" clip-rule="evenodd" d="M7.17773 111.958C8.65039 110.418 10.0718 108.734 11.9792 107.722C12.7763 109.097 11.808 110.647 10.3022 110.373C10.182 113.694 15.8827 108.469 12.6372 107.071C15.0532 104.146 16.9727 110.101 15.4108 111.862C13.5187 114.808 7.97284 116.706 7.17773 111.958Z" fill="#1D71D8"/>
<path fill-rule="evenodd" clip-rule="evenodd" d="M83.9534 6.48086C83.1713 7.76637 89.9644 5.28216 88.5569 4.74864C84.1333 1.1703 84.3071 0.365392 83.9534 6.48086ZM82.2358 7.21531C82.9157 5.6563 81.8541 -1.68401 85.0673 0.355085C86.1858 1.87032 92.7396 4.24519 90.5496 6.11862C88.4253 6.39808 81.6137 11.7467 82.2358 7.21531Z" fill="#093DB9"/>
<path fill-rule="evenodd" clip-rule="evenodd" d="M129.429 141.694C122.169 141.48 119.054 151.231 118.778 139.953C118.789 139.159 119.885 140.013 120.301 140.074C123.215 142.44 129.244 138.366 129.429 141.694Z" fill="#CCCCCC"/>
<path fill-rule="evenodd" clip-rule="evenodd" d="M112.064 155.93C117.203 149.687 110.502 145.023 118.725 146.486C120.137 146.203 115.828 150.568 116.119 153.59C116.41 157.111 115.32 155.003 113.212 155.982C113.051 156.163 112.459 155.958 112.064 155.93Z" fill="#CCCCCC"/>
<path fill-rule="evenodd" clip-rule="evenodd" d="M7.18074 111.96C8.07593 117.623 16.4193 113.907 16.0107 109.548C15.9288 107.272 13.2523 106.019 16.2092 104.655C15.9169 105.183 15.2106 105.508 15.8344 106.096C19.8255 110.369 14.6274 117.018 9.49665 116.155C8.15584 116.575 7.51892 115.027 6.76748 114.191C6.16108 113.261 6.23264 113.215 5.09375 113.317C5.45453 112.348 6.3284 112.17 7.18074 111.96Z" fill="#CCCCCC"/>
<path fill-rule="evenodd" clip-rule="evenodd" d="M71.3723 35.1936C73.4278 36.0805 81.3804 35.8338 81.1488 38.5986C80.7236 39.695 65.8834 35.5438 71.3723 35.1936Z" fill="#093DB9"/>
<path fill-rule="evenodd" clip-rule="evenodd" d="M58.8725 74.6808C60.8642 74.4566 62.7876 78.046 59.8513 76.2735C57.0748 74.7046 55.1882 79.7934 58.3362 80.3406C58.8286 80.4538 59.6271 80.49 59.516 81.2164C55.2341 84.3514 52.7846 74.8088 58.8725 74.6808Z" fill="#093DB9"/>
<path fill-rule="evenodd" clip-rule="evenodd" d="M81.7876 33.6886C80.578 33.0455 69.6344 31.8587 72.4775 30.0998C73.7023 30.5825 85.9869 31.7355 81.7876 33.6886Z" fill="#093DB9"/>
<path fill-rule="evenodd" clip-rule="evenodd" d="M70.9963 18.2914C72.2489 18.8151 81.4311 19.3512 78.3114 21.5329C77.3679 21.3672 66.8717 19.4243 70.9963 18.2914Z" fill="#093DB9"/>
<path fill-rule="evenodd" clip-rule="evenodd" d="M42.0516 152.372C38.3329 153.159 40.1669 148.82 42.6514 149.006C45.5011 148.762 45.8012 152.439 42.764 151.715C42.1865 151.653 42.2992 152.172 42.0516 152.372Z" fill="#1D71D8"/>
<path fill-rule="evenodd" clip-rule="evenodd" d="M120.137 55.8007C122.281 55.7643 123.172 59.2395 120.998 59.7286C119.027 59.9321 118.141 56.1629 120.137 55.8007Z" fill="#093DB9"/>
<path fill-rule="evenodd" clip-rule="evenodd" d="M114.379 59.0041C114.729 57.3156 116.763 55.8809 117.629 58.0727C118.83 60.9884 114.812 62.1888 114.379 59.0041Z" fill="#093DB9"/>
<path fill-rule="evenodd" clip-rule="evenodd" d="M26.5945 97.4771C26.9104 98.6728 29.5835 102.766 27.6914 102.686C26.5062 101.983 26.1788 98.0883 24.6621 98.9637C23.2642 100.125 21.6679 100.988 20.0278 101.812C21.8531 100.087 24.2568 98.6108 26.5945 97.4771Z" fill="#CCCCCC"/>
<path fill-rule="evenodd" clip-rule="evenodd" d="M35.8079 69.2846C35.8542 68.4254 34.9978 67.0015 35.7087 66.429C35.9104 66.6256 36.0958 66.6613 36.1841 66.363C34.8869 65.6322 35.6261 64.8181 35.8854 63.593C36.3337 63.0184 36.4303 64.2456 36.2984 64.442C35.8031 65.0821 36.0537 65.2359 36.6877 65.3076C36.8873 65.4741 37.4868 65.968 36.9153 66.2115C36.6764 66.8428 36.9166 66.9892 37.5121 67.0648C37.3196 66.3655 38.0965 66.0949 38.4733 66.4717C38.8752 66.9147 38.0151 67.147 38.2705 67.4638C38.5775 67.8076 40.0495 68.3134 38.9738 68.7502C38.1081 70.0408 37.5758 69.7253 36.9555 68.4601C36.5159 68.6535 35.6411 68.6135 35.8079 69.2846Z" fill="#1EA7F2"/>
<path fill-rule="evenodd" clip-rule="evenodd" d="M0.38721 121.97C1.01363 122.37 0.303241 122.956 0.584097 123.407C1.82278 122.707 3.05656 121.987 4.31919 121.325C7.49896 121.876 -1.99181 128.171 0.38721 121.97Z" fill="#CCCCCC"/>
<path fill-rule="evenodd" clip-rule="evenodd" d="M0.92627 132.323C1.87852 133.026 0.927135 135.948 2.46962 135.215C3.21442 133.99 5.59278 134.328 4.20345 135.735C2.07721 137.476 1.30743 137.371 1.54971 140.311C0.596919 137.678 1.76809 134.959 0.92627 132.323Z" fill="#CCCCCC"/>
<path fill-rule="evenodd" clip-rule="evenodd" d="M76.2448 47.1661C75.9071 46.0125 77.1603 46.6447 77.2176 47.2728C76.7668 47.8715 76.6249 49.2845 75.7423 49.1978C75.4263 48.9019 75.6175 48.289 75.3826 47.9143C74.0582 49.3371 73.1394 45.8774 75.1307 46.3526C75.9884 46.4236 74.3617 47.8909 76.2448 47.1661Z" fill="#093DB9"/>
<path fill-rule="evenodd" clip-rule="evenodd" d="M12.6547 107.086C15.918 108.49 10.1857 113.724 10.3051 110.397C13.1403 110.76 11.4649 108.073 12.6547 107.086Z" fill="#CCCCCC"/>
<path fill-rule="evenodd" clip-rule="evenodd" d="M119.473 53.3941C117.891 54.3312 115.936 54.5634 116.423 52.2276C117.033 52.087 117.175 52.9191 117.715 52.9237C118.693 52.0086 118.608 53.23 119.473 53.3941Z" fill="#CCCCCC"/>
<path fill-rule="evenodd" clip-rule="evenodd" d="M63.7804 47.626C62.5479 48.0435 64.5971 48.6765 63.8517 49.3872C61.6604 51.1056 61.5769 46.5722 63.7804 47.626Z" fill="#1EA7F2"/>
<path fill-rule="evenodd" clip-rule="evenodd" d="M63.7799 47.6826C61.3389 47.2587 66.2134 45.1031 65.9798 47.2324C66.0104 48.5078 64.6724 46.399 64.4918 47.6687C64.4792 47.7236 64.0272 47.6802 63.7799 47.6826Z" fill="#093DB9"/>
<path fill-rule="evenodd" clip-rule="evenodd" d="M61.0905 45.9195C62.3378 43.3126 62.9991 45.9802 61.6656 46.7672C61.1576 49.6506 59.7941 47.3938 61.0905 45.9195Z" fill="#093DB9"/>
<path fill-rule="evenodd" clip-rule="evenodd" d="M66.1299 58.0511C66.0646 57.9277 65.9801 58.0204 65.8885 58.0528C65.9544 58.1744 66.0386 58.0839 66.1299 58.0511ZM67.1049 58.1947C67.8308 59.7191 65.779 57.8493 66.1183 59.2098C64.7908 62.7512 65.0278 54.1157 67.1049 58.1947Z" fill="#CCCCCC"/>
<path fill-rule="evenodd" clip-rule="evenodd" d="M46.6548 66.3511C45.4081 66.7472 44.4655 65.9157 44.0854 64.7613C44.2232 66.0459 43.3002 65.0588 42.9502 64.5469C43.8643 64.1352 45.0025 64.4304 45.5138 65.4421C45.7981 66.0047 46.1802 66.1698 46.6548 66.3511Z" fill="#1EA7F2"/>
<path fill-rule="evenodd" clip-rule="evenodd" d="M0.294157 125.609C0.32887 127.864 0.635983 130.092 0.926148 132.323C-0.133433 130.321 -0.19408 127.814 0.294157 125.609Z" fill="#CCCCCC"/>
<path fill-rule="evenodd" clip-rule="evenodd" d="M43.8373 50.3369C43.3484 49.2709 45.4167 48.9636 44.0001 47.8917C44.62 47.4596 45.198 48.368 45.4665 47.4764C45.5135 47.3413 45.8618 47.3116 46.0719 47.2336C46.1794 48.5502 44.2076 49.0362 44.3249 50.1731C44.7917 50.6789 44.1078 51.5195 43.8373 50.3369Z" fill="#CCCCCC"/>
<path fill-rule="evenodd" clip-rule="evenodd" d="M67.082 58.2316C66.6179 56.5685 65.4056 57.7815 65.628 56.9746C65.1241 56.5991 65.5319 54.9451 66.4283 55.8218C66.051 56.479 66.8461 56.5605 66.9938 56.96C67.7794 55.7385 67.8162 58.145 67.082 58.2316Z" fill="#1EA7F2"/>
<path fill-rule="evenodd" clip-rule="evenodd" d="M58.8105 45.9601C58.8576 45.2001 60.3222 44.8718 59.5527 44.7707C59.1383 44.8876 59.5718 44.0242 59.7024 43.9391C59.9437 43.8269 60.9078 43.8201 60.5619 44.3039C59.4774 44.934 62.9302 45.1523 58.8105 45.9601Z" fill="#093DB9"/>
<path fill-rule="evenodd" clip-rule="evenodd" d="M2.11774 142.28C2.45962 144.147 2.89061 145.995 3.35744 147.836C2.22394 146.703 1.98286 144.004 2.11774 142.28Z" fill="#CCCCCC"/>
<path fill-rule="evenodd" clip-rule="evenodd" d="M69.9243 67.6093C70.7676 68.2383 71.5666 65.9526 72.587 67.1527C71.5772 67.534 71.7718 69.5026 69.9243 67.6093Z" fill="#CCCCCC"/>
<path fill-rule="evenodd" clip-rule="evenodd" d="M116.382 52.1482C115.773 52.5124 115.231 52.5562 114.611 52.1848C115.163 50.9548 116.72 51.3852 116.435 49.8962C116.816 50.4226 116.311 51.4926 116.382 52.1482Z" fill="#CCCCCC"/>
<path fill-rule="evenodd" clip-rule="evenodd" d="M63.1379 42.4871C64.744 43.134 63.8527 46.4699 62.8623 44.0488C63.6472 43.6345 63.2805 43.0424 63.1379 42.4871Z" fill="#1EA7F2"/>
<path fill-rule="evenodd" clip-rule="evenodd" d="M73.1732 53.9303C71.8695 53.8065 73.0584 52.2447 73.6819 51.8643C73.3657 52.6661 74.5592 54.1256 73.1732 53.9303Z" fill="#1EA7F2"/>
<path fill-rule="evenodd" clip-rule="evenodd" d="M68.408 67.493C67.553 67.3038 67.4284 67.2386 67.8245 66.4854C67.8671 65.9506 67.99 65.8229 68.4368 66.221C69.3351 66.5629 69.3536 67.2836 68.408 67.493Z" fill="#CCCCCC"/>
<path fill-rule="evenodd" clip-rule="evenodd" d="M73.8034 54.2954C74.3542 56.9786 70.6606 56.2097 73.6573 54.3015C73.6989 54.3272 73.7635 54.3241 73.8034 54.2954Z" fill="#093DB9"/>
<path fill-rule="evenodd" clip-rule="evenodd" d="M116.65 50.0746C116.316 49.667 116.099 49.3282 115.537 49.4462C116.863 48.3131 119.601 51.57 116.65 50.0746Z" fill="#1EA7F2"/>
<path fill-rule="evenodd" clip-rule="evenodd" d="M46.4233 40.8365C47.3168 38.1065 48.7134 42.6043 47.0047 41.3269C47.2357 40.627 46.6813 40.9189 46.4233 40.8365Z" fill="#1EA7F2"/>
<path fill-rule="evenodd" clip-rule="evenodd" d="M67.4915 56.3798C67.1214 57.14 66.087 56.5319 66.3905 55.6937C67.0108 55.4346 68.2369 55.5402 67.4915 56.3798Z" fill="#093DB9"/>
<path fill-rule="evenodd" clip-rule="evenodd" d="M69.924 42.2643C69.5678 42.6178 69.6398 43.3935 68.9588 43.127C67.6441 41.811 68.4828 41.8859 69.924 42.2643Z" fill="#1EA7F2"/>
<path fill-rule="evenodd" clip-rule="evenodd" d="M39.3681 55.9162C38.8172 55.7423 39.3984 54.8763 39.3691 54.414C39.4605 55.3426 39.8581 54.4323 40.2684 54.2954C40.4117 55.0086 39.7164 55.3927 39.3681 55.9162Z" fill="#1EA7F2"/>
<path fill-rule="evenodd" clip-rule="evenodd" d="M67.3738 48.1597C66.5777 46.3206 68.125 48.3574 68.0555 46.8862C68.5733 47.3154 68.2474 47.95 67.3738 48.1597Z" fill="#1EA7F2"/>
<path fill-rule="evenodd" clip-rule="evenodd" d="M73.9762 48.4618C73.2535 49.4794 73.0507 48.7576 72.4712 48.1304C72.886 47.3944 73.3743 48.1208 73.9762 48.4618Z" fill="#1EA7F2"/>
<path fill-rule="evenodd" clip-rule="evenodd" d="M49.896 150.816C50.8008 150.279 51.5748 149.55 52.6744 150.138C51.7333 150.307 50.93 150.999 49.896 150.816Z" fill="#CCCCCC"/>
<path fill-rule="evenodd" clip-rule="evenodd" d="M46.9615 41.3293C47.7582 41.6015 47.8327 42.5205 46.9134 42.6028C46.4035 42.0276 46.4098 41.8583 46.9615 41.3293Z" fill="#CCCCCC"/>
<path fill-rule="evenodd" clip-rule="evenodd" d="M38.6666 89.7228C38.1646 90.0695 37.6627 90.4163 37.1616 90.7625C37.4373 90.0834 37.9045 89.6869 38.6666 89.7228Z" fill="#093DB9"/>
<path fill-rule="evenodd" clip-rule="evenodd" d="M43.4131 46.2012L43.4139 46.2132C43.8807 45.949 43.8942 45.2085 44.4416 45.6179C44.8627 46.5972 44.1843 46.5373 43.4131 46.2012Z" fill="#1EA7F2"/>
<path fill-rule="evenodd" clip-rule="evenodd" d="M53.275 149.771C53.9522 148.885 56.0839 148.879 54.2851 149.819C54.0517 149.779 53.0989 150.099 53.275 149.771Z" fill="#1EA7F2"/>
<path fill-rule="evenodd" clip-rule="evenodd" d="M73.7446 50.1278C74.2011 50.3359 75.066 50.2266 74.6975 51.1456C74.3693 52.0138 73.955 50.4154 73.7446 50.1278Z" fill="#1EA7F2"/>
<path fill-rule="evenodd" clip-rule="evenodd" d="M58.8151 46.0083C59.426 45.7798 60.0273 46.42 60.084 46.7544C59.5164 47.1437 58.7442 46.6036 58.8151 46.0083Z" fill="#1EA7F2"/>
<path fill-rule="evenodd" clip-rule="evenodd" d="M68.9512 54.2954C69.4574 54.8539 69.792 55.2496 68.9365 55.4531C68.244 55.2425 68.5818 54.7691 68.9512 54.2954Z" fill="#1EA7F2"/>
<path fill-rule="evenodd" clip-rule="evenodd" d="M37.6547 69.4765C38.0951 69.8836 38.3037 69.3827 38.6022 69.2296C39.383 70.4975 37.3595 70.9252 37.6547 69.4765Z" fill="#CCCCCC"/>
<path fill-rule="evenodd" clip-rule="evenodd" d="M113.806 55.1058C113.099 54.2222 114.229 54.7232 113.923 53.3693C114.803 53.6855 114.21 54.6225 113.806 55.1058Z" fill="#CCCCCC"/>
<path fill-rule="evenodd" clip-rule="evenodd" d="M46.944 42.6211C48.2306 41.8042 48.0813 45.0371 46.5391 43.8378C47.3542 43.6814 47.4094 43.5152 46.944 42.6211Z" fill="#CCCCCC"/>
<path fill-rule="evenodd" clip-rule="evenodd" d="M74.4205 48.4047C75.4889 48.2087 75.0155 50.228 73.8604 49.5094C74.1079 49.0595 74.8234 48.8932 74.4205 48.4047Z" fill="#CCCCCC"/>
<path fill-rule="evenodd" clip-rule="evenodd" d="M78.4912 50.2435C78.7224 49.6644 78.9537 49.0851 79.1854 48.507C80.0871 49.11 79.01 49.8482 78.4912 50.2435Z" fill="#CCCCCC"/>
<path fill-rule="evenodd" clip-rule="evenodd" d="M41.938 61.4731C41.3888 61.0259 41.1878 60.2181 41.9218 59.9681C42.5497 59.9753 41.7859 60.633 42.2557 60.7467C42.1695 60.9437 42.0834 61.1407 41.938 61.4731Z" fill="#1EA7F2"/>
<path fill-rule="evenodd" clip-rule="evenodd" d="M38.421 66.1868C37.6883 66.4769 38.3361 64.7537 38.7286 64.4831C38.8991 65.0998 38.6291 65.6281 38.421 66.1868Z" fill="#CCCCCC"/>
<path fill-rule="evenodd" clip-rule="evenodd" d="M38.068 65.8726C38.2251 66.6367 37.4112 66.2389 36.9309 66.1754C37.4821 65.9383 36.9601 65.7022 36.9302 65.4656C37.3749 65.4267 37.8759 65.2378 38.068 65.8726Z" fill="#093DB9"/>
<path fill-rule="evenodd" clip-rule="evenodd" d="M64.8306 62.1584C65.0983 61.9292 65.347 61.4732 65.6409 61.8463C65.3233 62.3922 65.2468 63.1273 64.8306 62.1584Z" fill="#CCCCCC"/>
<path fill-rule="evenodd" clip-rule="evenodd" d="M67.2616 60.3804C66.3751 60.6164 66.0054 59.986 66.6901 59.3893C66.8666 59.6958 67.0435 60.0023 67.2616 60.3804Z" fill="#1EA7F2"/>
<path fill-rule="evenodd" clip-rule="evenodd" d="M67.2616 63.3595C66.7169 64.096 66.564 63.3642 66.2197 62.8932C66.5403 62.2269 66.8874 62.9966 67.2616 63.3595Z" fill="#CCCCCC"/>
<path fill-rule="evenodd" clip-rule="evenodd" d="M0.52259 119.357C0.933422 120.107 0.487618 120.825 0.421135 121.557C0.0255806 120.807 0.343432 120.085 0.52259 119.357Z" fill="#CCCCCC"/>
<path fill-rule="evenodd" clip-rule="evenodd" d="M44.1689 51.0539C44.1689 51.0539 44.2383 51.0696 44.238 51.0694C44.6202 51.4978 45 51.9273 44.6866 52.5589C44.5163 52.0228 43.341 51.3694 44.1689 51.0539Z" fill="#1EA7F2"/>
<path fill-rule="evenodd" clip-rule="evenodd" d="M39.8703 57.0912C39.5647 56.6149 40.8659 56.4949 41.2134 56.7218C41.0003 57.4332 40.4254 57.1332 39.8703 57.0912Z" fill="#1EA7F2"/>
<path fill-rule="evenodd" clip-rule="evenodd" d="M43.8764 60.4085C43.4803 60.6414 43.0706 61.3883 42.8382 60.7712C42.7782 60.1495 43.4536 60.0452 43.8764 60.4085Z" fill="#1EA7F2"/>
<path fill-rule="evenodd" clip-rule="evenodd" d="M71.7763 58.0256C71.1929 58.6545 71.0951 58.2494 70.7344 57.7628C70.9708 57.2115 71.3621 57.8166 71.7763 58.0256Z" fill="#1EA7F2"/>
<path fill-rule="evenodd" clip-rule="evenodd" d="M60.3402 47.3493C60.8067 47.942 60.4153 48.0998 59.8525 48.3912C60.024 48.0593 59.9593 47.5151 60.3402 47.3493Z" fill="#1EA7F2"/>
<path fill-rule="evenodd" clip-rule="evenodd" d="M67.1613 53.2535C66.8714 52.8523 67.1135 52.6193 67.3797 52.4431C68.0344 52.6255 67.6394 52.8979 67.1613 53.2535Z" fill="#CCCCCC"/>
<path fill-rule="evenodd" clip-rule="evenodd" d="M46.5166 43.7605C48.6366 44.2988 46.0002 44.8812 46.338 44.0068C46.471 43.9973 46.3941 43.8217 46.5166 43.7605Z" fill="#1EA7F2"/>
<path fill-rule="evenodd" clip-rule="evenodd" d="M4.16748 149.226C4.36043 149.612 4.55338 149.998 4.74632 150.383C4.55327 149.997 4.36043 149.611 4.16748 149.226Z" fill="#CCCCCC"/>
<path fill-rule="evenodd" clip-rule="evenodd" d="M3.48247 148.299L4.16776 149.226C3.56933 149.159 3.43295 148.79 3.48247 148.299Z" fill="#CCCCCC"/>
<path fill-rule="evenodd" clip-rule="evenodd" d="M45.4971 41.4362C45.7673 41.2847 46.0374 41.1334 46.3074 40.9821C46.2425 41.475 45.8718 41.4592 45.4971 41.4362Z" fill="#CCCCCC"/>
<path fill-rule="evenodd" clip-rule="evenodd" d="M73.7891 54.3841C73.7489 54.4167 73.6835 54.421 73.6415 54.3909C72.3789 53.77 74.9314 53.834 73.7891 54.3841Z" fill="#CCCCCC"/>
<path fill-rule="evenodd" clip-rule="evenodd" d="M17.3654 103.613C17.211 103.767 17.0565 103.922 16.9023 104.076C17.0569 103.921 17.2112 103.767 17.3654 103.613Z" fill="#CCCCCC"/>
<path fill-rule="evenodd" clip-rule="evenodd" d="M113.685 49.7274C113.993 49.7243 114.302 49.7209 114.611 49.7178C114.302 49.7209 113.993 49.7243 113.685 49.7274Z" fill="#1EA7F2"/>
<path fill-rule="evenodd" clip-rule="evenodd" d="M53.2534 149.918C53.6008 149.88 53.9481 149.842 54.2953 149.804C53.9905 150.299 53.6304 150.199 53.2534 149.918Z" fill="#CCCCCC"/>
<path fill-rule="evenodd" clip-rule="evenodd" d="M69.8086 66.6247C70.0752 66.5849 70.3303 66.4772 70.5032 66.7243C70.251 66.8952 70.0495 66.7315 69.8086 66.6247Z" fill="#CCCCCC"/>
<path fill-rule="evenodd" clip-rule="evenodd" d="M5.09375 150.962C5.20948 151.155 5.32532 151.348 5.44106 151.541C5.32532 151.348 5.20948 151.155 5.09375 150.962Z" fill="#CCCCCC"/>
<path fill-rule="evenodd" clip-rule="evenodd" d="M19.4489 102.224C19.3328 102.339 19.2169 102.455 19.1016 102.571C19.2178 102.455 19.3333 102.339 19.4489 102.224Z" fill="#CCCCCC"/>
<path fill-rule="evenodd" clip-rule="evenodd" d="M1.85254 141.469C1.89115 141.624 1.92977 141.778 1.96831 141.932C1.92969 141.778 1.89108 141.623 1.85254 141.469Z" fill="#CCCCCC"/>
<path fill-rule="evenodd" clip-rule="evenodd" d="M114.611 49.6647C114.92 49.5876 115.228 49.5103 115.537 49.4332C115.228 49.5103 114.92 49.5874 114.611 49.6647Z" fill="#1EA7F2"/>
<path fill-rule="evenodd" clip-rule="evenodd" d="M39.4611 57.6527C39.3011 57.2411 39.3002 57.1379 39.7086 57.2116C39.6261 57.3586 39.5436 57.5056 39.4611 57.6527Z" fill="#1EA7F2"/>
<path fill-rule="evenodd" clip-rule="evenodd" d="M67.2617 43.445C67.5529 43.2005 67.7867 43.2551 67.9563 43.6447C67.7248 43.5781 67.4933 43.5115 67.2617 43.445Z" fill="#1EA7F2"/>
<path fill-rule="evenodd" clip-rule="evenodd" d="M4.97812 113.569C4.96466 113.723 4.95111 113.878 4.93756 114.032C4.67842 113.846 4.6745 113.69 4.97812 113.569Z" fill="#CCCCCC"/>
<path fill-rule="evenodd" clip-rule="evenodd" d="M10.882 108.244C10.7275 108.321 10.573 108.398 10.4189 108.475C10.5734 108.397 10.7278 108.321 10.882 108.244Z" fill="#CCCCCC"/>
<path fill-rule="evenodd" clip-rule="evenodd" d="M59.5051 45.9601C59.4984 45.575 59.6845 45.5466 59.968 45.6986C59.8137 45.7857 59.6594 45.8728 59.5051 45.9601Z" fill="#1EA7F2"/>
<path fill-rule="evenodd" clip-rule="evenodd" d="M68.1875 43.6447C68.419 43.7218 68.6505 43.7991 68.8821 43.8763C68.6507 43.7991 68.4191 43.7219 68.1875 43.6447Z" fill="#1EA7F2"/>
<path fill-rule="evenodd" clip-rule="evenodd" d="M60.7783 48.1054C60.9328 48.103 61.0872 48.1006 61.2414 48.0982C61.087 48.1007 60.9326 48.103 60.7783 48.1054Z" fill="#1D71D8"/>
<path fill-rule="evenodd" clip-rule="evenodd" d="M113.415 48.8543C113.427 49.0473 113.44 49.2402 113.453 49.4332C113.222 49.2579 113.093 49.0745 113.415 48.8543Z" fill="#1EA7F2"/>
<path fill-rule="evenodd" clip-rule="evenodd" d="M39.5929 56.8225C39.2275 56.8927 39.1589 56.7748 39.3473 56.495C39.4293 56.6045 39.511 56.7135 39.5929 56.8225Z" fill="#1EA7F2"/>
<path fill-rule="evenodd" clip-rule="evenodd" d="M59.2866 44.8135C59.4869 44.7709 59.6657 44.8613 59.8523 44.9204C59.6628 44.9955 59.1888 45.1805 59.2866 44.8135Z" fill="#1EA7F2"/>
<path fill-rule="evenodd" clip-rule="evenodd" d="M62.3994 42.3713C62.6309 42.4485 62.8626 42.5258 63.094 42.6028C62.8626 42.5258 62.631 42.4485 62.3994 42.3713Z" fill="#1EA7F2"/>
<path fill-rule="evenodd" clip-rule="evenodd" d="M70.6188 42.487C70.464 42.4484 70.3092 42.4097 70.1558 42.3713C70.3111 42.41 70.4649 42.4486 70.6188 42.487Z" fill="#1EA7F2"/>
<path fill-rule="evenodd" clip-rule="evenodd" d="M74.9023 54.2922C75.0181 54.2557 75.134 54.2192 75.2496 54.1829C75.1337 54.2195 75.018 54.256 74.9023 54.2922Z" fill="#CCCCCC"/>
<path fill-rule="evenodd" clip-rule="evenodd" d="M101.753 154.623C101.753 154.623 101.715 154.585 101.715 154.585C101.695 154.601 101.674 154.617 101.653 154.632C101.686 154.629 101.719 154.626 101.753 154.623Z" fill="#1EA7F2"/>
<path fill-rule="evenodd" clip-rule="evenodd" d="M42.377 54.527L42.481 54.7585C42.4549 54.6795 42.4116 54.5996 42.377 54.527Z" fill="#093DB9"/>
<path fill-rule="evenodd" clip-rule="evenodd" d="M49.4331 150.846C49.5875 150.808 49.7418 150.769 49.8962 150.731C49.7418 150.769 49.5875 150.808 49.4331 150.846Z" fill="#CCCCCC"/>
<path fill-rule="evenodd" clip-rule="evenodd" d="M43.3267 45.8443C43.3459 45.7285 43.3652 45.6127 43.3843 45.497C43.3651 45.6128 43.3459 45.7286 43.3267 45.8443Z" fill="#1EA7F2"/>
<path fill-rule="evenodd" clip-rule="evenodd" d="M27.09 97.1298C26.974 97.1685 26.8579 97.2072 26.7427 97.2456C26.8591 97.2068 26.9745 97.1683 27.09 97.1298Z" fill="#CCCCCC"/>
<path fill-rule="evenodd" clip-rule="evenodd" d="M43.7603 47.8078C43.6829 47.7721 43.6053 47.7367 43.5288 47.7013C43.6067 47.737 43.6835 47.7723 43.7603 47.8078Z" fill="#1EA7F2"/>
<path fill-rule="evenodd" clip-rule="evenodd" d="M42.7184 64.2515C42.6023 64.1741 42.4862 64.0969 42.3711 64.02C42.4877 64.0974 42.603 64.1745 42.7184 64.2515Z" fill="#1EA7F2"/>
<path fill-rule="evenodd" clip-rule="evenodd" d="M61.6643 46.7705C61.485 46.5689 61.6614 46.5884 61.8204 46.5389C61.7682 46.6165 61.7162 46.6936 61.6643 46.7705Z" fill="#1D71D8"/>
<path fill-rule="evenodd" clip-rule="evenodd" d="M16.5548 104.423C16.4389 104.462 16.3228 104.501 16.2075 104.539C16.3237 104.5 16.4393 104.462 16.5548 104.423Z" fill="#CCCCCC"/>
<path fill-rule="evenodd" clip-rule="evenodd" d="M65.341 56.032C65.3741 56.1186 65.4728 56.2006 65.3474 56.2635C65.3241 56.18 65.2424 56.0984 65.341 56.032Z" fill="#CCCCCC"/>
<path fill-rule="evenodd" clip-rule="evenodd" d="M1.73633 140.775C1.79565 140.852 1.91182 140.905 1.81482 141.006C1.78865 140.929 1.76249 140.852 1.73633 140.775Z" fill="#CCCCCC"/>
<path fill-rule="evenodd" clip-rule="evenodd" d="M112.852 53.8175C112.775 53.8235 112.758 53.8049 112.782 53.7316C112.86 53.7249 112.872 53.7434 112.852 53.8175Z" fill="#CCCCCC"/>
<path fill-rule="evenodd" clip-rule="evenodd" d="M47.6968 39.6767L47.9283 39.6248C47.8512 39.642 47.774 39.6594 47.6968 39.6767Z" fill="#1EA7F2"/>
<path fill-rule="evenodd" clip-rule="evenodd" d="M87.1924 95.8563C87.2185 95.779 87.2446 95.7018 87.2706 95.6248C87.2445 95.7022 87.2185 95.7791 87.1924 95.8563Z" fill="#1EA7F2"/>
<path fill-rule="evenodd" clip-rule="evenodd" d="M47.3338 66.2853C47.3053 66.2901 47.2768 66.2947 47.249 66.2994C47.2753 66.2458 47.2922 66.2418 47.3338 66.2853Z" fill="#1EA7F2"/>
<path fill-rule="evenodd" clip-rule="evenodd" d="M112.977 54.0566C112.892 54.0635 112.869 54.0367 112.888 53.955C112.972 53.9504 112.995 53.9729 112.977 54.0566Z" fill="#CCCCCC"/>
<path fill-rule="evenodd" clip-rule="evenodd" d="M46.4113 43.8763C46.432 43.9482 46.3957 43.9827 46.3182 43.9921C46.3019 43.9199 46.3326 43.8815 46.4113 43.8763Z" fill="#CCCCCC"/>
<path fill-rule="evenodd" clip-rule="evenodd" d="M42.7982 64.4674C42.7331 64.4614 42.7188 64.4429 42.7474 64.3829C42.8242 64.387 42.8375 64.3968 42.7982 64.4674Z" fill="#1EA7F2"/>
<path fill-rule="evenodd" clip-rule="evenodd" d="M62.1675 46.3074C62.2447 46.2687 62.3218 46.2302 62.399 46.1917C62.3217 46.2303 62.2447 46.2688 62.1675 46.3074Z" fill="#1D71D8"/>
<path fill-rule="evenodd" clip-rule="evenodd" d="M70.1128 67.183C70.1497 67.2432 70.135 67.238 70.076 67.2275C70.0565 67.1722 70.0502 67.1627 70.1128 67.183Z" fill="#CCCCCC"/>
<path fill-rule="evenodd" clip-rule="evenodd" d="M0.400944 118.663C0.437584 118.743 0.504759 118.814 0.426954 118.894C0.385677 118.808 0.28548 118.738 0.400944 118.663Z" fill="#CCCCCC"/>
<path fill-rule="evenodd" clip-rule="evenodd" d="M65.54 57.0045C65.5686 56.9987 65.5971 56.9928 65.6257 56.987C65.5848 57.013 65.5427 57.0927 65.54 57.0045Z" fill="#CCCCCC"/>
<path fill-rule="evenodd" clip-rule="evenodd" d="M3.35742 148.068C3.39607 148.145 3.43463 148.222 3.47319 148.299C3.43454 148.222 3.39598 148.145 3.35742 148.068Z" fill="#CCCCCC"/>
<path fill-rule="evenodd" clip-rule="evenodd" d="M43.2762 47.4585C43.1482 47.4184 43.1525 47.4077 43.275 47.3559C43.3042 47.3903 43.3051 47.4232 43.2762 47.4585Z" fill="#1EA7F2"/>
<path fill-rule="evenodd" clip-rule="evenodd" d="M112.509 53.4778C112.422 53.4843 112.405 53.4565 112.426 53.3757C112.512 53.3752 112.537 53.391 112.509 53.4778Z" fill="#CCCCCC"/>
<path fill-rule="evenodd" clip-rule="evenodd" d="M43.3374 46.5389C43.3186 46.4506 43.2413 46.3604 43.3735 46.3074C43.3922 46.3959 43.4695 46.4857 43.3374 46.5389Z" fill="#1EA7F2"/>
<path fill-rule="evenodd" clip-rule="evenodd" d="M4.8623 150.615C4.93966 150.692 5.01688 150.769 5.09384 150.846C5.01662 150.769 4.93953 150.692 4.8623 150.615Z" fill="#CCCCCC"/>
<path fill-rule="evenodd" clip-rule="evenodd" d="M61.126 45.9601C61.1647 45.9987 61.2033 46.0374 61.2417 46.0759C61.2031 46.0372 61.1646 45.9987 61.126 45.9601Z" fill="#1D71D8"/>
<path fill-rule="evenodd" clip-rule="evenodd" d="M85.5884 100.3C85.5884 100.3 85.6333 100.326 85.633 100.327C85.6326 100.327 85.5884 100.3 85.5884 100.3Z" fill="#093DB9"/>
<path fill-rule="evenodd" clip-rule="evenodd" d="M18.9685 102.603C18.9598 102.673 18.9486 102.686 18.8877 102.644C18.8977 102.587 18.9172 102.578 18.9685 102.603Z" fill="#CCCCCC"/>
<path fill-rule="evenodd" clip-rule="evenodd" d="M4.66282 145.212C5.68262 136.588 21.7484 141.917 13.2448 148.429C9.76911 150.113 7.87244 144.233 11.2354 143.051C12.8349 142.442 14.5258 144.973 12.9966 145.838C10.8166 145.631 13.3349 144.979 12.5567 144.293C11.5017 143.429 10.3526 144.458 10.4829 145.76C10.9821 148.968 15.3583 146.554 14.2571 144.114C12.7539 140.136 4.6106 141.938 6.144 146.35C9.38504 154.407 20.465 150.769 16.4539 142.495C13.9454 137.773 7.96572 139.361 4.92423 142.626C3.6844 142.337 6.71464 139.831 7.6907 139.322C13.5482 135.597 20.8268 142.08 18.5628 148.296C15.6732 155.51 4.66603 152.239 4.66282 145.212Z" fill="#CCCCCC"/>
<path fill-rule="evenodd" clip-rule="evenodd" d="M61.0144 122.418C68.9836 121.811 66.6496 135.358 59.7903 132.539C56.2534 131.055 58.201 122.537 62.2315 125.52C63.4387 126.574 63.2457 129.933 61.1581 128.891C60.6445 127.956 62.0918 128.251 62.1149 127.544C62.1415 126.773 61.6221 125.93 60.9253 125.785C56.8097 126.713 60.4903 134.856 63.7601 129.982C68.4192 123.6 57.2443 120.86 55.1946 127.21C53.4159 132.834 59.4694 135.917 63.9683 133.184C65.2243 132.145 66.907 130.907 65.6722 133.502C63.1822 136.376 59.2373 135.924 55.9511 134.875C50.9665 130.798 54.5023 121.601 61.0144 122.418Z" fill="#CCCCCC"/>
<path fill-rule="evenodd" clip-rule="evenodd" d="M41.1451 97.9284C41.0296 97.5901 40.8879 97.8626 40.6862 97.9606C40.7796 98.1812 40.9768 97.9593 41.1451 97.9284ZM39.3629 99.2343C39.5121 102.967 43.9823 99.2815 43.1512 97.0402C41.9156 93.335 35.615 94.639 36.5853 98.8407C35.5391 106.29 47.1179 106.102 46.7633 99.0094C46.8153 98.6634 47.1165 98.6416 47.3006 98.9088C48.5233 101.02 47.4215 103.762 45.4042 104.901C39.5899 109.101 32.7802 102.925 35.4392 96.468C37.3724 91.5133 45.6415 93.5813 44.5327 98.9875C43.6305 100.912 41.621 103.238 39.2066 102.168C37.7536 100.837 37.3289 96.7518 39.4315 95.8196C43.9478 95.4235 41.858 100.781 39.7684 98.5499C39.6353 97.7491 40.3054 97.5461 40.919 97.29C39.0186 96.3875 39.1705 97.9507 39.3629 99.2343Z" fill="#CCCCCC"/>
<path fill-rule="evenodd" clip-rule="evenodd" d="M34.322 127.089C34.9064 127.632 35.1563 126.562 35.6842 126.699C27.5218 127.368 32.0689 113.61 37.1569 120.837C37.749 122.324 36.441 125.416 34.6598 124.395C33.781 123.596 33.8862 121.001 35.1536 120.831C34.8848 121.672 34.5657 122.424 34.8266 123.334C36.6607 126.05 37.9906 117.056 32.802 120.11C28.3869 128.255 43.6485 126.078 38.2538 119.282C31.2918 113.587 23.6191 127.643 34.322 127.089ZM34.5637 128.606C24.1202 129.086 26.4382 116.138 35.516 116.838C43.541 117.35 40.9332 127.494 34.5637 128.606Z" fill="#CCCCCC"/>
<path fill-rule="evenodd" clip-rule="evenodd" d="M68.0197 112.084C70.8382 116.214 51.6295 118.098 55.2034 106.868C55.1839 102.151 64.972 100.521 58.6657 103.898C50.9268 110.329 61.1143 117.537 68.0197 112.084Z" fill="#CCCCCC"/>
<path fill-rule="evenodd" clip-rule="evenodd" d="M40.8662 89.692C42.2832 88.7126 49.7307 91.5013 51.029 93.2907C51.8223 93.3755 52.4905 93.0596 52.6751 93.9142C52.9719 94.8563 53.982 95.4864 54.9033 95.847C55.3794 95.9218 54.8033 96.1592 54.9186 96.2982C55.3859 96.8169 55.8816 97.2307 54.8264 97.063C54.595 97.05 53.9673 97.3784 54.5009 96.6874C54.5353 96.6428 54.4193 96.4271 54.3248 96.3488C53.0432 95.6107 52.099 93.7868 50.4656 94.1126C50.105 94.1764 49.9333 94.0628 50.1938 93.7044C50.941 92.4111 45.0243 90.6242 43.9792 90.5862C42.9311 89.969 42.0917 89.8398 40.8662 89.692Z" fill="#1EA7F2"/>
<path fill-rule="evenodd" clip-rule="evenodd" d="M52.2114 113.837C52.2174 116.245 47.6966 114.057 46.2796 113.842C44.8351 111.802 51.5136 112.755 52.2114 113.837Z" fill="#CCCCCC"/>
<path fill-rule="evenodd" clip-rule="evenodd" d="M30.5542 135.912C32.1796 136.089 30.5043 138.164 30.3188 139.035C30.16 140.37 28.0272 142.437 28.1358 139.974C28.6908 138.527 29.4553 136.94 30.5542 135.912Z" fill="#CCCCCC"/>
<path fill-rule="evenodd" clip-rule="evenodd" d="M73.6288 129.004C73.4148 130.249 72.6321 136.021 71.3193 132.183C71.1975 130.938 73.0114 125.693 73.6288 129.004Z" fill="#CCCCCC"/>
<path fill-rule="evenodd" clip-rule="evenodd" d="M11.1619 129.082C12.5602 129.242 17.1856 131.345 14.412 132.439C13.5282 131.551 9.8507 130.676 11.1619 129.082Z" fill="#CCCCCC"/>
<path fill-rule="evenodd" clip-rule="evenodd" d="M48.6893 135.218C47.4204 134.39 44.4121 133.339 44.8444 131.588C45.31 130.929 51.2211 134.821 48.6893 135.218Z" fill="#CCCCCC"/>
<path fill-rule="evenodd" clip-rule="evenodd" d="M59.4563 147.022C57.6478 147.147 57.4487 144.36 57.5632 142.933C58.8211 140.698 59.7299 146.096 59.4563 147.022Z" fill="#CCCCCC"/>
<path fill-rule="evenodd" clip-rule="evenodd" d="M28.0389 111.953C28.0011 111.507 27.0294 110.17 27.943 109.994C29.2833 109.708 30.6218 114.024 28.6093 113.389C28.0582 113.092 27.7274 112.722 28.0389 111.953Z" fill="#CCCCCC"/>
<path fill-rule="evenodd" clip-rule="evenodd" d="M60.1995 101.876C58.5971 101.28 57.1866 98.8164 55.916 97.4771C57.4644 98.7413 59.7126 99.9318 60.1995 101.876Z" fill="#1EA7F2"/>
<path fill-rule="evenodd" clip-rule="evenodd" d="M6.01982 142.153C5.21899 143.979 3.22053 146.139 4.43249 142.515C5.19755 142.917 5.49918 141.38 6.01982 142.153Z" fill="#1EA7F2"/>
<path fill-rule="evenodd" clip-rule="evenodd" d="M39.3502 99.2136C39.1642 97.937 39.0165 96.3828 40.857 97.2805C39.4752 97.5312 39.3287 99.2212 40.8664 99.1451C40.3607 99.1681 39.8554 99.1908 39.3502 99.2136Z" fill="#1EA7F2"/>
<path fill-rule="evenodd" clip-rule="evenodd" d="M34.4992 142.979C34.0498 144.677 31.7229 142.091 33.5998 141.837C34.5373 141.64 33.6253 142.904 34.4992 142.979Z" fill="#1EA7F2"/>
<path fill-rule="evenodd" clip-rule="evenodd" d="M24.1557 112.064C24.4619 112.471 24.8059 112.882 24.2388 113.106C23.5091 112.74 23.347 112.605 24.1557 112.064Z" fill="#CCCCCC"/>
<path fill-rule="evenodd" clip-rule="evenodd" d="M38.088 107.696C37.5172 107.945 37.0534 108.591 36.6987 108.004C37.147 107.193 37.2622 106.841 38.088 107.696Z" fill="#1EA7F2"/>
<path fill-rule="evenodd" clip-rule="evenodd" d="M32.1719 106.227C32.0206 107.116 30.6282 105.62 31.5984 105.471C32.1745 105.416 32.2123 105.774 32.1719 106.227Z" fill="#1EA7F2"/>
<path fill-rule="evenodd" clip-rule="evenodd" d="M43.8762 120.41C43.3445 120.724 42.8556 121.283 42.8345 120.338C43.0141 120.127 43.8913 119.783 43.8762 120.41Z" fill="#1EA7F2"/>
<path fill-rule="evenodd" clip-rule="evenodd" d="M49.4331 94.4495C48.9247 95.1881 48.7795 94.6256 48.2754 94.3284C48.7286 93.7207 48.9358 94.0878 49.4331 94.4495Z" fill="#1EA7F2"/>
<path fill-rule="evenodd" clip-rule="evenodd" d="M34.4613 142.974C33.8652 142.879 34.1008 142.274 34.0361 141.816C34.4811 142.075 34.8272 142.376 34.4613 142.974Z" fill="#CCCCCC"/>
<path fill-rule="evenodd" clip-rule="evenodd" d="M28.5261 134.87C29.2324 135.416 28.5352 135.508 28.0519 135.796C27.3444 135.626 28.2325 135.212 28.5261 134.87Z" fill="#1EA7F2"/>
<path fill-rule="evenodd" clip-rule="evenodd" d="M16.0917 122.527C15.5298 122.8 15.2615 123.041 15.0498 122.536C15.3419 121.904 15.5568 122.112 16.0917 122.527Z" fill="#CCCCCC"/>
<path fill-rule="evenodd" clip-rule="evenodd" d="M25.5594 112.527C25.2486 112.03 25.8129 111.895 26.168 111.717C27.0023 111.897 26.1235 112.146 25.5594 112.527Z" fill="#1EA7F2"/>
<path fill-rule="evenodd" clip-rule="evenodd" d="M31.1735 103.15C30.639 102.787 31.0184 102.645 31.4259 102.455C32.0347 102.643 31.574 102.897 31.1735 103.15Z" fill="#1EA7F2"/>
<path fill-rule="evenodd" clip-rule="evenodd" d="M43.8765 120.399C44.0521 120.617 44.4415 120.772 44.0657 120.978C44.0012 120.79 43.9443 120.573 43.8765 120.399Z" fill="#1EA7F2"/>
<path fill-rule="evenodd" clip-rule="evenodd" d="M55.9059 97.5929C55.8081 97.4148 55.3016 97.1708 55.4979 97.014C55.5971 97.1986 55.984 97.4094 55.9059 97.5929Z" fill="#1EA7F2"/>
<path fill-rule="evenodd" clip-rule="evenodd" d="M4.71919 145.174C4.69858 145.251 4.67809 145.328 4.65771 145.405C4.67821 145.328 4.6987 145.251 4.71919 145.174Z" fill="#1EA7F2"/>
<path fill-rule="evenodd" clip-rule="evenodd" d="M59.5049 147.026C59.5821 146.949 59.6593 146.872 59.7364 146.794C59.6592 146.872 59.582 146.949 59.5049 147.026Z" fill="#1EA7F2"/>
<path fill-rule="evenodd" clip-rule="evenodd" d="M105.769 125.627C120.34 124.489 109.82 127.123 114.699 135.938C119.675 141.099 116.978 138.629 118.875 145.095C119.151 146.435 116.417 145.283 115.63 145.462C114.3 146.206 113.901 145.108 113.315 144.333C112.467 143.264 111.751 142.061 110.485 141.454C110.185 141.204 109.837 141.092 110.343 140.468C112.421 138.172 111.739 135.006 110.095 132.449C109.865 131.27 109.797 130.116 108.829 129.278C108.594 127.715 104.691 126.432 105.769 125.627Z" fill="#CCCCCC"/>
<path fill-rule="evenodd" clip-rule="evenodd" d="M97.5009 149.401C97.1567 146.765 100.63 147.177 102.342 145.99C104.366 144.791 106.605 143.783 108.419 142.3C110.032 140.609 112.18 143.799 112.972 145.063C113.371 146.515 107.137 146.613 105.872 148.312C104.074 149.52 102.279 150.751 101.154 152.711C99.4871 155 97.4205 150.924 97.5009 149.401Z" fill="#CCCCCC"/>
<path fill-rule="evenodd" clip-rule="evenodd" d="M61.1091 102.687C61.7211 103.221 62.1999 104.006 61.064 104.115C55.4758 106.072 61.5223 113.431 66.1431 109.217C71.7672 113.705 59.5539 115.92 57.2304 112.014C54.3427 108.243 57.0809 103.891 61.1091 102.687Z" fill="#1D71D8"/>
<path fill-rule="evenodd" clip-rule="evenodd" d="M110.906 136.605C110.802 138.175 109.843 140.427 108.192 140.39C105.302 139.827 102.428 139.946 99.5545 140.478C98.7123 140.634 98.6642 140.562 98.8212 139.661C98.3268 137.14 103.358 138.067 105.056 136.977C108.395 136.656 109.763 131.083 110.906 136.605Z" fill="#CCCCCC"/>
<path fill-rule="evenodd" clip-rule="evenodd" d="M104.104 140.659C105.007 140.978 108.329 140.591 107.38 141.707C104.308 143.508 101.159 145.651 97.7663 146.679C97.4721 146.64 97.2851 146.517 97.3915 146.084C97.6544 140.473 99.4026 141.359 104.104 140.659Z" fill="#CCCCCC"/>
<path fill-rule="evenodd" clip-rule="evenodd" d="M103.8 132.093C116.454 131.983 99.4105 139.146 99.4454 136.07C99.7426 133.435 101.086 132.129 103.8 132.093Z" fill="#CCCCCC"/>
<path fill-rule="evenodd" clip-rule="evenodd" d="M105.751 131.052C100.792 131.784 98.7948 132.031 102.559 126.959C105.582 124.857 112.717 134.317 105.751 131.052Z" fill="#CCCCCC"/>
<path fill-rule="evenodd" clip-rule="evenodd" d="M66.0745 109.225C63.1657 111.786 58.3078 110.141 58.8528 105.866C58.968 104.06 61.2209 104.681 61.7514 103.497C62.7565 103.74 63.1671 104.451 63.2595 105.413C62.3932 105.021 61.4129 104.766 60.5123 105.262C59.1409 106.084 60.1033 108.43 61.2539 108.919C63.3636 109.994 64.9429 108 66.9143 107.492C66.4441 108.191 65.8109 108.095 66.0745 109.225Z" fill="#CCCCCC"/>
<path fill-rule="evenodd" clip-rule="evenodd" d="M125.261 152.93C123.715 151.457 121.866 149.932 121.209 147.836C123.234 148.747 124.602 150.785 125.261 152.93Z" fill="#CCCCCC"/>
<path fill-rule="evenodd" clip-rule="evenodd" d="M120.82 147.481C120.705 147.453 120.775 147.424 120.85 147.382C120.84 147.415 120.83 147.448 120.82 147.481Z" fill="#CCCCCC"/>
<path fill-rule="evenodd" clip-rule="evenodd" d="M65.767 78.9161C67.086 79.9484 66.9309 78.1782 67.5649 78.028C68.1492 78.7289 66.914 79.5027 66.7482 80.2088C66.8694 80.5975 67.6642 80.8272 68.1264 80.6159C68.8605 80.7243 69.36 81.7495 68.6678 82.1957C68.1531 82.0761 67.8584 81.1278 67.2512 81.7627C66.8589 81.6032 66.589 81.1026 66.0298 81.3951C65.8887 81.0799 65.6023 80.7494 65.6342 80.4522C65.7213 79.6421 65.2736 79.8369 64.8306 79.9405C64.8367 79.3272 64.9191 78.7819 65.767 78.9161Z" fill="#1EA7F2"/>
<path fill-rule="evenodd" clip-rule="evenodd" d="M63.7712 81.3727C63.9935 81.3863 64.3913 81.4612 64.4113 81.4039C64.7032 80.7079 65.6449 81.6336 65.512 82.1243C65.0582 82.8633 64.7565 81.7673 64.1877 83.2938C64.1181 83.3702 64.03 83.43 63.9504 83.4976C63.3689 82.6116 63.1597 83.6287 62.7711 83.7291C61.0806 84.2797 63.4433 82.0739 63.7712 81.3727Z" fill="#CCCCCC"/>
<path fill-rule="evenodd" clip-rule="evenodd" d="M71.9359 74.4391C71.9653 74.9683 71.8648 75.7783 72.5827 75.2008C73.8644 74.2483 73.1914 76.6604 72.0987 75.9143C70.7362 75.6614 71.9161 75.7433 71.6725 74.8075C71.6412 74.7359 71.8422 74.5645 71.9359 74.4391Z" fill="#CCCCCC"/>
<path fill-rule="evenodd" clip-rule="evenodd" d="M87.1738 95.3488C86.6536 96.1123 86.5648 95.6019 86.1318 95.1491C86.541 94.6808 86.75 95.0675 87.1738 95.3488Z" fill="#1EA7F2"/>
<path fill-rule="evenodd" clip-rule="evenodd" d="M61.909 83.8318C62.9417 83.6924 62.5035 84.547 61.7175 84.5098C61.4798 84.1735 61.5876 83.9636 61.909 83.8318Z" fill="#1EA7F2"/>
<path fill-rule="evenodd" clip-rule="evenodd" d="M47.002 24.6587C46.9248 24.4271 46.8477 24.1957 46.7705 23.9641C46.8478 24.1958 46.9249 24.4272 47.002 24.6587Z" fill="#CCCCCC"/>
<path fill-rule="evenodd" clip-rule="evenodd" d="M64.8302 79.996C64.7531 80.0733 64.676 80.1503 64.5986 80.2276C64.6759 80.1505 64.7529 80.0733 64.8302 79.996Z" fill="#1EA7F2"/>
<path fill-rule="evenodd" clip-rule="evenodd" d="M71.0816 75.7993C71.0044 75.7835 70.927 75.7678 70.8501 75.7522C70.9384 75.7289 71.0155 75.7444 71.0816 75.7993Z" fill="#CCCCCC"/>
<path fill-rule="evenodd" clip-rule="evenodd" d="M9.93757 81.7625C10.305 81.7078 11.0695 80.6187 10.2017 81.1339C10.1816 81.1479 9.86737 80.7523 9.71153 80.5321C9.4894 80.2182 9.65444 80.1627 9.95216 80.0353C10.1315 79.9586 9.46403 79.5614 10.016 79.256C10.4704 78.5787 11.0404 78.9396 11.577 78.8958C10.6363 79.6578 12.8174 82.7792 9.93757 81.7625Z" fill="#1EA7F2"/>
<path fill-rule="evenodd" clip-rule="evenodd" d="M15.8319 74.6707C16.3027 74.7822 17.6394 74.7483 16.6784 75.13C16.0192 75.7647 15.5042 77.7944 14.4972 76.3791C13.5727 75.8667 14.0975 75.2591 14.9197 75.7814C14.3597 74.9558 15.2119 74.9624 15.8319 74.6707Z" fill="#CCCCCC"/>
<path fill-rule="evenodd" clip-rule="evenodd" d="M8.91406 76.6884C9.43047 76.8904 10.5799 76.1818 10.2422 77.2281C9.88735 78.7752 9.45282 77.2998 8.91406 76.6884Z" fill="#1EA7F2"/>
<path fill-rule="evenodd" clip-rule="evenodd" d="M14.7094 75.2029C15.514 76.6457 13.891 74.8897 14.0058 76.0598C12.5505 76.072 14.819 74.4789 12.1558 74.9577C13.054 74.5595 13.9175 74.5185 14.7094 75.2029Z" fill="#1EA7F2"/>
<path fill-rule="evenodd" clip-rule="evenodd" d="M24.7076 75.5968C24.4885 73.8425 24.3738 73.2176 25.1218 75.2258C24.9839 75.3494 24.8458 75.4731 24.7076 75.5968Z" fill="#1EA7F2"/>
<path fill-rule="evenodd" clip-rule="evenodd" d="M24.4115 73.8603C24.3832 73.6287 24.3548 73.3971 24.3267 73.1657C24.355 73.3974 24.3833 73.6288 24.4115 73.8603Z" fill="#1EA7F2"/>
<path fill-rule="evenodd" clip-rule="evenodd" d="M9.60889 81.3853C9.68631 81.4628 9.76374 81.5401 9.84042 81.6168C9.76275 81.5391 9.68582 81.4622 9.60889 81.3853Z" fill="#1EA7F2"/>
<path fill-rule="evenodd" clip-rule="evenodd" d="M24.4735 77.3334C24.4146 77.2965 24.412 77.2578 24.4655 77.2176C24.5141 77.2701 24.6083 77.3133 24.4735 77.3334Z" fill="#1EA7F2"/>
<path fill-rule="evenodd" clip-rule="evenodd" d="M35.8882 150.186C35.874 145.95 41.9607 143.016 45.3064 145.515C46.681 145.914 48.1021 151.388 46.1904 150.813C46.1283 146.412 38.4261 147.568 38.8716 151.451C39.0803 152.333 38.9252 152.467 38.024 152.526C35.3239 152.797 36.0594 152.114 35.8882 150.186Z" fill="#1D71D8"/>
<path fill-rule="evenodd" clip-rule="evenodd" d="M61.4849 28.4345C61.1489 26.5335 68.1628 27.5101 62.9511 28.135C63.5136 28.3127 64.0209 28.473 64.5285 28.6333C64.3757 28.928 64.2734 29.2529 64.7591 29.2372C65.7055 29.2984 66.074 28.481 65.0313 28.413C65.465 27.5999 65.8026 28.1053 66.3354 28.5521C65.4288 29.2497 66.1128 30.109 65.0494 29.9689C64.6749 29.0218 64.4379 30.2386 63.9628 29.831C63.7364 29.3495 63.9709 28.5327 63.2606 28.9326C62.5799 28.9833 62.0491 28.3184 61.4849 28.4345Z" fill="#CCCCCC"/>
<path fill-rule="evenodd" clip-rule="evenodd" d="M61.2156 28.2475C61.3248 28.8688 61.0935 29.1582 60.4312 29.0268C60.6927 28.767 60.9542 28.5072 61.2156 28.2475Z" fill="#CCCCCC"/>
<path fill-rule="evenodd" clip-rule="evenodd" d="M37.0172 66.2196C37.6187 66.2485 37.6876 66.478 37.5862 67.03C37.0184 66.958 36.7896 66.8187 37.0172 66.2196Z" fill="#CCCCCC"/>
<path fill-rule="evenodd" clip-rule="evenodd" d="M71.9834 67.6088C71.7885 67.4607 71.9389 67.4962 72.1236 67.498C72.0795 67.5364 72.0327 67.5736 71.9834 67.6088Z" fill="#093DB9"/>
<path fill-rule="evenodd" clip-rule="evenodd" d="M6.02002 142.188C7.11543 138.939 14.6743 138.196 16.3937 142.44C18.9075 146.338 15.5439 152.306 10.7232 150.691C0.584549 146.243 9.36322 137.622 14.2096 144.054C15.3029 148.726 7.79135 147.606 11.35 143.943C14.5029 144.05 10.5621 145.713 12.9552 145.775C14.4755 144.912 12.7949 142.387 11.203 142.994C9.26082 143.709 8.84346 146.439 10.2752 147.89C18.1279 151.686 17.1863 135.326 6.02002 142.188Z" fill="#1D71D8"/>
<path fill-rule="evenodd" clip-rule="evenodd" d="M7.98779 141.122C8.14226 141.006 8.29651 140.89 8.45087 140.775C8.2964 140.89 8.14215 141.006 7.98779 141.122Z" fill="#1EA7F2"/>
<path fill-rule="evenodd" clip-rule="evenodd" d="M8.68262 140.718C8.79849 140.717 8.91447 140.716 9.02992 140.715C8.91384 140.716 8.79817 140.717 8.68262 140.718Z" fill="#1EA7F2"/>
<path fill-rule="evenodd" clip-rule="evenodd" d="M9.37744 140.591C9.49324 140.598 9.60924 140.604 9.72475 140.61C9.60875 140.604 9.49314 140.598 9.37744 140.591Z" fill="#1EA7F2"/>
<path fill-rule="evenodd" clip-rule="evenodd" d="M41.2136 97.9034C41.0438 97.94 40.8449 98.2027 40.7505 97.9415C40.9542 97.8255 41.097 97.5029 41.2136 97.9034Z" fill="#1EA7F2"/>
<path fill-rule="evenodd" clip-rule="evenodd" d="M34.2537 127.098C23.5344 127.648 31.2258 113.651 38.1907 119.324C43.5888 126.097 28.3115 128.254 32.7322 120.147C37.9308 117.108 36.5918 126.064 34.7581 123.359C34.4973 122.452 34.8175 121.703 35.0864 120.866C33.8178 121.035 33.7119 123.62 34.5918 124.415C36.3762 125.431 37.6833 122.354 37.0912 120.873C32.4 114.615 27.9272 124.407 34.2537 127.098Z" fill="#1D71D8"/>
<path fill-rule="evenodd" clip-rule="evenodd" d="M34.2877 127.074C34.1065 126.352 35.1963 126.799 35.6568 126.683C35.1262 126.546 34.8751 127.619 34.2877 127.074Z" fill="#1EA7F2"/>
<path fill-rule="evenodd" clip-rule="evenodd" d="M65.1778 108.233C61.0324 112.583 56.8396 103.215 63.3254 105.475C63.3933 105.68 63.5627 105.916 63.5118 106.083C62.9614 107.214 65.8579 107.054 64.9651 108.136C65.0482 108.152 65.1448 108.139 65.1778 108.233Z" fill="#1D71D8"/>
<path fill-rule="evenodd" clip-rule="evenodd" d="M62.0539 93.0823C63.1892 92.0239 63.0049 90.492 61.2972 91.6492C61.5912 91.9305 62.1667 92.0152 61.9133 92.4819C59.8762 93.1169 60.0642 90.7932 61.7147 90.853C61.476 90.5112 61.1217 90.5973 60.7643 90.6086C60.9232 90.1957 60.6802 89.1745 61.2997 89.2374C62.7962 89.694 61.0859 89.992 62.8497 90.7663C63.1099 90.314 63.3465 88.283 63.6596 88.7472C63.3827 89.6751 64.4628 89.1992 63.5777 90.5396C63.5389 90.9748 63.7791 90.8956 64.02 90.7022C63.9474 91.4198 63.67 92.1493 63.6042 92.8352C63.5372 92.916 63.4671 92.9953 63.4017 93.0772C62.9801 93.6535 62.5631 93.4123 62.0539 93.0823Z" fill="#093DB9"/>
<path fill-rule="evenodd" clip-rule="evenodd" d="M63.7904 83.8629C64.2197 84.3046 64.6274 84.5145 65.2202 84.0324C66.1995 83.2341 67.7996 84.9019 65.9427 84.9529C65.5091 85.2008 65.7141 85.3239 66.1011 85.4413C65.8231 85.853 65.7277 86.6165 64.937 86.0397C64.6245 85.1218 64.2297 84.9737 63.3848 85.4545C62.7584 85.1746 64.0307 84.025 63.7904 83.8629Z" fill="#1EA7F2"/>
<path fill-rule="evenodd" clip-rule="evenodd" d="M71.4961 82.3524C71.4585 82.4341 71.3654 82.5009 71.4818 82.5645C71.519 82.4819 71.6167 82.4144 71.4961 82.3524ZM72.3555 83.5797C71.1636 83.6944 71.1875 83.8634 70.3259 84.6268C69.9572 84.2525 69.7467 83.3296 70.1219 82.8675C70.1005 83.3415 70.5589 83.232 70.7545 83.0284C71.2799 80.4119 71.7633 81.9318 72.3555 83.5797Z" fill="#CCCCCC"/>
<path fill-rule="evenodd" clip-rule="evenodd" d="M76.35 79.1202C76.4363 81.3602 78.0562 79.8101 77.6001 81.6016C76.6456 81.8768 75.8143 78.3069 75.3183 80.2105C75.025 81.3937 74.9017 80.31 74.6812 79.7901C74.4869 79.3247 77.1159 78.0938 76.35 79.1202Z" fill="#1EA7F2"/>
<path fill-rule="evenodd" clip-rule="evenodd" d="M68.1091 80.6992C66.0492 81.3678 67.0475 78.6944 68.1626 78.6068C68.3572 78.9809 68.5969 79.7098 69.119 79.4802C69.5683 78.9369 69.681 79.5454 69.924 79.6932C69.7023 80.7694 68.1444 79.34 68.1091 80.6992Z" fill="#CCCCCC"/>
<path fill-rule="evenodd" clip-rule="evenodd" d="M63.5571 92.8053C63.9282 92.4438 65.1248 92.6325 65.4093 91.6887C65.4173 92.321 65.0841 95.0086 64.3531 93.6022C64.2233 93.1825 64.3892 92.4778 63.5571 92.8053Z" fill="#1EA7F2"/>
<path fill-rule="evenodd" clip-rule="evenodd" d="M66.9226 84.6848C65.6994 83.526 68.0534 84.1873 67.686 82.8903C68.2806 84.2421 68.9921 84.9586 66.9226 84.6848Z" fill="#CCCCCC"/>
<path fill-rule="evenodd" clip-rule="evenodd" d="M70.0398 79.6487C69.7885 79.5019 69.6718 78.8977 69.2072 79.4372C66.7812 78.763 70.0022 77.0548 70.0398 79.6487Z" fill="#1EA7F2"/>
<path fill-rule="evenodd" clip-rule="evenodd" d="M74.7384 75.018C76.3534 75.196 75.1226 76.3092 76.1754 77.3137C75.5443 77.565 74.0325 75.3282 74.7384 75.018Z" fill="#CCCCCC"/>
<path fill-rule="evenodd" clip-rule="evenodd" d="M63.6105 88.7959C63.2959 87.9596 64.4645 86.7866 64.6894 88.1347C65.9926 88.9454 64.3587 89.0314 63.6105 88.7959Z" fill="#CCCCCC"/>
<path fill-rule="evenodd" clip-rule="evenodd" d="M63.3497 85.4733C64.6044 84.4544 65.6599 86.7086 63.8999 86.2045C63.2332 86.6057 63.311 86.2045 63.3497 85.4733Z" fill="#CCCCCC"/>
<path fill-rule="evenodd" clip-rule="evenodd" d="M78.1436 74.9005C78.648 74.2348 80.7494 73.4769 80.563 74.8962C80.3034 74.793 80.0564 75.5298 79.7263 74.8249C79.339 74.2249 78.7443 75.2752 78.1436 74.9005Z" fill="#CCCCCC"/>
<path fill-rule="evenodd" clip-rule="evenodd" d="M64.8306 86.3433C65.4498 86.0344 65.6952 86.6744 66.1061 85.5228C66.9171 85.671 66.592 84.7993 66.8937 84.8615C67.1069 85.3911 65.6012 88.3083 65.5469 86.69C65.4013 86.5264 64.8394 86.6815 64.8306 86.3433Z" fill="#CCCCCC"/>
<path fill-rule="evenodd" clip-rule="evenodd" d="M78.1164 74.7953C79.0263 74.6838 78.6109 75.65 78.717 76.2507C77.7064 76.4916 77.2991 75.6202 78.1164 74.7953Z" fill="#1EA7F2"/>
<path fill-rule="evenodd" clip-rule="evenodd" d="M76.7544 72.9692C76.4 73.1719 76.9108 73.6921 76.1642 73.6224C75.6038 73.5701 75.4494 73.2678 75.4861 72.9856C75.717 72.6153 76.4158 72.3208 76.7544 72.9692Z" fill="#CCCCCC"/>
<path fill-rule="evenodd" clip-rule="evenodd" d="M62.217 86.9422C62.7695 87.2092 63.8615 87.0009 63.0137 87.6232C63.1228 88.8831 61.9116 87.8825 62.217 86.9422Z" fill="#CCCCCC"/>
<path fill-rule="evenodd" clip-rule="evenodd" d="M63.7885 83.8809C63.7856 84.118 63.5144 84.6653 63.075 85.3214C62.3638 84.3043 62.4411 83.276 63.7885 83.8809Z" fill="#093DB9"/>
<path fill-rule="evenodd" clip-rule="evenodd" d="M63.5469 88.7944C64.1855 88.8698 65.8531 88.8428 64.879 89.7206C64.513 89.1519 63.037 89.7741 63.5469 88.7944Z" fill="#1EA7F2"/>
<path fill-rule="evenodd" clip-rule="evenodd" d="M62.1518 87.0113C62.1752 87.4835 62.2688 89.0905 61.4902 88.1649C61.1912 87.4216 61.3912 86.715 62.1518 87.0113Z" fill="#1EA7F2"/>
<path fill-rule="evenodd" clip-rule="evenodd" d="M66.6372 90.2994C66.421 89.7513 65.9219 89.3746 66.4635 88.9102C67.2985 89.3421 67.3799 89.6098 66.6372 90.2994Z" fill="#CCCCCC"/>
<path fill-rule="evenodd" clip-rule="evenodd" d="M76.3398 78.9246C76.6787 78.2884 75.5684 78.9926 76.0827 77.9802C77.0019 77.566 77.7008 79.1902 76.3398 78.9246Z" fill="#CCCCCC"/>
<path fill-rule="evenodd" clip-rule="evenodd" d="M78.5896 73.6288C77.7877 73.4477 77.7673 73.413 78.1671 72.9129C78.7328 72.5682 79.3732 73.2491 78.5896 73.6288Z" fill="#CCCCCC"/>
<path fill-rule="evenodd" clip-rule="evenodd" d="M59.9681 94.9302C59.5672 94.4227 59.2634 94.225 59.1577 93.6567C59.9875 93.6699 59.846 94.2059 59.9681 94.9302Z" fill="#CCCCCC"/>
<path fill-rule="evenodd" clip-rule="evenodd" d="M76.4072 78.9627C76.7678 78.9799 77.1492 79.0314 77.1721 78.4911C78.5753 79.5026 76.6563 79.7246 76.4072 78.9627Z" fill="#CCCCCC"/>
<path fill-rule="evenodd" clip-rule="evenodd" d="M72.0081 77.3863C71.8116 78.2082 71.6074 77.6029 71.3135 77.2278C71.5231 76.813 71.8238 76.9755 72.0081 77.3863Z" fill="#1EA7F2"/>
<path fill-rule="evenodd" clip-rule="evenodd" d="M66.7919 82.2911C66.2208 81.3787 68.0875 82.025 67.8124 82.8902C67.4913 82.728 66.6909 83.0027 66.8715 82.3364C66.8728 82.2701 66.8503 82.2645 66.7919 82.2911Z" fill="#093DB9"/>
<path fill-rule="evenodd" clip-rule="evenodd" d="M61.9612 93.0779C62.132 93.2416 62.776 93.3727 62.3978 93.5385C62.0258 94.5186 61.8708 93.7487 61.9612 93.0779Z" fill="#1EA7F2"/>
<path fill-rule="evenodd" clip-rule="evenodd" d="M77.9121 76.3097C78.5468 76.2419 79.0043 76.3715 79.6486 76.5591C78.9246 76.6114 78.4173 76.8006 77.9121 76.3097Z" fill="#CCCCCC"/>
<path fill-rule="evenodd" clip-rule="evenodd" d="M60.715 90.6638C61.0874 90.653 61.4557 90.5703 61.7046 90.8994C60.9253 90.557 60.2119 92.222 60.715 90.6638Z" fill="#CCCCCC"/>
<path fill-rule="evenodd" clip-rule="evenodd" d="M68.1877 86.4791C67.9791 86.6423 67.7587 87.2305 67.6089 86.7687C67.7968 86.6703 68.016 86.5811 68.1877 86.4791Z" fill="#CCCCCC"/>
<path fill-rule="evenodd" clip-rule="evenodd" d="M64.0202 90.7366C63.2835 91.2447 63.5726 90.2454 63.8852 89.9521C63.9301 90.2137 63.9751 90.4751 64.0202 90.7366Z" fill="#1EA7F2"/>
<path fill-rule="evenodd" clip-rule="evenodd" d="M63.4411 88.2161C63.4401 88.5421 63.3056 88.836 63.2166 89.1418C63.1834 88.6887 62.8517 88.1986 63.4411 88.2161Z" fill="#1EA7F2"/>
<path fill-rule="evenodd" clip-rule="evenodd" d="M62.8623 93.5275C63.0114 93.3776 63.1602 93.2277 63.3092 93.0779C63.3906 93.5384 63.1533 93.5692 62.8623 93.5275Z" fill="#1EA7F2"/>
<path fill-rule="evenodd" clip-rule="evenodd" d="M65.0966 107.665C65.0077 107.549 64.9188 107.433 64.8306 107.317C65.2288 107.358 65.4952 107.317 65.0966 107.665Z" fill="#CCCCCC"/>
<path fill-rule="evenodd" clip-rule="evenodd" d="M64.8314 86.4793C65.2644 86.4736 64.9986 86.5983 64.7511 86.7106C64.4897 86.6359 64.5963 86.5354 64.8314 86.4793Z" fill="#CCCCCC"/>
<path fill-rule="evenodd" clip-rule="evenodd" d="M68.1875 86.4791C68.27 86.4428 68.3506 86.2889 68.419 86.4074C68.3445 86.4333 68.2486 86.4497 68.1875 86.4791Z" fill="#CCCCCC"/>
<path fill-rule="evenodd" clip-rule="evenodd" d="M66.694 86.016C66.8924 86.0448 66.7611 86.2505 66.6826 86.0333C66.6827 86.0332 66.694 86.016 66.694 86.016Z" fill="#CCCCCC"/>
<path fill-rule="evenodd" clip-rule="evenodd" d="M67.7247 82.4272C67.6475 82.4086 67.5703 82.3898 67.4932 82.3712C67.6066 82.2541 67.6487 82.3286 67.7247 82.4272Z" fill="#1EA7F2"/>
<path fill-rule="evenodd" clip-rule="evenodd" d="M65.1516 108.112C65.0832 108.102 65.0146 108.093 64.9463 108.083C65.0293 108.042 65.254 107.97 65.1516 108.112Z" fill="#CCCCCC"/>
<path fill-rule="evenodd" clip-rule="evenodd" d="M78.4316 76.6988C78.4316 76.6988 78.4352 76.6942 78.4351 76.6944C78.4351 76.6946 78.4316 76.6988 78.4316 76.6988Z" fill="#CCCCCC"/>
<path fill-rule="evenodd" clip-rule="evenodd" d="M63.3252 93.0779C63.4024 93.0007 63.4798 92.9234 63.5567 92.8463C63.4796 92.9237 63.4024 93.0008 63.3252 93.0779Z" fill="#1EA7F2"/>
<path fill-rule="evenodd" clip-rule="evenodd" d="M49.0256 20.2595C48.5063 19.6126 48.1671 19.3566 49.0577 18.986C49.5642 19.2605 49.2041 19.7327 49.0256 20.2595Z" fill="#1EA7F2"/>
<path fill-rule="evenodd" clip-rule="evenodd" d="M49.0255 26.1637C49.1128 26.6293 49.3085 27.084 49.1264 27.5529C48.217 27.3984 48.4189 26.4849 49.0255 26.1637Z" fill="#1EA7F2"/>
<path fill-rule="evenodd" clip-rule="evenodd" d="M48.9718 26.2629C49.0099 26.2353 49.048 26.2078 49.086 26.1802C49.0509 26.2122 48.9569 26.2107 48.9718 26.2629Z" fill="#1EA7F2"/>
<path fill-rule="evenodd" clip-rule="evenodd" d="M67.146 81.8405C66.5793 82.0579 66.2614 82.0212 65.9883 81.4645C66.4959 81.2398 66.8233 81.5335 67.146 81.8405Z" fill="#CCCCCC"/>
<path fill-rule="evenodd" clip-rule="evenodd" d="M66.809 82.7745C68.3856 82.8487 67.6451 83.8275 66.6826 83.9322C66.7251 83.547 66.767 83.1608 66.809 82.7745Z" fill="#1EA7F2"/>
<path fill-rule="evenodd" clip-rule="evenodd" d="M63.7105 83.8164C63.3887 83.8041 63.0669 83.7918 62.7466 83.779C63.1292 83.6866 63.3342 82.756 63.9043 83.5666C63.8397 83.6498 63.7752 83.7331 63.7105 83.8164Z" fill="#1EA7F2"/>
<path fill-rule="evenodd" clip-rule="evenodd" d="M66.698 82.3422C66.7623 82.3132 66.7835 82.3189 66.7837 82.3918C66.7132 82.4243 66.6955 82.4267 66.698 82.3422Z" fill="#CCCCCC"/>
<path fill-rule="evenodd" clip-rule="evenodd" d="M22.8064 75.8566C21.9469 77.6517 22.1964 81.074 19.7964 81.501C20.1518 79.5249 21.5148 77.7711 21.4607 75.6162C21.2527 74.3649 22.715 74.5968 22.8064 75.8566Z" fill="#093DB9"/>
<path fill-rule="evenodd" clip-rule="evenodd" d="M13.979 78.4911C14.8476 78.5047 15.4408 80.5942 14.3175 80.1933C13.5091 79.4519 13.5375 80.5717 12.9966 80.9222C11.901 77.6213 13.4868 79.8422 13.979 78.4911Z" fill="#1EA7F2"/>
<path fill-rule="evenodd" clip-rule="evenodd" d="M13.9717 78.491C13.3019 78.4227 13.4894 77.7651 14.059 77.6807C14.1839 77.9708 14.1136 78.2898 13.9717 78.491Z" fill="#CCCCCC"/>
<path fill-rule="evenodd" clip-rule="evenodd" d="M17.5921 77.6369C17.3895 77.8769 17.0604 77.9659 16.8081 78.1437C16.6248 77.8579 17.6767 77.0994 17.5921 77.6369Z" fill="#CCCCCC"/>
<path fill-rule="evenodd" clip-rule="evenodd" d="M61.509 28.3574C61.6082 28.3194 61.7766 28.2258 61.7963 28.2521C62.3112 29.0175 63.5289 28.3935 63.1057 29.5116C63.8625 31.2101 60.1894 30.459 61.746 29.9527C62.1918 29.9222 62.1341 29.5708 62.0303 29.2355C61.084 29.4374 61.7846 28.5849 61.509 28.3574Z" fill="#1EA7F2"/>
<path fill-rule="evenodd" clip-rule="evenodd" d="M61.5632 30.5951C63.0632 30.408 62.0371 31.0749 62.7466 31.5785C62.594 32.0539 61.0955 31.2366 61.5632 30.5951Z" fill="#CCCCCC"/>
<path fill-rule="evenodd" clip-rule="evenodd" d="M64.6182 28.5524C64.937 28.3215 65.902 28.1843 65.7377 28.8615C65.5475 29.225 64.0282 29.4313 64.6182 28.5524Z" fill="#1EA7F2"/>
<path fill-rule="evenodd" clip-rule="evenodd" d="M62.0052 92.0648C60.6468 91.5096 62.2303 90.8644 62.9781 91.469C62.6786 92.0085 62.5675 92.847 62.0052 92.0648Z" fill="#CCCCCC"/>
<path fill-rule="evenodd" clip-rule="evenodd" d="M66.6216 84.7426C66.9286 85.5413 66.0007 85.5517 65.5249 85.2684C65.7806 84.9005 66.2167 84.8609 66.6216 84.7426Z" fill="#093DB9"/>
</svg>
