<svg width="47" height="96" viewBox="0 0 47 96" fill="none" xmlns="http://www.w3.org/2000/svg">
<path d="M35.8364 29.8005C35.8593 29.6844 35.9416 29.5888 36.0529 29.5486C36.8929 29.2462 37.7521 29.0004 38.6202 28.8141C38.6616 28.8047 38.7041 28.7946 38.7596 28.7816C39.4747 28.6125 39.7215 28.57 40.085 28.5926C40.5983 28.6245 41.0292 28.8443 41.3925 29.2932C41.9137 29.9386 42.2591 30.7966 42.4348 31.7572C42.5358 32.324 42.427 33.1328 42.1403 33.5915C41.8197 34.1118 41.2982 34.5735 40.5452 35.0769C40.4107 35.1668 40.2704 35.2571 40.1082 35.3586C40.0448 35.3986 39.9799 35.4388 39.8994 35.4886C39.8709 35.5063 39.737 35.5889 39.7009 35.6113C39.4 35.7972 39.1465 35.9663 38.648 36.3075C38.5935 36.345 38.5935 36.345 38.5389 36.3824C37.7823 36.9003 37.3833 37.1567 36.887 37.4235C36.0947 37.8281 35.345 38.3111 34.6493 38.8654C34.4036 39.0611 34.0476 38.8443 34.1084 38.5363L35.8364 29.8005Z" fill="#494949"/>
<path d="M38.0083 49.7668C40.2247 49.3819 44.3561 48.11 45.1506 47.2868C45.9272 46.4923 46.2155 45.4041 46.204 43.9263C46.2007 43.5033 46.1784 43.1251 46.1257 42.461L46.109 42.2501C45.9815 40.8531 45.717 39.476 45.3188 38.1349C44.8569 36.5128 44.1378 36.1428 42.1521 36.2505C40.0972 36.3859 38.0589 36.6699 36.0493 37.1003C35.8748 37.1378 35.7597 37.3045 35.7866 37.4808L37.6174 49.4854C37.6459 49.6722 37.8222 49.7991 38.0083 49.7668Z" fill="#494949"/>
<path d="M45.3241 41.7504C44.8133 41.818 44.2221 41.8891 43.5157 41.969C42.9919 42.0283 42.4597 42.0865 41.6462 42.174C39.3747 42.4181 38.9174 42.4685 38.0697 42.5727C37.885 42.5955 37.7535 42.7637 37.7762 42.9485C37.799 43.1332 37.9672 43.2647 38.152 43.242C38.9946 43.1384 39.4514 43.0882 41.7183 42.8444C42.5331 42.7568 43.0663 42.6986 43.5916 42.6391C44.3018 42.5587 44.8969 42.4871 45.4124 42.4189C45.597 42.3945 45.7268 42.2251 45.7025 42.0405C45.6781 41.8559 45.5087 41.7261 45.3241 41.7504Z" fill="#062265"/>
<path d="M33.3684 45.6427C32.125 44.0931 30.8819 42.958 29.5823 42.2859C27.7599 41.3412 25.665 40.7326 23.7368 40.6625C21.4365 40.5787 19.4715 41.249 18.0689 42.7625C17.7623 43.0941 17.5177 43.511 17.2869 44.071L16.3105 40.8948C16.2397 40.6645 15.9571 40.5807 15.772 40.7351C15.1264 41.2741 14.1928 42.5841 13.0329 44.479C12.2526 45.7541 11.509 47.0604 10.7581 48.4297C10.5658 48.7813 10.368 49.1746 10.1644 49.6089C9.66334 50.6775 9.13703 51.9695 8.55678 53.524C8.28149 54.262 8.00434 55.0303 7.67713 55.9566C7.54176 56.3396 7.03484 57.7855 6.91936 58.1121C5.29829 62.6932 4.32406 67.7141 3.24313 75.6879C3.03105 77.2545 2.85877 79.5806 2.7212 82.4687C2.62848 84.415 2.55701 90.7142 2.50424 92.7987C2.4857 93.5283 2.47086 94.2056 2.4594 94.8137C2.45535 95.0266 2.45198 95.2156 2.44928 95.3784C2.44827 95.4356 2.44777 95.4688 2.44692 95.5275C2.44625 95.57 2.44625 95.5699 2.44608 95.5789C2.44338 95.7667 2.59494 95.9206 2.7829 95.9208L29.5754 95.9494C29.7617 95.9496 29.9129 95.7985 29.9129 95.6123C29.9129 88.4376 30.2945 74.8846 30.9709 71.7155C31.5135 69.1792 32.5051 66.0675 33.6243 63.2794C34.1496 61.9678 34.7751 60.5487 35.6176 58.726C35.8705 58.6869 36.1217 58.6374 36.3707 58.5777C37.5711 58.2815 37.9241 58.1888 38.5418 57.9888C40.9358 57.214 42.373 56.1139 42.6289 54.331C42.8373 52.8815 42.1734 50.9267 41.141 49.9366C40.4009 49.2272 39.3728 49.0419 38.0069 49.2036C37.5996 49.2518 37.2028 49.3228 36.6283 49.4423C36.5416 49.4604 36.2542 49.5209 36.2136 49.5293C36.1559 49.5413 36.1035 49.5522 36.0548 49.5622C35.0062 47.8646 34.2552 46.7481 33.3684 45.6427Z" fill="#494949"/>
<path d="M33.7804 52.4964C31.7226 52.7111 30.5351 54.3937 31.1335 56.3041C31.1384 56.3196 31.3537 57.0634 31.4356 57.3108C31.6585 57.9843 31.893 58.4456 32.2185 58.7212C33.1133 59.4801 33.9884 59.626 35.2144 59.324C35.3952 59.2795 35.5057 59.0968 35.4612 58.9161C35.4167 58.7352 35.2339 58.6248 35.0532 58.6693C34.0237 58.9228 33.3703 58.8139 32.6546 58.2069C32.4523 58.0356 32.2617 57.6605 32.0757 57.0989C31.9987 56.8661 31.7859 56.1308 31.7773 56.1033C31.3094 54.6094 32.206 53.3388 33.8505 53.167C34.0356 53.1478 34.1702 52.9819 34.1508 52.7966C34.1314 52.6115 33.9657 52.477 33.7804 52.4964Z" fill="#062265"/>
<path d="M32.1182 53.4805L32.1172 53.4806C30.3766 53.7859 25.2956 54.0418 23.0343 53.9914C22.8032 53.9864 22.5698 53.9838 22.2367 53.9818C22.1799 53.9815 22.1346 53.9812 22.0321 53.9806C19.8189 53.9687 18.8806 53.8899 17.8498 53.5047C16.4521 52.9827 15.5513 51.9423 15.1619 50.2221C14.745 48.3792 14.4471 46.3939 14.1784 43.8817C14.0781 42.9447 14.026 42.401 13.8443 40.4484C13.8072 40.049 13.7809 39.7676 13.7543 39.4883C13.5172 36.9881 13.3033 34.2276 12.9967 29.8892C13.0257 30.3002 12.7074 25.766 12.6223 24.5858C12.5039 22.9423 12.4024 21.5987 12.304 20.3883C12.0594 17.3392 12.0231 14.2898 12.4307 13.0672C12.9269 11.5408 14.261 10.4391 15.8453 10.2418C19.8727 9.63773 24.934 9.18091 27.6188 9.23681C27.859 9.24183 28.0715 9.24399 28.5325 9.24706C29.8921 9.25611 30.5255 9.27235 31.3261 9.33794C33.8619 9.54572 35.6326 10.1961 36.6507 11.5942C37.2057 12.3578 37.5339 13.4607 37.739 14.9472C37.7905 15.3194 37.8333 15.7084 37.8749 16.1595C37.8908 16.3324 37.9059 16.5064 37.9246 16.7318C37.9213 16.6903 37.9592 17.149 37.9691 17.2659C37.9816 17.412 37.9926 17.5337 38.0034 17.6467C38.0115 17.7365 38.0115 17.7365 38.0197 17.8262C38.3584 21.5276 38.3683 21.6343 38.5083 23.017C38.6037 23.9588 38.6978 24.8301 38.7947 25.6624C39.676 33.1183 40.2044 39.4075 40.4018 45.5076C40.4918 48.2605 40.0811 50.1326 38.6536 51.3584C37.9762 51.9368 36.8732 52.4007 35.4263 52.7911C34.8305 52.952 34.2015 53.0934 33.5191 53.2264C33.2624 53.2763 33.0099 53.323 32.7243 53.3738C32.6071 53.3945 32.201 53.4656 32.1182 53.4805Z" fill="#0A4C78"/>
<path d="M31.3695 52.0731C29.3708 52.2949 27.3603 52.3929 25.3495 52.3664C22.4145 52.3023 19.9448 52.6934 19.1474 49.1718C18.4377 46.0362 18.1764 41.9751 17.8712 38.762C17.3756 33.536 16.9778 26.287 16.5513 21.034C16.4366 19.618 16.1045 14.7511 16.6524 13.4749C17.2003 12.1987 18.5439 11.8026 19.5098 11.6205C21.8312 11.1721 24.66 10.8231 27.3151 10.8788C29.7309 10.9293 33.6824 10.6782 35.294 12.9017C36.2414 14.2065 36.3207 17.3927 36.4741 18.9352C36.7033 21.3341 36.9174 23.8072 37.2057 26.2415C37.9138 32.2328 38.4701 39.0536 38.6673 45.1225C38.7229 46.8083 38.6167 48.9762 37.1821 50.2069C35.8419 51.3515 32.5276 51.9314 31.3695 52.0731Z" fill="white"/>
<path d="M15.354 11.2609C14.5283 11.8131 14.263 13.2202 14.3006 15.4416C14.31 16.0054 14.337 16.5623 14.3864 17.3365C14.3933 17.4462 14.4229 17.9022 14.4302 18.0157C14.4455 18.2578 14.4558 18.4373 14.4629 18.5948C14.5293 20.0351 14.63 21.7059 14.7835 24.0107C14.8051 24.3353 14.828 24.6748 14.8542 25.061C14.8714 25.3154 14.974 26.8277 15.0027 27.2525C15.058 28.0708 15.1003 28.7124 15.1376 29.2989C15.4845 34.8169 16.009 40.7034 16.7116 47.2253C16.9043 49.0274 17.3069 50.7154 17.9154 51.8954C18.0009 52.0608 18.2042 52.1259 18.3698 52.0404C18.5351 51.9551 18.6002 51.7518 18.5147 51.5863C17.9518 50.4947 17.5666 48.88 17.3822 47.1533C16.6804 40.6403 16.1568 34.7636 15.8105 29.2563C15.7731 28.6686 15.7308 28.0263 15.6755 27.2072C15.6468 26.782 15.5442 25.2697 15.527 25.0155C15.5008 24.6294 15.4779 24.2901 15.4563 23.9659C15.3031 21.6653 15.2028 19.9984 15.1365 18.5639C15.1291 18.4019 15.1187 18.2188 15.1032 17.9732C15.0959 17.8589 15.0662 17.4026 15.0593 17.2936C15.0106 16.5291 14.984 15.9811 14.9747 15.4303C14.9415 13.4559 15.1804 12.1882 15.7289 11.8214C15.8837 11.7179 15.9252 11.5085 15.8217 11.3537C15.7182 11.199 15.5088 11.1574 15.354 11.2609Z" fill="#1A8CE7"/>
<path d="M11.0457 59.1413C10.7903 59.1354 10.6342 58.8586 10.761 58.637C11.1985 57.8721 11.6963 57.0627 12.3131 56.103C12.5665 55.7089 12.8293 55.3056 13.1788 54.7731C13.2904 54.6032 13.6995 53.9806 13.667 54.0302C13.8625 53.7326 14.0082 53.5103 14.1496 53.2938C14.5106 52.7409 14.8054 52.2825 15.077 51.8499C17.1902 48.4839 19.3901 45.7989 21.7619 43.9496C23.1203 42.8905 24.7313 43.1633 25.7508 44.6055C26.2851 45.3597 26.3098 46.2146 25.955 47.2322C25.8156 47.6322 25.6441 48.0037 25.3402 48.6004C24.9477 49.3703 24.9489 49.3681 24.837 49.6226C24.4305 50.5476 24.1694 52.1405 24.1117 53.6249C24.0876 54.2591 24.1615 54.982 24.3225 55.8048C24.4474 56.4432 24.6159 57.1067 24.8526 57.9289C24.902 58.1009 24.9533 58.2757 25.018 58.4945C25.035 58.552 25.146 58.9257 25.177 59.0309C25.2417 59.2501 25.0743 59.4687 24.8457 59.4633L11.0457 59.1413Z" fill="#494949"/>
<path d="M13.9069 22.9026C13.8425 21.9585 13.7941 21.022 13.7626 20.1019C13.7562 19.9158 13.6001 19.7702 13.4139 19.7766C13.228 19.783 13.0822 19.9391 13.0886 20.1252C13.1204 21.0529 13.1693 21.9969 13.2342 22.9484C13.2469 23.1342 13.4077 23.2746 13.5935 23.2618C13.7793 23.2492 13.9197 23.0883 13.9069 22.9026Z" fill="#1A8CE7"/>
<path d="M14.2487 27.5456C14.165 26.6434 14.1001 25.6855 14.0508 24.6592C14.0418 24.4732 13.8837 24.3296 13.6977 24.3385C13.5118 24.3475 13.3682 24.5056 13.3771 24.6915C13.427 25.7273 13.4927 26.6949 13.5772 27.6076C13.5942 27.7931 13.7584 27.9295 13.9439 27.9123C14.1293 27.8952 14.2657 27.731 14.2487 27.5456Z" fill="#1A8CE7"/>
<path d="M24.0377 54.3236C24.1479 55.4794 24.4207 56.3863 24.9667 57.6969C24.9969 57.769 25.0274 57.8417 25.0687 57.9398C25.094 57.9998 25.094 57.9998 25.1191 58.0593C25.1441 58.1188 25.1542 58.1429 25.1689 58.1778C25.2483 58.3668 25.3059 58.5061 25.3602 58.6416C25.4293 58.8144 25.6255 58.8983 25.7985 58.8292C25.9713 58.7599 26.0552 58.5637 25.9861 58.3907C25.9302 58.2512 25.8713 58.1089 25.7906 57.9165C25.7757 57.8815 25.7656 57.8572 25.7405 57.7975C25.7154 57.7378 25.7154 57.7378 25.6901 57.678C25.6491 57.5807 25.619 57.5087 25.5893 57.4376C25.0669 56.1839 24.8116 55.3349 24.709 54.2595C24.6913 54.0741 24.5267 53.9382 24.3413 53.9559C24.156 53.9736 24.02 54.1381 24.0377 54.3236Z" fill="#062265"/>
<path d="M11.0581 58.1407C11.4864 57.3919 11.9755 56.5967 12.5824 55.6526C12.8351 55.2595 13.0974 54.8569 13.447 54.3246C13.5588 54.1545 13.9667 53.5339 13.9372 53.5789C14.1336 53.28 14.2805 53.0562 14.4228 52.838C14.7871 52.2802 15.0851 51.8169 15.3599 51.3789C15.4589 51.2213 15.4113 51.0131 15.2535 50.9142C15.0959 50.8152 14.8877 50.8628 14.7887 51.0205C14.5163 51.4545 14.2205 51.9147 13.8582 52.4695C13.7162 52.6868 13.5699 52.9102 13.3737 53.2085C13.4034 53.1634 12.9952 53.7841 12.8833 53.9545C12.5326 54.4884 12.2691 54.8928 12.0151 55.288C11.4025 56.241 10.9077 57.0456 10.4728 57.8059C10.3804 57.9676 10.4363 58.1736 10.598 58.266C10.7597 58.3585 10.9657 58.3024 11.0581 58.1407Z" fill="#062265"/>
<path d="M25.0616 67.9936C25.407 68.0728 25.7452 68.1801 26.0731 68.3143C26.2454 68.3847 26.4423 68.3023 26.5128 68.13C26.5834 67.9577 26.5008 67.7608 26.3285 67.6902C25.9667 67.542 25.5935 67.4238 25.2123 67.3365C25.0308 67.2948 24.8501 67.4083 24.8084 67.5897C24.7668 67.7713 24.8802 67.9521 25.0616 67.9936Z" fill="#062265"/>
<path d="M31.4049 74.5195C31.2514 77.3854 30.9885 82.1461 30.9885 85.983H2.03647C1.7718 84.0426 2.03647 81.7854 2.16459 80.2327C2.36824 77.8375 2.70944 75.4562 3.18619 73.1001C4.02909 73.6193 4.89559 73.943 5.8211 74.3408C8.80666 75.6254 11.9675 76.2643 15.206 76.6706C19.6514 77.2269 24.5605 77.4748 28.8778 76.1211C29.6331 75.8817 31.1048 75.1736 31.4049 74.5195Z" fill="white"/>
<path fill-rule="evenodd" clip-rule="evenodd" d="M31.7413 74.5375C31.7612 74.166 31.2533 74.0407 31.0982 74.3789C30.8956 74.8204 29.7167 75.5013 28.7757 75.7995C25.0664 76.9626 20.8076 77.0318 15.2476 76.3359C11.5478 75.8718 8.62493 75.1802 5.95411 74.0311C5.83965 73.9819 5.72282 73.9323 5.57295 73.8693C5.56537 73.8661 5.53958 73.8553 5.50451 73.8406C5.41247 73.802 5.25704 73.7368 5.2009 73.713C4.35176 73.3553 3.86861 73.1245 3.36287 72.813C3.1631 72.6899 2.90197 72.8033 2.85544 73.0331C2.37617 75.4018 2.03328 77.796 1.82845 80.204C1.81092 80.4171 1.73725 81.2501 1.73826 81.2388C1.63475 82.4311 1.58553 83.2612 1.58569 84.1161C1.58586 84.8098 1.62261 85.4447 1.70218 86.0285C1.72494 86.1955 1.86773 86.3201 2.03631 86.3201H30.9883C31.1744 86.3201 31.3255 86.1691 31.3255 85.983C31.3255 84.8044 31.3502 83.4824 31.3969 82.0225C31.4418 80.6191 31.5048 79.1391 31.5871 77.485C31.6304 76.6134 31.6429 76.3774 31.7413 74.5375ZM15.1638 77.005C20.8116 77.7119 25.1558 77.6413 28.9785 76.4427C29.6816 76.2198 30.4613 75.8373 31.019 75.4162C30.9633 76.4595 30.9485 76.7498 30.9136 77.4514C30.8312 79.1093 30.768 80.5929 30.7229 82.0011C30.6805 83.3302 30.656 84.5463 30.6518 85.6458H2.33486C2.28412 85.1746 2.26018 84.6657 2.26002 84.1159C2.25985 83.2852 2.30806 82.4714 2.41005 81.2971C2.40887 81.3102 2.48271 80.4749 2.50041 80.2603C2.68973 78.0352 2.99823 75.8214 3.42474 73.6289C3.83557 73.8536 4.28466 74.0588 4.93909 74.3344C4.99591 74.3583 5.15269 74.4242 5.24439 74.4627C5.27895 74.4772 5.30424 74.4878 5.31165 74.491C5.46001 74.5534 5.57515 74.6021 5.68776 74.6505C8.42483 75.8282 11.4062 76.5337 15.1638 77.005Z" fill="#CACACA"/>
<path d="M33.2474 82.0331C33.2467 81.9264 33.1956 81.8262 33.1096 81.7632C33.0235 81.7 32.9127 81.6812 32.8107 81.7128C31.7993 82.0246 30.4995 82.409 29.5133 82.6147C24.7931 83.6026 20.9056 83.9043 15.6341 83.6885C12.7025 83.5688 8.64981 83.1659 5.9323 82.8203C4.22121 82.6029 2.60115 82.2185 1.60147 81.7954C1.50083 81.7529 1.38586 81.7617 1.29297 81.819C1.20025 81.8758 1.14074 81.9736 1.13281 82.082C0.947377 84.6107 0.795654 86.9185 0.795654 89.5197C0.795654 92.1546 0.795654 96 0.795654 96H33.1631C33.0063 93.2083 33.1074 88.837 33.1884 85.9711C33.217 84.3932 33.2592 83.0277 33.2474 82.0331Z" fill="#1EA7F2"/>
<path d="M31.7627 78.0685C31.9718 78.3155 31.8656 79.1695 31.5796 79.847C31.5072 80.0186 31.5876 80.2164 31.7592 80.2887C31.9306 80.3612 32.1284 80.2808 32.2009 80.1093C32.581 79.2088 32.713 78.1474 32.2774 77.6329C32.157 77.4908 31.9443 77.4731 31.8022 77.5933C31.6601 77.7136 31.6424 77.9264 31.7627 78.0685Z" fill="#CACACA"/>
<path d="M30.8346 74.1144C30.9121 74.1389 31.0901 74.3668 31.0767 74.4796C31.0546 74.6645 31.1866 74.8322 31.3715 74.8543C31.5564 74.8764 31.7242 74.7444 31.7462 74.5595C31.8015 74.0969 31.4029 73.5868 31.0377 73.4714C30.86 73.4153 30.6707 73.5139 30.6146 73.6914C30.5586 73.869 30.6571 74.0584 30.8346 74.1144Z" fill="#CACACA"/>
<path d="M20.7089 27.9541C21.113 30.6591 22.8346 32.6101 25.5094 32.9483C29.3792 33.436 32.5348 32.2341 33.638 29.0908C34.5238 26.5651 34.13 23.5983 32.547 21.6065C31.7122 20.5605 30.1577 19.756 28.4716 19.5468C26.5147 19.3039 24.5595 19.8538 22.9241 21.2643C21.1872 22.7609 20.334 25.4449 20.7089 27.9541Z" fill="#9A9A9A"/>
<path fill-rule="evenodd" clip-rule="evenodd" d="M25.1811 29.2887L25.1494 29.328C25.0322 29.4726 24.8198 29.495 24.6752 29.3778C24.5304 29.2607 24.5081 29.0483 24.6253 28.9036L24.657 28.8645L24.7465 28.7538C24.8429 28.6346 24.9505 28.5017 25.0661 28.3584C25.3969 27.9495 25.7276 27.54 26.0363 27.1573L26.0442 27.1475C26.2981 26.8326 26.5235 26.5528 26.7155 26.3139C26.1772 25.8908 25.6147 25.4466 25.0542 25.0023C24.8217 24.8181 24.6061 24.647 24.4127 24.4934C24.3451 24.4396 24.2851 24.3917 24.2333 24.3506L24.1698 24.3002C24.0241 24.1842 24.0002 23.972 24.1162 23.8263C24.2322 23.6807 24.4442 23.6566 24.5899 23.7727L24.6531 23.823C24.7047 23.8641 24.7647 23.9116 24.8323 23.9654C25.0253 24.1188 25.2406 24.2898 25.4729 24.4738C26.0346 24.9189 26.5982 25.364 27.1371 25.7878C27.2022 25.7062 27.2578 25.6362 27.3032 25.5791C27.6393 25.1532 27.9888 24.7367 28.503 24.1412C28.565 24.0694 28.6282 23.9964 28.7132 23.8981C28.8181 23.7771 28.8737 23.713 28.9224 23.6567C29.0906 23.4624 29.2144 23.3187 29.3344 23.1783C29.4555 23.0369 29.6682 23.0202 29.8098 23.1412C29.9513 23.2623 29.9679 23.475 29.8469 23.6166C29.7259 23.7582 29.6013 23.9027 29.4322 24.0981C29.3833 24.1546 29.3277 24.2188 29.223 24.3397C29.138 24.4376 29.0751 24.5104 29.0134 24.5819C28.505 25.1706 28.1611 25.5806 27.8322 25.9971C27.787 26.0541 27.7321 26.1234 27.6677 26.2042C29.0507 27.2876 29.9949 28.0103 30.2771 28.1944C30.4332 28.2961 30.4772 28.5049 30.3756 28.6609C30.2739 28.817 30.0649 28.861 29.9089 28.7593C29.6016 28.5591 28.6576 27.8362 27.2459 26.7303C27.0527 26.9709 26.8254 27.2531 26.5692 27.5708L26.5611 27.5808C26.2523 27.9636 25.9215 28.3733 25.5906 28.7824C25.4748 28.9257 25.3672 29.0587 25.2706 29.1779L25.1811 29.2887Z" fill="white"/>
<path d="M37.3871 5.86117C37.3779 5.85039 37.3693 5.83904 37.3615 5.82717C36.9493 5.20521 36.8849 1.32085 37.2234 0.539043C37.5144 -0.133559 38.6645 -0.124978 39.2437 0.280491C39.633 0.553389 39.7014 1.48571 39.6117 2.96803C39.5423 4.11805 39.3744 5.28809 39.2206 5.61839C38.9258 6.26848 37.9584 6.4284 37.4758 5.95105C37.4443 5.92308 37.4148 5.89305 37.3871 5.86117Z" fill="#22B5F5"/>
<path d="M36.9295 8.13291C36.9102 8.65337 37.2624 9.2863 37.7316 9.48214C38.9067 9.97315 39.9497 8.52321 39.2458 7.51174C38.5841 6.56644 36.9755 6.95081 36.9295 8.13291Z" fill="#22B5F5"/>
<path d="M41.4976 8.28759C41.1314 7.52864 41.6534 3.11652 42.1515 2.29083C42.5654 1.60471 43.8382 1.78588 44.4258 2.32015C44.804 2.67471 44.7381 3.7485 44.4134 5.39318C44.158 6.68721 43.7874 7.98838 43.5644 8.33358C43.1362 9.00805 42.0436 9.0399 41.5885 8.43594C41.5527 8.38916 41.5219 8.33877 41.4976 8.28759Z" fill="#1A8CE7"/>
<path d="M43.2896 10.5442C42.7043 9.40525 40.8757 9.58972 40.6515 10.8818C40.5522 11.4503 40.8475 12.2045 41.332 12.4894C42.5487 13.2106 43.9144 11.7687 43.2901 10.5452L43.2896 10.5442Z" fill="#1A8CE7"/>
</svg>
