<svg
  width="121"
  height="120"
  viewBox="0 0 121 120"
  fill="none"
  xmlns="http://www.w3.org/2000/svg"
>
<path
    fill-rule="evenodd"
    clip-rule="evenodd"
    d="M72.6535 99.4174C72.724 99.2058 72.7954 98.9975 72.8626 98.7817C72.876 98.7397 72.8718 98.6936 72.8508 98.6541C72.8307 98.6146 72.7954 98.5852 72.7534 98.5718L70.7262 97.9369C70.6859 97.9243 70.6422 97.9269 70.6036 97.9445C70.5658 97.963 70.5356 97.994 70.5196 98.0335C70.4499 98.2342 70.3786 98.4223 70.3089 98.6138L68.0415 97.8362L68.1616 97.4784L68.2834 97.0972C68.3673 96.8452 68.4454 96.579 68.5261 96.3196C68.6067 96.0601 68.6848 95.793 68.762 95.526C68.8393 95.2589 68.9199 94.9953 68.9946 94.7257C69.2969 93.65 69.585 92.5642 69.8596 91.4666C70.413 89.2773 70.8967 87.0545 71.3443 84.8224L71.6567 83.2269C71.7608 82.6953 71.849 82.1587 71.9464 81.6246L79.1994 82.9178C79.0978 83.4763 79.0054 84.0356 78.8962 84.5923L78.5696 86.2643C77.8978 89.6233 77.1344 92.9664 76.2065 96.2902C76.1939 96.3338 76.1998 96.3809 76.2216 96.4212C76.2317 96.4413 76.2459 96.459 76.2636 96.4732C76.2804 96.4875 76.3005 96.4984 76.3224 96.5051H76.3366C77.0655 96.7268 77.7357 97.1098 78.2958 97.6271C78.7921 98.0914 79.1372 98.6936 79.2859 99.357C79.3573 99.7038 79.3808 100.059 79.3556 100.413C79.3405 100.608 79.3136 100.803 79.2766 100.995C79.2666 101.046 79.2556 101.095 79.2456 101.146C79.2355 101.196 79.2195 101.252 79.2061 101.306C79.1775 101.414 79.1465 101.523 79.112 101.634L72.6535 99.4174Z"
    fill="white"
  />
<path
    fill-rule="evenodd"
    clip-rule="evenodd"
    d="M79.3941 82.7776C79.2875 83.3654 79.1884 83.9533 79.0767 84.5411L78.7332 86.2987C78.0614 89.6578 77.2964 93.0084 76.3668 96.3363H76.3811C77.136 96.5631 77.8305 96.9586 78.4108 97.4927C78.8886 97.9428 79.2337 98.5155 79.4092 99.1479C79.5092 99.5375 79.5486 99.9406 79.5268 100.342C79.5125 100.581 79.4815 100.819 79.4344 101.054C79.4118 101.176 79.3773 101.312 79.3387 101.451C79.3194 101.52 79.2992 101.591 79.2774 101.661L79.2598 101.717L79.2371 101.786C79.2211 101.833 79.2043 101.88 79.1884 101.927L75.103 100.467L72.4418 99.5157C72.5257 99.2587 72.619 98.9933 72.7021 98.7288L70.6774 98.0881C70.6338 98.2124 70.5935 98.34 70.5456 98.4542C70.4977 98.5684 70.4557 98.6994 70.4188 98.7901L67.8491 97.8714L67.9566 97.554C67.9961 97.4381 68.0406 97.3021 68.0792 97.1778L68.2027 96.7923L68.3244 96.3968C68.4924 95.8728 68.6418 95.327 68.7997 94.7912C68.9576 94.2554 69.1054 93.7037 69.249 93.1537C69.3926 92.6036 69.5412 92.0553 69.6764 91.5002C70.2374 89.2883 70.7253 87.0411 71.1788 84.7821L71.5063 83.1076C71.6121 82.5484 71.707 81.9857 71.8086 81.4281L79.3941 82.7776ZM79.0028 83.0564L72.0815 81.8152L71.9463 82.5769C71.9018 82.8288 71.8556 83.0858 71.8044 83.3377L71.5079 84.8552C71.4534 85.1314 71.4021 85.4094 71.34 85.684L71.1645 86.5095C71.0461 87.0587 70.9352 87.6113 70.8101 88.1579L70.4339 89.798C70.3063 90.3438 70.1685 90.8897 70.0367 91.4296C69.7671 92.5138 69.4825 93.5895 69.1827 94.656C69.1104 94.9239 69.0307 95.185 68.9542 95.4496C68.8778 95.7141 68.8022 95.9803 68.7216 96.2373C68.5638 96.7546 68.4008 97.2802 68.2413 97.7539L70.2004 98.4181L70.2844 98.2031L70.3625 97.9806C70.3936 97.9017 70.4532 97.837 70.5305 97.8009C70.6077 97.7656 70.6951 97.7606 70.7757 97.7875L72.8037 98.4156C72.8877 98.4425 72.9582 98.5021 72.9985 98.581C73.0397 98.6591 73.0472 98.7507 73.0212 98.8355C72.9708 98.9959 72.9187 99.1554 72.865 99.3141L75.2256 100.111L79.0045 101.387C79.0322 101.288 79.0574 101.188 79.0801 101.092C79.1027 100.995 79.117 100.909 79.1313 100.819C79.1598 100.644 79.1783 100.468 79.1875 100.292C79.1993 99.97 79.1699 99.6484 79.0977 99.3351C78.949 98.7313 78.6274 98.183 78.174 97.7572C77.6348 97.2567 76.9891 96.8856 76.2853 96.6706H76.2761H76.2719C76.1863 96.6462 76.114 96.5891 76.0704 96.511C76.0267 96.4312 76.0149 96.3372 76.0393 96.249C76.963 92.9311 77.728 89.5914 78.3999 86.2357L78.7097 84.6503C78.7626 84.3857 78.8113 84.1212 78.8575 83.8559L78.9986 83.0614L79.0028 83.0564Z"
    fill="black"
  />
<path
    d="M68.3202 96.9704L68.2178 97.2903L79.2052 100.814L79.3076 100.494L68.3202 96.9704Z"
    fill="black"
  />
<path
    d="M70.7112 97.9143L70.3921 97.8093C70.4786 97.538 70.5054 97.2517 70.471 96.9695C70.4374 96.6924 70.3484 96.4245 70.2098 96.1827C69.9159 95.6738 69.433 95.3009 68.8662 95.1447L68.9586 94.8214C69.6094 95.002 70.1628 95.4311 70.4995 96.0164C70.6616 96.2977 70.7649 96.6084 70.8027 96.9309C70.843 97.2618 70.8119 97.5968 70.7112 97.9143Z"
    fill="black"
  />
<path
    d="M76.0905 99.6887C75.8386 99.6887 75.5883 99.6492 75.3481 99.5728L75.4514 99.2528C75.7328 99.3419 76.0292 99.3712 76.3231 99.3402C76.6162 99.3091 76.9 99.2176 77.1561 99.0715C77.4173 98.9237 77.6474 98.7272 77.833 98.492C78.0278 98.246 78.1739 97.9638 78.2621 97.6623L78.5846 97.7564C78.4855 98.1007 78.3201 98.4223 78.0984 98.7036C77.8859 98.9732 77.6222 99.1991 77.3232 99.3679C76.947 99.5795 76.5221 99.6895 76.0905 99.6887Z"
    fill="black"
  />
<path
    fill-rule="evenodd"
    clip-rule="evenodd"
    d="M76.8345 93.4929C76.6128 93.4283 76.3819 93.409 76.1526 93.4342C75.7924 93.4803 75.3969 93.6743 75.244 94.2739C75.1189 94.7727 74.6881 94.5787 73.7392 94.326L69.4976 93.1957"
    fill="white"
  />
<path
    d="M74.8678 94.7534C74.6561 94.7534 74.3857 94.6787 74.0221 94.5779C73.9214 94.5502 73.8139 94.52 73.698 94.4939L69.4572 93.3628C69.4345 93.3586 69.4127 93.3502 69.3934 93.3376C69.3741 93.3241 69.3573 93.3073 69.3447 93.288C69.3321 93.2687 69.3245 93.2469 69.3203 93.2242C69.317 93.2007 69.3178 93.178 69.3237 93.1553C69.3296 93.1327 69.3396 93.1117 69.3539 93.0932C69.3682 93.0756 69.3867 93.0605 69.4068 93.0495C69.427 93.0386 69.4496 93.0319 69.4732 93.0302C69.4958 93.0277 69.5193 93.0311 69.5412 93.0386L73.782 94.1689C73.8987 94.2 74.0079 94.2302 74.1095 94.2588C74.5293 94.3755 74.8653 94.4679 74.9912 94.3965C75.0055 94.3881 75.05 94.3621 75.0802 94.2386C75.2583 93.5274 75.752 93.3208 76.1308 93.2721C76.3844 93.2435 76.6413 93.2653 76.8865 93.3376C76.9084 93.3434 76.9294 93.3535 76.947 93.3678C76.9655 93.3821 76.9798 93.3997 76.9907 93.4199C77.0016 93.4392 77.0083 93.4619 77.0108 93.4845C77.0125 93.5072 77.01 93.5299 77.0033 93.5517C76.9966 93.5735 76.9848 93.5937 76.9697 93.6105C76.9546 93.6281 76.9361 93.6416 76.9159 93.6516C76.8949 93.6617 76.8731 93.6668 76.8504 93.6676C76.8269 93.6684 76.8043 93.6651 76.7833 93.6567C76.5851 93.6013 76.3785 93.5836 76.1736 93.6046C75.7646 93.6575 75.5135 93.891 75.4069 94.3201C75.3935 94.3948 75.3641 94.4662 75.3221 94.5292C75.2792 94.5922 75.2238 94.6459 75.16 94.6871C75.0702 94.7349 74.9694 94.7576 74.8678 94.7534Z"
    fill="black"
  />
<path
    fill-rule="evenodd"
    clip-rule="evenodd"
    d="M79.4967 93.3686L68.296 90.6084C68.5479 89.6006 68.7763 88.5812 69.0106 87.5642L69.3381 86.0283L69.5061 85.2599C69.559 85.003 69.6068 84.7452 69.6581 84.4874C70.4231 80.6379 71.047 76.7414 71.545 72.8239L71.7264 71.3535C71.7869 70.8631 71.8498 70.3735 71.8944 69.8814L72.1992 66.9272C72.2042 66.8835 72.1992 66.902 72.1992 66.8978H72.2386H72.3226C72.3789 66.8978 72.4226 66.9036 72.4704 66.9053C72.5662 66.9104 72.6619 66.9129 72.7593 66.9129C72.8567 66.9129 72.9273 66.9129 73.0179 66.9129L73.2606 66.9045C73.3345 66.9045 73.4135 66.8944 73.4848 66.8877C73.5562 66.881 73.6125 66.8768 73.678 66.8684L73.7275 66.8608L73.7687 66.8558L73.8527 66.8449L74.003 66.818C74.045 66.8104 74.0928 66.7987 74.1315 66.7886C74.1701 66.7785 74.1978 66.7735 74.2314 66.7634L74.2725 66.7508L74.307 66.7407L74.3616 66.7214L74.3943 66.7088L74.4069 66.7029L74.3918 66.7105C74.3061 66.7576 74.2247 66.8115 74.1474 66.8717C73.9702 67.0076 73.8031 67.1569 73.6486 67.3185C73.411 67.5639 73.1893 67.8239 72.9844 68.0969L72.8945 68.2179L72.855 68.2741C72.8542 68.2746 72.8533 68.2747 72.8525 68.2747C72.8517 68.2747 72.8508 68.2746 72.85 68.2741C72.85 68.2741 72.8399 68.2691 72.8357 68.2657L72.8282 68.2599L72.8156 68.2531C72.6879 68.1807 72.5561 68.1176 72.4192 68.0642C72.1782 67.9714 71.933 67.8909 71.6836 67.8232C71.0059 67.6457 70.3164 67.5158 69.6203 67.4344C68.8469 67.3378 68.0138 67.2765 67.1514 67.2446C66.289 67.2127 65.3955 67.2102 64.4878 67.232C62.6705 67.2748 60.7928 67.4109 58.9008 67.6082C57.0089 67.8055 55.0959 68.0667 53.1905 68.3757C51.7369 68.6051 50.2512 68.2551 49.053 67.4008C47.8112 66.5293 46.9421 65.2231 46.6177 63.7411C46.4457 62.9983 46.4324 62.2277 46.5786 61.4795C46.7247 60.7312 47.0271 60.0222 47.4658 59.3987C47.9176 58.7567 48.494 58.2123 49.1606 57.798C49.8274 57.3835 50.5708 57.1078 51.3464 56.9869C53.4458 56.651 55.5636 56.3579 57.7025 56.1346C59.8414 55.9112 62.0063 55.7516 64.2165 55.6987C65.3225 55.6727 66.4393 55.6744 67.5755 55.7155C68.7117 55.7567 69.8672 55.8398 71.0538 55.9876C72.2958 56.1364 73.526 56.3736 74.7344 56.6972C75.3987 56.88 76.052 57.0993 76.6919 57.3539C77.4057 57.6369 78.0951 57.9764 78.7543 58.3692C79.1188 58.5873 79.4715 58.825 79.8099 59.0813C80.1761 59.3567 80.5237 59.6558 80.8504 59.9765C81.2006 60.3202 81.5255 60.6887 81.822 61.0791C82.131 61.4901 82.4073 61.925 82.6475 62.3799C83.1244 63.2899 83.4486 64.2716 83.609 65.2863C83.6501 65.5306 83.6753 65.7683 83.6988 66.0076C83.7089 66.126 83.7156 66.2428 83.7224 66.3603C83.7291 66.4779 83.7333 66.5938 83.735 66.7071C83.7366 66.8205 83.735 66.9372 83.735 67.0498L83.7249 67.3857C83.7249 67.4982 83.7139 67.604 83.7064 67.7123L83.6938 67.8744C83.6938 67.9256 83.6846 67.9928 83.682 68.0163L83.3562 71.1495C83.3058 71.6718 83.2395 72.1924 83.1757 72.7139L82.9834 74.2784C82.4518 78.4478 81.7875 82.6046 80.9679 86.7438C80.9125 87.0201 80.8613 87.2972 80.8 87.5735L80.6245 88.4023L80.2709 90.06C80.019 91.1643 79.7721 92.2686 79.4933 93.3703"
    fill="#2945FF"
  />
<path
    d="M73.7694 68.1037C74.3959 68.1037 74.9031 67.4269 74.9031 66.5921C74.9031 65.7573 74.3959 65.0805 73.7694 65.0805C73.143 65.0805 72.6357 65.7573 72.6357 66.5921C72.6357 67.4269 73.143 68.1037 73.7694 68.1037Z"
    fill="#2945FF"
  />
<path d="M98.0693 78.19H97.7334V117.293H98.0693V78.19Z" fill="black" />
<path
    d="M84.1952 83.7979L83.9575 84.0356L111.607 111.685L111.845 111.448L84.1952 83.7979Z"
    fill="black"
  />
<path d="M117.453 97.5733H78.3501V97.9092H117.453V97.5733Z" fill="black" />
<path
    d="M111.608 83.7988L83.958 111.449L84.1957 111.685L111.845 84.0364L111.608 83.7988Z"
    fill="black"
  />
<path d="M23.2627 78.19H22.9268V117.293H23.2627V78.19Z" fill="black" />
<path
    d="M9.38836 83.7971L9.15088 84.0347L36.8005 111.685L37.038 111.447L9.38836 83.7971Z"
    fill="black"
  />
<path d="M42.6455 97.5733H3.54297V97.9092H42.6455V97.5733Z" fill="black" />
<path
    d="M36.8005 83.7979L9.15088 111.448L9.38836 111.685L37.038 84.0356L36.8005 83.7979Z"
    fill="black"
  />
<path
    fill-rule="evenodd"
    clip-rule="evenodd"
    d="M63.6503 98.9329H59.8084L40.1841 74.6017H44.0251L63.6503 98.9329Z"
    fill="white"
  />
<path
    d="M64.0011 99.1008H59.7284L59.6781 99.0387L39.832 74.4338H44.1056L64.0011 99.1008ZM59.8863 98.7649H63.2966L43.9443 74.7697H40.5349L59.8863 98.7649Z"
    fill="black"
  />
<path
    fill-rule="evenodd"
    clip-rule="evenodd"
    d="M23.0951 115.833C13.102 115.833 5.00333 107.734 5.00333 97.7413C5.00333 87.749 13.1036 79.6503 23.0951 79.6503C33.0865 79.6503 41.186 87.7532 41.186 97.7413C41.186 107.729 33.0832 115.833 23.0951 115.833ZM23.0951 75.6514C10.8942 75.6514 1.00439 85.5413 1.00439 97.7371C1.00439 109.933 10.8942 119.832 23.0951 119.832C35.2959 119.832 45.1849 109.942 45.1849 97.7413C45.1849 85.5404 35.2951 75.6556 23.0993 75.6556"
    fill="black"
  />
<path
    d="M23.0949 120C17.9466 119.999 12.9577 118.214 8.97818 114.948C4.99873 111.681 2.27481 107.136 1.27071 102.087C0.266522 97.0376 1.04422 91.7958 3.47129 87.2552C5.89837 82.7155 9.82458 79.1566 14.581 77.1865C19.3374 75.2164 24.6299 74.9561 29.5566 76.4509C34.4833 77.9456 38.7393 81.1014 41.5997 85.3825C44.4601 89.6628 45.7479 94.8029 45.2435 99.9263C44.7391 105.05 42.4739 109.841 38.8337 113.481C36.7715 115.554 34.3187 117.198 31.6172 118.316C28.9157 119.436 26.0191 120.007 23.0949 120ZM23.0949 75.8194C18.0232 75.8194 13.1084 77.5778 9.18787 80.7958C5.26729 84.0129 2.58367 88.4905 1.59426 93.4644C0.604777 98.4391 1.37072 103.602 3.76151 108.075C6.15231 112.548 10.0201 116.054 14.7058 117.995C19.3914 119.935 24.6051 120.191 29.4585 118.719C34.3119 117.247 38.5046 114.138 41.3223 109.92C44.14 105.704 45.4083 100.64 44.9113 95.5923C44.4142 90.5454 42.1823 85.8268 38.5961 82.2402C36.5652 80.1979 34.1495 78.5788 31.4887 77.477C28.8279 76.3753 25.975 75.8118 23.0949 75.8194ZM23.0949 116.001C18.8702 116.001 14.776 114.537 11.5101 111.857C8.24398 109.177 6.00829 105.448 5.18381 101.304C4.35925 97.161 4.99697 92.8598 6.98829 89.1337C8.97961 85.4077 12.2013 82.4871 16.1044 80.8705C20.0075 79.2531 24.3505 79.0398 28.3933 80.2659C32.4362 81.4919 35.9288 84.0826 38.276 87.5953C40.6233 91.108 41.6799 95.3253 41.2659 99.53C40.8518 103.735 38.9928 107.666 36.0054 110.653C34.314 112.353 32.302 113.702 30.0859 114.62C27.8698 115.538 25.4936 116.008 23.0949 116.001ZM23.0949 79.8183C13.2118 79.8183 5.17113 87.859 5.17113 97.7413C5.17113 107.624 13.2118 115.665 23.0949 115.665C32.9781 115.665 41.0179 107.624 41.0179 97.7413C41.0179 87.8581 32.9772 79.8183 23.0949 79.8183Z"
    fill="black"
  />
<path
    fill-rule="evenodd"
    clip-rule="evenodd"
    d="M20.8706 98.9329H24.8393L45.117 74.6017H41.1474L20.8706 98.9329Z"
    fill="white"
  />
<path
    d="M24.9184 99.1008H20.5122L41.0695 74.4338H45.4757L24.9184 99.1008ZM21.2294 98.7649H24.7605L44.756 74.7697H41.2291L21.2294 98.7649Z"
    fill="black"
  />
<path
    fill-rule="evenodd"
    clip-rule="evenodd"
    d="M69.3726 100.522L75.371 102.174C75.4936 102.208 75.6221 102.218 75.7481 102.202C75.8749 102.186 75.9967 102.146 76.1075 102.083C76.2175 102.02 76.3149 101.936 76.393 101.836C76.4711 101.735 76.5291 101.62 76.5627 101.498L76.8843 100.333C76.9523 100.085 76.9196 99.8205 76.7928 99.5971C76.666 99.3729 76.4552 99.2092 76.2074 99.1412L70.209 97.4877C69.9613 97.4197 69.6968 97.4524 69.4726 97.5792C69.2492 97.7068 69.0854 97.9168 69.0166 98.1645L68.6958 99.3301C68.6278 99.5778 68.6605 99.8424 68.7882 100.066C68.915 100.289 69.1249 100.453 69.3726 100.522Z"
    fill="black"
  />
<path
    fill-rule="evenodd"
    clip-rule="evenodd"
    d="M72.3904 98.9329C72.3904 98.8153 72.3669 98.6986 72.3215 98.5894C72.277 98.4802 72.2107 98.3812 72.1275 98.298C72.0435 98.2149 71.9453 98.1485 71.8361 98.1032C71.727 98.0587 71.6102 98.0352 71.4927 98.0352H60.9956C60.7621 98.0419 60.5406 98.1401 60.378 98.3081C60.2154 98.4752 60.1245 98.6994 60.1245 98.9329C60.1245 99.1672 60.2154 99.3914 60.378 99.5585C60.5406 99.7264 60.7621 99.8239 60.9956 99.8314H71.4927C71.6102 99.8314 71.727 99.8079 71.8361 99.7634C71.9453 99.7181 72.0444 99.6517 72.1275 99.5686C72.2107 99.4846 72.277 99.3855 72.3223 99.2763C72.3669 99.168 72.3904 99.0504 72.3904 98.9329Z"
    fill="white"
  />
<path
    d="M71.4927 99.9574H60.9957C60.7291 99.9498 60.4761 99.8381 60.2903 99.6475C60.1044 99.456 60.0005 99.1999 60.0005 98.9329C60.0005 98.6667 60.1044 98.4105 60.2903 98.2191C60.4761 98.0285 60.7291 97.9168 60.9957 97.9092H71.4927C71.7589 97.9168 72.0125 98.0285 72.1981 98.2191C72.3837 98.4105 72.4878 98.6667 72.4878 98.9329C72.4878 99.1999 72.3837 99.456 72.1981 99.6475C72.0125 99.8381 71.7589 99.9498 71.4927 99.9574ZM60.9957 98.1611C60.7953 98.1679 60.6054 98.2518 60.4659 98.3963C60.3265 98.5399 60.2486 98.733 60.2486 98.9329C60.2486 99.1336 60.3265 99.3267 60.4659 99.4703C60.6054 99.6148 60.7953 99.6987 60.9957 99.7055H71.4927C71.6934 99.6987 71.8832 99.6148 72.0226 99.4703C72.162 99.3267 72.2401 99.1336 72.2401 98.9329C72.2401 98.733 72.162 98.5399 72.0226 98.3963C71.8832 98.2518 71.6934 98.1679 71.4927 98.1611H60.9957Z"
    fill="black"
  />
<path
    fill-rule="evenodd"
    clip-rule="evenodd"
    d="M97.9017 115.833C87.9086 115.833 79.8108 107.734 79.8108 97.7413C79.8108 87.749 87.9103 79.6503 97.9017 79.6503C107.893 79.6503 115.993 87.7532 115.993 97.7413C115.993 107.729 107.893 115.833 97.9017 115.833ZM97.9017 75.6514C85.7017 75.6514 75.811 85.5413 75.811 97.7371C75.811 109.933 85.7017 119.832 97.9017 119.832C110.102 119.832 119.992 109.942 119.992 97.7413C119.992 85.5404 110.102 75.6556 97.9017 75.6556"
    fill="black"
  />
<path
    d="M97.9015 120C92.7529 119.999 87.7639 118.214 83.7843 114.948C79.8047 111.681 77.0813 107.136 76.077 102.087C75.0726 97.0376 75.8502 91.7958 78.278 87.2552C80.7049 82.7155 84.6308 79.1566 89.3871 77.1865C94.1435 75.2164 99.4365 74.9561 104.363 76.4509C109.289 77.9456 113.545 81.1014 116.406 85.3825C119.267 89.6628 120.554 94.8029 120.05 99.9263C119.545 105.05 117.281 109.841 113.64 113.481C111.578 115.554 109.125 117.198 106.423 118.317C103.722 119.436 100.826 120.008 97.9015 120ZM97.9015 75.8194C92.8293 75.8194 87.915 77.5778 83.9942 80.7958C80.0734 84.0129 77.3903 88.4905 76.4003 93.4644C75.411 98.4391 76.1769 103.602 78.5677 108.075C80.9585 112.548 84.8264 116.054 89.5123 117.995C94.1981 119.935 99.4114 120.191 104.265 118.719C109.118 117.247 113.311 114.138 116.128 109.92C118.947 105.704 120.215 100.64 119.718 95.5923C119.22 90.5454 116.988 85.8268 113.403 82.2402C111.371 80.1979 108.956 78.5796 106.295 77.477C103.634 76.3753 100.781 75.8118 97.9015 75.8194ZM97.9015 116.001C93.6766 116.001 89.5837 114.536 86.3178 111.857C83.0528 109.177 80.8174 105.448 79.9928 101.304C79.169 97.1618 79.8063 92.8606 81.7982 89.1354C83.7893 85.4094 87.0106 82.4896 90.913 80.873C94.8162 79.2565 99.1586 79.0432 103.201 80.2692C107.243 81.4953 110.736 84.0851 113.083 87.5978C115.43 91.1097 116.486 95.327 116.072 99.5308C115.658 103.735 113.8 107.666 110.813 110.653C109.121 112.354 107.109 113.702 104.892 114.62C102.676 115.538 100.3 116.008 97.9015 116.001ZM97.9015 79.8183C88.0183 79.8183 79.9785 87.859 79.9785 97.7413C79.9785 107.624 88.0183 115.665 97.9015 115.665C107.785 115.665 115.824 107.624 115.824 97.7413C115.824 87.8581 107.785 79.8183 97.9015 79.8183Z"
    fill="black"
  />
<path
    fill-rule="evenodd"
    clip-rule="evenodd"
    d="M29.8506 60.1411C29.8506 54.8859 34.8514 50.6258 41.0194 50.6258C47.1874 50.6258 52.1882 54.8859 52.1882 60.1411C52.1882 65.3963 47.1908 69.6572 41.0202 69.6572C34.8497 69.6572 29.8514 65.3971 29.8514 60.1411"
    fill="black"
  />
<path
    fill-rule="evenodd"
    clip-rule="evenodd"
    d="M59.292 98.9329H63.1339L85.6186 70.1787H81.7775L59.292 98.9329Z"
    fill="white"
  />
<path
    d="M63.1338 99.1008H59.2919C59.2605 99.1008 59.2297 99.0916 59.2032 99.0748C59.1766 99.058 59.1552 99.0345 59.1415 99.0059C59.1277 98.9782 59.1222 98.9463 59.1254 98.9152C59.1288 98.8842 59.1407 98.8548 59.16 98.8296L81.6447 70.0754C81.6607 70.0553 81.6808 70.039 81.7035 70.0277C81.7262 70.0165 81.7514 70.0108 81.7774 70.0108H85.6185C85.6495 70.0107 85.6806 70.0195 85.7075 70.0362C85.7344 70.0528 85.7554 70.0766 85.7696 70.1049C85.7831 70.1332 85.7889 70.1648 85.7856 70.1961C85.7822 70.2274 85.7705 70.2571 85.7512 70.282L63.2656 99.037C63.2499 99.0572 63.2299 99.0731 63.2071 99.084C63.1842 99.095 63.1592 99.1008 63.1338 99.1008ZM59.637 98.7649H63.0515L85.2742 70.3467H81.8589L59.637 98.7649Z"
    fill="black"
  />
<path
    fill-rule="evenodd"
    clip-rule="evenodd"
    d="M47.0776 75.0132H36.7964C36.4298 75.0199 36.0654 74.9527 35.7248 74.8167C35.3841 74.6806 35.074 74.4783 34.8124 74.2213C34.5508 73.9643 34.3431 73.6578 34.2012 73.3194C34.0594 72.9818 33.9863 72.6182 33.9863 72.2521C33.9863 71.8851 34.0594 71.5218 34.2012 71.1836C34.3431 70.8454 34.5508 70.5388 34.8124 70.2816C35.074 70.0246 35.3841 69.8222 35.7248 69.6863C36.0654 69.5504 36.4298 69.4837 36.7964 69.4901H47.0776C47.8017 69.5027 48.4918 69.7992 48.9995 70.3157C49.507 70.8323 49.7914 71.5274 49.7914 72.2521C49.7914 72.9759 49.507 73.6712 48.9995 74.1877C48.4918 74.7042 47.8017 75.0006 47.0776 75.0132Z"
    fill="white"
  />
<path
    d="M47.0776 75.1811H36.7964C36.4076 75.1879 36.0213 75.1165 35.6601 74.9729C35.2989 74.8284 34.9701 74.6135 34.6927 74.3405C34.4153 74.0685 34.195 73.7426 34.0447 73.3841C33.8943 73.0255 33.8169 72.6409 33.8169 72.2521C33.8169 71.8624 33.8943 71.4776 34.0447 71.119C34.195 70.7602 34.4153 70.4351 34.6927 70.1624C34.9701 69.8897 35.2989 69.675 35.6601 69.5307C36.0213 69.3865 36.4076 69.3156 36.7964 69.3221H47.0776C47.846 69.3352 48.5784 69.6495 49.1172 70.1975C49.656 70.7455 49.9579 71.4832 49.9579 72.2521C49.9579 73.0204 49.656 73.7578 49.1172 74.3061C48.5784 74.8536 47.846 75.1686 47.0776 75.1811ZM36.7964 69.6581C36.4519 69.6518 36.1096 69.7144 35.7895 69.842C35.4694 69.9694 35.178 70.1596 34.9321 70.401C34.6863 70.6424 34.491 70.9305 34.3577 71.2482C34.2244 71.566 34.1557 71.9069 34.1557 72.2521C34.1557 72.5964 34.2244 72.9373 34.3577 73.2547C34.491 73.573 34.6863 73.861 34.9321 74.1021C35.178 74.3439 35.4694 74.5337 35.7895 74.6613C36.1096 74.789 36.4519 74.8511 36.7964 74.8452H47.0776C47.7574 74.8326 48.4052 74.5547 48.8816 74.0693C49.3581 73.5839 49.6249 72.9314 49.6249 72.2521C49.6249 71.5718 49.3581 70.919 48.8816 70.434C48.4052 69.9489 47.7574 69.6703 47.0776 69.6581H36.7964Z"
    fill="black"
  />
<path
    fill-rule="evenodd"
    clip-rule="evenodd"
    d="M100.281 97.7413H96.4084L78.8843 64.035H82.7581L100.281 97.7413Z"
    fill="white"
  />
<path
    d="M100.282 97.9092H96.4079C96.3768 97.9092 96.3474 97.9008 96.3206 97.8849C96.2945 97.8689 96.2735 97.8462 96.2593 97.8194L78.736 64.1123C78.7226 64.0867 78.7159 64.058 78.7175 64.0292C78.7184 64.0003 78.7268 63.9723 78.7419 63.9476C78.757 63.923 78.778 63.9026 78.8032 63.8885C78.8284 63.8744 78.8561 63.867 78.8855 63.8671H82.7585C82.7895 63.867 82.8198 63.8755 82.8458 63.8914C82.8718 63.9075 82.8937 63.9304 82.9079 63.9578L100.432 97.6623C100.445 97.6884 100.451 97.7169 100.45 97.7455C100.45 97.774 100.441 97.8026 100.426 97.8269C100.411 97.8513 100.39 97.8723 100.365 97.8857C100.34 97.9 100.311 97.9075 100.283 97.9075L100.282 97.9092ZM96.5103 97.5733H100.005L82.6568 64.203H79.1618L96.5103 97.5733Z"
    fill="black"
  />
<path
    fill-rule="evenodd"
    clip-rule="evenodd"
    d="M78.8843 64.035H82.7581V60.1612H78.8843V64.035Z"
    fill="white"
  />
<path
    d="M82.7582 64.203H78.8852C78.8407 64.203 78.7979 64.1853 78.766 64.1538C78.7349 64.1223 78.7173 64.0795 78.7173 64.035V60.1612C78.7173 60.1167 78.7349 60.074 78.766 60.0425C78.7979 60.011 78.8407 59.9933 78.8852 59.9933H82.7582C82.8027 59.9933 82.8455 60.011 82.8766 60.0425C82.9085 60.074 82.9262 60.1167 82.9262 60.1612V64.035C82.9262 64.0795 82.9085 64.1223 82.8766 64.1538C82.8455 64.1853 82.8027 64.203 82.7582 64.203ZM79.0532 63.8671H82.5903V60.3292H79.0532V63.8671Z"
    fill="black"
  />
<path
    fill-rule="evenodd"
    clip-rule="evenodd"
    d="M100.595 97.7413C100.595 98.2737 100.437 98.7943 100.141 99.2377C99.8447 99.6803 99.424 100.025 98.9319 100.229C98.4398 100.434 97.899 100.486 97.3758 100.382C96.8535 100.279 96.374 100.022 95.997 99.6458C95.6207 99.2688 95.3638 98.7893 95.2605 98.2669C95.1564 97.7446 95.2093 97.203 95.4133 96.7109C95.6174 96.2188 95.9625 95.7981 96.4051 95.5016C96.8485 95.206 97.3691 95.0482 97.9015 95.0482C98.6162 95.0482 99.3006 95.332 99.8061 95.8367C100.311 96.3422 100.595 97.0266 100.595 97.7413Z"
    fill="white"
  />
<path
    d="M97.9014 100.601C97.3354 100.601 96.7828 100.434 96.3117 100.119C95.8414 99.8046 95.4745 99.3578 95.2578 98.8355C95.042 98.3123 94.9849 97.7371 95.0957 97.182C95.2057 96.6269 95.4778 96.1172 95.8784 95.7174C96.2781 95.3169 96.7887 95.0448 97.3429 94.934C97.898 94.8239 98.4732 94.8802 98.9964 95.0969C99.5187 95.3135 99.9663 95.6805 100.28 96.1508C100.594 96.621 100.762 97.1744 100.762 97.7404C100.762 98.4987 100.46 99.226 99.9235 99.7626C99.3877 100.299 98.6597 100.601 97.9014 100.601ZM97.9014 95.2161C97.4017 95.2161 96.9138 95.3639 96.4981 95.6419C96.0833 95.919 95.7591 96.3137 95.5685 96.7755C95.3771 97.2366 95.3275 97.7446 95.4249 98.2342C95.5223 98.7238 95.7633 99.1739 96.116 99.5274C96.4696 99.8801 96.9197 100.12 97.4093 100.218C97.8989 100.315 98.4069 100.266 98.8688 100.074C99.3298 99.8826 99.7245 99.5593 100.002 99.1437C100.279 98.728 100.427 98.2401 100.427 97.7404C100.426 97.0711 100.159 96.4296 99.6859 95.9568C99.2122 95.484 98.5707 95.2178 97.9014 95.217V95.2161Z"
    fill="black"
  />
<path
    fill-rule="evenodd"
    clip-rule="evenodd"
    d="M81.9569 50.2092H76.4204V57.453H78.8851V54.0646H79.4645C81.2683 54.0646 82.7304 53.7513 82.7304 55.1764V63.3607C82.7304 63.5881 82.6976 63.8143 82.6338 64.0325C84.1126 63.7663 85.2228 62.6444 85.2228 61.3008V53.0014C85.2228 51.4596 83.7607 50.2092 81.9569 50.2092Z"
    fill="white"
  />
<path
    d="M82.6341 64.203C82.6081 64.203 82.5821 64.1969 82.5585 64.1853C82.5359 64.1736 82.5149 64.1566 82.4998 64.1358C82.4838 64.115 82.4737 64.0907 82.4687 64.0651C82.4645 64.0394 82.4653 64.013 82.4729 63.988C82.5325 63.7842 82.5627 63.573 82.5627 63.3607V55.1764C82.5627 54.8699 82.4897 54.6499 82.3394 54.5046C81.9934 54.1687 81.2099 54.1914 80.3038 54.2174C80.0342 54.225 79.7554 54.2334 79.464 54.2334H79.0525V57.4538C79.0525 57.4983 79.0349 57.5411 79.003 57.5726C78.9719 57.6041 78.9291 57.6218 78.8846 57.6218H76.4199C76.3754 57.6218 76.3326 57.6041 76.3007 57.5726C76.2696 57.5411 76.252 57.4983 76.252 57.4538V50.2092C76.252 50.1647 76.2696 50.122 76.3007 50.0905C76.3326 50.059 76.3754 50.0413 76.4199 50.0413H81.9573C83.8509 50.0413 85.391 51.3698 85.391 53.0014V61.3008C85.391 62.6948 84.2439 63.9133 82.6644 64.1979L82.6341 64.203ZM80.9949 53.8672C81.6869 53.8672 82.2335 53.9336 82.5728 54.2628C82.792 54.4761 82.8986 54.775 82.8986 55.1764V63.3607C82.8986 63.5128 82.8852 63.6645 82.8583 63.8142C84.1457 63.4825 85.0551 62.4596 85.0551 61.3033V53.0014C85.0551 51.5545 83.6653 50.3772 81.9573 50.3772H76.5887V57.285H78.7175V54.0646C78.7175 54.0201 78.7351 53.9773 78.7662 53.9458C78.7981 53.9143 78.8409 53.8966 78.8854 53.8966H79.4649C79.7504 53.8966 80.0267 53.8882 80.2937 53.8807C80.5406 53.8739 80.7757 53.8672 80.9949 53.8672Z"
    fill="black"
  />
<path
    fill-rule="evenodd"
    clip-rule="evenodd"
    d="M23.0947 99.6408H64.1077V95.8333H23.0947V99.6408Z"
    fill="white"
  />
<path
    d="M64.2756 99.8088H22.9268V95.6654H64.2756V99.8088ZM23.2627 99.4729H63.9397V96.0013H23.2627V99.4729Z"
    fill="black"
  />
<path
    fill-rule="evenodd"
    clip-rule="evenodd"
    d="M67.8786 98.9329C67.8786 100.214 67.499 101.465 66.7877 102.53C66.0768 103.594 65.0659 104.423 63.8832 104.914C62.7004 105.404 61.3989 105.532 60.1432 105.282C58.8875 105.033 57.7341 104.417 56.8288 103.511C55.9234 102.606 55.3069 101.452 55.0571 100.197C54.8072 98.9413 54.9354 97.6397 55.4253 96.4573C55.9152 95.2741 56.7448 94.263 57.8093 93.5517C58.8738 92.8404 60.1253 92.4609 61.4055 92.4609C62.2555 92.4609 63.0972 92.628 63.8825 92.953C64.6678 93.2788 65.3814 93.7549 65.9825 94.3562C66.5837 94.9575 67.0606 95.6704 67.3856 96.4556C67.7106 97.2416 67.8786 98.0831 67.8786 98.9329Z"
    fill="white"
  />
<path
    d="M61.4057 105.573C60.0925 105.573 58.8088 105.183 57.717 104.453C56.6252 103.724 55.7742 102.687 55.2718 101.473C54.7694 100.26 54.638 98.9253 54.8943 97.6371C55.1506 96.3489 55.7831 95.1657 56.7117 94.2378C57.6403 93.309 58.8235 92.6767 60.1115 92.4205C61.3995 92.1644 62.7345 92.2954 63.9478 92.7984C65.1611 93.3006 66.198 94.1521 66.9279 95.2438C67.6568 96.3355 68.0465 97.6195 68.0465 98.9329C68.0448 100.694 67.3444 102.381 66.0992 103.626C64.8543 104.871 63.1663 105.571 61.4057 105.573ZM61.4057 92.6288C60.159 92.6288 58.9402 92.9991 57.9036 93.6919C56.867 94.3847 56.0592 95.3689 55.5821 96.5211C55.1051 97.6732 54.9804 98.9404 55.2238 100.163C55.4671 101.386 56.0676 102.509 56.9492 103.391C57.8309 104.272 58.9541 104.872 60.177 105.116C61.3999 105.359 62.6674 105.234 63.8192 104.757C64.9711 104.28 65.9556 103.472 66.6483 102.436C67.3411 101.398 67.7106 100.18 67.7106 98.9329C67.7089 97.2618 67.0438 95.6587 65.8618 94.4771C64.6797 93.2956 63.0772 92.6305 61.4057 92.6288Z"
    fill="black"
  />
<path
    fill-rule="evenodd"
    clip-rule="evenodd"
    d="M63.0995 98.9329C63.1002 99.268 63.0013 99.5955 62.8157 99.8751C62.6299 100.154 62.3657 100.371 62.0562 100.5C61.7467 100.629 61.4061 100.663 61.0773 100.598C60.7485 100.533 60.4464 100.372 60.2092 100.135C59.972 99.8986 59.8103 99.5963 59.7447 99.268C59.6791 98.9396 59.7124 98.5987 59.8405 98.2888C59.9686 97.9789 60.1857 97.7144 60.4644 97.528C60.7429 97.3415 61.0706 97.2425 61.4057 97.2425C61.8549 97.2425 62.2857 97.4213 62.6034 97.7388C62.9211 98.0562 63.0995 98.487 63.0995 98.9363"
    fill="white"
  />
<path
    d="M61.4057 100.795C61.0375 100.795 60.6775 100.685 60.3714 100.481C60.0652 100.277 59.8266 99.986 59.6856 99.645C59.5447 99.3049 59.5079 98.9312 59.5798 98.5693C59.6516 98.2082 59.8289 97.8765 60.0892 97.6161C60.3496 97.3558 60.6814 97.1786 61.0424 97.1073C61.4036 97.035 61.778 97.072 62.1182 97.2131C62.4584 97.3541 62.7491 97.5926 62.9537 97.8983C63.1582 98.2048 63.2675 98.5651 63.2675 98.9329C63.267 99.4267 63.0707 99.8995 62.7216 100.249C62.3726 100.598 61.8993 100.794 61.4057 100.795ZM61.4057 97.407C61.1039 97.407 60.8089 97.4969 60.558 97.664C60.3071 97.832 60.1115 98.0705 59.996 98.3493C59.8806 98.6281 59.8503 98.9346 59.9092 99.2302C59.9681 99.5266 60.1133 99.7987 60.3268 100.012C60.5402 100.225 60.812 100.371 61.108 100.429C61.404 100.488 61.7108 100.458 61.9896 100.343C62.2684 100.227 62.5067 100.031 62.6743 99.7802C62.842 99.53 62.9316 99.2344 62.9316 98.9329C62.9302 98.529 62.7689 98.1418 62.483 97.8563C62.197 97.5716 61.8097 97.4113 61.4057 97.4104V97.407Z"
    fill="black"
  />
<path
    fill-rule="evenodd"
    clip-rule="evenodd"
    d="M25.7878 97.7413C25.788 98.2745 25.6301 98.7952 25.3341 99.2386C25.0382 99.6811 24.6174 100.027 24.1252 100.231C23.6329 100.435 23.0912 100.488 22.5685 100.384C22.0459 100.281 21.5658 100.024 21.189 99.6467C20.8122 99.2705 20.5555 98.7901 20.4517 98.2678C20.3477 97.7446 20.4011 97.203 20.6052 96.7109C20.8091 96.2188 21.1545 95.7981 21.5977 95.5016C22.0408 95.206 22.5618 95.0482 23.0947 95.0482C23.8089 95.0482 24.4939 95.332 24.999 95.8367C25.5041 96.3422 25.7878 97.0266 25.7878 97.7413Z"
    fill="white"
  />
<path
    d="M23.0949 100.601C22.5291 100.601 21.976 100.434 21.5054 100.119C21.0349 99.8046 20.6682 99.3578 20.4517 98.8355C20.2351 98.3123 20.1785 97.7371 20.2889 97.182C20.3993 96.6269 20.6717 96.1172 21.0719 95.7174C21.472 95.3169 21.9818 95.0448 22.5368 94.934C23.0917 94.8239 23.6671 94.8802 24.1898 95.0969C24.7126 95.3135 25.1595 95.6805 25.4738 96.1508C25.7882 96.621 25.956 97.1744 25.956 97.7404C25.9552 98.4987 25.6534 99.226 25.1171 99.7626C24.5807 100.299 23.8535 100.601 23.0949 100.601ZM23.0949 95.2161C22.5955 95.2161 22.1072 95.3639 21.6919 95.6419C21.2767 95.919 20.953 96.3137 20.7619 96.7755C20.5709 97.2366 20.5209 97.7446 20.6184 98.2342C20.7159 98.7238 20.9565 99.1739 21.3097 99.5274C21.6629 99.8801 22.1129 100.12 22.6028 100.218C23.0927 100.315 23.6005 100.266 24.0619 100.074C24.5233 99.8826 24.9175 99.5593 25.1949 99.1437C25.4723 98.728 25.6203 98.2401 25.6201 97.7404C25.619 97.0711 25.3525 96.4296 24.8792 95.9568C24.4058 95.484 23.7641 95.2178 23.0949 95.217V95.2161Z"
    fill="black"
  />
<path
    fill-rule="evenodd"
    clip-rule="evenodd"
    d="M50.0161 98.9329C50.0163 98.6944 50.1111 98.466 50.2795 98.298C50.448 98.1301 50.6765 98.0352 50.9147 98.0352H61.4116C61.6451 98.0419 61.8665 98.1401 62.0291 98.3081C62.1918 98.4752 62.2827 98.6994 62.2827 98.9329C62.2827 99.1672 62.1918 99.3914 62.0291 99.5585C61.8665 99.7264 61.6451 99.8239 61.4116 99.8314H50.9147C50.6763 99.8314 50.4478 99.7365 50.2793 99.5686C50.1108 99.3998 50.0161 99.1714 50.0161 98.9329Z"
    fill="white"
  />
<path
    d="M61.4112 99.9574H50.9142C50.7772 99.9616 50.6409 99.9381 50.5132 99.8877C50.3855 99.8381 50.2691 99.7634 50.1709 99.6677C50.0726 99.5728 49.9945 99.4586 49.9411 99.3318C49.8878 99.2058 49.8604 99.0706 49.8604 98.9337C49.8604 98.796 49.8878 98.6608 49.9411 98.5348C49.9945 98.408 50.0726 98.2938 50.1709 98.1989C50.2691 98.1032 50.3855 98.0285 50.5132 97.9789C50.6409 97.9285 50.7772 97.905 50.9142 97.9092H61.4112C61.6777 97.9168 61.9308 98.0285 62.1165 98.2191C62.3024 98.4106 62.4064 98.6667 62.4064 98.9337C62.4064 99.1999 62.3024 99.4561 62.1165 99.6475C61.9308 99.8381 61.6777 99.9498 61.4112 99.9574ZM50.9142 98.1612C50.8106 98.1578 50.7075 98.1754 50.6108 98.2124C50.5141 98.2493 50.4259 98.3064 50.3515 98.3778C50.277 98.45 50.2178 98.5365 50.1774 98.6314C50.137 98.7271 50.1161 98.8296 50.1161 98.9337C50.1161 99.037 50.137 99.1395 50.1774 99.2352C50.2178 99.3301 50.277 99.4166 50.3515 99.4888C50.4259 99.5602 50.5141 99.6173 50.6108 99.6542C50.7075 99.6912 50.8106 99.7088 50.9142 99.7055H61.4112C61.6115 99.6987 61.8016 99.6148 61.941 99.4703C62.0804 99.3267 62.1583 99.1336 62.1583 98.9337C62.1583 98.733 62.0804 98.5399 61.941 98.3963C61.8016 98.2518 61.6115 98.1679 61.4112 98.1612H50.9142Z"
    fill="black"
  />
<path
    fill-rule="evenodd"
    clip-rule="evenodd"
    d="M51.342 102.32L47.2961 97.5926C47.1291 97.397 47.0464 97.1434 47.0664 96.8872C47.0865 96.6311 47.2074 96.3935 47.4027 96.2263L48.3206 95.4403C48.5158 95.2732 48.7694 95.1901 49.0257 95.2102C49.2819 95.2304 49.5197 95.3513 49.6869 95.5461L53.7328 100.274C53.8999 100.47 53.9825 100.723 53.9624 100.979C53.9424 101.236 53.8215 101.473 53.6262 101.64L52.7083 102.426C52.513 102.593 52.2593 102.676 52.0031 102.656C51.7469 102.636 51.5091 102.515 51.342 102.32Z"
    fill="black"
  />
<path
    fill-rule="evenodd"
    clip-rule="evenodd"
    d="M52.423 89.473C54.8432 86.6128 57.197 83.6392 59.498 80.6119L60.3613 79.4765L61.2145 78.3311L62.0669 77.184L62.4926 76.6113L62.8814 76.0738L64.4416 73.9282L64.5256 73.8174L64.5517 73.7796C64.5693 73.7552 64.5861 73.73 64.6029 73.704C64.6365 73.6536 64.6675 73.6016 64.6978 73.5495C64.7589 73.4445 64.8112 73.3345 64.8541 73.2211C64.9454 72.9944 64.9716 72.7475 64.9295 72.5065C64.8746 72.268 64.7508 72.0505 64.5735 71.8817C64.3987 71.7146 64.2007 71.5729 63.9857 71.4618L63.9017 71.4199C63.874 71.4064 63.8437 71.3955 63.8177 71.3796L63.8076 71.3737C63.7992 71.3691 63.7906 71.3653 63.7816 71.3619L63.7228 71.3342L63.6061 71.2805C63.528 71.2435 63.4441 71.2091 63.3635 71.173C63.0343 71.0311 62.6841 70.8942 62.3188 70.764C61.5882 70.5037 60.8005 70.2686 59.9826 70.0595C59.1647 69.8504 58.3173 69.6639 57.454 69.4968C55.7241 69.1609 53.927 68.909 52.1123 68.7091L52.9252 61.3847C54.8961 61.6031 56.8721 61.881 58.848 62.2606C59.8372 62.4521 60.8273 62.6671 61.8191 62.9223C62.8108 63.1776 63.8026 63.4699 64.7952 63.8234C65.2915 64.0006 65.7886 64.1929 66.2845 64.4112C66.4088 64.4658 66.5364 64.5187 66.6565 64.5792L66.8429 64.6632C66.9068 64.6934 66.9605 64.7169 67.0378 64.7555C67.3275 64.8958 67.6155 65.0427 67.8985 65.1989C69.0263 65.8237 70.0819 66.5837 70.93 67.5251C71.355 67.9922 71.7219 68.5097 72.0217 69.066C72.3198 69.6224 72.5373 70.2185 72.6675 70.8362C72.7909 71.455 72.8287 72.0883 72.7775 72.7173C72.7238 73.3471 72.5978 73.9694 72.4021 74.5706C72.2031 75.1778 71.9503 75.7656 71.6464 76.3266C71.4935 76.6087 71.3331 76.8875 71.1601 77.1596C71.0762 77.2973 70.9855 77.4309 70.8948 77.5644L70.7579 77.7642L70.7243 77.8129L70.6966 77.8507L70.6412 77.9272L68.8693 80.3683L68.4259 80.978L67.99 81.5658L67.1175 82.7415L66.2438 83.9172L65.3587 85.0827C62.9964 88.1898 60.572 91.255 58.0351 94.2529L52.423 89.473Z"
    fill="white"
  />
<path
    fill-rule="evenodd"
    clip-rule="evenodd"
    d="M52.761 61.1975C54.7504 61.4141 56.744 61.6904 58.7426 62.0691C59.7419 62.2589 60.7429 62.4747 61.7456 62.73C62.7482 62.9853 63.7534 63.2784 64.7595 63.6319C65.2633 63.8091 65.7672 64.0014 66.2713 64.2198L66.6492 64.3877L67.0271 64.5624C67.169 64.6304 67.3227 64.706 67.4688 64.7799L67.9088 65.0108C69.071 65.6457 70.1552 66.4241 71.0319 67.384C71.4694 67.8615 71.8473 68.3905 72.158 68.9594C72.467 69.5278 72.6938 70.1378 72.8298 70.7707C72.9608 71.4042 73.0019 72.053 72.9524 72.698C72.8995 73.3446 72.7727 73.9828 72.5737 74.6C72.3721 75.2231 72.1135 75.8261 71.8019 76.4021C71.6449 76.6919 71.4803 76.9774 71.2981 77.2562C71.2141 77.3973 71.1184 77.5341 71.0252 77.671L70.8849 77.8768L70.7699 78.0363L68.9795 80.5035L68.5319 81.1182L68.0927 81.7061L67.2135 82.8893C66.9196 83.2831 66.6257 83.6795 66.3317 84.0708L65.4388 85.2465C63.0556 88.3779 60.6111 91.4699 58.0489 94.4906L52.1858 89.499C54.6211 86.6262 56.9959 83.63 59.3136 80.5841L60.1803 79.4396C60.47 79.0583 60.7538 78.6703 61.041 78.2866L61.8992 77.1311L62.3284 76.5533L62.7214 76.0117L64.2884 73.8568L64.3782 73.7334L64.4017 73.6998C64.4177 73.6771 64.4336 73.6545 64.4488 73.6309C64.479 73.5856 64.5075 73.5386 64.5327 73.4907C64.5882 73.3958 64.6357 73.2959 64.6746 73.1926C64.7579 72.9868 64.7809 72.7618 64.741 72.5435C64.6915 72.3268 64.5793 72.1303 64.4185 71.9775C64.2585 71.8246 64.0776 71.6961 63.8811 71.5954L63.808 71.5576C63.7945 71.5525 63.7813 71.5467 63.7685 71.5399L63.7492 71.5299L63.74 71.5248C63.7345 71.5216 63.729 71.5189 63.7232 71.5164L63.4889 71.4081L63.2462 71.3015C62.9162 71.1612 62.5635 71.0252 62.1965 70.8958C61.4609 70.638 60.6707 70.4037 59.8452 70.1955C59.0197 69.9872 58.1707 69.8016 57.3007 69.6362C55.5599 69.3062 53.7544 69.0543 51.9263 68.8552L52.761 61.1975ZM53.0885 61.5712L52.3025 68.5554C54.108 68.7595 55.8908 69.0156 57.6089 69.3507C58.468 69.5186 59.3103 69.7051 60.1232 69.9167C60.936 70.1283 61.7187 70.3626 62.4468 70.6254C62.8104 70.7565 63.1589 70.8942 63.4872 71.0369C63.5712 71.073 63.6552 71.1083 63.7282 71.1453L63.8466 71.1998L63.876 71.2133C63.881 71.2154 63.8858 71.2179 63.8903 71.2208L63.913 71.2326C63.976 71.262 64.0339 71.2905 64.0919 71.3233C64.3268 71.4457 64.5422 71.6025 64.7309 71.7885C64.9219 71.9741 65.0539 72.2126 65.1105 72.4729C65.1552 72.7358 65.1261 73.0053 65.0265 73.2522C64.9802 73.3757 64.9241 73.4957 64.8586 73.61C64.825 73.6671 64.7914 73.7242 64.7544 73.7779C64.7368 73.8056 64.7183 73.8325 64.699 73.8619L64.6704 73.9022L64.5974 74.003L63.0438 76.1385L62.6567 76.6726L62.2368 77.2394L61.3903 78.3781L60.543 79.5168L59.6865 80.6438C57.4032 83.6501 55.0678 86.6061 52.6644 89.4495L58.0238 93.9934C60.5355 91.019 62.9389 87.9782 65.2801 84.8963L66.1577 83.7408L67.0237 82.5777L67.8887 81.4138L68.3211 80.826L68.7603 80.2222L70.5137 77.8071C70.5792 77.7231 70.6817 77.5728 70.7657 77.446C70.8496 77.3192 70.9412 77.1856 71.0235 77.0521C71.1914 76.7868 71.3485 76.5155 71.4971 76.2409C71.7935 75.6942 72.0413 75.1215 72.2361 74.5303C72.4284 73.9442 72.5527 73.3387 72.6081 72.724C72.661 72.111 72.6283 71.4931 72.5098 70.8891C72.2663 69.6799 71.6558 68.5664 70.8303 67.6535C70.0048 66.7407 68.9829 65.9883 67.8912 65.3736C67.6174 65.2199 67.3369 65.0746 67.0514 64.9378C66.9019 64.863 66.7877 64.8118 66.6651 64.7547C66.5425 64.6976 66.4208 64.6447 66.299 64.5909C65.81 64.3776 65.3213 64.1862 64.8317 64.009C62.8725 63.3069 60.9117 62.8333 58.9534 62.4479C56.9951 62.0624 55.0418 61.7878 53.0885 61.567V61.5712Z"
    fill="black"
  />
<path
    fill-rule="evenodd"
    clip-rule="evenodd"
    d="M52.423 89.473C54.8432 86.6128 57.197 83.6392 59.498 80.6119L60.3613 79.4765L61.2145 78.3311L62.0669 77.184L62.4926 76.6113L62.8814 76.0738L64.4416 73.9282L64.5256 73.8174L64.5517 73.7796C64.5693 73.7552 64.5861 73.73 64.6029 73.704C64.6365 73.6536 64.6675 73.6016 64.6978 73.5495C64.7589 73.4445 64.8112 73.3345 64.8541 73.2211C64.9454 72.9944 64.9716 72.7475 64.9295 72.5065C64.8746 72.268 64.7508 72.0505 64.5735 71.8817C64.3987 71.7146 64.2007 71.5729 63.9857 71.4618L63.9017 71.4199C63.874 71.4064 63.8437 71.3955 63.8177 71.3796L63.8076 71.3737C63.7992 71.3691 63.7906 71.3653 63.7816 71.3619L63.7228 71.3342L63.6061 71.2805C63.528 71.2435 63.4441 71.2091 63.3635 71.173C63.0343 71.0311 62.6841 70.8942 62.3188 70.764C61.5882 70.5037 60.8005 70.2686 59.9826 70.0595C59.1647 69.8504 58.3173 69.6639 57.454 69.4968C55.7241 69.1609 53.927 68.909 52.1123 68.7091L52.9252 61.3847C54.8961 61.6031 56.8721 61.881 58.848 62.2606C59.8372 62.4521 60.8273 62.6671 61.8191 62.9223C62.8108 63.1776 63.8026 63.4699 64.7952 63.8234C65.2915 64.0006 65.7886 64.1929 66.2845 64.4112C66.4088 64.4658 66.5364 64.5187 66.6565 64.5792L66.8429 64.6632C66.9068 64.6934 66.9605 64.7169 67.0378 64.7555C67.3275 64.8958 67.6155 65.0427 67.8985 65.1989C69.0263 65.8237 70.0819 66.5837 70.93 67.5251C71.355 67.9922 71.7219 68.5097 72.0217 69.066C72.3198 69.6224 72.5373 70.2185 72.6675 70.8362C72.7909 71.455 72.8287 72.0883 72.7775 72.7173C72.7238 73.3471 72.5978 73.9694 72.4021 74.5706C72.2031 75.1778 71.9503 75.7656 71.6464 76.3266C71.4935 76.6087 71.3331 76.8875 71.1601 77.1596C71.0762 77.2973 70.9855 77.4309 70.8948 77.5644L70.7579 77.7642L70.7243 77.8129L70.6966 77.8507L70.6412 77.9272L68.8693 80.3683L68.4259 80.978L67.99 81.5658L67.1175 82.7415L66.2438 83.9172L65.3587 85.0827C62.9964 88.1898 60.572 91.255 58.0351 94.2529L52.423 89.473Z"
    fill="white"
  />
<path
    fill-rule="evenodd"
    clip-rule="evenodd"
    d="M52.761 61.1975C54.7504 61.4141 56.744 61.6904 58.7426 62.0691C59.7419 62.2589 60.7429 62.4747 61.7456 62.73C62.7482 62.9853 63.7534 63.2784 64.7595 63.6319C65.2633 63.8091 65.7672 64.0014 66.2713 64.2198L66.6492 64.3877L67.0271 64.5624C67.169 64.6304 67.3227 64.706 67.4688 64.7799L67.9088 65.0108C69.071 65.6457 70.1552 66.4241 71.0319 67.384C71.4694 67.8615 71.8473 68.3905 72.158 68.9594C72.467 69.5278 72.6938 70.1378 72.8298 70.7707C72.9608 71.4042 73.0019 72.053 72.9524 72.698C72.8995 73.3446 72.7727 73.9828 72.5737 74.6C72.3721 75.2231 72.1135 75.8261 71.8019 76.4021C71.6449 76.6919 71.4803 76.9774 71.2981 77.2562C71.2141 77.3973 71.1184 77.5341 71.0252 77.671L70.8849 77.8768L70.7699 78.0363L68.9795 80.5035L68.5319 81.1182L68.0927 81.7061L67.2135 82.8893C66.9196 83.2831 66.6257 83.6795 66.3317 84.0708L65.4388 85.2465C63.0556 88.3779 60.6111 91.4699 58.0489 94.4906L52.1858 89.499C54.6211 86.6262 56.9959 83.63 59.3136 80.5841L60.1803 79.4396C60.47 79.0583 60.7538 78.6703 61.041 78.2866L61.8992 77.1311L62.3284 76.5533L62.7214 76.0117L64.2884 73.8568L64.3782 73.7334L64.4017 73.6998C64.4177 73.6771 64.4336 73.6545 64.4488 73.6309C64.479 73.5856 64.5075 73.5386 64.5327 73.4907C64.5882 73.3958 64.6357 73.2959 64.6746 73.1926C64.7579 72.9868 64.7809 72.7618 64.741 72.5435C64.6915 72.3268 64.5793 72.1303 64.4185 71.9775C64.2585 71.8246 64.0776 71.6961 63.8811 71.5954L63.808 71.5576C63.7945 71.5525 63.7813 71.5467 63.7685 71.5399L63.7492 71.5299L63.74 71.5248C63.7345 71.5216 63.729 71.5189 63.7232 71.5164L63.4889 71.4081L63.2462 71.3015C62.9162 71.1612 62.5635 71.0252 62.1965 70.8958C61.4609 70.638 60.6707 70.4037 59.8452 70.1955C59.0197 69.9872 58.1707 69.8016 57.3007 69.6362C55.5599 69.3062 53.7544 69.0543 51.9263 68.8552L52.761 61.1975ZM53.0885 61.5712L52.3025 68.5554C54.108 68.7595 55.8908 69.0156 57.6089 69.3507C58.468 69.5186 59.3103 69.7051 60.1232 69.9167C60.936 70.1283 61.7187 70.3626 62.4468 70.6254C62.8104 70.7565 63.1589 70.8942 63.4872 71.0369C63.5712 71.073 63.6552 71.1083 63.7282 71.1453L63.8466 71.1998L63.876 71.2133C63.881 71.2154 63.8858 71.2179 63.8903 71.2208L63.913 71.2326C63.976 71.262 64.0339 71.2905 64.0919 71.3233C64.3268 71.4457 64.5422 71.6025 64.7309 71.7885C64.9219 71.9741 65.0539 72.2126 65.1105 72.4729C65.1552 72.7358 65.1261 73.0053 65.0265 73.2522C64.9802 73.3757 64.9241 73.4957 64.8586 73.61C64.825 73.6671 64.7914 73.7242 64.7544 73.7779C64.7368 73.8056 64.7183 73.8325 64.699 73.8619L64.6704 73.9022L64.5974 74.003L63.0438 76.1385L62.6567 76.6726L62.2368 77.2394L61.3903 78.3781L60.543 79.5168L59.6865 80.6438C57.4032 83.6501 55.0678 86.6061 52.6644 89.4495L58.0238 93.9934C60.5355 91.019 62.9389 87.9782 65.2801 84.8963L66.1577 83.7408L67.0237 82.5777L67.8887 81.4138L68.3211 80.826L68.7603 80.2222L70.5137 77.8071C70.5792 77.7231 70.6817 77.5728 70.7657 77.446C70.8496 77.3192 70.9412 77.1856 71.0235 77.0521C71.1914 76.7868 71.3485 76.5155 71.4971 76.2409C71.7935 75.6942 72.0413 75.1215 72.2361 74.5303C72.4284 73.9442 72.5527 73.3387 72.6081 72.724C72.661 72.111 72.6283 71.4931 72.5098 70.8891C72.2663 69.6799 71.6558 68.5664 70.8303 67.6535C70.0048 66.7407 68.9829 65.9883 67.8912 65.3736C67.6174 65.2199 67.3369 65.0746 67.0514 64.9378C66.9019 64.863 66.7877 64.8118 66.6651 64.7547C66.5425 64.6976 66.4208 64.6447 66.299 64.5909C65.81 64.3776 65.3213 64.1862 64.8317 64.009C62.8725 63.3069 60.9117 62.8333 58.9534 62.4479C56.9951 62.0624 55.0418 61.7878 53.0885 61.567V61.5712Z"
    fill="black"
  />
<path
    fill-rule="evenodd"
    clip-rule="evenodd"
    d="M50.6047 98.6583C50.7769 98.497 50.9448 98.3291 51.1136 98.1628C51.1467 98.1301 51.1662 98.0856 51.1681 98.0385C51.1686 98.0159 51.1646 97.994 51.1564 97.973C51.1482 97.9529 51.1358 97.9336 51.1202 97.9176L49.6087 96.427C49.5774 96.3968 49.5358 96.38 49.4924 96.38C49.449 96.38 49.4074 96.3968 49.3761 96.427L49.1393 96.6454L49.0225 96.752L48.9108 96.8511L47.27 95.1027C47.3632 95.0188 47.4849 94.8962 47.6 94.7845C47.6562 94.7299 47.7175 94.6677 47.778 94.6064L47.9595 94.4234C48.0795 94.3041 48.203 94.1714 48.3264 94.0472L48.6958 93.6626L49.4374 92.8673L50.1781 92.0519C50.425 91.779 50.6694 91.4977 50.9146 91.2205L51.2831 90.8007L51.6485 90.3757L52.3783 89.5267L53.103 88.6643C55.0344 86.36 56.9155 83.9818 58.7697 81.5725L64.6152 86.0569C64.2507 86.5372 63.8753 87.0108 63.5067 87.4845C63.138 87.9581 62.7686 88.4393 62.3916 88.912C61.6358 89.8568 60.8901 90.804 60.1192 91.7387C58.5866 93.6122 57.0212 95.4647 55.3786 97.2811C55.3461 97.3163 55.328 97.3634 55.3283 97.4112C55.3284 97.4331 55.333 97.4557 55.342 97.4759C55.3509 97.4961 55.364 97.5145 55.3804 97.5296L55.3913 97.5397C55.9458 98.0688 56.3657 98.7229 56.6156 99.4477C56.7246 99.7819 56.7835 100.13 56.7903 100.481C56.7976 100.831 56.75 101.179 56.6493 101.514C56.5956 101.691 56.5303 101.864 56.4535 102.032C56.4141 102.116 56.3696 102.2 56.326 102.289C56.2823 102.379 56.226 102.464 56.1705 102.551C56.1151 102.637 56.0564 102.725 55.9943 102.812C55.9321 102.898 55.8691 102.984 55.7926 103.075C55.6319 103.271 55.4604 103.458 55.2787 103.635L50.6047 98.6583Z"
    fill="white"
  />
<path
    fill-rule="evenodd"
    clip-rule="evenodd"
    d="M64.8544 86.0182C64.4874 86.5061 64.1079 86.9856 63.7333 87.4685C63.3588 87.9514 62.9851 88.4351 62.6055 88.9146C61.8405 89.871 61.0847 90.8334 60.3037 91.7798C58.7519 93.6793 57.1664 95.5587 55.5003 97.3953L55.5112 97.4054C56.0872 97.9504 56.5228 98.6272 56.781 99.3771C56.9956 100.022 57.0247 100.714 56.8649 101.375C56.8152 101.573 56.7504 101.766 56.6709 101.954C56.6298 102.053 56.587 102.153 56.5332 102.255C56.4795 102.357 56.4274 102.457 56.3653 102.563C56.3031 102.669 56.2318 102.773 56.1562 102.88C56.0806 102.986 56.0042 103.091 55.9042 103.206C55.8043 103.321 55.7103 103.432 55.6036 103.547C55.5448 103.609 55.4793 103.674 55.4147 103.738L55.3156 103.835L55.1535 103.984L52.2555 100.756L50.3677 98.6566C50.5751 98.466 50.7876 98.2544 50.9975 98.0486L49.4902 96.5522L49.1937 96.8259C49.1434 96.8738 49.0988 96.9099 49.0518 96.9544L48.9813 97.0166L48.9326 97.0585L47.1069 95.0238L47.1346 94.9969L47.2094 94.9264C47.2556 94.8836 47.3202 94.8189 47.3773 94.7635L47.5529 94.5955L47.7376 94.4099C47.9811 94.1681 48.2339 93.9002 48.4833 93.6416L49.2391 92.8371L49.9949 92.0082C50.2468 91.7336 50.4987 91.4447 50.7448 91.1634L51.1201 90.7436L51.4922 90.3119L52.2353 89.447C52.4873 89.1581 52.7274 88.8591 52.9727 88.5694C54.9377 86.224 56.8549 83.8004 58.741 81.3475L64.8544 86.0182ZM64.3699 86.1022L58.793 81.8194C56.9724 84.1825 55.1224 86.5154 53.2288 88.7768L52.5183 89.6242L51.8003 90.458L51.4418 90.8779L51.0807 91.2877L50.3576 92.1056L49.6296 92.9068C49.3869 93.173 49.1434 93.4291 48.9007 93.6903C48.7789 93.8229 48.658 93.9422 48.537 94.0715L48.1743 94.4469L47.8174 94.8071L47.4756 95.143L48.9032 96.6353L49.2567 96.3103C49.3193 96.2499 49.4028 96.2163 49.4897 96.2163C49.5767 96.2163 49.6602 96.2499 49.7228 96.3103L51.2419 97.7942C51.2733 97.8252 51.2979 97.863 51.3142 97.9042C51.3306 97.9453 51.3382 97.9898 51.3368 98.0343C51.3344 98.1292 51.296 98.2191 51.2293 98.2863L50.8455 98.6625L52.5687 100.461L55.3366 103.34C55.4205 103.256 55.4886 103.172 55.5608 103.088C55.633 103.004 55.7002 102.92 55.7623 102.841C55.878 102.687 55.9856 102.528 56.0848 102.363C56.1772 102.211 56.258 102.053 56.3266 101.888C56.3932 101.733 56.4493 101.576 56.4946 101.414C56.5815 101.105 56.6203 100.786 56.6096 100.466C56.5981 100.145 56.5415 99.8255 56.4417 99.5199C56.2041 98.8187 55.8009 98.1847 55.266 97.6724L55.2585 97.6657C55.2259 97.6355 55.1999 97.5985 55.1821 97.5582C55.1643 97.517 55.1552 97.4734 55.1552 97.4289C55.1551 97.3323 55.191 97.2399 55.256 97.1685C56.875 95.3807 58.4193 93.5534 59.9334 91.7059C60.3088 91.2424 60.6892 90.7822 61.062 90.3161L62.1772 88.9171C62.5509 88.4527 62.9112 87.9791 63.2782 87.5105L64.3741 86.0989L64.3699 86.1022Z"
    fill="black"
  />
<path
    d="M47.9098 94.457L47.6724 94.6946L55.8375 102.848L56.0748 102.61L47.9098 94.457Z"
    fill="black"
  />
<path
    d="M49.6068 96.3951L49.3682 96.1592C49.4752 96.0517 49.5706 95.9341 49.6529 95.8065C49.733 95.6813 49.8005 95.5487 49.8544 95.4101C49.9074 95.2741 49.9468 95.1338 49.972 94.9902C49.9965 94.8475 50.0072 94.7022 50.0039 94.5569C49.9979 94.2638 49.9323 93.9749 49.8112 93.7079C49.6901 93.4409 49.516 93.2007 49.2993 93.0033L49.5269 92.7564C49.7769 92.9849 49.9778 93.2611 50.1176 93.5693C50.2574 93.8775 50.333 94.2109 50.3398 94.5493C50.3497 94.8844 50.2926 95.2186 50.1718 95.531C50.048 95.8552 49.8568 96.1491 49.6109 96.3943L49.6068 96.3951Z"
    fill="black"
  />
<path
    d="M54.6571 100.671C54.3824 100.672 54.1095 100.628 53.8492 100.54C53.5185 100.428 53.2181 100.241 52.9717 99.9935L53.2093 99.7558C53.4191 99.9675 53.6753 100.127 53.9576 100.223C54.2432 100.318 54.5452 100.354 54.8452 100.328C55.1619 100.301 55.4709 100.215 55.7563 100.076C56.0606 99.9246 56.3349 99.7189 56.5658 99.4695L56.8119 99.6979C56.5534 99.9767 56.2464 100.207 55.9058 100.376C55.5827 100.537 55.2322 100.635 54.8729 100.666C54.8007 100.669 54.7285 100.671 54.6571 100.671Z"
    fill="black"
  />
<path
    fill-rule="evenodd"
    clip-rule="evenodd"
    d="M57.3133 94.9222C57.144 94.7652 56.9438 94.6451 56.7255 94.5695C56.5376 94.5048 56.3353 94.4948 56.1419 94.5401C55.887 94.6123 55.6609 94.7626 55.4953 94.9692C55.1376 95.3841 54.8419 95.0146 54.1063 94.3637L50.8179 91.4565"
    fill="white"
  />
<path
    d="M55.1822 95.311C54.906 95.311 54.6532 95.0817 54.2434 94.7122C54.1661 94.6417 54.083 94.567 53.9915 94.488L50.7038 91.5808C50.6873 91.5665 50.6737 91.548 50.6641 91.5287C50.6543 91.5086 50.6486 91.4876 50.6473 91.4649C50.6459 91.4431 50.649 91.4212 50.6561 91.4002C50.6632 91.3792 50.6745 91.3599 50.6891 91.344C50.7037 91.3272 50.7214 91.3137 50.7413 91.3037C50.7611 91.2944 50.7827 91.2885 50.8047 91.2869C50.8267 91.286 50.8487 91.2886 50.8697 91.2961C50.8905 91.3028 50.9098 91.3146 50.9263 91.3289L54.214 94.2361L54.4659 94.4628C54.7884 94.7542 55.0412 94.9818 55.1906 94.9743C55.2099 94.9743 55.2679 94.9743 55.3645 94.8584C55.5526 94.6258 55.8085 94.457 56.0967 94.3755C56.3209 94.3218 56.5556 94.3335 56.7736 94.4083C57.0203 94.4922 57.2462 94.6283 57.4361 94.8071C57.4679 94.8382 57.4859 94.881 57.486 94.9255C57.4863 94.9709 57.4688 95.0137 57.4374 95.0448C57.406 95.0767 57.3633 95.0952 57.3186 95.0952C57.274 95.0952 57.2311 95.0775 57.1993 95.0465C57.0484 94.9071 56.8703 94.8013 56.6762 94.7341C56.5183 94.6787 56.3478 94.6694 56.1849 94.7072C55.964 94.7727 55.7685 94.9046 55.6248 95.0843C55.5764 95.1489 55.5153 95.2027 55.4452 95.2421C55.3751 95.2824 55.2976 95.3076 55.2175 95.316L55.1822 95.311Z"
    fill="black"
  />
<path
    fill-rule="evenodd"
    clip-rule="evenodd"
    d="M29.6919 53.9109H40.8607V69.5573H34.6465C33.3324 69.5573 32.0723 69.0353 31.1431 68.1061C30.2139 67.177 29.6919 65.9168 29.6919 64.6027V53.9109Z"
    fill="black"
  />
<path
    fill-rule="evenodd"
    clip-rule="evenodd"
    d="M59.7989 95.9828L51.015 88.5031C52.5383 86.7127 54.0381 84.861 55.517 82.9892C56.9899 81.1031 58.4561 79.2027 59.8837 77.2663L60.9628 75.8135L61.0972 75.6329L61.2189 75.465L61.4574 75.1341L61.9361 74.4732L63.079 72.9062L62.9001 72.8223C62.0781 72.462 61.2314 72.1605 60.3666 71.9204C59.416 71.6483 58.3931 71.4106 57.3367 71.2024C56.2803 70.9941 55.1869 70.8161 54.0751 70.6616C51.8506 70.3534 49.553 70.1401 47.2311 69.9898C44.9091 69.8394 42.5578 69.758 40.2031 69.7277C38.6484 69.7132 37.1561 69.1135 36.0236 68.0482C34.9009 66.9992 34.2386 65.5487 34.1812 64.0132C34.1123 62.4218 34.769 60.9539 35.8926 59.8917C37.0162 58.8294 38.6 58.1743 40.3501 58.197C42.8836 58.2298 45.4197 58.3188 47.9675 58.4817C50.5153 58.6446 53.0749 58.8797 55.6605 59.2375C56.9538 59.4163 58.2537 59.628 59.5654 59.8858C60.8771 60.1436 62.2006 60.4492 63.5459 60.833C64.9551 61.2285 66.3341 61.7259 67.671 62.3211L67.9363 62.4445L68.0816 62.5125L68.2571 62.5965C68.4897 62.7085 68.7215 62.8277 68.9516 62.9543C69.1817 63.0769 69.4067 63.2062 69.6318 63.3405C69.8568 63.4749 70.076 63.6118 70.2902 63.7604C71.1484 64.3241 71.9378 64.9867 72.6415 65.7347C72.9866 66.1026 73.3049 66.4956 73.5929 66.9104C73.881 67.3222 74.1363 67.756 74.3563 68.2078C74.7971 69.1109 75.0835 70.0818 75.2019 71.0798C75.2607 71.578 75.2792 72.0799 75.2573 72.5812C75.2321 73.0834 75.1717 73.5831 75.076 74.0769C74.8719 75.077 74.5402 76.0469 74.0884 76.9623L73.9204 77.3091C73.8608 77.4233 73.7987 77.5367 73.7365 77.65C73.6131 77.8785 73.4796 78.101 73.3435 78.3218C73.2075 78.5427 73.063 78.761 72.9169 78.9768L72.8078 79.1381L72.7347 79.2389L72.5886 79.4412L71.4196 81.0561L70.8318 81.8631L70.5379 82.2662L70.2532 82.6533L69.1363 84.1565C67.6508 86.1618 66.1231 88.1453 64.5796 90.1188C63.021 92.088 61.4398 94.0447 59.793 95.9778"
    fill="black"
  />
<path
    fill-rule="evenodd"
    clip-rule="evenodd"
    d="M84.4763 6.56025L76.638 3.82599C76.2559 3.68634 75.8402 3.66871 75.448 3.77561C75.2843 3.82255 75.1323 3.90258 75.0004 4.01074C74.8745 4.11042 74.7779 4.24167 74.72 4.39115L74.4605 5.07304L74.1834 5.74484C74.0045 6.19747 73.7988 6.63835 73.6064 7.08426C73.2008 7.96684 72.7801 8.84775 72.3191 9.69843C71.4063 11.4156 70.3851 13.0727 69.2607 14.6597C67.1076 17.678 64.6183 20.4415 61.8406 22.8969C59.0359 25.378 55.9842 27.5649 52.7334 29.4235L57.6611 38.0243C61.5006 35.8286 65.1046 33.2448 68.4167 30.3137C71.759 27.3569 74.7536 24.0293 77.3434 20.3953C78.0941 19.3316 78.8087 18.2447 79.4873 17.1345C80.1641 16.0227 80.7973 14.8839 81.3994 13.7293C82.0015 12.5746 82.5499 11.3931 83.0638 10.1964C83.5777 8.99975 84.0539 7.78966 84.4738 6.56025"
    fill="white"
  />
<path
    d="M57.6591 38.1923C57.6441 38.192 57.6291 38.19 57.6146 38.1864C57.5933 38.1806 57.5734 38.1706 57.5559 38.157C57.5385 38.1435 57.5239 38.1267 57.513 38.1075L52.5853 29.5067C52.5743 29.4875 52.5672 29.4664 52.5644 29.4445C52.5615 29.4227 52.5631 29.4004 52.5688 29.3792C52.5746 29.3579 52.5845 29.338 52.598 29.3205C52.6115 29.303 52.6283 29.2884 52.6474 29.2774C55.8881 27.4257 58.9303 25.2463 61.7261 22.7735C64.4942 20.3264 66.9747 17.5725 69.1211 14.5648C70.2397 12.9833 71.2575 11.3323 72.1678 9.62201C72.5667 8.88386 72.9622 8.08021 73.4509 7.01876C73.5114 6.87852 73.5752 6.73492 73.639 6.59132C73.7692 6.29657 73.9044 5.99173 74.0245 5.68858L74.3025 5.01173L74.5603 4.33405C74.6283 4.15703 74.7425 4.00142 74.8911 3.8831C75.0389 3.76091 75.2102 3.67055 75.395 3.61773C75.8207 3.50034 76.2725 3.51856 76.6882 3.6698L84.5265 6.40405C84.5685 6.41875 84.6029 6.4494 84.6222 6.48937C84.6416 6.52935 84.6441 6.57537 84.6298 6.61735C84.2653 7.68385 83.8161 8.84355 83.2157 10.2644C82.7219 11.4149 82.176 12.5738 81.5462 13.8082C80.8962 15.0536 80.2698 16.1704 79.6282 17.2243C78.9287 18.3664 78.2006 19.4665 77.4784 20.4944C74.8811 24.1391 71.8781 27.4763 68.5258 30.4413C65.2038 33.3798 61.5895 35.9703 57.7397 38.1721C57.715 38.1857 57.6872 38.1926 57.6591 38.1923ZM52.9607 29.4857L57.7212 37.7942C61.4955 35.6217 65.0405 33.0733 68.3024 30.1877C71.6354 27.2396 74.6216 23.9217 77.2038 20.2979C77.9269 19.2759 78.6457 18.1817 79.3418 17.0472C79.9784 16 80.6015 14.889 81.2481 13.6512C81.8729 12.4251 82.4162 11.273 82.9066 10.1309C83.4735 8.78729 83.9059 7.67965 84.2578 6.66354L76.5824 3.98387C76.2339 3.85614 75.8543 3.83977 75.4958 3.93684C75.3538 3.97623 75.2211 4.04492 75.1078 4.13838C75.0036 4.22009 74.9239 4.32792 74.876 4.45077L74.6165 5.13266L74.3377 5.81119C74.216 6.11938 74.0799 6.42673 73.9481 6.72484C73.8843 6.8676 73.8213 7.01036 73.7591 7.15312C73.2662 8.22717 72.8673 9.0367 72.4659 9.78073C71.5489 11.5033 70.5235 13.166 69.3966 14.7588C67.2359 17.7875 64.738 20.5609 61.9511 23.0254C59.1795 25.4761 56.1674 27.6405 52.9607 29.4857Z"
    fill="black"
  />
<path
    fill-rule="evenodd"
    clip-rule="evenodd"
    d="M78.7014 5.04784L79.0045 4.18709C79.1019 3.89821 79.1926 3.6085 79.2867 3.31878L79.4278 2.88463L79.5571 2.44711L79.8149 1.57124C79.9828 0.944782 79.6872 0.3284 79.1565 0.194038C78.6258 0.0605168 78.0648 0.436729 77.9061 1.0338C77.5139 2.41545 77.0664 3.77704 76.5625 5.11838"
    fill="white"
  />
<path
    d="M76.5607 5.28885C76.5405 5.28885 76.5204 5.28516 76.5019 5.27794C76.4809 5.27021 76.4624 5.25845 76.4456 5.24334C76.4297 5.22822 76.4171 5.21017 76.4078 5.19001C76.3986 5.16986 76.3935 5.14811 76.3927 5.12602C76.3919 5.10394 76.3952 5.08194 76.4036 5.06128C76.9008 3.74622 77.3517 2.37405 77.7472 0.990968C77.9295 0.307404 78.5811 -0.124231 79.2009 0.0319638C79.3377 0.0681574 79.4654 0.131391 79.5771 0.21797C79.6896 0.304465 79.7828 0.412542 79.8525 0.535819C80.0364 0.865592 80.0826 1.25474 79.9802 1.61827L79.5913 2.93585L79.4494 3.3742L79.3512 3.6782C79.2907 3.86714 79.2303 4.05609 79.1673 4.24335L78.8633 5.10663C78.8473 5.14719 78.8162 5.18002 78.7768 5.19816C78.7373 5.2163 78.692 5.21831 78.6508 5.20379C78.6097 5.18934 78.5761 5.15945 78.5568 5.12048C78.5366 5.08152 78.5333 5.03651 78.5467 4.99494L78.849 4.13419C78.9111 3.95028 78.9716 3.76301 79.0321 3.57575L79.1303 3.27007L79.2706 2.83676L79.6568 1.52757C79.7349 1.25213 79.7014 0.956874 79.5628 0.70629C79.5158 0.621474 79.4528 0.547155 79.3764 0.487616C79.3 0.428162 79.2118 0.384831 79.1186 0.36031C78.6768 0.249462 78.2074 0.572768 78.0714 1.0825C77.675 2.47986 77.2215 3.85874 76.7219 5.1822C76.7093 5.21445 76.6866 5.242 76.6581 5.26106C76.6287 5.28012 76.5951 5.28986 76.5607 5.28885Z"
    fill="black"
  />
<path
    fill-rule="evenodd"
    clip-rule="evenodd"
    d="M78.7012 5.04784L79.0043 4.18709C79.1017 3.89821 79.1924 3.6085 79.2865 3.31878L79.4276 2.88462L79.5569 2.44711L79.8147 1.57124C79.9826 0.948981 80.5461 0.552614 81.0743 0.686976C81.6025 0.821337 81.8948 1.45704 81.7209 2.10701L81.4531 3.01647L81.3187 3.47078L81.1726 3.92173C81.0743 4.22236 80.9803 4.52383 80.8795 4.82363L80.5646 5.71797"
    fill="white"
  />
<path
    d="M80.5671 5.88592C80.5478 5.88576 80.5285 5.88265 80.5108 5.87669C80.4688 5.86182 80.4344 5.831 80.4151 5.79078C80.3958 5.75064 80.3933 5.70454 80.4084 5.66255L80.7233 4.76736C80.788 4.57674 80.8501 4.38276 80.9122 4.18793L81.0155 3.86966L81.1608 3.41955L81.5622 2.05998C81.6462 1.76825 81.6126 1.45502 81.4673 1.18831C81.4211 1.1061 81.3598 1.03396 81.2859 0.976273C81.2112 0.918497 81.1264 0.876426 81.0357 0.852409C80.594 0.741561 80.1187 1.08418 79.9767 1.61743L79.5879 2.93501L79.446 3.37336L79.3478 3.67736C79.2873 3.8663 79.2268 4.05525 79.1639 4.24252L78.8599 5.10579C78.8439 5.14635 78.8128 5.17918 78.7734 5.19732C78.7331 5.21546 78.6886 5.21747 78.6474 5.20295C78.6063 5.1885 78.5727 5.15861 78.5525 5.11964C78.5332 5.08068 78.5298 5.03567 78.5433 4.9941L78.8456 4.13335C78.9077 3.94944 78.9682 3.76217 79.0287 3.57491L79.1269 3.26923L79.2671 2.83592L79.6534 1.52674C79.8415 0.820498 80.4991 0.370387 81.118 0.526582C81.2515 0.562104 81.3775 0.624163 81.4875 0.709062C81.5975 0.794046 81.689 0.900191 81.757 1.0212C81.9477 1.36659 81.9938 1.77379 81.8855 2.15319L81.4816 3.52116L81.3346 3.97631C81.3002 4.08212 81.2666 4.18793 81.2322 4.29374C81.1692 4.4894 81.1062 4.68507 81.0407 4.88157L80.725 5.77759C80.7124 5.80959 80.6905 5.83713 80.6628 5.85645C80.6343 5.87585 80.6007 5.88609 80.5671 5.88592Z"
    fill="black"
  />
<path
    fill-rule="evenodd"
    clip-rule="evenodd"
    d="M80.5669 5.71797L80.8818 4.82363C80.9826 4.52383 81.0766 4.22236 81.1749 3.92173L81.321 3.47078L81.4554 3.01647L81.7232 2.10701C81.8912 1.46123 82.4656 1.04555 82.9963 1.18327C83.527 1.32099 83.8117 1.97181 83.632 2.64613L83.3541 3.58918L83.2147 4.06029L83.0635 4.52803C82.9619 4.84042 82.8636 5.15281 82.7587 5.46353L82.432 6.3923"
    fill="white"
  />
<path
    d="M82.4322 6.55689C82.4129 6.55681 82.3944 6.55336 82.3768 6.54681C82.3348 6.53195 82.3004 6.50113 82.2811 6.46091C82.2618 6.42077 82.2592 6.37466 82.2744 6.33267L82.601 5.40474C82.669 5.20152 82.7354 4.99494 82.8017 4.7892L82.9042 4.47261L83.0553 4.0057L83.4752 2.59491C83.5206 2.44224 83.5357 2.28201 83.5189 2.12355C83.5029 1.965 83.455 1.81133 83.3795 1.67117C83.3358 1.58955 83.2762 1.51758 83.204 1.45989C83.1317 1.40211 83.0486 1.35971 82.9596 1.33527C82.5187 1.22442 82.0359 1.5872 81.8897 2.14312L81.4858 3.51109L81.3389 3.96623C81.3044 4.07204 81.2708 4.17785 81.2364 4.28366C81.1734 4.47933 81.1104 4.67499 81.0449 4.87149L80.7292 5.76752C80.7225 5.78943 80.7116 5.80976 80.6973 5.82739C80.683 5.84494 80.6645 5.85939 80.6444 5.8698C80.6242 5.8803 80.6024 5.88643 80.5797 5.88802C80.5562 5.88962 80.5335 5.88651 80.5125 5.87895C80.4907 5.87148 80.4705 5.85964 80.4538 5.84419C80.437 5.82873 80.4235 5.81009 80.4143 5.78927C80.405 5.76853 80.4 5.74602 80.4 5.72318C80.3992 5.70042 80.4034 5.67775 80.4126 5.65667L80.7275 4.76149C80.7922 4.57086 80.8543 4.37604 80.9173 4.18205C80.9509 4.07624 80.9853 3.96959 81.0197 3.86378L81.165 3.41367L81.5664 2.0541C81.7613 1.32435 82.423 0.854928 83.0419 1.01112C83.1737 1.04631 83.2972 1.10753 83.4047 1.19117C83.5122 1.27481 83.602 1.37919 83.6692 1.49818C83.7674 1.67714 83.8288 1.87364 83.8514 2.07652C83.8733 2.27941 83.8556 2.48465 83.7985 2.68056L83.3786 4.09892L83.2258 4.57086C83.1914 4.67583 83.1578 4.7808 83.1242 4.88577C83.057 5.09319 82.9907 5.30145 82.921 5.50803L82.5935 6.43848C82.5825 6.47291 82.5615 6.50298 82.5322 6.52431C82.5028 6.54564 82.4683 6.55706 82.4322 6.55689Z"
    fill="black"
  />
<path
    fill-rule="evenodd"
    clip-rule="evenodd"
    d="M76.1441 6.18404C76.2046 6.0354 76.2675 5.88844 76.3255 5.73896L76.4934 5.29053C76.606 4.99074 76.726 4.6943 76.8293 4.39031C77.0368 3.80248 76.7823 3.18778 76.2583 3.01479C75.7343 2.8418 75.1616 3.16007 74.9642 3.71934C74.4973 5.01148 73.975 6.28036 73.3989 7.52597"
    fill="white"
  />
<path
    d="M73.3997 7.69392C73.3754 7.69376 73.351 7.68838 73.3292 7.67797C73.309 7.6689 73.2906 7.65597 73.2755 7.63984C73.2603 7.62372 73.2486 7.60483 73.241 7.58417C73.2326 7.56343 73.2293 7.54142 73.2301 7.51934C73.2309 7.49725 73.236 7.47559 73.2452 7.45543C73.8146 6.22938 74.3369 4.95295 74.8055 3.66224C75.0322 3.01983 75.7074 2.65453 76.3103 2.85523C76.4472 2.90134 76.574 2.97448 76.6824 3.07046C76.7907 3.16636 76.878 3.28309 76.941 3.41367C77.0166 3.57424 77.0594 3.74823 77.067 3.92551C77.0754 4.10278 77.0476 4.27989 76.9872 4.44658C76.9158 4.65652 76.8352 4.86646 76.7571 5.07136C76.721 5.16373 76.6857 5.2561 76.6505 5.34932L76.4825 5.79943C76.4447 5.896 76.4052 5.99089 76.3658 6.08663L76.3003 6.24702C76.2835 6.28834 76.2507 6.32134 76.2096 6.33872C76.1684 6.3561 76.1222 6.35652 76.0811 6.33981C76.0399 6.3231 76.0072 6.29069 75.9896 6.24962C75.9719 6.20864 75.9719 6.16237 75.9887 6.12106C76.0106 6.06647 76.0332 6.01189 76.0559 5.95814C76.0945 5.86577 76.1323 5.77256 76.1684 5.67934L76.3364 5.23091C76.3716 5.1377 76.4069 5.04449 76.443 4.95043C76.5203 4.74973 76.6001 4.54231 76.6689 4.33657C76.7151 4.21186 76.7369 4.0791 76.7319 3.94608C76.7269 3.81306 76.695 3.68231 76.6395 3.56147C76.5959 3.4712 76.5354 3.39041 76.4607 3.3239C76.3859 3.25739 76.2986 3.20659 76.2045 3.17434C75.7746 3.03242 75.2884 3.30283 75.1212 3.77477C74.6518 5.0764 74.1236 6.36123 73.5501 7.59651C73.5366 7.62532 73.5156 7.64967 73.4888 7.66697C73.4619 7.68418 73.4308 7.6935 73.3997 7.69392Z"
    fill="black"
  />
<path
    fill-rule="evenodd"
    clip-rule="evenodd"
    d="M82.4326 6.38894C82.6006 5.9086 82.7769 5.43245 82.9272 4.94791C83.0776 4.46337 83.243 3.98303 83.3815 3.49513C83.4689 3.18526 83.6553 2.91251 83.9123 2.71835C84.0172 2.62741 84.1432 2.564 84.2784 2.53369C84.4144 2.50337 84.5555 2.50715 84.689 2.54461C84.8226 2.58214 84.9452 2.65226 85.0451 2.74867C85.145 2.84507 85.2198 2.96482 85.2618 3.09708C85.3743 3.40746 85.381 3.74647 85.2811 4.06113C85.1375 4.56498 84.9729 5.06884 84.8108 5.56597C84.6487 6.06311 84.4749 6.56193 84.2986 7.05907"
    fill="white"
  />
<path
    d="M84.2984 7.22702C84.2791 7.22719 84.2606 7.22408 84.243 7.21778C84.222 7.21056 84.2027 7.19922 84.1859 7.18453C84.1699 7.16983 84.1565 7.15203 84.1464 7.13213C84.1372 7.11222 84.1313 7.09064 84.1305 7.06864C84.1288 7.04655 84.1321 7.02447 84.1397 7.00364C84.1884 6.86508 84.2371 6.72568 84.2867 6.58376C84.4101 6.23358 84.5386 5.87165 84.6503 5.51307L84.7107 5.32664C84.8501 4.89669 84.9946 4.45245 85.1197 4.01158C85.2079 3.73211 85.2028 3.43148 85.1054 3.15503C85.0727 3.04687 85.013 2.94878 84.9324 2.86976C84.851 2.79074 84.7519 2.73339 84.6427 2.70299C84.5344 2.67267 84.4193 2.67015 84.3093 2.69593C84.1993 2.72163 84.0977 2.7747 84.0137 2.85019C83.7853 3.02193 83.6199 3.26386 83.5435 3.5388C83.4234 3.95868 83.2857 4.38695 83.1521 4.79843L83.0883 4.99662C82.98 5.34344 82.8565 5.69278 82.7365 6.03036C82.6886 6.1664 82.6399 6.30328 82.592 6.44016C82.5769 6.48224 82.5467 6.51683 82.5064 6.53632C82.4661 6.55571 82.4199 6.55849 82.3779 6.54387C82.3359 6.52926 82.3015 6.49861 82.2821 6.45847C82.2628 6.41841 82.2595 6.37223 82.2746 6.33016C82.3225 6.19244 82.3712 6.05555 82.4199 5.91783C82.5383 5.58193 82.6609 5.23763 82.7675 4.89501L82.8322 4.69431C82.9649 4.28618 83.1018 3.86378 83.221 3.44558C83.3184 3.0996 83.5267 2.79536 83.8147 2.57979C83.9407 2.47407 84.0902 2.40067 84.2505 2.36607C84.4109 2.33139 84.578 2.33652 84.7359 2.38102C84.8938 2.42545 85.0391 2.50791 85.1575 2.62111C85.2767 2.73439 85.3666 2.87497 85.4186 3.03074C85.5454 3.37656 85.5539 3.75445 85.443 4.10563C85.317 4.54987 85.1718 4.99746 85.0307 5.43077L84.9711 5.61468C84.8585 5.97746 84.7292 6.34275 84.6041 6.69545C84.5545 6.83376 84.5058 6.97366 84.458 7.11533C84.4462 7.14825 84.4244 7.17663 84.3958 7.1967C84.3673 7.21669 84.3328 7.22727 84.2984 7.22702Z"
    fill="black"
  />
<path
    fill-rule="evenodd"
    clip-rule="evenodd"
    d="M52.929 28.1076C52.929 28.1076 50.214 29.9139 46.5703 30.5337C45.2704 30.7554 46.6543 32.0217 46.2235 33.3343C45.7927 34.6468 45.7709 36.2079 46.2537 37.769C46.4805 38.5142 46.8655 39.2017 47.3826 39.7842C47.8998 40.3668 48.5366 40.8306 49.2497 41.144C49.9628 41.4575 50.7352 41.6131 51.5141 41.6002C52.2929 41.5873 53.0597 41.4062 53.762 41.0693C55.5457 40.2178 57.2812 39.2909 58.9685 38.2889L52.929 28.1076Z"
    fill="black"
  />
<path
    fill-rule="evenodd"
    clip-rule="evenodd"
    d="M53.8804 57.8015C53.9007 58.0181 53.8755 58.2367 53.8064 58.4431C53.7373 58.6495 53.6261 58.8392 53.4795 59.0001C53.333 59.161 53.1544 59.2896 52.9554 59.3776C52.7564 59.4656 52.5412 59.5112 52.3236 59.5112H27.4886C27.0968 59.5112 26.7183 59.3692 26.4232 59.1114C26.1282 58.8537 25.9365 58.4978 25.8838 58.1097L27.1695 35.6251C27.0849 34.9908 27.1368 34.3456 27.3217 33.7329C27.5066 33.1202 27.8203 32.5541 28.2416 32.0724C28.663 31.5907 29.1824 31.2045 29.765 30.9397C30.3477 30.6749 30.9801 30.5376 31.6202 30.537H47.8669C48.0817 30.5378 48.2963 30.5516 48.5094 30.5782C51.7786 30.9788 54.1249 33.9372 53.8729 37.2182L53.8804 57.8015Z"
    fill="#2945FF"
  />
<path
    fill-rule="evenodd"
    clip-rule="evenodd"
    d="M46.5702 30.5337C46.5702 28.425 44.0442 26.3584 40.9278 26.3584C37.8115 26.3584 35.98 28.425 35.98 30.5337C35.98 32.6751 38.359 34.4612 39.2349 35.1725C39.3203 35.2415 39.4282 35.2764 39.5379 35.2705C39.6475 35.2646 39.7511 35.2184 39.8286 35.1406L40.9925 33.9767L42.1522 32.8161L43.191 33.8239L44.4103 35.0088C44.4601 35.0571 44.5205 35.0932 44.5867 35.114C44.6529 35.1348 44.723 35.1398 44.7916 35.1287C44.8601 35.1175 44.925 35.0904 44.9811 35.0496C45.0373 35.0088 45.0831 34.9554 45.1149 34.8937C45.607 33.9381 46.5693 32.2124 46.5693 30.5328"
    fill="#2945FF"
  />
<path
    fill-rule="evenodd"
    clip-rule="evenodd"
    d="M41.7323 35.7536L40.539 34.5612L42.1984 32.9026L43.8578 34.5612L42.6561 35.757L43.8208 39.2898L46.5668 30.5337H35.98L41.2705 39.3511L41.7323 35.7603C41.732 35.7581 41.732 35.7558 41.7323 35.7536Z"
    fill="#2945FF"
  />
<path
    fill-rule="evenodd"
    clip-rule="evenodd"
    d="M44.0546 49.9951L42.6564 35.757L43.853 34.5612L42.1937 32.9026L40.5343 34.5612L41.7268 35.7536C41.7268 35.7536 41.7268 35.7578 41.7268 35.7603L39.8188 50.0556C39.8188 50.0556 41.7595 52.6378 42.1047 52.616C42.4758 52.5925 44.0546 49.9951 44.0546 49.9951Z"
    fill="black"
  />
<path
    d="M39.5145 35.3976C39.3838 35.3977 39.2571 35.3526 39.1559 35.2699L38.9997 35.1448C37.9786 34.3244 35.854 32.618 35.854 30.5337C35.854 30.5003 35.8673 30.4683 35.8909 30.4446C35.9146 30.421 35.9465 30.4077 35.98 30.4077C36.0134 30.4077 36.0454 30.421 36.0691 30.4446C36.0927 30.4683 36.1059 30.5003 36.1059 30.5337C36.1059 32.497 38.1667 34.1522 39.1576 34.9483L39.3147 35.0743C39.3752 35.1227 39.4514 35.1471 39.5289 35.1429C39.6064 35.1388 39.6795 35.1063 39.7345 35.0516L42.0682 32.7271C42.0919 32.704 42.1237 32.691 42.1568 32.691C42.1899 32.691 42.2217 32.704 42.2454 32.7271L44.5035 34.9189C44.5391 34.9537 44.5824 34.9795 44.6299 34.9944C44.6774 35.0093 44.7277 35.0129 44.7768 35.0046C44.8258 34.9965 44.8723 34.9768 44.9123 34.9474C44.9525 34.9179 44.985 34.8794 45.0074 34.8349L45.1157 34.6267C45.6137 33.6685 46.4484 32.0646 46.4484 30.532C46.4484 30.4986 46.4617 30.4666 46.4853 30.4429C46.5089 30.4193 46.5409 30.406 46.5744 30.406C46.6078 30.406 46.6398 30.4193 46.6635 30.4429C46.6871 30.4666 46.7003 30.4986 46.7003 30.532C46.7003 32.1275 45.848 33.7642 45.3391 34.7426C45.3013 34.8156 45.2652 34.8845 45.2316 34.9508C45.1912 35.0308 45.1325 35.1003 45.0603 35.1534C44.988 35.2064 44.9042 35.2417 44.8157 35.2563C44.7272 35.2708 44.6365 35.2643 44.551 35.2373C44.4656 35.2101 44.3877 35.1632 44.3238 35.1003L42.1522 32.9925L39.9151 35.2296C39.8091 35.3365 39.665 35.3969 39.5145 35.3976Z"
    fill="black"
  />
<path
    d="M49.3538 44.535H46.9101C46.3634 44.5343 45.8393 44.3169 45.4527 43.9304C45.0662 43.544 44.8485 43.0201 44.8477 42.4734V38.4534H51.4154V42.4734C51.4147 43.02 51.1973 43.5439 50.8108 43.9304C50.4243 44.3169 49.9003 44.5343 49.3538 44.535ZM45.0996 38.7054V42.4734C45.1003 42.9533 45.2912 43.4133 45.6306 43.7526C45.9701 44.0918 46.4302 44.2826 46.9101 44.2831H49.3538C49.8336 44.2824 50.2934 44.0915 50.6327 43.7522C50.9719 43.4131 51.1628 42.9531 51.1635 42.4734V38.7054H45.0996Z"
    fill="black"
  />
<path d="M42.2304 52.616H41.9785V59.5112H42.2304V52.616Z" fill="black" />
<path
    fill-rule="evenodd"
    clip-rule="evenodd"
    d="M81.6406 57.5622L81.6599 50.0816C81.6599 49.3695 81.1242 48.7808 80.4658 48.7674C78.4655 48.7439 76.461 48.5658 74.4598 48.3592C73.956 48.2963 73.4605 48.2249 72.9609 48.1577C72.4612 48.0905 71.9641 48.0326 71.4602 47.9377L69.9646 47.6858L69.5909 47.6219L69.2181 47.5464L68.4732 47.3935C67.8451 47.2625 67.2136 47.1416 66.5913 46.9879L65.6525 46.7654L65.183 46.6545C65.0268 46.6184 64.8698 46.5815 64.7153 46.5378L62.8477 46.034L62.6142 45.971L62.3824 45.9021L61.9206 45.7652L60.9968 45.4889C58.5263 44.7309 56.0828 43.868 53.6666 42.9C51.2503 41.932 48.8724 40.8709 46.5328 39.7164C44.1927 38.5654 41.8959 37.3262 39.6426 35.9988L35.6118 42.8664C35.3867 43.2476 35.5689 43.7809 36.0316 44.042C40.7937 46.7866 45.7468 49.1858 50.8525 51.2211C53.4155 52.2322 56.0218 53.1402 58.6715 53.9453L59.6658 54.2418L60.1638 54.3904C60.3317 54.4399 60.4997 54.4811 60.6676 54.5273L62.6763 55.0664C64.0267 55.3889 65.3737 55.7256 66.7416 55.9901C70.2367 56.7075 73.7771 57.1844 77.3377 57.4177L78.4143 57.4824L78.9525 57.5143L79.4934 57.5277L78.9525 57.5143L78.4143 57.4824L77.3377 57.4177C77.3142 57.6651 77.3536 57.9144 77.4519 58.1427C77.5502 58.3709 77.7038 58.571 77.8995 58.7244C78.1036 58.8846 78.3345 59.0071 78.5814 59.0863C78.7149 59.1316 78.8518 59.1656 78.9912 59.1879C79.139 59.2089 79.2876 59.2213 79.4363 59.2249C80.0476 59.2375 80.6052 59.1048 81.0066 58.8294C81.2123 58.6916 81.3803 58.5036 81.4928 58.2833C81.6062 58.0629 81.6616 57.8174 81.6541 57.5697"
    fill="white"
  />
<path
    d="M79.5034 59.3844H79.4194C79.2632 59.3807 79.1078 59.3678 78.9533 59.3458C78.8047 59.3223 78.6577 59.2861 78.5158 59.2375C78.2496 59.152 78.0002 59.0197 77.7802 58.847C77.5853 58.6947 77.4283 58.5003 77.3191 58.2786C77.2108 58.0568 77.1537 57.8133 77.1529 57.5664C73.6385 57.3287 70.1451 56.8551 66.6945 56.1489C65.533 55.9263 64.3682 55.645 63.2413 55.3746L62.624 55.226L60.6086 54.686L60.4348 54.6398C60.3231 54.6104 60.2122 54.581 60.0989 54.5474L58.6117 54.1015C55.9807 53.3029 53.3455 52.3851 50.7792 51.3731C45.6672 49.3335 40.7076 46.9309 35.9382 44.184C35.8022 44.1089 35.6825 44.0075 35.5859 43.8858C35.4893 43.7643 35.4179 43.6247 35.3755 43.4752C35.3421 43.3592 35.3324 43.2376 35.3468 43.1178C35.3613 42.9979 35.3996 42.8822 35.4595 42.7774L39.4904 35.9107C39.5129 35.8724 39.5498 35.8446 39.5928 35.8334C39.6142 35.8278 39.6365 35.8264 39.6584 35.8295C39.6803 35.8325 39.7014 35.8399 39.7204 35.851C41.9878 37.1854 44.3055 38.4341 46.5989 39.5628C48.9603 40.7267 51.3561 41.7949 53.7243 42.7421C56.1436 43.7087 58.6058 44.5787 61.0419 45.3252L62.6643 45.8106L64.7637 46.3732C64.9157 46.416 65.0719 46.4522 65.2222 46.4874L66.6357 46.8233C67.101 46.9409 67.5771 47.0375 68.0373 47.1298L68.5134 47.2273L69.6303 47.4565L71.4937 47.7739C71.8708 47.8445 72.2554 47.8957 72.6266 47.9419L72.9868 47.9898L73.5595 48.0678C73.8677 48.1098 74.1759 48.1518 74.4833 48.1913C76.3937 48.3878 78.4436 48.5742 80.4699 48.5977C81.2198 48.6129 81.8295 49.2779 81.8303 50.0799L81.811 57.5605C81.8186 57.8352 81.7564 58.1073 81.6305 58.3515C81.5045 58.5957 81.3189 58.804 81.0905 58.957C80.6874 59.2341 80.1273 59.3844 79.5034 59.3844ZM77.4879 57.5865C77.4913 57.78 77.5383 57.9701 77.6257 58.1428C77.713 58.3155 77.8381 58.4663 77.9918 58.5842C78.1799 58.7326 78.3932 58.8463 78.6216 58.9201C78.7459 58.9622 78.8735 58.994 79.0028 59.0149C79.1431 59.0354 79.285 59.0472 79.4278 59.0502C80.0156 59.0628 80.5379 58.9327 80.899 58.6841C81.0821 58.5622 81.2316 58.3953 81.3323 58.1994C81.4323 58.0034 81.481 57.7849 81.4734 57.5647L81.4927 50.0841C81.4927 49.4644 81.03 48.9504 80.4632 48.9387C78.4243 48.9143 76.3652 48.7279 74.443 48.5297C74.1297 48.4902 73.8207 48.4457 73.5117 48.4054L72.939 48.3282L72.5795 48.2795C72.2042 48.2291 71.8154 48.1779 71.4324 48.1056L69.5656 47.7882L68.4429 47.5581L67.9684 47.4607C67.504 47.3675 67.0237 47.2701 66.5534 47.1508L65.1475 46.8149C64.9888 46.778 64.8301 46.7402 64.6722 46.6965L62.5728 46.133L60.9445 45.646C58.4983 44.8961 56.0277 44.0236 53.6 43.0528C51.2235 42.1039 48.8192 41.0307 46.4545 39.8617C44.2022 38.7532 41.9299 37.5297 39.6986 36.2231L35.7517 42.9453C35.714 43.0116 35.6901 43.0848 35.6813 43.1606C35.6726 43.2363 35.679 43.313 35.7005 43.3862C35.7313 43.4928 35.783 43.5921 35.8525 43.6786C35.922 43.7651 36.0079 43.837 36.1053 43.89C40.8613 46.6293 45.8073 49.0248 50.9052 51.0582C53.4631 52.0659 56.089 52.9821 58.7108 53.7774L60.2022 54.2224C60.3088 54.2544 60.4163 54.2829 60.5238 54.3115L60.7001 54.3585L62.7072 54.8976L63.321 55.0446C64.4438 55.315 65.6052 55.5946 66.7642 55.8163C70.2526 56.5313 73.7854 57.0074 77.3385 57.2414L78.9525 57.3379L79.4865 57.3505C79.5311 57.3505 79.5739 57.3683 79.605 57.3998C79.6369 57.4312 79.6545 57.474 79.6545 57.5185C79.6545 57.563 79.6369 57.6057 79.605 57.6372C79.5739 57.6687 79.5311 57.6865 79.4865 57.6865L78.9466 57.673L77.4879 57.5865Z"
    fill="black"
  />
<path
    fill-rule="evenodd"
    clip-rule="evenodd"
    d="M42.8535 36.2499C40.9864 35.2221 39.1543 34.139 37.3573 33.0009C35.8734 32.0612 30.1446 28.1051 26.9191 32.9001C23.6935 37.6951 29.3544 41.9426 31.0179 42.9965C33.0266 44.2679 35.0678 45.4741 37.1414 46.6151L42.8535 36.2499Z"
    fill="black"
  />
<path
    fill-rule="evenodd"
    clip-rule="evenodd"
    d="M40.4402 23.613H38.8592C37.5244 23.613 36.4424 22.531 36.4424 21.1962V20.0184C36.4424 18.6836 37.5244 17.6015 38.8592 17.6015H40.4402V23.613Z"
    fill="black"
  />
<path
    fill-rule="evenodd"
    clip-rule="evenodd"
    d="M46.8489 20.6961C46.8489 22.99 44.7236 24.8498 42.1019 24.8498C39.4802 24.8498 37.355 22.99 37.355 20.6961C37.355 18.4021 39.4802 16.2065 42.1019 16.2065C44.7236 16.2065 46.8489 18.4021 46.8489 20.6961Z"
    fill="black"
  />
<path
    fill-rule="evenodd"
    clip-rule="evenodd"
    d="M47.2396 23.0073C47.2396 23.7138 46.6668 24.2866 45.9604 24.2866C45.2539 24.2866 44.6812 23.7138 44.6812 23.0073C44.6812 22.3008 45.2539 21.7281 45.9604 21.7281C46.6668 21.7281 47.2396 22.3008 47.2396 23.0073Z"
    fill="white"
  />
<path
    fill-rule="evenodd"
    clip-rule="evenodd"
    d="M45.9603 21.8961C45.3475 21.8961 44.8491 22.3946 44.8491 23.0073C44.8491 23.6201 45.3475 24.1186 45.9603 24.1186C46.5731 24.1186 47.0716 23.6201 47.0716 23.0073C47.0716 22.3946 46.5731 21.8961 45.9603 21.8961ZM45.9603 24.4545C45.1624 24.4545 44.5132 23.8053 44.5132 23.0073C44.5132 22.2094 45.1624 21.5602 45.9603 21.5602C46.7582 21.5602 47.4075 22.2094 47.4075 23.0073C47.4075 23.8053 46.7582 24.4545 45.9603 24.4545Z"
    fill="black"
  />
<path
    fill-rule="evenodd"
    clip-rule="evenodd"
    d="M41.669 31.3625C40.077 31.3625 38.6094 30.1417 38.6094 28.6841L39.9622 23.6739C39.9622 22.2163 39.5732 21.0347 41.1651 21.0347H42.8446C44.4365 21.0347 44.0475 22.2163 44.0475 23.6739V28.7233C44.0475 30.1809 43.2609 31.3625 41.669 31.3625Z"
    fill="white"
  />
<path
    fill-rule="evenodd"
    clip-rule="evenodd"
    d="M38.7774 28.7059C38.7919 30.0342 40.1369 31.1946 41.6689 31.1946C43.2988 31.1946 43.8795 29.9181 43.8795 28.7233V23.6739C43.8795 23.418 43.8911 23.1747 43.9024 22.9395C43.9332 22.2923 43.9599 21.7334 43.6928 21.4534C43.5319 21.2847 43.2545 21.2026 42.8446 21.2026H41.1651C40.7552 21.2026 40.4777 21.2847 40.3168 21.4534C40.0498 21.7334 40.0764 22.2923 40.1073 22.9395C40.1185 23.1747 40.1302 23.418 40.1302 23.6739V23.6962L38.7774 28.7059ZM41.6689 31.5305C39.9495 31.5305 38.4414 30.2004 38.4414 28.6841V28.6619L39.7942 23.6517C39.7936 23.4117 39.7825 23.1798 39.7718 22.9554C39.7372 22.2312 39.7074 21.6058 40.0737 21.2216C40.3014 20.9828 40.6584 20.8667 41.1651 20.8667H42.8446C43.3513 20.8667 43.7083 20.9828 43.9359 21.2216C44.3023 21.6058 44.2724 22.2312 44.2378 22.9554C44.2268 23.1868 44.2154 23.426 44.2154 23.6739V28.7233C44.2154 30.4286 43.2159 31.5305 41.6689 31.5305Z"
    fill="black"
  />
<path
    fill-rule="evenodd"
    clip-rule="evenodd"
    d="M42.6429 26.9901C41.1761 26.9901 39.8525 26.1201 39.2708 24.7738L39.2161 24.6474C38.4132 22.7889 39.2719 20.6237 41.1304 19.8207C41.5943 19.6203 42.0836 19.5187 42.5849 19.5187C44.0517 19.5187 45.3754 20.3887 45.957 21.735L46.0116 21.8614C46.4006 22.7617 46.4156 23.7596 46.0541 24.6712C45.6925 25.5828 44.9976 26.2991 44.0974 26.6881C43.6335 26.8885 43.1441 26.9901 42.6429 26.9901Z"
    fill="white"
  />
<path
    fill-rule="evenodd"
    clip-rule="evenodd"
    d="M42.5851 19.3508H42.585C42.0607 19.3508 41.549 19.457 41.0639 19.6665C40.1225 20.0733 39.3957 20.8223 39.0177 21.7757C38.6395 22.729 38.6553 23.7725 39.0621 24.714L39.1167 24.8404C39.725 26.2483 41.1092 27.158 42.6431 27.158C43.1674 27.158 43.6792 27.0518 44.1641 26.8422C46.1076 26.0025 47.0057 23.7383 46.166 21.7948L46.1114 21.6684C45.5032 20.2605 44.119 19.3508 42.5851 19.3508ZM42.5851 19.6867C43.9406 19.6867 45.2313 20.4781 45.803 21.8016L45.8576 21.928C46.6251 23.7043 45.8072 25.7664 44.031 26.5339C43.5782 26.7295 43.1068 26.8221 42.6431 26.8221C41.2875 26.8221 39.9969 26.0306 39.4251 24.7072L39.3705 24.5808C38.603 22.8045 39.4209 20.7424 41.1972 19.9749C41.6499 19.7793 42.1213 19.6867 42.5851 19.6867Z"
    fill="black"
  />
<path
    fill-rule="evenodd"
    clip-rule="evenodd"
    d="M39.204 24.2865C38.4975 24.2865 37.9248 23.7138 37.9248 23.0073C37.9248 22.3008 38.4975 21.7281 39.204 21.7281C39.2924 21.7281 39.3785 21.7371 39.4618 21.7541"
    fill="white"
  />
<path
    fill-rule="evenodd"
    clip-rule="evenodd"
    d="M39.204 24.4545C38.4061 24.4545 37.7568 23.8053 37.7568 23.0073C37.7568 22.2094 38.4061 21.5602 39.204 21.5602C39.302 21.5602 39.4001 21.5701 39.4955 21.5896C39.5863 21.6082 39.6449 21.6969 39.6264 21.7878C39.6077 21.8786 39.5191 21.9372 39.4281 21.9187C39.3549 21.9037 39.2795 21.8961 39.204 21.8961C38.5912 21.8961 38.0927 22.3945 38.0927 23.0073C38.0927 23.6201 38.5912 24.1186 39.204 24.1186C39.2967 24.1186 39.3719 24.1938 39.3719 24.2865C39.3719 24.3793 39.2967 24.4545 39.204 24.4545Z"
    fill="black"
  />
<path
    fill-rule="evenodd"
    clip-rule="evenodd"
    d="M44.8863 21.2295H43.8726C41.7888 21.2295 40.0996 19.9111 40.0996 18.2848V18.1994H42.9072C44.0002 18.1994 44.8863 18.8909 44.8863 19.744V21.2295Z"
    fill="black"
  />
<path
    d="M40.0531 22.0849C40.7024 22.0849 41.2288 21.5585 41.2288 20.9092C41.2288 20.2599 40.7024 19.7335 40.0531 19.7335C39.4038 19.7335 38.8774 20.2599 38.8774 20.9092C38.8774 21.5585 39.4038 22.0849 40.0531 22.0849Z"
    fill="black"
  />
<path
    fill-rule="evenodd"
    clip-rule="evenodd"
    d="M43.1731 24.4355H43.808C43.9831 24.4355 44.1127 24.181 44.0736 23.914L43.8062 22.0884C43.7442 21.6648 43.3642 21.6411 43.2807 22.0556L42.9132 23.8812C42.8579 24.1559 42.989 24.4355 43.1731 24.4355Z"
    fill="#2945FF"
  />
<path
    fill-rule="evenodd"
    clip-rule="evenodd"
    d="M46.1048 21.497C46.3622 21.497 46.5718 21.7008 46.5815 21.9558L46.5818 21.9741V24.0837C46.5818 24.1207 46.5778 24.1567 46.5701 24.1913L46.5614 24.257C46.4528 25.0406 45.8311 28.2194 42.8976 28.2194C39.8192 28.2194 39.2867 24.8489 39.2212 24.3098C39.2161 24.2866 39.2134 24.2624 39.2134 24.2375V21.9741C39.2134 21.7106 39.4269 21.497 39.6904 21.497C39.9539 21.497 40.1675 21.7106 40.1675 21.9741L40.1675 23.8671C40.1675 24.3007 40.4656 24.9098 40.9331 25.4525C40.8669 24.9416 40.8759 24.389 41.1202 24.0483C41.2798 23.8256 41.5217 23.708 41.8197 23.708C42.3373 23.708 42.6476 23.8298 42.8902 23.945L43.0642 24.0294C43.3192 24.1504 43.5042 24.1971 44.0132 23.9637L44.0441 23.9493C44.6281 23.6757 44.9826 23.6344 45.2295 23.8114C45.5488 24.0403 45.5154 24.5045 45.4449 25.1455C45.6226 24.7408 45.6414 24.3846 45.6365 24.2058C45.6322 24.184 45.6294 24.1617 45.6283 24.1389L45.6277 24.116V21.9741C45.6277 21.7106 45.8413 21.497 46.1048 21.497ZM44.286 24.3925L44.2579 24.4056C43.5105 24.7559 43.1809 24.6481 42.7635 24.4435L42.7223 24.4234C42.5019 24.3162 42.2628 24.2118 41.8197 24.2118C41.6454 24.2118 41.5731 24.2813 41.5296 24.3418C41.3074 24.6516 41.4061 25.4305 41.562 26.0523C41.7997 26.2369 42.0571 26.3943 42.3256 26.5082L42.8848 25.949C43.0556 25.7781 43.3328 25.7781 43.5037 25.949L44.0609 26.5061C44.3914 26.3409 44.6533 26.1545 44.8607 25.9602C44.874 25.7428 44.895 25.5349 44.9162 25.3418L44.9521 25.0141C44.9857 24.6922 45.0156 24.2993 44.9418 24.2259L44.9348 24.2203C44.9219 24.2133 44.7935 24.1588 44.286 24.3925Z"
    fill="black"
  />
<path
    fill-rule="evenodd"
    clip-rule="evenodd"
    d="M43.3295 25.3921C42.8905 25.3921 42.4517 25.225 42.1175 24.8908C42.052 24.8252 42.052 24.7189 42.1175 24.6533C42.1831 24.5877 42.2894 24.5877 42.355 24.6533C42.8923 25.1906 43.7667 25.1906 44.3039 24.6533C44.3695 24.5877 44.4759 24.5877 44.5414 24.6533C44.6071 24.7189 44.6071 24.8252 44.5414 24.8908C44.2074 25.225 43.7683 25.3921 43.3295 25.3921Z"
    fill="black"
  />
<path
    fill-rule="evenodd"
    clip-rule="evenodd"
    d="M42.3313 22.4495C42.1152 22.4703 41.9231 22.312 41.9022 22.0959C41.8814 21.8798 42.0397 21.6877 42.2558 21.6668C42.4719 21.646 42.664 21.8043 42.6848 22.0205C42.7057 22.2365 42.5474 22.4287 42.3313 22.4495Z"
    fill="black"
  />
<path
    fill-rule="evenodd"
    clip-rule="evenodd"
    d="M44.466 22.4495C44.2499 22.4703 44.0578 22.312 44.037 22.0959C44.0161 21.8798 44.1745 21.6877 44.3905 21.6668C44.6067 21.646 44.7988 21.8043 44.8196 22.0205C44.8405 22.2365 44.6821 22.4287 44.466 22.4495Z"
    fill="black"
  />
</svg>
