<svg width="20" height="20" viewBox="0 0 20 20" fill="none" xmlns="http://www.w3.org/2000/svg">
<path fill-rule="evenodd" clip-rule="evenodd" d="M16.6667 14.5003C16.6667 14.4078 16.6609 14.3162 16.6492 14.227L12.7984 13.3428C12.7225 13.4895 12.6392 13.6495 12.5609 13.797C12.1817 14.522 11.91 15.0487 11.205 14.7662C8.45002 13.7995 6.20085 11.5503 5.22169 8.76116C4.92419 8.10783 5.49085 7.81116 6.20919 7.43533C6.35502 7.35949 6.51252 7.27699 6.65669 7.20116L5.77335 3.35116C5.68085 3.33866 5.59085 3.33366 5.50002 3.33366C4.30585 3.33366 3.33335 4.30533 3.33335 5.49949C3.33335 11.657 8.34252 16.667 14.5 16.667C15.695 16.667 16.6667 15.6953 16.6667 14.5003ZM18.28 13.8653C18.315 14.072 18.3334 14.2845 18.3334 14.5003C18.3334 16.6137 16.6142 18.3337 14.5 18.3337C7.42419 18.3337 1.66669 12.5762 1.66669 5.49949C1.66669 3.38616 3.38585 1.66699 5.50002 1.66699C5.71669 1.66699 5.93085 1.68533 6.13835 1.72116C6.34085 1.75366 6.54502 1.80533 6.74252 1.87366C7.01419 1.96783 7.21752 2.19449 7.28169 2.47449L8.42252 7.44449C8.48585 7.71783 8.40669 8.00533 8.21169 8.20783C8.09835 8.32699 8.09585 8.32949 7.06252 8.86949C7.89919 10.682 9.35335 12.1303 11.1284 12.9395C11.6709 11.9053 11.6734 11.902 11.7917 11.7878C11.995 11.5937 12.2809 11.5162 12.555 11.577L17.525 12.7178C17.805 12.782 18.0325 12.9862 18.1259 13.257C18.1942 13.4528 18.2467 13.657 18.28 13.8653ZM10.8334 3.33366C14.0492 3.33366 16.6667 5.95033 16.6667 9.16699C16.6667 9.62699 17.0392 10.0003 17.5 10.0003C17.9609 10.0003 18.3334 9.62699 18.3334 9.16699C18.3334 5.03116 14.9692 1.66699 10.8334 1.66699C10.3734 1.66699 10 2.03949 10 2.50033C10 2.96033 10.3734 3.33366 10.8334 3.33366ZM10 5.83366C10 5.37283 10.3734 5.00033 10.8334 5.00033C13.1309 5.00033 15 6.86949 15 9.16699C15 9.62699 14.6275 10.0003 14.1667 10.0003C13.7059 10.0003 13.3334 9.62699 13.3334 9.16699C13.3334 7.78783 12.2117 6.66699 10.8334 6.66699C10.3734 6.66699 10 6.29366 10 5.83366Z" fill="#279AED"/>
</svg>
