<svg width="122" height="122" viewBox="0 0 122 122" fill="none" xmlns="http://www.w3.org/2000/svg">
<path d="M96.1011 42.4642L96.0926 42.4443C95.4834 41.5314 94.8164 40.6584 94.0958 39.8306C93.8677 39.5712 93.655 39.3382 93.4452 39.1182L93.4199 39.0917L93.3866 39.1027C88.9234 34.8888 83.4232 34.4037 78.2956 37.7717L78.2817 37.781L78.2748 37.7961C78.1732 38.0193 78.1024 38.2553 78.0642 38.4976L78.0589 38.546C78.052 38.611 78.0447 38.6753 78.0353 38.7428C78.0278 38.8353 78.0251 38.9282 78.0272 39.021C78.0288 39.0501 78.0243 39.0792 78.0139 39.1065C78.0035 39.1337 77.9875 39.1585 77.967 39.1792L77.9544 39.1914L77.9507 39.208C77.6965 40.3691 77.1374 41.319 76.3391 41.9551C75.7196 42.4574 74.9467 42.7324 74.1492 42.7342C73.7611 42.7326 73.3754 42.6719 73.0056 42.5541C72.756 42.4743 72.5207 42.3553 72.3086 42.2015C72.0394 42.0775 71.6766 41.9477 71.2513 42.0494C70.9552 42.121 70.6921 42.2662 70.4953 42.3845C69.5666 42.9683 68.6913 43.6329 67.8796 44.3707L67.871 44.3804C67.3523 45.1283 66.9276 45.9371 66.6063 46.7887C65.4209 49.8912 65.5864 51.9367 65.7791 54.31C65.8178 54.7858 65.8576 55.2775 65.8861 55.7874C65.8908 55.9203 65.9293 56.0497 65.9979 56.1636L66.0288 56.2128L66.078 56.1815C66.1455 56.1377 66.2037 56.0812 66.2497 56.0152C66.3688 55.8525 66.4343 55.6398 66.4489 55.3645L66.3757 54.7085C66.3757 54.7 66.3757 54.691 66.3729 54.6805L66.3558 54.5219C66.354 54.5035 66.3553 54.4849 66.3599 54.467C66.3599 54.4263 66.3599 54.3856 66.3656 54.3324C66.3875 54.0412 66.4912 53.7431 66.6734 53.4458C66.7339 53.349 66.8006 53.2562 66.8731 53.1681L66.9272 53.0835C67.1439 52.7468 67.39 52.3653 67.3168 51.857C67.2985 51.7293 67.2858 51.6272 67.2761 51.5341C67.2633 51.4381 67.2587 51.3413 67.2623 51.2445C67.2643 51.2234 67.2655 51.2039 67.2671 51.1807V51.1717C67.269 51.124 67.2742 51.0764 67.2826 51.0294L67.329 50.8208L67.4058 50.6175C67.4213 50.5767 67.44 50.5372 67.4619 50.4995C67.4745 50.4768 67.4867 50.4536 67.4965 50.4337C67.6296 50.1944 67.8032 49.9802 68.0097 49.8005C68.0751 49.7391 68.1448 49.6825 68.2183 49.6313C68.2533 49.6057 68.2879 49.5805 68.3168 49.5573L68.3981 49.506C68.481 49.4516 68.5667 49.4014 68.6547 49.3556C68.8344 49.2612 69.0069 49.1905 69.1732 49.1217L69.183 49.1177C69.2354 49.0961 69.2883 49.0746 69.3395 49.0526C69.7702 48.8863 70.2244 48.7366 70.7287 48.5947C71.4263 48.4031 72.1344 48.2518 72.8495 48.1417C73.0292 48.1035 73.2155 48.0542 73.3163 47.9091C73.3794 47.8208 73.3977 47.7139 73.3724 47.5784L73.368 47.5671C73.3088 47.4524 73.2564 47.3344 73.211 47.2137C73.1232 46.9796 73.0714 46.7337 73.0573 46.4841C73.0419 46.2259 73.077 45.9672 73.1606 45.7224C73.2475 45.4778 73.3807 45.2522 73.553 45.0579C73.7242 44.8682 73.9268 44.7094 74.152 44.5886C74.3729 44.4683 74.6121 44.3852 74.86 44.3426C75.1077 44.2979 75.3609 44.2934 75.6099 44.3292C75.8529 44.3609 76.0907 44.4243 76.3171 44.5179C76.5387 44.6074 76.7509 44.7186 76.9507 44.8497C77.3663 45.1157 77.7234 45.4382 78.017 45.7188C78.3106 45.9994 78.5863 46.2881 78.8564 46.5728C79.1996 46.9306 79.5233 47.2686 79.873 47.5894C80.605 48.2677 81.2964 48.7008 81.9836 48.9143C82.0194 48.9237 82.0548 48.9339 82.0906 48.9444C82.1504 48.9619 82.2126 48.9798 82.2793 48.9936L82.592 49.062C82.6632 49.0774 82.7343 49.09 82.8051 49.1026L82.9092 49.1213C83.0178 49.1417 83.1251 49.1592 83.2272 49.1726C83.6912 49.2462 84.1589 49.2807 84.5143 49.3027C84.7152 49.3141 84.921 49.321 85.141 49.3247C85.7181 49.3149 86.5115 49.2226 86.738 48.5325C86.9474 47.8948 86.1918 47.2047 85.6916 46.748L85.5953 46.6602C85.4147 46.5061 85.2292 46.358 85.1016 46.2572C85.0557 46.2188 85.0265 46.1642 85.0201 46.1047C85.0136 46.0453 85.0304 45.9857 85.067 45.9383C85.1035 45.891 85.1569 45.8597 85.2161 45.8509C85.2752 45.8421 85.3355 45.8565 85.3842 45.8912C85.6497 46.0888 85.9608 46.3263 86.2561 46.5898C86.5111 46.8094 86.7685 47.0538 87.0658 47.3592C87.1935 47.4918 87.3178 47.6258 87.4387 47.761L87.4492 47.7692C87.4782 47.7877 87.5109 47.7994 87.5449 47.8036C87.579 47.8077 87.6136 47.8042 87.6461 47.7932C87.762 47.7525 87.8653 47.6163 87.9551 47.3832C88.0983 46.8494 88.3321 46.3442 88.6465 45.8896C89.2768 44.9685 90.1918 44.1848 91.2939 43.6236C92.396 43.0624 93.5712 42.7977 94.6924 42.8461C94.8376 42.853 94.9852 42.866 95.1341 42.8843L95.4533 42.8875C95.494 42.8875 95.5419 42.8928 95.5907 42.8973C95.7392 42.9111 95.9075 42.927 96.0206 42.8709C96.1239 42.8168 96.1483 42.685 96.1011 42.4642Z" fill="#1A8CE7"/>
<path d="M93.0274 58.7344C92.6117 58.6238 92.1595 58.669 91.7224 58.7125C91.6191 58.7226 91.517 58.7328 91.417 58.7405C90.9656 58.7763 90.5146 58.8114 90.064 58.8459C89.4568 58.9146 88.8358 58.9736 88.1644 59.0264C86.38 59.1708 84.7976 59.1891 83.3251 59.0797C82.5161 59.022 81.7109 58.9208 80.9127 58.7767C80.1946 58.647 79.4219 58.4652 78.5504 58.2216C78.3837 58.1761 78.2178 58.1285 78.0523 58.0813C77.4374 57.9061 76.8567 57.7401 76.2739 57.6661C75.7859 57.6316 75.0921 57.6393 74.7257 58.109L74.72 58.1163V58.1252C74.7147 58.2447 74.741 58.3635 74.7961 58.4697C76.4776 61.8044 78.1938 64.3761 80.0474 66.3314C80.8265 66.8796 81.914 67.5233 83.1336 67.5233C83.5389 67.5236 83.941 67.4509 84.3206 67.3086C85.0473 67.037 85.6984 66.5738 86.3275 66.1256C86.4589 66.0321 86.5898 65.939 86.7204 65.8479C87.4472 65.3409 88.175 64.8339 88.9037 64.3269L90.1388 63.3338C91.2437 62.3416 92.3397 61.3326 93.3995 60.3294C93.4401 60.2688 93.4808 60.2074 93.5316 60.1395L93.5723 60.0821C93.7297 59.8682 93.8781 59.6665 93.787 59.3574C93.6683 58.9431 93.216 58.7836 93.0274 58.7344Z" fill="#1A8CE7"/>
<path d="M44.0286 64.5266L40.1556 55.6438L40.0527 55.4368L39.9506 55.2335L39.9469 55.2193C39.9396 55.1904 39.9323 55.1607 39.9225 55.1318L39.9063 55.0826L39.8896 55.0322L35.7253 45.4808C35.7057 45.4363 35.6824 45.3934 35.6558 45.3527L35.6538 45.3495H35.6501C35.6261 45.3377 35.6021 45.3267 35.5785 45.3165C35.5619 45.2758 35.5421 45.2363 35.5196 45.1986L35.5167 45.1953C35.3626 45.0595 35.1636 44.9859 34.9582 44.9887C34.7529 44.9916 34.5559 45.0707 34.4057 45.2108L29.3663 49.9184C28.7355 50.5109 28.3157 51.2933 28.1707 52.1465L27.7091 54.9057C27.5407 55.9025 27.0503 56.8167 26.313 57.5084L18.4237 64.8906L18.4164 64.8975L18.4204 64.9069C19.9154 68.3709 21.41 71.835 22.9044 75.2992L25.797 82.0044C25.8784 82.2019 26.0279 82.3637 26.2183 82.4606L26.2272 82.4651L43.7005 66.1126C43.9117 65.9141 44.0565 65.6553 44.1153 65.3715C44.174 65.0877 44.1437 64.7926 44.0286 64.5266ZM35.4386 66.3631C35.5195 66.433 35.5848 66.5191 35.6302 66.6159C35.6757 66.7127 35.7003 66.8179 35.7024 66.9248C35.7046 67.0316 35.6842 67.1378 35.6427 67.2363C35.6012 67.3348 35.5394 67.4234 35.4614 67.4965L32.2333 70.529C32.0922 70.6628 31.9051 70.7372 31.7107 70.7368C31.625 70.7373 31.5398 70.7236 31.4586 70.6962C31.3267 70.6505 31.2099 70.5694 31.1209 70.4619C31.032 70.3543 30.9744 70.2243 30.9543 70.0862L30.6152 67.804C30.609 67.7617 30.5879 67.723 30.5557 67.6949C30.5234 67.6669 30.4822 67.6513 30.4395 67.6511H30.4297C30.0737 67.6758 29.7166 67.6202 29.385 67.4884C28.6961 67.2139 28.1752 66.6344 27.9181 65.8589C27.6611 65.0834 27.6998 64.2017 28.0271 63.3806C28.2416 62.84 28.5767 62.3554 29.0068 61.9638C29.0245 61.9454 29.0438 61.9287 29.0645 61.9138C29.9047 61.1936 30.9421 60.9785 31.8392 61.3339C33.1153 61.843 33.7546 63.3575 33.3597 64.9349L33.3227 65.0821C33.3164 65.1076 33.3187 65.1345 33.3292 65.1585C33.3397 65.1826 33.3579 65.2025 33.3809 65.2151L35.3056 66.2725C35.3431 66.2933 35.3786 66.3174 35.4118 66.3444L35.4386 66.3631Z" fill="#1C64D0"/>
<path d="M21.106 77.6197V77.61L16.6965 67.4953C16.5623 67.1865 16.5066 66.8493 16.5341 66.5138C16.5616 66.1782 16.6716 65.8546 16.8543 65.5718L16.8587 65.56C16.8659 65.5271 16.8811 65.4965 16.9031 65.471C17.1747 65.1456 17.4557 64.8065 17.6704 64.4246C18.2125 62.9911 17.8392 61.7341 16.6725 61.0627C16.3319 60.867 15.9528 60.748 15.5615 60.714C15.1702 60.68 14.7761 60.7318 14.4069 60.8659C14.0438 61.0749 13.7181 61.3429 13.4741 61.5535L12.9893 62.0062C12.9858 62.0107 12.9826 62.0155 12.9796 62.0204L12.9735 62.0293C12.948 62.0723 12.9095 62.106 12.8637 62.1257L9.23538 65.5031C9.06641 65.6595 8.95167 65.8657 8.90779 66.0917C8.86392 66.3177 8.89319 66.5518 8.99138 66.7601V66.7686L9.00317 66.7812C9.03496 66.8153 9.06892 66.8472 9.10484 66.8768C9.10972 66.9036 9.11582 66.9313 9.12436 66.9659L9.13086 66.9797C9.14533 66.9999 9.16138 67.0189 9.17885 67.0366L19.6859 78.3172L19.6956 78.3277L19.7099 78.3302C19.7241 78.3326 19.7383 78.3346 19.7546 78.3367C19.8286 78.4229 19.9039 78.5091 19.9815 78.5969L19.9897 78.6034C20.2629 78.7726 20.5545 78.9357 20.8368 78.9796C20.8818 78.9871 20.9273 78.991 20.973 78.9914C21.121 78.9914 21.23 78.9442 21.2983 78.8507C21.5366 78.5213 21.1426 77.7482 21.1259 77.7157C21.111 77.686 21.1042 77.6529 21.106 77.6197Z" fill="#1A8CE7"/>
<path d="M28.8502 47.3662L28.8477 47.3633C27.9449 46.3641 26.9844 45.7651 25.9925 45.5821C25.0222 45.4032 24.0902 45.6435 23.2203 46.297L13.0947 55.1408L13.0447 55.1843L13.1106 55.1912C13.166 55.1965 13.2218 55.1953 13.2769 55.1876C14.7816 54.9993 16.6608 56.2604 17.6628 57.5426C18.7051 58.8744 19.5237 60.4299 20.2533 61.909C20.2896 61.9859 20.343 62.0535 20.4094 62.1066L20.4289 62.1221L21.1959 61.4031L25.8669 57.0318C26.4993 56.438 26.92 55.6534 27.0645 54.798L27.5314 52.0392C27.6498 51.3399 27.9281 50.6774 28.3447 50.1034L28.3492 50.0945C28.3608 50.0549 28.3813 50.0185 28.409 49.9879L28.4297 49.9648C28.8107 49.5398 29.243 49.0579 29.2495 48.454C29.2503 48.1087 29.1243 47.7635 28.8502 47.3662Z" fill="#1EA7F2"/>
<path d="M60.4855 43.1681C60.3315 43.0481 60.1703 42.9375 60.0028 42.8371C60.9245 41.5969 61.3251 40.0456 61.1191 38.5141C60.913 36.9827 60.1167 35.5924 58.8999 34.6399C56.3281 32.6237 52.5941 33.0775 50.5779 35.6493C49.8972 36.5168 49.4734 37.5578 49.3546 38.6541C48.4228 37.9042 47.4853 37.1604 46.5421 36.4227C45.7863 35.8301 45.0272 35.2414 44.2648 34.6566C43.5068 34.0686 42.7394 33.4899 41.9765 32.9079C40.4474 31.7459 38.9072 30.5978 37.3559 29.4635C35.8025 28.3305 34.2413 27.2101 32.6488 26.1288C32.442 25.9898 32.1904 25.9342 31.9443 25.9732C31.6983 26.0122 31.4761 26.1428 31.3225 26.3389C31.1688 26.5349 31.095 26.7819 31.1159 27.0301C31.1369 27.2783 31.251 27.5094 31.4353 27.677C31.842 28.0438 32.2524 28.408 32.6667 28.7697L28.5276 34.0498C28.4148 34.1935 28.3314 34.358 28.2823 34.5339C28.2332 34.7098 28.2192 34.8937 28.2412 35.075C28.2632 35.2563 28.3208 35.4315 28.4106 35.5906C28.5005 35.7496 28.6208 35.8894 28.7647 36.0018L33.493 39.7062C33.7377 39.8972 34.0391 40.0011 34.3495 40.0014C34.4056 40.0012 34.4616 39.9981 34.5174 39.9921C34.8829 39.9472 35.2159 39.7595 35.4434 39.4699L39.3994 34.4211C39.6817 34.6513 39.9643 34.8839 40.2477 35.1125C40.9956 35.7143 41.741 36.3207 42.4934 36.9168C43.2457 37.513 43.998 38.1137 44.7528 38.7062C45.6927 39.4436 46.6372 40.1756 47.586 40.9022C46.5548 41.2803 45.6496 41.9389 44.9724 42.8038C42.9574 45.3767 43.41 49.1095 45.983 51.1258C47.2005 52.0791 48.7423 52.5189 50.2795 52.3513C51.8167 52.1837 53.2276 51.422 54.211 50.2287C54.349 50.3673 54.4951 50.4975 54.6486 50.6187C55.4773 51.2719 56.5019 51.627 57.5571 51.6268C57.7505 51.6269 57.9438 51.615 58.1358 51.591C58.7532 51.5182 59.3501 51.3236 59.8917 51.0184C60.4333 50.7132 60.909 50.3035 61.2911 49.8131C62.8999 47.7574 62.5388 44.7769 60.4855 43.1681ZM52.1183 48.4019C51.7341 48.8918 51.2134 49.2568 50.6218 49.4507C50.0302 49.6447 49.3944 49.6589 48.7948 49.4916C48.1952 49.3242 47.6586 48.9829 47.2529 48.5107C46.8472 48.0385 46.5906 47.4566 46.5155 46.8386C46.4404 46.2206 46.5503 45.5942 46.8311 45.0386C47.112 44.483 47.5512 44.0232 48.0934 43.7172C48.6355 43.4112 49.2562 43.2727 49.877 43.3194C50.4978 43.3661 51.0908 43.5958 51.5811 43.9794C52.2381 44.4952 52.6637 45.2506 52.7644 46.0798C52.8651 46.909 52.6328 47.7443 52.1183 48.4023V48.4019ZM52.7641 37.3634C53.0184 37.0367 53.3351 36.7637 53.6957 36.5605C54.0564 36.3572 54.4538 36.2276 54.865 36.1792C54.9928 36.163 55.1216 36.1548 55.2505 36.1547C55.9627 36.1561 56.6535 36.3987 57.2102 36.8431C57.7668 37.2874 58.1564 37.9073 58.3155 38.6016C58.4746 39.2958 58.3937 40.0235 58.0861 40.6659C57.7785 41.3083 57.2622 41.8275 56.6216 42.1388C55.981 42.4501 55.2538 42.5351 54.5586 42.38C53.8634 42.2249 53.2414 41.8388 52.7938 41.2848C52.3463 40.7307 52.0997 40.0413 52.0943 39.329C52.0889 38.6168 52.325 37.9238 52.7641 37.363V37.3634ZM56.028 45.6878C56.1856 45.4854 56.3817 45.3162 56.6051 45.1901C56.8285 45.0639 57.0746 44.9834 57.3294 44.953C57.4088 44.9434 57.4888 44.9383 57.5689 44.9379C58.0108 44.9387 58.4395 45.0893 58.7849 45.365C59.1303 45.6407 59.372 46.0253 59.4708 46.4561C59.5695 46.8869 59.5193 47.3384 59.3285 47.737C59.1376 48.1356 58.8173 48.4578 58.4198 48.651C58.0224 48.8441 57.5711 48.897 57.1398 48.8008C56.7085 48.7046 56.3224 48.465 56.0447 48.1213C55.767 47.7775 55.6139 47.3497 55.6105 46.9078C55.6071 46.4659 55.7536 46.0358 56.026 45.6878H56.028Z" fill="#9BE8FC"/>
<path d="M68.6332 35.3842L67.5962 35.3651C67.453 35.348 67.2843 35.3244 67.183 35.217C67.1361 35.1638 67.1008 35.1013 67.0793 35.0336L66.693 32.7673C66.6788 32.694 66.6368 32.629 66.5758 32.5858C66.5149 32.5427 66.4396 32.5248 66.3657 32.5359C66.2919 32.547 66.2252 32.5862 66.1795 32.6453C66.1339 32.7044 66.1128 32.7788 66.1208 32.8531L66.497 35.7494V35.7546C66.5081 35.8377 66.5499 35.9136 66.6142 35.9673C66.6784 36.0211 66.7605 36.0488 66.8442 36.045L68.6405 35.9637C68.7154 35.96 68.786 35.9275 68.8374 35.8728C68.8888 35.8181 68.917 35.7456 68.916 35.6706C68.915 35.5956 68.8849 35.5239 68.8321 35.4706C68.7792 35.4173 68.7078 35.3866 68.6328 35.385L68.6332 35.3842Z" fill="black"/>
<path d="M113.345 30.816C112.144 29.4513 109.644 29.4143 105.916 30.7062C102.462 31.9031 98.0466 34.2272 93.1466 37.4297C93.0979 37.4615 93.058 37.5052 93.0307 37.5566C93.0034 37.608 92.9896 37.6655 92.9905 37.7237C92.3731 37.1374 91.7213 36.5885 91.0385 36.0799C90.3834 35.5898 89.6915 35.1509 88.9689 34.7672C88.2422 34.3874 87.4757 34.0637 86.6623 33.8632C86.2521 33.7607 85.8332 33.6971 85.411 33.6733C84.9832 33.6588 84.5552 33.6945 84.1357 33.7798C83.3106 33.9425 82.5351 34.2272 81.7884 34.5578C81.0467 34.8908 80.3245 35.2656 79.6254 35.6806C79.0154 36.0405 78.4273 36.4179 77.8474 36.8266C77.4562 36.3683 77.1227 35.866 76.8926 35.3243C76.7586 35.0119 76.6641 34.6841 76.6111 34.3483C76.5852 34.1841 76.5724 34.0181 76.5729 33.8518C76.5729 33.7705 76.5786 33.6891 76.5855 33.6078C76.59 33.5671 76.5949 33.5301 76.6006 33.4919L76.6042 33.4781C77.4176 32.7164 78.1158 31.8148 78.5997 30.7941C79.0999 29.7445 79.3724 28.5647 79.2911 27.3781C79.2523 26.7823 79.1149 26.1972 78.8844 25.6465C78.6526 25.0917 78.3175 24.5859 77.897 24.1561C77.4764 23.7263 76.9801 23.378 76.433 23.1284C75.955 22.9111 75.4502 22.7581 74.932 22.6733C74.7969 22.3585 74.6268 22.0599 74.4249 21.7832C74.1819 21.4549 73.8993 21.158 73.5835 20.8991C72.9572 20.383 72.2317 20.0137 71.4745 19.7681C70.713 19.5176 69.9136 19.4017 69.1122 19.4257C69.0105 19.4281 68.9089 19.4383 68.8076 19.4464C68.7063 19.4546 68.6132 19.466 68.516 19.479C68.3204 19.5046 68.126 19.5347 67.9329 19.5717C67.5433 19.6442 67.1596 19.7452 66.7848 19.8739C66.0325 20.1284 65.3241 20.5139 64.6852 20.9584C64.0463 21.4029 63.4628 21.8901 62.8459 22.2651C62.5437 22.452 62.2223 22.606 61.8873 22.7246C61.5542 22.8402 61.2084 22.9152 60.8573 22.9478C60.1513 23.0174 59.4209 22.9352 58.7019 22.7852L58.695 22.7827C58.6638 22.7766 58.6319 22.7751 58.6003 22.7783C58.5552 22.7817 58.5113 22.7939 58.471 22.8143C58.4307 22.8347 58.3949 22.8629 58.3655 22.8972C58.3362 22.9315 58.3139 22.9713 58.2999 23.0143C58.286 23.0572 58.2807 23.1025 58.2843 23.1475C58.3005 23.3509 58.325 23.5249 58.3538 23.7112C58.3827 23.8974 58.4185 24.0772 58.4579 24.2565C58.5367 24.6193 58.6376 24.9768 58.7601 25.3273C58.9621 25.9253 59.2418 26.4942 59.5921 27.0194C59.6957 27.1546 59.8075 27.2834 59.9268 27.4049C60.0998 27.5837 60.2834 27.7518 60.4766 27.9084C60.671 28.067 60.8748 28.2174 61.0866 28.3557C61.2974 28.4958 61.5152 28.6249 61.7393 28.7424L61.743 28.7449C61.7566 28.7517 61.7688 28.7612 61.7787 28.7728C61.7887 28.7844 61.7961 28.7979 61.8008 28.8125C61.8054 28.827 61.8071 28.8424 61.8057 28.8576C61.8042 28.8728 61.7998 28.8876 61.7926 28.901C61.7798 28.9255 61.7586 28.9446 61.733 28.9548C61.7073 28.965 61.6788 28.9657 61.6527 28.9568C61.4021 28.8711 61.1564 28.7719 60.9166 28.6595C60.843 28.6249 60.7389 28.5712 60.6291 28.5123C60.5711 28.481 60.5059 28.4659 60.4401 28.4683C60.3743 28.4708 60.3103 28.4908 60.2548 28.5263C60.1994 28.5619 60.1544 28.6115 60.1246 28.6703C60.0948 28.729 60.0813 28.7946 60.0854 28.8604C60.2017 30.4012 60.9419 31.8136 62.0903 32.7083C62.1576 32.7803 62.2381 32.8389 62.3274 32.8807C62.6225 33.0828 62.9397 33.2507 63.2729 33.3809C63.2924 33.4549 63.3099 33.5301 63.3294 33.6041C63.5399 34.3772 63.7946 35.1376 64.0923 35.8815C64.1618 36.0665 64.2521 36.2532 64.3318 36.4394C64.4115 36.6257 64.5112 36.8054 64.6039 36.988C64.8072 37.3434 65.0146 37.6989 65.2704 38.025L65.3631 38.147L65.464 38.2662C65.5311 38.3451 65.597 38.426 65.6673 38.5024C65.8133 38.6529 65.9544 38.8046 66.1147 38.9412C66.428 39.2239 66.7756 39.4661 67.1492 39.6623C67.9051 40.0584 68.7532 40.245 69.6055 40.2027C70.0121 40.1794 70.4147 40.11 70.8056 39.9957C70.8086 40.0051 70.8121 40.0144 70.8161 40.0234L71.3855 41.1214C70.4143 41.633 66.5799 43.8103 64.9487 47.0823C63.5425 49.9017 64.098 53.1575 64.5876 56.029C64.7043 56.7154 64.8158 57.3681 64.8942 57.981C64.8938 57.9824 64.8938 57.984 64.8942 57.9854C65.0378 59.1034 65.0724 60.0781 64.8328 60.8398C64.2485 60.7276 63.6637 60.621 63.0793 60.5125C62.4128 60.3876 61.7458 60.2648 61.0769 60.1501C60.5767 60.009 60.1289 59.6825 59.754 59.266C59.379 58.8496 59.0626 58.3527 58.7723 57.8366C58.4819 57.3205 58.2306 56.7764 57.9134 56.2242C57.7494 55.9408 57.5565 55.675 57.338 55.4312C57.1084 55.172 56.834 54.9564 56.5279 54.7947C56.2107 54.6321 55.8219 54.5414 55.4364 54.606C55.0543 54.6698 54.707 54.8666 54.4559 55.1615C54.2204 55.4397 54.0602 55.7737 53.9907 56.1314C53.9227 56.4732 53.9212 56.8249 53.9862 57.1672C54 57.2486 54.02 57.334 54.0407 57.4161C54.0615 57.4983 54.0814 57.5678 54.1046 57.6442C54.1485 57.7947 54.1973 57.9452 54.2493 58.0944C54.2831 58.1871 54.3189 58.2786 54.3547 58.3697C53.9364 58.1234 53.5454 57.8336 53.1879 57.5052C52.5629 56.922 51.7548 56.6544 51.0281 56.7886C50.6406 56.8555 50.2865 57.0502 50.0224 57.3417C49.2136 56.7398 48.1855 56.7236 47.5011 57.3474C46.6849 58.0904 46.5381 59.632 47.9838 61.447C47.924 61.5407 47.874 61.6403 47.8346 61.7443C47.7582 61.949 47.7156 62.1647 47.7085 62.3831C47.7028 62.8114 47.8195 63.2152 47.9887 63.5706C48.1586 63.9171 48.373 64.24 48.6263 64.5311C48.873 64.8207 49.1501 65.083 49.4527 65.3136C49.7443 65.5389 50.0484 65.7476 50.3636 65.9386C50.9829 66.3136 51.622 66.6548 52.2782 66.9606C52.9264 67.2684 53.5795 67.5543 54.2379 67.8296C55.5621 68.4152 56.8406 68.9545 58.0679 69.4372C54.6267 73.9467 49.5792 81.5774 52.2119 84.5717C52.8252 85.2695 53.7874 85.6205 55.0846 85.6205C55.7512 85.6205 56.508 85.5265 57.351 85.3415C59.6495 84.8344 62.5295 83.6587 65.9125 81.8442C72.8352 78.1346 81.1154 72.161 89.2292 65.0252C97.343 57.8895 104.326 50.4406 108.888 44.049C110.267 42.1184 111.376 40.3533 112.216 38.7538C112.302 38.6318 112.387 38.5049 112.473 38.38C112.557 38.2622 112.604 38.1221 112.608 37.9774C112.924 37.335 113.205 36.6762 113.45 36.0039C114.31 33.6204 114.273 31.873 113.345 30.816ZM69.5705 39.5098C68.843 39.5451 68.1192 39.3848 67.4745 39.0457C67.1512 38.8749 66.8506 38.6641 66.5799 38.4183C66.4388 38.2991 66.3135 38.1625 66.185 38.0307C66.1224 37.9624 66.063 37.8896 66.0044 37.8188L65.9142 37.7123L65.8328 37.6C65.6035 37.3072 65.4127 36.9807 65.2273 36.6533C65.1427 36.4842 65.0549 36.3178 64.976 36.1454C64.8971 35.973 64.8198 35.8005 64.7515 35.6188C64.4659 34.9013 64.2215 34.1681 64.0195 33.4228C63.9382 33.1174 63.8633 32.8095 63.7938 32.5004C63.798 32.4571 63.7915 32.4134 63.7751 32.3732C63.7637 32.3431 63.7531 32.3118 63.7438 32.2817C63.73 32.2121 63.7161 32.1418 63.7031 32.071C63.6877 31.9428 63.6993 31.8128 63.7372 31.6894C63.7751 31.566 63.8384 31.4519 63.9231 31.3545C63.9953 31.3003 64.0711 31.2513 64.15 31.2077C64.2461 31.156 64.3459 31.1116 64.4485 31.0747C64.5502 31.0364 64.6555 31.0076 64.7702 30.973L64.8223 30.958C64.9056 30.9331 64.9783 30.881 65.0287 30.8101C65.079 30.7391 65.1042 30.6534 65.1003 30.5665C65.0963 30.4795 65.0634 30.3965 65.0067 30.3304C64.9501 30.2644 64.873 30.2192 64.7877 30.202C64.4895 30.1483 64.1821 30.1834 63.9036 30.3028C63.8307 30.3257 63.756 30.3427 63.6803 30.3537C63.5612 30.3687 63.4872 30.2947 63.4339 30.2007C63.3611 29.9311 63.3481 29.5643 63.5738 29.3687C63.6596 29.2935 63.7771 29.2691 63.906 29.2589C64.605 29.3043 65.3066 29.2818 66.0012 29.1918C66.7385 29.0971 67.4538 28.8945 68.1354 28.6965C68.4745 28.6017 68.81 28.5066 69.1203 28.4732C69.2627 28.4546 69.4071 28.4578 69.5485 28.4826C69.6732 28.5064 69.7905 28.5592 69.891 28.6367C70.0992 28.7916 70.2684 29.0674 70.4013 29.3646C70.5352 29.6757 70.6455 29.9964 70.7311 30.324C70.7491 30.3899 70.7862 30.449 70.8376 30.494C70.889 30.5389 70.9526 30.5677 71.0203 30.5768C71.088 30.5858 71.1569 30.5746 71.2183 30.5447C71.2797 30.5148 71.3309 30.4674 71.3655 30.4086L71.3692 30.4041C71.5591 30.0824 71.8165 29.8091 72.139 29.6436C72.465 29.4723 72.8316 29.3934 73.1992 29.4155C73.9422 29.4537 74.6738 29.8913 74.9885 30.5452C75.0658 30.7101 75.1196 30.8851 75.1484 31.0649C75.1797 31.2506 75.1886 31.4395 75.1748 31.6273C75.1488 32.0037 75.0282 32.3674 74.8242 32.6847C74.6242 33.0003 74.34 33.2538 74.0036 33.4167C73.6638 33.5775 73.2848 33.6369 72.9121 33.5879C72.8361 33.5767 72.7588 33.5961 72.6971 33.6419C72.6355 33.6877 72.5945 33.7561 72.5833 33.8321C72.5721 33.9081 72.5915 33.9854 72.6373 34.047C72.6831 34.1087 72.7515 34.1497 72.8275 34.1609C73.3133 34.2416 73.812 34.1805 74.2639 33.9848C74.4023 33.9227 74.5348 33.848 74.6595 33.7615C74.6797 33.7527 74.6987 33.7414 74.7161 33.7278C74.9373 33.561 75.3468 33.2117 75.6453 33.4073C75.7876 33.5013 75.808 33.7408 75.8409 33.8912C75.8572 33.9596 75.8722 34.0267 75.8873 34.0946C75.8942 34.2166 75.9068 34.3341 75.9255 34.4533C75.9863 34.8464 76.0967 35.2302 76.2541 35.5956C76.3306 35.7761 76.4164 35.9526 76.5111 36.1243C76.5199 36.1469 76.5315 36.1684 76.5457 36.1881C76.5514 36.1962 76.5562 36.2044 76.5619 36.2113C76.6922 36.4395 76.836 36.6598 76.9926 36.8709C77.2183 37.2584 77.3895 37.6578 77.4578 38.1011C77.3952 39.5142 76.8547 40.7354 75.9462 41.4601C75.2114 42.0433 74.3118 42.2328 73.392 42.003C72.738 41.7716 72.2448 41.21 72.2297 40.4797C72.2147 39.7228 72.7136 39.1844 73.2057 38.6765C73.2336 38.6484 73.2556 38.6149 73.2704 38.5781C73.4883 38.3743 73.6931 38.157 73.8836 37.9274C73.9324 37.8698 73.9567 37.7955 73.9514 37.7202C73.9461 37.6449 73.9116 37.5747 73.8552 37.5246C73.7988 37.4744 73.7251 37.4483 73.6497 37.4517C73.5743 37.4552 73.5033 37.488 73.4517 37.5431L73.4481 37.5468C72.9362 38.0957 72.3376 38.5567 71.6762 38.9115C71.0162 39.2503 70.2972 39.4715 69.5705 39.5098ZM65.5693 47.3967C66.6954 45.136 69.026 43.3849 70.5307 42.4353C70.7633 42.2954 71.0065 42.1714 71.2692 42.1079C71.6396 42.0189 71.9694 42.1079 72.2858 42.256C72.4998 42.4113 72.7373 42.5313 72.9894 42.6114C73.3648 42.7311 73.7563 42.7928 74.1504 42.7944C74.9612 42.7937 75.747 42.5141 76.3761 42.0026C77.1943 41.352 77.7588 40.3707 78.008 39.2226C78.0342 39.1966 78.0547 39.1653 78.0681 39.1308C78.0814 39.0964 78.0875 39.0595 78.0857 39.0226C78.0838 38.9314 78.0865 38.8402 78.0938 38.7493C78.1052 38.668 78.1134 38.5866 78.1227 38.5053C78.2275 37.8484 78.5703 37.2531 79.0857 36.8327C79.3797 36.644 79.677 36.4602 79.9771 36.2841C80.6537 35.8837 81.3524 35.522 82.0698 35.2007C82.7839 34.886 83.5212 34.6196 84.2658 34.474C84.6306 34.3999 85.0028 34.3688 85.3748 34.3813C85.7509 34.4031 86.1242 34.4604 86.4895 34.5525C87.2304 34.7355 87.9478 35.0376 88.6355 35.3988C89.3249 35.7667 89.9851 36.1869 90.6102 36.6558C91.8709 37.5911 93.0132 38.6891 94.0523 39.8684C94.7716 40.6941 95.4371 41.5651 96.0449 42.476C96.0795 42.6386 96.0807 42.7733 95.9998 42.8139C95.8644 42.881 95.6062 42.8265 95.4593 42.8245L95.1397 42.8208C94.9937 42.8021 94.8469 42.7895 94.6997 42.7826C93.5016 42.7306 92.3223 43.036 91.2727 43.5663C90.2231 44.0966 89.28 44.8615 88.6037 45.8509C88.2861 46.3111 88.0497 46.8224 87.9047 47.3625C87.8234 47.5719 87.6778 47.8277 87.4846 47.713C87.3631 47.5775 87.2393 47.444 87.1129 47.3125C86.8514 47.0441 86.5842 46.7838 86.2996 46.5398C86.0149 46.2958 85.7241 46.062 85.4244 45.8383C85.3637 45.7915 85.2868 45.7707 85.2107 45.7806C85.1346 45.7905 85.0656 45.8302 85.0188 45.891C84.972 45.9517 84.9512 46.0286 84.9611 46.1047C84.971 46.1808 85.0107 46.2498 85.0714 46.2966L85.0784 46.3011C85.241 46.4308 85.4037 46.5626 85.5635 46.698C86.0588 47.1539 86.899 47.8672 86.6883 48.5081C86.4813 49.14 85.7693 49.2498 85.1455 49.2604C84.9372 49.2567 84.7298 49.2498 84.5228 49.2384C84.0934 49.212 83.6652 49.1758 83.2414 49.1087C83.1361 49.0949 83.0296 49.0774 82.9255 49.0579C82.8214 49.0384 82.7148 49.0221 82.6095 48.9989L82.2972 48.9306C82.1918 48.9086 82.1015 48.8773 82.0031 48.8517C81.2305 48.6122 80.5424 48.1197 79.9173 47.5402C79.2923 46.9607 78.7136 46.2995 78.0629 45.6732C77.7356 45.3609 77.3895 45.0538 76.9877 44.7968C76.7849 44.6637 76.5694 44.5509 76.3444 44.4601C76.1134 44.365 75.871 44.3005 75.6233 44.2682C75.3685 44.2317 75.1094 44.2364 74.856 44.282C74.6018 44.3257 74.3566 44.4109 74.1301 44.5341C73.8991 44.6581 73.6912 44.821 73.5156 45.0156C73.3382 45.2155 73.201 45.4477 73.1118 45.6996C73.0255 45.9514 72.9893 46.2176 73.0052 46.4833C73.0197 46.7387 73.0727 46.9904 73.1626 47.2299C73.2088 47.3529 73.2622 47.4731 73.3224 47.5898C73.3344 47.6376 73.3364 47.6873 73.3282 47.7359C73.32 47.7845 73.3019 47.8308 73.2748 47.872C73.1821 48.003 73.0016 48.0481 72.843 48.0815C72.1268 48.1916 71.4176 48.3431 70.7189 48.5353C70.2488 48.6671 69.7836 48.8175 69.3241 48.9949C69.0947 49.092 68.8739 49.1742 68.6327 49.3003C68.5148 49.3592 68.4034 49.4345 68.2911 49.5036C68.1846 49.5849 68.0711 49.6585 67.9739 49.7549C67.7637 49.9385 67.5868 50.1569 67.451 50.4007C67.4157 50.4632 67.3841 50.5277 67.3562 50.5939L67.2798 50.7972L67.231 51.0135C67.2196 51.0871 67.2122 51.1612 67.209 51.2356C67.2049 51.3365 67.2095 51.4376 67.2228 51.5377C67.2322 51.6418 67.246 51.7496 67.2635 51.8631C67.3399 52.3917 67.0516 52.7834 66.8284 53.1351C66.7556 53.2236 66.6887 53.3168 66.6283 53.4141C66.4656 53.6805 66.3379 53.9895 66.3123 54.3263C66.3086 54.3726 66.3066 54.419 66.3066 54.4653C66.3013 54.4862 66.3001 54.5079 66.3029 54.5292C66.3074 54.5719 66.3123 54.6138 66.3168 54.6565C66.3192 54.676 66.3204 54.6971 66.3225 54.7142C66.3469 54.933 66.3713 55.1506 66.3953 55.3694C66.3827 55.5926 66.3338 55.8057 66.2066 55.9794C66.0032 56.2616 65.6604 56.2896 65.4339 56.0257C65.2822 55.8488 65.2232 55.6007 65.1781 55.3681C64.7369 52.7427 64.3493 49.8419 65.5689 47.3962L65.5693 47.3967ZM51.0066 57.8634C51.0472 57.6264 51.2099 57.5092 51.4047 57.4535C51.8492 57.4535 52.3238 57.6528 52.715 58.0172C53.0312 58.309 53.3724 58.5727 53.7345 58.8053C54.1257 59.0786 54.5934 59.3897 54.7182 59.8829C54.8943 60.5743 54.2449 60.8724 53.7239 60.6247C53.6706 60.5946 53.6198 60.5633 53.569 60.532C53.5629 60.5286 53.557 60.5248 53.5515 60.5206C53.5314 60.5048 53.5093 60.492 53.4856 60.4824C52.5909 59.9244 51.9208 59.3112 51.3063 58.6699C51.1383 58.4315 50.9578 58.1558 51.0062 57.863L51.0066 57.8634ZM58.1155 78.5526C58.1155 78.5457 58.1119 78.54 58.111 78.5331C58.1168 78.5379 58.1231 78.5422 58.1297 78.5457L58.1155 78.5526ZM75.3232 65.1123C75.117 66.948 74.6185 68.2977 73.8299 69.1383C72.433 70.6291 70.5766 71.2712 68.3103 71.2712C64.6946 71.2712 60.0321 69.6356 54.5194 67.2005C54.5194 67.2005 54.5194 67.2005 54.5169 67.2005C54.5145 67.2005 54.5145 67.2005 54.5133 67.1981C53.8626 66.9203 53.2168 66.6332 52.5836 66.3278C51.9504 66.0224 51.323 65.704 50.7353 65.3404C50.1477 64.9768 49.5836 64.5799 49.1648 64.0834C48.9498 63.8382 48.7673 63.5664 48.6219 63.2745C48.4858 63.0047 48.4126 62.7076 48.4076 62.4055C48.4124 62.2681 48.4386 62.1322 48.4852 62.0029C48.5332 61.8779 48.6051 61.7635 48.6971 61.6662C48.8872 61.4651 49.1429 61.3386 49.4181 61.3095C49.5585 61.2918 49.7008 61.2973 49.8394 61.3258C50.1266 61.387 50.3913 61.5264 50.6044 61.7284L50.6857 61.8097C50.7113 61.8329 50.7471 61.8736 50.7784 61.9045C50.8423 61.9716 50.9045 62.0387 50.9716 62.1038C51.2361 62.3689 51.5235 62.6102 51.8305 62.8248C52.1372 63.035 52.4591 63.2224 52.7935 63.3852C53.451 63.7105 54.122 63.9606 54.7861 64.2172C54.8575 64.2456 54.9372 64.2445 55.0077 64.2142C55.0783 64.1838 55.1339 64.1267 55.1623 64.0553C55.1907 63.984 55.1896 63.9043 55.1593 63.8337C55.1289 63.7632 55.0718 63.7076 55.0004 63.6792C54.3465 63.4083 53.6938 63.133 53.0802 62.8191C52.7772 62.665 52.4863 62.4883 52.2099 62.2904C51.9374 62.0918 51.6819 61.8707 51.4462 61.6296C51.386 61.5706 51.3282 61.5076 51.2701 61.4445C51.2388 61.412 51.2156 61.3868 51.1774 61.3474L51.0684 61.2384C50.9191 61.0941 50.7508 60.971 50.5682 60.8724C50.4763 60.8218 50.3812 60.7774 50.2835 60.7394C50.1834 60.7035 50.081 60.6746 49.9769 60.6528C49.767 60.608 49.5512 60.5979 49.338 60.6227C49.282 60.6287 49.2264 60.6375 49.1713 60.6491C48.94 60.676 48.7057 60.6433 48.4907 60.5539C48.2757 60.4646 48.0872 60.3216 47.9431 60.1387C47.399 59.096 47.5161 58.2811 47.9696 57.8679C48.3945 57.4812 49.1583 57.4352 49.8089 58.0786C49.8285 58.1055 49.8519 58.1293 49.8785 58.1493C49.8842 58.155 49.889 58.1607 49.8947 58.1668L50.0415 58.3295C51.0102 59.399 51.9374 60.4197 53.4982 61.3051C53.6467 61.4349 53.8054 61.5526 53.9728 61.6568C54.3063 61.8711 54.7076 62.1042 54.6788 62.556C54.6718 62.6136 54.6855 62.6718 54.7176 62.7201C54.7496 62.7685 54.7979 62.8039 54.8536 62.8199C54.896 62.8464 54.9447 62.8612 54.9948 62.8626C55.0715 62.865 55.146 62.8368 55.202 62.7843C55.258 62.7318 55.2908 62.6591 55.2932 62.5824C55.2964 62.2339 55.3565 61.8883 55.4714 61.5592C55.592 61.2388 55.7666 60.9413 55.9874 60.6796C56.0282 60.6295 56.0538 60.5687 56.061 60.5044C56.0682 60.4402 56.0568 60.3752 56.0281 60.3173L56.0224 60.3059C55.7471 59.7699 55.4738 59.2319 55.2331 58.6902C55.1111 58.4193 55.0004 58.1473 54.9045 57.8732C54.8557 57.7353 54.8105 57.5979 54.7703 57.4576C54.7495 57.388 54.7296 57.3165 54.7113 57.2481C54.693 57.1798 54.68 57.1184 54.6686 57.0525C54.6199 56.7973 54.6199 56.5351 54.6686 56.2799C54.7144 56.0392 54.8208 55.8142 54.9777 55.626C55.1224 55.4539 55.3234 55.3387 55.545 55.3006C55.7601 55.2648 55.9923 55.312 56.2139 55.4226C56.4445 55.5462 56.6511 55.7101 56.8239 55.9066C57.0093 56.115 57.1728 56.3419 57.3119 56.5837C57.599 57.0826 57.8593 57.6438 58.1627 58.1823C58.4661 58.7207 58.8003 59.2612 59.2379 59.7414C59.458 59.988 59.7063 60.2078 59.9776 60.3966C60.2593 60.5907 60.5708 60.7373 60.9 60.8305H60.9024C60.9069 60.8305 60.913 60.8305 60.9187 60.8329L60.9292 60.8366C61.6027 60.9663 62.2765 61.0879 62.95 61.2091C63.6234 61.3303 64.2985 61.4531 64.9731 61.5678L66.9987 61.9151C67.6734 62.033 68.3493 62.1444 69.0256 62.2554C69.0999 62.2665 69.1756 62.2482 69.2367 62.2045C69.2978 62.1608 69.3395 62.095 69.353 62.0211C69.3665 61.9472 69.3508 61.871 69.3091 61.8084C69.2674 61.7459 69.2031 61.7021 69.1297 61.6861L68.1643 61.4929C68.1605 61.4913 68.1567 61.4898 68.1529 61.4885C66.8515 61.1261 65.9235 60.1099 65.6722 58.8289C65.6596 58.6495 65.6433 58.4665 65.6226 58.279C65.6379 57.9755 65.7134 57.678 65.8446 57.4039C66.2704 56.7443 66.9833 56.456 67.5819 56.3319C68.1582 56.2604 68.5205 56.6272 68.7962 57.0798C68.8707 57.2422 68.9686 57.3929 69.0866 57.5271C69.4062 57.8931 69.8426 58.1253 70.2903 58.2307C70.6959 58.3198 71.1156 58.3241 71.5229 58.2433C71.5292 58.2431 71.5355 58.2423 71.5416 58.2408C71.8808 58.1725 72.2777 58.0782 72.6169 58.2071C72.8413 58.2884 73.0068 58.4641 73.148 58.6544C73.2639 58.8606 73.3806 59.0611 73.4965 59.2607C73.5001 59.2677 73.5022 59.2746 73.5058 59.2815C74.0662 60.2827 74.8173 61.3221 75.1414 62.4307C75.3887 63.2603 75.3553 64.2083 75.3228 65.1123H75.3232ZM82.4529 69.808C82.4523 69.8022 82.4523 69.7964 82.4529 69.7906C82.4563 69.7934 82.4594 69.7965 82.4623 69.7999C82.4585 69.8018 82.4552 69.8044 82.4525 69.8076L82.4529 69.808ZM93.5098 60.1225C93.4622 60.1884 93.4171 60.251 93.3768 60.3136C92.3178 61.3148 91.2326 62.3144 90.121 63.3124L88.8872 64.3042C88.1603 64.8101 87.4331 65.3167 86.7054 65.8239C85.9462 66.3526 85.1857 66.9549 84.3118 67.281C82.3777 68.0008 80.6046 66.782 79.1439 65.6084C78.4956 64.9244 77.8185 64.1615 77.13 63.305C77.0981 63.2512 77.0591 63.2018 77.0141 63.1582C76.4379 62.4348 75.8555 61.6454 75.2781 60.7821C75.27 60.7512 75.2576 60.7216 75.2411 60.6942C74.8344 60.0497 74.3346 59.2786 74.5733 58.4812C74.8015 57.7195 75.579 57.6455 76.2736 57.6951C77.0121 57.789 77.7714 58.0375 78.5444 58.2494C79.3175 58.4612 80.1093 58.6601 80.9092 58.8049C81.7084 58.9493 82.5147 59.0506 83.3248 59.1082C84.9417 59.2274 86.5643 59.1847 88.1674 59.055C88.8018 59.0051 89.4352 58.9449 90.0677 58.8744C90.5181 58.8397 90.9687 58.8046 91.4195 58.7691C91.9356 58.7284 92.511 58.6268 93.0201 58.7622C93.3304 58.8435 93.6635 59.0294 93.7619 59.3653C93.8587 59.6873 93.6798 59.8874 93.5098 60.1225ZM99.467 52.5646C99.4105 53.3181 99.2031 54.0461 98.8087 54.6666C98.4142 55.2872 97.8493 55.7988 97.2056 56.1989C96.5618 56.5991 95.8408 56.9049 95.1015 57.1506C94.3549 57.3929 93.5944 57.5901 92.8241 57.741C91.2768 58.0489 89.6969 58.229 88.1133 58.351C86.5297 58.473 84.9478 58.521 83.376 58.4067C82.5909 58.3514 81.8092 58.254 81.0345 58.1152C80.2618 57.9753 79.4973 57.7878 78.7323 57.5735C78.3492 57.4669 77.9662 57.3559 77.5737 57.2506C77.1813 57.1453 76.7775 57.0473 76.3537 56.9993C75.9362 56.956 75.5157 56.9471 75.0967 56.9728C74.6848 56.9936 74.2773 57.0367 73.8743 57.0908C73.0674 57.2006 72.2712 57.3673 71.4924 57.5381C71.1519 57.6187 70.7977 57.6226 70.4554 57.5495C70.1268 57.473 69.8259 57.3055 69.6185 57.0668C69.516 56.9536 69.4381 56.8204 69.3897 56.6756C69.3412 56.5307 69.3233 56.3775 69.3371 56.2254C69.3672 55.9257 69.5339 55.6373 69.7804 55.4047C70.0268 55.1721 70.3497 54.994 70.6937 54.8435C71.0457 54.6956 71.4083 54.5741 71.7783 54.48C73.2854 54.1014 74.8743 53.9708 76.455 53.8944H76.4574C76.5329 53.8904 76.6038 53.8571 76.655 53.8015C76.7062 53.746 76.7337 53.6726 76.7315 53.5971C76.7294 53.5216 76.6979 53.4499 76.6436 53.3973C76.5894 53.3447 76.5167 53.3154 76.4411 53.3157C75.6355 53.3193 74.8287 53.3503 74.0223 53.4267C73.2159 53.5032 72.4086 53.6154 71.6091 53.8179C71.2037 53.9176 70.8064 54.0475 70.4204 54.2067C70.222 54.2902 70.0294 54.3872 69.8442 54.4971C69.7629 54.5446 69.6856 54.5955 69.6091 54.6512C69.2675 54.8273 68.9263 55.0066 68.5791 55.1685C68.2248 55.334 67.8706 55.4958 67.4933 55.2632C67.2977 55.1412 67.1634 54.946 67.0488 54.7459C67.0127 54.6292 66.9997 54.5065 67.0105 54.3848C67.0419 53.9729 67.3184 53.5629 67.6832 53.2482C67.8605 53.0943 68.0524 52.9581 68.2562 52.8415C68.3048 52.8277 68.3498 52.8032 68.3879 52.7699C68.5766 52.6715 68.7791 52.5849 68.9817 52.5015C69.9552 52.1148 70.9955 51.859 72.043 51.6683C73.0969 51.484 74.1605 51.3599 75.2285 51.2966C75.3031 51.2898 75.3722 51.2544 75.4213 51.1977C75.4704 51.1411 75.4956 51.0676 75.4917 50.9928C75.4878 50.9179 75.4551 50.8475 75.4004 50.7962C75.3457 50.745 75.2733 50.7169 75.1984 50.7179C74.1044 50.7594 73.0139 50.8681 71.9332 51.0432C71.2621 51.1546 70.5971 51.2999 69.9406 51.4784C69.9292 51.4784 69.9162 51.4808 69.9036 51.4828C69.4615 51.5812 67.9951 52.0684 67.915 51.3267C67.915 51.3072 67.9125 51.286 67.915 51.2677C67.9169 51.2228 67.9211 51.178 67.9276 51.1335C67.9381 51.0896 67.9471 51.0444 67.9565 50.9993L68.0061 50.8684C68.0236 50.824 68.0446 50.781 68.0687 50.7399C68.1656 50.5649 68.2926 50.4082 68.4436 50.2771C68.747 49.9887 69.1427 49.822 69.5823 49.6414C70.015 49.4723 70.4575 49.3186 70.9064 49.1864C71.8079 48.9229 72.7291 48.7325 73.6612 48.6171C73.8092 48.5975 73.9564 48.5825 74.1044 48.5683C74.1737 48.5835 74.246 48.577 74.3114 48.5495C74.5615 48.5308 74.8104 48.517 75.0593 48.5113C75.519 48.4959 75.9791 48.5214 76.4342 48.5878H76.4367C76.511 48.5984 76.5866 48.5796 76.6473 48.5355C76.7081 48.4914 76.7493 48.4253 76.7622 48.3514C76.7752 48.2774 76.7588 48.2013 76.7167 48.1392C76.6745 48.077 76.6098 48.0337 76.5363 48.0184C76.3521 47.9839 76.1683 47.9619 75.9853 47.9444C75.9455 47.9206 75.9006 47.9066 75.8543 47.9038C75.3827 47.8751 74.9276 47.7195 74.5371 47.4536C74.2212 47.2429 73.7872 46.9444 73.7189 46.5414C73.6943 46.3359 73.7161 46.1274 73.7828 45.9314C73.9074 45.598 74.1529 45.3237 74.4704 45.1628C74.6314 45.0758 74.8054 45.0156 74.9857 44.9847C75.1659 44.9511 75.3505 44.9475 75.5318 44.9741C75.7207 44.9985 75.9056 45.0476 76.0817 45.1201C76.2648 45.1945 76.4404 45.2865 76.6059 45.3946C76.9462 45.611 77.2642 45.89 77.5733 46.184C78.1927 46.7765 78.7746 47.4446 79.444 48.0579C79.7799 48.3715 80.1415 48.6565 80.5249 48.9099C80.9197 49.1708 81.3486 49.376 81.7994 49.5199C81.9129 49.5499 82.032 49.587 82.1418 49.6101L82.4741 49.6817C82.5851 49.7061 82.6973 49.7224 82.8087 49.7431C82.9202 49.7639 83.0308 49.7838 83.1434 49.7976C83.5908 49.8672 84.0381 49.9042 84.4883 49.9306C86.2858 50.0245 88.0787 49.8216 89.8124 49.4145C89.885 49.3963 89.9477 49.3507 89.9875 49.2873C90.0273 49.2239 90.041 49.1476 90.0258 49.0743C90.0105 49.001 89.9675 48.9364 89.9058 48.8941C89.844 48.8518 89.7683 48.835 89.6944 48.8472H89.692C89.6826 48.8472 89.6733 48.8497 89.6631 48.8517C89.2292 48.818 88.8242 48.7057 88.6562 48.2612C88.5672 48.025 88.5602 47.7704 88.5846 47.5182C88.7099 47.0608 88.9119 46.6279 89.182 46.2381C89.777 45.3653 90.6371 44.6663 91.5907 44.1811C92.5443 43.696 93.6175 43.4251 94.6728 43.4727C94.8723 43.4818 95.071 43.5032 95.2678 43.5366C95.807 43.6626 96.3386 43.8375 96.7782 44.1836C97.1255 44.4569 97.3975 44.8375 97.6427 45.2368C98.0782 46.1255 98.4495 47.0442 98.7538 47.9859C98.9943 48.7313 99.1838 49.4921 99.3211 50.2632C99.4508 51.0343 99.5248 51.8094 99.467 52.5642V52.5646Z" fill="black"/>
<path d="M92.337 33.9494C93.4976 33.2316 94.6595 32.5183 95.8343 31.829L96.7188 31.3134L97.607 30.8095L98.5017 30.3195L99.402 29.8396C100.606 29.2064 101.829 28.6127 103.073 28.0743C104.318 27.5358 105.59 27.0686 106.89 26.7217H106.895C106.967 26.7005 107.028 26.6524 107.065 26.5876C107.102 26.5227 107.112 26.4461 107.094 26.3737C107.076 26.3013 107.03 26.2386 106.967 26.1989C106.904 26.1592 106.828 26.1454 106.755 26.1605C105.399 26.4757 104.087 26.9279 102.812 27.4549C101.537 27.982 100.294 28.5785 99.073 29.2117C97.8518 29.8449 96.6582 30.5281 95.483 31.2373C94.3077 31.9466 93.1528 32.6899 92.0206 33.4642C91.9591 33.5073 91.9167 33.5726 91.9024 33.6463C91.8881 33.72 91.903 33.7964 91.9439 33.8593C91.9849 33.9223 92.0487 33.9668 92.1218 33.9836C92.195 34.0004 92.2719 33.9882 92.3362 33.9494H92.337Z" fill="black"/>
<path d="M103.938 60.2913C101.276 62.946 98.5919 65.5779 95.7957 68.0932C92.9994 70.6084 90.1308 73.039 87.1853 75.3725C85.7099 76.5364 84.2215 77.6844 82.7038 78.7913C81.1918 79.9067 79.6544 80.9854 78.0914 82.0276C76.5343 83.0776 74.9409 84.0707 73.3297 85.0308C71.7185 85.991 70.0792 86.9015 68.4091 87.7486C68.3423 87.7832 68.2917 87.8424 68.2678 87.9137C68.2439 87.985 68.2487 88.0627 68.2811 88.1305C68.3136 88.1983 68.3711 88.2509 68.4416 88.2771C68.512 88.3032 68.5899 88.301 68.6587 88.2707C70.3851 87.4883 72.0544 86.5904 73.6876 85.6376C75.3208 84.6848 76.9218 83.6766 78.4916 82.6254C80.0613 81.5742 81.6131 80.4965 83.1345 79.3774C84.6619 78.2667 86.1589 77.1155 87.6428 75.9483C90.5979 73.5989 93.4747 71.1554 96.2731 68.6178C99.0633 66.0765 101.801 63.4706 104.358 60.691C104.407 60.635 104.434 60.562 104.431 60.4871C104.428 60.4122 104.396 60.3414 104.342 60.2896C104.288 60.2377 104.216 60.2088 104.141 60.209C104.066 60.2092 103.994 60.2384 103.94 60.2905L103.938 60.2913Z" fill="black"/>
<path d="M109.82 53.7318L109.812 53.7391C109.58 53.9729 109.357 54.2141 109.136 54.4568C108.916 54.6996 108.699 54.9448 108.483 55.1933C108.268 55.4418 108.057 55.6919 107.85 55.9469L107.541 56.3304C107.441 56.4613 107.338 56.5894 107.241 56.7224L107.235 56.7305C107.193 56.7894 107.174 56.8621 107.182 56.9343C107.19 57.0066 107.226 57.073 107.281 57.1204C107.336 57.1678 107.407 57.1928 107.48 57.1904C107.552 57.188 107.621 57.1584 107.673 57.1075C107.791 56.9916 107.903 56.8704 108.018 56.7517L108.354 56.3857C108.576 56.1417 108.794 55.8936 109.009 55.6435C109.225 55.3934 109.437 55.1413 109.645 54.8842C109.852 54.6272 110.06 54.371 110.257 54.1063C110.302 54.0476 110.323 53.974 110.315 53.9004C110.308 53.8269 110.272 53.7591 110.216 53.7108C110.16 53.6626 110.088 53.6376 110.014 53.6409C109.94 53.6443 109.871 53.6758 109.819 53.7289L109.82 53.7318Z" fill="black"/>
<path d="M103.547 70.1944C102.72 70.939 101.895 71.6861 101.063 72.425C100.23 73.1639 99.3982 73.902 98.5601 74.6336C96.8827 76.0957 95.1786 77.5262 93.4479 78.9252C91.7199 80.3262 89.9668 81.6974 88.1799 83.022C86.3971 84.3526 84.5821 85.6381 82.7513 86.9016C82.6909 86.9455 82.6498 87.0112 82.6366 87.0847C82.6234 87.1583 82.6392 87.2341 82.6807 87.2963C82.7221 87.3585 82.786 87.4023 82.859 87.4184C82.932 87.4346 83.0084 87.4219 83.0722 87.3831C84.0135 86.7801 84.9446 86.1617 85.8656 85.5279C86.783 84.8894 87.6956 84.2452 88.5955 83.5815C90.3979 82.2599 92.1657 80.8914 93.9086 79.4929C95.6516 78.0944 97.3523 76.6442 99.0326 75.1725C100.713 73.7007 102.359 72.1871 103.945 70.6137C103.998 70.5603 104.028 70.4884 104.029 70.4133C104.03 70.3381 104.001 70.2655 103.95 70.2109C103.898 70.1563 103.827 70.124 103.752 70.1206C103.677 70.1173 103.604 70.1434 103.547 70.1932V70.1944Z" fill="black"/>
<path d="M65.5059 32.2081C65.4431 32.0633 65.3516 31.9327 65.2371 31.8242C65.2044 31.7941 65.1684 31.7679 65.1297 31.7461C65.0665 31.7107 64.997 31.6881 64.9251 31.6796C64.8531 31.6711 64.7802 31.6768 64.7105 31.6965C64.6408 31.7162 64.5756 31.7494 64.5187 31.7943C64.4619 31.8391 64.4144 31.8948 64.379 31.958C64.303 32.0962 64.2557 32.2483 64.2399 32.4053C64.2239 32.5465 64.2277 32.6893 64.2513 32.8294C64.2743 32.9697 64.3153 33.1064 64.3733 33.2361C64.4365 33.38 64.5265 33.5106 64.6385 33.6208C64.6744 33.6551 64.7148 33.6845 64.7585 33.7082C64.8214 33.7422 64.8904 33.7633 64.9616 33.7706C65.0327 33.7778 65.1046 33.771 65.1731 33.7504C65.2416 33.7299 65.3054 33.696 65.3608 33.6509C65.4163 33.6057 65.4623 33.55 65.4962 33.487C65.5693 33.3479 65.6152 33.196 65.6316 33.0397C65.6473 32.8984 65.6447 32.7557 65.6238 32.6151C65.6037 32.4746 65.564 32.3376 65.5059 32.2081Z" fill="black"/>
<path d="M68.9455 31.4788C68.8827 31.3341 68.7912 31.2035 68.6767 31.0949C68.644 31.0649 68.608 31.0387 68.5693 31.0169C68.5061 30.9815 68.4366 30.9589 68.3646 30.9504C68.2927 30.9418 68.2198 30.9476 68.1501 30.9673C68.0804 30.9869 68.0152 31.0202 67.9583 31.065C67.9014 31.1099 67.854 31.1655 67.8186 31.2287C67.7426 31.367 67.6953 31.5191 67.6795 31.6761C67.6635 31.8173 67.6673 31.9601 67.6909 32.1002C67.7139 32.2405 67.7549 32.3772 67.8129 32.5069C67.8761 32.6508 67.9661 32.7814 68.0781 32.8916C68.1139 32.9265 68.1543 32.9565 68.198 32.9807C68.261 33.0146 68.33 33.0358 68.4012 33.043C68.4723 33.0503 68.5442 33.0434 68.6127 33.0229C68.6812 33.0023 68.745 32.9685 68.8004 32.9233C68.8559 32.8781 68.9018 32.8224 68.9357 32.7595C69.0089 32.6203 69.0548 32.4685 69.0712 32.3121C69.0869 32.1709 69.0843 32.0282 69.0634 31.8876C69.0435 31.7465 69.0038 31.6089 68.9455 31.4788Z" fill="black"/>
<path d="M70.8764 35.6504C70.8653 35.5924 70.8358 35.5394 70.7923 35.4994C70.7488 35.4593 70.6936 35.4344 70.6348 35.4282C70.576 35.422 70.5168 35.4348 70.4659 35.4649C70.415 35.495 70.3751 35.5406 70.3522 35.5951L70.3013 35.7171C70.2949 35.7439 70.29 35.7711 70.2867 35.7985C70.2818 35.8298 70.2745 35.8615 70.2672 35.8932C70.2542 35.9563 70.2363 36.0181 70.2176 36.0783C70.1804 36.1948 70.1273 36.3057 70.0598 36.4077C69.9935 36.5093 69.912 36.6001 69.8182 36.6769C69.7695 36.7182 69.7184 36.7568 69.6653 36.7924C69.6116 36.831 69.5494 36.8587 69.4925 36.8985L69.4449 36.9319C69.3898 36.9711 69.3503 37.0284 69.3334 37.0939C69.3164 37.1593 69.3231 37.2287 69.3523 37.2897C69.3815 37.3506 69.4312 37.3994 69.4928 37.4273C69.5543 37.4552 69.6238 37.4605 69.6889 37.4423C69.7795 37.4174 69.8687 37.3876 69.9561 37.3528C70.0453 37.3143 70.1306 37.2674 70.211 37.2129C70.3804 37.1029 70.5256 36.9597 70.6381 36.792C70.7508 36.6267 70.8299 36.4409 70.8707 36.245L70.8947 36.1006C70.8983 36.0518 70.9036 36.0038 70.904 35.9554C70.9044 35.9071 70.904 35.8582 70.8991 35.8094C70.8952 35.756 70.8876 35.7029 70.8764 35.6504Z" fill="black"/>
<path d="M69.1849 29.7213C69.0219 29.5913 68.8295 29.5031 68.6245 29.4647C68.4288 29.4273 68.228 29.4253 68.0316 29.4586C67.8504 29.4878 67.6737 29.54 67.5058 29.6139C67.3471 29.6821 67.197 29.7686 67.0585 29.8718C66.9845 29.9263 66.9322 30.0051 66.9105 30.0944C66.8888 30.1837 66.8992 30.2778 66.9399 30.3601C66.9805 30.4425 67.0488 30.508 67.1329 30.5451C67.217 30.5822 67.3114 30.5886 67.3996 30.5631L67.4094 30.5602L67.8055 30.4492C67.926 30.4169 68.0482 30.3914 68.1715 30.3728C68.2792 30.3576 68.3881 30.3516 68.4968 30.3549C68.6002 30.3588 68.703 30.3715 68.8043 30.3927L68.8636 30.4045C68.9486 30.4212 69.0367 30.4091 69.114 30.3701C69.1913 30.3311 69.2534 30.2674 69.2905 30.1892C69.3276 30.1109 69.3375 30.0225 69.3186 29.938C69.2998 29.8535 69.2533 29.7776 69.1865 29.7225L69.1849 29.7213Z" fill="black"/>
<path d="M57.29 44.6081C56.7084 44.6785 56.1754 44.9681 55.7999 45.4178C55.4244 45.8675 55.2346 46.4436 55.2691 47.0284C55.3037 47.6133 55.56 48.163 55.9858 48.5654C56.4117 48.9678 56.975 49.1926 57.5608 49.1941C57.6552 49.194 57.7494 49.1882 57.8431 49.1766C58.143 49.1403 58.4329 49.0452 58.6961 48.8969C58.9594 48.7485 59.1908 48.5498 59.3773 48.312C59.5637 48.0742 59.7015 47.802 59.7827 47.511C59.864 47.22 59.8871 46.9158 59.8508 46.6158C59.8145 46.3158 59.7194 46.026 59.5711 45.7627C59.4227 45.4995 59.224 45.268 58.9862 45.0816C58.7484 44.8952 58.4762 44.7574 58.1852 44.6762C57.8942 44.5949 57.59 44.5718 57.29 44.6081ZM59.1607 46.6996C59.1864 46.909 59.1706 47.1214 59.114 47.3246C59.0574 47.5279 58.9612 47.7179 58.8309 47.8838C58.5676 48.2185 58.1824 48.4353 57.7596 48.4868C57.3369 48.5382 56.911 48.4201 56.5751 48.1583C56.3133 47.9509 56.1225 47.6673 56.029 47.3466C55.9356 47.026 55.9441 46.6843 56.0535 46.3687C56.1628 46.0531 56.3676 45.7794 56.6394 45.5853C56.9112 45.3913 57.2366 45.2865 57.5706 45.2856C57.9625 45.287 58.3405 45.4315 58.6333 45.692C58.9262 45.9524 59.1139 46.3109 59.1611 46.7L59.1607 46.6996Z" fill="black"/>
<path d="M28.548 36.2748L33.2787 39.9795C33.6421 40.2617 34.1019 40.3898 34.5589 40.3361C34.7853 40.3096 35.0041 40.2385 35.2028 40.1268C35.4015 40.0151 35.576 39.8651 35.7163 39.6855L39.4535 34.9157C39.4743 34.9332 39.4942 34.9502 39.5162 34.9665C39.6874 35.1064 39.8578 35.2467 40.0302 35.3854C40.2409 35.5546 40.4503 35.7245 40.6597 35.8933C41.1884 36.3203 41.7349 36.7624 42.2766 37.191C43.1888 37.9177 43.8854 38.4699 44.5381 38.9803C45.3888 39.6468 46.1648 40.2499 46.9016 40.8148C46.0416 41.2303 45.2882 41.8372 44.6991 42.5891C42.565 45.3137 43.0452 49.2653 45.7687 51.3995C47.0076 52.369 48.5655 52.8378 50.1337 52.7133C51.702 52.5887 53.1663 51.8798 54.2367 50.7269C54.3013 50.7846 54.3676 50.8391 54.4335 50.8895C55.3228 51.5927 56.4239 51.9741 57.5575 51.9717C58.615 51.9733 59.6467 51.6447 60.5086 51.032C61.3705 50.4192 62.0197 49.5527 62.3656 48.5534C62.7116 47.554 62.737 46.4716 62.4384 45.4572C62.1398 44.4427 61.532 43.5466 60.6998 42.8941C60.6339 42.842 60.5644 42.7912 60.4937 42.7412C61.3552 41.4264 61.6916 39.836 61.4363 38.2849C61.181 36.7338 60.3526 35.3352 59.1151 34.3659C56.3904 32.2317 52.4388 32.7107 50.3046 35.4342C49.7128 36.1888 49.3029 37.0697 49.1066 38.0084C48.3807 37.4273 47.6064 36.8152 46.7556 36.1495C46.105 35.6367 45.4014 35.0922 44.4783 34.3809C43.9322 33.9572 43.373 33.5326 42.8313 33.1202C42.6171 32.9576 42.4023 32.794 42.1868 32.6294C40.704 31.5021 39.1473 30.3411 37.5605 29.1801C36.286 28.2508 34.5988 27.0308 32.8432 25.8397C32.5636 25.6503 32.2226 25.5739 31.889 25.6261C31.5554 25.6783 31.254 25.8552 31.0457 26.1209C30.8373 26.3867 30.7376 26.7216 30.7666 27.0581C30.7956 27.3945 30.9512 27.7074 31.2019 27.9336C31.5065 28.2069 31.8245 28.4903 32.1905 28.812L28.2544 33.8348C27.9699 34.1973 27.8411 34.658 27.8961 35.1155C27.9512 35.5731 28.1856 35.99 28.548 36.2748ZM28.7993 34.2654L32.94 28.984C32.9946 28.914 33.0204 28.8258 33.0122 28.7374C33.0041 28.649 32.9625 28.5671 32.8961 28.5082C32.4259 28.0963 32.036 27.7514 31.6679 27.4192C31.5498 27.3105 31.4769 27.1613 31.4637 27.0013C31.4506 26.8413 31.4982 26.6822 31.597 26.5557C31.6958 26.4292 31.8387 26.3445 31.9971 26.3186C32.1555 26.2926 32.3179 26.3272 32.452 26.4155C34.1974 27.6006 35.879 28.8173 37.1502 29.7433C38.7338 30.9007 40.286 32.058 41.7646 33.1841C41.9789 33.3468 42.1941 33.5115 42.4092 33.6749C42.9497 34.0849 43.5072 34.5094 44.0529 34.9319C44.9753 35.6416 45.6755 36.1853 46.3262 36.6969C47.36 37.5057 48.2782 38.2353 49.1355 38.925C49.1841 38.964 49.2424 38.9892 49.3041 38.9979C49.3659 39.0067 49.4289 38.9987 49.4865 38.9748C49.5441 38.9509 49.5942 38.912 49.6316 38.8621C49.669 38.8122 49.6923 38.7532 49.6991 38.6912C49.8113 37.6598 50.2098 36.6804 50.8496 35.8636C52.7479 33.4423 56.2627 33.017 58.6844 34.9132C59.8297 35.8099 60.5793 37.1187 60.7733 38.5603C60.9672 40.0019 60.5902 41.4622 59.7226 42.6297C59.6939 42.6687 59.6736 42.7132 59.663 42.7604C59.6525 42.8076 59.6519 42.8566 59.6612 42.904C59.6706 42.9515 59.6898 42.9965 59.7175 43.0362C59.7452 43.0758 59.7809 43.1093 59.8222 43.1344C60.3547 43.4546 60.813 43.8842 61.167 44.3948C61.5209 44.9054 61.7623 45.4854 61.8752 46.0963C61.9882 46.7072 61.97 47.3352 61.822 47.9386C61.674 48.542 61.3995 49.107 61.0166 49.5963C60.6627 50.051 60.222 50.4309 59.7202 50.7141C59.2183 50.9972 58.6653 51.1779 58.0931 51.2458C57.9148 51.267 57.7354 51.2779 57.5559 51.2783C56.9791 51.2782 56.4081 51.1636 55.876 50.941C55.344 50.7185 54.8614 50.3924 54.4563 49.9819C54.4221 49.9475 54.3811 49.9206 54.3359 49.9031C54.2907 49.8855 54.2423 49.8777 54.1939 49.88C54.1454 49.8823 54.098 49.8947 54.0547 49.9164C54.0113 49.9382 53.973 49.9688 53.9423 50.0063C53.0164 51.1292 51.6885 51.8461 50.2416 52.004C48.7948 52.1618 47.3435 51.7482 46.1973 50.8513C43.7748 48.953 43.3506 45.439 45.2469 43.0165C45.8841 42.2026 46.736 41.5829 47.7064 41.2271C47.765 41.2059 47.8168 41.1692 47.8561 41.1208C47.8954 41.0725 47.9209 41.0143 47.9297 40.9526C47.9387 40.8912 47.9311 40.8284 47.9077 40.7709C47.8843 40.7133 47.846 40.6631 47.7967 40.6253C46.9252 39.9596 45.9992 39.2426 44.9667 38.4329C44.3161 37.925 43.6194 37.3756 42.7097 36.6469C42.1693 36.2199 41.6239 35.7786 41.0961 35.3528C40.8866 35.1837 40.676 35.0137 40.4653 34.8449C40.2953 34.7071 40.1262 34.5684 39.9562 34.4293C39.8439 34.3366 39.7317 34.2451 39.6182 34.154C39.5566 34.1033 39.4793 34.0755 39.3995 34.0751C39.3869 34.0751 39.373 34.0751 39.3588 34.0775C39.3131 34.0827 39.2688 34.0969 39.2287 34.1194C39.1885 34.1419 39.1533 34.1722 39.125 34.2085L35.1701 39.2548C35.0862 39.3631 34.9816 39.4536 34.8623 39.5209C34.7431 39.5883 34.6116 39.6313 34.4755 39.6472C34.2012 39.6789 33.9253 39.602 33.7069 39.4329L28.979 35.727C28.7616 35.5565 28.6207 35.3067 28.5873 35.0325C28.5538 34.7583 28.6305 34.482 28.8005 34.2642L28.7993 34.2654Z" fill="black"/>
<path d="M46.8858 44.3023C46.3971 44.9251 46.1338 45.6951 46.1391 46.4866C46.1444 47.2782 46.4178 48.0447 46.9148 48.6608C47.4118 49.277 48.103 49.7065 48.8755 49.8792C49.6481 50.0519 50.4564 49.9577 51.1684 49.6118C51.8805 49.266 52.4543 48.689 52.7962 47.975C53.1381 47.261 53.2278 46.4522 53.0508 45.6807C52.8738 44.9091 52.4404 44.2203 51.8215 43.7268C51.2026 43.2332 50.4346 42.964 49.643 42.9632C49.1116 42.9607 48.5867 43.0801 48.1087 43.3122C47.6307 43.5444 47.2124 43.8831 46.8858 44.3023ZM49.643 43.6578C50.2686 43.6559 50.8764 43.8656 51.3677 44.2527C51.8909 44.6616 52.2522 45.2427 52.3873 45.8929C52.5224 46.543 52.4226 47.22 52.1056 47.8035C51.7885 48.3869 51.2748 48.839 50.6559 49.0794C50.0369 49.3198 49.3527 49.3329 48.7249 49.1164C48.0972 48.8998 47.5666 48.4677 47.2275 47.8968C46.8884 47.3259 46.7627 46.6532 46.8729 45.9984C46.983 45.3435 47.3218 44.749 47.829 44.3204C48.3362 43.8918 48.979 43.6571 49.643 43.6578Z" fill="black"/>
<path d="M53.0871 42.0595C53.7001 42.5418 54.4575 42.8039 55.2375 42.8037C55.3802 42.8038 55.5228 42.7952 55.6645 42.7781C56.4678 42.6807 57.2125 42.3078 57.7716 41.7229C58.3308 41.138 58.6698 40.3773 58.7309 39.5704C58.792 38.7635 58.5715 37.9604 58.1069 37.298C57.6422 36.6355 56.9622 36.1546 56.1828 35.9373C55.4033 35.72 54.5727 35.7797 53.8323 36.1062C53.0919 36.4328 52.4877 37.0059 52.1225 37.728C51.7574 38.4501 51.654 39.2765 51.8298 40.0663C52.0057 40.8562 52.45 41.5606 53.0871 42.0595ZM53.0382 37.578C53.2645 37.2875 53.5461 37.0447 53.8668 36.8637C54.1875 36.6827 54.5408 36.5671 54.9065 36.5235C55.0205 36.5097 55.1353 36.5028 55.2501 36.5028C55.6967 36.5033 56.1367 36.6105 56.5335 36.8154C56.9303 37.0203 57.2724 37.3171 57.5313 37.681C57.7901 38.0449 57.9583 38.4654 58.0218 38.9075C58.0853 39.3495 58.0423 39.8004 57.8962 40.2224C57.7502 40.6445 57.5055 41.0255 57.1824 41.3338C56.8594 41.6422 56.4673 41.8689 56.0389 41.995C55.6105 42.1211 55.1581 42.1431 54.7195 42.059C54.2809 41.975 53.8687 41.7873 53.5173 41.5117C52.9325 41.0529 52.5536 40.3808 52.4639 39.6429C52.3742 38.905 52.5809 38.1616 53.0387 37.576L53.0382 37.578Z" fill="black"/>
<path d="M23.8677 83.7608C23.9197 83.8153 23.9878 83.8517 24.0621 83.8649C24.3437 84.0463 24.6778 84.1284 25.0114 84.0982C25.345 84.068 25.659 83.9272 25.9034 83.6981L44.164 66.6088C44.4781 66.3145 44.6935 65.9304 44.7809 65.509C44.8682 65.0876 44.8232 64.6494 44.652 64.2546L36.3483 45.2088C36.2521 44.9879 36.1042 44.7934 35.9172 44.6415C35.7302 44.4897 35.5094 44.385 35.2735 44.3362C35.0376 44.2874 34.7934 44.296 34.5615 44.3612C34.3296 44.4265 34.1167 44.5464 33.9408 44.711L30.2832 48.1303C29.0588 46.3108 27.6224 45.2055 26.1129 44.9278C24.9649 44.7171 23.8246 45.0091 22.8132 45.7704C22.8095 45.7728 22.8075 45.7761 22.8038 45.7785C22.8002 45.7809 22.7969 45.783 22.7945 45.7854L9.84986 57.0907C9.83442 57.105 9.82014 57.1205 9.80716 57.1371C9.69679 57.2249 9.59169 57.3192 9.4924 57.4193C7.0585 59.8894 8.63026 63.7898 9.078 64.7576L8.79334 65.024C8.45657 65.3378 8.25806 65.7725 8.24136 66.2325C8.22466 66.6925 8.39115 67.1404 8.70428 67.4778L12.1406 71.1679C12.1431 71.1716 12.1431 71.1748 12.1451 71.1785C13.5977 74.2456 12.9808 77.1333 12.2065 79.0166C12.149 79.1563 12.1413 79.3114 12.1846 79.4561C12.2279 79.6008 12.3196 79.7262 12.4443 79.8114C12.5691 79.8965 12.7193 79.9362 12.8698 79.9238C13.0203 79.9114 13.162 79.8477 13.2711 79.7433L16.9137 76.2907L23.8677 83.7608ZM12.908 79.1309C12.9102 79.1281 12.9117 79.1249 12.9125 79.1215C12.9125 79.1215 12.9149 79.1215 12.9169 79.1239L12.908 79.1309ZM30.4211 48.9517L30.4581 48.9172L34.4142 45.2193C34.5089 45.1308 34.6235 45.0663 34.7483 45.0312C34.8731 44.9961 35.0045 44.9914 35.1315 45.0176C35.2585 45.0438 35.3773 45.1 35.4781 45.1816C35.5789 45.2632 35.6586 45.3677 35.7106 45.4865L44.0139 64.5332C44.1279 64.7964 44.1577 65.0884 44.0995 65.3693C44.0413 65.6501 43.8978 65.9062 43.6886 66.1025L25.4293 83.1914C25.3347 83.2802 25.2201 83.345 25.0952 83.3802C24.9703 83.4155 24.8388 83.4202 24.7118 83.394C24.5847 83.3679 24.4657 83.3115 24.365 83.2297C24.2642 83.148 24.1846 83.0432 24.1328 82.9242L17.2935 67.235C17.1796 66.9718 17.1497 66.6798 17.2079 66.3989C17.2661 66.118 17.4096 65.862 17.6188 65.6657L26.3239 57.5186C27.0634 56.825 27.5553 55.9082 27.7245 54.9086L28.1865 52.1493C28.3308 51.2993 28.7491 50.5197 29.3776 49.9293L30.4211 48.9517ZM12.2 55.9602L23.2394 46.3194C24.1007 45.6724 25.0254 45.4341 25.9872 45.611C26.9734 45.7927 27.9364 46.3979 28.8266 47.3828C29.0486 47.7045 29.2222 48.0599 29.2178 48.4536C29.2109 49.0579 28.7639 49.545 28.3845 49.9688C28.354 50.0026 28.3314 50.043 28.3186 50.0867C27.8996 50.6643 27.62 51.331 27.5016 52.0347L27.0389 54.7939C26.8953 55.643 26.4778 56.4218 25.8502 57.0114L20.1536 62.342C19.9932 62.4628 19.8103 62.5502 19.6156 62.599C19.0218 62.7332 18.7014 62.3087 18.4061 61.8825C17.0763 58.8638 14.8828 57.057 13.0381 56.5592C12.8237 56.5009 12.6051 56.4592 12.3842 56.4344C12.3053 56.4067 12.0995 56.3628 12.052 56.2884C12.0044 56.214 12.0999 56.0875 12.2 55.9602ZM9.21017 67.0069C9.11684 66.9068 9.04417 66.7893 8.99632 66.6611C8.94848 66.5329 8.9264 66.3965 8.93134 66.2598C8.93629 66.123 8.96817 65.9886 9.02516 65.8642C9.08215 65.7398 9.16312 65.6278 9.26344 65.5348L12.8791 62.1655C12.9332 62.1423 12.9786 62.1026 13.0088 62.0521C13.0133 62.0464 13.017 62.0395 13.0215 62.0334L13.5017 61.586C13.7901 61.3372 14.0967 61.094 14.4265 60.9045C14.7888 60.7728 15.1756 60.7221 15.5596 60.7562C15.9435 60.7902 16.3154 60.908 16.6489 61.1013C17.9466 61.8479 18.0889 63.1916 17.6282 64.4103C17.4175 64.7841 17.1353 65.1232 16.8653 65.4473C16.8402 65.4775 16.8228 65.5132 16.8144 65.5514C16.6288 65.8402 16.5171 66.1702 16.4892 66.5123C16.4614 66.8545 16.5182 67.1982 16.6546 67.5132L21.0596 77.6189C21.0582 77.6594 21.0673 77.6996 21.0861 77.7356C21.2642 78.0804 21.6371 79.0634 20.8421 78.9369C20.5411 78.8893 20.2227 78.7006 19.9279 78.5144L9.21017 67.0069Z" fill="black"/>
<path d="M29.3796 67.4978C29.7131 67.631 30.0722 67.6876 30.4304 67.6633C30.4711 67.6611 30.5112 67.6742 30.5427 67.7002C30.5742 67.7261 30.5948 67.7628 30.6004 67.8032L30.9396 70.0858C30.96 70.2268 31.0187 70.3594 31.1093 70.4692C31.2 70.579 31.3191 70.6618 31.4536 70.7085C31.5363 70.7368 31.6232 70.7512 31.7106 70.7512C31.9087 70.7514 32.0992 70.6755 32.2429 70.5393L35.4711 67.5068C35.5607 67.4225 35.6291 67.3182 35.6707 67.2025C35.7124 67.0867 35.726 66.9627 35.7105 66.8407C35.6951 66.7187 35.6509 66.602 35.5817 66.5003C35.5126 66.3986 35.4203 66.3147 35.3125 66.2554L33.3877 65.1981C33.3675 65.187 33.3516 65.1696 33.3424 65.1484C33.3332 65.1273 33.3312 65.1037 33.3369 65.0814L33.3739 64.9346C33.7708 63.3486 33.1274 61.8281 31.8448 61.3153C30.9144 60.9448 29.8644 61.2042 29.0555 61.8976C29.0343 61.9127 29.0145 61.9297 28.9965 61.9484C28.5644 62.3414 28.2283 62.8284 28.014 63.3718C27.3341 65.0753 27.9465 66.9269 29.3796 67.4978ZM30.6956 62.2421C30.7175 61.9167 31.0705 61.9017 31.3275 61.8834C31.4157 61.9032 31.5021 61.9304 31.5858 61.9647C32.5431 62.3453 33.0091 63.5251 32.6992 64.7679L32.6622 64.9139C32.6193 65.0851 32.6343 65.2658 32.7049 65.4276C32.7754 65.5894 32.8976 65.7234 33.0522 65.8085L34.5093 66.6084C34.7061 66.8085 34.8598 67.0761 34.5658 67.229C34.3031 67.3657 33.9294 67.2221 33.6305 67.1111L31.3979 65.8679C31.3778 65.8567 31.3619 65.8392 31.3528 65.8181C31.3436 65.797 31.3416 65.7735 31.3471 65.7512L31.3841 65.6044C31.6618 64.4954 31.4292 63.4181 30.8261 62.6959C30.7489 62.5532 30.6862 62.4002 30.6956 62.2416V62.2421ZM30.6919 63.8821C30.6895 63.8797 30.6883 63.8777 30.6862 63.8752C30.6842 63.8728 30.6862 63.8638 30.6838 63.8577C30.6862 63.8655 30.6895 63.8736 30.6919 63.8817V63.8821Z" fill="black"/>
<path d="M18.5533 54.5187C18.995 54.164 19.4285 53.8001 19.8608 53.4345C20.2931 53.0689 20.7188 52.6964 21.1483 52.3279C21.5777 51.9595 21.9978 51.5801 22.4187 51.2019L23.0474 50.6325C23.254 50.439 23.4634 50.2487 23.6676 50.0522C23.7223 50.0009 23.755 49.9304 23.7588 49.8554C23.7625 49.7805 23.7371 49.707 23.6877 49.6505C23.6384 49.594 23.569 49.5588 23.4942 49.5524C23.4195 49.5461 23.3451 49.5689 23.2869 49.6163C23.0649 49.7924 22.8481 49.9742 22.6285 50.1531L21.9779 50.6992C21.5464 51.0652 21.1194 51.4369 20.6912 51.807C20.263 52.1771 19.8409 52.554 19.4216 52.9343C19.0023 53.3145 18.5826 53.6943 18.1719 54.0843C18.1171 54.1356 18.0844 54.2062 18.0807 54.2811C18.0769 54.3561 18.1024 54.4295 18.1518 54.4861C18.2011 54.5426 18.2705 54.5777 18.3452 54.5841C18.42 54.5905 18.4943 54.5676 18.5525 54.5203L18.5533 54.5187Z" fill="black"/>
<path d="M21.7677 55.0074C21.3476 55.3864 20.9287 55.7674 20.518 56.1574C20.4632 56.2087 20.4305 56.2793 20.4268 56.3542C20.423 56.4292 20.4485 56.5026 20.4978 56.5592C20.5472 56.6157 20.6165 56.6508 20.6913 56.6572C20.7661 56.6636 20.8404 56.6407 20.8986 56.5934C21.3403 56.2388 21.7738 55.8748 22.206 55.5092C22.6383 55.1436 23.0641 54.7711 23.4936 54.4027C23.923 54.0342 24.3431 53.6548 24.764 53.2766L25.3927 52.7073C25.5993 52.5137 25.8087 52.3234 26.0129 52.1269C26.0676 52.0756 26.1003 52.0051 26.1041 51.9301C26.1078 51.8552 26.0824 51.7817 26.033 51.7252C25.9837 51.6687 25.9143 51.6335 25.8395 51.6271C25.7648 51.6208 25.6904 51.6437 25.6322 51.691C25.4102 51.8671 25.1934 52.0489 24.9738 52.2278L24.3232 52.7739C23.8917 53.1399 23.4647 53.5116 23.0365 53.8817C22.6082 54.2518 22.1869 54.6275 21.7677 55.0074Z" fill="black"/>
<path d="M52.2573 98.0995C52.9137 95.2403 45.3724 91.0688 35.4133 88.7824C25.4542 86.496 16.8486 86.9604 16.1921 89.8196C15.5357 92.6789 23.077 96.8503 33.0361 99.1368C42.9952 101.423 51.6009 100.959 52.2573 98.0995Z" fill="black"/>
<path d="M42.2076 103.734C39.5532 103.572 36.9132 103.191 34.3015 102.677C33.6509 102.544 32.997 102.411 32.3471 102.267C31.6973 102.122 31.0502 101.965 30.4041 101.805C29.1121 101.482 27.8323 101.113 26.5611 100.714C26.4893 100.694 26.4124 100.701 26.3463 100.736C26.2802 100.771 26.23 100.83 26.2063 100.901C26.1826 100.971 26.1871 101.049 26.219 101.116C26.2508 101.184 26.3075 101.236 26.3772 101.263C27.6448 101.716 28.9344 102.105 30.232 102.461C31.5297 102.817 32.842 103.122 34.1629 103.382C34.8241 103.509 35.4866 103.629 36.1515 103.735C36.8164 103.842 37.4841 103.931 38.1527 104.012C39.4902 104.171 40.8367 104.276 42.1836 104.311C42.2589 104.312 42.3317 104.284 42.3865 104.233C42.4413 104.181 42.4739 104.11 42.4772 104.035C42.4805 103.959 42.4544 103.886 42.4044 103.829C42.3543 103.773 42.2843 103.739 42.2092 103.733L42.2076 103.734Z" fill="black"/>
<path d="M23.8079 99.705C23.4557 99.5374 23.1011 99.3772 22.7505 99.2137L21.6952 98.7208C21.3439 98.5582 20.9958 98.3861 20.6468 98.2174L19.6058 97.7001C19.5397 97.6677 19.4638 97.6617 19.3935 97.6832C19.3232 97.7047 19.2636 97.7521 19.2269 97.8158C19.1902 97.8795 19.1791 97.9548 19.1958 98.0264C19.2126 98.0981 19.2559 98.1606 19.317 98.2015C19.4825 98.3113 19.6525 98.4134 19.8221 98.5167C19.9917 98.62 20.1661 98.7143 20.3394 98.8099C20.6863 99.0014 21.0409 99.1783 21.3967 99.3483C21.7526 99.5183 22.1161 99.6777 22.4825 99.8257C22.8489 99.9738 23.2174 100.116 23.5919 100.242C23.6618 100.265 23.7378 100.26 23.8045 100.229C23.8711 100.198 23.9234 100.143 23.9509 100.074C23.9783 100.006 23.9788 99.93 23.9523 99.8614C23.9257 99.7928 23.8741 99.7369 23.8079 99.705Z" fill="black"/>
<path d="M34.9909 31.2345L35.3719 31.5599C35.6276 31.7754 35.8865 31.9869 36.1487 32.1943C36.4105 32.4017 36.6728 32.6087 36.9412 32.8087C37.2096 33.0088 37.476 33.2101 37.7509 33.4017C37.8113 33.4445 37.8858 33.4627 37.9591 33.4524C38.0324 33.4421 38.099 33.4041 38.1452 33.3463C38.1915 33.2885 38.2138 33.2151 38.2077 33.1413C38.2016 33.0676 38.1675 32.9989 38.1124 32.9494C37.8652 32.7233 37.6114 32.5058 37.3556 32.2902C37.0998 32.0747 36.8416 31.8624 36.583 31.6526C36.3243 31.4427 36.0596 31.2366 35.7932 31.0349L35.391 30.7351C35.2548 30.6379 35.1198 30.5391 34.9807 30.4452C34.9202 30.4041 34.8465 30.3874 34.7742 30.3983C34.7019 30.4092 34.6364 30.447 34.5908 30.5041C34.5451 30.5612 34.5227 30.6334 34.528 30.7063C34.5332 30.7792 34.5658 30.8474 34.6192 30.8974C34.7396 31.0133 34.866 31.1227 34.9909 31.2345Z" fill="black"/>
<path d="M66.1728 97.9628C65.9393 97.9417 65.7059 97.9275 65.4729 97.9177C65.2971 97.9099 65.1308 97.8352 65.0081 97.709C64.8854 97.5828 64.8154 97.4146 64.8125 97.2386C64.8109 97.1505 64.8087 97.0623 64.806 96.9742C64.7954 96.548 64.7824 96.1202 64.7556 95.6953C64.7531 95.6567 64.7431 95.619 64.7259 95.5843C64.7087 95.5497 64.6847 95.5189 64.6554 95.4936C64.6261 95.4684 64.5921 95.4493 64.5553 95.4374C64.5185 95.4255 64.4797 95.4211 64.4412 95.4244C64.3703 95.4325 64.3047 95.4656 64.2561 95.5178C64.2075 95.57 64.1791 95.6378 64.1761 95.7091C64.1496 96.1308 64.1354 96.5529 64.1264 96.9746C64.124 97.0628 64.1218 97.1509 64.1199 97.239C64.117 97.4155 64.0466 97.5841 63.9233 97.7104C63.8 97.8367 63.633 97.911 63.4567 97.9181C63.2204 97.9279 62.9841 97.9429 62.7479 97.9645C62.6718 97.9715 62.6016 98.0082 62.5524 98.0665C62.5032 98.1249 62.4789 98.2003 62.4848 98.2764C62.4918 98.3462 62.5232 98.4114 62.5735 98.4604C62.6238 98.5094 62.6897 98.5391 62.7597 98.5444C62.9927 98.5655 63.2257 98.5802 63.4587 98.5899C63.6343 98.5978 63.8003 98.6722 63.923 98.798C64.0456 98.9239 64.1158 99.0917 64.1191 99.2674C64.1208 99.3553 64.1228 99.443 64.1252 99.5306L64.1439 100.17C64.1553 100.383 64.1618 100.596 64.1773 100.81C64.1801 100.848 64.1904 100.885 64.2076 100.92C64.2249 100.954 64.2487 100.984 64.2778 101.009C64.3068 101.034 64.3406 101.053 64.377 101.065C64.4134 101.077 64.4518 101.081 64.49 101.078C64.5604 101.071 64.6259 101.039 64.6748 100.988C64.7236 100.937 64.7527 100.87 64.7568 100.799C64.7718 100.59 64.7779 100.38 64.7893 100.171L64.808 99.531C64.8105 99.4431 64.8125 99.3551 64.8141 99.267C64.8169 99.0904 64.8871 98.9216 65.0105 98.7951C65.1338 98.6687 65.3009 98.5942 65.4774 98.5871C65.7132 98.5773 65.9491 98.5627 66.185 98.5411C66.2611 98.5342 66.3314 98.4976 66.3807 98.4392C66.43 98.3808 66.4544 98.3054 66.4485 98.2292C66.441 98.1595 66.4094 98.0947 66.359 98.046C66.3086 97.9973 66.2427 97.9679 66.1728 97.9628Z" fill="black"/>
<path d="M103.733 87.7206C103.469 87.706 103.205 87.6999 102.94 87.6889L102.134 87.6702C101.945 87.6661 101.754 87.6634 101.561 87.6621C101.379 87.6605 101.204 87.587 101.075 87.4576C100.947 87.3282 100.874 87.1533 100.873 86.9707C100.873 86.5169 100.869 86.063 100.862 85.6092C100.851 84.8089 100.838 84.0089 100.811 83.2098C100.81 83.1704 100.801 83.1316 100.784 83.096C100.767 83.0603 100.743 83.0284 100.713 83.0024C100.683 82.9763 100.649 82.9565 100.611 82.9443C100.574 82.9321 100.534 82.9277 100.495 82.9313C100.423 82.9405 100.356 82.9754 100.308 83.0296C100.26 83.0838 100.233 83.1536 100.232 83.2261C100.206 84.0207 100.191 84.8158 100.182 85.6104C100.175 86.0643 100.173 86.5181 100.171 86.9719C100.17 87.1546 100.098 87.3296 99.9687 87.459C99.8398 87.5884 99.6651 87.6618 99.4825 87.6633C99.2927 87.6652 99.1017 87.6678 98.9095 87.671L98.1035 87.6897C97.8347 87.7007 97.5663 87.7072 97.2975 87.7227C97.2587 87.7249 97.2208 87.7348 97.186 87.7519C97.1512 87.769 97.1202 87.7929 97.0948 87.8222C97.0694 87.8515 97.0501 87.8857 97.0381 87.9225C97.0261 87.9594 97.0217 87.9984 97.025 88.037C97.033 88.1079 97.0661 88.1736 97.1183 88.2222C97.1705 88.2709 97.2384 88.2992 97.3097 88.3022C97.574 88.3168 97.8383 88.3233 98.1027 88.3343L98.9087 88.353C99.0984 88.3568 99.2893 88.3594 99.4813 88.3607C99.6638 88.3623 99.8384 88.4358 99.9672 88.5652C100.096 88.6946 100.169 88.8695 100.169 89.0521C100.171 89.5056 100.175 89.9591 100.18 90.4124L100.198 91.6124C100.21 92.0126 100.216 92.4128 100.232 92.8125C100.233 92.8518 100.243 92.8903 100.26 92.9258C100.277 92.9613 100.301 92.993 100.33 93.0189C100.36 93.0448 100.394 93.0645 100.432 93.0767C100.469 93.0889 100.508 93.0934 100.548 93.0899C100.619 93.0809 100.685 93.0463 100.734 92.9925C100.782 92.9388 100.809 92.8694 100.811 92.7971C100.826 92.4022 100.832 92.0073 100.843 91.6124L100.862 90.4124C100.867 89.9588 100.87 89.5052 100.872 89.0516C100.873 88.8691 100.945 88.6942 101.074 88.5648C101.203 88.4354 101.378 88.3619 101.56 88.3603C101.75 88.3584 101.941 88.3557 102.133 88.3522L102.939 88.3335C103.208 88.3225 103.476 88.316 103.745 88.3009C103.784 88.2988 103.821 88.2889 103.856 88.2718C103.891 88.2547 103.922 88.2308 103.948 88.2015C103.973 88.1722 103.992 88.138 104.004 88.1011C104.016 88.0642 104.021 88.0253 104.018 87.9866C104.01 87.9156 103.977 87.8498 103.925 87.801C103.873 87.7522 103.805 87.7237 103.733 87.7206Z" fill="black"/>
<path d="M14.8807 36.9149C15.1394 36.9295 15.3984 36.936 15.6571 36.947L16.446 36.9657C16.6258 36.9698 16.8056 36.9727 16.9856 36.9746C17.1681 36.9764 17.3424 37.05 17.471 37.1794C17.5997 37.3087 17.6722 37.4835 17.6729 37.666C17.6748 38.1022 17.6781 38.5384 17.6827 38.9746L17.7014 40.1495C17.7128 40.5411 17.7193 40.9327 17.7347 41.3243C17.7364 41.3636 17.746 41.4021 17.763 41.4375C17.7799 41.4729 17.8039 41.5045 17.8334 41.5304C17.863 41.5563 17.8975 41.5759 17.9348 41.5881C17.9722 41.6003 18.0116 41.6048 18.0507 41.6013C18.1225 41.5924 18.1887 41.5579 18.2371 41.5041C18.2855 41.4503 18.3129 41.3808 18.3142 41.3085C18.3293 40.9221 18.3358 40.5358 18.3468 40.1495L18.3655 38.9746C18.3706 38.5384 18.3739 38.102 18.3752 37.6656C18.376 37.4832 18.4484 37.3085 18.5769 37.1791C18.7055 37.0497 18.8797 36.9761 19.0621 36.9742C19.2418 36.9721 19.4217 36.9691 19.6017 36.9653L20.3907 36.9466C20.6538 36.9356 20.9165 36.9291 21.1796 36.914C21.2183 36.9118 21.2562 36.9019 21.291 36.8848C21.3258 36.8677 21.3569 36.8438 21.3823 36.8145C21.4077 36.7851 21.4269 36.751 21.4389 36.7141C21.4509 36.6773 21.4554 36.6383 21.4521 36.5997C21.4441 36.5288 21.411 36.4631 21.3588 36.4145C21.3066 36.3658 21.2387 36.3375 21.1674 36.3345C20.9088 36.3203 20.6501 36.3138 20.3911 36.3028L19.6021 36.2841C19.4221 36.28 19.2421 36.2771 19.0621 36.2752C18.8797 36.2734 18.7053 36.1998 18.5767 36.0704C18.4481 35.9411 18.3756 35.7663 18.3748 35.5838C18.3748 35.1471 18.3703 34.7107 18.3638 34.274C18.3533 33.4907 18.3403 32.7075 18.3134 31.9247C18.312 31.8852 18.3025 31.8465 18.2856 31.8109C18.2687 31.7752 18.2447 31.7434 18.2151 31.7173C18.1855 31.6913 18.1509 31.6715 18.1134 31.6593C18.0759 31.647 18.0363 31.6425 17.997 31.6461C17.9251 31.6553 17.8589 31.6901 17.8107 31.7442C17.7624 31.7983 17.7353 31.868 17.7343 31.9405C17.7079 32.7185 17.6937 33.496 17.6847 34.274C17.6782 34.7103 17.6754 35.1471 17.6737 35.5834C17.673 35.7658 17.6005 35.9406 17.4719 36.07C17.3432 36.1994 17.1689 36.2729 16.9865 36.2748C16.8064 36.2767 16.6266 36.2796 16.4468 36.2837L15.6579 36.3024C15.3948 36.3134 15.1321 36.3199 14.869 36.3354C14.8303 36.3376 14.7924 36.3476 14.7576 36.3647C14.7229 36.3818 14.6919 36.4058 14.6665 36.4351C14.6412 36.4644 14.6219 36.4985 14.61 36.5353C14.598 36.5722 14.5936 36.6111 14.5969 36.6497C14.6049 36.7205 14.6378 36.7861 14.6899 36.8347C14.7419 36.8833 14.8096 36.9117 14.8807 36.9149Z" fill="black"/>
<path d="M84.6176 25.8454C84.8181 25.86 85.0186 25.8665 85.2191 25.8775L85.8311 25.8962L86.0259 25.9011C86.207 25.9048 86.3795 25.9792 86.5066 26.1083C86.6336 26.2375 86.7051 26.4112 86.7058 26.5924C86.7077 26.8551 86.7106 27.1177 86.7144 27.3801L86.7331 28.2915C86.7445 28.5952 86.751 28.899 86.7664 29.2028C86.7685 29.2417 86.7784 29.2798 86.7955 29.3148C86.8126 29.3498 86.8366 29.381 86.866 29.4066C86.8954 29.4322 86.9296 29.4516 86.9667 29.4636C87.0037 29.4757 87.0428 29.4802 87.0816 29.4769C87.1529 29.4683 87.2187 29.4344 87.2672 29.3815C87.3157 29.3285 87.3436 29.2599 87.3459 29.1882C87.361 28.8893 87.3675 28.5904 87.3785 28.2935L87.3972 27.3822C87.4012 27.1195 87.4041 26.8567 87.4057 26.594C87.4064 26.4129 87.4779 26.2393 87.6048 26.1101C87.7318 25.981 87.9042 25.9065 88.0853 25.9027L88.2801 25.8978L88.8921 25.8791C89.0954 25.8681 89.2988 25.8616 89.5041 25.8466C89.5423 25.8438 89.5795 25.8334 89.6137 25.8161C89.6479 25.7989 89.6783 25.775 89.7032 25.746C89.7281 25.7169 89.747 25.6832 89.7588 25.6468C89.7707 25.6104 89.7752 25.572 89.7721 25.5339C89.7648 25.4635 89.7327 25.3981 89.6816 25.3492C89.6305 25.3004 89.5637 25.2712 89.4931 25.2671C89.2927 25.2529 89.0922 25.2464 88.8917 25.2354L88.2796 25.2167L88.084 25.2118C87.9033 25.2081 87.7311 25.1339 87.6042 25.005C87.4773 24.8762 87.4058 24.7029 87.4049 24.5221C87.4049 24.259 87.4004 23.9959 87.3951 23.7323C87.3846 23.1248 87.3716 22.5172 87.3447 21.9093C87.3428 21.8702 87.3331 21.8319 87.3161 21.7966C87.299 21.7614 87.2751 21.73 87.2456 21.7043C87.2161 21.6785 87.1818 21.659 87.1446 21.6468C87.1074 21.6347 87.0681 21.6302 87.0291 21.6335C86.9576 21.6425 86.8916 21.6768 86.8432 21.7304C86.7948 21.7839 86.7673 21.853 86.7656 21.9251C86.7392 22.5274 86.725 23.1301 86.716 23.7323C86.7107 23.9955 86.7083 24.2586 86.7062 24.5217C86.7049 24.7023 86.6331 24.8752 86.5062 25.0037C86.3793 25.1322 86.2073 25.2062 86.0267 25.2098L85.8315 25.2146L85.2195 25.2333C85.0161 25.2443 84.8128 25.2508 84.6074 25.2663C84.5693 25.2691 84.532 25.2795 84.4979 25.2967C84.4637 25.314 84.4333 25.3378 84.4084 25.3669C84.3835 25.396 84.3646 25.4297 84.3527 25.4661C84.3409 25.5025 84.3364 25.5409 84.3394 25.579C84.3468 25.6491 84.3788 25.7144 84.4297 25.7631C84.4806 25.8119 84.5472 25.841 84.6176 25.8454Z" fill="black"/>
<path d="M47.2546 23.4594C47.5303 23.4826 47.8065 23.498 48.0822 23.5078C48.259 23.5148 48.4264 23.5895 48.5499 23.7163C48.6734 23.8431 48.7435 24.0124 48.7459 24.1893C48.7478 24.3089 48.7501 24.4285 48.7528 24.548L48.7715 25.2394C48.7829 25.4691 48.7894 25.6989 48.8048 25.9307C48.8075 25.9691 48.8177 26.0066 48.8349 26.041C48.8521 26.0754 48.876 26.106 48.9052 26.1311C48.9344 26.1562 48.9683 26.1752 49.0048 26.1871C49.0414 26.199 49.08 26.2035 49.1184 26.2003C49.1889 26.1927 49.2544 26.1601 49.3032 26.1086C49.3519 26.057 49.3807 25.9898 49.3843 25.9189C49.3994 25.6932 49.4055 25.4671 49.4169 25.2414L49.4356 24.5501C49.4386 24.4302 49.4409 24.3104 49.4425 24.1906C49.4439 24.0128 49.5138 23.8423 49.6377 23.7147C49.7615 23.5871 49.9297 23.5121 50.1074 23.5053C50.3864 23.4956 50.6657 23.4801 50.9447 23.4565C51.0213 23.45 51.0921 23.4135 51.1418 23.3549C51.1915 23.2963 51.2159 23.2204 51.2099 23.1438C51.2025 23.0737 51.1707 23.0085 51.12 22.9596C51.0692 22.9107 51.0028 22.8813 50.9325 22.8766C50.6564 22.8535 50.3803 22.8384 50.1045 22.8286C49.9269 22.8217 49.7588 22.7467 49.6351 22.6191C49.5113 22.4915 49.4415 22.3212 49.4401 22.1434C49.4382 22.0249 49.4356 21.9065 49.4323 21.788C49.4218 21.3285 49.4087 20.8689 49.3819 20.4094C49.3797 20.3707 49.3697 20.3328 49.3525 20.298C49.3354 20.2632 49.3114 20.2322 49.282 20.2068C49.2527 20.1814 49.2185 20.1622 49.1816 20.1503C49.1447 20.1384 49.1058 20.134 49.0671 20.1373C48.9963 20.1455 48.9308 20.1787 48.8823 20.2308C48.8337 20.283 48.8054 20.3508 48.8024 20.422C48.776 20.8771 48.7617 21.3321 48.7528 21.7868C48.7495 21.9052 48.747 22.0236 48.7451 22.1418C48.7429 22.3197 48.6725 22.4899 48.5484 22.6174C48.4242 22.7448 48.2559 22.8197 48.0781 22.8266C47.7987 22.8364 47.5194 22.8518 47.24 22.8758C47.1636 22.8825 47.0929 22.919 47.0433 22.9775C46.9937 23.036 46.9693 23.1117 46.9752 23.1881C46.9817 23.2593 47.0135 23.3257 47.0647 23.3755C47.116 23.4253 47.1833 23.455 47.2546 23.4594Z" fill="black"/>
<path d="M44.632 79.3768C44.4316 79.3626 44.2311 79.3561 44.0306 79.3451L43.4186 79.3264L43.223 79.3215C43.0424 79.3179 42.8703 79.244 42.7434 79.1155C42.6165 78.987 42.5448 78.814 42.5434 78.6334C42.5434 78.3703 42.5389 78.1072 42.5337 77.8437C42.5231 77.2361 42.5101 76.6286 42.4832 76.0206C42.4814 75.9815 42.4716 75.9432 42.4546 75.908C42.4375 75.8728 42.4136 75.8413 42.3841 75.8156C42.3546 75.7898 42.3203 75.7703 42.2831 75.7582C42.2459 75.746 42.2066 75.7415 42.1677 75.7449C42.0961 75.7538 42.0301 75.7882 41.9817 75.8417C41.9334 75.8952 41.9058 75.9643 41.9041 76.0364C41.8777 76.6387 41.8635 77.2414 41.8545 77.8437C41.8492 78.1068 41.8468 78.3699 41.8448 78.633C41.8434 78.8136 41.7717 78.9866 41.6448 79.1151C41.5178 79.2436 41.3458 79.3175 41.1652 79.3211L40.97 79.326L40.358 79.3447C40.1547 79.3557 39.9513 79.3622 39.746 79.3776C39.7078 79.3805 39.6706 79.3908 39.6364 79.4081C39.6022 79.4254 39.5718 79.4492 39.5469 79.4783C39.522 79.5073 39.5031 79.541 39.4913 79.5774C39.4794 79.6138 39.4749 79.6522 39.478 79.6904C39.4853 79.7606 39.5173 79.826 39.5683 79.8749C39.6193 79.9237 39.686 79.9529 39.7565 79.9571C39.957 79.9718 40.1575 79.9783 40.358 79.9893L40.97 80.008L41.1648 80.0129C41.346 80.0166 41.5185 80.091 41.6455 80.2201C41.7725 80.3493 41.8441 80.523 41.8448 80.7042C41.8467 80.9669 41.8495 81.2295 41.8533 81.4919L41.872 82.4033C41.8834 82.7071 41.8899 83.0108 41.9054 83.3146C41.9074 83.3535 41.9173 83.3916 41.9344 83.4266C41.9515 83.4616 41.9755 83.4928 42.0049 83.5184C42.0343 83.544 42.0685 83.5634 42.1056 83.5754C42.1426 83.5875 42.1817 83.592 42.2205 83.5887C42.2918 83.5801 42.3577 83.5462 42.4061 83.4933C42.4546 83.4403 42.4826 83.3717 42.4849 83.3C42.4999 83.0011 42.5064 82.7022 42.5174 82.4053L42.5361 81.494C42.5402 81.2312 42.543 80.9685 42.5446 80.7058C42.5453 80.5247 42.6168 80.3511 42.7437 80.2219C42.8707 80.0927 43.0431 80.0183 43.2242 80.0145L43.419 80.0096L44.031 79.9909C44.2343 79.9799 44.4377 79.9734 44.643 79.9584C44.6812 79.9555 44.7184 79.9452 44.7526 79.9279C44.7867 79.9107 44.8172 79.8868 44.8421 79.8577C44.867 79.8287 44.8859 79.795 44.8977 79.7586C44.9095 79.7222 44.9141 79.6838 44.911 79.6456C44.9042 79.5749 44.8723 79.509 44.8212 79.4597C44.77 79.4105 44.7029 79.3811 44.632 79.3768Z" fill="black"/>
<path d="M111.613 67.8426C112.254 67.8426 112.773 67.3233 112.773 66.6828C112.773 66.0422 112.254 65.5229 111.613 65.5229C110.973 65.5229 110.453 66.0422 110.453 66.6828C110.453 67.3233 110.973 67.8426 111.613 67.8426Z" fill="black"/>
<path d="M39.9565 42.5244C40.5971 42.5244 41.1163 42.0052 41.1163 41.3646C41.1163 40.7241 40.5971 40.2048 39.9565 40.2048C39.316 40.2048 38.7968 40.7241 38.7968 41.3646C38.7968 42.0052 39.316 42.5244 39.9565 42.5244Z" fill="black"/>
<path d="M11.44 86.5363C12.0805 86.5363 12.5998 86.017 12.5998 85.3765C12.5998 84.7359 12.0805 84.2167 11.44 84.2167C10.7994 84.2167 10.2802 84.7359 10.2802 85.3765C10.2802 86.017 10.7994 86.5363 11.44 86.5363Z" fill="black"/>
<path d="M47.6234 73.4278C48.264 73.4278 48.7832 72.9086 48.7832 72.268C48.7832 71.6274 48.264 71.1082 47.6234 71.1082C46.9829 71.1082 46.4636 71.6274 46.4636 72.268C46.4636 72.9086 46.9829 73.4278 47.6234 73.4278Z" fill="black"/>
<path d="M98.2747 23.8722C98.9152 23.8722 99.4345 23.353 99.4345 22.7124C99.4345 22.0719 98.9152 21.5526 98.2747 21.5526C97.6341 21.5526 97.1149 22.0719 97.1149 22.7124C97.1149 23.353 97.6341 23.8722 98.2747 23.8722Z" fill="black"/>
<path d="M23.6997 23.4404C24.3403 23.4404 24.8595 22.9211 24.8595 22.2805C24.8595 21.64 24.3403 21.1207 23.6997 21.1207C23.0592 21.1207 22.5399 21.64 22.5399 22.2805C22.5399 22.9211 23.0592 23.4404 23.6997 23.4404Z" fill="black"/>
<path d="M9.99709 47.1535C10.6376 47.1535 11.1569 46.6342 11.1569 45.9937C11.1569 45.3531 10.6376 44.8339 9.99709 44.8339C9.35655 44.8339 8.83728 45.3531 8.83728 45.9937C8.83728 46.6342 9.35655 47.1535 9.99709 47.1535Z" fill="black"/>
</svg>
