<svg width="200" height="191" viewBox="0 0 200 191" fill="none" xmlns="http://www.w3.org/2000/svg">
<path fill-rule="evenodd" clip-rule="evenodd" d="M61.4683 141.112C64.9507 141.938 58.9916 133.302 59.8809 139.564C59.9624 141.11 59.9626 141.11 61.4683 141.112ZM138.684 83.6432C138.49 77.066 129.701 82.0861 132.902 85.6032C134.674 88.11 138.576 86.3577 138.684 83.6432ZM120.587 109.578C120.557 105.666 114.636 105.364 114.555 109.486C114.756 113.284 120.755 114.798 120.587 109.578ZM50.6215 136.985C50.286 135.706 51.4931 132.862 49.7055 132.629C47.5055 133.068 43.9493 131.626 42.4825 133.477C42.9607 135.636 41.186 140.237 43.4286 141.12C47.3582 140.791 51.7898 142.82 50.6215 136.985ZM55.3245 114.87C61.1969 116.079 59.1078 111.453 59.431 107.526C58.5014 105.457 54.4551 106.977 52.4351 106.372C49.4675 106.574 51.5742 111.553 50.9357 113.62C50.8367 115.828 53.9535 114.532 55.3245 114.87ZM55.0541 141.111C61.1407 142.29 59.1078 137.914 59.0088 133.804C59.2973 132.005 50.6444 131.985 50.9433 133.632C51.1709 137.361 49.4537 142.426 55.0541 141.111ZM129.312 96.1552C129.78 89.7171 119.465 87.317 118.43 94.1104C115.045 103.529 128.877 107.42 129.312 96.1552ZM97.721 99.8406C106.226 98.6709 107.558 85.6329 97.8011 85.4887C90.8176 85.6118 90.2691 99.7667 97.721 99.8406ZM92.1388 112.941C93.6082 101.834 77.3905 99.8664 77.6674 111.049C79.371 121.158 91.6289 125.711 92.1388 112.941ZM102.435 104.222C97.5772 105.902 105.111 114.106 108.231 109.419C113.466 104.955 104.671 96.8637 102.435 104.222ZM58.7526 130.512C59.2629 126.835 59.4254 121.518 59.4555 116.46C58.7867 113.713 53.3806 115.989 51.0396 115.378C48.6236 115.772 43.2752 113.82 42.4085 116.444C42.4968 121.31 42.4968 126.181 42.423 131.047C44.826 134.424 56.1026 130.596 60.6161 132.8C66.9377 133.859 73.7427 124.273 67.422 119.756C65.7028 117.705 60.9745 119.477 61.9775 116.239C61.978 115.918 63.0403 115.465 61.9501 115.312C58.5073 114.135 60.1602 119.368 59.868 121.309C70.4412 119.527 67.6156 130.713 58.7526 130.512ZM141.515 76.2928C146.263 79.006 152.465 81.3715 153.359 87.3163C156.728 91.3724 160.303 96.5962 160.83 102.218C149.7 97.8063 153.417 117.559 161.193 107.429C163.35 105.423 161.479 110.607 162.853 111.318C162.139 112.543 163.238 113.402 163.48 114.435C163.522 115.273 163.533 116.137 164.769 115.975C163.493 116.49 164.85 123.164 164.872 124.893C160.903 121.676 156.294 118.398 151.143 117.673C150.441 115.072 147.177 114.657 144.973 113.635C141.994 112.848 141.77 112.082 144.719 111.258C149.113 108.472 151.264 99.9947 145.995 97.0235C137.18 92.5205 133.32 103.134 136.543 109.871C134.965 109.886 133.377 109.791 131.812 109.941C123.932 110.441 117.581 114.711 111.254 118.915C107.805 122.844 107.179 117.222 103.555 119.548C104.202 120.96 106.235 121.197 105.979 123.048C104.524 124.751 103.516 120.006 101.671 120.331C99.5154 122.568 104.466 125.229 103.877 126.1C102.081 125.976 101.707 127.771 100.303 128.284C98.9702 124.564 94.9803 123.006 91.2255 123.983C84.5052 125.394 84.4134 134.553 88.6182 138.713C87.4196 140.875 85.35 142.445 83.6884 144.252C71.7891 151.715 83.7877 136.025 71.1138 137.441C67.4264 137.196 67.387 142.978 65.1577 142.19C55.4475 140.323 43.5673 142.08 33.1533 141.555C27.6475 140.993 38.7305 141.017 40.8396 141.129C43.085 140.794 42.0855 134.379 41.7131 132.637C32.6154 132.655 23.5135 132.661 14.4209 132.635C16.4572 131.872 15.6979 130.549 15.5863 128.36C17.932 132.682 13.3275 132.464 23.49 132.281C26.4022 130.913 23.5725 124.583 24.84 121.984C26.1671 124.572 23.1068 131.207 26.3731 132.301C29.7721 131.394 41.3324 134.176 42.0691 130.835C42.4298 106.598 42.9011 118.28 25.4377 114.871C33.479 114.795 41.5185 114.794 49.56 114.886C50.476 114.895 50.6395 114.449 50.6305 113.683C49.9838 111.596 52.089 106.707 49.2678 106.355C43.101 106.334 41.7332 105.208 42.4012 112.363C42.2479 104.641 41.4515 106.508 34.6591 106.281C36.2616 104.43 40.6096 107.272 42.0225 105.33C41.7737 101.537 42.624 100.18 42.384 104.819C42.8714 107.384 47.4376 105.41 49.442 106.033C52.1424 105.281 49.7305 100.429 50.9328 98.2144C51.9626 100.437 49.4066 105.436 52.1924 106.028C59.835 106.086 59.4637 107.085 59.6858 99.5456C60.7413 103.163 58.4085 112.871 60.6789 114.843C64.123 115.477 64.4487 109.408 65.9407 107.053C66.6135 103.854 69.3945 101.673 70.7469 98.6626C70.7678 95.7712 75.6021 98.8696 77.6737 97.2458C81.8491 95.4696 85.9399 88.4155 81.3294 85.132C78.8949 83.2442 83.6979 82.5751 84.9252 82.5306C85.0924 81.4841 85.8349 82.328 86.2531 82.1119C86.7571 81.8515 87.2871 81.5319 87.8306 81.4754C91.1335 81.6676 94.6666 80.0358 97.7482 80.9241C97.9601 80.999 98.1867 81.0311 98.4068 81.0821C98.5502 79.7796 100.153 79.6095 101.032 79.2516C103.72 80.1525 102.929 77.1687 104.502 82.0994C107.073 87.9499 113.439 81.6304 111.724 77.2813C121.797 76.7878 131.504 75.632 141.515 76.2928Z" fill="#34BFF4"/>
<path fill-rule="evenodd" clip-rule="evenodd" d="M105.743 184.979C105.536 184.735 105.377 184.431 105.16 184.767C105.233 185.178 105.357 185.21 105.743 184.979ZM78.8034 176.273C80.2163 176.09 78.2669 174.658 77.4703 174.748C76.879 175.782 77.5831 176.504 78.8034 176.273ZM70.4566 158.949C67.1987 158.491 68.978 163.432 69.0185 165.479C68.9704 167.591 71.6874 167.72 71.4039 165.995C69.6974 163.719 74.1941 158.568 70.4566 158.949ZM68.6586 172.052C68.97 173.396 67.7424 176.388 69.9139 176.28C71.7893 175.663 77.0653 177.78 76.5068 174.639C75.2224 170.543 67.7039 162.732 68.6586 172.052ZM33.1666 154.33C34.3475 149.301 29.7469 150.914 26.4132 150.691C24.1123 151.234 25.8443 155.37 25.325 157.232C26.1087 159.421 30.1714 157.701 32.1287 158.234C33.9881 158.193 32.8817 155.53 33.1666 154.33ZM46.3854 158.225C47.6037 157.888 50.3394 159.059 50.5642 157.3C50.0645 155.413 51.7143 151.419 49.6042 150.694C47.6005 151.189 43.7267 149.582 42.7338 151.59C42.8039 155.309 40.8645 159.285 46.3854 158.225ZM38.0747 150.694C36.7763 151.009 33.9418 149.809 33.8508 151.79C34.364 153.642 32.7031 157.545 34.8534 158.227C36.9589 157.844 40.1533 159.075 41.6979 157.515C41.7163 153.771 43.6488 149.596 38.0747 150.694ZM63.94 158.217C65.1389 157.918 67.7504 159.023 67.9579 157.312C67.4558 155.421 69.107 151.419 66.9914 150.693C64.9641 151.226 60.6671 149.474 59.8722 151.691C60.0608 155.531 58.4751 159.269 63.94 158.217ZM59.1594 162.782C59.1001 156.222 59.3734 160.607 56.0123 158.952C54.6176 159.277 51.4034 157.98 51.2521 160.002C51.8072 162.024 50.0066 166.356 52.3109 167.092C56.3757 166.887 60.2622 168.547 59.1594 162.782ZM68.0858 162.909C68.2134 157.062 65.9602 159.363 61.1855 158.934C58.8655 159.64 60.6853 164.006 60.1248 166.021C60.127 167.842 62.6814 166.858 63.8463 167.086C67.4107 167.485 68.2214 166.388 68.0858 162.909ZM50.7035 172.042C49.9723 171.074 51.6112 167.829 49.5422 167.775C47.5872 168.3 43.5459 166.624 42.728 168.737C43.2746 170.815 41.471 175.202 43.7764 176.012C47.5103 175.946 51.3271 177.033 50.7035 172.042ZM50.6981 163.117C51.1907 157.363 48.45 159.219 43.964 158.923C41.3677 159.327 43.3144 163.868 42.7127 165.83C42.5868 167.902 45.3221 166.849 46.6011 167.086C49.9903 167.474 50.7883 166.433 50.6981 163.117ZM67.972 172.161C67.6386 170.79 68.9261 167.671 66.7223 167.771C64.7291 168.259 59.0466 166.297 60.2469 169.997C61.4142 171.707 58.6831 175.749 61.1549 176.266C65.0575 176.021 69.0821 177.804 67.972 172.161ZM24.3602 145.881C24.0278 144.551 25.2849 141.558 23.2273 141.527C21.2852 142.074 17.1704 140.329 16.4473 142.542C17.0265 144.67 15.1732 149.159 17.4931 150C21.3905 149.732 25.4795 151.55 24.3602 145.881ZM59.2851 172.091C58.5819 171.027 60.2455 167.728 57.9678 167.769C56.0399 168.339 51.8737 166.532 51.2506 168.866C51.8443 170.951 49.9425 175.589 52.3626 176.264C56.2467 176.241 59.9451 177.184 59.2851 172.091ZM33.095 158.91C25.6849 158.95 24.7659 157.463 25.3105 165.783C26.4426 168.866 37.0503 166.238 40.5131 167.101C43.0713 166.727 41.2362 162.293 41.7569 160.38C41.744 157.379 35.32 159.551 33.095 158.91ZM65.8335 142.62C66.9397 142.76 67.5963 143.891 68.0998 142.528C70.5915 137.7 77.2265 140.249 74.0104 145.665C70.0999 145.767 68.0936 142.12 68.6598 149.015C69.4365 151.16 73.6675 149.511 75.642 149.958C78.2376 149.166 74.2074 143.676 78.278 146.124C76.6402 146.742 77.2124 148.845 77.5622 149.842C82.3739 146.481 85.8906 141.183 90.4855 137.302C103.372 124.392 95.0652 137.165 94.7369 145.968C92.3893 161.352 95.4039 156.76 73.982 157.167C72.7957 155.469 78.2007 151.486 75.5495 150.691C73.5804 151.249 69.0122 149.35 68.6499 151.965C69.0139 155.293 67.2135 158.972 72.1527 158.233C88.1042 159.184 102.061 153.811 85.1975 173.194C77.6271 183.468 89.3812 170.107 91.5572 167.241C94.29 167.832 90.9019 177.371 93.6192 180.626C95.9467 177.528 89.6938 158.045 100.959 159.318C103.88 160.393 112.547 159.184 113.189 162.146C112.418 167.614 108.044 182.378 110.954 186.011C112.564 186.11 112.76 158.952 116.536 161.431C118.939 162.612 133.778 162.509 131.318 165.707C126.501 172.856 121.334 179.755 115.713 186.292C115.258 186.835 115.794 186.962 115.901 187.276C115.102 187.582 114.388 188.015 113.531 187.17C112.194 186.463 110.217 186.482 108.777 185.804C107.968 185.488 107.206 185.105 106.339 185.51C104.46 185.875 103.531 183.504 101.459 183.827C98.4898 184.527 96.0222 180.979 93.3346 182.427C91.3039 181.971 89.4622 180.434 87.1236 180.609C84.9515 180.774 83.2307 178.596 81.1335 179.05C81.7693 177.748 81.7673 177.753 80.3818 177.257C76.8365 174.407 76.2345 180.973 78.397 179.524C78.9062 179.206 79.7189 179.375 80.3934 179.322C77.9539 180.66 75.4612 182.047 72.649 182.348C74.624 180.345 77.812 181.216 76.8467 177.595C76.7656 176.911 76.4682 176.692 75.8346 176.696C73.8105 177.261 69.2927 175.416 68.6536 177.793C69.0234 179.642 67.5066 182.938 70.4028 182.798C67.6623 184.136 64.3527 184.273 61.3837 183.906C61.1306 181.849 65.3541 184.2 66.8376 183.09C68.5677 183.219 68.5903 176.414 66.9606 176.695C60.723 176.174 59.7713 177.034 59.8919 183.231C58.2788 182.775 58.5372 182.437 59.1329 181.151C60.2857 174.937 56.8008 177.03 52.375 176.692C49.9408 177.331 51.8546 181.821 51.3105 183.854C49.5443 183.414 50.981 179.594 50.5792 177.9C50.1497 175.354 45.4733 177.278 43.4779 176.696C42.9262 176.694 42.644 176.782 42.6796 177.485C43.3688 184.926 42.3873 183.245 36.4466 181.283C40.9077 180.629 42.189 184.827 41.7659 177.842C41.6975 175.695 38.346 177.078 36.9202 176.699C33.9187 176.699 33.9192 176.699 33.8469 179.611C31.694 179.884 35.3351 175.662 30.3613 176.712C25.2343 175.516 38.3902 176.065 40.8562 176.019C42.9121 175.009 41.2163 171.03 41.7707 168.986C40.0819 166.045 30.3739 168.621 26.6664 167.765C24.4724 167.592 25.5929 170.368 25.3418 171.703C23.3557 170.148 26.1235 167.333 22.7561 167.789C25.7307 166.83 24.3085 163.926 24.6337 160.152C24.2413 156.76 18.2315 161.044 18.0755 158.194C19.9545 157.692 23.9897 159.442 24.626 157.187C24.2823 155.151 25.3464 152.246 24.028 150.634C18.0677 150.363 14.4552 149.211 17.5436 156.71C13.2001 152.607 17.9807 143.089 14.6472 141.517C14.1046 141.526 14.2437 141.029 14.6328 140.909C17.1705 139.892 15.1487 135.069 15.7503 132.687C18.9303 137.581 11.7291 142.122 23.5059 140.815C25.5827 139.642 22.4567 132.734 25.3709 132.633C25.8083 141.247 22.8451 140.005 31.059 141.484C29.3963 141.963 25.6176 140.407 25.315 142.669C25.9129 144.751 23.9975 149.339 26.4562 150.004C37.7249 151.339 30.7466 146.305 33.8904 141.511C34.1303 148.714 31.6893 150.8 40.5509 150.007C43.2603 149.153 41.0813 143.914 41.7242 141.508C44.9496 141.585 40.3454 149.864 44.1486 150.014C52.8407 150.812 50.2237 148.471 50.552 141.559C53.0954 142.078 49.1855 149.523 52.4692 150.007C61.2917 150.8 58.9007 148.713 59.1225 141.51C62.2933 141.577 57.8974 149.596 61.3529 150.003C65.5327 150.074 68.9442 150.56 67.9611 145.312C68.2956 143.534 65.635 144.375 65.8335 142.62Z" fill="#0C88DE"/>
<path fill-rule="evenodd" clip-rule="evenodd" d="M94.6457 160.629C95.0027 160.122 96.499 159.6 95.8291 159.031C94.6797 158.666 93.7501 159.653 94.6457 160.629ZM139.847 165.664C138.108 166.323 141.478 168.775 141.925 169.935C143.109 171.134 143.156 168.497 143.724 167.992C145.089 165.857 141.125 166.216 139.847 165.664ZM146.241 167.127C141.901 170.682 145.62 174.881 148.36 178.081C148.911 178.841 149.286 178.617 149.678 178.061C155.764 168.905 158.732 169.507 146.241 167.127ZM172.597 184.247C172.281 192.53 180.7 177.157 183.234 175.098C183.78 174.414 183.594 174.237 182.85 174.135C170.027 171.234 174.159 173.617 172.597 184.247ZM115.791 158.776C119.537 161.364 127.105 160.618 132.079 162.34C134.463 162.089 129.418 157.891 128.72 156.388C118.217 143.761 120.723 141.882 115.791 158.776ZM113.297 159.168C115.559 155.005 117.741 147.83 118.125 143.019C116.452 141.553 113.718 134.666 111.745 136.152C101.266 159.343 89.7994 157.452 113.297 159.168ZM171.041 170.283C171.987 170.312 172.121 170.045 172.432 168.626C173.697 161.897 175.893 155.397 179.549 149.57C181.627 146.836 176.301 146.237 174.853 144.652C170.996 141.123 169.298 151.856 166.937 154.079C160.508 167.464 151.512 167.694 171.041 170.283ZM184.079 172.547C188.789 169.891 190.776 162.901 193.969 158.443C195.037 156.663 195.118 156.62 193.377 155.606C189.63 154.26 185.021 149.132 181.483 149.922C177.686 156.078 175.215 162.788 174.077 169.917C174.813 172.382 181.56 171.474 184.079 172.547ZM148.344 127.282C146.279 125.42 136.333 117.583 134.357 119.993C129.452 127.004 121.871 135.343 121.52 143.771C125.604 148.878 129.609 154.047 133.75 159.106C135.476 161.546 136.738 156.171 137.71 155.053C141.003 148.55 144.028 141.948 146.241 134.989C151.701 130.384 138.009 158.613 136.557 160.301C134.235 164.46 141.304 163.659 143.642 164.663C146.803 165.014 147.947 155.597 150.846 153.382C154.497 152.727 147.406 162.018 147.027 164.116C146.478 165.209 146.538 165.361 147.706 165.62C150.686 165.665 155.017 168.526 157.387 166.618C162.249 158.809 167.162 151.005 171.124 142.689C171.885 141.222 169.194 141.336 168.48 140.379C166.788 139.728 164.733 136.47 162.951 138.1C160.091 140.58 155.265 151.548 152.43 151.215C152.149 147.475 164.313 137.209 161.29 135.539C158.741 134.538 150.992 126.606 149.526 128.643C148.27 136.369 146.076 132.833 148.344 127.282ZM115.901 187.276C114.454 185.342 136.114 164.115 130.615 163.865C109.839 160.321 115.669 157.506 111.653 183.756C111.414 184.523 112.261 186.008 110.956 186.011C108.706 185.433 110.577 181.061 110.309 179.181C111.133 173.489 111.671 167.708 113.188 162.147C113.586 160.052 110.277 160.833 109.003 160.343C104.639 160.47 98.2876 156.795 95.7901 161.774C91.2885 166.197 95.8822 177.684 93.6186 180.627C89.1654 168.03 98.4797 160.91 84.3343 174.895C85.9295 169.995 96.5697 163.284 91.6326 158.509C85.1384 158.449 78.646 158.291 72.1528 158.234C68.657 158.203 68.6561 158.264 68.6565 154.803C68.923 153.495 67.8003 150.652 69.8725 150.682C80.3193 150.445 74.976 150.778 73.9816 157.166C79.6876 157.838 85.6584 157.002 91.4482 157.164C94.589 157.988 94.3926 142.855 95.8485 139.896C96.0751 135.8 100.94 123.418 98.5383 135.109C93.1559 158.695 92.2724 167.629 107.49 140.749C108.626 138.212 111.882 135.793 110.573 132.775C109.482 130.773 102.315 121.409 107.051 123.716C105.614 123.954 106.841 126.14 107.714 125.032C110.825 129.455 112.264 134.348 114.194 126.581C115.529 125.234 116.761 110.999 118.322 116.259C117.977 127.208 108.966 131.136 118.653 140.147C119.484 141.063 119.725 140.955 120.235 139.839C123.334 132.249 127.84 125.349 133.158 119.131C134.888 116.326 125.737 114.981 123.819 113.458C119.464 108.391 135.213 119.559 136.344 115.806C137.655 114.438 140.794 110.352 142.517 112.73C133.4 118.867 137.388 118.226 144.567 122.641C150.511 127.82 149.05 120.022 149.679 115.915C153.367 117.944 149.327 123.474 150.416 126.346C153.948 129.155 157.972 131.309 161.67 133.895C164.61 136.414 167.575 130.098 169.604 128.212C175.478 128.663 163.28 134.111 165.556 136.59C175.838 144.39 170.562 138.462 176.677 133.45C175.113 142.26 170.106 140.6 180.35 146.345C182.443 147.22 183.593 143.357 184.995 142.176C185.675 141.111 186.362 142.514 186.94 141.961C185.957 144.905 180.371 147.619 185.733 149.362C188.781 151.131 191.83 152.898 194.871 154.679C196.203 155.637 196.595 152.692 197.68 152.989C198.828 153.743 196.355 155.775 198.003 156.462C198.822 156.755 198.827 157.554 198.923 158.291C197.363 158.296 196.467 156.692 195.656 158.629C192.942 163.082 190.243 167.545 187.549 172.01C185.936 174.495 194.258 172.509 192.506 174.914C190.119 175.97 186.788 173.763 185.035 175.451C181.218 179.758 177.584 187.268 172.358 188.934C166.335 173.61 181.194 173.248 159.187 169.787C154.984 169.915 153.683 176.61 150.77 179.284C148.845 181.428 162.254 192.077 154.266 188.803C152.523 187.597 149.922 181.422 147.949 183.109C146.291 186.376 137.669 194.184 143.515 186.207C148.179 180.912 148.048 179.799 142.707 175.253C140.711 179.136 140.511 183.604 140.086 187.868C140.241 189.905 137.555 189.469 138.412 187.686C138.852 176.069 145.339 175.114 135.438 165.132C133.649 163.242 132.682 167.673 131.562 168.626C126.596 174.586 122.423 183.83 115.901 187.276Z" fill="#0441A8"/>
<path fill-rule="evenodd" clip-rule="evenodd" d="M123.696 29.1048C127.339 29.8742 125.547 25.9948 123.176 25.9471C119.798 26.6102 119.21 30.4575 123.696 29.1048ZM106.839 29.3159C111.655 30.2623 110.523 26.5626 107.336 25.963C104.807 26.0427 103.056 30.4956 106.839 29.3159ZM76.4518 29.6391C80.6529 30.4876 79.4499 26.4836 76.6185 25.9177C73.6463 26.0686 72.1359 30.6818 76.4518 29.6391ZM92.0742 29.5317C96.1779 30.5542 95.5841 26.9586 92.644 25.9454C89.9457 25.6375 87.5571 30.4146 92.0742 29.5317ZM26.2246 88.8663C29.0888 90.6965 26.1564 85.5806 28.1308 85.1341C29.4438 84.5292 27.5179 82.8833 27.2925 81.9501C25.37 79.1622 24.4694 88.8347 26.2246 88.8663ZM141.514 76.2929C136.501 75.3121 142.295 44.1696 139.083 37.9407C138.308 33.1718 129.757 28.3951 127.055 33.7469C126.283 35.1719 124.494 37.3331 122.668 36.9172C122.613 34.7852 125.079 34.0846 125.456 32.0835C121.334 31.9027 117.195 32.0323 113.067 31.96C111.76 31.7618 111.717 33.4579 111.067 34.2724C110.467 35.4941 107.868 38.2501 106.681 36.7098C106.535 36.1804 106.226 35.5053 107.324 35.1091C113.912 30.1479 102.563 32.8578 99.5448 32.0899C95.7149 31.3952 96.2649 36.2704 92.9424 36.9952C90.5111 37.3972 92.0459 34.9703 93.2926 34.2851C96.5792 30.3416 85.515 32.9012 82.7884 32.1949C79.5802 32.1821 79.7841 37.8068 75.9619 36.9291C74.9396 35.1488 81.0405 32.4487 77.244 32.3701C71.4419 32.8581 62.8744 29.9611 60.5851 37.2705C58.2858 44.4645 59.8297 52.2267 59.4536 59.6582C59.4342 61.8929 59.3444 61.9313 61.5245 62.8598C78.8843 69.8242 79.3475 92.9038 74.6349 81.7849C71.3684 61.1284 35.2985 57.9451 42.8737 68.5258C38.293 71.4495 43.1367 60.4021 34.3544 68.2233C33.6442 68.7462 32.8719 69.1781 33.1368 70.2751C33.0958 70.499 32.035 70.5265 31.9013 70.4611C30.7922 71.7287 30.0795 73.3088 29.2921 74.7058C27.664 75.5524 27.011 77.7386 27.0584 79.4102C27.0564 79.7559 26.1298 79.9996 26.8941 80.3861C27.9836 80.1781 27.9113 79.0712 28.3953 80.6071C30.2435 81.4588 27.3022 84.807 30.105 84.0716C31.3549 85.949 31.8203 83.4247 32.9713 83.0903C34.1135 82.9409 33.3776 81.5917 34.2617 81.4222C34.9754 81.1416 35.5642 81.0701 34.813 80.2643C35.3784 80.6309 34.9998 81.0351 34.9023 81.4676C34.0431 82.6677 35.0799 84.2781 33.5614 84.6853C31.6793 83.6338 33.5678 86.0686 31.851 85.866C31.1428 86.1372 26.7921 87.9903 28.8311 89.6025C30.5556 92.0784 24.6569 89.7021 25.5329 91.5096C27.0339 96.774 29.123 101.248 32.8835 105.573C34.4398 109.621 28.1204 99.7872 18.5736 102.497C14.2196 102.23 11.1163 105.221 7.59357 106.996C7.43384 103.834 11.8843 102.438 14.1863 100.951C15.3333 100.322 17.2684 100.928 17.842 99.7067C18.1773 99.4341 18.7989 99.9913 19.0261 100.16C25.1558 99.4118 31.1595 104.601 23.7155 95.754C22.0638 95.0455 19.343 94.3027 18.0303 95.6627C18.8244 95.6079 17.2788 97.0216 18.6413 96.6478C18.6847 96.6358 18.8424 97.0414 18.9467 97.2523C14.5311 99.2279 19.095 92.9143 11.7058 97.5876C7.51566 99.4337 -3.29361 109.447 5.31775 111.609C13.2223 111.12 20.2236 105.826 28.3005 106.08C37.7697 108.39 24.4206 108.345 21.0784 109.571C-5.9998 121.891 -6.2502 102.097 16.0889 93.7686C18.0393 92.1628 24.1742 94.8583 23.7807 92.4734C20.6925 79.879 28.2063 66.0865 40.594 62.0671C41.0349 61.8577 42.532 61.2865 41.4603 60.9281C33.9836 57.6607 28.2526 51.1156 23.9537 44.3502C19.5519 31.3872 40.0495 37.7553 44.7656 42.8734C46.5413 44.0427 59.3723 57.0817 52.2591 55.6291C51.7047 54.8911 50.4622 55.2102 50.6567 56.1634C51.2879 55.6552 50.3387 55.4396 49.8766 55.4063C53.5937 53.2572 36.3383 39.7305 32.999 39.8128C30.6417 38.1574 22.6453 39.778 26.2438 43.3949C30.9936 49.7393 36.4518 57.0444 44.2982 59.2197C44.2534 60.9587 44.2495 60.9248 45.767 60.6753C48.9282 60.1548 52.0864 60.2558 55.234 60.824C56.9937 61.0271 57.6964 61.4964 57.4843 59.3051C57.6456 48.4365 53.6311 28.2956 70.2227 29.6632C72.7621 29.6491 71.4276 24.7624 75.115 23.9057C81.8708 22.4003 80.5692 29.215 82.4582 29.5818C84.2126 29.4913 86.9287 30.8562 87.5286 28.347C87.9304 22.8172 96.0191 22.1193 97.1882 27.5509C97.2049 29.8136 98.4032 29.379 100.228 29.404C102.171 29.3649 102.111 29.3431 102.778 27.4874C103.968 22.0762 112.112 22.7254 112.359 28.24C112.527 30.0536 115.154 29.0225 116.42 29.3526C118.034 29.369 118.063 29.3339 118.489 27.6715C119.776 23.1755 125.389 22.0759 127.812 26.5071C128.448 28.5162 128.178 29.5328 130.755 29.2407C140.311 28.9818 143.117 39.8212 142.393 47.539C142.06 57.0092 143.537 67.1534 141.514 76.2929Z" fill="#171616"/>
<path fill-rule="evenodd" clip-rule="evenodd" d="M116.246 187.565C123.454 181.382 128.397 172.967 133.745 165.22C136.271 163.379 139.163 171.081 141.188 172.695C141.685 176.84 138.315 180.88 138.677 185.243C138.842 186.438 137.517 188.675 138.889 189.228C141.529 187.702 139.977 181.78 141.303 178.832C142.633 172.287 144.758 177.411 147.093 180.325C147.284 182.569 144.537 184.302 143.517 186.207C141.49 191.146 136.763 190.203 132.412 189.57C130.457 190.064 128.334 189.053 126.483 189.851C125.57 190.42 124.521 190.208 124.039 189.713C121.75 188.202 118.732 189.141 116.246 187.565Z" fill="#0C88DE"/>
<path fill-rule="evenodd" clip-rule="evenodd" d="M141.573 189.776C144.942 189.442 146.826 181.452 149.521 183.128C151.454 184.646 154.627 191.624 156.956 188.779C148.576 179.233 149.78 180.583 156.695 170.711C160.163 168.142 165.989 172.127 170.231 172.029C173.7 173.463 169.526 180.868 171.295 184.31C170.575 186.356 173.343 189.321 170.874 189.24C165.084 191.121 159.08 188.635 153.363 190.54C151.939 191.242 150.159 189.862 148.803 190.64C147.258 189.12 145.191 191.153 143.538 189.858C143.119 189.529 142.241 189.787 141.573 189.776Z" fill="#0C88DE"/>
<path fill-rule="evenodd" clip-rule="evenodd" d="M149.25 80.4499C145.637 78.8983 149.689 77.035 149.963 74.2412C151.291 70.1415 152.826 66.0607 155.802 62.9228C165.701 49.2998 188.962 57.4334 173.52 73.1697C163.05 85.7768 190.749 80.4672 177.734 96.7055C185.495 94.4057 202.391 101.206 191.371 109.462C189.132 111.418 162.626 118.388 163.48 114.436C211.727 109.513 191.882 92.2687 169.855 100.747C167.438 101.444 160.707 106.82 160.788 102.134C161.429 101.761 166.535 99.6941 165.3 98.9905C164.454 98.5035 164.797 98.1914 165.496 97.7796C166.369 98.4323 165.407 99.8332 166.669 99.1974C170.56 97.9356 174.165 96.1541 177.089 93.224C182.986 87.8116 174.964 85.3205 171.301 82.667C164.878 77.951 172.719 71.358 175.554 66.9325C180.473 57.8166 166.177 55.5653 161.201 60.8714C153.993 65.2235 153.636 74.0643 149.25 80.4499Z" fill="#171616"/>
<path fill-rule="evenodd" clip-rule="evenodd" d="M197.508 152.859C196.466 153.348 196.145 155.432 194.871 154.679C191.16 152.534 187.486 150.322 183.737 148.244C181.916 146.31 186.73 144.141 186.94 141.961C186.362 142.514 185.674 141.111 184.995 142.175C181.035 149.076 179.562 145.549 174.273 142.441C171.94 141.061 179.724 132.9 175.635 133.796C174.061 135.498 173.739 140.487 171.436 140.503C169.982 138.798 164.157 137.463 165.534 135.021C171.555 128.732 171.04 127.53 177.908 133.722C185.161 139.263 192.899 145.147 197.508 152.859Z" fill="#0C88DE"/>
<path fill-rule="evenodd" clip-rule="evenodd" d="M173.86 189.013C178.415 184.831 181.846 177.877 186.597 174.771C188.531 175.295 190.54 175.236 192.507 174.914C190.756 178.958 190.639 183.579 186.857 186.531C183.081 188.845 178.169 189.007 173.86 189.013Z" fill="#0C88DE"/>
<mask id="mask0_1267_44490" style="mask-type:alpha" maskUnits="userSpaceOnUse" x="187" y="153" width="13" height="22">
<path d="M187.399 153.334H200V174.028H187.399V153.334Z" fill="white"/>
</mask>
<g mask="url(#mask0_1267_44490)">
<path fill-rule="evenodd" clip-rule="evenodd" d="M192.959 174.028C191.665 173.307 186.456 173.957 187.549 172.011C189.937 169.6 194.84 156.321 197.815 158.079C199.319 158.916 199.108 156.911 198.004 156.462C196.674 155.823 198.051 154.407 198.032 153.334C202.147 158.745 199.025 164.929 195.817 169.85C195.554 170.774 195.44 171.393 194.326 170.821C193.35 172.324 195.935 171.771 192.959 174.028Z" fill="#0C88DE"/>
</g>
<path fill-rule="evenodd" clip-rule="evenodd" d="M24.6261 124.476C24.0346 126.691 26.0689 131.535 23.4884 132.282C18.1706 132.119 14.5593 133.883 16.57 126.716C17.8299 123.686 21.7806 124.503 24.6261 124.476Z" fill="#0441A8"/>
<path fill-rule="evenodd" clip-rule="evenodd" d="M21.0307 67.0375C21.0744 64.3735 16.8395 64.3737 16.5168 67.1221C16.6594 70.0615 20.821 70.0543 21.0307 67.0375ZM18.7309 62.3479C25.8525 62.3546 24.5007 71.9547 19.2427 72.1136C13.3105 72.4489 12.2455 62.1099 18.7309 62.3479Z" fill="#171616"/>
<mask id="mask1_1267_44490" style="mask-type:alpha" maskUnits="userSpaceOnUse" x="94" y="0" width="11" height="13">
<path d="M94.5576 0H104.934V12.7873H94.5576V0Z" fill="white"/>
</mask>
<g mask="url(#mask1_1267_44490)">
<path fill-rule="evenodd" clip-rule="evenodd" d="M101.874 0.107067C103.434 -0.404607 106.442 1.0144 104.032 2.14883C101.259 2.40569 99.4662 1.88755 101.848 5.0008C103.984 9.18468 97.4906 6.77209 97.4949 8.63678C97.7815 9.8964 99.7419 11.7177 98.2571 12.7298C96.5843 13.6081 90.6699 4.03903 98.5703 5.42027C100.5 3.69406 93.7946 -0.0330992 101.874 0.107067Z" fill="#171616"/>
</g>
<path fill-rule="evenodd" clip-rule="evenodd" d="M17.5435 156.71C14.465 149.23 18.0479 150.349 24.0279 150.634C25.3445 152.242 24.2846 155.156 24.6262 157.186C24.5911 159.009 17.1776 158.838 17.5435 156.71Z" fill="#0441A8"/>
<path fill-rule="evenodd" clip-rule="evenodd" d="M42.7702 182.982C42.2517 175.481 42.6108 176.68 49.5111 176.691C50.4174 176.673 50.595 177.127 50.58 177.899C51.7789 184.204 48.1254 185.675 42.7702 182.982Z" fill="#0441A8"/>
<path fill-rule="evenodd" clip-rule="evenodd" d="M25.3427 171.703C23.9825 166.039 29.5417 168.126 33.171 167.782C33.0941 172.582 34.7831 177.573 28.2278 175.865C27.4368 174.126 26.162 173.416 25.3427 171.703Z" fill="#0441A8"/>
<path fill-rule="evenodd" clip-rule="evenodd" d="M51.3115 183.854C50.939 176.097 50.6386 176.425 58.3821 176.69C59.9552 176.848 59.4075 182.016 58.1728 182.673C57.4734 183.938 55.2035 183.429 53.7864 183.992C52.8566 182.366 52.4138 184.339 51.3115 183.854Z" fill="#0441A8"/>
<path fill-rule="evenodd" clip-rule="evenodd" d="M59.8906 183.23C60.312 179.275 59.3016 175.866 64.4863 176.707C65.5995 176.905 68.0578 175.987 67.9801 177.762C68.5911 182.633 67.2124 184.312 62.2069 183.052C61.0252 182.55 61.0383 185.21 59.8906 183.23Z" fill="#0441A8"/>
<path fill-rule="evenodd" clip-rule="evenodd" d="M45.4743 57.2244C42.1819 54.7533 39.6963 50.8824 35.8952 48.8074C35.0669 48.3995 34.8422 47.1379 33.6428 47.2852C33.5481 47.2967 33.2718 46.8038 33.3021 46.5746C35.6285 44.5788 38.8475 48.5958 41.1388 49.5161C42.3253 49.9495 43.0603 52.0073 44.2441 51.1683C44.868 52.9823 46.1935 54.0847 47.8925 54.798C48.8869 56.9808 46.8157 58.206 45.4743 57.2244Z" fill="#171616"/>
<path fill-rule="evenodd" clip-rule="evenodd" d="M159.94 48.3316C154.638 42.5283 156.189 48.796 152.555 47.5704C151.758 46.4972 153.225 45.8729 153.898 45.3202C157.4 43.6622 153.416 42.5115 153.534 40.047C155.456 39.6537 156.251 43.1432 157.738 42.1471C161.166 38.5121 164.441 40.3705 159.328 43.4297C157.477 44.6507 163.705 47.4259 159.94 48.3316Z" fill="#171616"/>
<path fill-rule="evenodd" clip-rule="evenodd" d="M70.4033 182.798C67.5066 182.94 69.0241 179.641 68.6543 177.794C67.9662 176.063 77.1006 176.157 76.8477 177.595C77.1493 180.131 76.8637 180.492 74.2949 181.173C73.0911 181.775 71.9504 183.135 70.4033 182.798Z" fill="#0441A8"/>
<path fill-rule="evenodd" clip-rule="evenodd" d="M18.6064 159.562C19.9414 158.781 24.521 157.981 24.6351 160.151C25.5096 172.217 21.0961 167.116 18.6064 159.562Z" fill="#0441A8"/>
<path fill-rule="evenodd" clip-rule="evenodd" d="M33.8004 179.961C33.0995 175.161 37.4758 177.081 40.629 176.693C42.749 176.762 41.3775 179.98 41.748 181.374C41.748 182.26 41.1865 182.473 40.6265 182.011C38.4093 180.559 35.9229 181.771 33.8004 179.961Z" fill="#0441A8"/>
<path fill-rule="evenodd" clip-rule="evenodd" d="M31.722 108.39C34.5027 106.134 32.6924 113.054 33.1493 114.826C23.3137 115.529 26.0046 113.963 31.722 108.39Z" fill="#0441A8"/>
<path fill-rule="evenodd" clip-rule="evenodd" d="M15.7505 132.687C15.2116 135.556 17.2513 139.994 14.1876 141.342C17.3088 141.797 15.2019 146.623 15.7452 148.973C14.2366 151.985 12.1084 131.428 15.7505 132.687Z" fill="#0441A8"/>
<path fill-rule="evenodd" clip-rule="evenodd" d="M24.6956 121.986C24.6727 122.563 24.6495 123.14 24.6267 123.716C22.8339 123.284 17.3502 125.101 18.9618 122.099C22.6212 117.468 25.398 113.428 24.6956 121.986Z" fill="#0441A8"/>
<path fill-rule="evenodd" clip-rule="evenodd" d="M38.6007 50.6861C42.1959 53.1603 38.9292 52.2868 39.8338 55.185C39.4622 54.0116 37.877 54.8229 38.1792 56.2723C37.4728 55.6115 36.237 55.5412 36.041 54.3285C37.9646 54.178 37.1253 51.604 38.6007 50.6861Z" fill="#0441A8"/>
<path fill-rule="evenodd" clip-rule="evenodd" d="M47.892 54.7982C46.3262 54.3124 42.7916 51.1197 46.2485 52.2756C46.4611 52.2938 46.7125 51.86 46.9462 51.6322C44.2365 51.2619 47.5637 51.2361 46.1503 49.978C46.7508 48.7651 50.3796 53.1081 48.9148 52.6432C46.4162 52.617 49.7517 54.921 47.892 54.7982Z" fill="#95E7FD"/>
<path fill-rule="evenodd" clip-rule="evenodd" d="M80.3945 179.322C79.0549 178.916 76.8983 180.839 77.2574 178.702C76.1395 174.478 84.2376 177.816 80.3945 179.322Z" fill="#0441A8"/>
<path fill-rule="evenodd" clip-rule="evenodd" d="M29.3219 176.751C32.2572 176.925 33.6201 175.493 33.1215 179.57C32.2162 178.681 29.0114 177.609 29.3219 176.751Z" fill="#0441A8"/>
<path fill-rule="evenodd" clip-rule="evenodd" d="M18.5889 123.759C20.2614 124.185 24.3614 122.729 24.6283 124.476C22.7131 123.698 16.1144 126.068 18.5889 123.759Z" fill="#0C88DE"/>
<path fill-rule="evenodd" clip-rule="evenodd" d="M22.7568 167.788C24.8331 167.809 24.9934 168.081 24.3458 170.488C23.8161 169.588 23.2865 168.688 22.7568 167.788Z" fill="#0441A8"/>
<path fill-rule="evenodd" clip-rule="evenodd" d="M15.5869 128.361C15.4685 129.653 16.763 132.684 14.4795 132.242C14.8486 130.948 15.2177 129.654 15.5869 128.361Z" fill="#0441A8"/>
<path fill-rule="evenodd" clip-rule="evenodd" d="M164.907 124.859C166.076 125.698 168.501 125.894 168.804 127.377C167.392 126.807 165.468 126.561 164.907 124.859Z" fill="#34BFF4"/>
<path fill-rule="evenodd" clip-rule="evenodd" d="M24.6957 121.986C25.1273 120.062 23.6799 116.234 25.0613 115.363C24.7757 117.375 25.5134 120.53 24.6957 121.986Z" fill="#0C88DE"/>
<path fill-rule="evenodd" clip-rule="evenodd" d="M54.4736 183.936C55.5388 183.514 56.6178 183.326 57.7646 183.423C57.1718 184.695 55.5836 183.81 54.4736 183.936Z" fill="#0C88DE"/>
<path fill-rule="evenodd" clip-rule="evenodd" d="M52.0322 184.026C52.5988 183.082 53.1843 183.097 53.7872 183.991C53.2022 184.003 52.6172 184.014 52.0322 184.026Z" fill="#0C88DE"/>
<path fill-rule="evenodd" clip-rule="evenodd" d="M41.5137 53.4596C41.7867 53.7561 42.0599 54.0526 42.3315 54.3486C42.058 54.0516 41.7858 53.7556 41.5137 53.4596Z" fill="#0441A8"/>
<path fill-rule="evenodd" clip-rule="evenodd" d="M170.185 128.025C169.647 128.428 168.927 127.733 168.87 127.289C169.325 127.505 170.189 126.991 170.185 128.025Z" fill="#34BFF4"/>
<path fill-rule="evenodd" clip-rule="evenodd" d="M27.6781 174.875C27.8615 175.205 28.045 175.535 28.2281 175.865C27.2042 176.001 27.7936 175.242 27.6781 174.875Z" fill="#0C88DE"/>
<path fill-rule="evenodd" clip-rule="evenodd" d="M26.3242 173.458C27.0128 173.415 27.1776 173.833 27.1628 174.409C26.883 174.092 26.6037 173.775 26.3242 173.458Z" fill="#0C88DE"/>
<path fill-rule="evenodd" clip-rule="evenodd" d="M44.2589 59.2448C44.5989 58.9414 44.034 58.8254 44.2968 59.22C44.299 59.2192 44.2589 59.2448 44.2589 59.2448Z" fill="#171616"/>
<path fill-rule="evenodd" clip-rule="evenodd" d="M60.1816 183.821C60.4472 183.838 60.7125 183.856 60.9779 183.874C60.7124 183.856 60.447 183.838 60.1816 183.821Z" fill="#0C88DE"/>
<path fill-rule="evenodd" clip-rule="evenodd" d="M23.6105 116.584C23.5208 116.681 23.4314 116.778 23.3438 116.874C23.4339 116.777 23.5222 116.681 23.6105 116.584Z" fill="#0C88DE"/>
<path fill-rule="evenodd" clip-rule="evenodd" d="M50.249 53.4551C50.3359 53.5577 50.4227 53.6603 50.5093 53.7623C50.4222 53.6596 50.3356 53.5574 50.249 53.4551Z" fill="#95E7FD"/>
<path fill-rule="evenodd" clip-rule="evenodd" d="M197.872 153.124C197.757 153.154 197.693 153.109 197.681 152.989C197.801 152.968 197.867 152.993 197.872 153.124Z" fill="#0C88DE"/>
<path fill-rule="evenodd" clip-rule="evenodd" d="M58.0254 182.899C58.0279 182.794 58.0771 182.718 58.1724 182.673C58.2045 182.798 58.1557 182.874 58.0254 182.899Z" fill="#0C88DE"/>
<path fill-rule="evenodd" clip-rule="evenodd" d="M71.207 182.857C71.3164 182.809 71.426 182.762 71.535 182.714C71.4256 182.762 71.3162 182.809 71.207 182.857Z" fill="#0C88DE"/>
<path fill-rule="evenodd" clip-rule="evenodd" d="M16.6504 126.676C16.6446 126.762 16.6422 126.782 16.5703 126.717C16.5703 126.631 16.5813 126.633 16.6504 126.676Z" fill="#34BFF4"/>
<path fill-rule="evenodd" clip-rule="evenodd" d="M122.414 112.456C130.614 118.517 138.438 113.961 128.657 124.809C125.994 126.58 119.838 143.257 118.653 140.148C117.252 137.539 113.275 135.292 113.788 132.138C114.487 129.331 120.995 115.229 117.041 115.26C118.286 113.392 120.444 113.134 122.414 112.456Z" fill="#0C88DE"/>
<path fill-rule="evenodd" clip-rule="evenodd" d="M105.154 124.405C109.335 130.629 113.529 133.967 107.488 140.75C104.272 144.398 99.6676 157.579 95.1018 157.331C94.5388 149.147 97.6789 140.075 99.4131 131.889C98.5185 127.735 103.318 127.057 105.154 124.405Z" fill="#0C88DE"/>
<path fill-rule="evenodd" clip-rule="evenodd" d="M168.803 127.377C170.78 129.33 165.949 131.617 164.941 133.459C163.127 137.241 153.306 127.733 150.415 126.347C150.158 126.112 149.898 125.53 150.015 125.285C151.976 121.831 149.094 115.71 154.907 118.471C158.23 120.56 162.023 122.109 164.872 124.893C165.63 126.594 167.333 126.801 168.803 127.377Z" fill="#0C88DE"/>
<path fill-rule="evenodd" clip-rule="evenodd" d="M33.5146 107.4C35.1548 105.265 38.3046 106.736 40.6839 106.317C43.4122 106.44 41.4269 110.548 42.4 112.363C41.7644 105.239 43.0221 106.315 49.2666 106.356C52.0769 106.696 50.0003 111.608 50.6302 113.683C48.9907 116.629 37.5323 113.983 33.6055 114.794C33.5747 112.328 33.5448 109.864 33.5146 107.4Z" fill="#0441A8"/>
<path fill-rule="evenodd" clip-rule="evenodd" d="M71.082 97.2503C73.283 91.4845 74.5954 83.5739 81.7971 82.4392C85.9243 79.0435 91.5849 81.3799 96.2813 79.7539C100.072 78.183 102.005 79.0304 97.7488 80.9254C94.2319 80.4045 89.7632 81.1069 86.2533 82.1105C85.8354 82.3279 85.0928 81.484 84.926 82.5305C83.7805 82.6807 82.5352 82.5142 81.5414 83.3535C80.2411 83.9538 80.276 84.1887 81.3296 85.1323C87.6174 90.7972 77.934 100.432 71.082 97.2503Z" fill="#95E7FD"/>
<path fill-rule="evenodd" clip-rule="evenodd" d="M42.0121 124.496C41.3917 126.728 43.5691 131.763 40.7095 132.301C35.9311 132.245 31.1521 132.246 26.3748 132.301C23.4861 131.778 25.6869 126.708 25.0478 124.472C32.9302 124.794 32.8107 122.335 33.5867 130.154C32.4869 122.14 36.1694 124.871 42.0121 124.496Z" fill="#0441A8"/>
<path fill-rule="evenodd" clip-rule="evenodd" d="M89.2249 112.738C89.3423 106.16 81.7938 104.138 80.4394 110.7C80.7827 116.442 88.4198 121.106 89.2249 112.738ZM92.1385 112.941C91.6282 125.713 79.366 121.154 77.6686 111.048C77.3915 99.8646 93.6095 101.836 92.1385 112.941Z" fill="#95E7FD"/>
<path fill-rule="evenodd" clip-rule="evenodd" d="M157.241 84.625C157.445 84.6094 157.684 84.5793 157.42 84.4221C155.456 85.0066 157.816 88.3415 157.241 84.625ZM152.802 83.132C153.472 83.4954 155.391 84.1171 154.542 82.8131C154.398 82.4421 153.41 82.6677 154.011 81.6399C154.665 80.9994 155.219 81.2519 155.701 81.688C156.763 84.2539 154.138 84.9045 157.726 83.6087C159.111 78.8621 159.5 73.2822 163.697 69.8721C166.255 69.3914 161.662 76.5063 161.433 77.967C160.932 79.0002 162.496 79.0647 162.126 79.3622C160.691 79.65 161.365 81.3061 160.785 82.4737C160.874 83.9075 157.938 90.5357 160.822 88.9258C162.83 87.7992 169.347 84.6225 166.811 88.7268C167.517 90.2909 166.322 89.8403 165.722 89.6688C164.692 89.375 163.755 88.895 163.545 90.5741C161.231 91.6451 159.567 91.0111 157.87 93.7227C156.914 91.9302 154.741 89.2937 156.39 87.3852C154.853 85.9736 151.453 86.5455 152.802 83.132Z" fill="#171616"/>
<path fill-rule="evenodd" clip-rule="evenodd" d="M142.378 98.8734C137.735 97.9727 137.338 104.376 138.604 107.791C143.52 114.854 151.405 98.3109 142.378 98.8734ZM142.244 112.094C133.8 110.73 134.399 103.883 137.346 97.7315C149.006 89.9807 153.959 109.43 142.244 112.094Z" fill="#95E7FD"/>
<path fill-rule="evenodd" clip-rule="evenodd" d="M97.7544 88.2948C94.5337 88.4171 94.0494 91.9681 94.927 94.2961C98.3253 101.335 105.884 89.0593 97.7544 88.2948ZM97.7194 99.8407C90.2675 99.7667 90.8162 85.6121 97.8 85.4883C107.557 85.6339 106.223 98.6729 97.7194 99.8407Z" fill="#95E7FD"/>
<path fill-rule="evenodd" clip-rule="evenodd" d="M149.679 115.915C149.678 130.553 146.17 122.509 137.426 118.458C135.437 116.415 141.349 114.396 142.516 112.731C144.783 113.852 147.978 114.128 149.679 115.915Z" fill="#0C88DE"/>
<path fill-rule="evenodd" clip-rule="evenodd" d="M122.829 92.8671C117.458 92.3293 120.159 101.049 124.072 100.193C127.34 98.4705 126.72 92.9939 122.829 92.8671ZM129.311 96.1553C128.874 107.423 115.043 103.525 118.43 94.1096C119.465 87.3182 129.78 89.7165 129.311 96.1553Z" fill="#95E7FD"/>
<path fill-rule="evenodd" clip-rule="evenodd" d="M116.7 115.619C116.428 121.381 114.246 126.456 112.212 131.821C104.33 122.122 106.847 121.064 116.7 115.619Z" fill="#0C88DE"/>
<path fill-rule="evenodd" clip-rule="evenodd" d="M100.303 128.284C97.8777 133.829 95.938 124.454 91.1383 127.628C86.9032 129.01 88.9256 134.46 90.4859 137.301C86.5708 141.189 84.8774 131.119 86.2502 128.255C88.4489 122.214 98.2701 122.173 100.303 128.284Z" fill="#95E7FD"/>
<path fill-rule="evenodd" clip-rule="evenodd" d="M51.0393 115.381C60.5557 114.933 59.6809 114.243 59.3924 123.686C50.0225 123.992 50.73 124.782 51.0393 115.381Z" fill="#0441A8"/>
<path fill-rule="evenodd" clip-rule="evenodd" d="M33.6068 115.307C43.1267 114.951 42.2986 114.218 42.0078 123.699C32.5546 124.013 33.35 124.726 33.6068 115.307Z" fill="#0441A8"/>
<path fill-rule="evenodd" clip-rule="evenodd" d="M55.054 141.111C49.4554 142.425 51.1687 137.361 50.9438 133.632C50.6327 131.968 59.2942 132.022 59.0091 133.804C59.1046 137.916 61.1438 142.291 55.054 141.111Z" fill="#0441A8"/>
<path fill-rule="evenodd" clip-rule="evenodd" d="M55.3235 114.87C53.9509 114.535 50.8377 115.825 50.9353 113.62C51.5674 111.553 49.4716 106.576 52.4329 106.372C54.4541 106.972 58.4992 105.462 59.4305 107.525C59.1037 111.455 61.1984 116.079 55.3235 114.87Z" fill="#0441A8"/>
<path fill-rule="evenodd" clip-rule="evenodd" d="M42.4764 123.7C42.2978 114.602 41.0712 114.87 50.5424 115.285C50.6792 124.34 51.9358 124.125 42.4764 123.7Z" fill="#0441A8"/>
<path fill-rule="evenodd" clip-rule="evenodd" d="M50.6223 136.985C51.7887 142.817 47.3573 140.794 43.4293 141.119C41.1807 140.238 42.9669 135.637 42.4821 133.479C43.9493 131.624 47.5053 133.071 49.7049 132.628C51.4977 132.859 50.2816 135.708 50.6223 136.985Z" fill="#0441A8"/>
<path fill-rule="evenodd" clip-rule="evenodd" d="M24.9814 121.988C23.9808 114.379 26.5732 115.089 33.1506 115.273C32.6213 117.772 34.3208 122.187 32.3777 123.724C30.0728 123.101 24.5253 125.359 24.9814 121.988Z" fill="#0441A8"/>
<path fill-rule="evenodd" clip-rule="evenodd" d="M42.0578 136.175C43.2531 143.239 38.8412 140.692 33.9484 141.093C33.9333 138.276 33.9178 135.459 33.9023 132.642C37.9682 132.889 43.2819 131.157 42.0578 136.175Z" fill="#0441A8"/>
<path fill-rule="evenodd" clip-rule="evenodd" d="M136.543 109.871C138.291 110.574 140.04 111.277 141.787 111.98C137.754 111.712 136.778 118.698 132.836 116.232C119.029 111.183 126.317 109.943 136.543 109.871Z" fill="#0C88DE"/>
<path fill-rule="evenodd" clip-rule="evenodd" d="M58.7383 130.496C62.5005 130.658 66.7172 128.086 66.9445 123.988C66.1487 120.351 57.9315 122.119 61.7641 117.974C79.6654 119.197 62.9778 140.21 58.7383 130.496Z" fill="#95E7FD"/>
<path fill-rule="evenodd" clip-rule="evenodd" d="M50.5527 141.56C50.2143 148.476 52.8586 150.809 44.1489 150.014C43.0808 150.057 42.6702 149.708 42.7058 148.604C42.0999 140.667 43.1467 141.196 50.5527 141.56Z" fill="#0441A8"/>
<path fill-rule="evenodd" clip-rule="evenodd" d="M33.1532 141.556C32.8956 148.784 35.3121 150.791 26.4574 150.002C23.9893 149.342 25.9246 144.749 25.3153 142.67C26.1131 140.199 30.9391 142.015 33.1532 141.556Z" fill="#0441A8"/>
<path fill-rule="evenodd" clip-rule="evenodd" d="M41.7225 141.508C41.484 148.712 43.9322 150.799 35.0685 150.007C34.1432 150.031 33.8237 149.662 33.8414 148.76C33.2127 140.773 34.1964 141.15 41.7225 141.508Z" fill="#0441A8"/>
<path fill-rule="evenodd" clip-rule="evenodd" d="M59.1238 141.51C58.8821 148.714 61.33 150.796 52.4698 150.007C51.5427 150.031 51.2274 149.659 51.2451 148.759C50.6182 140.776 51.6004 141.152 59.1238 141.51Z" fill="#0441A8"/>
<path fill-rule="evenodd" clip-rule="evenodd" d="M31.0481 141.104C22.8707 141.434 25.7974 138.922 25.3704 132.633C27.9614 132.65 30.5524 132.666 33.1435 132.682C32.4336 135.34 35.0068 141.766 31.0481 141.104Z" fill="#0441A8"/>
<path fill-rule="evenodd" clip-rule="evenodd" d="M57.5595 98.5472C60.6558 99.2392 59.1752 102.273 59.4581 104.668C59.1458 107.469 54.2491 105.383 52.1939 106.029C49.7244 105.972 51.5418 102.213 51.132 100.625C49.8664 96.4706 54.9617 98.3771 57.5595 98.5472Z" fill="#0441A8"/>
<path fill-rule="evenodd" clip-rule="evenodd" d="M50.5461 132.223C42.0743 132.51 41.9785 133.305 42.4733 124.492C50.9299 124.209 51.0241 123.434 50.5461 132.223Z" fill="#0441A8"/>
<path fill-rule="evenodd" clip-rule="evenodd" d="M24.3205 132.642C23.6559 140.02 26.3942 141.525 17.4767 140.833C16.5527 140.842 16.4412 140.277 16.4487 139.552C15.5569 132.038 17.4738 132.217 24.3205 132.642Z" fill="#0441A8"/>
<path fill-rule="evenodd" clip-rule="evenodd" d="M42.347 101.12C44.1441 99.1815 48.4231 99.5512 49.3791 97.7074C50.241 96.5213 47.2472 96.2976 48.7769 95.6689C50.8359 95.9535 49.1632 96.3143 50.6818 96.8338C51.2394 96.7739 51.7769 96.5259 52.3224 96.3541C52.4022 97.4739 54.1589 96.4689 53.6411 97.4342C50.2868 97.2769 51.3511 96.3369 50.6413 100.015C50.1007 101.756 51.8509 105.73 49.4431 106.032C44.5949 105.775 41.45 107.659 42.347 101.12Z" fill="#0441A8"/>
<path fill-rule="evenodd" clip-rule="evenodd" d="M168.957 109.324C147.455 114.49 183.056 101.037 188.09 104.097C189.24 105.365 187.701 106.115 186.431 105.937C180.527 106.608 174.712 108.023 168.957 109.324Z" fill="#171616"/>
<path fill-rule="evenodd" clip-rule="evenodd" d="M65.8338 142.62C65.8896 143.325 66.0949 143.907 66.9391 143.96C69.0576 144.594 67.4554 148.011 67.8228 149.714C65.6577 149.36 60.7206 151.469 60.1105 148.768C59.7157 143.884 59.9574 138.88 65.8338 142.62Z" fill="#0441A8"/>
<path fill-rule="evenodd" clip-rule="evenodd" d="M59.2558 124.78C57.4821 132.398 59.8578 132.696 51.0151 132.187C50.575 122.915 50.5748 124.371 59.2558 124.78Z" fill="#0441A8"/>
<path fill-rule="evenodd" clip-rule="evenodd" d="M102.455 104.2C102.633 100.161 108.835 100.797 109.459 103.861C111.89 110.424 101.762 113.677 100.982 106.412C100.931 104.584 100.971 104.524 102.434 104.222C102.466 105.971 103.528 108.559 105.428 108.135C109.018 105.301 106.518 102.808 102.455 104.2Z" fill="#95E7FD"/>
<path fill-rule="evenodd" clip-rule="evenodd" d="M74.0119 145.665C77.2332 140.254 70.5775 137.694 68.0994 142.528C64.1188 145.1 68.0503 136.969 71.114 137.442C77.3837 134.923 81.428 147.242 74.0119 145.665Z" fill="#95E7FD"/>
<path fill-rule="evenodd" clip-rule="evenodd" d="M157.366 104.176C153.921 103.826 154.915 107.593 156.898 107.999C158.528 107.756 160.73 103.94 157.366 104.176ZM161.658 104.316C163.745 109.851 152.896 112.99 153.66 105.971C154.08 101.013 160.187 100.048 161.658 104.316Z" fill="#95E7FD"/>
<path fill-rule="evenodd" clip-rule="evenodd" d="M65.9399 107.052C64.4421 109.413 64.1316 115.468 60.6799 114.843C59.6394 114.943 59.8409 114.077 59.8397 113.468C59.2779 108.03 59.8959 105.275 65.9399 107.052Z" fill="#0441A8"/>
<path fill-rule="evenodd" clip-rule="evenodd" d="M108.776 78.538C116.505 73.3015 108.496 91.0796 104.502 82.0976C102.614 78.7273 104.441 78.9301 107.497 78.7976C106.764 79.6406 105.967 80.7611 107.028 81.5708C108.179 82.9917 110.875 78.3963 108.776 78.538Z" fill="#95E7FD"/>
<path fill-rule="evenodd" clip-rule="evenodd" d="M59.7828 99.6474C62.5095 98.7168 60.7047 99.3581 61.2659 100.266C63.0241 102.108 68.2885 102.984 66.1821 105.956C60.0524 106.533 59.2835 105.786 59.7828 99.6474Z" fill="#0441A8"/>
<path fill-rule="evenodd" clip-rule="evenodd" d="M118.313 109.72C117.68 109.303 117.172 108.168 116.699 109.025C117.226 109.765 117.21 110.63 118.313 109.72ZM120.587 109.578C120.755 114.798 114.755 113.284 114.556 109.486C114.637 105.364 120.558 105.666 120.587 109.578Z" fill="#95E7FD"/>
<path fill-rule="evenodd" clip-rule="evenodd" d="M134.925 84.9938C135.971 83.8657 136.627 83.4155 135.204 82.3611C134.124 83.4362 133.176 83.581 134.925 84.9938ZM138.683 83.6434C138.573 86.3564 134.674 88.1117 132.902 85.6028C129.699 82.0851 138.491 77.067 138.683 83.6434Z" fill="#95E7FD"/>
<path fill-rule="evenodd" clip-rule="evenodd" d="M41.2674 101.177C42.7838 100.809 42.0554 105.28 41.5935 105.948C31.5031 105.952 36.6714 105.208 41.2674 101.177Z" fill="#0441A8"/>
<path fill-rule="evenodd" clip-rule="evenodd" d="M59.2554 124.78C47.9866 123.936 52.271 124.062 50.5467 132.224C51.6512 119.461 48.278 127.051 42.4756 123.701C54.2796 124.633 48.9705 122.544 51.0374 115.379C49.5494 130.201 54.8505 120.126 59.2554 124.78Z" fill="#0C88DE"/>
<path fill-rule="evenodd" clip-rule="evenodd" d="M25.0557 123.719C34.5504 124.083 33.2901 124.365 33.1496 115.272C35.0413 116.631 31.6891 123.119 34.7986 123.759C36.8054 124.206 41.4945 122.607 42.0118 124.495C39.6418 125.148 34.2387 122.885 33.5724 125.759C33.8939 130.47 32.8754 130.769 33.189 125.873C33.1213 122.247 25.5481 126.318 25.0557 123.719Z" fill="#0C88DE"/>
<path fill-rule="evenodd" clip-rule="evenodd" d="M105.155 124.405C103.591 127.486 100.063 121.925 101.67 120.331C103.077 120.615 105.275 122.969 105.155 124.405Z" fill="#95E7FD"/>
<path fill-rule="evenodd" clip-rule="evenodd" d="M61.1424 118.882C59.8641 125.199 59.5474 118.284 59.9165 115.879C60.0556 114.732 61.252 115.214 61.9504 115.312C63.0408 115.465 61.9785 115.918 61.978 116.239C61.996 117.221 61.7827 118.134 61.1424 118.882Z" fill="#0441A8"/>
<path fill-rule="evenodd" clip-rule="evenodd" d="M108.262 120.944C106.189 124.01 106.427 122.219 104.355 120.568C102.115 118.108 107.925 118.604 108.262 120.944Z" fill="#95E7FD"/>
<path fill-rule="evenodd" clip-rule="evenodd" d="M81.4235 145.858C81.3877 146.829 77.7868 150.994 77.2993 149.289C76.6058 146.073 78.6703 145.898 81.4235 145.858Z" fill="#0441A8"/>
<path fill-rule="evenodd" clip-rule="evenodd" d="M61.4686 141.113C59.9629 141.11 59.9627 141.11 59.8805 139.565C58.9924 133.305 64.9501 141.935 61.4686 141.113Z" fill="#0441A8"/>
<path fill-rule="evenodd" clip-rule="evenodd" d="M153.345 86.4898C158.31 86.2255 154.598 87.9379 156.388 90.5877C156.98 93.019 153.241 86.9879 153.345 86.4898Z" fill="#95E7FD"/>
<path fill-rule="evenodd" clip-rule="evenodd" d="M66.8896 104.309C67.3874 101.761 69.1495 99.3138 70.9711 97.3757C70.454 99.8873 68.6727 102.519 66.8896 104.309Z" fill="#95E7FD"/>
<path fill-rule="evenodd" clip-rule="evenodd" d="M152.802 83.132C152.459 85.3777 148.342 81.0282 149.685 80.0839C150.491 83.0388 152.983 79.2763 152.802 83.132Z" fill="#95E7FD"/>
<path fill-rule="evenodd" clip-rule="evenodd" d="M33.1089 141.058C33.6512 138.663 32.0112 133.669 33.9019 132.642C33.3565 134.973 35.1528 140.385 33.1089 141.058Z" fill="#0C88DE"/>
<path fill-rule="evenodd" clip-rule="evenodd" d="M59.8906 105.932C61.5514 106.419 66.6759 104.767 65.94 107.052C64.2596 106.149 60.0868 107.695 59.8906 105.932Z" fill="#0C88DE"/>
<path fill-rule="evenodd" clip-rule="evenodd" d="M159.081 95.3472C158.904 95.441 159.014 95.5452 159.074 95.674C159.249 95.5801 159.141 95.4758 159.081 95.3472ZM158.339 94.7561C159.166 94.4938 159.993 94.2315 160.82 93.9692C160.15 96.0018 159.52 97.2276 158.339 94.7561Z" fill="#0441A8"/>
<path fill-rule="evenodd" clip-rule="evenodd" d="M33.5146 107.4C33.1635 109.6 34.3523 113.443 33.1495 114.827C33.4229 112.449 32.6474 109.488 33.5146 107.4Z" fill="#0C88DE"/>
<path fill-rule="evenodd" clip-rule="evenodd" d="M58.2451 129.411C57.8012 128.758 58.1657 128.359 58.6871 128.011C59.4541 128.473 59.1009 129.708 58.2451 129.411Z" fill="#0C88DE"/>
<path fill-rule="evenodd" clip-rule="evenodd" d="M58.0127 132.228C58.2149 131.597 57.8783 130.325 58.7372 130.496C58.6196 131.259 59.1995 132.589 58.0127 132.228Z" fill="#0C88DE"/>
<path fill-rule="evenodd" clip-rule="evenodd" d="M101.032 79.2522C101.52 79.1948 102.007 79.1377 102.494 79.0807C102.102 79.9501 101.594 79.8339 101.032 79.2522Z" fill="#95E7FD"/>
<path fill-rule="evenodd" clip-rule="evenodd" d="M65.1566 142.188C64.6815 141.969 64.2064 141.75 63.7314 141.531C64.301 141.546 64.9858 141.309 65.1566 142.188Z" fill="#0C88DE"/>
<path fill-rule="evenodd" clip-rule="evenodd" d="M58.7512 130.512C57.9825 130.815 57.9937 129.079 58.7497 129.477C59.3636 129.821 59.0339 130.166 58.7512 130.512Z" fill="#95E7FD"/>
<path fill-rule="evenodd" clip-rule="evenodd" d="M42.0574 136.175C41.5505 135.878 41.5389 135.759 42.0575 135.47C42.0574 135.705 42.0574 135.94 42.0574 136.175Z" fill="#0C88DE"/>
<path fill-rule="evenodd" clip-rule="evenodd" d="M152.918 85.4384C152.982 85.6339 153.045 85.8295 153.109 86.0243C153.045 85.8285 152.982 85.6334 152.918 85.4384Z" fill="#95E7FD"/>
<path fill-rule="evenodd" clip-rule="evenodd" d="M58.7705 127.656C58.8292 127.216 58.9212 127.23 59.2298 127.519C59.0767 127.565 58.9236 127.61 58.7705 127.656Z" fill="#0C88DE"/>
<path fill-rule="evenodd" clip-rule="evenodd" d="M42.051 132.98C41.9375 132.865 41.8242 132.751 41.7109 132.637C41.8244 132.751 41.9377 132.866 42.051 132.98Z" fill="#0C88DE"/>
<path fill-rule="evenodd" clip-rule="evenodd" d="M33.6305 167.788C41.1989 167.831 42.424 166.133 41.761 174.804C41.7652 175.453 41.6582 176.019 40.857 176.019C32.5432 176.799 33.279 175.347 33.6305 167.788Z" fill="#0441A8"/>
<path fill-rule="evenodd" clip-rule="evenodd" d="M59.2851 172.091C59.9439 177.181 56.2464 176.245 52.3627 176.263C49.9371 175.591 51.85 170.951 51.2501 168.867C51.8711 166.527 56.0411 168.344 57.9673 167.769C60.2464 167.727 58.5811 171.028 59.2851 172.091Z" fill="#0441A8"/>
<path fill-rule="evenodd" clip-rule="evenodd" d="M24.3611 145.881C25.4797 151.547 21.3897 149.736 17.4942 150C15.1689 149.161 17.0325 144.67 16.4477 142.543C17.1689 140.324 21.2868 142.08 23.2276 141.527C25.289 141.556 24.0248 144.553 24.3611 145.881Z" fill="#0441A8"/>
<path fill-rule="evenodd" clip-rule="evenodd" d="M33.7036 158.914C41.4095 159.092 42.3267 157.058 41.7689 165.864C41.7897 166.785 41.417 167.115 40.5135 167.1C32.7927 168.069 33.1018 165.824 33.7036 158.914Z" fill="#0441A8"/>
<path fill-rule="evenodd" clip-rule="evenodd" d="M67.9723 172.161C69.0819 177.801 65.0565 176.025 61.1552 176.265C58.6809 175.75 61.4175 171.707 60.247 169.998C59.0471 166.293 64.7279 168.265 66.7222 167.771C68.9298 167.669 67.6351 170.791 67.9723 172.161Z" fill="#0441A8"/>
<path fill-rule="evenodd" clip-rule="evenodd" d="M50.6979 163.117C50.7838 166.429 49.9928 167.48 46.6003 167.085C45.3206 166.852 42.5884 167.899 42.7132 165.83C43.3086 163.867 41.373 159.329 43.9636 158.923C48.4534 159.223 51.1898 157.359 50.6979 163.117Z" fill="#0441A8"/>
<path fill-rule="evenodd" clip-rule="evenodd" d="M50.7029 172.042C51.3253 177.03 47.5093 175.949 43.7761 176.011C41.4654 175.203 43.2794 170.815 42.7269 168.738C43.5435 166.619 47.5871 168.305 49.5412 167.774C51.6119 167.828 49.9707 171.075 50.7029 172.042Z" fill="#0441A8"/>
<path fill-rule="evenodd" clip-rule="evenodd" d="M33.1844 167.078C25.659 167.095 24.7653 168.553 25.3135 160.139C25.291 159.207 25.6779 158.912 26.5702 158.924C34.0812 157.827 33.5253 160.547 33.1844 167.078Z" fill="#0441A8"/>
<path fill-rule="evenodd" clip-rule="evenodd" d="M68.086 162.909C68.2174 166.385 67.4136 167.49 63.846 167.085C62.6798 166.862 60.1296 167.838 60.1257 166.022C60.6799 164.006 58.871 159.642 61.1854 158.934C65.9662 159.367 68.2114 157.058 68.086 162.909Z" fill="#0441A8"/>
<path fill-rule="evenodd" clip-rule="evenodd" d="M59.1601 162.782C60.2632 168.542 56.3736 166.891 52.3117 167.091C50.6198 167.562 50.6401 158.488 52.2913 158.933C53.7896 159.112 55.6071 158.553 56.9544 159.269C57.3635 159.723 57.5836 159.811 58.0546 159.299C59.8295 157.898 58.971 161.911 59.1601 162.782Z" fill="#0441A8"/>
<path fill-rule="evenodd" clip-rule="evenodd" d="M63.9404 158.216C58.4787 159.271 60.0578 155.528 59.8732 151.691C60.6663 149.47 64.9641 151.232 66.9906 150.693C69.1119 151.418 67.4512 155.422 67.9588 157.312C67.7537 159.027 65.1371 157.915 63.9404 158.216Z" fill="#0441A8"/>
<path fill-rule="evenodd" clip-rule="evenodd" d="M90.486 137.301C84.049 128.536 95.705 122.556 97.8282 131.196C94.6235 132.043 93.421 136.144 90.486 137.301Z" fill="#34BFF4"/>
<path fill-rule="evenodd" clip-rule="evenodd" d="M38.0752 150.695C43.6464 149.594 41.7198 153.774 41.698 157.515C40.1535 159.077 36.9605 157.841 34.8549 158.227C32.6992 157.547 34.3694 153.641 33.8508 151.79C33.9399 149.806 36.7786 151.012 38.0752 150.695Z" fill="#0441A8"/>
<path fill-rule="evenodd" clip-rule="evenodd" d="M46.3855 158.225C40.8677 159.285 42.8008 155.307 42.7346 151.591C43.7258 149.577 47.6006 151.194 49.6032 150.693C51.719 151.416 50.0598 155.414 50.565 157.3C50.3422 159.062 47.6023 157.884 46.3855 158.225Z" fill="#0441A8"/>
<path fill-rule="evenodd" clip-rule="evenodd" d="M33.1676 154.33C32.8845 155.532 33.9848 158.191 32.1291 158.233C30.1705 157.705 26.1105 159.417 25.3251 157.233C25.8385 155.37 24.1174 151.236 26.4126 150.69C29.7473 150.916 34.3469 149.3 33.1676 154.33Z" fill="#0441A8"/>
<path fill-rule="evenodd" clip-rule="evenodd" d="M68.6593 172.052C67.7009 162.731 75.2248 170.546 76.5057 174.639C77.0674 177.785 71.7878 175.658 69.9138 176.281C67.7394 176.389 68.9718 173.395 68.6593 172.052Z" fill="#0441A8"/>
<path fill-rule="evenodd" clip-rule="evenodd" d="M74.012 145.665C76.4632 145.336 77.7507 148.967 75.6431 149.958C73.659 149.506 69.4513 151.168 68.6597 149.016C68.1169 142.15 70.0356 145.736 74.012 145.665Z" fill="#0441A8"/>
<path fill-rule="evenodd" clip-rule="evenodd" d="M70.4571 158.949C74.1949 158.566 69.6978 163.72 71.405 165.995C71.6885 167.726 68.9708 167.587 69.0204 165.479C68.9771 163.432 67.2003 158.493 70.4571 158.949Z" fill="#0441A8"/>
<path fill-rule="evenodd" clip-rule="evenodd" d="M78.8042 176.273C77.5848 176.504 76.8785 175.781 77.471 174.748C78.2674 174.658 80.2173 176.09 78.8042 176.273Z" fill="#0441A8"/>
<path fill-rule="evenodd" clip-rule="evenodd" d="M33.6302 167.788C33.3112 170.293 34.1415 174.082 33.2347 175.959C33.611 173.543 32.3906 169.303 33.6302 167.788Z" fill="#34BFF4"/>
<path fill-rule="evenodd" clip-rule="evenodd" d="M84.3338 174.894C83.7211 175.706 83.699 177.413 82.4043 177.223C82.4023 176.152 83.7099 175.618 84.3338 174.894Z" fill="#0441A8"/>
<path fill-rule="evenodd" clip-rule="evenodd" d="M33.2425 164.214C33.574 162.75 32.2824 159.235 33.7034 158.914C33.3976 160.465 34.0899 163.297 33.2425 164.214Z" fill="#34BFF4"/>
<path fill-rule="evenodd" clip-rule="evenodd" d="M33.1853 167.078C33.3629 166.472 32.8698 165.047 33.5405 164.938C33.387 165.566 34.0646 167.182 33.1853 167.078Z" fill="#34BFF4"/>
<path fill-rule="evenodd" clip-rule="evenodd" d="M148.345 127.282C146.057 132.934 148.304 136.284 149.527 128.644C150.972 126.559 158.751 134.571 161.29 135.537C164.374 137.102 152.108 147.556 152.431 151.213C155.267 151.562 160.086 140.576 162.953 138.102C164.752 136.464 166.77 139.734 168.481 140.379C169.212 141.333 171.867 141.224 171.126 142.689C167.163 151.005 162.25 158.808 157.388 166.616C155.021 168.542 150.685 165.648 147.707 165.621C146.539 165.361 146.479 165.209 147.027 164.116C147.386 162.101 154.508 152.653 150.847 153.38C147.976 155.583 146.737 165.094 143.644 164.664C141.296 163.685 134.245 164.439 136.558 160.302C137.928 158.753 151.736 130.345 146.242 134.989C132.866 166.372 138.725 164.906 121.523 143.772C121.871 135.335 129.458 127.016 134.357 119.994C136.133 117.46 146.447 125.54 148.345 127.282Z" fill="#0C88DE"/>
<path fill-rule="evenodd" clip-rule="evenodd" d="M184.08 172.547C181.546 171.481 174.835 172.374 174.076 169.919C175.216 162.788 177.687 156.078 181.483 149.923C185.026 149.128 189.625 154.265 193.378 155.605C195.118 156.62 195.038 156.663 193.969 158.442C190.779 162.901 188.787 169.891 184.08 172.547Z" fill="#0C88DE"/>
<path fill-rule="evenodd" clip-rule="evenodd" d="M171.041 170.283C151.516 167.695 160.505 167.466 166.938 154.078C169.31 151.838 170.981 141.147 174.852 144.652C176.31 146.226 181.618 146.848 179.549 149.57C175.893 155.397 173.698 161.897 172.433 168.626C172.122 170.045 171.988 170.312 171.041 170.283Z" fill="#0C88DE"/>
<path fill-rule="evenodd" clip-rule="evenodd" d="M113.297 159.168C89.7769 157.472 101.312 159.275 111.744 136.153C113.719 134.635 116.451 141.579 118.124 143.017C117.744 147.828 115.558 155.004 113.297 159.168Z" fill="#0C88DE"/>
<path fill-rule="evenodd" clip-rule="evenodd" d="M115.791 158.776C120.727 141.865 118.22 143.773 128.719 156.389C129.443 157.9 134.436 162.077 132.081 162.339C127.112 160.62 119.531 161.363 115.791 158.776Z" fill="#0C88DE"/>
<path fill-rule="evenodd" clip-rule="evenodd" d="M172.597 184.247C174.156 173.604 170.036 171.238 182.85 174.136C183.594 174.237 183.78 174.414 183.233 175.097C180.7 177.156 172.286 192.525 172.597 184.247Z" fill="#0C88DE"/>
<path fill-rule="evenodd" clip-rule="evenodd" d="M146.242 167.127C158.743 169.506 155.755 168.916 149.679 178.061C149.287 178.617 148.912 178.841 148.36 178.081C145.622 174.884 141.9 170.678 146.242 167.127Z" fill="#0C88DE"/>
<path fill-rule="evenodd" clip-rule="evenodd" d="M139.847 165.664C141.124 166.214 145.09 165.859 143.725 167.992C143.16 168.499 143.107 171.133 141.926 169.935C141.478 168.778 138.11 166.322 139.847 165.664Z" fill="#0C88DE"/>
<path fill-rule="evenodd" clip-rule="evenodd" d="M94.6453 160.629C93.7497 159.652 94.6795 158.666 95.8284 159.031C96.499 159.6 95.0022 160.122 94.6453 160.629Z" fill="#0C88DE"/>
<path fill-rule="evenodd" clip-rule="evenodd" d="M107.051 123.718C107.704 124.406 107.795 126.116 106.601 125.008C106.233 124.41 106.279 123.931 107.051 123.718Z" fill="#34BFF4"/>
<path fill-rule="evenodd" clip-rule="evenodd" d="M106.39 122.907C106.752 122.626 106.894 122.619 107.045 123.075C106.826 123.019 106.608 122.963 106.39 122.907Z" fill="#34BFF4"/>
<path fill-rule="evenodd" clip-rule="evenodd" d="M42.009 65.4468C42.4455 65.4523 43.3458 64.5694 43.279 65.5305C43.0112 66.4583 43.6403 67.9106 42.8741 68.5274C42.0154 67.4728 40.8567 66.5593 42.009 65.4468Z" fill="#0441A8"/>
<path fill-rule="evenodd" clip-rule="evenodd" d="M18.4842 103.354C21.0766 102.236 18.3442 105.647 17.1026 104.897C16.7294 104.215 17.3255 104.323 17.6676 104.224C15.8117 103.588 17.4308 101.817 18.4842 103.354Z" fill="#0441A8"/>
<path fill-rule="evenodd" clip-rule="evenodd" d="M34.4943 85.115C35.3678 86.9456 32.6176 87.1028 31.8506 85.8643C34.4268 86.5779 32.7581 84.0969 34.4943 85.115Z" fill="#0441A8"/>
<path fill-rule="evenodd" clip-rule="evenodd" d="M27.7401 76.8325C27.0353 78.169 29.1744 80.023 26.8938 80.386C26.1297 79.9997 27.0562 79.7559 27.0588 79.4104C27.0656 78.4905 26.879 77.5248 27.7401 76.8325Z" fill="#95E7FD"/>
<path fill-rule="evenodd" clip-rule="evenodd" d="M26.2246 88.8664C26.4662 88.1504 26.3137 86.7377 27.4517 87.2985C27.6513 88.5011 27.6486 90.0564 26.2246 88.8664Z" fill="#95E7FD"/>
<path fill-rule="evenodd" clip-rule="evenodd" d="M27.2456 95.6605C28.1018 95.0102 27.9079 96.2144 28.3539 96.2879C28.2532 98.1129 26.6615 97.0103 27.2456 95.6605Z" fill="#95E7FD"/>
<path fill-rule="evenodd" clip-rule="evenodd" d="M14.1865 100.951C13.5652 99.3863 15.7131 100.304 16.4839 100.393C15.7155 100.58 14.9509 100.766 14.1865 100.951Z" fill="#95E7FD"/>
<path fill-rule="evenodd" clip-rule="evenodd" d="M139.892 50.0227C139.876 49.3392 139.859 48.6559 139.843 47.9755C140.043 48.763 141.113 49.6205 139.892 50.0227Z" fill="#0441A8"/>
<path fill-rule="evenodd" clip-rule="evenodd" d="M34.4944 85.115C33.2829 84.7094 33.7266 84.566 34.6453 84.0923C36.0835 84.6555 34.5402 84.7737 34.4944 85.115Z" fill="#95E7FD"/>
<path fill-rule="evenodd" clip-rule="evenodd" d="M18.4835 103.354C18.1409 103.095 17.7985 102.837 17.4551 102.579C18.2837 102.484 18.7601 102.356 18.4835 103.354Z" fill="#95E7FD"/>
<path fill-rule="evenodd" clip-rule="evenodd" d="M39.9399 65.4796C39.8171 65.3731 39.6941 65.2664 39.5752 65.1609C39.6995 65.2679 39.8196 65.3738 39.9399 65.4796Z" fill="#0441A8"/>
<path fill-rule="evenodd" clip-rule="evenodd" d="M41.3383 66.5558C40.9183 66.9768 40.6946 66.5629 41.3067 66.5061C41.3065 66.5058 41.3383 66.5558 41.3383 66.5558Z" fill="#0441A8"/>
<path fill-rule="evenodd" clip-rule="evenodd" d="M44.5293 50.8092C44.6768 49.7711 45.4346 49.9187 46.1475 49.9774C47.5643 51.2352 44.2326 51.2617 46.9444 51.6324C46.3317 52.7348 45.4652 52.034 44.5754 51.8256C45.5486 51.4419 44.4339 51.153 44.5293 50.8092Z" fill="#0441A8"/>
<path fill-rule="evenodd" clip-rule="evenodd" d="M44.5307 50.8092C44.4353 51.153 45.55 51.4418 44.577 51.8256C44.3766 51.4428 44.1082 51.1331 44.5307 50.8092Z" fill="#95E7FD"/>
<path fill-rule="evenodd" clip-rule="evenodd" d="M42.2324 50.368C42.3903 50.4843 42.5483 50.6005 42.705 50.7153C42.5466 50.5985 42.3894 50.4833 42.2324 50.368Z" fill="#95E7FD"/>
<path fill-rule="evenodd" clip-rule="evenodd" d="M43.4414 51.4449C43.5078 51.4003 43.5325 51.3938 43.5433 51.4817C43.4666 51.5351 43.4465 51.5541 43.4414 51.4449Z" fill="#0441A8"/>
<path fill-rule="evenodd" clip-rule="evenodd" d="M121.109 61.1955C119.799 61.5223 116.406 60.1727 116.653 62.383C117.226 64.4821 115.827 68.356 117.435 69.591C119.829 69.5457 122.223 69.5332 124.616 69.4726C125.942 68.69 125.062 66.0903 123.565 67.8945C122.511 69.0026 121.166 69.1484 120.332 67.7432C117.135 62.0418 118.895 62.1163 122.671 66.1287C126.599 63.9672 126.037 60.1919 121.109 61.1955ZM121.405 59.4001C124.304 59.4504 127.591 58.546 126.912 62.657C128.536 62.3485 133.741 56.5636 132.998 60.4972C121.158 67.3174 131.174 71.2449 124.181 71.4024C121.426 70.6985 114.98 73.4598 114.637 69.5008C115.152 62.3643 112.556 58.7525 121.405 59.4001Z" fill="#171616"/>
<path fill-rule="evenodd" clip-rule="evenodd" d="M82.338 68.4909C83.0106 68.3792 82.907 67.7863 82.7056 67.233C81.6394 63.4028 85.9101 66.4194 84.9314 62.4444C84.8401 59.9631 79.551 61.9201 77.6398 61.2783C75.1166 61.9878 77.2528 66.9578 76.6914 69.1729C79.5369 71.5382 75.8123 66.1527 79.4805 65.85C79.9596 67.0243 79.7982 68.1238 81.1158 66.8378C82.9708 66.7053 80.4223 68.774 80.3619 69.6497C81.7626 68.3785 81.6734 70.3612 82.338 68.4909ZM74.6546 68.2218C74.8807 65.9977 73.4047 60.6675 76.0537 59.8059C79.0457 60.5574 85.9408 57.4935 86.7226 61.2746C85.7738 64.2711 88.5244 70.1464 85.43 71.6059C82.037 70.9425 73.2786 74.1799 74.6546 68.2218Z" fill="#171616"/>
<path fill-rule="evenodd" clip-rule="evenodd" d="M104.184 48.2365C104.184 48.2365 104.145 48.1133 104.145 48.114C103.528 47.3965 102.234 46.82 103.718 46.1258C106.716 42.7659 100.151 44.1562 98.621 44.1666C97.5892 45.1739 97.5114 44.8181 96.3576 43.9459C95.849 46.2509 96.0064 49.9385 96.3006 52.0734C98.7905 52.8145 101.368 52.4762 104.177 52.2889C105.266 51.6158 104.406 49.1809 104.184 48.2365ZM101.823 54.3021C91.083 55.5773 94.7615 51.4133 94.3405 43.3907C96.3358 41.0535 101.515 42.8505 104.563 42.1119C108.006 42.7622 105.506 49.8865 106.268 52.7356C106.382 55.3079 102.993 53.5858 101.823 54.3021Z" fill="#171616"/>
<path fill-rule="evenodd" clip-rule="evenodd" d="M104.614 65.4529C105.29 58.9599 101.85 61.7448 97.1223 61.15C95.3963 60.0213 95.8443 70.0641 96.9153 69.5715C101.035 69.3958 105.698 71.5359 104.614 65.4529ZM100.7 59.3892C109.229 57.8568 105.48 64.5953 106.244 70.1488C104.85 73.0864 98.9244 70.7624 95.9702 71.527C92.4929 71.5221 94.5578 64.5021 94.2118 62.0624C94.1724 58.1046 98.2298 59.8881 100.7 59.3892Z" fill="#171616"/>
<path fill-rule="evenodd" clip-rule="evenodd" d="M125.115 47.147C126.267 42.1774 121.132 44.3173 118.062 43.8912C115.14 43.7478 117.442 49.6176 116.788 51.6638C118.079 53.3946 122.361 51.8285 124.637 52.3134C126.144 52.4288 124.336 50.3384 124.699 49.9612C125.668 48.967 124.923 47.8356 125.115 47.147ZM122.303 54.2448C111.98 55.3939 115.008 51.8639 114.862 43.9596C113.538 41.6442 128.481 41.1024 126.856 43.831C125.856 48.5936 129.783 55.4723 122.303 54.2448Z" fill="#171616"/>
<path fill-rule="evenodd" clip-rule="evenodd" d="M82.4599 52.535C86.7105 53.0098 84.3712 47.6018 84.9494 44.9094C83.415 43.0765 79.6892 44.611 77.3959 44.1101C75.2963 45.1748 77.1589 49.6443 76.6803 51.8711C77.8055 53.3496 80.7097 52.1776 82.4599 52.535ZM81.2952 42.349C83.3693 42.6111 87.4877 41.2566 86.6897 44.7422C85.8751 47.4929 88.5768 53.3923 85.2979 54.4053C82.234 53.5847 75.11 56.561 74.5029 52.4513C75.0168 45.292 72.4324 41.7033 81.2952 42.349Z" fill="#171616"/>
<path fill-rule="evenodd" clip-rule="evenodd" d="M108.775 78.538C110.299 78.436 109.247 80.1132 108.859 80.8947C106.311 84.0197 105.623 78.1801 108.775 78.538Z" fill="#34BFF4"/>
<path fill-rule="evenodd" clip-rule="evenodd" d="M61.2682 92.1263C57.6676 91.8897 54.3638 88.9389 51.2363 90.9141C44.3517 94.816 41.7819 82.1738 48.8356 82.1905C52.9821 81.3068 53.6332 71.2979 57.7754 70.2925C59.3156 74.0786 53.8692 78.6009 52.5805 82.3599C51.5632 83.6661 53.6394 84.7 53.4881 86.1053C53.5213 86.9473 53.8168 87.2234 54.5562 87.3843C56.7096 88.046 65.7118 88.8929 61.2682 92.1263Z" fill="#171616"/>
<path fill-rule="evenodd" clip-rule="evenodd" d="M39.2826 98.9194C39.2976 100.241 39.9843 101.347 38.5423 102.024C38.0592 102.038 37.6933 101.108 37.0689 101.957C36.234 102.943 37.4661 102.984 37.421 103.857C36.8996 103.673 35.6696 104.03 36.2694 102.502C37.0092 100.608 32.0046 98.0849 36.1269 98.0247C37.1109 99.2552 37.6529 96.4396 39.2224 97.5931C38.1419 98.085 39.1204 98.4836 39.2826 98.9194Z" fill="#171616"/>
<path fill-rule="evenodd" clip-rule="evenodd" d="M36.1263 98.0246C34.7421 97.8798 34.4902 98.7713 33.7071 99.7789C33.3696 100.237 33.0416 100.544 32.5558 99.9572C32.7363 99.2856 33.5082 98.4675 32.1162 98.1865C31.9939 96.8019 31.0551 96.3805 29.8535 96.2695C32.1579 96.2581 30.7425 93.9748 32.3205 93.0307C33.0613 92.5392 32.997 92.4625 33.4873 93.4491C34.2346 93.8023 35.0645 94.8374 33.9 95.4933C32.5645 96.0482 34.5457 98.4191 34.8081 96.684C35.4887 96.7971 35.699 97.5643 36.1263 98.0246Z" fill="#95E7FD"/>
<path fill-rule="evenodd" clip-rule="evenodd" d="M53.6996 97.3819C53.0171 94.088 55.8638 93.9369 52.6318 92.6793C56.2428 90.5738 56.2343 96.506 57.5598 98.5467C56.4963 98.3062 54.11 98.1623 53.6996 97.3819Z" fill="#171616"/>
<path fill-rule="evenodd" clip-rule="evenodd" d="M38.2402 70.2921C39.0297 70.0528 39.6621 70.056 40.215 69.3305C39.6453 70.1416 41.8908 72.0908 41.7333 70.5556C42.0053 69.3201 43.4366 69.7949 44.3555 69.7105C44.2641 70.5437 42.1717 71.1642 44.1577 71.3815C45.7901 72.2053 43.311 72.5727 42.485 72.9252C41.2907 73.4663 42.5816 70.9958 40.4438 72.1969C39.5016 73.6297 40.1605 70.618 38.2402 70.2921Z" fill="#171616"/>
<path fill-rule="evenodd" clip-rule="evenodd" d="M33.2951 90.5076C29.366 90.9785 33.2772 85.5567 34.7211 88.6248C34.4722 89.2987 33.2915 89.8866 33.2951 90.5076Z" fill="#0441A8"/>
<path fill-rule="evenodd" clip-rule="evenodd" d="M39.2812 98.9194C39.1189 98.4836 38.1405 98.0851 39.2208 97.5928C38.9968 96.8921 38.6263 96.1021 39.3319 95.5995C40.7165 96.3556 41.8246 94.7311 42.0193 97.0464C40.8871 96.4389 40.961 97.4487 40.7102 98.024C39.4293 98.5608 40.2608 96.3966 39.2812 98.9194Z" fill="#0441A8"/>
<path fill-rule="evenodd" clip-rule="evenodd" d="M42.5783 92.4932C42.5533 91.2341 45.428 90.3118 45.1203 91.9555C45.6626 92.6131 46.4104 95.2617 45.015 93.6766C44.7354 92.7361 43.463 93.0507 44.0431 92.0874C43.5715 92.234 43.0129 92.968 42.5783 92.4932Z" fill="#95E7FD"/>
<path fill-rule="evenodd" clip-rule="evenodd" d="M34.3651 80.5946C33.6738 80.881 32.2497 80.3269 31.8496 79.7789C32.5023 77.5069 33.5255 79.5234 34.3651 80.5946Z" fill="#171616"/>
<path fill-rule="evenodd" clip-rule="evenodd" d="M39.1291 95.7548C38.9417 96.7437 38.2475 96.0475 37.6361 95.7765C37.696 95.132 37.7861 94.3403 37.3262 93.7525C38.7266 92.881 39.2262 94.6617 39.1291 95.7548Z" fill="#95E7FD"/>
<path fill-rule="evenodd" clip-rule="evenodd" d="M31.4362 95.4655C29.1648 98.2717 28.0976 92.1681 30.0373 94.2437C29.9408 95.2963 30.6542 95.4198 31.4362 95.4655Z" fill="#171616"/>
<path fill-rule="evenodd" clip-rule="evenodd" d="M39.4045 100.652C39.2126 98.6492 42.8271 101.141 40.4545 101.431C40.411 102.426 39.6943 102.581 38.9584 102.741C37.4898 101.525 41.6245 100.815 39.4045 100.652Z" fill="#95E7FD"/>
<path fill-rule="evenodd" clip-rule="evenodd" d="M37.7109 75.3572C38.2338 75.0242 39.1277 75.3943 39.3507 74.4924C41.7562 74.6518 38.1335 78.035 37.7109 75.3572Z" fill="#0441A8"/>
<path fill-rule="evenodd" clip-rule="evenodd" d="M32.117 98.1866C35.0778 99.4001 29.67 101.186 30.0931 98.9531C30.7237 98.3943 33.1016 99.8563 32.117 98.1866Z" fill="#0441A8"/>
<path fill-rule="evenodd" clip-rule="evenodd" d="M40.1621 79.3332C40.5137 80.0677 41.9326 80.9449 40.6413 81.35C39.5807 81.285 39.4011 79.9233 40.1621 79.3332Z" fill="#171616"/>
<path fill-rule="evenodd" clip-rule="evenodd" d="M37.7113 75.3573C37.8181 76.0421 38.4424 76.2659 38.8739 76.6608C37.672 78.2551 35.2924 75.3402 37.7113 75.3573Z" fill="#171616"/>
<path fill-rule="evenodd" clip-rule="evenodd" d="M52.6252 92.6652C51.8945 93.1558 51.1793 93.8982 50.2494 94.0104C49.891 92.7289 51.5736 91.8931 52.6252 92.6652Z" fill="#0441A8"/>
<path fill-rule="evenodd" clip-rule="evenodd" d="M40.7114 98.0241C40.6835 97.0591 42.0586 96.1495 42.0021 97.7022C43.0144 99.2294 41.6968 98.5118 40.7114 98.0241Z" fill="#95E7FD"/>
<path fill-rule="evenodd" clip-rule="evenodd" d="M41.2965 89.8255C42.449 90.5279 41.1923 90.8063 40.5943 91.3258C39.6542 90.7752 40.693 90.3367 41.2965 89.8255Z" fill="#34BFF4"/>
<path fill-rule="evenodd" clip-rule="evenodd" d="M43.1609 78.9869C45.8162 79.1094 42.5291 80.6146 41.9453 79.5508C41.9991 79.0041 42.8055 79.0864 43.1609 78.9869Z" fill="#95E7FD"/>
<path fill-rule="evenodd" clip-rule="evenodd" d="M37.7833 74.451C36.9991 75.1401 36.8453 73.7548 36.4961 73.2004C37.0685 72.1519 37.3577 73.8577 37.7833 74.451Z" fill="#171616"/>
<path fill-rule="evenodd" clip-rule="evenodd" d="M47.398 65.2995C46.6206 65.6133 45.9108 66.2182 45.7002 65.2381C46.2202 64.3962 46.6484 64.7252 47.398 65.2995Z" fill="#95E7FD"/>
<path fill-rule="evenodd" clip-rule="evenodd" d="M41.5578 95.5611C40.8151 95.5276 40.0866 96.3034 39.333 95.5995C40.1813 95.2013 41.164 95.1845 41.5578 95.5611Z" fill="#95E7FD"/>
<path fill-rule="evenodd" clip-rule="evenodd" d="M30.6845 97.4076C30.4919 97.749 30.3342 98.0729 30.0498 97.6837C30.102 97.2671 30.2419 97.1285 30.6845 97.4076Z" fill="#95E7FD"/>
<path fill-rule="evenodd" clip-rule="evenodd" d="M160.185 95.5928C160.953 92.9661 161.942 91.1495 164.592 93.1695C165.111 93.9595 162.999 93.7497 164.571 94.4256C166.059 96.6527 162.186 94.9951 161.643 96.4405C161.156 96.1581 160.67 95.8755 160.185 95.5928Z" fill="#171616"/>
<path fill-rule="evenodd" clip-rule="evenodd" d="M159.638 73.9177C158.383 76.0613 159.221 73.225 157.138 73.5519C157.703 72.5857 158.621 72.6337 159.609 72.6167C159.785 73.0466 158.489 73.5092 159.638 73.9177Z" fill="#0441A8"/>
<path fill-rule="evenodd" clip-rule="evenodd" d="M159.638 73.9176C158.49 73.5092 159.786 73.0465 159.609 72.6165C161.398 71.0202 161.265 75.0063 159.638 73.9176Z" fill="#95E7FD"/>
<path fill-rule="evenodd" clip-rule="evenodd" d="M159.7 76.1373C159.546 76.9145 159.391 77.6919 159.239 78.4657C158.937 77.1409 157.349 75.3043 159.7 76.1373Z" fill="#0441A8"/>
<path fill-rule="evenodd" clip-rule="evenodd" d="M159.271 70.4762C159.453 72.4553 156.632 70.9601 157.365 69.6694C157.76 70.8837 158.4 70.8302 159.271 70.4762Z" fill="#95E7FD"/>
<path fill-rule="evenodd" clip-rule="evenodd" d="M156.817 81.1313C156.345 80.4591 156.784 79.9579 157.02 79.3188C157.679 80.1622 158.116 80.4437 156.817 81.1313Z" fill="#171616"/>
<path fill-rule="evenodd" clip-rule="evenodd" d="M159.62 69.7634C157.99 67.779 160.62 66.8997 159.623 69.7658L159.62 69.7634Z" fill="#95E7FD"/>
<path fill-rule="evenodd" clip-rule="evenodd" d="M159.263 70.47C159.64 69.7193 159.644 69.7294 159.27 70.4761L159.263 70.47Z" fill="#95E7FD"/>
<path fill-rule="evenodd" clip-rule="evenodd" d="M171.696 106.219C167.394 108.82 168.473 103.849 170.089 105.044C170.449 106.36 171.44 105.079 171.696 106.219Z" fill="#0441A8"/>
<path fill-rule="evenodd" clip-rule="evenodd" d="M176.106 102.843C175.301 103.343 174.947 104.179 174.241 103.223C174.955 102.992 175.345 102.191 176.106 102.843Z" fill="#34BFF4"/>
<path fill-rule="evenodd" clip-rule="evenodd" d="M169.648 109.08C170.706 108.829 171.328 108.848 171.413 109.904C170.385 110.326 171.298 108.801 169.648 109.08Z" fill="#0441A8"/>
<path fill-rule="evenodd" clip-rule="evenodd" d="M168.958 109.324C169.062 109.27 169.167 109.216 169.269 109.162C169.165 109.217 169.061 109.27 168.958 109.324Z" fill="#0441A8"/>
<path fill-rule="evenodd" clip-rule="evenodd" d="M89.2256 112.738C88.5794 123.558 75.6918 112.043 82.2915 107.536C86.636 104.836 88.7786 108.715 89.2256 112.738Z" fill="#34BFF4"/>
<path fill-rule="evenodd" clip-rule="evenodd" d="M157.241 84.6251C157.817 87.0375 155.983 86.652 156.94 84.5189C157.077 84.2877 158.019 84.5618 157.241 84.6251Z" fill="#95E7FD"/>
<path fill-rule="evenodd" clip-rule="evenodd" d="M142.377 98.8735C151.404 98.3108 143.518 114.856 138.603 107.791C137.336 104.379 137.734 97.9708 142.377 98.8735Z" fill="#34BFF4"/>
<path fill-rule="evenodd" clip-rule="evenodd" d="M97.7565 88.2947C105.887 89.0624 98.3258 101.333 94.9282 94.2969C94.0514 91.9673 94.5357 88.4181 97.7565 88.2947Z" fill="#34BFF4"/>
<path fill-rule="evenodd" clip-rule="evenodd" d="M122.829 92.8671C126.72 92.995 127.341 98.4704 124.072 100.193C120.159 101.048 117.458 92.3293 122.829 92.8671Z" fill="#34BFF4"/>
<path fill-rule="evenodd" clip-rule="evenodd" d="M61.1416 118.882C61.1618 118.81 61.2011 118.75 61.2561 118.702C61.3661 118.879 61.3515 118.908 61.1416 118.882Z" fill="#34BFF4"/>
<path fill-rule="evenodd" clip-rule="evenodd" d="M50.9326 98.1879C51.1255 97.5417 51.0024 96.4651 52.2346 97.4092C55.2089 97.6279 52.4636 98.3014 50.9326 98.1879Z" fill="#95E7FD"/>
<path fill-rule="evenodd" clip-rule="evenodd" d="M53.5967 98.0204C53.6433 97.8178 53.5615 97.536 53.6991 97.3818C53.9124 98.349 54.7269 97.3419 55.2367 98.1858C54.6899 98.1305 54.1434 98.0755 53.5967 98.0204Z" fill="#34BFF4"/>
<path fill-rule="evenodd" clip-rule="evenodd" d="M102.455 104.2C106.523 102.807 109.015 105.306 105.429 108.136C103.547 108.565 102.41 105.931 102.455 104.2Z" fill="#34BFF4"/>
<path fill-rule="evenodd" clip-rule="evenodd" d="M157.365 104.176C160.729 103.939 158.527 107.757 156.897 107.999C154.914 107.592 153.92 103.826 157.365 104.176Z" fill="#34BFF4"/>
<path fill-rule="evenodd" clip-rule="evenodd" d="M118.313 109.72C117.21 110.63 117.225 109.765 116.698 109.025C117.171 108.168 117.679 109.303 118.313 109.72Z" fill="#34BFF4"/>
<path fill-rule="evenodd" clip-rule="evenodd" d="M134.925 84.9938C133.176 83.5814 134.125 83.4352 135.205 82.3608C136.628 83.4159 135.972 83.8659 134.925 84.9938Z" fill="#34BFF4"/>
<path fill-rule="evenodd" clip-rule="evenodd" d="M159.08 95.3472C159.141 95.4759 159.249 95.5802 159.073 95.6741C159.013 95.5453 158.904 95.4411 159.08 95.3472Z" fill="#34BFF4"/>
<path fill-rule="evenodd" clip-rule="evenodd" d="M33.5394 164.938C33.0517 165.097 33.2944 164.529 33.2407 164.214C33.7098 164.146 33.4982 164.62 33.5394 164.938Z" fill="#0C88DE"/>
<path fill-rule="evenodd" clip-rule="evenodd" d="M15.4696 97.4979C15.515 98.0866 14.7098 98.1237 14.3151 98.3869C13.7114 97.9281 15.0365 97.3174 15.4696 97.4979Z" fill="#95E7FD"/>
<path fill-rule="evenodd" clip-rule="evenodd" d="M15.4111 97.4369C15.4737 97.3934 15.5365 97.3496 15.5993 97.3061C15.5311 97.3733 15.4958 97.5674 15.4111 97.4369Z" fill="#95E7FD"/>
<path fill-rule="evenodd" clip-rule="evenodd" d="M42.0784 49.8528C41.6384 49.5206 41.2898 48.5294 41.2441 48.1761C40.492 48.2586 40.1476 48.096 40.4672 47.2582C39.3821 45.3765 41.439 45.9098 42.7631 45.6257C42.2667 46.8466 40.9518 46.9534 42.7463 47.7223C43.236 48.0155 43.8366 48.4333 44.1918 48.8199C43.2955 49.1933 42.4983 48.656 42.0784 49.8528Z" fill="#95E7FD"/>
<path fill-rule="evenodd" clip-rule="evenodd" d="M44.2109 48.7921C44.6848 48.8603 45.3765 48.6337 44.9216 49.2816C44.7148 49.1125 44.3215 48.9785 44.2109 48.7921Z" fill="#95E7FD"/>
<path fill-rule="evenodd" clip-rule="evenodd" d="M43.6815 49.9828C43.4359 50.1315 43.3508 50.0692 43.292 49.8049C43.5368 49.6562 43.6196 49.7241 43.6815 49.9828Z" fill="#95E7FD"/>
<path fill-rule="evenodd" clip-rule="evenodd" d="M80.8866 68.4725C81.9354 68.3216 82.6317 70.2319 81.5187 69.2475C81.0415 68.8004 80.7359 69.3932 80.3623 69.6496L80.8866 68.4725Z" fill="#95E7FD"/>
<path fill-rule="evenodd" clip-rule="evenodd" d="M82.3379 68.4912C82.3991 68.4443 82.3813 68.4988 82.3901 68.5422L82.3379 68.4912Z" fill="#95E7FD"/>
<path fill-rule="evenodd" clip-rule="evenodd" d="M101.136 45.2258C100.706 44.4272 98.4257 44.1603 98.9178 43.8823C100.601 44.7932 103.553 42.9519 104.507 44.5282C104.216 46.5916 101.728 46.3883 104.146 48.1137C101.132 48.5772 103.667 45.0691 101.136 45.2258Z" fill="#95E7FD"/>
<path fill-rule="evenodd" clip-rule="evenodd" d="M99.6484 52.4222C100.717 52.1801 103.537 52.6597 102.088 50.5562C105.533 50.4878 100.591 53.8162 99.6484 52.4222Z" fill="#0441A8"/>
<path fill-rule="evenodd" clip-rule="evenodd" d="M104.339 48.4213C104.237 48.4082 104.18 48.3367 104.184 48.2362C104.303 48.2388 104.346 48.3085 104.339 48.4213Z" fill="#95E7FD"/>
<path fill-rule="evenodd" clip-rule="evenodd" d="M82.4609 52.535C83.1817 51.527 83.4103 50.2565 84.8842 50.35C85.5368 52.3015 84.0121 52.4923 82.4609 52.535Z" fill="#95E7FD"/>
<path fill-rule="evenodd" clip-rule="evenodd" d="M101.136 45.2258C102.561 45.3998 102.5 45.3913 102.317 46.669C103.101 49.5749 100.771 49.8144 101.136 45.2258Z" fill="#171616"/>
<path fill-rule="evenodd" clip-rule="evenodd" d="M100.396 50.0778C98.7655 50.4235 98.6409 49.66 98.1924 48.4479C98.7781 47.5907 99.8056 49.4707 100.396 50.0778Z" fill="#171616"/>
<path fill-rule="evenodd" clip-rule="evenodd" d="M100.931 67.249C100.476 67.8985 100.011 66.7653 99.6885 66.2744C100.107 64.7016 100.82 66.284 100.931 67.249Z" fill="#95E7FD"/>
<path fill-rule="evenodd" clip-rule="evenodd" d="M120.753 49.5429C120.195 49.8013 119.799 50.6394 119.443 49.9011C119.92 49.6849 120.251 48.9639 120.753 49.5429Z" fill="#0441A8"/>
</svg>
