<svg
  width="150"
  height="159"
  viewBox="0 0 150 159"
  fill="none"
  xmlns="http://www.w3.org/2000/svg"
>
<path
    fill-rule="evenodd"
    clip-rule="evenodd"
    d="M52.2702 134.429C52.57 134.197 53.2397 133.998 52.6926 133.765C52.4175 133.955 51.8827 134.064 52.2702 134.429ZM116.473 150.625C117.298 150.145 116.917 150.025 116.257 149.789C115.574 149.967 116.073 150.3 116.473 150.625ZM78.6052 131.913C79.3172 132.288 79.6825 132.383 79.8481 131.627C79.489 130.875 79.1187 131.441 78.6052 131.913ZM101.895 89.1181C101.145 89.9739 101.772 89.9187 102.335 90.3803C102.872 89.8298 102.279 89.6536 101.895 89.1181ZM76.4571 127.722C75.0572 128.336 77.4766 129.357 77.858 128.58C77.7309 128.143 77.092 127.76 76.4571 127.722ZM104.525 111.769C104 114.013 106.941 116.001 107.855 118.009C111.307 119.608 105.396 112.31 104.525 111.769ZM118.861 150.439C118.61 151.408 119.618 152.387 120.483 151.47C120.094 150.825 121.108 150.182 120.494 149.516C120.887 148.458 122.345 149.063 122.805 149.992C123.612 151.487 125.402 150.243 124.202 148.979C122.476 146.836 118.174 146.924 118.861 150.439ZM72.9223 147.02C73.2145 147.815 72.6228 150.047 74.2292 149.897C74.6247 149.803 74.7248 149.454 74.4638 149.049C73.8871 147.58 74.4654 145.828 74.4694 144.272C74.7144 142.734 76.6276 143.299 77.7453 143.09C78.8082 143.824 78.3724 145.822 78.7111 147.017C78.7666 148.634 76.5414 148.312 75.5592 148.971C73.6502 151.478 79.7958 149.977 80.6333 148.873C81.5893 147.997 80.4086 146.871 80.4023 145.787C80.1687 143.403 79.7246 140.731 76.6535 141.641C71.2148 141.934 73.812 143.011 72.9223 147.02ZM84.0363 119.771C83.4571 120.555 84.9036 128.841 86.4049 124.625C87.0064 124.403 87.4454 125.296 88.5238 124.829C94.0722 124.44 91.7778 122.109 91.0401 118.304C89.6856 115.902 86.1687 117.807 83.9584 117.745C82.6529 117.899 83.8271 119.085 84.0363 119.771ZM94.1096 138.561C93.3667 136.44 92.6718 131.766 89.6845 132.387C88.3806 133.143 85.2986 133.089 85.2775 134.908C85.8981 136.984 85.4495 140.927 87.6245 141.832C89.8117 141.439 93.7989 141.328 94.1096 138.561ZM72.779 134.855C73.5806 135.516 74.5363 133.526 75.2331 133.059C75.9696 132.386 75.5636 132.294 75.2117 131.582C76.1655 130.334 73.7407 129.184 73.3359 127.974C72.6671 127.127 72.1803 125.003 70.767 125.959C68.9877 127.531 65.1713 128.286 64.4664 130.435C66.3007 134.464 68.183 137.846 72.779 134.855ZM99.299 108.631C95.8818 100.444 96.662 101.733 89.1669 104.749C87.6905 106.646 90.3932 110.169 91.1321 112.279C92.5516 114.752 99.3888 110.933 99.299 108.631ZM35.4996 94.4351C32.9439 90.1437 19.6064 97.0977 19.9389 102.209C24.3768 108.608 35.6838 100.926 35.4996 94.4351ZM61.0278 116.303C63.2451 116.416 64.1782 115.32 65.5193 113.483C67.392 112.487 66.603 110.4 66.8357 108.739C67.0942 103.965 63.1867 99.7762 58.7462 99.1484C53.3489 98.6265 56.0804 116.665 61.0278 116.303ZM25.6059 157.734C31.3702 147.88 36.7761 137.435 44.3595 128.648C44.999 127.162 52.7054 120.38 48.0682 121.361C39.1519 130.98 30.9255 141.208 23.0345 151.687C18.2565 157.4 17.4818 156.634 25.6059 157.734ZM81.6458 105.14C81.1071 107.84 84.7039 105.966 86.0167 105.655C88.4305 105.021 85.7075 98.0783 83.8358 98.1602C83.1381 94.3586 80.899 91.421 76.8677 90.9267C75.4833 90.4362 71.2512 89.3954 70.8856 91.0674C72.1471 96.9617 76.0191 102.952 81.6458 105.14ZM111.393 100.467C112.89 99.4108 110.18 95.9615 110.456 94.1072C110.06 91.5344 106.937 93.4682 105.263 93.3786C103.771 93.5231 104.201 95.1125 104.187 96.1793C102.434 102.745 106.487 103.942 111.393 100.467ZM107.359 145.704C107.254 141.937 104.479 143.027 102.004 144.02C97.9955 144.521 99.7313 149.902 101.834 151.665C106.997 152.581 109.735 151.142 107.373 145.713C110.336 145.695 109.846 142.471 107.359 145.704ZM94.2061 94.7833C95.1728 95.6532 96.241 94.1924 94.9736 93.7171C95.0051 93.1873 95.1791 92.6157 95.0379 92.1369C94.2309 90.3932 93.894 87.0958 91.3392 87.9353C89.712 88.3596 86.1509 87.8446 86.7554 90.4769C88.5724 95.7587 88.2552 98.2005 94.2061 94.7833ZM106.402 110.547C106.209 111.148 106.047 113.862 107.111 112.834C107.528 111.67 106.782 110.15 108.186 109.825C109.052 109.466 109.254 109.533 109.766 110.296C115.227 116.559 106.416 114.278 109.393 116.511C115.322 116.702 113.758 112.24 110.84 109.219C109.601 107.142 107.433 108.726 105.882 109.539C104.11 110.004 104.825 111.4 106.402 110.547ZM94.4496 155.127C86.6554 155.784 76.4832 156.221 70.138 155.246C67.641 155.047 65.0686 155.337 62.7302 154.106C61.7577 153.593 60.9012 153.55 60.2973 154.673C58.9199 155.989 58.2548 157.705 56.012 157.198C57.2033 155.678 58.773 154.184 59.8018 152.607C59.4904 151.891 60.0405 151.78 60.4548 151.61C65.508 151.471 62.5799 146.943 61.7596 144.085C59.6263 132.601 48.648 151.42 44.7778 153.749C44.8235 152.866 45.8806 152.216 44.5615 151.883C46.1131 149.985 47.6033 148.033 49.2307 146.203C52.991 141.934 58.0781 138.532 57.1101 132.164C57.3474 129.89 50.1237 139.11 51.5928 133.799C53.5325 131.73 56.2273 129.958 57.81 127.688C60.1464 121.891 57.1715 121.791 52.1933 122.218C48.8756 125.741 45.8913 129.644 42.7647 133.349C37.4433 140.409 32.4622 147.727 28.3331 155.559C27.1215 160.211 22.4422 157.627 18.8137 156.876C14.6658 156.157 10.9221 154.53 7.27954 152.458C10.255 153.964 11.7201 152.026 12.3001 153.473C12.6024 154.424 13.6555 154.151 14.0108 155.01C14.397 155.399 14.7785 155.514 14.8243 154.827C20.6608 146.772 25.2757 136.974 30.9229 128.464C30.83 129.639 32.107 128.883 32.8218 128.942C30.2952 133.37 27.527 137.655 24.9441 142.046C22.9351 144.668 21.8397 147.75 19.6454 150.174C19.0652 151.598 17.3989 152.924 17.5734 154.447C16.2942 154.571 16.4343 155.914 17.5127 156.287C26.454 145.693 35.5163 131.094 46.2349 120.604C52.6023 121.146 58.9071 122.517 65.4777 122.965C69.9133 123.106 74.2488 122.478 76.9344 118.674C78.1306 119.138 78.4704 119.01 78.9517 117.887C79.1873 115.663 82.625 114.416 81.8631 112.171C81.4978 111.1 78.7834 110.176 79.8901 109.712C83.3207 106.987 70.9468 104.703 68.6237 92.2202C68.5037 88.0895 60.3015 94.8626 59.2701 96.3897C58.8911 96.7467 58.9494 96.8386 59.4318 96.9569C64.4336 97.8756 68.5556 101.928 69.6329 106.855C71.1526 123.109 51.4495 123.154 53.6698 103.125C53.7586 102.22 55.3367 98.4912 53.4783 98.9366C50.9912 99.645 47.5905 99.639 45.677 101.331C46.4741 105.187 47.0582 109.912 45.2063 113.436C44.7425 116.596 39.9282 118.542 44.3155 119.96C42.2325 121.349 40.4632 117.35 39.0295 119.152C39.2014 116.251 42.3587 114.781 42.9586 112.043C43.9476 108.868 44.0412 105.892 43.1934 102.732C40.0459 102.545 26.2005 114.058 32.3928 116.517C30.1336 115.973 27.9633 116.385 28.938 113.296C28.9446 112.502 28.6476 111.89 29.5611 111.49C32.1337 107.231 36.2772 103.23 41.0428 100.982C44.0643 99.0932 39.6697 95.2881 37.4888 94.3354C35.7096 93.8567 38.3679 99.6416 31.5664 103.319C19.1234 111.436 10.9329 100.144 25.9177 92.9415C27.333 91.3499 34.9915 91.6755 33.8572 90.3197C32.4016 87.7235 29.8542 86.7948 27.2344 85.9657C23.6811 85.1362 27.4553 83.6602 29.2801 84.9289C31.9455 85.9728 33.9796 87.8107 35.6531 90.0842C36.5581 92.2225 39.3558 92.2257 40.8759 93.7327C41.318 94.3895 41.4695 95.2835 42.497 95.3981C42.6622 95.4166 42.8268 95.7298 42.9332 95.9368C43.6771 96.8167 43.8511 99.0843 45.0323 99.1877C48.4976 97.1854 52.5027 97.1637 56.2145 96.42C57.9973 93.8074 60.6933 92.2856 63.2022 90.5478C65.03 89.587 67.2581 89.2427 68.9366 88.0288C69.0643 87.866 68.7764 87.2885 68.9264 87.0497C70.5222 84.9005 70.3099 82.1773 71.4286 79.8501C72.5333 82.0506 74.3928 86.9964 77.5178 84.8577C82.6704 82.5166 79.4134 78.1558 76.8158 75.1779C79.7592 74.2551 82.9858 75.372 85.9967 75.4725C88.439 76.6051 91.9383 76.0213 94.4901 77.7293C93.7653 78.9122 93.7701 80.2493 94.0448 81.5605C94.2324 84.0327 96.079 85.3452 98.4052 84.1425C100.183 82.7898 104.056 83.1857 104.094 80.4488C112.173 81.9579 114.26 99.6386 117.713 106.513C117.284 106.535 116.615 106.378 117.321 107.14C120.172 109.74 116.917 110.186 118.879 110.45C117.113 113.386 114.688 115.971 113.244 119.166C108.186 124.541 108.9 132.077 104.302 123.522C103.813 122.657 103.494 122.536 102.655 122.994C93.6513 127.053 98.3305 128.632 102.852 133.389C103.348 132.525 106.588 130.525 106.37 132.438C106.163 134.358 105.103 136.683 106.78 138.244C107.676 139.166 108.091 140.719 109.568 140.944C114.777 145.2 123.247 145.7 130.122 146.455C129.636 152.932 100.962 155.293 95.0002 155.019C97.556 155.232 95.8756 152.635 95.4416 151.248C94.8336 149.477 92.7506 149.642 91.2092 149.781C89.4168 150.367 90.6828 153.044 90.4894 154.493C93.1527 156.806 91.2897 152.062 92.2477 151.409C94.2616 151.099 94.2085 153.752 94.4496 155.127Z"
    fill="#0D88DF"
  />
<mask
    id="mask0_1265_41517"
    style="mask-type:alpha"
    maskUnits="userSpaceOnUse"
    x="30"
    y="0"
    width="79"
    height="91"
  >
<path d="M30.9786 0H108.335V90.3029H30.9786V0Z" fill="white" />
</mask>
<g mask="url(#mask0_1265_41517)">
<path
      fill-rule="evenodd"
      clip-rule="evenodd"
      d="M50.7798 22.8464C50.6205 23.0479 50.6812 23.1729 50.7515 23.3782C50.8975 23.2039 50.8297 23.0621 50.7798 22.8464ZM32.2991 66.4547C32.4994 67.1976 32.8527 67.2025 33.2034 66.7252C33.1675 65.9396 32.8452 65.8558 32.2991 66.4547ZM71.2039 64.3352C76.5792 64.4242 87.3081 60.7043 81.7838 53.7707C80.5989 50.7989 77.8354 56.0439 73.6358 54.7161C72.9043 54.676 72.1237 53.9095 71.5311 53.3101C69.6865 50.5451 68.9032 55.1556 66.795 54.8682C63.19 55.7234 60.549 51.3033 59.2286 53.4333C53.691 60.7555 64.9081 64.3664 71.2039 64.3352ZM94.1033 10.9062C93.4164 11.3198 89.2176 10.8744 90.7401 12.9251C94.5512 21.3755 96.0372 30.7884 94.2919 39.9453C93.6725 42.5142 97.8942 39.8972 99.0801 39.744C101.451 38.139 106.937 38.0691 106.957 34.6194C105.955 28.6604 101.037 11.3874 94.1033 10.9062ZM93.3232 32.9864C93.8624 24.5486 91.2869 15.8039 86.8759 8.65597C82.162 3.52354 71.4812 -1.27243 65.8218 2.52498C68.3209 10.6261 68.9183 19.4765 68.0871 27.9433C67.1651 33.5199 60.8392 35.092 56.8008 37.9797C54.6385 39.8279 50.0273 40.4124 49.0608 42.8922C49.682 44.8693 54.3978 58.2144 56.1434 55.7475C56.6809 52.8876 60.1871 51.6998 59.4115 48.6713C60.1091 46.3901 61.8835 56.0611 67.8356 52.1829C69.0948 50.9128 70.6624 46.7459 67.9624 46.3034C61.7195 45.7628 61.6345 38.7223 67.3755 37.103C76.3035 33.836 83.0417 44.7929 71.666 46.834C69.8153 52.0244 76.8734 55.5346 79.6529 50.6218C80.0836 50.1751 80.7603 47.2279 81.4318 48.684C80.7307 51.8864 84.2808 53.2091 84.9585 56.4305C86.5822 57.0915 87.761 52.7246 88.7809 51.4502C91.9666 45.8106 93.377 39.423 93.3232 32.9864ZM46.0473 34.3727C45.9041 27.0339 47.2222 19.2203 50.7179 12.5542C51.4975 11.5282 45.9651 9.84121 48.1621 12.8292C47.7267 12.5034 47.175 13.0565 47.1836 13.3902C48.1891 13.6326 47.9963 15.4826 47.243 14.663C46.843 14.7817 45.9804 14.6963 45.8807 15.1588C46.0595 16.3697 43.6422 16.9932 43.0749 16.1754C43.6342 15.9067 42.5674 15.1502 43.6559 15.1576C44.3029 15.5534 44.8961 14.7337 44.5968 14.2169C44.3338 14.1044 43.998 14.0573 44.2589 13.7072C52.3336 12.346 43.1806 3.87827 36.3121 25.6226C33.5227 33.5743 31.186 36.4909 40.7619 39.431C45.2667 40.4591 48.2558 43.7993 46.5442 36.6066C46.3287 35.9455 46.9323 34.5392 46.0473 34.3727ZM50.243 39.9389C55.6066 35.8506 65.8452 34.5342 66.9199 26.7793C67.0821 18.7395 67.0911 10.4746 64.3491 2.81848C62.3585 2.27635 57.1768 5.89962 55.8234 7.55751C52.4936 9.92643 50.6068 16.1431 49.6162 19.9508C49.5394 21.0577 51.266 20.2194 51.2999 21.8183C51.4776 22.8029 52.9103 21.5643 51.4879 23.1774C51.2831 24.0094 50.6038 23.6444 50.2606 23.5806C48.975 23.7025 50.3439 20.0037 49.1376 21.6114C48.2066 24.141 46.3165 40.9667 50.243 39.9389ZM87.6392 75.8734C85.0811 76.8597 86.3077 72.9782 85.9665 71.6054C84.7197 50.5285 82.9115 68.5109 67.8571 65.4567C58.423 65.6102 56.4844 53.8093 55.2663 66.6542C52.9905 80.1971 59.0292 70.755 60.6548 83.2883C61.1269 86.624 57.305 84.9013 57.3933 86.4581C57.948 87.9086 57.1232 92.2192 55.5279 89.3242C55.006 88.3152 55.9107 86.0066 54.3922 85.9561C50.9617 85.2947 54.4204 89.9929 51.5105 90.2706C49.7832 89.6383 52.0393 85.5756 49.7586 86.1016C46.4697 86.7657 47.2953 82.5058 47.7168 80.5059C48.4876 76.9291 50.7439 75.8219 53.0964 73.8385C53.1647 68.8839 53.9683 64.0276 55.0512 59.2051C55.2074 58.452 55.072 57.9076 54.5476 57.3963C51.3695 56.8438 47.2133 67.0543 45.9752 70.0279C45.0984 72.3147 44.5548 74.7205 44.4094 77.1788C43.7993 79.7213 45.7633 86.7749 41.3082 84.0606C38.2784 80.4959 43.1854 48.3255 34.7892 56.9224C35.3009 57.2224 35.2071 58.3435 34.5635 58.5337C34.0836 58.2342 33.6265 58.4333 33.7166 59.1448C34.3551 59.0624 34.8778 58.9159 34.7618 59.7396C34.6312 60.7713 34.3329 60.8919 33.4258 60.3474C31.818 60.5199 33.8407 62.8126 32.6226 62.8459C32.0673 62.9485 32.3719 63.412 32.2785 63.7032C33.1429 64.7292 33.7086 60.9591 35.2849 64.574C34.6694 64.7076 33.9393 64.4102 34.1574 65.2612C34.4274 66.2937 36.009 65.7948 34.6202 67.1504C34.0575 67.1261 34.0718 67.1239 34.1565 67.6512C34.4697 69.5481 33.3882 67.5882 32.6179 67.6428C32.621 71.3723 34.2155 75.1037 35.1205 78.5037C35.8696 79.0809 35.4863 79.9809 35.9962 80.7039C36.0174 82.0211 38.4266 84.2158 36.1372 84.0218C32.5531 75.3483 27.6383 64.0686 34.2033 55.6245C44.9203 48.4223 40.4802 74.6464 42.0631 79.7803C42.7314 81.9993 42.9332 77.8577 42.9783 77.0766C45.096 56.2127 56.9175 59.8116 50.2247 50.1384C48.6148 47.7246 49.0005 43.0429 45.6905 42.469C41.9789 41.1043 31.581 39.2705 32.4478 34.2285C33.4013 26.8947 36.6833 19.8159 40.5706 13.5579C42.4138 9.35721 47.0591 8.69715 50.9027 10.6033C61.7404 -2.15401 77.9334 -4.62367 89.2355 9.98707C91.7848 11.4754 96.1837 7.31844 98.6154 11.3517C102.175 16.1157 112.455 33.5877 106.536 38.0858C90.4163 45.5109 96.2659 38.8114 88.3788 55.3107C91.2376 60.1084 95.4296 64.4625 96.4976 70.3717C96.8496 72.4633 99.6543 79.2715 96.4465 77.9582C97.8979 75.1449 87.549 50.9257 85.8235 59.2181C87.2972 64.6348 87.8718 70.274 87.6392 75.8734Z"
      fill="#151516"
    />
</g>
<path
    fill-rule="evenodd"
    clip-rule="evenodd"
    d="M122.279 115.047C122.323 117.25 125.549 117.182 125.62 115.031C125.592 112.779 122.48 112.6 122.279 115.047ZM116.308 120.087C115.856 117.519 114.693 123.984 117.951 122.53C120.574 121.402 119.327 116.763 116.488 117.946C116.144 118.187 116.162 118.556 116.622 118.508C121.224 117.909 116.649 125.211 116.308 120.087ZM127.298 119.65C127.268 119.633 127.239 119.616 127.21 119.599C127.471 120.743 125.334 122.862 125.873 120.219C125.876 120.142 125.624 119.962 125.557 119.991C122.651 123.392 130.047 122.784 127.298 119.65ZM109.629 140.981C107.621 140.128 105.648 137.477 105.978 135.264C106.552 131.382 107.231 131.696 103.144 131.855C103.542 130.461 106.762 130.424 105.98 128.917C104.534 128.112 103.134 123.907 102.148 124.829C94.6401 127.739 102.882 128.538 102.451 132.854C100.976 131.046 95.8422 128.326 98.0275 125.798C104.262 121.964 102.735 121.595 107.059 127.246C107.777 127.902 107.903 127.912 108.304 127.019C111.415 121.228 115.405 115.902 118.949 110.43C120.683 110.589 121.686 108.179 123.495 109.303C126.327 109.146 128.214 110.959 130.768 112.016C129.547 113.606 130.369 115.604 132.14 115.589C133.488 115.581 134.486 115.02 135.381 114.122C138.53 115.078 141.942 116.211 144.551 118.21C139.533 117.561 140.379 125.507 144.03 126.819C145.404 129.112 139.573 132.299 137.177 131.393C134.836 131.311 137.233 128.408 136.495 126.976C136.752 121.322 130.665 120.963 130.971 126.681C130.817 129.045 132.857 130.494 133.604 132.325C132.64 134.257 130.157 136.264 127.632 135.803C125.836 135.475 125.899 135.547 126.305 133.71C128.195 130.174 123.316 123.197 120.545 128.221C118.39 132.967 123.378 134.377 122.9 136.681C121.226 138.398 117.842 139.144 115.682 138.246C114.3 137.485 116.321 135.264 116.213 133.971C117.475 129.315 110.425 127.795 110.36 132.866C110.404 133.224 110.514 133.434 110.978 133.33C111.489 133.214 111.766 133.061 111.875 132.465C112.244 130.193 114.446 130.47 114.795 132.558C115.118 133.884 114.018 138.162 112.718 135.788C111.158 131.908 109.764 135.426 111.945 137.421C113.552 138.974 110.555 140.018 109.629 140.981Z"
    fill="#0341A8"
  />
<path
    fill-rule="evenodd"
    clip-rule="evenodd"
    d="M52.2291 135.627C57.7052 130.927 57.5995 129.919 56.697 137.787C53.1214 142.758 48.1844 146.826 44.6091 151.898C41.6915 154.3 40.2682 160.154 36.1451 158.101C34.7305 158.486 32.859 158.791 31.7265 157.735C31.7126 157.712 31.3891 157.801 31.3741 157.872C31.1524 158.937 30.3123 158.404 30.043 158.183C28.9372 157.307 28.3702 158.734 27.1683 158.364C29.8223 151.869 34.016 145.773 38.0336 139.981C42.7394 133.964 47.1196 126.392 53.1703 122.002C59.0907 122.004 60.0872 123.374 57.1859 128.619C51.1013 134.279 45.1982 139.708 39.6022 145.93C36.58 149.545 31.3544 153.332 29.928 157.528C32.3581 157.371 34.1776 153.207 36.2423 151.6C41.4698 146.127 46.8479 140.945 52.2291 135.627Z"
    fill="#0341A8"
  />
<path
    fill-rule="evenodd"
    clip-rule="evenodd"
    d="M129.013 75.7075C128.441 75.1738 128.225 74.389 127.604 75.2788C125.711 77.5378 127.614 77.5665 129.013 75.7075ZM112.738 77.7805C114.072 77.5482 112.485 76.232 112.28 75.5801C111.809 73.9542 110.215 75.6412 110.443 76.5293C111.195 76.0488 111.827 77.5977 112.738 77.7805ZM119.24 78.7167C120.619 78.4366 123.276 78.7168 124.602 77.816C126.233 74.6873 127.761 73.5753 123.3 72.7548C121.854 72.7297 123.714 75.7982 122.144 75.9676C120.528 75.7641 122.264 72.7184 120.769 72.4863C120.203 72.4791 120.12 72.795 120.093 73.2322C120.183 73.9548 119.752 76.3234 119.385 74.4959C119.279 71.9913 119.283 72.5588 117.077 72.7712C115.223 72.7929 115.565 73.5375 115.472 75.0942C115.023 76.0495 114.852 74.3854 114.75 73.9909C114.492 73.1746 113.733 73.6781 113.224 73.9092C113.194 75.1578 114.428 76.3716 114.82 77.5784C115.713 79.1558 117.511 78.3557 119.24 78.7167ZM135.976 52.4086C129.814 53.8465 126.556 59.8407 124.292 65.2537C124.023 67.1228 121.413 71.0918 124.32 71.5342C125.726 71.8844 125.26 69.7348 125.656 68.9163C126.787 65.2485 128.178 60.7559 131.174 58.3383C130.29 62.9 126.498 67.0734 126.146 71.8746C128.624 73.2437 129.968 68.2856 131.705 67.012C134.394 63.4885 143.013 55.4829 135.976 52.4086ZM105.772 52.4172C100.205 52.9483 104.738 59.3286 105.869 62.1275C107.74 65.5486 109.859 68.834 111.863 72.1831C112.292 73.405 114.706 72.1749 114.062 71.324C114.232 69.2113 105.491 57.5787 110.844 63.4671C112.975 65.6735 114.577 68.1564 115.05 71.249C115.115 71.677 115.27 71.7474 115.681 71.66C116.611 71.1784 119.231 71.8357 118.87 70.2761C117.43 63.0191 113.641 54.3201 105.772 52.4172ZM108.92 83.6517C106.907 81.0661 108.892 76.3453 110.829 73.978C110.481 71.2086 107.418 68.4039 106.245 65.5815C104.872 62.5419 102.953 59.675 102.214 56.1884C100.871 50.3367 107.796 50.6237 110.64 53.5477C116.01 57.4039 118.755 63.7345 119.839 70.0882C119.881 71.4199 121.784 71.3326 121.618 70.0935C121.982 63.7395 132.639 44.5241 139.435 53.5069C142.013 61.5943 132.464 66.9235 129.016 73.0766C129.09 73.8277 130.617 74.7137 130.353 75.668C130.387 81.5345 131.943 87.4496 132.365 93.3654C132.362 95.7914 136.768 121.237 132.8 111.887C131.629 100.724 130.135 89.5969 129.126 78.4167C129.37 77.4108 124.571 79.4405 124.503 80.4864C124.286 80.9532 123.823 80.9198 123.85 80.2111C123.867 79.7751 123.638 79.6922 123.241 79.7509C120.876 80.5449 117.737 79.1748 115.791 80.264C115.294 81.5253 114.725 79.6485 114.238 79.3992C108.247 75.6888 110.35 79.0782 108.92 83.6517Z"
    fill="#151516"
  />
<path
    fill-rule="evenodd"
    clip-rule="evenodd"
    d="M26.7083 84.4345C23.2227 86.0007 33.3542 86.8827 33.8992 90.3555C34.2588 90.9949 34.1818 91.1189 33.4618 91.1624C28.2481 91.2162 23.6099 93.7883 19.9337 97.369C10.7263 108.905 33.2533 108.521 36.4517 97.6567C37.2021 96.8558 36.154 93.6955 37.5281 94.368C39.9437 95.3785 41.4862 97.3603 42.3772 99.7722C41.1964 101.575 38.8412 101.443 37.614 103.203C34.979 104.647 33.0932 107.01 31.1286 109.069C31.2075 109.996 29.8092 110.081 29.9757 111.084C29.2425 111.92 28.6905 111.979 28.986 113.316C29.619 117.555 24.4997 118.735 26.4608 115.373C28.6567 114.585 25.0919 114.33 24.3429 113.417C23.6253 112.831 22.9573 112.656 22.1176 112.8C21.8779 112.715 21.6381 112.63 21.3984 112.545C21.2154 111.578 20.1394 112.244 19.5226 111.768C18.7122 110.834 17.6124 110.368 16.5102 109.907C16.7265 108.623 16.1865 108.571 15.1313 108.462C14.1596 106.454 11.9147 101.935 14.837 101.632C15.9604 101.208 15.7889 100.003 14.5696 100.132C12.3535 100.975 15.1215 94.7513 15.9605 94.0535C17.0668 94.013 16.8305 93.0887 16.1755 92.5527C19.1588 86.066 19.436 85.2957 26.7083 84.4345Z"
    fill="#30BDF4"
  />
<path
    fill-rule="evenodd"
    clip-rule="evenodd"
    d="M41.2673 84.0157C43.0455 85.1119 45.3153 84.2495 47.3144 84.9016C47.8156 85.9195 48.5726 86.3048 49.7272 86.0601C52.0103 85.522 49.7516 89.6154 51.4816 90.2343C54.3947 89.96 50.9318 85.2472 54.366 85.9145C55.8888 85.9668 54.9794 88.2713 55.5046 89.2867C57.0974 92.1745 57.9291 87.8858 57.3707 86.4174C56.7791 84.8207 64.2561 87.2414 65.4983 87.131C73.0498 87.7829 66.0569 89.0645 63.2437 90.5518C60.7347 92.2906 58.0383 93.8134 56.2552 96.427C54.862 97.1075 53.0061 96.7059 51.4842 97.0867C44.7654 97.7262 46 102.203 42.5373 95.4051C41.5093 95.2905 41.358 94.3958 40.9159 93.7387C39.6581 92.6276 37.8606 92.1792 36.4611 91.2436C34.4063 87.953 31.343 85.1983 27.4282 84.329C32.0013 83.369 36.6446 83.9589 41.2673 84.0157Z"
    fill="#30BDF4"
  />
<path
    fill-rule="evenodd"
    clip-rule="evenodd"
    d="M132.221 140.356C130.327 139.085 130.084 141.988 129.665 142.986C129.935 147.605 136.611 141.746 132.221 140.356ZM130.116 146.455C127.125 146.05 106.519 144.449 113.072 140.087C114.79 138.38 117.029 141.043 119.199 140.202C122.003 140.304 123.42 137.192 125.796 137.126C127.352 137.574 128.991 137.756 130.575 137.221C133.218 136.892 134.217 132.993 136.183 133.144C137.611 133.706 139.13 133.548 140.514 133.156C142.983 132.456 144.764 130.757 145.879 128.459C146.601 127.057 148.272 128.119 149.49 127.94C148.629 129.004 148.497 130.415 148.224 131.666C143.866 141.546 146.812 133.127 141.224 134.734C137.583 137.821 143.434 133.852 144.185 136.674C144.598 139.048 140.235 140.042 139.883 137.153C139.521 136.098 139.074 137.809 139.308 138.278C139.821 140.609 142.26 139.689 143.887 139.655C141.091 145.413 142.59 142.229 138.214 142.592C136.768 143.105 136.646 145.037 136.831 146.347C135.452 146.008 133.711 146.272 131.916 146.7C131.374 146.196 130.79 145.993 130.116 146.455Z"
    fill="#0341A8"
  />
<path
    fill-rule="evenodd"
    clip-rule="evenodd"
    d="M31.0555 128.567C26.0267 136.928 20.8054 145.192 16.1551 153.774C16.0133 154.462 15.4347 154.514 14.9829 154.903C14.7257 156.349 13.9197 154.237 13.0907 154.287C12.3314 153.861 12.194 152.224 11.0105 153.111C9.25897 153.578 7.05751 152.641 6.24618 151.01C6.05599 148.513 10.0211 146.55 11.36 144.385C19.336 135.843 27.6378 127.655 35.7506 119.27C40.6039 115.041 31.5618 126.863 31.0555 128.567Z"
    fill="#0341A8"
  />
<mask
    id="mask1_1265_41517"
    style="mask-type:alpha"
    maskUnits="userSpaceOnUse"
    x="109"
    y="118"
    width="41"
    height="24"
  >
<path d="M109.713 118.18H150V141.852H109.713V118.18Z" fill="white" />
</mask>
<g mask="url(#mask1_1265_41517)">
<path
      fill-rule="evenodd"
      clip-rule="evenodd"
      d="M134.695 127.601C134.78 126.645 134.344 122.786 132.801 124.864C131.338 126.846 134.89 132.781 134.695 127.601ZM145.275 123.661C144.871 122.32 145.183 120.221 143.334 119.89C141.067 121.207 144.677 127.371 145.275 123.661ZM125.068 131.522C124.692 130.161 124.479 127.816 122.577 127.985C119.179 129.619 124.618 138.485 125.068 131.522ZM149.536 127.982C148.321 128.156 146.635 127.106 145.918 128.501C144.291 132.086 140.088 134.488 136.206 133.186C135.545 132.928 135.241 133.125 134.876 133.686C130.933 139.79 128.011 136.128 124.058 137.76C122.753 139.123 121.116 139.94 119.191 140.243C115.265 140.581 114.281 138.007 111.109 141.848C108.245 141.95 110.474 140.106 111.732 139.311C113.553 137.921 110.398 136.539 110.708 134.755C110.76 132.221 112.777 136.052 113.499 136.762C114.389 135.557 115.01 134.088 114.726 132.564C112.803 128.118 112.053 133.263 110.91 133.335C108.527 132.16 113.333 127.362 115.423 130.711C117.898 132.945 114.096 136.645 115.612 138.246C117.772 139.143 121.156 138.398 122.828 136.683C123.729 135.373 121.086 134.483 120.742 133.158C118.672 130.12 121.305 123.993 125.077 127.568C128.575 130.331 123.962 135.817 127.559 135.805C130.084 136.266 132.566 134.261 133.53 132.331C132.78 130.503 130.748 129.053 130.899 126.693C130.578 120.998 136.691 121.33 136.421 126.989C137.167 128.419 134.751 131.318 137.101 131.401C139.546 132.293 145.299 129.134 143.954 126.831C139.373 125.39 140.371 115.365 145.652 118.949C146.112 120.378 146.825 122.043 146.83 123.699C146.006 128.174 151.611 123.74 149.536 127.982Z"
      fill="#30BDF4"
    />
</g>
<path
    fill-rule="evenodd"
    clip-rule="evenodd"
    d="M3.85246 89.5113C4.19073 90.5852 3.33973 93.5453 4.84968 93.6288C9.21402 93.4341 9.33356 93.125 9.06529 88.8274C8.83591 87.3206 6.20622 88.5056 5.06733 88.1313C3.67465 88.0645 3.73292 88.2285 3.85246 89.5113ZM9.20457 98.6378C8.55185 97.7823 9.98102 94.7368 8.43315 94.5719C7.18226 94.9315 4.94026 94.1213 4.26348 95.3409C4.71949 96.9453 3.44288 100.628 5.23461 101.117C7.1113 100.637 10.0017 101.559 9.20457 98.6378ZM5.04651 112.922C5.51425 114.347 4.36627 117.499 6.11313 117.735C7.27619 117.416 9.33847 117.986 9.9383 116.773C9.70533 114.874 9.97743 112.355 9.31322 110.654C7.18764 110.218 4.20748 109.905 5.04651 112.922ZM7.11657 109.406C10.2238 109.942 9.53602 108.234 9.37472 105.936C9.00558 104.888 10.0655 102.209 8.61586 102.144C7.41918 102.614 4.48927 101.643 4.57339 103.506C5.19716 105.728 3.36378 110.249 7.11657 109.406ZM13.4874 100.19C14.7009 99.7989 16.85 100.548 14.9067 101.623C13.8428 102.265 11.1656 101.118 10.9843 102.647C11.7101 106.64 9.32172 110.32 15.201 108.456C17.671 108.468 16.4395 112.33 17.2204 114.062C14.7644 115.938 16.982 110.154 15.1558 109.881C14.0623 110.312 11.5976 109.604 11.2629 110.84C11.8769 112.727 10.2123 117.396 12.9151 117.403C12.3934 118.2 11.3721 118.304 11.3065 119.455C10.8678 120.814 9.97624 119.876 10.1884 118.784C10.2407 117.925 5.4817 118.076 5.29528 118.763C5.12022 121.224 6.74348 124.83 3.65395 125.902C3.01929 113.489 3.53669 101.009 2.31823 88.6385C1.15923 85.2192 9.62971 87.0752 11.7767 86.3589C13.9482 86.7891 21.3259 84.5038 18.669 87.8593C16.0324 87.7809 13.4006 87.9652 10.7662 88.0516C9.54009 88.485 10.8111 91.0329 10.5074 92.1838C11.2268 93.831 14.6127 92.2239 16.2475 92.5369C16.9025 93.087 17.1405 93.9837 16.033 94.0384C14.5106 94.7049 11.508 93.5382 10.6701 94.9442C11.081 97.2074 9.77426 101.655 13.4874 100.19Z"
    fill="#151516"
  />
<path
    fill-rule="evenodd"
    clip-rule="evenodd"
    d="M26.5183 115.372C18.2951 124.464 10.4044 135.052 1.41838 143.061C1.24064 141.851 1.06397 140.643 0.887059 139.436C1.58633 138.88 0.00502777 138.816 0.685783 137.384C0.584846 135.425 -1.38838 131.7 1.8582 130.604C10.4961 126.227 17.7312 119.366 26.5183 115.372Z"
    fill="#0341A8"
  />
<path
    fill-rule="evenodd"
    clip-rule="evenodd"
    d="M44.923 153.769C48.7659 151.455 59.7388 132.683 61.8528 144.134C62.6722 146.985 65.5854 151.497 60.5514 151.637C60.1386 151.806 59.5903 151.917 59.9007 152.631C58.8709 154.205 57.3148 155.692 56.1228 157.209C55.0394 156.602 51.6 159.072 50.617 157.372C53.7145 154.57 56.0004 150.033 60.4353 149.37C62.0593 148.679 59.7428 146.001 59.7889 144.596C59.4368 143.913 59.8603 141.964 58.6836 142.255C57.5628 142.793 55.8432 143.19 55.9049 144.752C56.5779 147.87 55.7983 150.325 53.2618 152.293C51.5216 154.193 49.6227 155.959 48.2848 158.185C42.4686 158.91 39.6096 158.927 44.923 153.769Z"
    fill="#0341A8"
  />
<path
    fill-rule="evenodd"
    clip-rule="evenodd"
    d="M1.42993 143.095C10.0992 135.626 17.213 125.318 25.3492 116.887C32.9157 115.158 5.02239 140.566 3.56728 143.681C1.29222 144.813 3.55222 147.005 4.14744 148.499C5.58796 150.127 9.19309 143.817 10.7536 142.849C14.4891 138.824 18.0322 134.378 22.1941 130.854C22.3701 132.593 23.6931 130.034 24.6372 130.415C20.2036 135.057 15.746 139.676 11.3167 144.322C9.86805 146.823 4.01642 149.383 7.15054 152.29C4.14361 150.382 2.59681 146.432 1.42993 143.095Z"
    fill="#0D88DF"
  />
<path
    fill-rule="evenodd"
    clip-rule="evenodd"
    d="M10.1865 120.06C10.7958 120.297 11.127 119.892 11.2119 119.437C13.0803 116.307 17.0731 114.667 19.4885 111.733C20.407 112.13 21.0597 112.572 22.0842 112.766C22.116 113.925 24.6719 113.256 23.6968 114.377C16.4797 119.36 9.15404 124.527 1.67624 129.152C-0.169717 127.947 8.9247 121.702 10.1865 120.06Z"
    fill="#0341A8"
  />
<path
    fill-rule="evenodd"
    clip-rule="evenodd"
    d="M48.2269 158.14C50.1427 154.408 54.6174 152.187 56.0454 148.348C55.8663 145.701 55.2844 142.822 58.6374 142.182C59.822 141.88 59.382 143.854 59.7428 144.527C59.7076 145.927 62.0038 148.624 60.3913 149.309C54.6006 149.75 52.912 158.03 48.2269 158.14Z"
    fill="#0D88DF"
  />
<path
    fill-rule="evenodd"
    clip-rule="evenodd"
    d="M1.14138 128.75C3.15058 129.549 5.36915 126.372 7.30332 125.564C11.7227 122.487 16.1669 119.427 20.7114 116.542C21.0701 117.619 20.2561 117.925 19.4807 118.403C19.6189 120.185 15.9038 121.489 14.1198 122.7C9.74756 126.333 4.11094 128.575 0 132.271C0.131239 131.016 0.330123 129.783 1.14138 128.75Z"
    fill="#0D88DF"
  />
<path
    fill-rule="evenodd"
    clip-rule="evenodd"
    d="M104.099 80.5189C104.586 82.6667 97.5089 84.7094 95.7943 84.5563C93.8837 83.8598 92.8477 78.0839 95.2574 77.8049C96.5431 78.6028 95.8743 80.2075 96.4187 81.48C98.2282 83.4881 101.71 78.474 104.099 80.5189Z"
    fill="#0341A8"
  />
<path
    fill-rule="evenodd"
    clip-rule="evenodd"
    d="M58.2362 157.1C62.2507 150.924 63.1728 155.949 70.189 155.233C74.5562 155.88 59.3606 157.112 58.2362 157.1Z"
    fill="#0341A8"
  />
<path
    fill-rule="evenodd"
    clip-rule="evenodd"
    d="M94.5303 155.15C94.2924 153.769 94.3422 151.094 92.3438 151.409C91.3925 152.056 93.2417 156.842 90.5974 154.512C90.7869 153.054 89.5345 150.362 91.3117 149.77C92.8423 149.631 94.9127 149.465 95.5153 151.247C96.1691 153.272 97.675 155.152 94.5303 155.15Z"
    fill="#0341A8"
  />
<path
    fill-rule="evenodd"
    clip-rule="evenodd"
    d="M143.051 141.891C142.858 140.921 143.604 140.527 143.889 139.738C141.853 140.097 138.657 140.275 139.307 137.184C139.485 136.841 139.784 136.719 139.858 137.22C140.213 140.128 144.606 139.126 144.189 136.739C143.432 134.981 141.461 135.557 140.134 136.283C140.079 134.152 143.763 133.854 144.657 135.696C144.969 136.117 145.067 136.768 145.721 136.698C145.06 138.394 144.305 140.699 143.051 141.891Z"
    fill="#30BDF4"
  />
<path
    fill-rule="evenodd"
    clip-rule="evenodd"
    d="M149.853 125.87C147.416 126.129 146.67 126.421 146.805 123.761C146.776 122.078 146.137 120.56 145.591 119.012C148 120.483 150.151 122.888 149.853 125.87Z"
    fill="#0341A8"
  />
<path
    fill-rule="evenodd"
    clip-rule="evenodd"
    d="M102.433 79.8542C94.2003 83.5011 98.0291 82.6102 95.2838 77.8049C97.7702 78.0849 100.075 79.0902 102.433 79.8542Z"
    fill="#0D88DF"
  />
<path
    fill-rule="evenodd"
    clip-rule="evenodd"
    d="M136.873 146.424C136.252 144.002 138.079 141.517 140.59 142.829C141.795 143.711 141.973 142.941 142.861 142.151C142.772 143.667 141.308 144.844 140.103 143.688C138.212 142.719 137.159 145.096 138.681 146.072C138.171 146.678 137.48 146.331 136.873 146.424Z"
    fill="#30BDF4"
  />
<path
    fill-rule="evenodd"
    clip-rule="evenodd"
    d="M133.593 113.922C139.044 114.116 127.307 118.339 130.774 112.123C132.553 112.551 129.913 115.339 133.593 113.922Z"
    fill="#30BDF4"
  />
<path
    fill-rule="evenodd"
    clip-rule="evenodd"
    d="M138.642 146.051C137.135 145.078 138.178 142.713 140.05 143.677C142.157 144.385 139.888 145.911 138.642 146.051Z"
    fill="#0341A8"
  />
<path
    fill-rule="evenodd"
    clip-rule="evenodd"
    d="M28.4681 158.416C30.1087 156.684 30.1341 159.901 31.8057 157.75C32.9253 158.878 34.7929 158.537 36.191 158.14C40.0023 159.337 29.947 158.537 28.4681 158.416Z"
    fill="#0D88DF"
  />
<path
    fill-rule="evenodd"
    clip-rule="evenodd"
    d="M42.186 157.194C41.4449 158.359 41.8304 158.183 42.8973 158.58C41.4632 158.567 40.0034 158.85 38.6075 158.42C40.683 158.607 40.781 154.606 42.186 157.194Z"
    fill="#0D88DF"
  />
<path
    fill-rule="evenodd"
    clip-rule="evenodd"
    d="M132.591 146.704C133.649 145.769 135.16 146.84 136.058 145.921C136.494 147.199 133.485 146.781 132.591 146.704Z"
    fill="#30BDF4"
  />
<path
    fill-rule="evenodd"
    clip-rule="evenodd"
    d="M130.131 146.436C130.809 145.98 131.397 146.18 131.941 146.678C130.534 146.555 130.473 147.973 129.342 148.52C129.512 147.681 130.347 147.355 130.131 146.436Z"
    fill="#30BDF4"
  />
<path
    fill-rule="evenodd"
    clip-rule="evenodd"
    d="M51.6067 157.874C52.4735 157.746 53.3404 157.618 54.2065 157.49C53.4343 158.108 52.48 157.782 51.6067 157.874Z"
    fill="#0D88DF"
  />
<path
    fill-rule="evenodd"
    clip-rule="evenodd"
    d="M59.2762 157.185C59.6664 157.113 60.0566 157.041 60.4461 156.97C60.0839 157.199 59.7511 157.588 59.2762 157.185Z"
    fill="#0D88DF"
  />
<path
    fill-rule="evenodd"
    clip-rule="evenodd"
    d="M54.9865 157.337C55.1327 156.709 55.2927 157.003 55.6364 157.36C55.4195 157.352 55.203 157.345 54.9865 157.337Z"
    fill="#0D88DF"
  />
<path
    fill-rule="evenodd"
    clip-rule="evenodd"
    d="M63.8259 156.659C64.1726 156.65 64.5196 156.64 64.8658 156.63C64.5188 156.64 64.1724 156.65 63.8259 156.659Z"
    fill="#0D88DF"
  />
<path
    fill-rule="evenodd"
    clip-rule="evenodd"
    d="M62.396 156.826C62.6996 156.792 63.0031 156.757 63.3059 156.724C63.0021 156.758 62.6991 156.792 62.396 156.826Z"
    fill="#0D88DF"
  />
<path
    fill-rule="evenodd"
    clip-rule="evenodd"
    d="M145.721 119.012C145.374 118.796 145.028 118.579 144.681 118.362C145.027 118.579 145.374 118.796 145.721 119.012Z"
    fill="#0341A8"
  />
<path
    fill-rule="evenodd"
    clip-rule="evenodd"
    d="M0.649963 138.771C0.984618 138.883 1.46762 138.932 0.92685 139.421C0.83475 139.204 0.742298 138.987 0.649963 138.771Z"
    fill="#0D88DF"
  />
<mask
    id="mask2_1265_41517"
    style="mask-type:alpha"
    maskUnits="userSpaceOnUse"
    x="0"
    y="133"
    width="1"
    height="2"
  >
<path d="M0 133.468H0.122738V134.148H0V133.468Z" fill="white" />
</mask>
<g mask="url(#mask2_1265_41517)">
<path
      fill-rule="evenodd"
      clip-rule="evenodd"
      d="M0.000183105 133.468C0.0386606 133.695 0.0772681 133.921 0.115616 134.148C0.0770081 133.921 0.0385306 133.694 0.000183105 133.468Z"
      fill="#0D88DF"
    />
</g>
<path
    fill-rule="evenodd"
    clip-rule="evenodd"
    d="M66.4257 156.426C66.6859 156.398 66.9461 156.371 67.2057 156.344C66.9452 156.371 66.6854 156.399 66.4257 156.426Z"
    fill="#0D88DF"
  />
<path
    fill-rule="evenodd"
    clip-rule="evenodd"
    d="M0.649937 137.341C0.61034 137.558 0.570744 137.775 0.531148 137.991C0.381439 137.713 0.264744 137.446 0.649937 137.341Z"
    fill="#0D88DF"
  />
<path
    fill-rule="evenodd"
    clip-rule="evenodd"
    d="M44.1971 158.464C44.3706 158.464 44.5442 158.465 44.7171 158.466C44.5433 158.465 44.3702 158.464 44.1971 158.464Z"
    fill="#0D88DF"
  />
<path
    fill-rule="evenodd"
    clip-rule="evenodd"
    d="M0.143738 135.651C0.178056 135.781 0.212113 135.911 0.246301 136.041C0.211983 135.911 0.177926 135.781 0.143738 135.651Z"
    fill="#0D88DF"
  />
<path
    fill-rule="evenodd"
    clip-rule="evenodd"
    d="M46.407 158.387C46.5372 158.352 46.6674 158.317 46.797 158.282C46.6665 158.317 46.5368 158.352 46.407 158.387Z"
    fill="#0D88DF"
  />
<path
    fill-rule="evenodd"
    clip-rule="evenodd"
    d="M68.3756 156.134C68.5058 156.128 68.6359 156.122 68.7656 156.115C68.6352 156.122 68.5054 156.128 68.3756 156.134Z"
    fill="#0D88DF"
  />
<path
    fill-rule="evenodd"
    clip-rule="evenodd"
    d="M0.848872 136.951C0.845882 137.081 0.842762 137.212 0.840942 137.341C0.844582 137.21 0.846662 137.081 0.848872 136.951Z"
    fill="#0D88DF"
  />
<path
    fill-rule="evenodd"
    clip-rule="evenodd"
    d="M77.0267 118.716C72.3069 125.087 63.3823 122.804 56.5774 121.867C54.848 121.818 41.0849 120.418 42.6276 118.169C46.6696 113.629 47.3169 107.198 45.8259 101.383C46.1818 100.471 54.8716 97.9261 54.497 99.6553C49.33 120.935 69.1015 125.182 69.9359 108.425C69.5364 102.83 65.0276 98.0192 59.5553 97.0106C58.4655 95.9508 65.2515 91.1827 66.9636 91.2168C69.6201 89.8987 68.292 93.5458 69.5189 94.8146C71.2958 100.091 75.2097 104.559 79.9878 107.42C81.8162 108.447 79.6525 109.317 79.7673 110.372C78.6691 113.077 77.9861 115.918 77.0267 118.716Z"
    fill="#30BDF4"
  />
<path
    fill-rule="evenodd"
    clip-rule="evenodd"
    d="M22.1834 130.86C18.029 134.384 14.4923 138.826 10.7634 142.849C9.24564 143.811 5.50559 150.18 4.1702 148.499C3.56617 147.015 1.32808 144.805 3.58956 143.682C8.56906 138.022 13.6745 132.467 18.9607 127.069C22.5006 123.495 25.5473 119.504 28.8779 115.762C30.6349 115.928 32.4223 116.792 33.9537 116.908C36.695 117.449 23.0857 128.007 22.1834 130.86Z"
    fill="#0341A8"
  />
<path
    fill-rule="evenodd"
    clip-rule="evenodd"
    d="M31.5635 133.848C31.9157 133.401 32.9973 132.971 32.309 132.643C31.9043 133.05 30.9859 133.138 31.5635 133.848ZM44.3627 120.007C44.9848 120.222 46.0805 119.881 46.277 120.65C43.7891 123.104 41.6426 125.775 39.1866 128.256C35.0205 133.511 30.9563 139.095 26.6087 144.367C23.9032 148.261 20.2853 153.762 17.6231 156.32C16.5748 155.914 16.3751 154.641 17.6846 154.48C17.8835 152.237 19.8944 150.132 21.327 148.335C26.1886 139.827 31.5625 131.184 36.8149 122.744C41.0105 115.387 39.0491 120.561 44.3627 120.007Z"
    fill="#0341A8"
  />
<path
    fill-rule="evenodd"
    clip-rule="evenodd"
    d="M25.6574 157.75C23.9103 157.561 18.7312 157.31 19.4338 155.919C23.2508 151.905 26.2529 147.277 29.7811 143.037C32.3597 140.63 47.7563 118.659 49.6567 121.627C46.2282 127.537 40.3987 132.659 36.9183 138.85C32.3813 144.626 29.6526 151.763 25.6574 157.75Z"
    fill="#0341A8"
  />
<path
    fill-rule="evenodd"
    clip-rule="evenodd"
    d="M39.1091 119.204C30.9319 133.486 27.533 131.687 37.5617 118.292C38.3438 117.047 35.6996 118.05 35.3296 116.935C33.6707 117.248 29.5951 115.98 30.9489 113.498C31.586 111.259 43.7408 98.4446 43.6277 104.506C43.8929 107.199 43.9846 109.396 43.0315 112.11C42.4338 114.842 39.2803 116.31 39.1091 119.204Z"
    fill="#30BDF4"
  />
<path
    fill-rule="evenodd"
    clip-rule="evenodd"
    d="M61.1302 116.274C56.1925 116.646 53.4547 98.6193 58.8498 99.1344C63.2863 99.76 67.1925 103.949 66.9335 108.716C66.6999 110.375 67.4902 112.463 65.618 113.456C64.2765 115.289 63.3466 116.39 61.1302 116.274Z"
    fill="#30BDF4"
  />
<path
    fill-rule="evenodd"
    clip-rule="evenodd"
    d="M81.7617 105.103C76.1203 102.92 72.241 96.9527 70.9754 91.0764C72.0704 88.9224 77.9556 91.1017 79.9506 91.9639C85.3169 94.4728 83.6703 100.823 81.7617 105.103Z"
    fill="#30BDF4"
  />
<path
    fill-rule="evenodd"
    clip-rule="evenodd"
    d="M35.6154 94.4886C35.8028 101.005 24.4714 108.726 20.0251 102.298C19.6855 97.1696 33.0542 90.1767 35.6154 94.4886Z"
    fill="#30BDF4"
  />
<path
    fill-rule="evenodd"
    clip-rule="evenodd"
    d="M91.7155 105.83C91.3051 105.659 90.7002 105.179 90.4755 105.861C90.3362 106.598 91.1534 106.655 91.0779 107.501C93.1583 112.187 92.9185 112.263 97.0823 109.147C97.4438 107.697 95.8449 106.152 95.4577 104.716C94.656 103.409 92.8273 105.617 91.7155 105.83ZM99.3126 108.709C99.4077 111.016 92.5887 114.831 91.1758 112.361C90.434 110.254 87.7487 106.719 89.2154 104.822C96.6875 101.799 95.9116 100.522 99.3126 108.709Z"
    fill="#0341A8"
  />
<path
    fill-rule="evenodd"
    clip-rule="evenodd"
    d="M69.3877 134.712C70.3333 133.468 74.1683 132.867 72.8723 130.945C71.9335 130.185 71.4166 127.388 69.9438 128.32C64.7365 131.116 65.4028 130.776 69.3877 134.712ZM72.7878 134.901C68.1962 137.889 66.3034 134.507 64.4758 130.486C65.1795 128.337 68.9972 127.588 70.7753 126.014C72.1898 125.058 72.6746 127.183 73.3442 128.027C73.7533 129.237 76.1688 130.385 75.2211 131.631C75.5625 132.338 75.9877 132.435 75.2414 133.107C74.5513 133.575 73.5844 135.558 72.7878 134.901Z"
    fill="#0341A8"
  />
<path
    fill-rule="evenodd"
    clip-rule="evenodd"
    d="M89.9333 133.917C88.8237 134.568 86.7988 134.377 86.6713 135.717C87.166 137.209 87.3841 139.078 88.4133 140.283C89.1742 140.771 89.8511 139.67 90.6811 139.729C93.0051 138.604 91.0508 135.278 89.9333 133.917ZM94.1139 138.624C93.8015 141.39 89.8141 141.495 87.6246 141.891C85.4439 140.989 85.8993 137.048 85.2745 134.977C85.293 133.156 88.3822 133.218 89.6847 132.458C92.6781 131.837 93.366 136.505 94.1139 138.624Z"
    fill="#0341A8"
  />
<path
    fill-rule="evenodd"
    clip-rule="evenodd"
    d="M105.863 99.2016C105.255 101.384 108.194 99.9679 109.308 99.7897C110.585 98.8587 109.061 96.439 109.109 95.0266C108.774 93.7623 107.189 94.8082 106.298 94.8251C105.677 96.0496 106.07 97.8156 105.863 99.2016ZM111.435 100.467C106.558 103.945 102.535 102.749 104.277 96.1726C104.291 95.1055 103.861 93.5112 105.346 93.3684C107.008 93.4547 110.111 91.5241 110.503 94.0974C111.006 96.7424 111.813 98.8771 111.435 100.467Z"
    fill="#0341A8"
  />
<path
    fill-rule="evenodd"
    clip-rule="evenodd"
    d="M86.6142 123.55C87.7611 123.015 89.7193 123.39 89.9769 122.177C89.5973 121.177 90.0933 118.941 88.7191 118.803C87.6598 119.17 85.57 118.672 85.1827 119.901C85.5903 120.974 85.4007 123.154 86.6142 123.55ZM84.1305 119.856C81.7921 116.696 87.6088 117.749 89.4684 117.192C91.8869 117.512 91.3781 120.831 92.3208 122.566C93.2176 124.666 88.0065 125.471 86.8659 124.594C86.194 124.617 86.4471 126.017 85.5052 125.894C84.2209 124.986 83.882 121.083 84.1305 119.856Z"
    fill="#0341A8"
  />
<path
    fill-rule="evenodd"
    clip-rule="evenodd"
    d="M104.991 144.587C99.9512 145.687 100.753 145.856 101.956 150.445C103.04 151.063 104.703 149.878 105.95 149.768C107.07 148.723 105.454 145.919 104.991 144.587ZM107.405 145.756C107.456 147.49 109.596 150.047 107.482 151.191C103.979 153.174 99.261 151.585 99.7368 147.03C99.7321 144.724 99.736 144.735 102.006 144.055C104.671 143.109 107.125 141.79 107.405 145.756Z"
    fill="#0341A8"
  />
<path
    fill-rule="evenodd"
    clip-rule="evenodd"
    d="M72.9253 147.038C73.8126 143.049 71.2232 141.97 76.6456 141.681C79.7041 140.78 80.1524 143.431 80.3817 145.81C80.3889 146.889 81.5653 148.01 80.6128 148.882C79.7863 149.989 73.645 151.47 75.5536 148.98C76.533 148.324 78.7517 148.644 78.696 147.034C78.36 145.844 78.7917 143.855 77.7338 143.123C76.6196 143.331 74.7115 142.771 74.4678 144.301C74.4631 145.85 73.8872 147.595 74.4617 149.057C74.7221 149.461 74.6223 149.808 74.2281 149.902C72.6265 150.05 73.2173 147.829 72.9253 147.038Z"
    fill="#0341A8"
  />
<path
    fill-rule="evenodd"
    clip-rule="evenodd"
    d="M91.9541 89.4062C86.327 89.2681 88.5137 90.4544 89.975 94.1945C90.6551 95.8697 95.4534 92.9325 91.9541 89.4062ZM94.2274 94.8034C92.6759 95.2289 91.0174 96.7984 89.45 96.4819C88.2359 94.86 84.9001 88.9889 88.3619 88.3993C92.7162 87.5012 93.796 87.5492 95.0524 92.1664C95.5682 94.2181 93.9344 93.2053 94.2274 94.8034Z"
    fill="#0341A8"
  />
<path
    fill-rule="evenodd"
    clip-rule="evenodd"
    d="M71.4954 79.8394C74.0411 77.4314 74.5095 86.8053 78.1024 82.3748C80.9907 80.3509 74.9854 77.5148 76.6376 75.3351C78.3639 76.5451 82.1934 80.8954 79.5761 83.3371C76.0462 87.6593 72.8399 83.6776 71.4954 79.8394Z"
    fill="#0341A8"
  />
<path
    fill-rule="evenodd"
    clip-rule="evenodd"
    d="M106.455 110.579C104.891 111.433 104.165 110.034 105.938 109.57C107.484 108.757 109.645 107.173 110.881 109.25C112.439 111.271 115.718 115.039 111.658 116.276C110.95 116.482 110.182 116.508 109.437 116.542C106.779 115.035 113.635 115.212 111.295 112.597C109.757 109.989 109.431 109.006 106.455 110.579Z"
    fill="#0341A8"
  />
<path
    fill-rule="evenodd"
    clip-rule="evenodd"
    d="M83.2724 99.1568C84.8938 95.5296 88.7161 105.178 86.0392 105.737C84.7358 106.057 81.1502 107.925 81.6895 105.22C81.6898 105.22 81.6987 105.195 81.6983 105.195C86.9328 105.284 84.4885 102.301 83.2724 99.1568Z"
    fill="#0341A8"
  />
<path
    fill-rule="evenodd"
    clip-rule="evenodd"
    d="M52.2566 135.598C50.2575 137.588 48.2587 139.577 46.2599 141.566C44.6461 141.627 44.6461 141.627 44.6525 142.801C43.3873 142.786 43.9095 142.246 43.9372 141.384C44.6073 140.576 45.1219 139.475 45.9803 139.02C48.2926 138.208 49.8234 132.981 52.2566 135.598Z"
    fill="#30BDF4"
  />
<path
    fill-rule="evenodd"
    clip-rule="evenodd"
    d="M76.955 118.759C77.4635 117.27 78.0031 115.792 78.3337 114.25C79.5865 113.663 79.7598 113.336 79.4861 112.117C79.12 109.402 81.0228 110.782 81.9125 112.204C82.6863 114.467 79.2116 115.723 78.9846 117.965C78.4999 119.096 78.1579 119.225 76.955 118.759Z"
    fill="#0341A8"
  />
<path
    fill-rule="evenodd"
    clip-rule="evenodd"
    d="M118.886 150.503C118.195 146.987 122.522 146.899 124.258 149.043C125.463 150.307 123.665 151.55 122.853 150.056C122.391 149.126 120.922 148.521 120.529 149.579C121.147 150.246 120.127 150.889 120.518 151.535C119.65 152.45 118.631 151.474 118.886 150.503Z"
    fill="#0341A8"
  />
<path
    fill-rule="evenodd"
    clip-rule="evenodd"
    d="M104.575 111.733C105.426 112.263 111.292 119.612 107.872 118.002C106.966 115.985 104.055 113.987 104.575 111.733Z"
    fill="#0341A8"
  />
<path
    fill-rule="evenodd"
    clip-rule="evenodd"
    d="M42.1259 157.1C39.0456 155.373 47.9714 149.042 44.3624 154.052C43.1104 154.089 43.2935 155.188 42.6697 155.939C41.9523 155.958 42.2768 156.664 42.1259 157.1Z"
    fill="#30BDF4"
  />
<path
    fill-rule="evenodd"
    clip-rule="evenodd"
    d="M106.487 110.574C108.094 109.747 107.471 112.807 106.813 113.163C106.064 112.65 106.39 111.377 106.487 110.574Z"
    fill="#30BDF4"
  />
<path
    fill-rule="evenodd"
    clip-rule="evenodd"
    d="M102.433 132.872C102.524 131.682 103.394 131.889 104.383 131.905C103.925 132.333 102.516 134.434 102.433 132.872Z"
    fill="#30BDF4"
  />
<path
    fill-rule="evenodd"
    clip-rule="evenodd"
    d="M76.4739 127.722C77.1024 127.759 77.7411 128.155 77.865 128.603C77.4866 129.403 75.0835 128.352 76.4739 127.722Z"
    fill="#0341A8"
  />
<path
    fill-rule="evenodd"
    clip-rule="evenodd"
    d="M94.2072 94.8299C93.6341 93.2275 95.9071 93.7192 95.4932 94.7232C95.2106 95.1199 94.6768 95.261 94.2072 94.8299Z"
    fill="#30BDF4"
  />
<path
    fill-rule="evenodd"
    clip-rule="evenodd"
    d="M107.373 145.763C108.067 145.175 108.616 144.364 109.443 143.971C109.566 145.251 108.49 145.94 107.373 145.763Z"
    fill="#30BDF4"
  />
<path
    fill-rule="evenodd"
    clip-rule="evenodd"
    d="M117.74 106.558C117.924 107.2 118.108 107.841 118.292 108.483C118.032 107.846 116.181 106.322 117.74 106.558Z"
    fill="#30BDF4"
  />
<path
    fill-rule="evenodd"
    clip-rule="evenodd"
    d="M101.882 89.1141C102.282 89.6657 102.898 89.8471 102.34 90.4141C101.754 89.9383 101.101 89.9958 101.882 89.1141Z"
    fill="#30BDF4"
  />
<path
    fill-rule="evenodd"
    clip-rule="evenodd"
    d="M78.6449 131.995C79.1815 131.536 79.5698 130.986 79.9448 131.718C79.7712 132.452 79.39 132.36 78.6449 131.995Z"
    fill="#0341A8"
  />
<path
    fill-rule="evenodd"
    clip-rule="evenodd"
    d="M111.373 100.553C111.027 99.7713 110.971 99.4914 111.921 99.5149C111.913 99.9545 112.016 100.451 111.373 100.553Z"
    fill="#30BDF4"
  />
<path
    fill-rule="evenodd"
    clip-rule="evenodd"
    d="M116.515 150.6C116.109 150.297 115.602 149.986 116.295 149.82C116.965 150.041 117.352 150.153 116.515 150.6Z"
    fill="#30BDF4"
  />
<path
    fill-rule="evenodd"
    clip-rule="evenodd"
    d="M118.76 109.653C119.271 110.738 118.633 110.438 117.772 110.233C118.174 109.997 118.467 109.825 118.76 109.653Z"
    fill="#30BDF4"
  />
<path
    fill-rule="evenodd"
    clip-rule="evenodd"
    d="M52.3951 134.481C52.0009 134.124 52.5449 134.017 52.8248 133.831C53.381 134.06 52.7001 134.254 52.3951 134.481Z"
    fill="#30BDF4"
  />
<path
    fill-rule="evenodd"
    clip-rule="evenodd"
    d="M118.422 108.613C118.509 108.786 118.596 108.96 118.682 109.133C118.596 108.959 118.509 108.786 118.422 108.613Z"
    fill="#30BDF4"
  />
<path
    fill-rule="evenodd"
    clip-rule="evenodd"
    d="M61.5857 4.93594C61.5661 5.84467 61.2877 6.75729 62.006 7.42306C58.8851 10.972 56.0507 4.61592 58.5338 6.36812C59.1784 6.63174 61.2587 5.31649 60.9233 4.62017C59.8581 3.46304 61.6522 4.02721 61.5857 4.93594Z"
    fill="#0341A8"
  />
<path
    fill-rule="evenodd"
    clip-rule="evenodd"
    d="M34.0932 69.2574C33.4327 69.9441 33.1292 73.6247 34.666 72.4858C35.0472 72.9891 34.7657 74.6213 34.0998 74.0427C33.1803 73.8117 31.7216 65.5345 33.3892 68.1904C33.2172 69.2901 33.3039 69.3193 34.0932 69.2574Z"
    fill="#30BDF4"
  />
<path
    fill-rule="evenodd"
    clip-rule="evenodd"
    d="M34.4527 63.073C33.5547 61.7867 35.457 61.0578 35.5536 61.9503C35.0299 62.8659 36.1407 62.3167 36.2676 62.9209C36.1375 63.5448 35.3753 63.2394 35.1022 63.7406C35.3638 64.1057 36.0744 64.0536 36.2313 64.4748C36.2313 64.6179 36.0384 64.879 35.9195 64.8847C35.1056 64.9334 34.8705 67.0467 34.1889 65.2586C34.1329 63.6176 36.0787 65.896 34.4527 63.073Z"
    fill="#0341A8"
  />
<path
    fill-rule="evenodd"
    clip-rule="evenodd"
    d="M46.2281 27.9754C44.7095 29.182 44.6593 23.6503 46.537 24.302C45.6375 25.2695 46.6848 26.2464 46.2281 27.9754Z"
    fill="#30BDF4"
  />
<path
    fill-rule="evenodd"
    clip-rule="evenodd"
    d="M37.5453 55.565C37.8136 57.3351 35.5782 55.8847 35.1117 57.2662C33.978 56.3405 36.6746 55.0464 37.5453 55.565Z"
    fill="#30BDF4"
  />
<path
    fill-rule="evenodd"
    clip-rule="evenodd"
    d="M48.1756 12.7763C48.2885 12.9055 48.5141 13.0542 48.4958 13.161C48.2291 14.3457 49.762 14.5518 49.0988 15.6689C48.1376 15.3765 48.7933 14.9667 47.7334 15.1026C47.771 14.4418 48.1832 13.6571 47.1869 13.3436C47.1808 12.9985 47.7315 12.4568 48.1756 12.7763Z"
    fill="#30BDF4"
  />
<path
    fill-rule="evenodd"
    clip-rule="evenodd"
    d="M53.2624 21.0005C54.759 20.4732 52.6333 21.65 53.6717 22.3744C54.3296 24.2228 51.0107 22.5449 52.2949 21.6886C53.0167 22.1891 52.7087 21.1408 53.2624 21.0005Z"
    fill="#30BDF4"
  />
<path
    fill-rule="evenodd"
    clip-rule="evenodd"
    d="M51.7366 38.1188C51.5716 41.2178 50.4299 37.335 48.8768 37.7064C49.7865 35.9735 50.6066 38.6722 51.7366 38.1188Z"
    fill="#30BDF4"
  />
<path
    fill-rule="evenodd"
    clip-rule="evenodd"
    d="M53.0186 14.239C53.2248 13.3732 52.1375 13.328 52.1266 12.7742C55.7235 11.6819 55.1606 11.9706 53.0186 14.239Z"
    fill="#30BDF4"
  />
<path
    fill-rule="evenodd"
    clip-rule="evenodd"
    d="M34.8139 67.7041C34.9283 68.8425 35.6632 69.2081 34.1877 69.2255C34.2256 68.4793 34.0807 65.7578 34.8139 67.7041Z"
    fill="#30BDF4"
  />
<path
    fill-rule="evenodd"
    clip-rule="evenodd"
    d="M44.4704 33.2785C46.3444 30.9141 46.4351 35.3611 45.1753 33.5532C44.9508 33.4675 44.3618 33.8056 44.4704 33.2785Z"
    fill="#30BDF4"
  />
<path
    fill-rule="evenodd"
    clip-rule="evenodd"
    d="M55.867 7.47949C56.5887 8.02721 56.7589 7.05024 57.0663 8.27148C55.8166 9.19908 54.9987 9.25861 55.867 7.47949Z"
    fill="#30BDF4"
  />
<path
    fill-rule="evenodd"
    clip-rule="evenodd"
    d="M46.537 36.5976C45.5741 36.4795 45.6257 35.3964 45.6283 34.7549C46.7877 33.4598 46.4455 35.9574 46.537 36.5976Z"
    fill="#30BDF4"
  />
<path
    fill-rule="evenodd"
    clip-rule="evenodd"
    d="M51.2984 19.0487C51.0584 18.6067 50.0971 17.9244 50.3483 17.4995C51.323 17.3921 52.0441 18.1103 51.2984 19.0487Z"
    fill="#0341A8"
  />
<path
    fill-rule="evenodd"
    clip-rule="evenodd"
    d="M48.8032 17.3982C48.1631 17.5124 47.6015 17.6317 47.1869 16.9916C47.8405 16.5344 49.6011 16.2137 48.8032 17.3982Z"
    fill="#0341A8"
  />
<path
    fill-rule="evenodd"
    clip-rule="evenodd"
    d="M36.0076 80.7235C36.3627 80.7164 36.9209 80.4639 37.0476 81.0633C36.885 82.258 36.0288 81.5711 36.0076 80.7235Z"
    fill="#30BDF4"
  />
<path
    fill-rule="evenodd"
    clip-rule="evenodd"
    d="M34.9888 58.1762C36.4487 58.8214 33.0556 59.6594 33.7672 58.5319C34.1324 57.9402 34.5767 58.8651 34.9888 58.1762Z"
    fill="#30BDF4"
  />
<path
    fill-rule="evenodd"
    clip-rule="evenodd"
    d="M50.8955 15.6689C51.312 15.8224 51.658 16.0837 51.9966 16.367C51.1837 16.3784 50.2907 16.7864 50.8955 15.6689Z"
    fill="#30BDF4"
  />
<path
    fill-rule="evenodd"
    clip-rule="evenodd"
    d="M34.8135 67.7955C34.3741 66.7331 35.4523 66.1999 35.351 67.6052C35.3545 67.6586 35.0016 67.7316 34.8135 67.7955Z"
    fill="#0341A8"
  />
<path
    fill-rule="evenodd"
    clip-rule="evenodd"
    d="M48.7336 25.1584C47.7921 24.3176 49.8234 23.8258 50.1768 24.7379C49.6118 25.0381 48.9866 24.3125 48.7336 25.1584Z"
    fill="#30BDF4"
  />
<path
    fill-rule="evenodd"
    clip-rule="evenodd"
    d="M51.6066 20.9677C51.0113 21.4203 50.7933 20.8105 50.4367 20.4564C51.133 19.86 51.3275 20.5199 51.6066 20.9677Z"
    fill="#30BDF4"
  />
<path
    fill-rule="evenodd"
    clip-rule="evenodd"
    d="M50.6934 38.4175C50.7174 39.0104 50.6167 39.5151 50.2567 39.9774C49.7473 38.9354 49.7474 38.9354 50.6934 38.4175Z"
    fill="#0341A8"
  />
<path
    fill-rule="evenodd"
    clip-rule="evenodd"
    d="M60.6133 5.13966C59.6303 4.52499 60.1081 3.46301 60.8171 4.60777C61.1298 4.96309 60.8956 5.05701 60.6133 5.13966Z"
    fill="#30BDF4"
  />
<path
    fill-rule="evenodd"
    clip-rule="evenodd"
    d="M44.4435 16.3189C44.4807 16.7109 45.1232 17.3966 44.7079 17.6188C44.6714 17.2219 44.0832 16.5785 44.4435 16.3189Z"
    fill="#30BDF4"
  />
<path
    fill-rule="evenodd"
    clip-rule="evenodd"
    d="M43.1572 15.1489C43.1929 14.9755 43.2288 14.8022 43.2646 14.629C43.606 14.9977 43.7124 15.1111 43.1572 15.1489Z"
    fill="#0341A8"
  />
<path
    fill-rule="evenodd"
    clip-rule="evenodd"
    d="M33.0768 62.3359C33.1872 62.4659 33.2975 62.5957 33.4079 62.7256C33.0265 62.7313 32.9446 62.666 33.0768 62.3359Z"
    fill="#0341A8"
  />
<path
    fill-rule="evenodd"
    clip-rule="evenodd"
    d="M46.017 34.2903C45.9173 34.4095 45.8177 34.5287 45.7179 34.6477C45.4212 34.4995 45.9396 33.822 46.017 34.2903Z"
    fill="#0341A8"
  />
<path
    fill-rule="evenodd"
    clip-rule="evenodd"
    d="M43.0272 16.0589C43.043 15.9284 43.0587 15.798 43.0764 15.6689C43.4447 15.8065 43.2663 15.8873 43.0272 16.0589Z"
    fill="#0341A8"
  />
<path
    fill-rule="evenodd"
    clip-rule="evenodd"
    d="M103.433 129.563C103.937 129.165 104.234 128.807 103.567 128.574C102.945 128.754 102.96 129.072 103.433 129.563ZM103.193 131.881C102.142 131.04 97.2304 126.858 99.5292 126.406C100.602 126.115 102.566 123.714 103.313 125.23C105.125 129.871 108.554 127.949 103.193 131.881Z"
    fill="#0D88DF"
  />
<path
    fill-rule="evenodd"
    clip-rule="evenodd"
    d="M116.266 120.151C116.606 125.223 121.156 117.994 116.578 118.588C116.121 118.642 116.102 118.264 116.445 118.032C119.269 116.861 120.512 121.453 117.9 122.57C114.655 124.004 115.819 117.611 116.266 120.151Z"
    fill="#30BDF4"
  />
<path
    fill-rule="evenodd"
    clip-rule="evenodd"
    d="M123.199 114.596C122.899 115.896 124.606 115.883 124.577 114.839C124.591 113.92 123.431 113.981 123.199 114.596ZM122.192 115.055C122.395 112.619 125.545 112.798 125.572 115.04C125.5 117.18 122.236 117.248 122.192 115.055Z"
    fill="#0D88DF"
  />
<path
    fill-rule="evenodd"
    clip-rule="evenodd"
    d="M127.171 119.662C129.862 122.758 122.623 123.354 125.466 119.998C125.532 119.97 125.779 120.148 125.776 120.224C125.332 122.744 127.084 120.908 127.171 119.662Z"
    fill="#30BDF4"
  />
<path
    fill-rule="evenodd"
    clip-rule="evenodd"
    d="M127.252 119.613C127.215 119.599 127.178 119.586 127.142 119.573C127.179 119.584 127.223 119.645 127.252 119.613Z"
    fill="#30BDF4"
  />
<path
    fill-rule="evenodd"
    clip-rule="evenodd"
    d="M43.881 141.371C43.8512 142.245 43.3316 142.758 44.5871 142.795C43.3968 144.588 41.5959 145.725 40.2743 147.409C38.8791 148.169 29.4062 160.709 29.9181 156.701C32.5854 154.113 36.7473 146.812 39.8729 147.058C39.6368 144.901 42.2126 143.348 43.881 141.371Z"
    fill="#0D88DF"
  />
<path
    fill-rule="evenodd"
    clip-rule="evenodd"
    d="M39.6642 145.921C40.3495 146.149 40.2237 146.68 39.9381 147.048C38.8974 147.68 38.9175 146.407 39.6642 145.921Z"
    fill="#30BDF4"
  />
<path
    fill-rule="evenodd"
    clip-rule="evenodd"
    d="M44.7178 142.931C44.7115 141.695 44.7115 141.695 46.277 141.631C45.7571 142.064 45.2373 142.497 44.7178 142.931Z"
    fill="#0D88DF"
  />
<path
    fill-rule="evenodd"
    clip-rule="evenodd"
    d="M131.603 112.644C132.567 112.616 133.095 113.019 133.501 113.915C132.586 114.673 130.507 114.483 131.603 112.644Z"
    fill="#0341A8"
  />
<path
    fill-rule="evenodd"
    clip-rule="evenodd"
    d="M23.3393 114.859C25.1181 113.293 22.3974 114.112 22.0986 112.82C22.942 112.677 23.6129 112.851 24.3336 113.438C25.1136 114.358 28.6391 114.608 26.4757 115.385C24.526 115.999 24.6215 116.645 23.3393 114.859Z"
    fill="#0D88DF"
  />
<path
    fill-rule="evenodd"
    clip-rule="evenodd"
    d="M21.4486 112.513C20.9974 112.457 20.4719 112.543 20.2787 111.993C20.6922 112.121 21.3835 111.717 21.4486 112.513Z"
    fill="#0D88DF"
  />
<path
    fill-rule="evenodd"
    clip-rule="evenodd"
    d="M26.5182 115.372C26.6047 115.286 26.6912 115.199 26.7782 115.112C26.6919 115.199 26.6051 115.286 26.5182 115.372Z"
    fill="#0341A8"
  />
<path
    fill-rule="evenodd"
    clip-rule="evenodd"
    d="M132.277 140.331C136.648 141.737 130 147.655 129.732 142.988C130.346 142.106 130.442 143.909 131.328 143.597C133.313 143.376 132.336 141.522 132.277 140.331Z"
    fill="#30BDF4"
  />
<path
    fill-rule="evenodd"
    clip-rule="evenodd"
    d="M132.316 140.454C132.504 141.969 130.932 140.336 130.586 141.922C129.334 144.752 130.13 138.508 132.316 140.454Z"
    fill="#0D88DF"
  />
<path
    fill-rule="evenodd"
    clip-rule="evenodd"
    d="M34.8482 117.12C35.014 117.054 35.3071 116.906 35.3269 116.936C35.6971 118.049 38.3338 117.049 37.5542 118.292C35.2468 118.171 33.581 122.274 31.5665 123.61C29.4555 125.521 28.0795 127.765 25.3484 127.074C28.3448 123.613 32.0842 120.731 34.8482 117.12Z"
    fill="#0D88DF"
  />
<path
    fill-rule="evenodd"
    clip-rule="evenodd"
    d="M25.2733 127.122C30.02 126.577 23.7913 130.648 22.8665 131.415C20.988 131.874 23.1236 130.14 23.3085 129.478C24.1288 129.698 23.8745 129.183 23.7791 128.776C24.2772 128.225 24.7753 127.673 25.2733 127.122Z"
    fill="#30BDF4"
  />
<path
    fill-rule="evenodd"
    clip-rule="evenodd"
    d="M24.5766 130.452C24.514 129.77 24.8087 129.465 25.4784 129.558C25.1779 129.856 24.8772 130.154 24.5766 130.452Z"
    fill="#0D88DF"
  />
<path
    fill-rule="evenodd"
    clip-rule="evenodd"
    d="M125.052 131.487C124.596 138.373 119.102 129.606 122.535 127.99C124.458 127.826 124.671 130.14 125.052 131.487Z"
    fill="#0341A8"
  />
<path
    fill-rule="evenodd"
    clip-rule="evenodd"
    d="M145.331 123.69C144.722 127.398 141.045 121.236 143.354 119.922C145.237 120.253 144.919 122.35 145.331 123.69Z"
    fill="#0341A8"
  />
<path
    fill-rule="evenodd"
    clip-rule="evenodd"
    d="M134.661 127.583C134.852 132.81 131.376 126.82 132.808 124.823C134.318 122.727 134.744 126.619 134.661 127.583Z"
    fill="#0341A8"
  />
<path
    fill-rule="evenodd"
    clip-rule="evenodd"
    d="M23.3931 114.853C26.0563 116.876 21.2004 117.747 19.8756 119.012C19.1672 118.931 19.5879 118.29 20.0746 118.171C21.315 117.907 20.4015 116.68 21.2753 116.314C21.682 116.579 21.6896 116.572 21.7679 115.898C22.3096 115.549 22.8514 115.201 23.3931 114.853Z"
    fill="#30BDF4"
  />
<path
    fill-rule="evenodd"
    clip-rule="evenodd"
    d="M42.8972 155.93C43.031 154.73 43.3706 154.298 44.3271 154.11C43.8504 154.717 43.3739 155.323 42.8972 155.93Z"
    fill="#0D88DF"
  />
<path
    fill-rule="evenodd"
    clip-rule="evenodd"
    d="M42.2538 156.71C42.2332 156.384 42.2284 156.068 42.7672 156.06C42.7663 156.373 42.7783 156.693 42.2538 156.71Z"
    fill="#0D88DF"
  />
<path
    fill-rule="evenodd"
    clip-rule="evenodd"
    d="M21.7086 115.892C21.6259 116.498 21.6177 116.504 21.1886 116.267C21.362 116.142 21.5352 116.017 21.7086 115.892Z"
    fill="#0D88DF"
  />
<path
    fill-rule="evenodd"
    clip-rule="evenodd"
    d="M79.5268 111.473C79.7023 112.818 80.0621 113.592 78.3849 114.203C78.5305 113.202 78.8883 112.283 79.5268 111.473Z"
    fill="#0D88DF"
  />
<path
    fill-rule="evenodd"
    clip-rule="evenodd"
    d="M76.6718 75.3351C75.0852 77.4911 80.5261 79.9991 78.4084 82.18C76.2349 84.097 75.5438 83.9568 74.4784 81.8065C73.7474 80.8453 73.1446 79.2753 71.7554 79.2449C71.8215 79.068 71.8366 78.8295 71.9618 78.7242C73.5358 77.6445 74.7991 75.8016 76.6718 75.3351Z"
    fill="#0D88DF"
  />
<path
    fill-rule="evenodd"
    clip-rule="evenodd"
    d="M23.2685 129.412C22.9791 129.769 22.9209 130.795 22.3585 130.335C22.6618 130.027 22.9652 129.719 23.2685 129.412Z"
    fill="#0D88DF"
  />
<path
    fill-rule="evenodd"
    clip-rule="evenodd"
    d="M32.8879 116.615C33.2767 116.56 33.6988 116.374 33.9278 116.949C33.5162 117.095 33.1159 117.197 32.8879 116.615Z"
    fill="#0D88DF"
  />
<path
    fill-rule="evenodd"
    clip-rule="evenodd"
    d="M23.8177 128.762C23.9026 129.182 24.1291 129.715 23.3985 129.487C23.5381 129.245 23.6779 129.003 23.8177 128.762Z"
    fill="#0D88DF"
  />
<path
    fill-rule="evenodd"
    clip-rule="evenodd"
    d="M31.516 133.831C30.9309 133.142 31.8614 133.056 32.2707 132.661C32.9674 132.98 31.8728 133.397 31.516 133.831Z"
    fill="#0D88DF"
  />
<path
    fill-rule="evenodd"
    clip-rule="evenodd"
    d="M83.2255 99.1235C84.4576 102.24 86.9194 105.19 81.6347 105.101C82.377 103.08 83.3794 101.287 83.2255 99.1235Z"
    fill="#0D88DF"
  />
<path
    fill-rule="evenodd"
    clip-rule="evenodd"
    d="M91.7018 105.722C92.8095 105.505 94.6319 103.298 95.4313 104.604C95.8185 106.043 97.4106 107.595 97.0513 109.049C95.8099 109.483 93.5224 112.666 92.6779 110.716C92.2366 109.139 89.8201 106.986 91.7018 105.722Z"
    fill="#0D88DF"
  />
<path
    fill-rule="evenodd"
    clip-rule="evenodd"
    d="M69.4515 134.741C65.4794 130.772 64.8238 131.117 70.0054 128.302C71.4733 127.359 71.9841 130.183 72.9211 130.945C74.2137 132.884 70.3916 133.486 69.4515 134.741Z"
    fill="#0D88DF"
  />
<path
    fill-rule="evenodd"
    clip-rule="evenodd"
    d="M89.9486 133.831C91.0615 135.192 93.0021 138.525 90.693 139.651C89.8663 139.593 89.1943 140.693 88.4371 140.206C87.4129 138.999 87.1969 137.128 86.7044 135.634C86.83 134.289 88.8457 134.485 89.9486 133.831Z"
    fill="#0D88DF"
  />
<path
    fill-rule="evenodd"
    clip-rule="evenodd"
    d="M105.819 99.2364C106.001 96.7179 105.212 94.2216 108.698 94.4596C109.613 95.5571 109.397 97.5222 109.826 98.8981C110.185 100.254 104.767 101.356 105.819 99.2364Z"
    fill="#0D88DF"
  />
<path
    fill-rule="evenodd"
    clip-rule="evenodd"
    d="M86.5806 123.562C85.3614 123.161 85.5555 120.953 85.1445 119.866C85.5323 118.618 87.6296 119.126 88.6918 118.752C90.0728 118.892 89.5711 121.158 89.9542 122.17C89.697 123.401 87.7304 123.018 86.5806 123.562Z"
    fill="#0D88DF"
  />
<path
    fill-rule="evenodd"
    clip-rule="evenodd"
    d="M105.008 144.621C105.467 145.938 107.051 148.718 105.953 149.753C104.726 149.865 103.088 151.036 102.021 150.424C100.837 145.872 100.052 145.711 105.008 144.621Z"
    fill="#0D88DF"
  />
<path
    fill-rule="evenodd"
    clip-rule="evenodd"
    d="M91.9321 89.3849C95.4509 92.9476 90.6247 95.9037 89.9418 94.2163C88.4718 90.4392 86.2765 89.2461 91.9321 89.3849Z"
    fill="#0D88DF"
  />
<path
    fill-rule="evenodd"
    clip-rule="evenodd"
    d="M83.8446 26.1521C83.7614 28.6482 79.854 28.9555 79.6855 26.2038C79.6279 24.0026 83.819 23.5669 83.8446 26.1521Z"
    fill="#151516"
  />
<path
    fill-rule="evenodd"
    clip-rule="evenodd"
    d="M58.2828 28.0682C55.5323 26.3153 57.9562 22.8386 60.5154 24.8632C62.4747 26.0695 59.9356 29.4896 58.2828 28.0682Z"
    fill="#151516"
  />
<path
    fill-rule="evenodd"
    clip-rule="evenodd"
    d="M52.0158 16.4382C57.3653 10.8965 55.8835 19.201 54.2983 17.1923C53.0392 16.5194 53.8542 16.373 52.6216 16.9699C52.684 18.6649 51.8622 17.6968 52.0158 16.4382Z"
    fill="#0341A8"
  />
<path
    fill-rule="evenodd"
    clip-rule="evenodd"
    d="M59.2931 10.4929C59.2499 10.5615 59.2329 10.5808 59.3296 10.5772L59.2931 10.4929ZM58.7937 8.2594C61.0672 8.76919 58.3673 9.16472 61.0961 10.0165C57.6186 14.5309 59.1541 10.9151 58.7937 8.2594Z"
    fill="#30BDF4"
  />
<path
    fill-rule="evenodd"
    clip-rule="evenodd"
    d="M56.7869 10.6199C57.3526 9.23047 58.1365 11.7654 57.9475 12.3439C56.9064 12.4521 57.3696 13.57 56.6523 13.979C55.8022 13.4826 55.0457 10.6403 56.3019 12.168C56.2729 12.1822 56.2396 12.1911 56.2175 12.2122C56.3944 12.1114 57.7692 10.9096 56.7869 10.6199Z"
    fill="#30BDF4"
  />
<path
    fill-rule="evenodd"
    clip-rule="evenodd"
    d="M51.6605 20.858C51.3652 20.4152 51.1593 19.7628 50.4225 20.3526C49.5268 19.4214 51.3563 19.4033 51.5101 18.5288C51.9412 18.8425 52.6258 19.0434 52.098 19.7856C53.4023 20.7552 53.4285 21.5717 51.6605 20.858Z"
    fill="#151516"
  />
<path
    fill-rule="evenodd"
    clip-rule="evenodd"
    d="M50.0674 37.246C48.6319 37.3042 49.9605 35.7151 49.2668 34.8137C49.308 34.4575 49.7604 33.6668 50.0506 34.488C51.0746 35.3183 50.7589 34.8706 49.9545 35.53C50.5025 36.0706 49.9731 36.68 50.0674 37.246Z"
    fill="#151516"
  />
<path
    fill-rule="evenodd"
    clip-rule="evenodd"
    d="M57.5098 10.3313C56.5389 9.41268 58.0929 9.10262 58.5313 8.51941C59.4065 9.80088 59.1149 11.8267 57.5098 10.3313Z"
    fill="#0341A8"
  />
<path
    fill-rule="evenodd"
    clip-rule="evenodd"
    d="M48.7468 25.0558C49.347 24.0927 49.8886 25.4904 50.9567 24.1183C50.8659 25.653 49.7394 26.8134 48.7468 25.0558Z"
    fill="#0341A8"
  />
<path
    fill-rule="evenodd"
    clip-rule="evenodd"
    d="M49.861 28.6265C50.6633 26.9165 52.1353 28.6274 51.1467 29.2585C49.9818 29.7931 48.9836 30.1219 49.861 28.6265Z"
    fill="#0D88DF"
  />
<path
    fill-rule="evenodd"
    clip-rule="evenodd"
    d="M57.844 21.6485C56.6154 20.9157 57.0786 20.6 57.6303 19.6987C57.8627 20.4558 58.7345 20.9704 57.844 21.6485Z"
    fill="#0341A8"
  />
<path
    fill-rule="evenodd"
    clip-rule="evenodd"
    d="M60.3161 18.9706C58.9408 20.7513 57.8754 17.986 59.3054 18.0089C59.6275 18.1766 59.0512 19.4438 60.1393 18.7242C60.1426 18.722 60.2161 18.8307 60.3161 18.9706Z"
    fill="#30BDF4"
  />
<path
    fill-rule="evenodd"
    clip-rule="evenodd"
    d="M58.1664 28.1481C59.5807 29.3035 55.9073 30.3477 57.2282 28.7943C58.1847 29.4229 57.8658 28.3681 58.1664 28.1481Z"
    fill="#30BDF4"
  />
<path
    fill-rule="evenodd"
    clip-rule="evenodd"
    d="M57.7908 29.6817C59.619 29.1179 58.3674 31.0526 57.9397 30.7061C57.2306 30.4586 57.8113 30.0271 57.7908 29.6817Z"
    fill="#0341A8"
  />
<path
    fill-rule="evenodd"
    clip-rule="evenodd"
    d="M56.8063 33.1432C56.3882 33.3808 55.6847 34.7522 55.3764 34.0686C55.6662 33.5662 56.1327 32.5378 56.8063 33.1432Z"
    fill="#30BDF4"
  />
<path
    fill-rule="evenodd"
    clip-rule="evenodd"
    d="M55.9178 13.0692C57.5666 14.0057 55.403 16.0253 55.8113 14.4169C56.6169 13.9397 55.0244 14.5839 55.9178 13.0692Z"
    fill="#151516"
  />
<path
    fill-rule="evenodd"
    clip-rule="evenodd"
    d="M51.2167 37.2426C51.3996 36.679 53.7933 36.285 53.3784 36.9335C53.0432 36.8393 52.8725 37.4548 52.3598 37.0234C51.7346 36.8122 52.4278 38.0222 51.2167 37.2426Z"
    fill="#0341A8"
  />
<path
    fill-rule="evenodd"
    clip-rule="evenodd"
    d="M59.5361 17.1589C59.116 17.1819 58.475 17.6047 58.1062 17.1466C58.7145 16.2386 58.9388 16.19 59.5361 17.1589Z"
    fill="#30BDF4"
  />
<path
    fill-rule="evenodd"
    clip-rule="evenodd"
    d="M52.4236 28.7981C53.2174 29.2569 53.4654 29.5913 52.719 30.0938C52.966 31.6705 51.8477 30.0605 52.4236 28.7981Z"
    fill="#30BDF4"
  />
<path
    fill-rule="evenodd"
    clip-rule="evenodd"
    d="M51.4714 31.5577C51.5975 33.687 49.3788 31.2429 51.4648 31.5561L51.4714 31.5577Z"
    fill="#0341A8"
  />
<path
    fill-rule="evenodd"
    clip-rule="evenodd"
    d="M53.8192 20.8717C53.7982 20.7899 53.7695 20.7791 53.6931 20.8249C53.5534 19.6377 55.7019 20.0387 54.9602 20.9524C54.5156 21.4791 54.4547 20.6335 53.8192 20.8717Z"
    fill="#151516"
  />
<path
    fill-rule="evenodd"
    clip-rule="evenodd"
    d="M58.5313 24.2225C57.5557 24.3914 57.8495 23.7039 58.047 23.0785C58.2291 23.456 58.8641 23.7927 58.5313 24.2225Z"
    fill="#0341A8"
  />
<path
    fill-rule="evenodd"
    clip-rule="evenodd"
    d="M55.6364 36.2617C55.1529 36.8469 55.007 36.0341 54.7264 35.6838C54.9976 34.9846 55.3014 35.8993 55.6364 36.2617Z"
    fill="#30BDF4"
  />
<path
    fill-rule="evenodd"
    clip-rule="evenodd"
    d="M62.252 6.95948C61.9221 6.11007 62.3717 5.93132 62.6512 5.26959C63.3097 5.81612 62.5709 6.16675 62.252 6.95948Z"
    fill="#30BDF4"
  />
<path
    fill-rule="evenodd"
    clip-rule="evenodd"
    d="M52.7469 16.8861C53.1006 16.7137 53.4463 16.0043 53.8164 16.87C53.827 17.9116 52.2387 17.8191 52.7469 16.8861Z"
    fill="#151516"
  />
<path
    fill-rule="evenodd"
    clip-rule="evenodd"
    d="M56.8268 33.1547C56.4827 32.8569 56.2269 32.9535 55.9076 33.2178C55.7295 31.8632 57.7412 32.1734 56.8268 33.1547Z"
    fill="#0341A8"
  />
<path
    fill-rule="evenodd"
    clip-rule="evenodd"
    d="M60.219 16.7089C60.464 17.3916 61.3165 18.0101 60.4692 18.2688C59.8306 18.2493 60.0896 17.1896 60.219 16.7089Z"
    fill="#30BDF4"
  />
<path
    fill-rule="evenodd"
    clip-rule="evenodd"
    d="M51.1936 37.2476C51.6432 37.4569 52.0983 37.5056 51.7342 38.0745C50.9677 38.3581 50.4363 37.8732 51.1936 37.2476Z"
    fill="#151516"
  />
<path
    fill-rule="evenodd"
    clip-rule="evenodd"
    d="M63.4359 7.69133C62.8894 8.05657 62.8279 7.81013 62.6559 7.4022C62.9165 7.00233 63.0587 7.33205 63.4359 7.69133Z"
    fill="#30BDF4"
  />
<path
    fill-rule="evenodd"
    clip-rule="evenodd"
    d="M51.4265 31.5279C50.9575 31.2639 51.3501 30.6821 51.8667 30.7541C51.8516 31.0804 51.7956 31.3546 51.4265 31.5279Z"
    fill="#30BDF4"
  />
<path
    fill-rule="evenodd"
    clip-rule="evenodd"
    d="M52.2566 17.8977C52.2566 17.8977 52.3374 17.879 52.3366 17.8788C53.1958 18.5712 52.5892 18.8961 52.2566 17.8977Z"
    fill="#30BDF4"
  />
<path
    fill-rule="evenodd"
    clip-rule="evenodd"
    d="M49.9246 28.6633C49.6593 28.7093 48.9119 28.4151 49.4672 28.2906C49.6995 28.2759 50.3041 27.8039 49.9246 28.6633Z"
    fill="#0D88DF"
  />
<path
    fill-rule="evenodd"
    clip-rule="evenodd"
    d="M64.4358 9.16931C64.5111 9.54241 64.783 9.91742 64.4257 10.2092C64.3499 9.92066 63.9881 9.17627 64.4358 9.16931Z"
    fill="#30BDF4"
  />
<path
    fill-rule="evenodd"
    clip-rule="evenodd"
    d="M55.7377 20.2187C55.1447 20.1407 55.864 19.728 55.9932 19.4387C56.4327 19.6821 55.8584 19.9617 55.7377 20.2187Z"
    fill="#30BDF4"
  />
<path
    fill-rule="evenodd"
    clip-rule="evenodd"
    d="M61.7881 11.7692C61.4051 11.369 61.704 10.5428 62.266 10.9868C61.9716 11.1825 61.8281 11.4279 61.7881 11.7692Z"
    fill="#30BDF4"
  />
<path
    fill-rule="evenodd"
    clip-rule="evenodd"
    d="M59.4061 28.3834C59.7834 28.1732 59.8094 28.2827 59.7923 28.6681C59.6636 28.5732 59.5349 28.4782 59.4061 28.3834Z"
    fill="#30BDF4"
  />
<path
    fill-rule="evenodd"
    clip-rule="evenodd"
    d="M62.2242 10.3393C62.072 10.1876 62.1487 10.1111 62.2166 9.94934C62.32 10.042 62.2295 10.188 62.2242 10.3393Z"
    fill="#30BDF4"
  />
<path
    fill-rule="evenodd"
    clip-rule="evenodd"
    d="M61.5338 4.99418C61.3751 4.84898 61.6547 4.89304 61.746 4.94166C61.6752 4.95921 61.6045 4.97663 61.5338 4.99418Z"
    fill="#30BDF4"
  />
<path
    fill-rule="evenodd"
    clip-rule="evenodd"
    d="M61.7752 11.6778C61.7999 11.6955 61.8246 11.713 61.8493 11.7307C61.829 11.7128 61.7587 11.7011 61.7752 11.6778Z"
    fill="#30BDF4"
  />
<path
    fill-rule="evenodd"
    clip-rule="evenodd"
    d="M50.4143 31.7017C50.4207 31.742 50.3566 31.7297 50.3287 31.7441C50.3573 31.7301 50.3857 31.7159 50.4143 31.7017Z"
    fill="#30BDF4"
  />
<path
    fill-rule="evenodd"
    clip-rule="evenodd"
    d="M49.9367 30.358C49.9703 30.4013 50.0037 30.4446 50.0371 30.488C50.0067 30.4429 49.8919 30.4015 49.9367 30.358Z"
    fill="#0D88DF"
  />
<path
    fill-rule="evenodd"
    clip-rule="evenodd"
    d="M49.902 30.358C49.6684 30.3077 49.8518 30.1023 49.9168 30.3415C49.9167 30.3415 49.902 30.358 49.902 30.358Z"
    fill="#0D88DF"
  />
<path
    fill-rule="evenodd"
    clip-rule="evenodd"
    d="M50.8978 24.2214L50.8813 24.1453C50.8878 24.1616 50.9118 24.2036 50.8978 24.2214Z"
    fill="#0341A8"
  />
<path
    fill-rule="evenodd"
    clip-rule="evenodd"
    d="M45.757 24.2677C44.446 25.7464 46.0017 27.2706 44.9027 28.5774C44.7576 29.3263 43.814 29.4596 43.1253 29.1748C42.8521 28.5994 42.5884 28.8579 42.3582 29.1583C41.5519 31.0041 41.3783 29.333 40.4695 30.2164C37.9681 30.4776 41.8245 26.2335 43.4139 27.8968C43.7282 26.811 42.3183 27.1376 42.2954 26.1383C41.9964 26.299 41.727 26.4427 41.3887 26.3122C42.1828 23.0549 42.8575 26.3477 43.1942 25.3488C43.1506 24.3197 43.8606 25.098 44.3593 24.3745C45.0632 24.4864 44.898 24.1668 44.6422 23.8024C45.4781 23.4185 45.1368 22.1592 45.757 24.2677Z"
    fill="#151516"
  />
<path
    fill-rule="evenodd"
    clip-rule="evenodd"
    d="M40.5574 30.1736C40.9624 29.4874 41.3467 30.0418 41.738 30.1929C41.6043 31.2637 42.6117 31.0114 43.3065 31.0364C44.2208 29.271 45.0714 29.7876 44.2636 31.6779C43.8482 32.7705 45.0896 33.5967 43.8767 34.3878C43.3362 32.8014 42.35 31.5316 40.6684 32.2306C41.1316 31.3105 42.4375 31.9117 40.5574 30.1736Z"
    fill="#0341A8"
  />
<path
    fill-rule="evenodd"
    clip-rule="evenodd"
    d="M37.0476 29.8411C39.6181 28.1917 36.8945 30.9871 38.4467 30.8024C38.5477 31.5363 39.6378 31.417 39.6474 32.2308C38.8612 33.0212 37.1119 33.6297 38.6993 34.6592C39.6199 35.1133 38.3871 36.0284 37.9265 35.5557C38.3023 33.9766 36.9269 34.6165 37.4675 33.4378C38.7572 31.3575 37.5866 32.0887 37.0476 29.8411Z"
    fill="#30BDF4"
  />
<path
    fill-rule="evenodd"
    clip-rule="evenodd"
    d="M43.6461 33.9977C45.2188 35.2298 43.228 35.4521 45.627 35.1626C44.9671 36.7705 44.1687 35.7282 42.682 35.9234C42.2274 34.8945 41.8358 35.3374 41.4673 34.8929C41.4666 33.9144 42.9242 34.2871 43.6461 33.9977Z"
    fill="#151516"
  />
<path
    fill-rule="evenodd"
    clip-rule="evenodd"
    d="M42.7738 35.9476C45.4049 36.0751 44.3134 35.5295 43.7238 37.3228C41.8098 37.6134 39.6755 36.6874 42.7738 35.9476Z"
    fill="#30BDF4"
  />
<path
    fill-rule="evenodd"
    clip-rule="evenodd"
    d="M40.5787 22.0598C42.5878 22.0106 39.8549 23.1152 41.4673 23.9205C40.4983 24.4406 37.8544 23.8935 39.5546 22.769C40.1292 22.7507 40.4344 22.5223 40.5998 22.0385L40.5787 22.0598Z"
    fill="#0341A8"
  />
<path
    fill-rule="evenodd"
    clip-rule="evenodd"
    d="M37.1126 29.7238C37.7482 31.0782 37.771 31.178 36.8401 32.1576C35.9851 34.6403 34.9579 31.4436 36.687 30.7603C36.5806 30.5783 36.2484 29.1193 37.1126 29.7238Z"
    fill="#0341A8"
  />
<path
    fill-rule="evenodd"
    clip-rule="evenodd"
    d="M39.1649 35.0377C38.3207 34.2808 37.4153 33.7164 38.813 32.9463C40.4405 31.3357 39.1901 33.9718 39.1649 35.0377Z"
    fill="#151516"
  />
<path
    fill-rule="evenodd"
    clip-rule="evenodd"
    d="M45.235 19.2226C44.468 18.6103 44.2751 19.5885 43.7196 19.9586C41.1802 19.189 45.3422 17.3283 45.235 19.2226Z"
    fill="#0341A8"
  />
<path
    fill-rule="evenodd"
    clip-rule="evenodd"
    d="M36.4398 30.2482C36.5158 30.4648 36.6833 30.8572 36.6543 30.8724C35.911 31.2631 35.8215 32.0283 35.5696 32.6979C34.5579 32.1748 35.3251 29.9963 36.4398 30.2482Z"
    fill="#30BDF4"
  />
<path
    fill-rule="evenodd"
    clip-rule="evenodd"
    d="M45.1566 19.2321C45.2336 19.23 45.2744 19.1845 45.2712 19.1029C46.9679 17.914 47.0533 20.4829 45.8759 20.4786C45.5986 19.7148 44.919 20.9411 45.1566 19.2321Z"
    fill="#151516"
  />
<path
    fill-rule="evenodd"
    clip-rule="evenodd"
    d="M40.0374 28.6883C39.8934 29.3388 39.3021 31.0039 39.2171 29.4626C39.0407 28.6328 39.0372 28.6335 40.0374 28.6883Z"
    fill="#0341A8"
  />
<path
    fill-rule="evenodd"
    clip-rule="evenodd"
    d="M42.6373 23.0137C42.8633 22.3664 42.9493 21.9192 43.1627 22.7557C43.8417 23.5688 42.9859 24.3355 42.6373 23.0137Z"
    fill="#0341A8"
  />
<path
    fill-rule="evenodd"
    clip-rule="evenodd"
    d="M43.2121 19.9621C44.025 19.8938 43.6932 20.8603 43.8071 21.3886C42.9078 21.1731 42.3156 20.6067 43.2121 19.9621Z"
    fill="#151516"
  />
<path
    fill-rule="evenodd"
    clip-rule="evenodd"
    d="M41.4161 26.2171C42.3214 26.2717 40.9929 27.0614 40.6994 26.5423C39.702 25.671 40.7997 25.2859 41.4161 26.2171Z"
    fill="#0341A8"
  />
<path
    fill-rule="evenodd"
    clip-rule="evenodd"
    d="M42.6372 20.0024C42.158 20.4773 41.6973 20.5616 41.0773 20.41C41.2038 19.2581 41.8579 19.4605 42.6372 20.0024Z"
    fill="#0341A8"
  />
<path
    fill-rule="evenodd"
    clip-rule="evenodd"
    d="M40.5574 22.013C39.7702 22.1845 39.9209 21.452 39.7774 21.0402C40.5755 20.1633 40.5486 21.4191 40.5574 22.013Z"
    fill="#0341A8"
  />
<path
    fill-rule="evenodd"
    clip-rule="evenodd"
    d="M41.4652 34.8287C41.5171 35.0629 40.5971 35.1283 40.3199 35.2976C40.1544 34.4009 40.9398 34.3245 41.4652 34.8287Z"
    fill="#30BDF4"
  />
<path
    fill-rule="evenodd"
    clip-rule="evenodd"
    d="M41.4383 26.1982C40.9379 25.8212 40.5499 25.5932 41.0507 25.0283C41.4208 25.3613 41.5258 25.7194 41.4383 26.1982Z"
    fill="#30BDF4"
  />
<path
    fill-rule="evenodd"
    clip-rule="evenodd"
    d="M46.147 20.7004C46.2772 20.5393 46.4076 20.3783 46.537 20.2186C46.4418 20.6377 46.6035 21.4327 46.147 20.7004Z"
    fill="#0341A8"
  />
<path
    fill-rule="evenodd"
    clip-rule="evenodd"
    d="M44.6274 23.7284C44.8831 24.1267 45.0482 24.4758 44.3445 24.3536C43.764 23.978 44.2111 23.939 44.6274 23.7284Z"
    fill="#30BDF4"
  />
<path
    fill-rule="evenodd"
    clip-rule="evenodd"
    d="M45.5233 20.3307C46.2916 19.9447 45.6166 20.6522 45.5354 20.9986C45.491 20.7754 45.4827 20.5553 45.5233 20.3307Z"
    fill="#0341A8"
  />
<path
    fill-rule="evenodd"
    clip-rule="evenodd"
    d="M45.4229 23.0784C44.6843 23.083 45.0199 22.8346 45.3176 22.4285C45.5623 22.6159 45.8163 22.8019 45.4229 23.0784Z"
    fill="#0341A8"
  />
<path
    fill-rule="evenodd"
    clip-rule="evenodd"
    d="M35.8777 32.9578C36.2708 33.143 36.455 33.2097 36.0032 33.4778C35.9615 33.3045 35.9196 33.1312 35.8777 32.9578Z"
    fill="#30BDF4"
  />
<path
    fill-rule="evenodd"
    clip-rule="evenodd"
    d="M42.7608 33.9978C42.5463 33.6273 42.6147 33.5824 42.9381 33.4778C43.1714 33.6403 42.8875 33.7932 42.7608 33.9978Z"
    fill="#0341A8"
  />
<path
    fill-rule="evenodd"
    clip-rule="evenodd"
    d="M42.2473 33.6155C42.047 33.7525 41.9215 34.039 41.7273 33.729C41.9368 33.5817 41.9886 33.3132 42.2473 33.6155Z"
    fill="#30BDF4"
  />
<path
    fill-rule="evenodd"
    clip-rule="evenodd"
    d="M40.6309 32.1779C40.6309 32.1779 40.6706 32.1877 40.6702 32.187C40.7675 32.5581 40.4097 32.4854 40.6309 32.1779Z"
    fill="#30BDF4"
  />
<path
    fill-rule="evenodd"
    clip-rule="evenodd"
    d="M45.4971 17.5584C45.4435 17.6336 45.4119 17.6314 45.3671 17.5488C45.4194 17.4745 45.4526 17.476 45.4971 17.5584Z"
    fill="#30BDF4"
  />
<path
    fill-rule="evenodd"
    clip-rule="evenodd"
    d="M34.6936 72.5539C33.9333 73.407 33.6979 72.316 33.6678 71.5653C34.1467 71.7244 34.8133 71.65 34.6936 72.5539Z"
    fill="#151516"
  />
<path
    fill-rule="evenodd"
    clip-rule="evenodd"
    d="M38.1761 58.5662C37.9296 58.0817 37.7674 57.8425 38.3958 57.7863C38.8563 58.0188 38.4639 58.2373 38.1761 58.5662Z"
    fill="#0341A8"
  />
<path
    fill-rule="evenodd"
    clip-rule="evenodd"
    d="M33.081 61.686C33.1885 61.7072 33.132 61.7565 33.082 61.816C33.0042 61.773 33.004 61.7297 33.081 61.686Z"
    fill="#0341A8"
  />
<path
    fill-rule="evenodd"
    clip-rule="evenodd"
    d="M58.5769 8.55939C57.8521 9.56571 56.7125 9.26442 56.9748 8.11313C57.8871 8.32418 57.273 7.41451 57.6339 7.21948C57.9169 7.64479 59.2282 8.13162 58.5769 8.55939Z"
    fill="#151516"
  />
<path
    fill-rule="evenodd"
    clip-rule="evenodd"
    d="M54.5964 14.6792C54.02 14.8101 53.3329 15.5557 52.8106 15.1686C52.0893 13.962 53.9416 14.4065 54.5964 14.6792Z"
    fill="#151516"
  />
<path
    fill-rule="evenodd"
    clip-rule="evenodd"
    d="M56.8189 10.5992C57.7809 10.9388 56.6399 11.7818 56.3069 12.1591C56.2891 11.5377 55.7397 11.8493 55.4529 11.7C54.722 10.1905 56.1121 11.2117 56.8189 10.5992Z"
    fill="#151516"
  />
<path
    fill-rule="evenodd"
    clip-rule="evenodd"
    d="M55.4707 14.1971C56.3291 13.9613 56.0596 14.2306 55.5557 14.629C55.5057 14.4992 55.2367 14.2565 55.4707 14.1971Z"
    fill="#30BDF4"
  />
<path
    fill-rule="evenodd"
    clip-rule="evenodd"
    d="M57.1963 9.21624C57.3263 9.2006 57.4563 9.18486 57.5863 9.16931C57.3902 9.40358 57.3087 9.59121 57.1963 9.21624Z"
    fill="#30BDF4"
  />
<path
    fill-rule="evenodd"
    clip-rule="evenodd"
    d="M55.5064 10.708C55.3188 10.9643 55.2897 10.8727 55.2465 10.5992C55.3331 10.6355 55.4198 10.6718 55.5064 10.708Z"
    fill="#30BDF4"
  />
<path
    fill-rule="evenodd"
    clip-rule="evenodd"
    d="M44.8639 29.1574C45.0433 29.4779 45.044 29.735 44.6105 29.838C44.6404 29.5926 44.4353 28.7774 44.8639 29.1574Z"
    fill="#30BDF4"
  />
<path
    fill-rule="evenodd"
    clip-rule="evenodd"
    d="M44.95 29.1881C44.5711 29.1058 44.7091 28.7615 44.9771 28.6681C44.9681 28.8415 44.959 29.0148 44.95 29.1881Z"
    fill="#0341A8"
  />
<path
    fill-rule="evenodd"
    clip-rule="evenodd"
    d="M44.9465 28.6175C44.8823 28.7089 44.8239 28.6697 44.8564 28.5549C44.9143 28.5375 45.0331 28.5092 44.9465 28.6175Z"
    fill="#30BDF4"
  />
<path
    fill-rule="evenodd"
    clip-rule="evenodd"
    d="M52.8129 15.149C53.4596 15.5107 52.5396 15.8336 52.1266 15.5763C52.3554 15.434 52.5841 15.2915 52.8129 15.149Z"
    fill="#30BDF4"
  />
<path
    fill-rule="evenodd"
    clip-rule="evenodd"
    d="M44.9098 34.7669C44.671 34.4183 44.7114 34.0349 44.7364 33.6398C45.6603 33.3681 46.0878 34.9211 44.9098 34.7669Z"
    fill="#151516"
  />
<path
    fill-rule="evenodd"
    clip-rule="evenodd"
    d="M44.9354 34.7689C45.1878 34.7603 45.4996 34.5731 45.7223 34.6812C46.0034 35.4036 44.4709 35.5634 44.9354 34.7689Z"
    fill="#0341A8"
  />
<path
    fill-rule="evenodd"
    clip-rule="evenodd"
    d="M45.6941 34.7332C45.6941 34.7332 45.6776 34.6926 45.6776 34.6928C45.7201 34.6889 45.7063 34.7054 45.6941 34.7332Z"
    fill="#151516"
  />
<path
    fill-rule="evenodd"
    clip-rule="evenodd"
    d="M103.315 129.542C102.819 129.025 102.803 128.691 103.457 128.502C104.159 128.748 103.846 129.123 103.315 129.542Z"
    fill="#30BDF4"
  />
<path
    fill-rule="evenodd"
    clip-rule="evenodd"
    d="M123.268 114.649C123.502 114.047 124.676 113.987 124.662 114.888C124.691 115.911 122.965 115.924 123.268 114.649Z"
    fill="#0341A8"
  />
<path
    fill-rule="evenodd"
    clip-rule="evenodd"
    d="M130.253 142.846C130.172 140.628 133.253 140.46 132.461 142.785C132.111 143.708 130.5 143.952 130.253 142.846Z"
    fill="#0341A8"
  />
<path
    fill-rule="evenodd"
    clip-rule="evenodd"
    d="M52.7515 16.9367C52.7187 16.9148 52.6858 16.8929 52.6531 16.871C52.6921 16.8864 52.7312 16.902 52.7701 16.9175L52.7515 16.9367Z"
    fill="#151516"
  />
<path
    fill-rule="evenodd"
    clip-rule="evenodd"
    d="M59.3524 10.4891C59.3889 10.5681 59.4041 10.5911 59.3023 10.5742L59.3524 10.4891Z"
    fill="#0341A8"
  />
<path
    fill-rule="evenodd"
    clip-rule="evenodd"
    d="M56.407 12.166C56.3709 12.2048 56.3345 12.2437 56.2982 12.2824C56.2819 12.2086 56.3467 12.1675 56.407 12.166Z"
    fill="#151516"
  />
</svg>
