<svg
  width="230"
  height="245"
  viewBox="0 0 230 245"
  fill="none"
  xmlns="http://www.w3.org/2000/svg"
>
<path
    fill-rule="evenodd"
    clip-rule="evenodd"
    d="M55.8344 158.271C54.7314 158.975 55.2575 159.167 56.0186 159.811C56.7984 159.156 56.4643 158.859 55.8344 158.271ZM39.3902 222.156C39.9362 221.297 39.9527 221.054 39.344 220.406C38.7153 221.113 38.586 221.324 39.3902 222.156ZM49.2595 214.653C49.8141 214.128 50.2755 213.691 50.7366 213.254C50.2565 212.559 47.8708 213.811 49.2595 214.653ZM54.9619 152.314C54.1886 153.087 53.9379 153.763 54.9985 154.008C55.9333 153.513 55.946 153.006 54.9619 152.314ZM81.6967 203.741C81.3706 204.028 80.9927 204.327 81.0086 204.353C81.793 206.457 83.7148 204.834 81.6967 203.741ZM86.9948 138.443C85.9495 137.51 85.6817 136.333 84.6407 137.842C85.5244 138.479 85.7943 139.354 86.9948 138.443ZM75.3425 185.847C74.4768 187.563 76.6436 187.778 77.6125 186.712C77.1429 186.04 76.1753 186.201 75.3425 185.847ZM64.8293 164.037C66.0789 163.018 66.8297 162.047 65.218 161.315C63.8591 161.236 65.6214 163.047 64.3249 163.162C64.4328 163.349 64.5404 163.536 64.8293 164.037ZM43.5793 171.749C42.4723 170.856 42.1363 170.457 41.2927 171.641C42.2271 172.389 42.4271 172.919 43.5793 171.749ZM49.271 170.467C48.3778 173.104 52.8445 174.391 52.0391 171.051C51.7171 166.204 47.2956 164.59 49.271 170.467ZM85.4455 213.315C89.334 212.112 80.3077 206.189 78.9087 206.383C77.6733 209.764 83.2458 211.729 85.4455 213.315ZM27.0268 206.548C25.7196 203.892 21.6201 202.194 19.0149 202.41C18.5084 205.483 23.2279 206.141 24.823 207.902C26.1408 209.052 26.4119 207.63 27.0268 206.548ZM49.1356 222.928C51.3707 227.788 55.5749 216.717 54.4501 214.925C51.6443 214.974 50.3189 220.157 49.1356 222.928ZM129.177 203.019C128.861 195.401 124.828 204.727 125.167 207.947C127.265 214.564 128.794 205.247 129.177 203.019ZM85.8293 171.713C72.8573 171.788 87.994 176.821 91.3746 175.571C93.0507 172.306 87.2101 172.379 85.8293 171.713ZM60.4914 201.02C71.3657 200.163 76.8415 180.248 62.2646 179.548C46.6678 178.527 41.9437 202.168 60.4914 201.02ZM103.786 200.802C103.796 192.642 112.205 197.236 107.9 200.349C107.616 200.429 107.544 201.34 107.375 201.867C111.993 203.846 111.287 195.069 107.639 194.565C98.1163 193.739 101.112 212.935 110.029 209.01C121.435 203.028 115.408 185.787 103.26 190.309C93.6109 192.17 90.9225 207.189 98.6638 213.109C104.007 214.88 116.864 215.349 115.622 206.907C107.047 216.919 90.646 209.341 98.3054 195.979C101.263 191.92 107.486 190.532 111.536 193.243C119.293 199.729 105.09 214.564 103.786 200.802ZM7.41306 229.593C14.7302 213.239 38.6883 223.957 27.7048 239.698C21.3402 248.101 4.54128 235.217 12.9206 227.354C16.1993 225.225 20.6209 224.552 23.708 227.486C28.5928 230.542 21.4396 239.662 18.7234 233.752C17.9464 231.725 19.3492 228.087 21.7404 229.536C22.4172 229.957 22.521 231.206 21.7876 231.494C19.5911 232.634 23.6295 233.988 23.765 231.833C24.2738 224.826 14.8766 228.56 16.7439 234.109C18.7808 242.441 29.3005 236.169 27.2632 229.133C19.492 213.526 -1.84952 231.297 14.3055 242.42C27.6099 252.48 40.1402 233.19 28.5947 222.272C22.4135 215.219 8.44235 219.861 7.41306 229.593ZM69.9728 146.346C75.3944 148.572 75.2517 139.512 69.5248 140.571C65.5918 141.926 66.4479 149.923 68.8063 152.376C74.1379 154.766 79.864 147.277 77.8123 141.839C75.4349 134.797 64.869 134.842 62.3403 141.672C57.0685 155.741 72.1163 166.143 81.8617 155.487C84.5767 154.299 84.4031 143.91 81.9803 147.053C81.5842 160.663 62.2029 159.63 64.1695 145.102C63.7622 138.771 72.6461 135.988 75.3274 142.117C78.6535 147.508 66.9906 153.953 69.9728 146.346ZM60.2121 225.831C59.1924 225.023 58.4802 225.566 58.0132 226.51C57.3871 229.809 62.7457 228.946 60.2121 225.831ZM0.622212 195.022C-0.03462 193.194 4.66145 194.395 7.77553 190.789C12.8045 185.01 2.21145 189.954 1.14987 192.098C0.725551 191.473 0.666836 190.149 1.34559 189.804C0.0524747 188.126 1.46869 183.924 1.17786 181.374C1.99929 178.262 4.13301 177.121 6.60925 175.657C9.01032 177.669 10.0995 180.815 12.7714 182.659C33.1238 197.367 43.3969 171.822 33.2912 154.813C32.7295 152.28 38.2705 149.463 40.3967 149.344C40.0368 146.526 42.185 148.394 43.0417 146.711C45.5038 142.161 47.9031 157.733 49.6938 152.452C46.3799 142.052 45.6491 143.014 56.1895 138.796C53.8023 141.486 55.2532 141.975 57.6161 140.203C59.3 138.778 59.3531 136.687 59.4241 134.637C62.8909 133.413 65.2877 130.89 68.2019 128.809C69.7863 127.059 70.897 131.036 72.0611 128.782C72.0906 128.711 72.5351 128.828 72.7849 128.866C78.9997 128.42 76.2818 134.532 80.624 130.678C85.3412 132.49 85.532 132.939 87.8867 136.834C91.2212 136.711 89.4781 135.057 92.5327 138.402C96.6253 140.997 99.494 145.834 103.742 148.481C105.762 153.792 103.259 152.018 99.8854 155.318C92.6757 162.68 96.9522 177.261 107.745 176.798C113.405 179.467 119.951 169.554 123.478 175.76C124.202 179.344 126.313 182.405 128.662 185.073C132.96 191.84 136.341 199.866 140.699 206.86C139.195 224.703 118.675 231.071 105.078 236.488C103.812 237.727 104.078 220.832 101.037 227.9C102.441 241.097 107.295 235.099 93.4584 240.108C92.2009 240.427 91.312 240.422 90.2625 240.476C89.3366 241.614 84.9016 243.282 84.8527 241.049C85.6929 229.797 72.8052 224.824 65.3202 232.335C58.2987 236.696 62.2687 245.035 60.1166 245.988C57.9318 246.223 55.7186 246.63 53.5475 246.154C51.8066 246.468 48.944 248.798 48.4009 245.65C46.5081 234.885 41.6814 235.012 45.3453 246.143C45.5667 249.656 12.4096 250.504 11.785 246.136C5.5692 238.833 3.53509 228.992 2.70446 220.05C3.14092 219.245 3.38517 218.445 2.62109 217.685C4.22559 216.588 6.49495 215.614 7.98045 213.834C9.12521 211.331 5.79877 211.714 4.86578 213.186C1.27376 216.244 0.747667 197.354 0.622212 195.022Z"
    fill="#00328C"
  />
<path
    fill-rule="evenodd"
    clip-rule="evenodd"
    d="M219.449 245.284C218.484 241.664 215.709 238.022 212.446 236.582C213.68 240.15 216.559 242.956 219.449 245.284ZM177.059 204.459C175.969 208.768 186.145 203.877 189.258 206.684C196.009 208.181 179.142 187.54 177.059 204.459ZM183.245 207.696C179.913 208.084 176.042 207.805 175.408 212.141C175.173 213.361 173.151 217.089 175.62 216.641C182.203 216.504 199.382 207.954 183.245 207.696ZM194.09 216.324C193.962 211.48 192.634 209.42 189.247 213.907C185.307 219.099 173.677 215.782 172.895 221.964C171.942 224.96 186.324 220.612 189.781 222.987C192.456 222.966 194.263 219.008 194.09 216.324ZM171.189 239.679C171.942 247.31 175.968 249.277 180.136 242.08C184.898 237.142 190.597 234.152 197.244 233.23C198.064 233.116 198.435 232.749 198.105 231.852C192.194 220.423 189.501 228.245 181.682 231.986C178.813 235.291 169.835 234.335 171.189 239.679ZM185.545 196.051C185.272 197.675 193.752 202.154 193.009 207.204C195.063 212.361 197.824 218.021 193.558 223.24C192.451 225.171 195.598 225.303 196.284 226.559C200.139 232.443 200.435 232.867 207.311 232.556C210.579 233.781 205.916 224.378 207.002 222.011C204.847 216.931 199.012 215.009 199.106 207.629C198.934 190.801 203.784 195.386 185.545 196.051ZM93.4594 240.108C96.758 238.139 101.164 239.085 103.833 236.169C106.637 236.855 109.602 234.779 112.152 233.484C119.809 231.498 125.986 227.391 132.155 222.542C136.903 218.944 140.58 213.185 140.699 206.86C137.774 202.713 136.156 197.334 133.038 193.308C132.04 191.7 131.094 189.971 130.925 187.989C128.638 185.444 126.599 182.715 124.994 179.689C120.99 173.775 122.036 166.448 122.002 159.277C123.133 158.529 124.485 158.676 125.649 158.428C125.735 156.901 127.243 156.809 127.914 155.889C129.115 153.183 129.929 157.027 130.281 153.768C131.333 153.984 132.259 153.092 132.203 152.158C133.749 149.884 136.399 151.505 137.155 148.426C140.88 147.527 144.909 149.92 148.278 148.531C159.816 150.227 154.356 148.919 156.645 155.356C157.842 153.916 158.554 152.107 159.515 150.491C160.072 150.946 160.388 151.617 161.436 151.047C167.698 151.225 173.769 153.553 180.021 153.996C179.514 154.093 179.007 154.19 178.108 154.362C190.31 158.461 205.488 159.878 212.08 172.425C218.962 179.393 214.451 192.789 212.663 201.523C210.72 200.604 203.268 195.104 201.832 197.391C199.32 204.136 200.062 212.851 205.806 217.545C208.486 218.796 208.383 206.078 215.495 204.747C209.764 212.803 201.448 222.759 219.914 221.922C235.145 219.991 214.287 227.035 209.353 221.616C207.104 221.908 209.486 230.218 210.189 232.293C211.368 233.957 213.483 230.358 214.838 229.867C218.36 227.575 222.985 224.832 227.103 226.003C222.205 228.332 216.383 228.93 212.525 233.554C212.086 234.001 211.964 234.222 212.61 234.567C219.354 237.14 219.451 246.023 224.958 249.305C223.923 250.35 222.589 249.916 221.381 250.104C211.516 242.275 210.616 226.311 204.952 246.935C201.669 247.618 206.844 236.954 208.454 235.679C209.817 233.005 203.306 234.296 201.72 233.798C199.764 233.897 201.069 236.56 200.925 237.817C200.757 242.142 199.791 251.576 194.874 251.708C197.266 248.471 203.11 234.775 196.857 234.588C188.418 236.304 181.589 241.309 176.787 248.561C158.673 246.517 140.753 244.78 122.894 241.574C109.091 238.475 107.473 236.224 93.4594 240.108Z"
    fill="#2B62A5"
  />
<path
    fill-rule="evenodd"
    clip-rule="evenodd"
    d="M114.2 66.6718C114.542 65.6741 115.043 64.9189 114.181 64.468C112.729 65.0426 113.273 65.4651 114.2 66.6718ZM86.7615 62.2114C86.7323 61.3068 85.4328 62.1778 84.8587 62.2159C84.4778 63.9698 86.2485 63.1968 86.7615 62.2114ZM92.7401 62.6007C91.4323 61.7545 89.2802 62.5498 89.8112 64.3043C91.491 66.2468 92.3471 65.0671 92.7401 62.6007ZM82.4177 28.982C83.7247 28.1545 81.8597 27.1279 81.7593 26.441C81.993 25.3658 80.2666 24.326 79.4856 24.6245C81.7002 28.1479 77.8784 26.6599 82.4177 28.982ZM114.876 41.013C110.36 39.6552 113.264 55.0143 112.586 58.3096C111.991 60.1484 119.033 60.1937 118.409 58.3067C118.264 53.8566 118.196 49.3915 118.405 44.9431C118.603 41.121 118.631 41.0802 114.876 41.013ZM85.532 69.4593C84.1193 70.051 84.8149 71.6608 86.0127 71.9153C86.0716 71.3304 86.2027 70.7496 86.0176 70.1767C87.3952 70.4566 88.7784 67.6745 87.2146 66.8373C85.6234 60.797 83.6983 66.0762 85.532 69.4593ZM73.9143 20.6212C72.4468 21.7482 74.7406 21.8549 74.4563 22.6964C74.4457 22.7273 75.033 23.0142 75.3611 23.108C74.9516 19.6851 76.2473 20.3681 77.1566 17.234C75.7458 17.8111 75.0193 19.5561 73.9143 20.6212ZM96.1247 35.072C92.844 39.447 112.796 35.971 116.311 37.0549C126.705 37.4994 137.125 37.045 147.522 37.6408C148.592 37.6927 148.677 37.1897 148.61 36.2948C147.969 25.4501 148.734 14.5525 148.711 3.68964C148.657 1.18184 144.801 3.0091 143.244 2.65276C141.279 3.0734 137.984 2.60865 136.424 3.49838C135.011 5.36954 134.822 2.24036 133.714 3.04847C129.11 4.34379 123.973 2.29003 119.113 3.77043C117.578 4.74589 117.028 3.15935 115.524 3.41223C112.794 4.10719 109.72 2.96397 107.308 4.11482C101.911 4.2731 97.4319 3.8877 92.1475 4.2729C90.9037 4.1954 92.9851 7.63601 92.1802 9.06282C91.6006 9.76397 91.4351 8.96142 91.5182 8.32272C90.2337 6.95526 90.2351 6.95815 90.1128 4.93777C86.3626 3.03383 84.807 8.87053 82.1429 11.4381C84.8254 10.2774 83.2755 12.9979 85.2985 13.6502C83.6529 15.5172 87.3639 21.9604 83.2644 21.087C82.1721 21.3042 81.0706 19.5699 80.7997 18.7037C82.0715 18.303 80.9768 16.7478 80.2881 16.5687C77.6649 15.4875 78.1567 17.1219 79.0312 19.1282C78.6924 19.9495 79.3796 20.2309 79.764 20.6715C79.6933 22.4874 79.1758 24.8398 81.518 23.4567C81.8444 22.4742 83.5783 21.3611 83.9236 22.9118C83.3967 25.3058 84.573 24.0222 85.9743 24.0987C86.5209 25.4769 85.0746 26.462 86.1927 27.7372C85.1488 28.467 86.0549 28.6386 86.5031 28.9414C85.9776 29.8794 84.2021 29.1735 83.2119 29.4913C82.7068 29.7458 82.7727 30.2089 83.4047 30.2365C91.8435 30.9177 81.8893 30.9527 89.0089 35.9599C89.4268 37.4248 90.796 37.1099 91.9298 37.1014C92.6743 36.7995 92.9752 35.5662 94.0704 35.963C94.2483 34.5739 90.8857 34.3937 92.8368 32.8531C94.272 31.1007 96.1871 32.6955 96.9436 30.1972C98.7794 29.7444 97.3861 34.6973 96.1247 35.072ZM112.218 74.5979C109.963 73.413 111.823 78.028 109.585 75.102C109.253 74.7253 108.972 74.3489 108.588 75.0247C107.105 76.0492 108.659 73.1517 106.657 74.2906C105.907 74.3922 106.031 73.4359 106.427 73.209C107.438 73.4172 107.071 72.5334 107.265 72.1076C109.215 71.383 109.164 72.1934 110.558 72.9739C110.455 71.3368 108.686 69.9797 111.872 70.1105C109.309 68.1841 113.144 68.2946 111.14 66.3703C107.897 65.0426 112.409 63.2988 110.914 62.8202C106.294 62.6345 102.176 61.9165 97.3072 62.5259C97.371 63.1417 98.908 63.1065 99.2752 62.7034C100.227 64.8666 97.5293 65.57 97.8832 67.3301C102.999 67.9176 96.5999 62.6529 103.943 65.8583C105.234 64.828 104.024 63.9041 106.702 64.3231C108.245 65.6017 105.425 68.3235 107.507 67.9379C109.156 66.3631 108.801 68.3878 110.308 68.4545C109.787 69.1033 108.95 69.6862 108.811 70.4164C107.981 73.1029 105.769 70.8945 106.43 69.0248C106.31 67.8991 105.41 68.4729 104.879 68.3892C103.858 68.1703 104.604 69.7416 104.068 70.0967C102.503 70.0625 101.017 67.8795 100.112 70.2647C99.4419 71.6554 100.615 73.0614 98.8299 73.3339C97.196 73.3694 96.1247 70.5433 97.9366 70.1245C97.6452 69.5324 97.3319 67.3476 96.6181 68.1559C95.5815 67.754 94.472 68.0932 94.7317 68.5456C95.6297 70.3391 95.608 76.6216 93.7308 73.595C95.4663 71.7303 92.7675 69.4916 90.8671 70.4201C91.8263 72.9357 91.3466 75.8413 89.1453 72.6027C90.5606 71.8574 87.8039 69.918 90.2985 69.5145C90.5946 69.4117 90.9072 69.0034 90.988 68.6742C91.0798 68.0959 90.66 67.4387 90.1619 67.1367C90.9205 66.5564 90.1789 66.3369 89.9159 66.002C88.3118 66.7645 88.8475 68.4846 88.4057 69.9013C88.5541 74.175 90.0496 72.8638 84.9482 72.7445C87.213 74.5926 86.7711 74.4571 86.6321 77.3064C86.7912 78.2149 84.8648 79.0303 84.9321 80.1844C84.496 85.3187 85.8457 90.6325 84.5675 95.5226C84.3592 97.1617 84.4739 97.2116 86.2456 96.994C89.8392 96.7366 93.5058 97.3268 96.5012 95.6018C96.731 98.2574 103.211 95.0758 98.9839 95.677C98.7352 94.8889 99.5519 94.2941 99.7451 94.4606C101.01 95.5515 102.131 93.959 103.304 94.3829C101.165 98.9698 119.222 95.1923 123.184 96.4037C129.972 96.0181 137.35 97.3942 143.859 95.8264C148.896 90.9508 153.875 85.9941 159.1 81.3437C160.473 78.8645 154.532 75.5338 153.388 73.0448C149.794 70.6008 148.336 63.5379 143.727 63.8153C135.758 62.8755 127.675 64.0589 120.083 63.0999L120.1 63.0997C116.08 61.935 115.949 65.9337 119.651 63.4395C120.825 64.0444 119.404 65.7169 121.028 65.6411C120.999 66.2437 120.971 68.2647 120.177 67.4605C119.237 65.8402 117.852 68.0831 119.645 68.3253C119.788 69.5829 118.28 70.1414 117.806 68.896C117.216 66.7229 116.602 70.7094 115.353 68.5407C115.232 69.3366 115.105 70.1287 114.428 70.654C115.556 71.0773 115.762 72.4203 114.218 71.9417C111.912 70.4417 112.275 72.919 112.218 74.5979ZM122.002 159.278C121.96 164.175 121.978 169.072 122.037 173.97C117.562 172.249 118.073 166.088 117.969 161.925C118.753 147.138 118.476 132.262 118.28 117.441C117.447 113.446 120.158 101.862 117.158 100.271C115.827 100.801 112.594 99.5086 112.511 101.545C111.704 120.828 112.871 140.357 111.587 159.571C104.31 152.907 109.156 141.532 107.871 132.381C107.048 127.694 111.423 93.7323 103.812 100.57C96.2053 98.9037 101.297 104.542 97.5753 111.049C95.379 116.924 92.2631 122.381 90.5651 128.515C89.8683 131.032 90.03 133.379 90.3196 135.828C88.8776 138.114 86.3278 136.518 86.7873 134.051C87.1009 121.956 97.8204 111.837 97.0058 100.296C92.9756 100.31 88.2685 100.42 83.9668 99.9389C77.4823 98.4616 82.138 84.0137 80.9758 78.455C81.1798 76.2525 79.1827 77.1243 78.2665 78.096C67.5689 87.0802 65.9159 103.8 69.2145 116.951C70.1806 120.192 71.6369 123.275 72.9369 126.399C73.269 129.863 69.9943 127.016 69.7263 125.12C66.5484 117.875 64.0628 110.197 60.2956 103.27C50.1715 88.1845 28.9166 76.5651 12.2651 86.3315C1.93701 100.415 54.6448 120.707 58.7839 133.918C62.666 137.59 51.6586 145.365 56.1877 138.796C52.6961 139.422 49.9014 142.012 46.7615 143.61C9.42129 161.087 10.1813 115.112 46.7538 128.16C47.8328 128.614 48.5136 131.775 46.7558 130.449C9.86577 121.656 17.9077 157.35 50.2177 137.923C57.5109 133.491 37.5629 137.913 37.8275 134.718C39.0921 131.73 45.0957 133.344 47.9785 132.469C50.4631 132.232 52.5522 133.73 54.3787 135.301C63.1308 133.339 11.2442 105.38 9.10932 95.1121C1.56534 75.8089 34.4122 79.1626 43.6957 84.7798C60.0247 91.4283 65.8807 112.884 65.3442 102.07C65.3859 90.29 70.7333 78.3596 80.6106 73.1787C82.3151 68.9877 78.9789 60.5544 84.8088 59.4526C90.3979 58.1319 105.693 61.7337 108.225 57.3842C108.251 52.5295 108.296 47.6765 108.301 42.8236C108.81 39.392 104.282 41.826 102.368 41.0754C97.8446 40.1575 91.493 42.9101 88.1174 39.1249C83.0021 33.7497 76.8593 29.1656 71.5387 23.9309C65.4238 20.1192 85.4643 1.99737 89.0849 0.746144C108.545 0.303652 128.806 -0.264561 148.905 0.1363C154.926 1.65174 151.234 24.1585 152.528 30.3342C153.696 41.8242 150.326 40.8943 141.007 40.9248C137.104 41.8856 124.07 39.0171 122.785 42.3578C124.268 46.4076 120.4 58.5132 124.362 59.6939C140.733 60.4214 144.508 56.4512 156.243 70.7752C168.349 81.5348 161.445 83.3781 152.337 91.9326C141.724 102.114 143.658 100.301 129.588 100.24C127.469 100.874 122.102 98.7973 121.992 102.013C121.828 111.359 121.622 120.736 122.012 130.02C121.389 139.168 122.024 144.985 121.84 154.734C122.346 156.208 120.632 157.767 122.002 159.278Z"
    fill="#093DB9"
  />
<path
    fill-rule="evenodd"
    clip-rule="evenodd"
    d="M137.155 148.425C130.832 157.001 137.806 134.735 139.462 132.734C143.944 122.09 151.916 113.84 160.603 106.889C196.048 81.8682 215.841 95.2876 178.165 128.254C176.804 130.402 179.808 128.881 182.124 128.043C192.965 124.509 206.802 121.838 216.467 129.719C235.031 151.071 188.683 155.064 176.642 153.36C257.679 145.838 199.46 107.3 166.271 141.614C162.482 145.733 159.587 150.597 156.647 155.356C153.878 147.48 167.455 137.416 171.844 131.208C179.751 121.459 190.622 113.955 196.103 102.283C197.675 88.4229 171.383 102.434 166.217 106.037C151.923 115.199 139.784 130.196 137.155 148.425Z"
    fill="#093DB9"
  />
<path
    fill-rule="evenodd"
    clip-rule="evenodd"
    d="M224.959 249.304C219.451 246.023 219.354 237.143 212.609 234.568C212.162 231.675 219.051 229.022 221.654 227.91C222.903 227.456 229.151 226.501 225.806 225.519C221.86 226.139 218.11 227.353 214.837 229.866C213.477 230.366 211.372 233.943 210.19 232.294C209.473 230.232 207.113 221.885 209.352 221.618C215.541 227.033 225.524 219.342 227.95 225.122C228.955 232.345 233.358 245.975 224.959 249.304Z"
    fill="#E0CE5E"
  />
<path
    fill-rule="evenodd"
    clip-rule="evenodd"
    d="M176.787 248.561C180.137 244.649 182.671 240.195 187.622 238.042C190.397 237.283 198.537 231.654 199.251 236.277C200.279 254.249 189.661 254.149 176.787 248.561Z"
    fill="#E0CE5E"
  />
<path
    fill-rule="evenodd"
    clip-rule="evenodd"
    d="M8.86639 174.728C9.0717 168.638 13.1595 177.343 15.1198 177.967C24.4793 180.708 35.2295 168.236 27.8628 159.547C26.3546 157.186 29.813 156.196 30.946 154.558C35.6491 161.215 35.4556 171.814 32.9719 179.284C27.0813 189.091 13.1994 183.398 8.86639 174.728Z"
    fill="#1D71D8"
  />
<path
    fill-rule="evenodd"
    clip-rule="evenodd"
    d="M196.368 251.791C206.227 240.935 193.853 231.25 208.1 234.257C208.991 234.36 209.116 234.966 208.455 235.679C205.9 238.432 204.904 241.989 203.924 245.545C203.565 248.781 205.714 246.455 205.663 244.606C208.078 237.206 209.496 232.701 214.139 241.95C218.586 248.488 227.468 252.227 213.133 250.836C210.429 250.08 203.335 253.189 204.958 248.347C204.891 247.995 204.282 247.389 203.935 247.973C203.216 249.674 205.588 252.543 202.086 251.469C200.052 250.558 198.561 252.138 196.368 251.791Z"
    fill="#E0CE5E"
  />
<path
    fill-rule="evenodd"
    clip-rule="evenodd"
    d="M225.434 220.978C212.469 224.734 201.403 219.158 214.537 206.731C217.465 201.59 224.947 218.226 225.434 220.978Z"
    fill="#E0CE5E"
  />
<path
    fill-rule="evenodd"
    clip-rule="evenodd"
    d="M215.494 204.746C208.331 206.124 208.533 218.745 205.807 217.546C200.464 213.627 197.815 200.409 203.255 196.797C206.83 198.039 209.506 199.464 212.662 201.523C213.546 202.729 215.596 203.091 215.494 204.746Z"
    fill="#E0CE5E"
  />
<path
    fill-rule="evenodd"
    clip-rule="evenodd"
    d="M93.4595 240.108C93.8566 240.249 94.2539 240.39 94.6512 240.531C90.2552 241.776 85.9099 243.008 81.3169 242.981C88.2364 228.523 63.3674 226.447 62.9061 241C62.9499 245.564 62.2598 245.519 66.8752 245.334C69.7813 245.015 66.793 241.036 69.2845 239.523C72.8106 233.296 86.3878 240.417 78.6043 243.604C80.1596 240.4 77.6159 238.847 74.8698 238.8C70.836 238.576 67.2649 246.118 73.5087 245.213C68.0636 245.906 62.0263 247.206 56.6951 246.45C65.688 246.621 55.9217 239.415 65.3206 232.334C75.6726 223.737 84.1711 231.128 85.6566 242.061C87.3748 242.088 89.019 241.675 90.2626 240.477C91.3117 240.386 92.2145 240.477 93.4595 240.108Z"
    fill="#CCCCCC"
  />
<path
    fill-rule="evenodd"
    clip-rule="evenodd"
    d="M8.86642 174.728C13.1945 183.397 27.0859 189.093 32.9707 179.284C35.4599 171.811 35.6444 161.221 30.9476 154.558C34.0754 150.394 36.8305 163.432 36.7054 166.272C39.9767 183.169 25.976 193.002 12.7702 182.658C11.2047 180.984 3.74231 174.283 8.86642 174.728Z"
    fill="#CCCCCC"
  />
<path
    fill-rule="evenodd"
    clip-rule="evenodd"
    d="M12.6397 170.189C15.3171 167.705 17.5084 164.912 20.4043 162.769C23.6131 163.433 20.252 168.819 18.0983 167.348C18.095 173.356 26.7162 165.423 22.81 161.321C23.9485 160.362 25.4528 159.305 26.4504 161.045C33.8615 170.099 15.2739 183.181 12.6397 170.189Z"
    fill="#1D71D8"
  />
<path
    fill-rule="evenodd"
    clip-rule="evenodd"
    d="M178.195 55.8557C186.595 55.0534 185.752 43.6323 176.697 46.6442C174.049 49.5189 172.574 55.4868 178.195 55.8557ZM180.693 43.3089C192.057 43.947 186.58 61.3326 176.962 59.033C166.389 57.3902 172.739 42.7094 180.693 43.3089Z"
    fill="#093DB9"
  />
<path
    fill-rule="evenodd"
    clip-rule="evenodd"
    d="M12.6397 170.189C15.2743 183.182 33.8629 170.096 26.4496 161.045C25.4481 159.311 23.9523 160.357 22.811 161.32C25.0788 164.606 22.9191 169.158 19.1065 169.413C17.6934 169.449 18.096 168.359 18.0979 167.349C19.9543 167.803 21.0668 167.137 21.6708 164.543C21.8994 163.404 21.4749 162.847 20.4045 162.769C21.9211 160.951 23.573 159.385 26.0034 159.075C27.219 157.224 27.3627 157.657 27.8627 159.547C37.0131 169.076 18.9021 186.063 12.06 174.589C9.55598 171.203 7.46551 173.038 12.6397 170.189Z"
    fill="#CCCCCC"
  />
<path
    fill-rule="evenodd"
    clip-rule="evenodd"
    d="M52.9832 58.7379C51.3798 57.9469 51.1338 55.0626 49.9235 53.927C49.4144 53.5987 47.6694 55.2606 46.7763 55.4319C45.74 55.3806 44.9131 54.7301 45.7208 53.6739C52.5626 49.3914 45.486 48.0816 48.7535 44.7412C51.6351 44.369 50.9931 50.6269 54.299 47.3774C59.6057 43.9846 58.0251 50.2825 53.9747 51.1209C51.8869 52.9962 58.8097 58.3908 52.9832 58.7379Z"
    fill="#093DB9"
  />
<path
    fill-rule="evenodd"
    clip-rule="evenodd"
    d="M129.647 121.776C129.813 123.87 132.854 125.048 132.972 122.516C132.675 119.711 130.809 119.693 129.647 121.776ZM136.303 122.362C136.325 129.201 127.367 128.809 127.15 122.662C127.326 116.622 136.095 114.893 136.303 122.362Z"
    fill="#093DB9"
  />
<path
    fill-rule="evenodd"
    clip-rule="evenodd"
    d="M73.5088 245.213C67.2658 246.117 70.8357 238.576 74.8702 238.8C77.6148 238.849 80.1611 240.4 78.6032 243.603C76.8114 244.535 74.6532 243.192 73.5088 245.213Z"
    fill="#1D71D8"
  />
<path
    fill-rule="evenodd"
    clip-rule="evenodd"
    d="M41.2555 248.253C42.422 247.21 45.7856 248.364 45.3454 246.143C44.9943 244.114 42.3738 237.549 45.1125 237.596C48.5065 239.452 46.5855 246.902 50.4263 247.296C47.542 248.124 44.2063 248.725 41.2555 248.253Z"
    fill="#CCCCCC"
  />
<path
    fill-rule="evenodd"
    clip-rule="evenodd"
    d="M41.4292 145.605C43.2068 144.94 44.9841 144.275 46.7616 143.61C47.5772 146.962 50.3386 150.17 49.4326 153.76C46.8021 152.446 46.314 148.753 44.86 146.307C43.6645 144.252 42.7261 148.859 41.0184 147.332C41.1047 146.743 42.7034 146.552 41.4292 145.605Z"
    fill="#CCCCCC"
  />
<path
    fill-rule="evenodd"
    clip-rule="evenodd"
    d="M0.765684 191.237C1.24128 191.756 0.898577 192.363 1.04497 192.735C1.11524 190.914 7.68551 187.258 8.80091 188.146C9.92434 191.35 -0.681851 197.401 0.765684 191.237Z"
    fill="#CCCCCC"
  />
<path
    fill-rule="evenodd"
    clip-rule="evenodd"
    d="M2.75325 212.327C3.29089 213.938 3.63085 214.079 4.86525 213.186C5.83778 211.703 9.07144 211.347 7.98129 213.835C5.03474 217.437 0.477631 218.734 2.75325 212.327Z"
    fill="#CCCCCC"
  />
<path
    fill-rule="evenodd"
    clip-rule="evenodd"
    d="M122.002 159.278C120.531 157.224 122.411 154.473 122.604 158.209C124.929 158.186 126.459 156.134 128.476 154.98C127.963 156.634 125.886 156.567 125.649 158.427C124.485 158.686 123.132 158.513 122.002 159.278Z"
    fill="#CCCCCC"
  />
<path
    fill-rule="evenodd"
    clip-rule="evenodd"
    d="M0.561158 197.464C1.46812 199.876 0.612045 202.648 1.13305 205.224C0.384425 202.917 -0.660713 199.537 0.561158 197.464Z"
    fill="#CCCCCC"
  />
<path
    fill-rule="evenodd"
    clip-rule="evenodd"
    d="M80.9564 243.005C80.6558 240.841 79.8383 239.063 82.587 239.099C82.2736 240.486 82.9551 243.046 80.9564 243.005Z"
    fill="#1EA7F2"
  />
<path
    fill-rule="evenodd"
    clip-rule="evenodd"
    d="M1.17871 181.374C1.07694 183.717 0.975554 186.06 0.873976 188.402C0.313437 186.062 0.978881 183.72 1.17871 181.374Z"
    fill="#CCCCCC"
  />
<path
    fill-rule="evenodd"
    clip-rule="evenodd"
    d="M51.0393 247.037C52.395 246.505 53.675 245.802 55.1347 246.39C53.8727 247.33 52.4661 247.255 51.0393 247.037Z"
    fill="#CCCCCC"
  />
<path
    fill-rule="evenodd"
    clip-rule="evenodd"
    d="M40.276 149.209C36.7291 150.204 42.184 145.283 40.2507 149.236L40.276 149.209Z"
    fill="#CCCCCC"
  />
<path
    fill-rule="evenodd"
    clip-rule="evenodd"
    d="M130.22 153.802C129.897 154.264 130.101 154.637 130.343 155.069C128.44 155.532 128.264 153.581 130.22 153.802Z"
    fill="#CCCCCC"
  />
<path
    fill-rule="evenodd"
    clip-rule="evenodd"
    d="M2.62122 217.685C3.38511 218.445 3.14085 219.245 2.70342 220.051C2.67602 219.262 2.64862 218.473 2.62122 217.685Z"
    fill="#CCCCCC"
  />
<path
    fill-rule="evenodd"
    clip-rule="evenodd"
    d="M132.289 152.22C131.969 153.239 131.433 153.948 130.281 153.768C130.95 153.252 131.619 152.736 132.289 152.22Z"
    fill="#CCCCCC"
  />
<path
    fill-rule="evenodd"
    clip-rule="evenodd"
    d="M121.904 145.494C121.199 144.312 121.617 143.105 121.831 141.903C121.855 143.101 121.88 144.298 121.904 145.494Z"
    fill="#CCCCCC"
  />
<path
    fill-rule="evenodd"
    clip-rule="evenodd"
    d="M1.15675 205.736C1.34307 206.425 1.52959 207.113 1.71592 207.801C1.05419 207.256 0.672543 206.626 1.15675 205.736Z"
    fill="#CCCCCC"
  />
<path
    fill-rule="evenodd"
    clip-rule="evenodd"
    d="M121.825 140.91C120.708 141.023 120.846 140.857 121.603 140.144C122.144 139.601 121.808 140.54 121.825 140.91Z"
    fill="#CCCCCC"
  />
<path
    fill-rule="evenodd"
    clip-rule="evenodd"
    d="M121.818 150.811C121.861 150.184 121.904 149.556 121.947 148.931C122.684 149.618 122.177 150.209 121.818 150.811Z"
    fill="#CCCCCC"
  />
<path
    fill-rule="evenodd"
    clip-rule="evenodd"
    d="M121.89 126.92C121.885 126.091 121.879 125.261 121.874 124.432C121.879 125.262 121.885 126.091 121.89 126.92Z"
    fill="#CCCCCC"
  />
<path
    fill-rule="evenodd"
    clip-rule="evenodd"
    d="M134.477 150.079C134.967 150.685 133.823 150.648 133.443 150.909C133.788 150.632 134.132 150.355 134.477 150.079Z"
    fill="#CCCCCC"
  />
<path
    fill-rule="evenodd"
    clip-rule="evenodd"
    d="M0.622314 195.022C0.634645 195.396 0.647171 195.77 0.659892 196.144C0.647562 195.77 0.63484 195.396 0.622314 195.022Z"
    fill="#CCCCCC"
  />
<path
    fill-rule="evenodd"
    clip-rule="evenodd"
    d="M121.726 138.459C121.79 137.792 121.854 137.125 121.917 136.458C121.853 137.126 121.79 137.792 121.726 138.459Z"
    fill="#CCCCCC"
  />
<path
    fill-rule="evenodd"
    clip-rule="evenodd"
    d="M30.4392 155.091C30.2085 155.304 29.9779 155.517 29.7477 155.729C29.9785 155.516 30.2089 155.304 30.4392 155.091Z"
    fill="#CCCCCC"
  />
<path
    fill-rule="evenodd"
    clip-rule="evenodd"
    d="M133.12 151.427C132.845 151.688 132.569 151.949 132.294 152.21C132.169 151.48 132.548 151.342 133.12 151.427Z"
    fill="#CCCCCC"
  />
<path
    fill-rule="evenodd"
    clip-rule="evenodd"
    d="M2.71863 220.587C3.21654 221.083 3.55298 221.599 2.91435 222.243C2.84956 221.69 2.784 221.139 2.71863 220.587Z"
    fill="#CCCCCC"
  />
<path
    fill-rule="evenodd"
    clip-rule="evenodd"
    d="M183.389 153.991C183.931 153.943 184.473 153.896 185.015 153.848C184.473 153.896 183.931 153.943 183.389 153.991Z"
    fill="#1EA7F2"
  />
<path
    fill-rule="evenodd"
    clip-rule="evenodd"
    d="M8.88031 173.155C8.80789 173.444 8.73548 173.734 8.66306 174.023C8.15067 173.571 8.18492 173.271 8.88031 173.155Z"
    fill="#CCCCCC"
  />
<path
    fill-rule="evenodd"
    clip-rule="evenodd"
    d="M121.974 147.514C121.895 147.39 121.751 147.29 121.942 147.21C122.157 147.328 122.217 147.381 121.974 147.514Z"
    fill="#CCCCCC"
  />
<path
    fill-rule="evenodd"
    clip-rule="evenodd"
    d="M121.84 132.572C121.848 132.327 121.856 132.082 121.864 131.838C121.856 132.084 121.848 132.328 121.84 132.572Z"
    fill="#CCCCCC"
  />
<path
    fill-rule="evenodd"
    clip-rule="evenodd"
    d="M121.804 128.512C121.839 128.27 121.874 128.029 121.909 127.788C121.874 128.03 121.839 128.271 121.804 128.512Z"
    fill="#CCCCCC"
  />
<path
    fill-rule="evenodd"
    clip-rule="evenodd"
    d="M134.506 148.112C134.485 148.314 134.464 148.517 134.443 148.718C134.464 148.515 134.485 148.313 134.506 148.112Z"
    fill="#CCCCCC"
  />
<path
    fill-rule="evenodd"
    clip-rule="evenodd"
    d="M121.907 153.713C121.934 153.519 121.961 153.325 121.989 153.132C121.962 153.327 121.935 153.52 121.907 153.713Z"
    fill="#CCCCCC"
  />
<path
    fill-rule="evenodd"
    clip-rule="evenodd"
    d="M194.947 251.767C195.102 251.845 195.257 251.923 195.41 252C195.254 251.923 195.1 251.845 194.947 251.767Z"
    fill="#CCCCCC"
  />
<path
    fill-rule="evenodd"
    clip-rule="evenodd"
    d="M0.798788 189.222C0.889601 189.372 1.07534 189.488 0.914262 189.666C0.823252 189.516 0.642409 189.401 0.798788 189.222Z"
    fill="#CCCCCC"
  />
<path
    fill-rule="evenodd"
    clip-rule="evenodd"
    d="M1.06823 189.785C1.16081 189.791 1.25299 189.798 1.34557 189.804C1.23479 189.812 1.05727 189.968 1.06823 189.785Z"
    fill="#CCCCCC"
  />
<path
    fill-rule="evenodd"
    clip-rule="evenodd"
    d="M121.89 154.987C121.766 154.919 121.751 154.845 121.84 154.734C121.967 154.803 121.98 154.87 121.89 154.987Z"
    fill="#CCCCCC"
  />
<path
    fill-rule="evenodd"
    clip-rule="evenodd"
    d="M122.026 130.145C121.93 130.095 121.907 130.081 122.012 130.02C122.089 130.065 122.103 130.086 122.026 130.145Z"
    fill="#CCCCCC"
  />
<path
    fill-rule="evenodd"
    clip-rule="evenodd"
    d="M121.909 135.589C121.77 135.546 121.769 135.479 121.843 135.362C121.973 135.415 121.989 135.47 121.909 135.589Z"
    fill="#CCCCCC"
  />
<path
    fill-rule="evenodd"
    clip-rule="evenodd"
    d="M7.41302 229.593C9.75088 214.997 31.4743 215.9 32.9163 230.721C35.8506 246.385 15.0584 249.854 9.43539 236.725C5.24838 228.864 13.8351 221.562 20.9229 223.474C29.0697 223.926 29.4345 237.777 21.1574 238.194C10.0674 235.925 22.3019 220.465 23.7663 231.833C23.6283 233.988 19.5918 232.635 21.7872 231.494C23.7285 229.745 19.6484 228.037 18.9974 230.408C16.0086 240.588 30.4239 233.123 23.7072 227.485C20.6221 224.552 16.1981 225.225 12.9215 227.354C4.54046 235.217 21.3404 248.1 27.7038 239.697C38.6908 223.947 14.7198 213.246 7.41302 229.593Z"
    fill="#CCCCCC"
  />
<path
    fill-rule="evenodd"
    clip-rule="evenodd"
    d="M103.786 200.802C105.087 214.571 119.299 199.72 111.536 193.243C107.483 190.531 101.266 191.922 98.3052 195.979C90.6446 209.347 107.055 216.916 115.621 206.907C116.855 215.354 104.018 214.876 98.6644 213.108C88.1361 204.593 97.4353 186.107 110.131 190.09C121.656 193.113 114.518 215.008 104.092 207.877C97.758 202.944 105.635 187.336 110.418 197.913C112.421 201.169 106.207 204.468 107.899 200.349C112.206 197.236 103.794 192.642 103.786 200.802Z"
    fill="#CCCCCC"
  />
<path
    fill-rule="evenodd"
    clip-rule="evenodd"
    d="M69.215 146.741C71.5223 158.021 83.02 136.219 67.8412 139.078C62.6379 141.04 63.3871 151.391 66.792 154.499C72.1987 159.575 82.6857 155.151 81.9807 147.054C84.4149 143.91 84.5672 154.298 81.8602 155.486C72.1118 166.143 57.0681 155.738 62.3415 141.672C65.931 131.733 82.5264 137.825 77.2984 147.965C75.9823 152.053 69.2567 155.285 67.4987 150.497C67.2474 147.252 65.5783 141.883 69.5254 140.57C72.6334 140.223 75.8798 143.389 73.1407 145.955C70.6058 148.729 67.6952 144.105 72.1539 143.234C69.15 141.972 68.6989 144.039 69.215 146.741Z"
    fill="#CCCCCC"
  />
<path
    fill-rule="evenodd"
    clip-rule="evenodd"
    d="M62.1108 186.717C60.6946 188.09 60.1961 193.738 62.7101 192.172C66.6646 188.458 61.9879 182.22 57.839 185.281C48.9978 200.066 77.6138 196.849 66.6628 183.761C53.8319 174.64 41.8711 199.419 60.7492 198.549C61.6996 197.443 56.6712 196.743 56.0903 195.136C50.7579 188.252 60.0708 177.804 65.0943 186.599C67.9395 196.874 54.2738 194.557 62.1108 186.717ZM60.4914 201.02C41.9392 202.168 46.6748 178.52 62.2662 179.548C76.8425 180.253 71.3649 200.164 60.4914 201.02Z"
    fill="#CCCCCC"
  />
<path
    fill-rule="evenodd"
    clip-rule="evenodd"
    d="M103.742 148.481C109.476 153.041 104.636 154.428 100.847 157.338C93.9723 164.999 101.782 176.96 111.11 174.191C117.445 171.463 125.858 170.511 114.699 176.162C101.68 181.189 89.9784 166.771 99.8867 155.317C103.307 151.971 105.75 153.834 103.742 148.481Z"
    fill="#CCCCCC"
  />
<path
    fill-rule="evenodd"
    clip-rule="evenodd"
    d="M76.9799 129.518C77.1026 125.976 79.5144 101.716 83.2327 106.056C81.9754 114.191 80.4637 122.373 80.6242 130.678C79.3076 132.558 76.6478 132.147 76.9799 129.518Z"
    fill="#093DB9"
  />
<path
    fill-rule="evenodd"
    clip-rule="evenodd"
    d="M85.8293 171.713C87.2105 172.376 93.0505 172.308 91.3748 175.571C87.9867 176.82 72.8612 171.787 85.8293 171.713Z"
    fill="#CCCCCC"
  />
<path
    fill-rule="evenodd"
    clip-rule="evenodd"
    d="M129.177 203.019C128.796 205.245 127.263 214.566 125.166 207.947C124.827 204.727 128.862 195.401 129.177 203.019Z"
    fill="#CCCCCC"
  />
<path
    fill-rule="evenodd"
    clip-rule="evenodd"
    d="M49.1357 222.928C50.3149 220.162 51.6471 214.971 54.4489 214.923C55.5781 216.705 51.371 227.793 49.1357 222.928Z"
    fill="#CCCCCC"
  />
<path
    fill-rule="evenodd"
    clip-rule="evenodd"
    d="M27.0267 206.548C26.4108 207.629 26.1421 209.054 24.8231 207.902C23.2308 206.144 18.5059 205.48 19.0144 202.412C21.6227 202.194 25.7156 203.891 27.0267 206.548Z"
    fill="#CCCCCC"
  />
<path
    fill-rule="evenodd"
    clip-rule="evenodd"
    d="M104.016 236.172C103.923 236.161 103.742 236.177 103.652 236.204C100.538 235.016 100.281 221.751 103.251 227.752C103.425 230.554 105.387 233.487 104.016 236.172Z"
    fill="#CCCCCC"
  />
<path
    fill-rule="evenodd"
    clip-rule="evenodd"
    d="M85.4455 213.315C83.6729 212.841 74.899 206.399 80.1662 206.52C81.5307 208.366 88.9244 210.996 85.4455 213.315Z"
    fill="#CCCCCC"
  />
<path
    fill-rule="evenodd"
    clip-rule="evenodd"
    d="M49.271 170.467C47.2954 164.585 51.7195 166.21 52.0387 171.051C52.8433 174.39 48.3783 173.105 49.271 170.467Z"
    fill="#CCCCCC"
  />
<path
    fill-rule="evenodd"
    clip-rule="evenodd"
    d="M60.9384 227.452C60.812 229.775 57.1706 228.422 58.0128 226.51C58.48 225.567 59.1924 225.023 60.2121 225.831C59.5598 226.987 59.7396 227.388 60.9384 227.452Z"
    fill="#1EA7F2"
  />
<path
    fill-rule="evenodd"
    clip-rule="evenodd"
    d="M69.215 146.741C68.6987 144.036 69.1514 141.974 72.1539 143.234C68.8248 143.874 70.8015 145.651 69.215 146.741Z"
    fill="#1EA7F2"
  />
<path
    fill-rule="evenodd"
    clip-rule="evenodd"
    d="M43.5793 171.749C42.4277 172.919 42.2261 172.389 41.2927 171.641C42.1369 170.457 42.4721 170.856 43.5793 171.749Z"
    fill="#CCCCCC"
  />
<path
    fill-rule="evenodd"
    clip-rule="evenodd"
    d="M64.8293 164.037C64.5404 163.536 64.4328 163.349 64.325 163.162C65.6214 163.047 63.8591 161.236 65.2182 161.315C66.8298 162.049 66.0788 163.018 64.8293 164.037Z"
    fill="#1EA7F2"
  />
<path
    fill-rule="evenodd"
    clip-rule="evenodd"
    d="M75.3425 185.847C76.1757 186.201 77.1425 186.04 77.6126 186.712C76.6432 187.779 74.4768 187.563 75.3425 185.847Z"
    fill="#1EA7F2"
  />
<path
    fill-rule="evenodd"
    clip-rule="evenodd"
    d="M86.9948 138.443C85.7951 139.355 85.5232 138.479 84.6405 137.842C85.6817 136.333 85.9497 137.511 86.9948 138.443Z"
    fill="#1EA7F2"
  />
<path
    fill-rule="evenodd"
    clip-rule="evenodd"
    d="M81.6967 203.741C83.7155 204.835 81.7922 206.457 81.0087 204.353C80.9927 204.327 81.3706 204.029 81.6967 203.741Z"
    fill="#1EA7F2"
  />
<path
    fill-rule="evenodd"
    clip-rule="evenodd"
    d="M91.0432 137.011C90.9667 136.852 90.8905 136.693 90.814 136.534C92.9315 136.95 91.2414 137.539 92.5365 138.402C92.0363 137.937 91.5397 137.474 91.0432 137.011Z"
    fill="#093DB9"
  />
<path
    fill-rule="evenodd"
    clip-rule="evenodd"
    d="M54.962 152.314C55.9461 153.005 55.9335 153.514 54.9984 154.008C53.938 153.762 54.1885 153.087 54.962 152.314Z"
    fill="#1EA7F2"
  />
<path
    fill-rule="evenodd"
    clip-rule="evenodd"
    d="M49.2596 214.653C47.8725 213.811 50.2541 212.56 50.7367 213.254C50.2754 213.691 49.8143 214.128 49.2596 214.653Z"
    fill="#1EA7F2"
  />
<path
    fill-rule="evenodd"
    clip-rule="evenodd"
    d="M39.3903 222.156C38.5861 221.324 38.7155 221.112 39.3445 220.406C39.9526 221.055 39.9363 221.296 39.3903 222.156Z"
    fill="#CCCCCC"
  />
<path
    fill-rule="evenodd"
    clip-rule="evenodd"
    d="M60.9384 227.452C59.7397 227.388 59.5598 226.987 60.2121 225.831C60.4542 226.371 60.6965 226.911 60.9384 227.452Z"
    fill="#CCCCCC"
  />
<path
    fill-rule="evenodd"
    clip-rule="evenodd"
    d="M55.8344 158.271C56.4641 158.859 56.7985 159.156 56.0182 159.811C55.2572 159.167 54.7314 158.975 55.8344 158.271Z"
    fill="#1EA7F2"
  />
<path
    fill-rule="evenodd"
    clip-rule="evenodd"
    d="M40.2508 149.236C40.2995 149.272 40.3483 149.308 40.3968 149.344C40.3459 149.31 40.2991 149.179 40.2508 149.236Z"
    fill="#CCCCCC"
  />
<path
    fill-rule="evenodd"
    clip-rule="evenodd"
    d="M185.547 196.049C203.814 195.389 198.922 190.805 199.103 207.629C199.017 215.024 204.84 216.918 207.003 222.01C205.919 224.445 210.568 233.688 207.312 232.557C200.398 232.84 200.179 232.492 196.285 226.557C195.597 225.31 192.453 225.163 193.559 223.24C197.828 218.011 195.06 212.367 193.009 207.204C193.237 201.904 187.084 199.186 185.547 196.049Z"
    fill="#E0CE5E"
  />
<path
    fill-rule="evenodd"
    clip-rule="evenodd"
    d="M171.189 239.679C169.817 234.348 178.826 235.281 181.682 231.984C189.587 228.244 192.097 220.374 198.105 231.852C198.435 232.749 198.064 233.116 197.244 233.23C190.597 234.152 184.898 237.142 180.137 242.081C175.987 249.255 171.933 247.328 171.189 239.679Z"
    fill="#E0CE5E"
  />
<path
    fill-rule="evenodd"
    clip-rule="evenodd"
    d="M194.09 216.324C194.273 219.008 192.447 222.964 189.781 222.986C186.2 220.605 171.995 224.964 172.895 221.967C173.637 215.803 185.338 219.08 189.246 213.905C192.617 209.436 193.973 211.469 194.09 216.324Z"
    fill="#E0CE5E"
  />
<path
    fill-rule="evenodd"
    clip-rule="evenodd"
    d="M183.244 207.696C199.384 207.954 182.198 216.505 175.62 216.64C173.14 217.094 175.186 213.356 175.407 212.141C176.043 207.805 179.912 208.084 183.244 207.696Z"
    fill="#E0CE5E"
  />
<path
    fill-rule="evenodd"
    clip-rule="evenodd"
    d="M177.059 204.459C179.15 187.54 196.002 208.177 189.259 206.684C186.11 203.868 176.004 208.777 177.059 204.459Z"
    fill="#E0CE5E"
  />
<path
    fill-rule="evenodd"
    clip-rule="evenodd"
    d="M219.449 245.284C216.56 242.957 213.68 240.15 212.445 236.583C215.71 238.023 218.483 241.663 219.449 245.284Z"
    fill="#CCCCCC"
  />
<path
    fill-rule="evenodd"
    clip-rule="evenodd"
    d="M185.227 196.429C185.082 196.264 184.936 196.098 184.791 195.933C185.248 196.027 185.784 195.929 185.227 196.429Z"
    fill="#CCCCCC"
  />
<path
    fill-rule="evenodd"
    clip-rule="evenodd"
    d="M118.98 170.973C108.751 179.471 91.4891 170.907 100.848 157.337C103.108 155.872 107.274 151.08 108.397 155.748C101.859 155.767 102.004 164.669 106.975 166.993C111.829 170.058 118.216 161.814 118.98 170.973Z"
    fill="#1D71D8"
  />
<path
    fill-rule="evenodd"
    clip-rule="evenodd"
    d="M115.376 165.709C107.902 173.784 96.3744 157.717 108.397 155.748C112.127 158.917 105.455 156.4 105.16 159.594C105.699 172.291 117.028 159.002 115.376 165.709Z"
    fill="#CCCCCC"
  />
<path
    fill-rule="evenodd"
    clip-rule="evenodd"
    d="M109.602 159.634C109.473 159.737 109.475 159.8 109.61 159.895C109.677 159.779 109.773 159.674 109.602 159.634ZM114.271 163.278C111.007 167.363 104.405 165.212 105.16 159.593C105.549 156.124 113.622 157.713 110.555 160.322C107.886 162.007 114.579 160.187 114.271 163.278Z"
    fill="#1D71D8"
  />
<path
    fill-rule="evenodd"
    clip-rule="evenodd"
    d="M88.9696 31.6788C88.6069 30.0908 86.6041 28.8829 89.0377 28.4589C87.6385 30.2243 90.3083 29.4558 90.9141 30.7866C92.5237 29.0826 92.5158 31.6258 93.3966 31.8422C94.0497 32.5877 90.7972 33.7045 93.0486 34.7016C95.4307 35.8782 92.7859 35.945 91.93 37.1018C91.4298 37.2562 90.6673 37.0382 91.1323 36.4339C91.5441 36.2214 92.1109 36.121 91.6014 35.4831C91.2859 35.0883 90.9109 34.7507 90.3443 35.2729C88.8651 36.7715 87.0443 34.6569 86.5583 33.0164C88.7416 34.2025 92.7822 30.9288 88.9696 31.6788Z"
    fill="#CCCCCC"
  />
<path
    fill-rule="evenodd"
    clip-rule="evenodd"
    d="M123.664 12.8707C122.758 13.4309 118.899 15.1493 120.25 12.8833C121.225 12.4933 120.977 12.0688 120.45 11.4295C116.42 6.30731 120.872 8.48927 117.468 4.2488C120.636 2.61691 117.919 6.69457 120.208 7.40787C123.212 9.73039 118.945 9.91135 123.664 12.8707Z"
    fill="#1EA7F2"
  />
<path
    fill-rule="evenodd"
    clip-rule="evenodd"
    d="M110.308 68.4538C110.06 68.4338 109.703 68.5148 109.586 68.3743C108.779 66.2409 108.146 68.2283 106.62 67.9359C108.02 63.9409 104.532 61.8041 110.914 62.8203C110.982 62.823 111.732 63.0994 111.01 63.5687C108.772 64.7133 111.445 66.8446 110.308 68.4538Z"
    fill="#CCCCCC"
  />
<path
    fill-rule="evenodd"
    clip-rule="evenodd"
    d="M124.459 65.8923C124.022 64.9123 124.19 63.1965 122.797 63.4564C123.649 62.6085 124.669 63.8917 125.63 63.8063C127.645 63.3127 129.743 63.017 131.823 63.5458C126.41 63.6289 131.878 66.9079 125.614 66.3902C126.179 65.2882 125.112 65.8123 124.459 65.8923Z"
    fill="#CCCCCC"
  />
<path
    fill-rule="evenodd"
    clip-rule="evenodd"
    d="M97.8412 31.9709C98.6376 31.175 99.3999 32.4678 99.943 32.1278C100.388 31.7714 101.952 28.7109 101.637 30.758C100.74 36.1337 99.9497 32.8792 97.1851 35.1032C95.8809 35.4653 97.7335 32.7817 97.8412 31.9709Z"
    fill="#CCCCCC"
  />
<path
    fill-rule="evenodd"
    clip-rule="evenodd"
    d="M115.377 165.709C115.182 163.674 116.51 162.903 117.97 161.924C117.788 165.088 119.165 168.8 115.377 165.709Z"
    fill="#1EA7F2"
  />
<path
    fill-rule="evenodd"
    clip-rule="evenodd"
    d="M114.353 72.4791C111.724 71.5215 114.135 71.8523 115.527 71.9463C115.165 71.5224 115.059 70.6337 114.428 70.6539C115.58 69.9136 114.862 67.6603 116.241 69.3923C115.411 71.9051 119.196 70.9096 118.719 72.8937C116.859 71.6561 116.436 74.3014 114.353 72.4791Z"
    fill="#1EA7F2"
  />
<path
    fill-rule="evenodd"
    clip-rule="evenodd"
    d="M85.3345 92.8254C88.0399 91.5851 87.7001 96.4389 85.5359 96.548C84.7432 96.753 85.9318 96.8649 86.2483 96.9929C83.1074 97.8453 84.97 94.4208 85.3345 92.8254Z"
    fill="#1EA7F2"
  />
<path
    fill-rule="evenodd"
    clip-rule="evenodd"
    d="M103.662 93.1572C104.419 91.9554 105.913 93.1883 106.34 91.5509C107.196 93.7242 104.315 94.5923 104.953 96.5333C101.888 96.6648 103.246 95.2765 103.662 93.1572Z"
    fill="#CCCCCC"
  />
<path
    fill-rule="evenodd"
    clip-rule="evenodd"
    d="M89.1693 72.6246C87.659 71.1351 88.2361 67.2087 89.9154 66.002C90.1788 66.3367 90.9204 66.5564 90.1618 67.1368C91.0686 67.6255 91.3443 69.0731 90.2982 69.5141C87.7903 69.9156 90.5791 71.86 89.146 72.6027C89.1464 72.6025 89.1693 72.6246 89.1693 72.6246Z"
    fill="#CCCCCC"
  />
<path
    fill-rule="evenodd"
    clip-rule="evenodd"
    d="M82.4178 28.982C77.9413 26.7165 81.6629 28.0927 79.4855 24.6246C80.2588 24.3209 81.9974 25.3699 81.7598 26.441C81.8584 27.1261 83.7266 28.1572 82.4178 28.982Z"
    fill="#CCCCCC"
  />
<path
    fill-rule="evenodd"
    clip-rule="evenodd"
    d="M107.265 72.1076C106.162 70.6454 108.728 72.5979 108.811 70.4162C108.95 69.6862 109.787 69.1033 110.308 68.4537C110.589 68.6112 112.696 70.4224 111.026 70.1142C108.691 70.3224 110.829 71.9151 110.559 72.973C109.157 72.1932 109.228 71.3815 107.265 72.1076Z"
    fill="#CCCCCC"
  />
<path
    fill-rule="evenodd"
    clip-rule="evenodd"
    d="M79.0307 19.1281C78.764 18.1613 78.2099 17.2151 78.1187 16.2285C81.0357 15.9031 83.0878 18.8313 79.0307 19.1281Z"
    fill="#CCCCCC"
  />
<path
    fill-rule="evenodd"
    clip-rule="evenodd"
    d="M110.294 3.79423C111.89 5.37459 110.347 7.65259 109.801 6.17672C109.273 4.32019 108.51 3.09205 107.253 5.22311C107.167 2.97107 108.895 3.65861 110.294 3.79423Z"
    fill="#1EA7F2"
  />
<path
    fill-rule="evenodd"
    clip-rule="evenodd"
    d="M101.248 4.16478C99.823 5.18496 101.531 5.80408 101.651 6.82777C100.943 7.97574 96.3758 2.91623 101.248 4.16478Z"
    fill="#1EA7F2"
  />
<path
    fill-rule="evenodd"
    clip-rule="evenodd"
    d="M86.9597 5.84767C88.25 4.71372 88.8595 5.78275 88.6444 7.28294C86.9358 8.65143 83.8699 6.14198 86.9597 5.84767Z"
    fill="#1EA7F2"
  />
<path
    fill-rule="evenodd"
    clip-rule="evenodd"
    d="M104.915 64.2847C104.97 62.3167 103.447 62.8014 102.424 62.5084C104.62 60.5352 109.237 64.706 104.915 64.2847Z"
    fill="#1EA7F2"
  />
<path
    fill-rule="evenodd"
    clip-rule="evenodd"
    d="M99.7125 65.463C101.654 66.931 98.7633 67.6016 97.8835 67.3304C97.3561 66.4244 99.1649 64.3527 99.7125 65.463Z"
    fill="#CCCCCC"
  />
<path
    fill-rule="evenodd"
    clip-rule="evenodd"
    d="M107.144 78.312C104.028 79.3264 107.048 75.1399 105.942 75.0272C106.779 73.8271 107.146 75.5404 107.818 75.3625C111.575 75.6331 104.342 76.1717 107.144 78.312Z"
    fill="#CCCCCC"
  />
<path
    fill-rule="evenodd"
    clip-rule="evenodd"
    d="M73.9143 20.6211C75.0194 19.5558 75.7459 17.8116 77.1556 17.2337C76.7478 18.6378 75.5513 21.8268 73.9143 20.6211Z"
    fill="#1EA7F2"
  />
<path
    fill-rule="evenodd"
    clip-rule="evenodd"
    d="M90.5829 74.319C91.6165 77.4651 89.8922 74.3877 88.477 74.2962C86.8866 74.0717 88.4529 72.7698 89.1694 72.6245C89.5302 73.074 90.1383 73.7811 90.5829 74.319Z"
    fill="#CCCCCC"
  />
<path
    fill-rule="evenodd"
    clip-rule="evenodd"
    d="M89.0086 35.96C89.9073 35.7665 90.9433 34.3496 91.6015 35.4833C92.1109 36.121 91.5441 36.2214 91.1322 36.4339C90.909 37.7774 89.2838 37.054 89.0086 35.96Z"
    fill="#1EA7F2"
  />
<path
    fill-rule="evenodd"
    clip-rule="evenodd"
    d="M73.9143 20.6211C75.411 20.585 76.4814 24.0357 74.4563 22.6967C74.7407 21.8548 72.4468 21.7483 73.9143 20.6211Z"
    fill="#CCCCCC"
  />
<path
    fill-rule="evenodd"
    clip-rule="evenodd"
    d="M120.101 63.0997C119.066 63.8305 117.226 65.3544 116.671 63.3297C117.744 62.7479 118.948 63.118 120.101 63.0997Z"
    fill="#CCCCCC"
  />
<path
    fill-rule="evenodd"
    clip-rule="evenodd"
    d="M88.0738 73.1561C87.8297 73.6841 87.4907 74.2493 88.4768 74.2965C85.2848 74.9898 83.7858 71.5539 88.0738 73.1561Z"
    fill="#CCCCCC"
  />
<path
    fill-rule="evenodd"
    clip-rule="evenodd"
    d="M86.3431 29.3435C86.9422 31.3436 83.9117 30.2124 82.7665 30.0017C83.5234 28.9082 85.1944 29.6021 86.3431 29.3435Z"
    fill="#1EA7F2"
  />
<path
    fill-rule="evenodd"
    clip-rule="evenodd"
    d="M96.6919 70.922C96.3382 68.3071 97.0586 66.8411 97.9368 70.1242C97.9713 70.2757 97.1293 70.6504 96.6919 70.922Z"
    fill="#1EA7F2"
  />
<path
    fill-rule="evenodd"
    clip-rule="evenodd"
    d="M93.5959 75.4509C93.5776 73.333 96.3043 74.2868 96.4973 75.8175C95.6469 76.7066 94.5775 75.6561 93.5959 75.4509Z"
    fill="#CCCCCC"
  />
<path
    fill-rule="evenodd"
    clip-rule="evenodd"
    d="M87.8565 33.0653C87.0066 33.1131 86.269 32.9756 85.5981 32.3957C86.6588 30.9744 88.5356 30.7972 87.8565 33.0653Z"
    fill="#CCCCCC"
  />
<path
    fill-rule="evenodd"
    clip-rule="evenodd"
    d="M109.031 75.8774C108.333 75.1305 108.863 74.0707 109.585 75.102C111.667 76.331 109.653 78.6228 109.031 75.8774Z"
    fill="#CCCCCC"
  />
<path
    fill-rule="evenodd"
    clip-rule="evenodd"
    d="M84.9264 87.0323C85.6159 85.8926 86.8429 86.0973 87.2177 87.1176C87.2216 87.8287 86.6444 87.9742 85.9445 87.7611C85.0123 88.0583 84.8178 88.433 84.9264 87.0323Z"
    fill="#1EA7F2"
  />
<path
    fill-rule="evenodd"
    clip-rule="evenodd"
    d="M79.0308 19.1281C80.4486 18.597 81.1688 18.713 80.9819 20.2569C80.092 20.8295 78.6712 20.549 79.0308 19.1281Z"
    fill="#1EA7F2"
  />
<path
    fill-rule="evenodd"
    clip-rule="evenodd"
    d="M85.5321 69.4592C86.1868 70.1429 86.1813 71.019 86.0126 71.9155C84.8152 71.661 84.1192 70.051 85.5321 69.4592Z"
    fill="#CCCCCC"
  />
<path
    fill-rule="evenodd"
    clip-rule="evenodd"
    d="M82.16 22.2691C81.2671 21.4764 80.3942 21.5263 80.9426 20.3019C81.2732 20.3872 81.7267 20.7405 81.6539 19.9416C82.3271 21.1178 85.2142 22.3313 82.16 22.2691Z"
    fill="#1EA7F2"
  />
<path
    fill-rule="evenodd"
    clip-rule="evenodd"
    d="M96.7257 35.2195C95.1835 37.0261 97.0066 36.6918 98.4003 37.0138C96.0579 37.5682 93.8555 36.0045 96.7257 35.2195Z"
    fill="#CCCCCC"
  />
<path
    fill-rule="evenodd"
    clip-rule="evenodd"
    d="M86.7615 62.2114C86.2483 63.1972 84.4772 63.9692 84.8583 62.2159C85.4323 62.1774 86.7325 61.3072 86.7615 62.2114Z"
    fill="#CCCCCC"
  />
<path
    fill-rule="evenodd"
    clip-rule="evenodd"
    d="M110.697 67.204C109.935 64.5895 113.531 68.1028 110.602 68.5865C110.761 68.2065 110.639 67.6451 110.697 67.204Z"
    fill="#1D71D8"
  />
<path
    fill-rule="evenodd"
    clip-rule="evenodd"
    d="M101.71 62.4394C100.186 62.4549 98.8888 63.1136 97.3976 62.8796C97.7017 61.7086 100.538 62.5971 101.71 62.4394Z"
    fill="#1EA7F2"
  />
<path
    fill-rule="evenodd"
    clip-rule="evenodd"
    d="M120.666 67.7436C120.816 68.8893 119.949 68.0618 119.645 68.3265C117.735 67.6841 119.081 65.9543 120.666 67.7436Z"
    fill="#CCCCCC"
  />
<path
    fill-rule="evenodd"
    clip-rule="evenodd"
    d="M114.2 66.6718C113.273 65.4649 112.729 65.0422 114.181 64.4682C115.042 64.9208 114.542 65.6722 114.2 66.6718Z"
    fill="#CCCCCC"
  />
<path
    fill-rule="evenodd"
    clip-rule="evenodd"
    d="M97.073 30.048C96.9415 29.1933 96.652 28.6154 97.8193 28.656C97.6492 29.2655 97.9471 30.3493 97.073 30.048Z"
    fill="#CCCCCC"
  />
<path
    fill-rule="evenodd"
    clip-rule="evenodd"
    d="M107.944 100.536C106.77 100.47 105.596 100.404 104.422 100.339C104.964 99.8031 105.406 99.184 106.237 100.087C106.584 100.463 107.362 100.399 107.944 100.536Z"
    fill="#1D71D8"
  />
<path
    fill-rule="evenodd"
    clip-rule="evenodd"
    d="M107.818 75.3626C107.146 75.5403 106.779 73.827 105.943 75.0271C104.897 73.9642 105.762 73.8797 106.658 74.2907C107.921 73.6369 107.961 74.3742 107.818 75.3626Z"
    fill="#CCCCCC"
  />
<path
    fill-rule="evenodd"
    clip-rule="evenodd"
    d="M103.662 93.1572C103.557 93.428 103.612 94.8008 103.305 94.3829C101.88 94.1067 102.826 92.1564 103.662 93.1572Z"
    fill="#CCCCCC"
  />
<path
    fill-rule="evenodd"
    clip-rule="evenodd"
    d="M96.5007 75.5492C95.9331 74.9156 95.4043 74.2549 95.1587 73.4093C96.7239 73.806 96.7239 73.806 96.5007 75.5492Z"
    fill="#1EA7F2"
  />
<path
    fill-rule="evenodd"
    clip-rule="evenodd"
    d="M99.1085 96.3213C98.6789 95.3395 99.7955 95.7055 100.423 95.5981C100.813 96.4419 99.6475 96.1738 99.1085 96.3213Z"
    fill="#CCCCCC"
  />
<path
    fill-rule="evenodd"
    clip-rule="evenodd"
    d="M99.7125 65.463C99.0267 65.0163 99.3277 64.3006 99.3866 63.5912C99.879 64.2488 100.359 64.7276 99.7125 65.463Z"
    fill="#1EA7F2"
  />
<path
    fill-rule="evenodd"
    clip-rule="evenodd"
    d="M86.1924 27.7371C86.7577 28.0067 87.3043 28.2812 86.5033 28.9414C86.0551 28.6386 85.1489 28.4669 86.1924 27.7371Z"
    fill="#1EA7F2"
  />
<path
    fill-rule="evenodd"
    clip-rule="evenodd"
    d="M112.185 74.6258C112.42 75.1134 113.031 75.572 112.259 75.7766C112.245 75.4794 111.63 74.2952 112.185 74.6258Z"
    fill="#CCCCCC"
  />
<path
    fill-rule="evenodd"
    clip-rule="evenodd"
    d="M122.319 63.5398C121.574 63.3932 120.829 63.2465 120.083 63.0999L122.319 63.5398Z"
    fill="#CCCCCC"
  />
<path
    fill-rule="evenodd"
    clip-rule="evenodd"
    d="M112.332 72.7489C112.294 73.3655 112.255 73.9821 112.217 74.5984C112.256 73.9813 112.294 73.3651 112.332 72.7489Z"
    fill="#CCCCCC"
  />
<path
    fill-rule="evenodd"
    clip-rule="evenodd"
    d="M113.379 71.4729C113.102 72.0098 112.97 72.1427 112.609 71.5923C112.866 71.5527 113.122 71.5127 113.379 71.4729Z"
    fill="#CCCCCC"
  />
<path
    fill-rule="evenodd"
    clip-rule="evenodd"
    d="M84.9866 88.6689C84.9657 89.0894 84.9447 89.5098 84.924 89.9298C84.9449 89.5092 84.9659 89.0892 84.9866 88.6689Z"
    fill="#1EA7F2"
  />
<path
    fill-rule="evenodd"
    clip-rule="evenodd"
    d="M108.062 102.622C108.056 102.258 108.05 101.895 108.044 101.532C108.05 101.896 108.056 102.259 108.062 102.622Z"
    fill="#1D71D8"
  />
<path
    fill-rule="evenodd"
    clip-rule="evenodd"
    d="M87.2993 4.66966C87.1547 4.93738 87.0099 5.20511 86.8654 5.47262C87.0101 5.2049 87.1549 4.93718 87.2993 4.66966Z"
    fill="#1EA7F2"
  />
<path
    fill-rule="evenodd"
    clip-rule="evenodd"
    d="M103.251 100.388C102.992 100.431 102.732 100.474 102.473 100.517C102.733 100.474 102.992 100.431 103.251 100.388Z"
    fill="#1D71D8"
  />
<path
    fill-rule="evenodd"
    clip-rule="evenodd"
    d="M83.9921 21.2405C83.754 21.1851 83.5158 21.1298 83.2778 21.0746C83.5158 21.1298 83.754 21.1851 83.9921 21.2405Z"
    fill="#1EA7F2"
  />
<path
    fill-rule="evenodd"
    clip-rule="evenodd"
    d="M96.5984 35.1163C96.4409 35.1015 96.2835 35.0866 96.1252 35.0718C96.354 34.9617 96.9781 34.6392 96.5984 35.1163Z"
    fill="#1EA7F2"
  />
<path
    fill-rule="evenodd"
    clip-rule="evenodd"
    d="M99.4484 37.031C99.4989 37.0378 99.5492 37.0446 99.5981 37.051C99.5306 37.1204 99.4954 37.1188 99.4484 37.031Z"
    fill="#CCCCCC"
  />
<path
    fill-rule="evenodd"
    clip-rule="evenodd"
    d="M110.177 65.9006C110.066 65.7825 109.923 65.7056 110.134 65.6193C110.222 65.6951 110.241 65.7988 110.177 65.9006Z"
    fill="#1D71D8"
  />
<path
    fill-rule="evenodd"
    clip-rule="evenodd"
    d="M103.811 100.57C103.811 100.571 103.81 100.571 103.809 100.572C103.809 100.572 103.811 100.57 103.811 100.57Z"
    fill="#1D71D8"
  />
<path
    fill-rule="evenodd"
    clip-rule="evenodd"
    d="M204.417 251.038C203.754 250.179 203.256 247.966 204.387 247.699C205.401 248.29 204.84 250.272 204.417 251.038Z"
    fill="#1EA7F2"
  />
<path
    fill-rule="evenodd"
    clip-rule="evenodd"
    d="M82.5866 239.098C81.8824 239.25 81.1782 239.402 80.474 239.554C77.0217 234.929 67.227 236.973 68.1706 243.625C68.4142 244.66 68.2393 245.28 66.8753 245.334C62.2599 245.519 62.95 245.564 62.9055 240.999C62.8509 229.887 81.9126 226.246 82.5866 239.098Z"
    fill="#1D71D8"
  />
<path
    fill-rule="evenodd"
    clip-rule="evenodd"
    d="M1.11655 192.07C1.05373 192.263 1.15139 192.9 0.903809 192.639C0.942757 192.456 1.16529 192.223 1.11655 192.07Z"
    fill="#1D71D8"
  />
<path
    fill-rule="evenodd"
    clip-rule="evenodd"
    d="M41.2859 102.83C53.0911 106.568 61.5271 117.516 63.5845 129.412C58.8945 126.794 58.1707 117.157 52.6959 113.805C50.0453 111.572 46.9289 109.552 45.1079 106.531C43.4306 106.449 37.8906 104.129 41.2859 102.83Z"
    fill="#093DB9"
  />
<path
    fill-rule="evenodd"
    clip-rule="evenodd"
    d="M62.1109 186.717C54.2706 194.57 67.947 196.86 65.0932 186.598C60.0693 177.803 50.7574 188.255 56.0904 195.136C56.6675 196.757 61.7022 197.427 60.7494 198.548C41.8649 199.415 53.8408 174.639 66.6639 183.763C77.6104 196.862 48.9971 200.055 57.8391 185.28C61.9891 182.225 66.665 188.455 62.7098 192.172C60.2003 193.735 60.6901 188.095 62.1109 186.717Z"
    fill="#1D71D8"
  />
<path
    fill-rule="evenodd"
    clip-rule="evenodd"
    d="M164.241 122.76C157.771 130.543 151.684 138.359 146.539 147.194C137.532 152.734 161.041 118.478 164.241 122.76Z"
    fill="#093DB9"
  />
<path
    fill-rule="evenodd"
    clip-rule="evenodd"
    d="M172.585 149.322C172.809 144.86 197.766 133.494 193.873 140.4C186.176 141.878 179.795 146.022 172.585 149.322Z"
    fill="#093DB9"
  />
<path
    fill-rule="evenodd"
    clip-rule="evenodd"
    d="M99.3555 22.1873C98.7413 24.2242 97.5582 20.826 97.2212 19.9932C98.3096 19.1974 98.1105 18.757 96.8902 18.5769C95.9682 18.4406 94.9095 17.9138 94.6367 19.5391C94.8083 20.7294 92.9958 22.6302 93.0453 20.7026C94.4801 19.6982 93.0416 19.434 92.6531 18.9085C93.8532 17.8415 92.4343 16.9062 91.9143 15.5886C89.8665 13.3444 93.6532 15.8083 94.4001 14.4537C96.1392 13.8321 99.9076 12.9599 95.9956 15.2721C96.289 15.8518 96.5884 16.4291 96.8747 17.0134C97.4231 18.2694 99.8925 15.0344 98.9593 19.9056C98.5023 20.7792 98.9372 21.4818 99.3555 22.1873Z"
    fill="#1EA7F2"
  />
<path
    fill-rule="evenodd"
    clip-rule="evenodd"
    d="M89.943 23.601C88.3722 23.2195 87.9784 22.0219 87.3977 20.6375C86.6062 20.1849 85.1571 19.7902 87.3601 19.2362C87.9968 18.1823 86.8497 16.5928 86.7375 15.3977C87.2677 15.051 88.3665 16.2581 88.454 14.701C88.382 17.2113 89.3938 19.4718 91.8479 20.6181C90.6235 22.7787 90.1086 20.9992 88.6912 21.3675C88.9215 22.5412 89.5666 22.1494 90.3662 21.9386C91.2972 23.1876 91.7808 23.292 89.943 23.601Z"
    fill="#1EA7F2"
  />
<path
    fill-rule="evenodd"
    clip-rule="evenodd"
    d="M88.454 14.7011C88.3667 16.2582 87.2677 15.0511 86.7373 15.3975C85.272 16.7578 85.2414 13.7016 85.2293 12.7236C85.314 12.1791 84.7007 10.6222 86.1871 11.9264C86.2232 8.82095 90.4922 7.34075 88.5285 11.3067C87.906 12.6692 86.8702 13.7224 88.454 14.7011Z"
    fill="#093DB9"
  />
<path
    fill-rule="evenodd"
    clip-rule="evenodd"
    d="M89.0376 28.4589C86.5111 29.9121 88.8713 26.922 87.4523 25.5119C87.147 24.2875 89.2508 24.1933 89.9726 23.5614C89.1879 30.4836 92.4883 20.8875 91.9783 26.4035C90.6639 26.8297 90.5237 28.4397 89.0376 28.4589Z"
    fill="#1EA7F2"
  />
<path
    fill-rule="evenodd"
    clip-rule="evenodd"
    d="M102.289 15.0018C101.57 15.1506 101.497 14.7405 101.461 14.1061C101.416 13.3131 101.927 13.8164 102.146 13.6735C102.969 13.1335 103.756 12.5303 104.554 11.951C109.95 12.9767 104.636 14.1391 102.289 15.0018Z"
    fill="#1EA7F2"
  />
<path
    fill-rule="evenodd"
    clip-rule="evenodd"
    d="M96.8977 10.788C96.675 12.0633 97.9464 12.0883 98.0852 13.0439C96.3253 14.8215 91.4752 11.5547 94.9233 9.9776C95.3328 10.9191 95.9972 11.1719 96.8977 10.788Z"
    fill="#1EA7F2"
  />
<path
    fill-rule="evenodd"
    clip-rule="evenodd"
    d="M96.8977 10.788C95.7424 11.5349 94.0663 9.85333 95.6927 9.24246C93.3815 8.93393 93.784 5.08154 96.2573 7.67219C96.4955 9.49946 97.9125 9.43949 96.8977 10.788Z"
    fill="#093DB9"
  />
<path
    fill-rule="evenodd"
    clip-rule="evenodd"
    d="M115.296 17.4913C115.005 16.9122 114.934 16.1389 115.568 15.8621C117.108 15.1937 116.339 13.3562 118.637 14.4773C118.304 15.3648 116.913 15.3028 117.723 16.1943C117.427 16.554 117.227 16.975 117.029 17.3994C116.654 18.4422 113.552 19.2685 115.296 17.4913Z"
    fill="#093DB9"
  />
<path
    fill-rule="evenodd"
    clip-rule="evenodd"
    d="M101.325 21.6719C100.079 22.6534 100.087 21.6849 100.116 20.2903C100.322 19.9345 99.0694 18.7004 100.714 19.1765C100.734 18.7789 101.152 18.2891 101.662 18.2662C101.709 19.6915 103.882 19.5811 103.603 21.242C102.77 20.95 101.929 20.6206 101.325 21.6719Z"
    fill="#1EA7F2"
  />
<path
    fill-rule="evenodd"
    clip-rule="evenodd"
    d="M105.796 31.5436C106.682 32.0638 109.455 32.2118 108.472 33.2072C107.092 32.464 100.624 35.057 105.796 31.5436Z"
    fill="#CCCCCC"
  />
<path
    fill-rule="evenodd"
    clip-rule="evenodd"
    d="M96.9243 16.1886C97.3627 16.695 97.5725 15.7008 97.0599 15.5676C96.7425 15.6004 96.7846 15.9504 96.9243 16.1886ZM98.099 16.8691C97.0683 18.3873 96.5605 16.2181 95.9954 15.2713C97.3788 14.5536 98.592 13.0097 99.4638 15.2966C98.7727 15.9491 97.0239 15.594 98.099 16.8691Z"
    fill="#CCCCCC"
  />
<path
    fill-rule="evenodd"
    clip-rule="evenodd"
    d="M106.321 12.3226C103.631 12.0298 105.673 11.7971 105.282 9.83484C105.095 9.3299 105.455 8.60093 105.567 7.97336C106.852 8.08424 107.077 11.1182 106.321 12.3226Z"
    fill="#CCCCCC"
  />
<path
    fill-rule="evenodd"
    clip-rule="evenodd"
    d="M123.664 12.8707C123.036 12.1349 124.997 11.9175 125.502 11.7887C125.034 12.8107 125.312 14.8272 126.35 13.2561C126.544 12.9336 126.551 12.3138 127.048 12.8952C127.486 15.6227 124.355 14.7421 123.664 12.8707Z"
    fill="#CCCCCC"
  />
<path
    fill-rule="evenodd"
    clip-rule="evenodd"
    d="M111.299 21.9777C110.407 21.2833 107.289 18.8915 109.363 18.3172C110.433 19.5838 111.941 19.8103 111.299 21.9777Z"
    fill="#CCCCCC"
  />
<path
    fill-rule="evenodd"
    clip-rule="evenodd"
    d="M114.215 18.6046C112.707 20.3719 113.565 17.0403 110.444 17.3767C110.714 16.3664 112.247 16.4309 112.94 16.5785C114.159 16.98 112.732 18.9336 114.242 18.6353C114.242 18.6351 114.215 18.6046 114.215 18.6046Z"
    fill="#CCCCCC"
  />
<path
    fill-rule="evenodd"
    clip-rule="evenodd"
    d="M101.325 21.6719C101.676 20.2237 105.108 21.377 103.761 22.1212C101.099 23.9821 101.66 24.4837 101.325 21.6719Z"
    fill="#CCCCCC"
  />
<path
    fill-rule="evenodd"
    clip-rule="evenodd"
    d="M116.466 14.2351C117.013 15.7244 115.543 15.5137 114.99 16.5479C114.436 15.9595 115.368 14.6224 114.027 14.4305C114.582 14.4062 115.794 12.7702 116.466 14.2351Z"
    fill="#1EA7F2"
  />
<path
    fill-rule="evenodd"
    clip-rule="evenodd"
    d="M126.756 7.57846C126.264 7.40101 124.053 8.0393 124.77 7.03436C124.008 4.52141 126.818 5.9678 126.756 7.57846Z"
    fill="#1EA7F2"
  />
<path
    fill-rule="evenodd"
    clip-rule="evenodd"
    d="M104.062 16.1667C103.47 16.6436 102.942 17.6337 102.083 16.7588C101.542 16.2075 101.316 17.9688 101.077 16.8965C100.818 15.7304 101.857 15.845 102.567 15.7506C103.317 14.8854 103.469 16.4029 104.062 16.1667Z"
    fill="#1EA7F2"
  />
<path
    fill-rule="evenodd"
    clip-rule="evenodd"
    d="M106.398 24.148C105.428 25.5408 105.156 25.3302 104.799 23.8168C105.037 22.5077 105.713 23.5283 106.398 24.148Z"
    fill="#1EA7F2"
  />
<path
    fill-rule="evenodd"
    clip-rule="evenodd"
    d="M96.9981 10.7631C96.8941 10.3244 97.8297 9.90824 96.9452 9.38414C94.971 5.50928 101.867 10.3753 96.9981 10.7631Z"
    fill="#CCCCCC"
  />
<path
    fill-rule="evenodd"
    clip-rule="evenodd"
    d="M100.93 18.5147C100.555 20.1099 99.3936 17.8697 100.117 20.2907C97.7277 20.2565 99.5845 15.5331 100.93 18.5147Z"
    fill="#093DB9"
  />
<path
    fill-rule="evenodd"
    clip-rule="evenodd"
    d="M104.062 16.1667C101.904 15.2314 101.821 15.0727 104.333 14.0781C104.434 14.8056 105.363 16.3099 104.062 16.1667Z"
    fill="#093DB9"
  />
<path
    fill-rule="evenodd"
    clip-rule="evenodd"
    d="M116.227 7.46647C114.02 6.61631 114.401 6.60539 116.21 5.67547C117.66 4.84345 116.575 6.96936 116.227 7.46647Z"
    fill="#CCCCCC"
  />
<path
    fill-rule="evenodd"
    clip-rule="evenodd"
    d="M135.144 7.90473C134.753 8.82579 134.023 8.1941 133.532 7.88103C132.739 5.96679 134.307 7.09436 135.144 7.90473Z"
    fill="#1EA7F2"
  />
<path
    fill-rule="evenodd"
    clip-rule="evenodd"
    d="M92.0647 16.1767C93.2457 17.1538 93.5195 18.4057 92.4783 18.925C91.7342 18.3622 91.3932 17.0298 92.0647 16.1767Z"
    fill="#CCCCCC"
  />
<path
    fill-rule="evenodd"
    clip-rule="evenodd"
    d="M126.756 7.57846C126.55 7.0562 127.555 7.90182 128.113 7.30002C128.266 9.31174 126.1 10.1174 126.756 7.57846Z"
    fill="#CCCCCC"
  />
<path
    fill-rule="evenodd"
    clip-rule="evenodd"
    d="M97.7968 7.97808C97.3774 7.84721 96.2571 8.25982 96.2571 7.67244C97.3021 6.04529 98.1227 5.83384 97.7968 7.97808Z"
    fill="#CCCCCC"
  />
<path
    fill-rule="evenodd"
    clip-rule="evenodd"
    d="M90.6699 12.5761C90.8216 11.0658 92.0863 11.007 91.8589 12.6198C92.1343 14.5051 90.786 13.2444 90.6699 12.5761Z"
    fill="#1EA7F2"
  />
<path
    fill-rule="evenodd"
    clip-rule="evenodd"
    d="M95.8625 28.6019C94.5266 27.9084 95.6367 27.0502 95.8312 26.017C97.1143 26.7581 96.2958 27.496 95.8625 28.6019Z"
    fill="#CCCCCC"
  />
<path
    fill-rule="evenodd"
    clip-rule="evenodd"
    d="M87.0757 9.25283C86.4294 12.1598 85.5301 10.5599 85.6203 8.38887C86.0675 8.76294 86.501 9.13721 87.0757 9.25283Z"
    fill="#1EA7F2"
  />
<path
    fill-rule="evenodd"
    clip-rule="evenodd"
    d="M87.9849 12.4525C88.7954 10.7987 90.8667 11.8317 89.7123 13.8651C89.1619 13.0537 89.1608 12.2295 87.9849 12.4525Z"
    fill="#1EA7F2"
  />
<path
    fill-rule="evenodd"
    clip-rule="evenodd"
    d="M116.205 18.2243C116.983 17.2901 116.965 18.9951 117.348 19.6371C116.023 19.504 114.707 19.6786 116.205 18.2243Z"
    fill="#CCCCCC"
  />
<path
    fill-rule="evenodd"
    clip-rule="evenodd"
    d="M98.5877 10.2437C98.6831 8.63198 101.479 10.9092 99.9818 11.3459C99.4661 11.1 99.0299 10.6239 98.5877 10.2437Z"
    fill="#1EA7F2"
  />
<path
    fill-rule="evenodd"
    clip-rule="evenodd"
    d="M101.392 23.853C102.587 23.2203 102.401 24.3859 101.917 25.1522C101.038 25.3501 101.105 24.5673 101.392 23.853Z"
    fill="#1EA7F2"
  />
<path
    fill-rule="evenodd"
    clip-rule="evenodd"
    d="M98.9593 19.9052C100.441 20.0198 100.478 21.3932 99.3546 22.189C98.9374 21.4817 98.5023 20.7793 98.9593 19.9052Z"
    fill="#CCCCCC"
  />
<path
    fill-rule="evenodd"
    clip-rule="evenodd"
    d="M91.5663 17.268C92.0478 18.2325 92.6389 19.3401 91.2238 18.9564C90.9371 18.3667 90.7549 17.6676 91.5663 17.268Z"
    fill="#1EA7F2"
  />
<path
    fill-rule="evenodd"
    clip-rule="evenodd"
    d="M113.565 8.89697C113.901 9.31741 115.312 9.96147 114.452 10.1766C113.932 9.75517 112.608 9.6447 113.565 8.89697Z"
    fill="#CCCCCC"
  />
<path
    fill-rule="evenodd"
    clip-rule="evenodd"
    d="M125.502 11.7885C124.091 12.2615 123.989 11.9668 124.308 10.5175C124.706 10.9414 125.104 11.365 125.502 11.7885Z"
    fill="#1EA7F2"
  />
<path
    fill-rule="evenodd"
    clip-rule="evenodd"
    d="M97.1858 35.1039C97.7837 34.2802 98.5762 34.0574 99.5096 34.2694C99.0414 35.4935 98.1789 35.4998 97.1858 35.1039Z"
    fill="#1EA7F2"
  />
<path
    fill-rule="evenodd"
    clip-rule="evenodd"
    d="M105.567 7.97336C105.427 7.47996 104.32 6.51975 104.988 6.31592C105.12 6.82127 105.919 7.58589 105.567 7.97336Z"
    fill="#CCCCCC"
  />
<path
    fill-rule="evenodd"
    clip-rule="evenodd"
    d="M89.9216 13.1208C89.8862 12.5012 90.6596 12.296 90.8197 12.9025C90.7966 13.2622 90.1833 13.0336 89.9216 13.1208Z"
    fill="#CCCCCC"
  />
<path
    fill-rule="evenodd"
    clip-rule="evenodd"
    d="M116.204 18.2243C115.756 18.7218 115.497 19.5405 115.049 18.6141C115.434 18.4842 115.819 18.3544 116.204 18.2243Z"
    fill="#1EA7F2"
  />
<path
    fill-rule="evenodd"
    clip-rule="evenodd"
    d="M96.6818 13.4735C96.9299 13.5219 97.7948 13.1543 97.6431 13.6151C97.3597 13.5386 96.7978 13.7585 96.6818 13.4735Z"
    fill="#CCCCCC"
  />
<path
    fill-rule="evenodd"
    clip-rule="evenodd"
    d="M117.745 16.1513C117.391 15.7393 117.165 15.3689 117.982 15.3345C117.903 15.6072 117.824 15.8792 117.745 16.1513Z"
    fill="#1EA7F2"
  />
<path
    fill-rule="evenodd"
    clip-rule="evenodd"
    d="M97.8052 7.94356C97.9127 7.79084 98.0201 7.63812 98.1274 7.4852C98.0201 7.63771 97.9127 7.79064 97.8052 7.94356Z"
    fill="#CCCCCC"
  />
<path
    fill-rule="evenodd"
    clip-rule="evenodd"
    d="M94.9797 9.21448C95.2173 9.22375 95.4549 9.23303 95.6927 9.24251C95.3718 9.4146 95.1085 9.73281 94.9797 9.21448Z"
    fill="#1EA7F2"
  />
<path
    fill-rule="evenodd"
    clip-rule="evenodd"
    d="M90.7143 11.2382C90.1596 11.2737 90.3974 10.7832 90.7403 11.2141C90.7403 11.2139 90.7143 11.2382 90.7143 11.2382Z"
    fill="#CCCCCC"
  />
<path
    fill-rule="evenodd"
    clip-rule="evenodd"
    d="M91.1118 11.4023C91.0132 11.5956 90.9147 11.7889 90.8173 11.9818C90.7816 11.557 90.5372 10.9929 91.1118 11.4023Z"
    fill="#CCCCCC"
  />
<path
    fill-rule="evenodd"
    clip-rule="evenodd"
    d="M115.296 17.4913C115.174 17.604 115.053 17.7168 114.931 17.8289C114.71 17.4929 115.059 17.5626 115.296 17.4913Z"
    fill="#1EA7F2"
  />
<path
    fill-rule="evenodd"
    clip-rule="evenodd"
    d="M115.364 19.4423C115.325 19.5851 115.286 19.7277 115.247 19.8706C115.275 19.7294 115.375 19.5725 115.364 19.4423Z"
    fill="#CCCCCC"
  />
<path
    fill-rule="evenodd"
    clip-rule="evenodd"
    d="M101.354 21.8299C101.974 21.9996 101.795 22.1195 101.36 22.4501C101.358 22.244 101.356 22.0369 101.354 21.8299Z"
    fill="#1EA7F2"
  />
<path
    fill-rule="evenodd"
    clip-rule="evenodd"
    d="M91.9373 26.4358C92.0093 26.5276 92.0814 26.6193 92.1534 26.7108C92.0804 26.637 92.0262 26.3703 91.9373 26.4358Z"
    fill="#1EA7F2"
  />
<path
    fill-rule="evenodd"
    clip-rule="evenodd"
    d="M114.674 18.5014C114.54 18.5595 114.365 18.5638 114.215 18.6044C114.339 18.6642 114.526 18.5195 114.674 18.5014Z"
    fill="#1EA7F2"
  />
<path
    fill-rule="evenodd"
    clip-rule="evenodd"
    d="M116.896 17.6271L116.881 17.4597C117.155 17.3251 117.175 17.5848 116.896 17.6271Z"
    fill="#1EA7F2"
  />
<path
    fill-rule="evenodd"
    clip-rule="evenodd"
    d="M117.393 16.6514C117.503 16.4989 117.613 16.3464 117.723 16.1943C117.613 16.3468 117.503 16.4991 117.393 16.6514Z"
    fill="#1EA7F2"
  />
<path
    fill-rule="evenodd"
    clip-rule="evenodd"
    d="M97.9798 13.1942C97.9255 13.0739 97.9809 13.0543 98.0853 13.044C98.0948 13.1334 98.0692 13.1874 97.9798 13.1942Z"
    fill="#CCCCCC"
  />
<path
    fill-rule="evenodd"
    clip-rule="evenodd"
    d="M105.295 74.1586C108.249 76.8317 103.802 75.1065 103.36 77.47C103.881 79.4073 102.151 77.1357 102.102 78.8049C102.047 79.6734 102.305 80.1377 103.2 79.9945C103.37 81.8339 101.988 80.6421 102.867 83.2954C100.847 84.9069 100.72 82.4471 98.8626 83.1967C96.5878 84.6513 96.7203 81.7888 99.0027 82.5176C101.017 82.0238 96.5245 78.2377 101.438 75.3631C102.795 74.3346 102.873 74.4496 101.929 73.1378C106.126 72.2071 101.048 77.1965 105.295 74.1586Z"
    fill="#093DB9"
  />
<path
    fill-rule="evenodd"
    clip-rule="evenodd"
    d="M91.8985 80.0204C91.994 82.583 91.7439 84.921 92.5217 87.4399C91.2501 86.5209 91.0585 84.9226 89.5653 84.5086C88.5818 83.1314 88.8529 85.984 88.173 84.4335C88.3157 82.4055 84.8479 81.1786 88.2472 80.7044C88.6024 80.6793 89.121 82.3385 89.3179 80.5884C89.7381 79.7992 91.1191 80.0544 91.8985 80.0204Z"
    fill="#093DB9"
  />
<path
    fill-rule="evenodd"
    clip-rule="evenodd"
    d="M95.8108 87.3968C96.4521 90.6167 91.7345 98.0366 92.8476 93.3386C93.149 93.1134 91.6989 92.7607 92.5769 92.0655C92.6376 92.0173 92.6182 91.8566 92.6358 91.7482C91.2907 92.9959 91.5322 90.7113 90.7119 90.7898C91.082 89.9827 91.4521 89.1756 91.7809 88.4588C91.3652 89.5862 93.5017 90.3584 92.6397 88.9908C93.3099 87.6328 93.7546 89.2608 94.4104 88.2255C94.877 87.9491 95.344 87.673 95.8108 87.3968Z"
    fill="#093DB9"
  />
<path
    fill-rule="evenodd"
    clip-rule="evenodd"
    d="M137.69 74.2462C136.761 74.259 135.298 74.8863 134.739 73.8319C134.512 72.937 135.974 73.7625 136.131 72.8626C136.722 70.9616 138.448 70.1539 140.218 69.9171C141.685 69.2904 141.408 71.1751 142.621 71.3849C143.772 72.1722 140.549 73.4381 139.979 73.2536C139.276 71.3721 137.993 72.908 137.3 73.03C136.347 73.1724 137.439 73.902 137.69 74.2462Z"
    fill="#CCCCCC"
  />
<path
    fill-rule="evenodd"
    clip-rule="evenodd"
    d="M93.5959 75.4509C95.868 75.8008 96.2291 77.8802 96.6358 79.9467C94.8233 78.8737 93.4151 82.5613 92.4465 80.0941C92.4259 80.0194 92.0885 80.0425 91.8985 80.0203C89.4669 78.01 94.3399 78.6524 93.2707 76.5112C93.1487 76.3227 93.476 75.8126 93.5959 75.4509Z"
    fill="#093DB9"
  />
<path
    fill-rule="evenodd"
    clip-rule="evenodd"
    d="M131.444 89.2348C130.17 90.5087 129.051 91.194 129.688 88.8931C132.229 88.0231 130.502 88.0017 129.509 87.8309C129.172 86.4162 133.103 87.2319 131.071 86.0939C130.974 83.7516 133.77 87.936 133.462 89.0862C132.75 89.5827 132.442 90.4211 131.444 89.2348Z"
    fill="#CCCCCC"
  />
<path
    fill-rule="evenodd"
    clip-rule="evenodd"
    d="M116.291 73.4078C117.394 74.1098 117.499 74.6553 118.872 73.3996C118.993 75.7604 115.976 78.0691 113.964 79.3741C113.561 75.5176 116.251 78.0417 116.291 73.4078Z"
    fill="#CCCCCC"
  />
<path
    fill-rule="evenodd"
    clip-rule="evenodd"
    d="M107.212 82.8677C102.573 81.1091 109.22 78.337 108.552 82.0433C108.373 82.798 108.117 83.4182 107.212 82.8677Z"
    fill="#093DB9"
  />
<path
    fill-rule="evenodd"
    clip-rule="evenodd"
    d="M109.031 75.8774C109.884 76.8407 109.313 78.3903 110.437 78.9664C110.59 79.0041 110.631 79.5362 110.723 79.8402C109.437 79.8816 109.352 78.4913 108.795 77.5855C107.763 76.2477 108.405 79.4389 107.145 78.3124C105.349 76.6519 107.773 76.055 109.031 75.8774Z"
    fill="#1EA7F2"
  />
<path
    fill-rule="evenodd"
    clip-rule="evenodd"
    d="M103.2 79.9945C101.682 80.4728 101.732 77.4391 103.157 78.2797C103.568 78.3708 103.458 78.2804 103.36 77.4698C103.469 76.3204 104.94 75.9842 105.913 75.9455C106.111 78.2824 103.725 77.936 103.2 79.9945Z"
    fill="#1EA7F2"
  />
<path
    fill-rule="evenodd"
    clip-rule="evenodd"
    d="M116.291 73.4078C116.056 74.1609 115.98 75.09 115.587 75.6741C117.236 75.1071 114.818 77.631 114.921 76.2342C112.932 74.7073 114.086 71.368 116.291 73.4078Z"
    fill="#CCCCCC"
  />
<path
    fill-rule="evenodd"
    clip-rule="evenodd"
    d="M94.6703 84.4593C94.3251 80.8483 94.9819 84.2244 95.9466 81.5092C96.1141 83.6046 98.7917 86.795 94.6703 84.4593Z"
    fill="#1EA7F2"
  />
<path
    fill-rule="evenodd"
    clip-rule="evenodd"
    d="M120.828 95.5275C120.265 94.2268 118.876 94.0541 119.354 93.2031C119.884 92.0399 120.638 92.7522 121.331 92.8311C124.042 92.9031 121.068 93.8076 121.364 95.0143C121.387 95.0958 121.103 95.2711 120.828 95.5275Z"
    fill="#CCCCCC"
  />
<path
    fill-rule="evenodd"
    clip-rule="evenodd"
    d="M93.3656 88.2031C92.4048 88.6845 93.2807 89.6305 92.4007 89.7639C91.9862 89.7534 91.703 88.7736 91.7809 88.4589C91.4523 89.1757 91.082 89.9828 90.7119 90.7898C90.7817 87.7981 90.7743 84.9424 93.3656 88.2031Z"
    fill="#1EA7F2"
  />
<path
    fill-rule="evenodd"
    clip-rule="evenodd"
    d="M105.329 90.6434C103.816 88.8697 106.271 85.5633 106.868 87.833C103.851 87.5216 108.671 90.4853 105.329 90.6434Z"
    fill="#CCCCCC"
  />
<path
    fill-rule="evenodd"
    clip-rule="evenodd"
    d="M100.379 86.4211C102.905 87.0398 99.9371 88.644 99.5431 86.7467C98.7481 86.8557 97.8934 87.1754 98.2692 85.7096C98.7606 84.054 100.011 85.7766 100.379 86.4211Z"
    fill="#093DB9"
  />
<path
    fill-rule="evenodd"
    clip-rule="evenodd"
    d="M134 76.6613C132.501 78.0861 133.69 81.5646 131.712 78.9611C131.958 78.3503 131.987 77.9779 131.336 77.7404C131.749 76.2947 133.112 77.841 134 76.6613Z"
    fill="#CCCCCC"
  />
<path
    fill-rule="evenodd"
    clip-rule="evenodd"
    d="M89.7534 95.9372C87.2557 95.4679 91.134 94.0922 89.251 93.0883C91.1984 91.2866 90.6316 94.924 89.7534 95.9372Z"
    fill="#1EA7F2"
  />
<path
    fill-rule="evenodd"
    clip-rule="evenodd"
    d="M131.002 81.838C130.203 82.7481 129.74 84.0975 128.414 84.1651C128.042 82.6018 129.584 81.399 131.002 81.838Z"
    fill="#CCCCCC"
  />
<path
    fill-rule="evenodd"
    clip-rule="evenodd"
    d="M92.5933 78.1166C91.1254 79.0625 90.5613 78.4756 88.8613 77.6293C90.3632 77.6306 90.9093 77.2843 90.0393 76.2143C92.7776 74.381 89.8906 78.322 92.5933 78.1166Z"
    fill="#1EA7F2"
  />
<path
    fill-rule="evenodd"
    clip-rule="evenodd"
    d="M94.6703 84.4593C96.5241 85.306 94.6253 86.5038 93.5296 85.3902C91.8077 85.1648 93.1394 82.3388 94.6703 84.4593Z"
    fill="#093DB9"
  />
<path
    fill-rule="evenodd"
    clip-rule="evenodd"
    d="M107.07 87.4322C104.373 86.8405 106.558 86.1699 103.786 87.0054C104.276 85.2276 107.82 85.2111 107.07 87.4322Z"
    fill="#CCCCCC"
  />
<path
    fill-rule="evenodd"
    clip-rule="evenodd"
    d="M98.0774 93.2317C94.613 94.7094 97.8821 89.5392 98.5031 92.7591C98.9507 93.4843 98.6976 93.528 98.0774 93.2317Z"
    fill="#CCCCCC"
  />
<path
    fill-rule="evenodd"
    clip-rule="evenodd"
    d="M118.904 76.7281C118.81 78.0109 116.19 81.3808 117.064 78.291C117.58 77.7258 117.783 76.3804 118.904 76.7281Z"
    fill="#CCCCCC"
  />
<path
    fill-rule="evenodd"
    clip-rule="evenodd"
    d="M104.505 85.8511C103.678 87.4428 101.808 88.6167 100.131 87.8603C101.567 87.1398 103.04 86.5019 104.505 85.8511Z"
    fill="#1EA7F2"
  />
<path
    fill-rule="evenodd"
    clip-rule="evenodd"
    d="M134.329 85.1401C132.987 83.7551 133.949 83.481 134.971 82.6426C135.8 83.022 134.604 84.0921 134.329 85.1401Z"
    fill="#CCCCCC"
  />
<path
    fill-rule="evenodd"
    clip-rule="evenodd"
    d="M94.6552 86.1672C94.8296 85.9283 95.0038 85.6894 95.1783 85.4503C94.9086 86.8254 96.1836 86.459 96.9369 86.8302C96.1483 86.8864 94.6029 88.6809 94.3113 87.8534C94.3229 87.5653 92.2925 86.8508 94.4661 86.9701C94.5158 86.9728 94.5916 86.4466 94.6552 86.1672Z"
    fill="#1EA7F2"
  />
<path
    fill-rule="evenodd"
    clip-rule="evenodd"
    d="M123.831 71.3151C125.612 71.9444 124.473 72.2756 123.435 72.9293C122.665 72.4143 122.989 71.8625 123.831 71.3151Z"
    fill="#CCCCCC"
  />
<path
    fill-rule="evenodd"
    clip-rule="evenodd"
    d="M116.7 90.0224C117.485 90.6831 114.908 92.8578 114.545 90.8346C114.709 89.8608 116.611 90.808 116.7 90.0224Z"
    fill="#CCCCCC"
  />
<path
    fill-rule="evenodd"
    clip-rule="evenodd"
    d="M105.329 90.6434C106.461 90.2781 106.755 90.2501 106.34 91.5506C105.396 93.6839 103.389 92.0862 105.329 90.6434Z"
    fill="#093DB9"
  />
<path
    fill-rule="evenodd"
    clip-rule="evenodd"
    d="M97.4696 83.7493C98.7195 83.3425 100.347 82.0985 100.839 84.0981C99.9096 83.8604 97.789 84.554 97.4696 83.7493Z"
    fill="#CCCCCC"
  />
<path
    fill-rule="evenodd"
    clip-rule="evenodd"
    d="M106.105 85.81C103.964 86.1767 106.294 83.7595 104.889 82.9543C106.564 82.5265 106.02 84.7972 106.105 85.81Z"
    fill="#1EA7F2"
  />
<path
    fill-rule="evenodd"
    clip-rule="evenodd"
    d="M118.871 73.3999C117.64 74.4233 117.394 74.4275 116.5 73.4409C116.833 71.811 118.591 72.3898 118.871 73.3999Z"
    fill="#CCCCCC"
  />
<path
    fill-rule="evenodd"
    clip-rule="evenodd"
    d="M88.2469 80.7045C87.5277 81.2164 84.9512 81.0983 86.4945 79.8926C87.0225 77.8587 87.2981 79.7129 88.2469 80.7045Z"
    fill="#1EA7F2"
  />
<path
    fill-rule="evenodd"
    clip-rule="evenodd"
    d="M88.5016 84.9315C88.8554 84.7878 88.7871 83.4686 89.5657 84.5082C89.4437 85.2425 88.1913 85.9585 89.5308 86.7394C89.0139 88.343 87.904 85.9715 88.5016 84.9315Z"
    fill="#1EA7F2"
  />
<path
    fill-rule="evenodd"
    clip-rule="evenodd"
    d="M124.459 65.8923C127.517 65.4003 124.519 66.9765 123.18 66.3873C120.843 65.3535 123.305 65.1901 124.459 65.8923Z"
    fill="#1EA7F2"
  />
<path
    fill-rule="evenodd"
    clip-rule="evenodd"
    d="M136.177 77.4805C135.589 76.9695 135.084 76.5306 134.579 76.0914C135.364 75.202 137.378 76.5505 136.177 77.4805Z"
    fill="#CCCCCC"
  />
<path
    fill-rule="evenodd"
    clip-rule="evenodd"
    d="M86.9944 88.7901C87.5763 89.2919 87.6769 90.5879 88.5545 91.0722C87.2217 92.2049 86.4049 89.7046 86.9944 88.7901Z"
    fill="#CCCCCC"
  />
<path
    fill-rule="evenodd"
    clip-rule="evenodd"
    d="M102.867 83.2953C103.054 82.5053 101.756 81.4095 103.312 80.9023C104.797 81.6218 103.317 82.3627 102.867 83.2953Z"
    fill="#1EA7F2"
  />
<path
    fill-rule="evenodd"
    clip-rule="evenodd"
    d="M107.212 82.8677C108.117 83.4182 108.373 82.798 108.552 82.0437C108.931 82.8527 108.986 85.4802 108.018 83.96C107.015 84.1721 107.206 83.4503 107.212 82.8677Z"
    fill="#CCCCCC"
  />
<path
    fill-rule="evenodd"
    clip-rule="evenodd"
    d="M143.067 74.3008C143.405 75.057 144.66 75.8932 143.633 76.2654C142.823 75.5381 141.905 75.6193 143.067 74.3008Z"
    fill="#CCCCCC"
  />
<path
    fill-rule="evenodd"
    clip-rule="evenodd"
    d="M124.173 82.9245C123.259 83.9981 123.055 83.4658 122.3 82.8023C123.072 82.5715 123.472 82.0822 124.173 82.9245Z"
    fill="#CCCCCC"
  />
<path
    fill-rule="evenodd"
    clip-rule="evenodd"
    d="M92.7163 94.8618C93.6871 94.0752 93.8345 94.7079 93.9967 95.7437C93.4115 96.5774 93.0694 95.4041 92.7163 94.8618Z"
    fill="#1EA7F2"
  />
<path
    fill-rule="evenodd"
    clip-rule="evenodd"
    d="M100.131 87.8602C104.026 88.2912 98.1604 90.2469 99.8908 87.8229C99.9706 87.9722 100.033 87.8835 100.131 87.8602Z"
    fill="#093DB9"
  />
<path
    fill-rule="evenodd"
    clip-rule="evenodd"
    d="M100.379 86.4211C100.074 85.871 99.4975 85.4297 100.394 85.2968C100.389 85.6715 100.384 86.0464 100.379 86.4211Z"
    fill="#CCCCCC"
  />
<path
    fill-rule="evenodd"
    clip-rule="evenodd"
    d="M146.223 70.5238C146.595 70.7532 146.865 70.9731 146.514 71.2753C146.064 71.1805 145.96 71.023 146.223 70.5238Z"
    fill="#CCCCCC"
  />
<path
    fill-rule="evenodd"
    clip-rule="evenodd"
    d="M137.675 74.26C138.087 74.4949 138.239 74.8861 138.356 75.3377C137.989 75.0658 137.742 74.6697 137.675 74.26Z"
    fill="#CCCCCC"
  />
<path
    fill-rule="evenodd"
    clip-rule="evenodd"
    d="M108.343 84.5646C108.142 84.7132 107.921 85.3869 107.713 85.0567C107.924 84.9061 108.135 84.6715 108.343 84.5646Z"
    fill="#CCCCCC"
  />
<path
    fill-rule="evenodd"
    clip-rule="evenodd"
    d="M91.2556 79.2533C91.4681 79.5083 91.6807 79.7632 91.8934 80.0182C91.2516 80.0569 91.0917 79.9289 91.2556 79.2533Z"
    fill="#1EA7F2"
  />
<path
    fill-rule="evenodd"
    clip-rule="evenodd"
    d="M118.854 76.6826C118.915 76.5936 118.975 76.5043 119.036 76.4153C118.975 76.4945 118.947 76.7931 118.854 76.6826Z"
    fill="#CCCCCC"
  />
<path
    fill-rule="evenodd"
    clip-rule="evenodd"
    d="M100.114 87.8498C99.9573 88.0363 99.8702 87.7762 99.8138 87.6377C99.999 87.3745 100.011 87.6843 100.114 87.8498Z"
    fill="#1EA7F2"
  />
<path
    fill-rule="evenodd"
    clip-rule="evenodd"
    d="M94.6552 86.1672C94.5916 86.4466 94.5158 86.9728 94.4661 86.9701C92.2925 86.8508 94.3229 87.5653 94.3115 87.853C93.3183 90.5451 91.0473 83.9504 92.0402 82.6025C94.5444 82.0984 91.49 85.3994 93.5292 85.3902C93.9293 85.4431 94.2814 85.8964 94.6552 86.1672Z"
    fill="#CCCCCC"
  />
<path
    fill-rule="evenodd"
    clip-rule="evenodd"
    d="M96.6411 78.7464C95.6349 78.0579 95.1178 76.4229 96.4974 75.8176C97.5026 76.807 97.7498 77.7065 96.6411 78.7464Z"
    fill="#1EA7F2"
  />
<path
    fill-rule="evenodd"
    clip-rule="evenodd"
    d="M99.2708 81.2806C100.799 82.5252 98.5343 82.6786 97.6561 82.4057C98.0145 81.7416 98.3525 81.0496 99.2708 81.2806Z"
    fill="#1EA7F2"
  />
<path
    fill-rule="evenodd"
    clip-rule="evenodd"
    d="M96.6411 78.7464C97.1944 77.8617 97.2597 79.0902 97.5651 79.5851C96.5735 80.1273 96.5757 79.7714 96.6411 78.7464Z"
    fill="#1D71D8"
  />
<path
    fill-rule="evenodd"
    clip-rule="evenodd"
    d="M104.763 74.3411C104.401 74.7687 104.046 75.1719 103.491 75.298C103.177 74.2867 103.989 73.6039 104.763 74.3411Z"
    fill="#1EA7F2"
  />
<path
    fill-rule="evenodd"
    clip-rule="evenodd"
    d="M87.8564 33.0653C87.6938 31.7288 89.8312 30.7859 90.6245 31.9272C90.0747 32.7493 88.6883 33.6529 87.8564 33.0653Z"
    fill="#1EA7F2"
  />
<path
    fill-rule="evenodd"
    clip-rule="evenodd"
    d="M87.6462 29.2007C87.8995 29.5571 88.1527 29.9136 88.406 30.2702C87.6534 30.3069 87.519 29.857 87.6462 29.2007Z"
    fill="#1EA7F2"
  />
<path
    fill-rule="evenodd"
    clip-rule="evenodd"
    d="M88.3897 33.3836C88.4742 33.29 88.5774 33.2367 88.6975 33.2247C88.6606 33.5668 88.6427 33.6765 88.3897 33.3836Z"
    fill="#CCCCCC"
  />
<path
    fill-rule="evenodd"
    clip-rule="evenodd"
    d="M110.697 67.204C110.581 67.6634 110.963 68.758 110.271 68.4981C110.413 68.0668 110.555 67.6354 110.697 67.204Z"
    fill="#093DB9"
  />
<path
    fill-rule="evenodd"
    clip-rule="evenodd"
    d="M87.1987 66.8529C87.2001 67.6689 87.2013 68.4848 87.2027 69.3007C86.7531 68.2095 84.9719 66.3327 87.1987 66.8529Z"
    fill="#CCCCCC"
  />
<path
    fill-rule="evenodd"
    clip-rule="evenodd"
    d="M85.9534 66.9848C85.7972 66.8362 85.1648 66.7026 85.4672 66.4936C85.6884 66.6414 86.2591 66.6676 85.9534 66.9848Z"
    fill="#CCCCCC"
  />
<path
    fill-rule="evenodd"
    clip-rule="evenodd"
    d="M90.366 21.9386C89.5663 22.1488 88.9216 22.5421 88.6914 21.3684C89.3911 20.8057 89.8209 21.6091 90.366 21.9386Z"
    fill="#CCCCCC"
  />
<path
    fill-rule="evenodd"
    clip-rule="evenodd"
    d="M115.776 75.5017C115.713 75.5592 115.65 75.6167 115.587 75.674C115.57 75.5551 115.683 75.4685 115.776 75.5017Z"
    fill="#CCCCCC"
  />
</svg>
