<svg
  width="230"
  height="245"
  viewBox="0 0 230 245"
  fill="none"
  xmlns="http://www.w3.org/2000/svg"
>
<path
    fillRule="evenodd"
    clipRule="evenodd"
    d="M73.5668 155.678C73.5977 155.625 73.6223 155.602 73.5437 155.603L73.5668 155.678ZM168.621 111.583C168.574 111.514 168.545 111.515 168.5 111.586C168.55 111.62 168.604 111.674 168.621 111.583ZM98.6545 116.022C98.5201 115.971 98.4608 115.928 98.4582 116.087C98.5221 116.163 98.5849 116.077 98.6545 116.022ZM106.694 113.356C106.438 113.471 106.423 113.564 106.696 113.623C106.961 113.564 106.939 113.467 106.694 113.356ZM151.536 107.776C151.402 107.455 151.354 107.396 151.085 107.478C150.985 107.793 151.241 107.727 151.536 107.776ZM98.9302 115.245C98.6097 115.097 98.4191 114.866 98.1595 115.194C98.4975 115.493 98.6224 115.802 98.9302 115.245ZM117.911 159.982C116.677 161.763 118.607 167.197 120.384 165.526C122.804 164.331 119.272 161.903 117.911 159.982ZM139.366 147.644C139.087 143.21 132.135 143.126 132.541 148.324C133.359 152.512 139.67 153.54 139.366 147.644ZM70.4187 149.291C70.4238 151.999 69.6974 155.241 73.3912 154.177C74.6361 151.384 75.5939 148.182 77.239 145.472C77.6523 143.124 72.711 144.891 71.2048 144.336C69.5167 144.681 70.8062 147.89 70.4187 149.291ZM84.8166 195.953C88.2979 196.069 90.4367 196.724 89.6095 192.167C87.5375 189.605 83.3096 190.411 80.5035 189.11C79.5521 190.502 80.4081 193.334 80.1459 195.198C80.5598 196.837 83.4996 195.558 84.8166 195.953ZM122.36 138.139C121.035 138.379 118.978 139.04 119.13 141.061C120.569 141.309 122.756 140.283 123.741 141.461C125.59 146.577 119.181 148.637 118.708 142.468C118.668 142.187 118.306 141.695 118.257 141.716C115.492 142.485 117.801 145.793 118.539 147.425C124.703 154.686 131.811 138.203 122.36 138.139ZM65.2141 165.433C63.7802 165.682 61.3092 164.698 60.3954 166.105C60.6972 168.859 59.6134 172.537 60.8741 174.862C64.1388 174.425 70.1936 176.816 68.2497 171.297C68.6031 170.299 69.7688 171.999 69.0537 170.239C69.8711 165.292 70.4623 165.162 65.2141 165.433ZM70.4238 190.871C70.6824 192.396 69.726 194.939 71.0684 195.919C73.7407 195.543 77.5392 196.876 79.6687 195.309C79.2364 193.284 80.8928 189.044 78.6548 188.304C76.4352 186.593 74.1843 185.357 71.2217 185.828C69.5038 186.127 70.8205 189.461 70.4238 190.871ZM75.1541 196.431C73.8565 196.771 70.7221 195.494 70.409 197.243C70.9916 199.732 69.2548 204.51 71.2262 205.867C73.6732 205.245 78.3775 207.157 79.6999 204.946C79.3508 200.463 81.6031 195.02 75.1541 196.431ZM40.187 170.196C39.8048 168.828 41.0974 165.649 39.3532 165.401C36.9078 166.05 32.1222 164.098 30.8578 166.323C31.493 168.77 29.6213 173.757 31.7912 174.911C36.0717 174.434 41.5698 177.025 40.187 170.196ZM55.358 196.417C54.0235 196.835 50.9415 195.457 50.6503 197.288C51.2455 199.775 49.4699 204.543 51.4815 205.885C53.9511 205.27 58.5284 207.076 59.9577 205.052C59.3673 200.187 62.2909 195.107 55.358 196.417ZM55.2915 174.895C61.9222 176.35 59.6116 170.725 59.9196 166.109C57.8714 164.431 53.9344 165.867 51.2629 165.445C49.789 167.531 51.0934 171.4 50.6507 174.074C50.9494 175.829 53.9779 174.494 55.2915 174.895ZM35.4835 205.878C36.8336 205.474 39.8885 206.835 40.2022 205.026C39.6097 202.536 41.362 197.761 39.3881 196.404C36.9026 197.001 32.3557 195.215 30.8881 197.217C31.2919 201.722 28.9434 207.318 35.4835 205.878ZM45.2956 174.895C46.6667 174.483 49.7817 175.863 50.1042 174.041C49.4852 171.584 51.3327 166.594 49.2183 165.407C46.7086 166.03 41.994 164.161 40.5796 166.266C41.1666 171.25 38.2593 176.2 45.2956 174.895ZM45.2799 205.877C46.6477 205.449 49.7571 206.843 50.1073 205.026C49.5106 202.547 51.2855 197.727 49.279 196.411C46.7308 197.009 42.1126 195.21 40.5824 197.216C40.9638 201.822 38.6643 207.313 45.2799 205.877ZM65.053 205.859C66.5035 205.575 68.9547 206.617 69.8122 205.111C69.4257 202.452 70.8234 198.413 69.1401 196.441C66.4337 196.846 62.5069 195.429 60.3952 197.116C60.8706 202.083 58.0568 207.198 65.053 205.859ZM40.1872 211.469C41.4717 203.978 36.5707 207.064 31.7084 206.457C29.6939 207.947 31.4985 212.942 30.8875 215.586C32.3677 217.575 36.8933 215.78 39.3796 216.395C41.1046 216.059 39.7917 212.876 40.1872 211.469ZM50.6626 211.344C50.9472 212.865 49.9312 215.44 51.3494 216.346C53.9987 215.953 57.8534 217.334 59.9151 215.709C59.5121 212.864 60.9146 208.689 59.2559 206.498C54.8388 206.835 49.2345 204.361 50.6626 211.344ZM30.8907 180.201C31.2003 181.704 30.1565 184.311 31.5902 185.213C34.2143 184.782 38.2282 186.319 40.1546 184.457C39.761 181.651 41.1587 177.494 39.4929 175.351C35.0686 175.689 29.467 173.209 30.8907 180.201ZM79.712 211.426C80.983 203.965 76.0241 207.087 71.1856 206.457C69.277 208.074 70.9968 212.865 70.4219 215.529C71.7613 217.634 76.4917 215.76 78.95 216.393C80.6062 215.992 79.3247 212.839 79.712 211.426ZM50.6656 180.244C51.0591 181.676 49.7365 184.935 51.494 185.265C53.9521 184.648 58.5723 186.48 59.9625 184.422C59.3548 181.803 61.1748 176.724 59.1226 175.313C54.3269 175.924 49.3793 172.827 50.6656 180.244ZM59.9482 149.391C59.5609 147.941 60.8489 144.755 59.1789 144.316C56.7216 144.974 51.5739 142.742 50.5034 145.256C51.1479 147.869 49.4479 152.802 51.4529 154.272C55.8591 153.838 61.3535 156.364 59.9482 149.391ZM40.1866 190.959C39.7897 189.512 41.1101 186.176 39.3881 185.825C36.7902 186.331 32.8522 184.777 30.931 186.609C31.3438 189.474 29.8793 193.757 31.6389 195.92C36.5032 195.423 41.4891 198.429 40.1866 190.959ZM59.951 191.005C59.5387 189.524 60.9213 186.149 59.0889 185.821C56.6389 186.458 52.012 184.588 50.6499 186.686C51.2429 189.415 49.5041 194.297 51.4253 195.969C56.2516 195.332 61.241 198.477 59.951 191.005ZM50.0849 211.506C49.7145 210.088 50.9894 206.835 49.3115 206.452C46.7621 207.067 42.0902 205.247 40.5828 207.278C41.0611 210.08 39.615 214.189 41.3029 216.343C45.7285 215.973 51.5348 218.56 50.0849 211.506ZM40.5963 180.37C39.1567 187.438 44.8882 184.788 49.3111 185.263C51.2657 183.672 49.554 178.764 50.0582 176.086C48.0397 174.264 44.0484 175.822 41.3719 175.306C39.6848 175.694 40.9921 178.937 40.5963 180.37ZM30.3068 180.292C30.0006 178.954 31.2342 175.556 29.4916 175.303C26.9494 175.912 22.3367 174.111 20.8125 176.11C21.407 178.781 19.6491 183.69 21.6091 185.264C26.4595 184.599 31.6251 187.831 30.3068 180.292ZM60.3637 211.371C60.7587 212.805 59.4383 216.045 61.1744 216.394C63.6636 215.734 68.5734 217.691 69.8612 215.477C69.2611 212.853 71.0491 207.939 69.0338 206.453C64.2489 207.13 59.0445 203.882 60.3637 211.371ZM60.3633 149.206C59.0579 156.806 64.0968 153.642 69.0087 154.272C70.9399 153.632 69.3557 149.546 69.8547 147.705C71.2161 142.073 64.496 145.043 61.2148 144.321C59.4335 144.544 60.7627 147.824 60.3633 149.206ZM79.7136 221.958C79.4228 220.403 80.4547 217.783 79.0258 216.846C76.3809 217.242 72.5077 215.845 70.4627 217.488C70.8574 220.466 69.5035 224.702 71.0733 227.071C75.9075 226.642 81.0504 229.444 79.7136 221.958ZM59.9486 221.982C59.5422 220.512 60.8539 217.273 59.1898 216.793C56.7238 217.419 52.0104 215.559 50.6517 217.651C51.2568 220.399 49.4537 225.497 51.4747 227.098C56.4427 226.512 61.2261 229.567 59.9486 221.982ZM50.6497 159.734C51.0955 161.199 49.655 164.74 51.5654 164.988C54.0205 164.384 58.5148 166.164 59.9605 164.176C59.4443 161.268 61.0056 156.889 59.1892 154.722C54.2738 155.204 49.3533 152.224 50.6497 159.734ZM60.3637 190.901C59.0337 198.482 64.1559 195.404 69.082 195.921C70.9107 193.82 69.3896 189.451 69.8227 186.594C67.7829 184.791 63.8052 186.338 61.1208 185.824C59.4611 186.26 60.7571 189.456 60.3637 190.901ZM20.8285 190.871C21.1157 192.408 20.0698 195.047 21.571 195.921C24.2644 195.512 28.236 196.964 30.3027 195.235C29.8775 192.356 31.3704 188.023 29.58 185.867C24.9771 186.197 19.3788 183.674 20.8285 190.871ZM50.094 190.945C49.6929 189.487 51.0341 186.172 49.2683 185.823C46.7845 186.482 41.8508 184.517 40.584 186.746C41.1916 189.42 39.3741 194.452 41.4155 195.958C46.2981 195.299 51.4168 198.541 50.094 190.945ZM50.0843 222.054C49.6816 220.568 51.0152 217.204 49.2946 216.794C46.783 217.425 41.9643 215.541 40.5856 217.66C41.1942 220.412 39.3655 225.508 41.4169 227.105C46.3225 226.453 51.3984 229.654 50.0843 222.054ZM69.8503 159.74C71.1546 152.132 66.1384 155.337 61.2301 154.667C59.1008 156.295 60.9396 161.465 60.3896 164.271C62.4388 165.977 66.4349 164.529 69.1249 164.94C70.5926 163.971 69.5659 161.324 69.8503 159.74ZM40.5955 159.731C40.9963 161.221 39.6702 164.555 41.3759 164.991C43.8957 164.358 48.709 166.243 50.1016 164.119C49.5062 161.363 51.2933 156.305 49.3018 154.671C44.3738 155.313 39.2646 152.101 40.5955 159.731ZM69.8567 221.925C71.1463 214.265 66.1721 217.415 61.173 216.797C59.1396 218.369 60.9646 223.499 60.3527 226.238C61.7584 228.36 66.5682 226.473 69.0951 227.115C70.7699 226.651 69.4582 223.401 69.8567 221.925ZM121.586 126.016C121.116 120.944 113.995 117.801 110.017 120.767C107.717 122.197 108.765 125.315 107.504 126.966C106.364 140.633 121.148 137.104 121.586 126.016ZM90.8782 149.145C90.3709 156.947 103.89 168.045 106.083 155.611C104.483 155.317 107.94 154.346 106.98 150.644C107.059 137.931 89.9506 137.876 90.8782 149.145ZM71.4666 161.132C73.8446 161.089 77.8492 162.697 78.5197 164.995C77.7798 169.104 74.7214 173.172 70.3072 172.236C68.4623 172.096 70.0167 173.757 69.3476 174.256C73.3484 178.25 79.9632 172.425 81.2692 167.892C84.1521 161.476 76.0009 157.73 72.024 158.14C73.0561 157.216 72.3308 155.773 73.415 155.004C72.6634 154.473 70.7386 154.377 70.4145 155.468C70.8687 157.016 69.7621 160.742 71.4666 161.132ZM69.6542 177.399C70.7467 173.288 63.578 176.143 61.2775 175.308C59.0595 176.543 60.9993 181.749 60.348 184.311C61.3398 186.528 65.9732 184.72 68.1884 185.213C71.1175 186.418 68.8371 179.38 69.6542 177.399ZM73.9059 184.78C73.967 184.632 73.9927 184.095 74.1639 184.207C72.388 184.043 73.61 182.016 71.8922 181.622C69.7337 178.871 70.5083 182.664 70.2973 184.433C70.2642 185.77 74.745 185.343 73.9059 184.78ZM95.3851 116.016C95.7401 116.334 95.5055 115.748 95.6082 115.504C95.2857 115.552 95.3216 115.737 95.3851 116.016ZM50.6713 235.026C50.1393 237.288 50.5647 234.594 48.3066 234.738C47.5469 234.18 48.4978 234.049 48.8363 234.39C51.3343 235.912 49.6252 229.78 50.0536 228.342C48.1101 226.445 43.9946 228.013 41.3255 227.571C40.1344 227.99 40.7149 229.731 40.5874 230.733C39.6243 231.92 40.8844 227.592 39.4433 227.573C38.4372 227.248 34.1691 228.378 35.0871 226.824C42.6836 228.731 39.6372 222.719 40.1564 217.473C38.087 215.855 34.242 217.233 31.5911 216.84C30.3074 217.697 30.9918 224.579 30.3285 219.171C30.3297 216.784 30.3281 216.784 28.0568 216.817C27.389 216.038 28.8159 216.425 29.305 216.389C31.7399 215.446 29.6703 209.916 30.3542 207.416C29.558 205.213 25.1748 207.055 23.1415 206.492C23.0612 204.366 29.7643 207.486 30.3503 205.058C30.7283 195.029 30.8018 196.297 21.6313 196.399C20.0384 196.454 21.1623 199.151 20.8446 200.267C18.8763 196.448 21.1008 192.977 20.423 188.295C21.382 184.691 16.2167 186.388 19.03 185.242C21.9468 185.249 19.7769 179.456 20.4263 177.286C20.4257 175.343 20.4255 175.343 18.6302 175.313C21.7755 174.878 19.5458 171.358 20.849 168.845C19.6037 177.616 23.7428 174.329 29.7813 174.706C31.3173 164.237 31.5515 165.262 22.8327 165.379C33.3181 164.412 29.7845 165.7 30.3223 155.099C32.0643 155.511 29.2845 163.795 31.6887 164.993C41.9555 165.384 40.1695 165.567 40.2006 155.502C39.3568 153.096 30.8108 156.02 31.274 154.245C42.8878 154.535 39.2358 155.283 40.5675 145.135C41.1833 147.75 39.3021 152.942 41.4855 154.276C43.9597 153.592 48.9075 155.634 50.1131 153.292C50.0357 143.757 51.8553 143.735 41.9772 144.189C49.2449 142.265 49.8941 147.268 50.4903 137.861C49.4067 146.334 53.1267 143.224 59.0532 143.773C61.2263 142.404 59.3473 137.175 59.9432 134.525C61.6565 136.032 58.7698 142.536 61.1968 143.771C72.7836 144.024 68.5492 144.489 70.3439 136.078C70.3201 142.761 69.2853 144.579 76.7293 143.751C78.3232 143.868 78.2064 142.51 78.0697 141.271C79.8532 139.914 80.0787 136.781 81.783 135.616C82.4991 135.774 82.1889 135.565 82.202 135.112C83.1647 130.577 88.828 135.775 91.4053 132.484C96.7386 128.979 99.4462 121.314 92.8141 117.705C92.3487 117.334 92.6876 116.969 93.0682 116.795C93.3224 116.693 93.9132 116.923 93.4077 116.286C94.1185 115.628 95.1239 115.54 95.9773 115.157C96.8473 114.881 97.4754 114.29 97.8746 114.995C97.726 114.64 97.7613 114.046 98.0909 113.9C99.9634 114.135 101.588 113.752 103.504 113.657C103.61 114.748 104.074 113.918 104.361 113.811C106.45 114.215 105.191 112.651 108.441 113.111C111.923 112.778 115.219 112.47 118.819 111.923C121.216 111.202 120.656 114.512 121.405 115.903C124.754 121.784 130.721 114.623 129.253 110.039C129.481 108.167 132.789 110.645 131.271 108.884C135.935 109.518 141.129 108.696 145.822 108.259C147.152 107.308 148.193 107.053 149.698 107.675C150.861 107.783 152.044 106.904 153.219 107.744C153.295 107.799 153.615 107.482 153.821 107.337C154.649 108.666 156.334 107.602 157.354 108.914C158.371 107.772 161.396 108.608 162.891 109.152C163.282 109.369 164.037 109.894 164.188 108.768C164.887 110.528 164.914 109.448 166.065 109.932C167.329 112.336 172.255 110.328 170.148 114.385C163.841 124.894 149.578 116.174 149.146 133.945C149.807 129.385 146.854 123.764 141.856 125.272C137.72 123.259 136.48 130.468 136.527 133.756C138.017 142.246 147.108 142.186 149.149 133.931C150.652 155.117 156.593 144.119 138.413 152.846C137.724 153.285 137.256 153.524 136.814 152.158C137.212 154.835 135.687 152.232 135.004 154.309C132.093 156.958 128.411 159.144 125.248 161.606C124.053 159.33 123.089 158.807 120.7 159.189C118.511 159.936 123.691 164.408 125.08 161.766C124.448 163.626 122.615 163.801 121.947 165.404C121.435 166.06 120.91 167.319 120.184 167.628C118.17 166.863 116.526 172.885 115.799 168.938C109.623 158.821 95.328 168.249 101.074 178.577C101.519 180.742 102.709 183.426 104.842 181.341C102.183 184.29 99.3487 187.041 96.6837 190.145C95.1801 191.883 91.6504 190.138 90.2208 191.839C91.5419 199.558 86.0765 195.461 80.7706 196.456C79.2358 198.558 80.5612 202.389 80.1179 205.059C80.1812 207.157 84.3476 204.679 84.3645 206.469C83.1474 206.831 80.3732 205.607 80.1179 207.273C80.7262 209.896 78.9266 214.937 80.9342 216.389C84.4287 216.055 84.6713 217.104 81.03 216.8C79.5841 215.78 79.546 228.237 81.0984 227.12C83.7975 226.328 90.22 229.234 89.6458 224.595C90.7953 226.078 89.2815 227.45 92.1391 227.111C93.7895 227.913 89.1665 226.583 90.164 230.194C90.2533 231.81 90.5073 231.565 91.6004 230.782C92.2156 231.495 92.7872 230.51 93.3831 230.74C92.9278 231.275 92.6561 232.052 91.7131 231.888C90.8306 231.887 90.3417 233.299 89.3952 232.547C91.2643 225.336 85.3753 227.937 80.8668 227.572C79.2999 228.63 80.5251 231.513 80.1292 233.237C79.9555 235.104 80.4455 234.727 81.9065 234.921C81.2222 236.124 78.4729 236.894 77.169 235.765C78.1005 235.064 79.8708 235.523 79.7255 233.911C80.6328 224.89 77.8845 228.072 71.279 227.525C68.8849 227.91 71.8113 234.854 69.8279 234.642C69.3246 232.644 70.9641 228.365 69.0461 227.527C66.5295 228.174 61.7011 226.238 60.3502 228.42C59.7854 230.617 62.0466 237.388 58.3543 236.146C59.1894 235.171 60.106 236.771 59.9424 235.041C59.428 232.929 61.0849 228.464 59.1297 227.528C51.3839 227.702 49.9033 225.509 50.6713 235.026Z"
    fill="#32BDF3"
  />
<path
    fillRule="evenodd"
    clipRule="evenodd"
    d="M154.125 99.4173C154.094 99.3468 154.042 99.2573 153.997 99.3626C154.029 99.4538 154.055 99.5353 154.125 99.4173ZM62.7434 27.1668C62.6518 27.0147 62.5512 27.1863 62.7105 27.2314C62.7226 27.2076 62.7347 27.1838 62.7434 27.1668ZM163.955 32.9737C163.854 33.0291 163.916 33.0916 163.952 33.1693C164.047 33.1135 163.99 33.0478 163.955 32.9737ZM104.508 52.8597C104.457 52.7738 104.424 52.7704 104.365 52.85C104.421 52.8839 104.481 52.9603 104.508 52.8597ZM99.3502 39.6054C98.976 39.5444 98.8706 39.4006 98.6765 39.6895C98.9323 39.9064 98.9978 39.7499 99.3502 39.6054ZM154.114 98.2204C153.985 98.3805 153.872 98.5268 154.092 98.578C154.276 98.4498 154.348 98.3575 154.114 98.2204ZM65.8326 70.0645C65.6557 69.9093 65.5262 69.7977 65.473 70.0388C65.5872 70.2047 65.6773 70.2894 65.8326 70.0645ZM65.9609 69.5132C66.8372 68.8429 65.78 68.6509 65.4776 68.1457C65.3727 68.5827 64.1984 69.8175 65.0082 69.8421C65.2344 69.4445 65.2065 68.3898 65.9609 69.5132ZM69.8582 6.32731C69.4925 5.06598 68.066 6.10473 68.2518 7.12517C68.9937 6.43512 69.6385 7.39196 69.8582 6.32731ZM68.9247 106.578C68.5005 105.228 67.4899 108.741 67.6305 109.405C68.7694 108.932 68.366 107.573 68.9247 106.578ZM93.0816 64.9252C95.0614 67.3228 95.8683 63.7252 94.4498 63.9307C94.2441 65.0385 94.3264 65.7103 93.0816 64.9252ZM99.9114 38.64C101.322 38.6747 103.782 36.6431 100.018 36.9615C102.293 38.8196 97.5897 38.2235 99.9114 38.64ZM159.269 2.75875C158.453 3.12156 157.761 5.84468 157.511 6.88574C158.309 6.24329 158.647 3.95395 159.269 2.75875ZM64.8896 53.3543C65.1222 52.0808 65.8512 50.8835 65.3455 49.6582C64.5378 50.6217 64.3819 52.1469 64.8896 53.3543ZM160.088 90.515C161.268 89.9938 161.91 88.0654 161.56 86.6419C160.987 87.886 160.596 89.2341 160.088 90.515ZM161.723 31.2116C161.333 30.0274 160.246 33.9676 160.579 34.7082C161.661 34.0603 161.296 32.4268 161.723 31.2116ZM100.259 64.8724C100.132 62.9172 97.5189 64.3249 98.2025 65.1693C98.8536 65.0667 99.1568 63.7471 99.2619 64.746C98.7691 66.3715 99.7591 66.4765 100.259 64.8724ZM68.7252 126.654C68.4339 126.366 68.1608 126.019 68.1043 126.054C65.9991 126.89 67.8459 129.083 68.7252 126.654ZM66.3325 86.7268C65.1724 87.0886 64.5984 90.4461 64.2986 91.9928C64.8882 92.8334 65.8427 88.0128 66.3325 86.7268ZM159.539 55.7828C161.037 55.2048 161.317 52.6283 161.832 51.1294C160.584 52.1387 160.371 54.3343 159.539 55.7828ZM160.467 4.88847C159.68 6.60105 157.59 9.24647 158.013 11.2332C159.16 9.289 159.846 7.0721 160.467 4.88847ZM159.319 21.6414C160.013 19.2998 161.951 17.2825 161.27 15.117C160.384 17.2455 159.63 19.263 159.319 21.6414ZM107.335 30.5559C105.148 30.0758 104.176 31.6252 106.436 32.8796C106.719 32.1483 107.002 31.4169 107.335 30.5559ZM91.3295 66.1735C90.2984 65.789 91.3797 64.0408 92.049 65.0196C92.5749 64.0625 91.4717 63.3045 91.4308 62.3727C91.1875 63.5447 89.0193 67.1925 91.3295 66.1735ZM68.9053 87.5733C67.0847 88.0052 65.9254 93.5805 65.0914 95.8972C66.816 93.4333 67.8502 90.4377 68.9053 87.5733ZM69.2047 41.3646C68.7631 38.5332 67.1363 45.6225 66.6595 46.5472C65.8383 46.6971 66.064 48.0085 66.6098 48.0799C67.665 46.214 67.9875 43.1831 69.2047 41.3646ZM103.76 43.4423C103.338 43.6444 102.656 43.7141 102.997 44.4202C103.822 48.5428 107.529 45.2627 103.76 43.4423ZM63.8549 119.067C65.0738 119.749 67.364 112.44 67.3626 110.137C66.1711 113.023 65.212 116.304 63.8549 119.067ZM94.7377 41.7493C94.4883 43.0563 95.6579 41.664 96.3292 41.7327C96.9343 41.6973 97.9463 42.593 98.241 41.715C97.788 40.6545 99.0902 41.2669 99.211 40.329C97.2857 40.3465 93.9294 38.7253 94.7377 41.7493ZM110.146 27.6778C110.488 28.2407 112.616 27.2693 112.248 26.6913C111.446 26.2586 109.307 26.9947 108.874 27.8326C108.575 28.6686 108.579 27.6614 108.389 27.2666C107.923 27.8916 107.886 29.2293 106.914 28.0025C106.687 27.717 106.068 27.7709 105.628 27.6694C104.847 29.4374 106.619 28.0916 106.926 29.3761C107.045 29.3352 107.162 29.2836 107.284 29.2556C109.041 29.5418 109.606 30.163 110.146 27.6778ZM64.4963 37.0386C65.0209 37.1763 64.703 37.8261 64.9384 38.2441C66.3529 33.7492 69.0818 30.6039 69.2426 26.0061C67.5849 27.9469 66.6409 34.0354 64.4963 37.0386ZM88.0091 75.5021C89.0005 74.309 87.3931 75.1112 87.4008 74.2108C87.424 73.1607 82.15 78.9933 85.3667 79.0592C86.1606 80.1772 86.9582 78.9788 86.4277 78.1115C85.5494 77.7566 88.3948 76.661 88.0091 75.5021ZM156.854 28.6286C156.463 28.817 156.699 30.7021 157.544 30.1771C156.544 28.4991 158.188 26.7302 158.133 25.0029C156.67 22.6803 158.924 20.9233 158.783 18.4162C157.102 17.3846 156.419 26.6334 156.854 28.6286ZM101.645 35.9969C104.835 35.887 102.788 32.5957 104.592 30.7574C105.269 28.4315 101.768 29.5422 101.058 30.9109C100.637 31.5456 101.201 31.6519 101.73 31.7934C100.219 32.5921 101.003 34.7707 101.645 35.9969ZM111.507 24.395C114.935 24.1055 117.995 20.6432 116.101 17.3701C114.565 14.9045 110.483 17.6003 108.392 16.4588C105.313 19.0187 108.047 23.9284 111.507 24.395ZM111.937 94.4177C116.288 95.407 120.208 86.3549 117.835 86.6525C115.378 87.8454 104.238 84.7382 105.319 88.1751C106.462 91.6258 108.356 93.8618 111.937 94.4177ZM93.2184 52.3777C93.3031 52.0355 93.3878 51.6933 93.4725 51.3514C92.3244 51.0414 93.6295 49.9525 92.9838 49.0936C92.1547 49.7081 90.9053 58.7151 92.3004 57.8163C94.0843 56.9452 94.1142 58.479 95.1901 58.9328C96.0877 57.1042 95.9608 61.3102 98.8496 61.2297C100.181 61.0299 101.397 62.1032 100.74 63.12C101.405 64.446 99.8737 65.5256 100.885 66.4321C101.066 67.6831 99.6576 65.618 99.5731 66.9766C99.5421 67.6391 98.9597 68.7425 99.5035 69.178C100.057 69.3647 99.8281 69.3725 99.4317 69.5547C98.5851 70.3656 99.2764 71.7417 97.8933 72.2654C94.5 70.2068 96.9412 74.6033 93.9072 72.9872C95.4455 72.0057 93.7265 72.0464 94.1987 70.5303C93.5937 71.2087 92.5896 71.9512 92.6227 72.9607C92.1212 73.5513 91.1107 73.7646 91.3806 74.8407C92.3036 76.5655 90.5586 80.1869 90.6344 77.4686C90.8281 76.2803 86.8676 78.9588 90.345 78.8748C90.0464 79.97 87.5002 79.8485 89.0122 80.569C94.799 82.501 100.662 82.8076 106.751 83.4274C111.207 83.7118 150.976 83.105 138.452 75.4938C127.025 62.641 136.97 35.8379 118.051 27.7408C114.518 26.1935 108.297 27.5504 115.137 30.0798C113.357 31.5643 115.178 33.5206 114.016 34.8659C112.672 35.7813 114.148 36.5526 113.987 37.823C112.84 39.1445 110.919 34.4831 112.811 34.8659C111.152 33.6103 112.378 34.2365 112.659 32.7772C108.872 33.7059 110.447 29.1554 108.594 34.1207C112.003 33.6901 108.686 36.3662 109.929 38.1388C109.947 38.1584 109.665 38.4652 109.523 38.6383C108.844 37.4808 108.815 38.8381 108.867 39.6128C107.795 41.2721 108.232 38.234 108.69 37.3892C106.814 36.9944 109.866 35.9032 109.678 34.9969C109.56 34.8259 109.169 34.6246 109.108 34.6825C108.317 35.6494 106.761 33.1409 106.868 35.099C107.283 36.421 105.558 33.7699 104.59 36.1845C104.033 36.4374 103.325 35.4858 102.945 36.7701C103.72 37.9125 102.235 38.0527 101.629 38.827C104.453 40.5099 101.1 40.7939 102.286 41.425C103.371 41.7238 104.861 40.6419 105.507 42.4515C106.489 42.7815 105.499 42.9559 104.959 43.0346C104.873 44.3694 106.11 43.6392 106.404 44.7485C106.41 44.7655 106.659 44.7179 106.659 44.7131C106.582 43.8011 107.475 43.3995 107.665 42.8268C107.951 41.6459 108.921 42.7333 109.467 42.3684C109.513 41.1237 109.9 41.1561 110.584 41.9959C112.537 41.532 112.638 42.9298 110.846 43.675C110.712 43.7405 109.675 44.1578 109.526 43.1637C107.984 42.7434 110.132 45.0862 108.415 45.1723C109.817 46.9803 107.946 46.197 107.282 45.6192C105.689 46.1959 108.174 48.1315 106.385 47.7129C104.43 47.9207 105.157 51.0959 104.297 51.9749C104.59 52.7757 104.661 54.2469 105.705 54.3004C102.198 56.3326 104.981 56.1922 101.506 55.3255C99.9485 57.1212 100.871 56.2383 99.0162 55.9105C96.7037 58.3634 102.996 57.5992 100.623 60.7469C100.233 60.4217 98.9105 60.61 98.9506 60.2053C100.128 58.9886 98.4002 59.7808 98.4869 59.502C97.4981 58.9909 96.9781 58.0195 96.4278 57.1191C95.0245 57.5872 91.9401 57.6325 92.7256 55.177C93.6044 54.2008 94.9579 57.8033 95.0404 55.8186C94.0619 54.3971 95.5211 53.9612 94.9007 52.6028C94.0946 49.2042 93.5923 55.9195 93.2184 52.3777ZM93.0542 46.8788L92.9222 47.3993C94.2921 47.0151 93.9516 49.7078 94.7407 46.5979C95.2835 45.6042 97.0912 46.0182 97.0503 44.6147C96.9291 40.3094 92.705 44.3993 93.0542 46.8788ZM100.304 42.2366C99.3206 42.3037 98.7245 46.1778 99.5656 45.4115C100.7 45.4817 100.922 47.7274 101.908 45.8727C103.137 45.9125 102.521 44.3258 102.693 43.4964C101.147 43.3269 101.171 43.7529 100.288 42.209C100.493 42.313 100.424 42.0096 100.304 42.2366ZM90.0408 72.1203C90.0894 72.7697 89.9859 69.5723 91.8098 69.9333C93.5704 65.5833 85.2761 72.1917 90.0408 72.1203ZM65.5289 120.214C64.9532 120.38 63.8553 122.951 64.0437 123.703C64.6214 122.891 65.3727 120.102 65.5289 120.214ZM67.9728 7.43239C67.6019 8.21509 68.165 7.74846 68.2001 7.23403C68.1245 7.30015 68.0487 7.36627 67.9728 7.43239ZM164.188 108.768C163.847 110.551 160.281 107.58 158.762 108.527C157.578 107.873 157.588 109.204 156.818 108.522C155.848 107.617 154.504 108.634 153.821 107.337C153.876 102.433 154.22 97.538 154.04 92.6365C154.217 69.4357 154.537 46.4223 154.902 23.2465C154.731 21.2962 156.348 8.80026 154.144 9.8068C145.899 11.7188 137.365 13.7725 128.947 14.1307C111.707 18.1623 122.968 12.9481 116.069 24.4898C125.968 26.6757 132.118 36.7987 133.514 46.7306C135.209 54.5546 135.224 62.9638 138.907 70.1575C140.518 72.976 142.021 75.389 144.478 77.1828C147.316 85.4337 127.108 85.0553 122.097 86.3271C120.503 87.0119 120.533 89.547 119.816 91.0359C117.397 98.5437 106.246 98.595 103.578 91.491C102.757 83.348 94.6695 86.2494 88.9314 84.5684C74.3147 80.2961 77.0372 82.1427 85.4197 71.4208C92.4289 57.2684 86.0225 35.6739 102.032 26.7938C103.014 24.8736 107.352 25.2826 107.081 23.8976C103.378 21.4447 106.961 15.572 103.716 16.6519C93.1205 16.2692 82.4007 15.7894 71.8602 14.4385C70.2459 14.4219 71.3047 16.9026 71.0727 17.9275C71.5698 22.0903 70.4835 26.9909 71.2371 30.74C70.9339 64.0067 70.8851 98.0777 70.8349 131.696C71.8082 138.871 67.7326 133.911 63.4381 134.334C60.1562 134.609 62.5106 127.814 61.7937 125.324C62.1544 97.7203 62.365 69.8632 62.2337 42.4768C62.4178 31.0046 63.0377 19.4889 62.8848 8.03125C61.1801 2.80465 66.4797 2.31486 69.3265 3.86383C75.4021 6.58673 64.0225 13.2147 79.7811 12.79C90.5437 12.4752 101.735 15.8645 111.85 11.9169C120.156 14.8755 129.528 11.4722 138.158 10.1195C143.609 9.79037 148.872 8.33932 154.207 7.22224C156.204 6.68254 154.993 4.15821 155.249 2.60924C154.491 0.595332 156.573 0.582487 157.893 0.28558C162.74 -0.201262 165.099 -0.820553 163.907 5.46817C164.228 18.5268 163.942 31.5321 164.342 44.5726C163.734 66.1044 164.356 86.8729 164.188 108.768Z"
    fill="#0D0D0D"
  />
<path
    fillRule="evenodd"
    clipRule="evenodd"
    d="M173.196 163.662C173.19 163.637 173.193 163.601 173.178 163.591C173.051 163.501 173.088 163.76 173.196 163.662ZM156.558 208.532C156.828 208.3 156.766 208.125 156.524 208.005C156.178 208.1 156.287 208.27 156.558 208.532ZM164.196 220.624C164.619 219.212 167.046 215.796 165.091 215.352C157.447 212.728 161.27 216.413 164.196 220.624ZM167.924 216.204C164.002 221.438 168.058 226.489 171.817 229.88C179.422 218.706 183.164 218.613 167.924 216.204ZM198.591 239.612C198.553 242.06 212.222 224.984 210.432 224.592C195.331 221.561 199.706 222.238 198.591 239.612ZM142.358 208.695C146.153 208.625 149.86 210.707 153.545 210.261C149.24 203.488 143.468 197.766 139.231 190.9C136.123 193.11 135.718 202.037 133.955 206.545C135.378 208.605 140.112 207.781 142.358 208.695ZM129.555 206.721C133.744 208.296 133.189 197.833 135.118 194.673C136.471 190.044 138.488 188.527 134.539 184.819C127.32 172.241 129.94 183.435 121.679 193.127C112.051 209.979 112.8 203.772 129.555 206.721ZM207.255 193.59C204.352 192.761 200.688 187.468 198.075 188.685C194.447 198.284 185.74 208.929 183.254 217.263C207.868 223.271 191.717 219.446 207.255 193.59ZM223.869 204.068C219.178 201.017 213.784 196.898 208.709 195.31C204.331 201.586 202.902 209.938 200.231 216.489C199.166 223.18 202.421 220.155 207.253 222.198C215.942 225.564 219.042 209.697 223.869 204.068ZM172.135 170.124C172.288 171.153 171.661 175.892 170.22 176.001C169.805 176.238 169.233 176.618 170.012 177.033C169.002 188.515 160.885 199.829 156.918 210.137C158.672 213.425 163.294 212.186 166.291 213.445C168.836 212.723 168.612 207.902 170.443 205.805C171.26 204.555 174.891 195.845 175.177 200.775C172.783 204.641 171.258 209.052 169.09 213.066C168.79 215.411 173.788 214.649 175.413 215.584C177.777 215.656 180.561 217.815 181.782 214.759C182.27 213.986 182.438 212.904 183.567 212.404C184.007 212.209 183.865 210.534 185.062 210.271C185.051 208.649 186.215 207.217 187.032 205.921C188.091 204.55 188.196 202.418 190.088 201.711C189.848 200.399 191.245 199.43 191.36 197.966C196.572 185.758 200.918 188.894 188.974 181.205C185.755 180.175 177.39 201.053 175.054 197.16C178.538 191.016 183.112 185.245 186.815 179.452C182.163 176.275 177.583 172.99 173.026 169.667C172.601 169.426 172.247 169.599 172.135 170.124ZM158.075 204.651C157.786 204.497 157.463 204.69 157.9 204.771C157.945 204.776 157.998 204.707 155.333 208.231C163.079 195.949 167.776 181.427 170.613 170.091C171.769 166.939 166.034 165.914 164.269 163.957C161.543 162.969 158.251 158.571 155.583 159.674C151.897 164.165 148.744 169.052 145.872 174.139C139.623 186.813 137.17 185.561 146.825 196.706C149.382 200.582 152.759 203.68 155.042 207.708C155.133 207.857 155.212 208.013 158.075 204.651ZM111.589 207.125C111.62 207.151 111.651 207.178 111.682 207.204C108.953 203.985 108.031 212.042 111.589 207.125ZM84.3509 205.88C78.0133 207.254 80.5855 201.575 80.1595 197.197C82.1647 195.331 86.37 196.918 89.1059 196.437C90.3071 197.099 87.8456 199.096 87.541 200.179C87.2001 201.324 87.2067 202.605 86.182 203.465C85.5365 204.319 86.6173 204.872 87.2967 204.875C93.4818 203.825 99.9903 204.406 106.257 204.728C109.771 204.525 108.344 197.598 109.621 194.829C110.282 187.256 112.461 180.17 114.036 172.817C118.884 167.658 114.502 175.623 114.282 178.055C112.706 187.988 103.821 220.891 118.666 195.081C125.487 182.121 133.19 178.969 121.946 165.406C122.683 163.379 124.007 163.796 124.196 165.69C126.253 168.474 127.819 171.638 129.894 174.136C133.267 170.869 134.008 152.982 137.007 154.29C136.435 161.034 134.326 167.54 131.98 173.814C130.357 176.111 132.154 177.302 133.076 179.292C134.261 180.52 137.428 185.745 138.539 185.017C140.806 179.03 143.716 173.476 147.347 168.326C156.023 155.203 156.703 158.898 142.705 152.455C139.746 148.4 152.967 155.528 154.726 156.864C154.951 156.625 155.844 156.89 155.846 156.694C156.151 155.6 157.406 155.713 157.924 154.635C158.114 152.897 163.262 151.63 161.212 150.069C159.725 148.592 161.993 149.842 162.828 149.814C166.496 152.108 159.51 154.238 158.048 156.858C156.921 159.121 162.696 160.252 164.052 161.859C166.455 162.96 168.854 165.962 171.288 166.047C172.253 162.921 171.827 150.251 174.08 158.645C174.146 161.666 172.198 165.47 173.642 168.134C178.78 170.603 183.468 176.73 188.524 177.819C189.231 177.265 189.329 175.85 190.626 176.11C190.817 175.834 190.702 175.113 190.918 174.864C191.696 174.003 192.935 172.428 193.806 171.977C194.554 172.36 194.4 172.067 194.362 171.508C201.965 166.81 189.499 177.342 189.967 179.648C192.747 180.936 195.338 184.469 198.139 184.803C199.114 182.871 203.04 172.1 203.372 177.387C198.59 188.418 198.213 185.351 207.684 191.745C210.095 192.572 212.862 183.475 214.637 186.078C215.35 187.965 211.293 190.88 210.288 193.019C213.9 196.393 219.784 198.609 224.117 201.635C225.354 202.173 225.708 199.75 226.624 199.104C227.742 199.971 227.119 200.86 226.804 202.136C226.312 202.952 226.683 203.199 227.286 203.503C228.369 204.05 228.904 205.248 228.554 206.268C227.646 205.783 226.166 204.5 225.181 205.244C221.943 210.789 218.912 216.689 215.338 221.867C214.54 224.418 220.016 223.288 221.653 224.112C220.632 227.522 216.449 224.894 214.023 225.245C208.817 229.743 205.099 237.486 199.973 242.202C192.935 242.346 199.02 227.461 196.844 222.308C191.698 221.816 185.693 219.082 180.969 219.632C178.473 222.909 176.701 226.779 174.214 230.045C171.926 232.643 175.88 235.037 176.963 237.307C178.503 239.243 183.857 244.177 178.145 242.908C176.022 240.536 174.48 237.673 172.312 235.381C170.142 232.821 166.99 240.703 164.772 242.542C160.126 244.743 165.641 238.84 167.075 236.799L167.066 236.809C167.673 235.216 170.365 233.444 169.613 231.801C167.87 230.166 166.681 226.542 164.472 226.003C162.104 228.123 162.623 245.61 159.588 241.881C160.104 236.075 160.761 230.333 162.94 224.902C163.845 222.076 160.271 220.059 159.146 217.737C154.511 209.597 153.902 214.99 150.458 220.159C145.332 225.877 140.5 237.744 133.768 239.977C139.505 231.03 146.824 222.96 152.23 213.623C152.489 213.224 152.989 212.605 151.853 212.543C145.953 211.679 140.067 210.489 134.205 209.353C131.54 210.086 132.387 214.934 131.328 217.269C129.419 224.197 130.23 231.94 128.887 238.788C124.976 237.774 129.302 223.068 129.073 219C133.545 203.441 128.32 209.871 114.726 206.745C109.345 208.477 108.526 215.564 108.969 220.726C108.489 224.909 110.215 229.574 109.248 233.465C107.182 232.742 107.956 229.674 107.591 227.863C107.552 207.067 107.238 217.988 96.1129 229.049C94.8062 231.146 91.9502 230.282 90.4059 231.653C90.0817 229.208 89.5111 227.122 92.6203 227.514C97.184 230.629 103.195 216.345 106.717 213.292C107.65 211.66 109.033 206.629 106.99 205.863C99.441 205.866 91.8606 204.938 84.3509 205.88Z"
    fill="#023FA6"
  />
<path
    fillRule="evenodd"
    clipRule="evenodd"
    d="M133.288 240.018C133.214 240.074 133.214 240.11 133.288 240.166C133.362 240.111 133.362 240.074 133.288 240.018ZM131.462 239.844C131.341 239.683 131.255 239.505 131.144 239.718C131.149 239.969 131.247 239.949 131.462 239.844ZM96.1141 229.05C112.764 209.011 104.61 215.139 108.596 234.017C111.284 228.559 107.243 218.79 109.426 212.311C113.309 203.253 121.209 208.279 128.628 208.447C131.255 209.145 131.245 209.141 130.609 211.927C128.469 220.189 127.781 228.77 127.342 237.29C130.59 246.923 129.481 208.672 134.206 209.353C153.686 214.687 157.536 206.522 143.329 226.957C126.554 247.608 139.049 238.967 122.922 238.248C122.58 238.096 121.451 237.713 122.448 237.293C122.214 236.129 120.142 237.008 121.9 237.652C119.138 235.703 115.927 235.752 112.634 235.392C111.477 234.123 110.473 233.044 108.117 234.569C107.759 234.672 107.477 234.89 107.441 234.224C106.651 232.971 104.56 233.561 103.909 231.979C101.201 230.903 97.9449 231.937 96.1141 229.05Z"
    fill="#0C87DE"
  />
<path
    fillRule="evenodd"
    clipRule="evenodd"
    d="M209.328 140.221C209.3 140.272 209.269 140.299 209.35 140.298C209.35 140.299 209.328 140.221 209.328 140.221ZM214.232 139.217C214.2 139.146 214.15 139.056 214.106 139.161C214.136 139.25 214.162 139.33 214.232 139.217ZM151.512 137.931C151.457 137.839 151.437 137.909 151.418 137.98C151.468 137.996 151.493 137.98 151.512 137.931ZM196.051 159.497C196.154 159.421 196.075 159.394 195.991 159.364C195.886 159.412 195.978 159.458 196.051 159.497ZM171.403 111.305C171.305 111.356 171.362 111.416 171.396 111.491C171.493 111.441 171.439 111.38 171.403 111.305ZM185.803 94.341C185.74 94.2328 185.712 94.3105 185.681 94.393C185.72 94.4994 185.767 94.4099 185.803 94.341ZM199.438 123.688C199.248 123.809 199.026 123.939 199.307 124.051C199.547 123.959 199.746 123.9 199.438 123.688ZM173.436 155.913C172.97 155.741 171.446 155.545 172 155.012C170.356 151.092 179.156 146.916 182.419 145.202C229.776 123.588 185.302 129.117 193.875 112.393C195.804 107.713 201.735 104.195 201.39 98.5979C199.245 89.1965 187.318 91.8792 182.332 97.2071C173.138 103.018 176.112 119.328 164.807 122.414C161.554 123.406 157.65 123.04 154.849 125.278C149.801 131.57 151.596 140.989 153.943 148.14C148.824 148.257 149.897 138.066 149.146 133.945C149.623 116.135 163.794 124.925 170.15 114.386C175.62 86.7339 208.481 81.3506 202.711 103.966C186.552 125.034 199.355 114.337 206.682 129.139C204.75 141.929 195.562 135.961 213.913 139.014C231.21 145.026 218.55 155.975 207.076 157.844C202.793 158.863 170.815 164.471 189.199 158.71C198.663 156.589 209.661 156.49 217.691 151.063C227.276 142.31 207.836 139.343 202.051 140.584C195.033 141.978 176.205 148.922 173.436 155.913Z"
    fill="#0D0D0D"
  />
<mask
    id="mask0_1247_24885"
    maskUnits="userSpaceOnUse"
    x="0"
    y="84"
    width="59"
    height="68"
  >
<path d="M0 84.1392H58.0838V151.556H0V84.1392Z" fill="white" />
</mask>
<g mask="url(#mask0_1247_24885)">
<path
      fillRule="evenodd"
      clipRule="evenodd"
      d="M33.3296 151.556C26.2814 148.948 -11.2226 149.778 3.32164 135.523C9.59087 131.367 16.8505 129.193 24.2564 130.795C26.1129 130.843 33.0488 134.803 31.87 132.133C25.5018 121.815 16.182 110.062 18.7087 97.1618C22.6514 79.4597 46.6023 79.8663 50.1621 98.0066C52.9198 106.54 53.9192 115.82 55.8171 124.435C55.7617 128.414 61.2315 135.525 55.372 135.405C49.8146 121.094 52.499 98.8554 41.5068 88.5271C35.3978 84.2687 25.4594 87.3079 22.0022 94.2031C16.4386 110.064 30.453 125.781 39.0825 137.649C51.1933 152.424 29.5245 132.73 23.8612 132.96C16.8947 131.894 7.77182 133.556 3.01282 139.581C-0.623658 149.112 45.0362 144.06 33.3296 151.556Z"
      fill="#0D0D0D"
    />
</g>
<path
    fillRule="evenodd"
    clipRule="evenodd"
    d="M135.457 240.44C135.346 240.537 135.629 240.542 135.521 240.446C135.507 240.434 135.479 240.441 135.457 240.44ZM140.735 240.482C140.66 240.451 140.557 240.36 140.517 240.471C140.585 240.623 140.646 240.576 140.735 240.482ZM134.213 240.202C141.003 235.956 145.19 226.585 150.459 220.159C152.373 218.499 153.164 212.311 156.096 213.584C168.116 227.144 159.858 225.76 159.588 241.881C159.518 242.587 159.855 242.654 160.416 242.476C161.839 242.789 160.037 243.266 159.458 243.39C157.641 244.298 156.106 242.869 154.359 242.677C153.552 242.522 152.436 243.293 152.046 242.367C149.353 242.782 149.859 241.264 147.115 242.601C144.228 244.117 144.154 243.422 141.016 241.441C139.297 239.88 136.637 241.8 136.114 240.952C135.77 240.836 133.928 240.728 134.213 240.202Z"
    fill="#0C87DE"
  />
<path
    fillRule="evenodd"
    clipRule="evenodd"
    d="M180.886 242.696C175.408 232.362 169.497 235.654 178.543 223.265C179.813 221.768 180.639 218.183 183.108 219.353C187.511 221.037 192.315 221.065 196.844 222.307C197.936 225.633 196.512 229.981 196.754 233.626C196.57 238.982 199.037 243.698 192.092 242.909C191.219 242.169 190.449 242.82 189.658 243.097C188.902 244.488 187.992 241.519 186.62 243.173C186.297 243.565 185.513 244.028 184.982 243.107C183.777 242.621 181.808 244.065 180.886 242.696Z"
    fill="#0C87DE"
  />
<path
    fillRule="evenodd"
    clipRule="evenodd"
    d="M206.707 178.32C206.614 178.411 206.859 178.406 206.763 178.323C206.751 178.313 206.726 178.321 206.707 178.32ZM218.183 188.723C218.441 188.557 218.648 188.443 218.313 188.327C218.019 188.386 217.916 188.469 218.183 188.723ZM226.624 199.104C225.742 199.755 225.309 202.167 224.117 201.635C219.52 198.85 214.854 196.188 210.253 193.41C211.287 190.819 214.048 188.873 215.119 186.182C214.151 186.116 214.273 184.463 213.217 186.039C207.832 194.237 207.557 191.493 200.576 187.074C198.153 185.69 203.067 179.914 203.371 177.387C204.272 176.19 202.591 176.617 202.627 175.457C200.486 178.171 199.9 183.004 197.5 184.964C187.098 178.215 188.788 179.05 197.357 170.875C201.677 175.383 207.574 177.739 211.616 182.631C213.456 184.021 215.347 184.546 216.779 186.415C217.624 187.854 219.274 188.885 219.874 190.56C220.705 191.585 222.088 191.875 222.579 193.463C223.703 194.995 224.635 197.216 226.321 198.075C227.154 198.21 226.844 198.66 226.624 199.104Z"
    fill="#0C87DE"
  />
<path
    fillRule="evenodd"
    clipRule="evenodd"
    d="M183.602 161.611C186.182 163.38 188.996 164.618 191.341 167.048C192.88 168.671 196.81 169.263 194.361 171.507C194.4 172.068 194.554 172.36 193.806 171.977C192.922 172.397 191.705 174.04 190.918 174.864C190.566 177.025 190.025 175.192 188.525 177.818C187.056 178.673 185.37 176.387 184.228 175.516C180.9 172.323 175.398 170.695 173.052 166.859C174.164 164.007 172.418 156.396 175.94 157.417C176.012 158.936 177.659 157.696 178.749 158.248C179.258 158.891 180.021 160.167 180.845 160.164C181.886 159.554 181.895 163.015 183.602 161.611Z"
    fill="#0C87DE"
  />
<path
    fillRule="evenodd"
    clipRule="evenodd"
    d="M199.973 242.203C204.44 237.32 208.908 231.558 212.786 225.849C215.036 224.649 218.94 225.66 221.143 226.202C221.46 226.552 220.253 227.393 220.031 227.795C219.977 228.568 219.867 229.292 219.313 229.865C218.226 231.291 219.065 233.217 217.793 234.452C216.988 237.56 213.478 237.959 211.618 240.078C211.025 240.452 209.687 239.843 208.94 239.959C210.603 241.442 201.241 242.875 199.973 242.203Z"
    fill="#0C87DE"
  />
<path
    fillRule="evenodd"
    clipRule="evenodd"
    d="M221.654 224.111C220.144 223.456 213.236 224.142 215.787 221.518C218.093 218.891 226.472 197.841 228.5 207.739C228.691 209.626 228.139 211.918 227.627 213.61C226.543 215.256 228.649 214.469 225.805 216.324C225.176 217.015 225.864 218.971 224.393 218.712C224.902 220.472 224.182 220.765 222.711 220.353C222.124 221.953 224.455 222.297 221.654 224.111Z"
    fill="#0C87DE"
  />
<path
    fillRule="evenodd"
    clipRule="evenodd"
    d="M61.8953 134.267C68.6016 133.823 70.8227 136.014 69.8625 142.928C69.8722 143.567 69.681 143.774 69.0619 143.767C66.5524 143.124 61.6954 145.056 60.3485 142.868C61.0327 140.307 58.7026 134.388 61.8953 134.267Z"
    fill="#023FA6"
  />
<path
    fillRule="evenodd"
    clipRule="evenodd"
    d="M22.8326 165.379C31.8982 164.774 30.3999 165.589 30.3127 174.16C28.0723 175.611 24.3031 174.434 21.5633 174.891C19.5429 172.821 21.111 167.711 22.8326 165.379Z"
    fill="#023FA6"
  />
<path
    fillRule="evenodd"
    clipRule="evenodd"
    d="M30.942 221.532C29.4481 214.623 35.2421 217.239 39.5439 216.837C40.6559 217.822 40.6252 226.027 39.5551 227.057C33.8824 227.546 34.007 225.909 30.942 221.532Z"
    fill="#023FA6"
  />
<path
    fillRule="evenodd"
    clipRule="evenodd"
    d="M20.8452 200.267C19.4292 194.168 25.9152 196.968 29.5761 196.448C31.3554 198.36 29.8597 202.419 30.3513 205.057C30.358 205.71 30.1359 205.9 29.5334 205.89C24.6939 206.363 21.4905 205.992 20.8452 200.267Z"
    fill="#023FA6"
  />
<path
    fillRule="evenodd"
    clipRule="evenodd"
    d="M62.8076 235.931C62.6055 235.685 62.4611 235.489 62.3213 235.799C62.384 236.125 62.5078 236.165 62.8076 235.931ZM60.3683 235.875C59.8961 225.658 60.0435 227.606 69.046 227.528C70.9598 228.371 69.3328 232.634 69.829 234.641C68.8685 234.305 68.2308 234.511 68.0969 235.694C66.2932 236.749 62.4134 236.546 60.3683 235.875Z"
    fill="#023FA6"
  />
<path
    fillRule="evenodd"
    clipRule="evenodd"
    d="M55.3714 135.405C61.6713 132.589 59.6541 138.171 59.9648 142.826C59.9757 143.565 59.7548 143.783 59.0526 143.774C56.6101 143.109 51.6962 145.112 50.4968 142.819C49.7329 138.353 51.4819 136.787 55.3714 135.405Z"
    fill="#023FA6"
  />
<path
    fillRule="evenodd"
    clipRule="evenodd"
    d="M50.6714 235.026C51.1876 232.884 49.5424 228.515 51.4912 227.523C53.9702 228.127 58.4908 226.349 59.9633 228.327C59.5175 229.726 60.9668 236.712 59.0526 235.68C58.9739 235.619 58.5933 235.981 58.354 236.146C57.1228 235.646 57.4262 235.626 55.5494 235.728C54.2696 235.006 52.3267 235.653 50.6714 235.026Z"
    fill="#023FA6"
  />
<path
    fillRule="evenodd"
    clipRule="evenodd"
    d="M70.4105 234.912C69.6803 225.407 71.228 227.758 78.9187 227.527C80.7642 228.205 79.211 232.11 79.7264 233.91C79.2227 236.443 74.8897 235.631 72.9656 235.244C73.1617 235.469 72.6092 235.734 72.4946 235.963C71.5145 234.844 70.5368 237.092 70.4105 234.912Z"
    fill="#023FA6"
  />
<path
    fillRule="evenodd"
    clipRule="evenodd"
    d="M161.024 242.689C162.84 238.107 161.463 228.322 165.237 226.083C168.463 230.504 171.838 232.016 166.989 236.762C165.661 238.705 163.814 241.555 161.876 243.074C161.404 243.27 161.048 243.3 161.024 242.689Z"
    fill="#0C87DE"
  />
<path
    fillRule="evenodd"
    clipRule="evenodd"
    d="M34.9294 227.601C37.5689 227.589 41.1043 226.639 40.1734 230.724C40.86 231.907 40.4703 228.882 40.6296 228.321C42.6409 226.464 46.683 228.005 49.3759 227.573C50.9063 228.812 49.7521 231.834 50.0771 233.699C50.3746 235.837 48.5894 234.163 47.6359 233.754C43.4929 232.505 38.2299 231.003 34.9294 227.601Z"
    fill="#023FA6"
  />
<path
    fillRule="evenodd"
    clipRule="evenodd"
    d="M164.422 243.265C169.839 236.044 170.616 230.729 176.559 240.911C179.563 244.764 169.127 242.66 166.57 243.712C165.531 243.527 165.632 242.405 164.422 243.265Z"
    fill="#0C87DE"
  />
<path
    fillRule="evenodd"
    clipRule="evenodd"
    d="M81.9063 234.921C78.6495 235.276 80.6452 230.579 80.1639 228.308C82.1825 226.478 86.2175 227.998 88.9059 227.57C90.4186 228.435 89.1895 231.035 89.3957 232.547C88.2849 232.888 86.7615 233.345 86.1332 234.61C85.5454 233.015 83.2602 235.438 81.9063 234.921Z"
    fill="#023FA6"
  />
<path
    fillRule="evenodd"
    clipRule="evenodd"
    d="M23.1411 206.493C25.1711 207.049 29.5612 205.219 30.3536 207.415C31.4979 223.442 26.0397 215.137 23.1411 206.493Z"
    fill="#023FA6"
  />
<path
    fillRule="evenodd"
    clipRule="evenodd"
    d="M24.0676 163.951C24.1476 163.844 24.2771 163.716 24.0924 163.657C23.9266 163.766 23.8465 163.819 24.0676 163.951ZM30.3225 155.1C29.7323 162.443 33.2386 166.229 23.768 164.864C21.6472 164.593 28.881 155.921 30.3225 155.1Z"
    fill="#023FA6"
  />
<path
    fillRule="evenodd"
    clipRule="evenodd"
    d="M33.3298 151.556C39.2327 146.683 40.7321 141.909 40.2038 153.2C39.1192 155.731 33.792 153.566 31.2748 154.246C31.4214 152.162 33.4047 153.507 33.3298 151.556Z"
    fill="#023FA6"
  />
<path
    fillRule="evenodd"
    clipRule="evenodd"
    d="M18.6302 175.313C22.2421 175.111 19.6481 181.434 20.4537 183.897C17.5368 189.237 17.7764 177.502 18.6302 175.313Z"
    fill="#023FA6"
  />
<path
    fillRule="evenodd"
    clipRule="evenodd"
    d="M18.1002 185.861C20.4248 185.837 20.4248 185.837 20.4242 188.295C20.6271 204.25 18.2047 191.853 18.1002 185.861Z"
    fill="#023FA6"
  />
<path
    fillRule="evenodd"
    clipRule="evenodd"
    d="M227.508 214.875C226.702 213.946 228.201 213.379 228.003 212.064C228.248 209.417 229.875 205.316 227.287 203.503C225.813 203.023 227.334 201.467 227.189 200.277C229.13 200.966 229.24 204.485 230 206.866C230 209.389 229.042 212.77 227.508 214.875Z"
    fill="#32BDF3"
  />
<path
    fillRule="evenodd"
    clipRule="evenodd"
    d="M212.158 240.949C212.115 240.787 212.041 240.794 211.913 240.843C211.964 241.012 212.004 241.064 212.158 240.949ZM209.044 240.926C209.343 240.46 209.569 240.183 208.941 239.96C209.684 239.837 211.025 240.462 211.619 240.079C212.487 238.752 214.233 238.566 215.247 237.434C218.422 236.158 218.076 232.485 219.313 229.864C219.693 231.478 218.66 232.994 218.525 234.437C219.584 235.298 218.508 235.118 218.176 235.414C215.416 238.284 213.414 242.416 209.044 240.926Z"
    fill="#32BDF3"
  />
<path
    fillRule="evenodd"
    clipRule="evenodd"
    d="M171.124 243.083C173.45 243.596 175.517 243.243 177.771 242.455C178.779 243.751 175.541 244.859 174.271 244.372C173.193 243.524 170.416 245.251 171.124 243.083Z"
    fill="#32BDF3"
  />
<path
    fillRule="evenodd"
    clipRule="evenodd"
    d="M189.224 165.2C186.363 162.654 181.568 162.388 188.288 161.085C190.251 160.801 187.318 164.004 189.224 165.2Z"
    fill="#32BDF3"
  />
<path
    fillRule="evenodd"
    clipRule="evenodd"
    d="M55.7633 236.5C55.934 236.271 55.8952 236.197 55.6955 236.055C55.5281 236.266 55.4571 236.33 55.7633 236.5ZM51.3999 235.133C52.2743 235.252 53.3133 235.731 53.9816 235.399C55.2393 234.991 55.7216 236.289 56.9603 235.651C59.3935 235.942 56.0794 237.196 55.1178 236.462C54.2242 237.161 53.9824 236.335 53.1245 236.036C52.217 237.381 51.721 235.313 50.9331 235.753C51.0886 235.546 51.2443 235.339 51.3999 235.133Z"
    fill="#32BDF3"
  />
<path
    fillRule="evenodd"
    clipRule="evenodd"
    d="M20.413 169.756C19.9714 171.239 21.5625 175.249 19.1904 174.893C18.1824 174.463 19.7874 170.781 20.413 169.756Z"
    fill="#023FA6"
  />
<path
    fillRule="evenodd"
    clipRule="evenodd"
    d="M139.004 242.397C138.955 242.315 138.921 242.312 138.862 242.388C138.916 242.431 138.974 242.498 139.004 242.397ZM137.284 240.796C138.657 240.574 143.844 241.724 140.664 242.38C140.309 242.513 139.919 242.903 139.866 242.105C139.504 241.814 138.961 242.784 138.879 242.778C138.155 242.284 137.475 241.728 137.284 240.796Z"
    fill="#32BDF3"
  />
<path
    fillRule="evenodd"
    clipRule="evenodd"
    d="M73.231 236.053C73.1358 235.944 73.138 236.23 73.2273 236.119C73.2374 236.104 73.2294 236.076 73.231 236.053ZM73.0698 235.328C74.2325 235.818 75.4452 235.397 76.6258 235.542C75.7562 235.746 73.6158 237.763 73.6082 236.598C73.2998 236.195 72.907 236.646 72.5209 236.521C72.6573 237.527 72.383 236.911 72.0554 236.693C71.6076 236.43 70.906 236.706 70.6914 236.021C71.8365 235.274 72.4552 236.237 73.0698 235.328Z"
    fill="#32BDF3"
  />
<path
    fillRule="evenodd"
    clipRule="evenodd"
    d="M28.0571 216.817C31.0661 216.314 30.2191 218.434 30.3054 220.696C29.5561 219.403 28.8065 218.11 28.0571 216.817Z"
    fill="#023FA6"
  />
<path
    fillRule="evenodd"
    clipRule="evenodd"
    d="M147.115 242.601C147.908 242.353 149.237 241.69 149.405 241.926C150.336 243.374 151.839 241.388 152.343 242.864C150.872 242.844 149.666 243.764 148.173 243.47C147.84 241.874 147.753 243.393 147.115 242.601Z"
    fill="#32BDF3"
  />
<path
    fillRule="evenodd"
    clipRule="evenodd"
    d="M96.114 229.05C97.8367 230.475 98.3256 231.93 96.0606 230.316C92.6545 231.221 94.5949 230.51 96.114 229.05Z"
    fill="#32BDF3"
  />
<path
    fillRule="evenodd"
    clipRule="evenodd"
    d="M45.0566 233.089C46.2979 232.561 48.6612 233.417 46.7546 234.655C46.6269 233.327 42.918 233.879 45.0566 233.089Z"
    fill="#32BDF3"
  />
<path
    fillRule="evenodd"
    clipRule="evenodd"
    d="M190.144 242.895C190.717 242.702 191.597 242.07 191.884 243.128C191.09 243.707 189.926 244.718 189.65 243.111C189.972 243.258 190.142 243.337 190.144 242.895Z"
    fill="#32BDF3"
  />
<path
    fillRule="evenodd"
    clipRule="evenodd"
    d="M87.0571 233.691C87.584 232.959 88.2351 232.566 89.1378 232.861C88.4441 233.139 87.7506 233.415 87.0571 233.691Z"
    fill="#32BDF3"
  />
<path
    fillRule="evenodd"
    clipRule="evenodd"
    d="M82.4133 234.867C82.7873 234.852 83.1615 234.836 83.5349 234.822C83.1611 234.858 82.8285 235.987 82.4133 234.867Z"
    fill="#32BDF3"
  />
<path
    fillRule="evenodd"
    clipRule="evenodd"
    d="M197.726 241.985C197.925 242.105 198.124 242.225 198.323 242.344C198.123 242.224 197.925 242.105 197.726 241.985Z"
    fill="#0C87DE"
  />
<path
    fillRule="evenodd"
    clipRule="evenodd"
    d="M146.093 243.097C146.14 242.849 146.188 242.601 146.235 242.353C146.647 242.603 146.294 242.814 146.093 243.097Z"
    fill="#32BDF3"
  />
<path
    fillRule="evenodd"
    clipRule="evenodd"
    d="M161.006 242.719C161.287 243.263 161.155 243.306 160.609 243.256C160.753 243.088 160.879 242.901 161.006 242.719Z"
    fill="#023FA6"
  />
<path
    fillRule="evenodd"
    clipRule="evenodd"
    d="M163.669 242.958C163.789 243.051 163.909 243.145 164.028 243.239C163.908 243.145 163.789 243.051 163.669 242.958Z"
    fill="#0C87DE"
  />
<path
    fillRule="evenodd"
    clipRule="evenodd"
    d="M57.9504 236.692L57.876 236.692C57.8886 236.689 57.9602 236.731 57.9504 236.692Z"
    fill="#32BDF3"
  />
<path
    fillRule="evenodd"
    clipRule="evenodd"
    d="M227.482 215.08L227.464 215.085C227.525 215.138 227.528 215.18 227.472 215.239C227.475 215.186 227.478 215.133 227.482 215.08Z"
    fill="#32BDF3"
  />
<path
    fillRule="evenodd"
    clipRule="evenodd"
    d="M192.081 242.901C192.022 242.983 191.891 243.049 191.884 243.128C191.945 243.045 192.059 242.981 192.081 242.901Z"
    fill="#32BDF3"
  />
<path
    fillRule="evenodd"
    clipRule="evenodd"
    d="M161.86 243.089L161.875 243.212C161.816 243.179 161.888 243.063 161.86 243.089Z"
    fill="#0C87DE"
  />
<path
    fillRule="evenodd"
    clipRule="evenodd"
    d="M114.035 172.817C103.42 209.311 119.114 204.684 86.0317 204.339C87.142 201.562 88.1396 198.007 90.6165 195.961C91.4265 194.311 95.2954 192.595 94.2505 190.961C95.1641 190.714 96.0573 191.04 96.683 190.144C102.308 184.117 107.646 178.112 114.035 172.817Z"
    fill="#0C87DE"
  />
<path
    fillRule="evenodd"
    clipRule="evenodd"
    d="M84.3509 205.88C112.125 204.466 114.844 204.079 95.7458 227.827C94.8105 228.921 92.0682 227.878 92.7617 226.48C91.131 225.528 89.6622 224.726 88.6143 223.11C84.2936 218.225 81.6582 213.124 84.3509 205.88Z"
    fill="#0C87DE"
  />
<path
    fillRule="evenodd"
    clipRule="evenodd"
    d="M153.97 158.712C147.42 166.38 142.326 177.58 137.855 185.15C135.508 182.176 132.849 179.563 131.242 176.068C133.58 168.495 137.427 160.414 136.814 152.158C137.666 154.648 139.891 151.483 141.459 151.344C143.076 154.246 154.764 154.898 148.899 158.211C147.662 160.412 152.731 157.147 153.97 158.712Z"
    fill="#0C87DE"
  />
<path
    fillRule="evenodd"
    clipRule="evenodd"
    d="M121.947 165.405C133.195 178.973 125.475 182.136 118.665 195.082C116.12 197.893 114.916 203.861 111.24 204.647C110.971 204.084 109.529 205.914 109.939 203.94C110.755 192.592 114.294 180.617 116.04 170.254C117.323 170.593 117.442 169.206 118.13 168.671C119.489 167.28 121.04 167.679 121.947 165.405Z"
    fill="#0C87DE"
  />
<path
    fillRule="evenodd"
    clipRule="evenodd"
    d="M49.7308 138.046C52.1283 146.167 47.1485 142.788 41.9772 144.189C44.2626 144.842 49.2967 142.748 50.1199 145.301C49.4458 147.852 51.4312 153.111 49.1398 154.277C46.6803 153.613 41.8275 155.587 40.5736 153.336C38.9831 145.225 43.2433 141.537 49.7308 138.046Z"
    fill="#023FA6"
  />
<path
    fillRule="evenodd"
    clipRule="evenodd"
    d="M136.607 153.626C132.786 159.076 134.147 169.37 129.52 173.997C128.323 169.947 121.151 165.776 125.246 161.605C128.368 159.785 130.726 156.851 134.142 155.402C135.12 154.863 135.251 152.516 136.607 153.626Z"
    fill="#0C87DE"
  />
<path
    fillRule="evenodd"
    clipRule="evenodd"
    d="M69.857 221.925C69.4632 223.405 70.7651 226.645 69.0963 227.114C66.5691 226.478 61.7592 228.356 60.3533 226.24C60.9594 223.501 59.1446 218.369 61.1727 216.796C66.1775 217.418 71.1445 214.261 69.857 221.925Z"
    fill="#023FA6"
  />
<path
    fillRule="evenodd"
    clipRule="evenodd"
    d="M40.5945 159.731C39.2654 152.105 44.377 155.309 49.3012 154.671C51.2978 156.305 49.5013 161.361 50.1024 164.117C48.7094 166.247 43.8969 164.353 41.3771 164.992C39.6646 164.56 41.0028 161.218 40.5945 159.731Z"
    fill="#023FA6"
  />
<path
    fillRule="evenodd"
    clipRule="evenodd"
    d="M69.85 159.74C69.5692 161.325 70.5904 163.97 69.1258 164.939C66.4362 164.532 62.4386 165.975 60.3906 164.272C60.9347 161.466 59.1059 156.295 61.2298 154.666C66.1423 155.341 71.1544 152.128 69.85 159.74Z"
    fill="#023FA6"
  />
<path
    fillRule="evenodd"
    clipRule="evenodd"
    d="M50.0844 222.054C51.4 229.65 46.3182 226.457 41.4176 227.105C39.361 225.508 41.1994 220.414 40.5852 217.661C41.9641 215.537 46.7822 217.431 49.2935 216.793C51.0212 217.199 49.6757 220.571 50.0844 222.054Z"
    fill="#023FA6"
  />
<path
    fillRule="evenodd"
    clipRule="evenodd"
    d="M30.7261 154.701C41.0118 154.571 40.5477 152.978 40.1951 164.135C38.8446 166.228 34.1461 164.359 31.6894 164.994C29.608 163.092 31.3895 157.702 30.7261 154.701Z"
    fill="#023FA6"
  />
<path
    fillRule="evenodd"
    clipRule="evenodd"
    d="M50.0951 190.945C51.4167 198.537 46.295 195.302 41.4162 195.958C39.3694 194.452 41.1969 189.421 40.5835 186.747C41.85 184.512 46.7837 186.488 49.2672 185.822C51.0401 186.167 49.687 189.491 50.0951 190.945Z"
    fill="#023FA6"
  />
<path
    fillRule="evenodd"
    clipRule="evenodd"
    d="M20.8285 190.871C19.3788 183.677 24.9794 186.194 29.5796 185.867C31.3731 188.024 29.8747 192.354 30.3034 195.233C28.2356 196.966 24.2655 195.509 21.5718 195.922C20.0671 195.048 21.119 192.407 20.8285 190.871Z"
    fill="#023FA6"
  />
<path
    fillRule="evenodd"
    clipRule="evenodd"
    d="M60.3639 190.9C60.7518 189.452 59.4671 186.265 61.1201 185.824C63.8045 186.335 67.7835 184.793 69.8224 186.593C69.3929 189.45 70.908 193.821 69.0827 195.921C64.1516 195.4 59.0356 198.485 60.3639 190.9Z"
    fill="#023FA6"
  />
<path
    fillRule="evenodd"
    clipRule="evenodd"
    d="M50.6497 159.734C49.3515 152.228 54.2793 155.201 59.1888 154.722C61.0082 156.89 59.4415 161.267 59.9609 164.174C58.5161 166.168 54.0207 164.379 51.5665 164.989C49.6502 164.745 51.1005 161.196 50.6497 159.734Z"
    fill="#023FA6"
  />
<path
    fillRule="evenodd"
    clipRule="evenodd"
    d="M59.9487 221.982C61.2282 229.563 56.4375 226.515 51.4754 227.098C49.4494 225.497 51.2622 220.401 50.6514 217.652C52.0097 215.554 56.7235 217.424 59.1891 216.793C60.8588 217.268 59.5376 220.516 59.9487 221.982Z"
    fill="#023FA6"
  />
<path
    fillRule="evenodd"
    clipRule="evenodd"
    d="M79.715 221.958C79.4261 223.512 80.4549 226.129 79.0316 227.071C76.3831 226.676 72.5185 228.063 70.4636 226.427C70.8549 223.446 69.5097 219.223 71.068 216.841C75.9038 217.274 81.0428 214.473 79.715 221.958Z"
    fill="#023FA6"
  />
<path
    fillRule="evenodd"
    clipRule="evenodd"
    d="M60.3647 149.206C60.7556 147.82 59.4405 144.549 61.2143 144.321C64.4948 145.042 71.217 142.074 69.8537 147.704C69.3623 149.548 70.9336 153.628 69.0091 154.272C64.095 153.639 59.0566 156.809 60.3647 149.206Z"
    fill="#023FA6"
  />
<path
    fillRule="evenodd"
    clipRule="evenodd"
    d="M60.3638 211.371C59.0432 203.886 64.253 207.127 69.0332 206.454C71.0539 207.939 69.2559 212.852 69.8616 215.475C68.5743 217.696 63.6644 215.728 61.1755 216.395C59.4325 216.05 60.7646 212.801 60.3638 211.371Z"
    fill="#023FA6"
  />
<path
    fillRule="evenodd"
    clipRule="evenodd"
    d="M30.3069 180.292C31.6273 187.827 26.4545 184.602 21.6098 185.263C19.6445 183.689 21.4123 178.783 20.812 176.112C22.336 174.107 26.9491 175.916 29.4907 175.302C31.24 175.551 29.9952 178.958 30.3069 180.292Z"
    fill="#023FA6"
  />
<path
    fillRule="evenodd"
    clipRule="evenodd"
    d="M40.5962 180.37C40.9863 178.933 39.6905 175.699 41.3712 175.307C44.0475 175.819 48.04 174.267 50.0575 176.085C49.5591 178.762 51.2612 183.673 49.3118 185.263C44.8862 184.785 39.1568 187.441 40.5962 180.37Z"
    fill="#023FA6"
  />
<path
    fillRule="evenodd"
    clipRule="evenodd"
    d="M50.0849 211.506C51.5355 218.558 45.7261 215.977 41.3034 216.342C39.6128 214.189 41.0639 210.081 40.5825 207.279C42.0897 205.242 46.7615 207.071 49.3106 206.451C50.9947 206.83 49.7094 210.091 50.0849 211.506Z"
    fill="#023FA6"
  />
<path
    fillRule="evenodd"
    clipRule="evenodd"
    d="M59.9501 191.005C61.2441 198.473 56.2467 195.336 51.4258 195.969C49.5002 194.297 51.2474 189.416 50.6494 186.688C52.0111 184.584 56.6388 186.463 59.088 185.82C60.927 186.143 59.5336 189.527 59.9501 191.005Z"
    fill="#023FA6"
  />
<path
    fillRule="evenodd"
    clipRule="evenodd"
    d="M40.1875 190.959C41.4893 198.425 36.4996 195.426 31.6393 195.92C29.8769 193.757 31.3466 189.476 30.9305 186.61C32.8522 184.775 36.7894 186.334 39.3873 185.824C41.116 186.172 39.7837 189.515 40.1875 190.959Z"
    fill="#023FA6"
  />
<path
    fillRule="evenodd"
    clipRule="evenodd"
    d="M59.948 149.391C61.354 156.361 55.8571 153.841 51.4533 154.271C49.4433 152.802 51.153 147.87 50.503 145.258C51.5719 142.736 56.7218 144.981 59.1779 144.315C60.8545 144.75 59.5555 147.945 59.948 149.391Z"
    fill="#023FA6"
  />
<path
    fillRule="evenodd"
    clipRule="evenodd"
    d="M50.665 180.244C49.3795 172.831 54.3305 175.921 59.122 175.313C61.1799 176.724 59.3495 181.801 59.9633 184.421C58.5729 186.484 53.9529 184.643 51.4952 185.266C49.7308 184.94 51.0652 181.673 50.665 180.244Z"
    fill="#023FA6"
  />
<path
    fillRule="evenodd"
    clipRule="evenodd"
    d="M79.7122 211.425C79.3299 212.842 80.6013 215.987 78.9511 216.392C76.4922 215.765 71.7623 217.629 70.4225 215.53C70.9919 212.867 69.2816 208.074 71.1852 206.457C76.0293 207.09 80.9811 203.962 79.7122 211.425Z"
    fill="#023FA6"
  />
<path
    fillRule="evenodd"
    clipRule="evenodd"
    d="M30.8908 180.201C29.4665 173.212 35.0713 175.686 39.4926 175.352C41.1612 177.495 39.7581 181.649 40.1552 184.456C38.2283 186.321 34.2148 184.779 31.5909 185.213C30.1541 184.312 31.203 181.703 30.8908 180.201Z"
    fill="#023FA6"
  />
<path
    fillRule="evenodd"
    clipRule="evenodd"
    d="M50.6615 211.344C49.236 204.363 54.8398 206.832 59.2555 206.498C60.9168 208.689 59.5095 212.863 59.9157 215.707C57.8528 217.336 53.9999 215.95 51.3502 216.346C49.9285 215.442 50.9506 212.864 50.6615 211.344Z"
    fill="#023FA6"
  />
<path
    fillRule="evenodd"
    clipRule="evenodd"
    d="M40.1866 211.469C39.7975 212.88 41.0992 216.053 39.3806 216.394C36.8941 215.785 32.3683 217.57 30.8881 215.588C31.4934 212.944 29.6986 207.946 31.7081 206.456C36.5744 207.067 41.4717 203.975 40.1866 211.469Z"
    fill="#023FA6"
  />
<path
    fillRule="evenodd"
    clipRule="evenodd"
    d="M151.733 148.176C153.712 147.802 155.654 149.07 157.495 148.059C157.295 149.507 158.091 148.828 158.653 148.65C159.838 148.952 163.21 150.498 161.073 151.641C158.488 153.021 157.4 156.419 154.77 156.79C150.631 154.837 146.454 151.319 141.85 151.275C144.85 149.144 148.739 149.573 151.733 148.176Z"
    fill="#0C87DE"
  />
<path
    fillRule="evenodd"
    clipRule="evenodd"
    d="M69.6542 177.399C68.8407 179.384 71.112 186.411 68.1895 185.212C65.9729 184.728 61.3416 186.522 60.3486 184.313C60.4728 175.071 58.5083 174.815 68.218 175.337C67.984 176.268 69.1862 176.029 68.5805 176.803C68.4911 177.45 69.227 177.382 69.6542 177.399Z"
    fill="#023FA6"
  />
<path
    fillRule="evenodd"
    clipRule="evenodd"
    d="M65.0529 205.861C58.0601 207.196 60.8674 202.079 60.3953 197.116C61.3583 195.914 68.8608 195.913 69.8177 197.117C69.5656 201.837 71.7372 207.307 65.0529 205.861Z"
    fill="#023FA6"
  />
<path
    fillRule="evenodd"
    clipRule="evenodd"
    d="M45.28 205.877C38.6672 207.314 40.9607 201.82 40.5831 197.217C42.1127 195.206 46.7297 197.014 49.2775 196.411C51.2902 197.726 49.5057 202.547 50.1082 205.025C49.762 206.848 46.6444 205.444 45.28 205.877Z"
    fill="#023FA6"
  />
<path
    fillRule="evenodd"
    clipRule="evenodd"
    d="M45.2957 174.895C38.2629 176.201 41.1632 171.246 40.5802 166.267C41.9936 164.156 46.7076 166.036 49.2169 165.406C51.338 166.593 49.4798 171.583 50.1051 174.04C49.7868 175.869 46.6633 174.477 45.2957 174.895Z"
    fill="#023FA6"
  />
<path
    fillRule="evenodd"
    clipRule="evenodd"
    d="M35.4837 205.879C28.9462 207.316 31.289 201.721 30.8888 197.217C32.3559 195.21 36.9015 197.006 39.3866 196.403C41.3664 197.76 39.6051 202.536 40.2029 205.025C39.8933 206.841 36.8303 205.468 35.4837 205.879Z"
    fill="#023FA6"
  />
<path
    fillRule="evenodd"
    clipRule="evenodd"
    d="M55.2915 174.895C53.9745 174.5 50.9539 175.823 50.6513 174.074C51.0913 171.401 49.7908 167.53 51.2619 165.445C53.9332 165.864 57.8722 164.434 59.92 166.109C59.6086 170.727 61.9248 176.35 55.2915 174.895Z"
    fill="#023FA6"
  />
<path
    fillRule="evenodd"
    clipRule="evenodd"
    d="M55.3581 196.417C62.2878 195.105 59.3706 200.192 59.9574 205.051C58.5284 207.081 53.9524 205.265 51.483 205.886C49.4655 204.545 51.2505 199.775 50.6495 197.289C50.9372 195.452 54.0268 196.84 55.3581 196.417Z"
    fill="#023FA6"
  />
<path
    fillRule="evenodd"
    clipRule="evenodd"
    d="M40.1865 170.196C41.5713 177.022 36.0696 174.436 31.7918 174.91C29.6158 173.757 31.4992 168.77 30.8575 166.325C32.121 164.093 36.9081 166.056 39.3524 165.4C41.1033 165.644 39.7996 168.832 40.1865 170.196Z"
    fill="#023FA6"
  />
<path
    fillRule="evenodd"
    clipRule="evenodd"
    d="M75.1541 196.431C81.6002 195.019 79.354 200.466 79.6995 204.945C78.3777 207.163 73.6745 205.239 71.2278 205.868C69.2506 204.511 70.9966 199.733 70.4084 197.244C70.7172 195.488 73.8601 196.776 75.1541 196.431Z"
    fill="#023FA6"
  />
<path
    fillRule="evenodd"
    clipRule="evenodd"
    d="M70.4238 190.871C70.8147 189.458 69.5094 186.132 71.2214 185.827C74.1843 185.36 76.4362 186.59 78.6537 188.305C80.8997 189.044 79.2298 193.282 79.6691 195.308C77.5386 196.878 73.742 195.54 71.0691 195.919C69.7239 194.94 70.685 192.395 70.4238 190.871Z"
    fill="#023FA6"
  />
<path
    fillRule="evenodd"
    clipRule="evenodd"
    d="M65.214 165.433C70.4598 165.166 69.8736 165.286 69.053 170.24C69.2388 170.846 69.6501 171.467 68.5334 170.883C68.5066 170.869 68.2363 171.165 68.25 171.297C70.1929 176.815 64.1389 174.426 60.8744 174.862C59.6121 172.536 60.6989 168.86 60.3949 166.105C61.3073 164.696 63.7817 165.684 65.214 165.433Z"
    fill="#023FA6"
  />
<path
    fillRule="evenodd"
    clipRule="evenodd"
    d="M40.5789 144.685C37.8989 149.573 31.8132 143.528 27.517 143.247C27.565 143.295 27.613 143.342 27.661 143.39C25.8042 142.46 11.6055 143.199 17.9487 139.724C25.6416 139.736 33.9447 140.501 40.5789 144.685Z"
    fill="#0D0D0D"
  />
<path
    fillRule="evenodd"
    clipRule="evenodd"
    d="M83.95 216.814C85.2272 219.292 93.989 227.231 87.1415 227.11C85.1487 226.548 80.8793 228.345 80.112 226.148C80.7562 222.212 77.904 215.319 83.95 216.814Z"
    fill="#023FA6"
  />
<path
    fillRule="evenodd"
    clipRule="evenodd"
    d="M84.8165 195.953C83.4965 195.562 80.5636 196.834 80.1463 195.199C80.4055 193.336 79.554 190.501 80.5025 189.11C83.3091 190.41 87.5372 189.606 89.6102 192.167C90.4324 196.722 88.3017 196.071 84.8165 195.953Z"
    fill="#023FA6"
  />
<path
    fillRule="evenodd"
    clipRule="evenodd"
    d="M70.4187 149.291C70.8034 147.886 69.5194 144.686 71.2037 144.336C72.712 144.88 77.6491 143.134 77.239 145.471C75.5938 148.182 74.6361 151.385 73.3913 154.177C69.6982 155.237 70.4221 152.003 70.4187 149.291Z"
    fill="#023FA6"
  />
<path
    fillRule="evenodd"
    clipRule="evenodd"
    d="M70.6718 136.202C77.3477 139.361 82.9654 144.989 71.1914 143.721C69.7817 142.54 70.1522 137.201 70.6718 136.202Z"
    fill="#023FA6"
  />
<path
    fillRule="evenodd"
    clipRule="evenodd"
    d="M84.3646 206.469C83.0547 209.651 82.8661 212.947 83.9539 216.359C77.978 217.883 80.7041 211.195 80.1179 207.273C80.3727 205.596 83.1471 206.844 84.3646 206.469Z"
    fill="#023FA6"
  />
<path
    fillRule="evenodd"
    clipRule="evenodd"
    d="M94.2496 190.96C95.2971 192.592 91.4274 194.313 90.6175 195.962C89.2542 191.947 90.158 190.823 94.2496 190.96Z"
    fill="#023FA6"
  />
<path
    fillRule="evenodd"
    clipRule="evenodd"
    d="M72.0242 158.139C71.2361 165.899 69.2559 156.011 71.1423 154.728C71.6379 154.674 73.9693 154.473 73.105 155.292C72.4712 156.128 72.9434 157.311 72.0242 158.139Z"
    fill="#023FA6"
  />
<path
    fillRule="evenodd"
    clipRule="evenodd"
    d="M74.0784 184.996C70.7594 185.981 69.7509 184.957 70.4373 180.705C71.7204 179.906 71.4755 183.178 73.065 183.75C72.1861 185.381 73.5059 184.456 74.0784 184.996Z"
    fill="#023FA6"
  />
<path
    fillRule="evenodd"
    clipRule="evenodd"
    d="M90.1015 224.864C90.7375 225.342 94.0897 226.727 92.1392 227.111C90.0077 227.085 90.0077 227.086 90.1015 224.864Z"
    fill="#023FA6"
  />
<path
    fillRule="evenodd"
    clipRule="evenodd"
    d="M69.3874 176.773C69.2423 176.686 69.1996 176.753 69.1443 176.885C69.2851 176.961 69.3454 176.933 69.3874 176.773ZM69.6542 177.399C67.8346 177.61 69.317 176.405 68.2763 175.971C68.2126 174.474 70.7205 175.431 69.6542 177.399Z"
    fill="#0C87DE"
  />
<path
    fillRule="evenodd"
    clipRule="evenodd"
    d="M73.0606 183.746C72.163 183.358 71.5193 182.189 71.8921 181.622C73.0215 181.887 73.034 182.821 73.0606 183.746Z"
    fill="#0C87DE"
  />
<path
    fillRule="evenodd"
    clipRule="evenodd"
    d="M73.9003 184.757C72.1565 185.405 72.7108 183.105 74.0815 184.159C74.0212 184.358 73.9607 184.557 73.9003 184.757Z"
    fill="#0C87DE"
  />
<path
    fillRule="evenodd"
    clipRule="evenodd"
    d="M74.0784 184.996C74.0207 184.924 73.9632 184.852 73.9058 184.78C73.9635 184.852 74.0209 184.924 74.0784 184.996Z"
    fill="#0C87DE"
  />
<path
    fillRule="evenodd"
    clipRule="evenodd"
    d="M74.0782 184.162C74.1071 184.177 74.1358 184.192 74.1647 184.207C74.1368 184.191 74.1092 184.175 74.0815 184.159L74.0782 184.162Z"
    fill="#0C87DE"
  />
<path
    fillRule="evenodd"
    clipRule="evenodd"
    d="M73.5671 155.678L73.5437 155.603C73.623 155.602 73.598 155.625 73.5671 155.678Z"
    fill="#023FA6"
  />
<path
    fillRule="evenodd"
    clipRule="evenodd"
    d="M64.8895 53.3543C64.3815 52.1485 64.5379 50.6206 65.3449 49.6581C65.851 50.8842 65.1222 52.0797 64.8895 53.3543Z"
    fill="#023FA6"
  />
<path
    fillRule="evenodd"
    clipRule="evenodd"
    d="M113.578 29.3217C113.897 28.4369 113.862 28.5003 112.906 28.1105C113.606 27.6849 113.778 28.9288 114.461 28.9018C115.929 28.6574 115.325 30.4466 113.578 29.3217Z"
    fill="#023FA6"
  />
<path
    fillRule="evenodd"
    clipRule="evenodd"
    d="M114.679 30.3146C115.554 31.617 115.472 31.8499 114.231 32.725C114.068 32.2447 114.608 31.0377 114.679 30.3146Z"
    fill="#023FA6"
  />
<path
    fillRule="evenodd"
    clipRule="evenodd"
    d="M65.8326 70.0645C65.6772 70.2892 65.5869 70.2045 65.4729 70.0388C65.5264 69.7977 65.6556 69.9093 65.8326 70.0645Z"
    fill="#32BDF3"
  />
<path
    fillRule="evenodd"
    clipRule="evenodd"
    d="M172.135 170.124C172.252 169.634 172.595 169.386 173.025 169.667C177.583 172.989 182.162 176.275 186.814 179.452C183.111 185.247 178.538 191.014 175.054 197.161C177.393 201.048 185.789 180.131 188.975 181.204C200.9 188.845 196.551 185.847 191.361 197.967C191.246 199.433 189.841 200.395 190.087 201.711C188.196 202.418 188.09 204.55 187.032 205.921C186.217 207.219 185.05 208.647 185.062 210.271C183.865 210.534 184.007 212.208 183.567 212.404C182.438 212.904 182.27 213.985 181.782 214.76C180.56 217.81 177.777 215.66 175.414 215.583C173.78 214.688 168.799 215.374 169.089 213.067C171.258 209.052 172.782 204.641 175.176 200.775C174.881 195.864 171.281 204.515 170.442 205.805C168.606 207.912 168.843 212.71 166.292 213.445C163.288 212.192 158.678 213.419 156.917 210.138C160.883 199.833 169.002 188.511 170.012 177.033C169.263 176.708 169.772 176.135 170.219 176.001C171.641 175.816 172.306 171.226 172.135 170.124Z"
    fill="#0C87DE"
  />
<path
    fillRule="evenodd"
    clipRule="evenodd"
    d="M155.333 208.231C153.136 202.571 139.168 190.624 140.323 185.892C144.037 176.384 149.254 167.537 155.582 159.675C158.252 158.553 161.54 162.987 164.268 163.957C166.042 165.894 171.76 166.957 170.613 170.091C167.782 181.417 163.074 195.96 155.333 208.231Z"
    fill="#0C87DE"
  />
<path
    fillRule="evenodd"
    clipRule="evenodd"
    d="M223.869 204.068C219.039 209.701 215.949 225.555 207.254 222.198C202.425 220.151 199.167 223.185 200.23 216.489C202.903 209.937 204.33 201.586 208.709 195.312C213.787 196.898 219.174 201.019 223.869 204.068Z"
    fill="#0C87DE"
  />
<path
    fillRule="evenodd"
    clipRule="evenodd"
    d="M207.255 193.59C202.79 201.898 199.281 210.063 197.958 219.559C198.526 220.981 180.685 217.346 182.858 216.353C188.427 207.448 193.511 198.186 198.075 188.686C200.695 187.463 204.342 192.769 207.255 193.59Z"
    fill="#0C87DE"
  />
<path
    fillRule="evenodd"
    clipRule="evenodd"
    d="M129.555 206.721C112.806 203.765 112.044 209.991 121.681 193.127C130.891 182.179 126.457 171.564 136.095 186.954C138.503 188.492 135.404 192.297 135.117 194.672C133.185 197.851 133.749 208.271 129.555 206.721Z"
    fill="#0C87DE"
  />
<path
    fillRule="evenodd"
    clipRule="evenodd"
    d="M162.828 149.814C159.04 149.882 162.508 146.527 163.278 144.497C166.38 140.582 169.356 141.169 166.798 135.272C166.447 133.084 162.736 123.573 167.341 126.259C166.758 126.87 167.536 127.071 167.704 127.404C170.116 130.483 168.422 136.831 172.012 137.678C181.702 134.319 178.426 122.685 182.132 115.143C181.579 113.255 187.094 104.224 187.979 106.917C184.48 113.829 182.698 121.207 181.974 128.961C181.905 129.45 181.747 130.016 182.625 129.648C185.485 128.496 188.303 125.713 191.613 126.829C189.179 130.214 183.641 130.749 180.763 133.61C177.937 138.609 171.92 139.983 167.879 143.531L167.885 143.519C167.817 143.593 167.748 143.668 167.68 143.743L167.688 143.739C165.12 144.867 163.942 147.229 162.828 149.814Z"
    fill="#0D0D0D"
  />
<path
    fillRule="evenodd"
    clipRule="evenodd"
    d="M142.358 208.695C140.108 207.784 135.383 208.603 133.955 206.546C135.709 202.047 136.127 193.098 139.23 190.899C143.468 197.766 149.241 203.488 153.545 210.261C149.858 210.706 146.154 208.624 142.358 208.695Z"
    fill="#0C87DE"
  />
<path
    fillRule="evenodd"
    clipRule="evenodd"
    d="M171.272 141.22C176.173 139.186 179.071 134.934 183.158 132.029C185.941 145.004 184.268 134.894 178.152 140.158C175.12 144.422 179.135 146.991 177.34 147.841C171.025 152.282 172.56 156.955 164.393 151.493C167.26 149.319 171.857 145.759 171.272 141.22Z"
    fill="#32BDF3"
  />
<path
    fillRule="evenodd"
    clipRule="evenodd"
    d="M164.393 151.494C166.917 152.771 169.435 153.961 171.859 155.004C172.286 158.552 172.597 163.356 170.859 166.269C168.481 164.894 166.38 163.316 164.053 161.858C154.853 156.925 157.258 157.183 164.393 151.494Z"
    fill="#0C87DE"
  />
<path
    fillRule="evenodd"
    clipRule="evenodd"
    d="M198.591 239.612C199.713 222.301 195.305 221.542 210.43 224.592C212.297 224.858 198.588 242.045 198.591 239.612Z"
    fill="#0C87DE"
  />
<path
    fillRule="evenodd"
    clipRule="evenodd"
    d="M167.924 216.204C183.184 218.61 179.403 218.725 171.816 229.881C168.057 226.484 164.001 221.441 167.924 216.204Z"
    fill="#0C87DE"
  />
<path
    fillRule="evenodd"
    clipRule="evenodd"
    d="M104.863 181.33C104.485 179.019 103.622 176.84 103.036 174.584C102.138 167.363 111.223 166.484 114.061 172.577C110.881 175.009 108.064 178.96 104.863 181.33Z"
    fill="#32BDF3"
  />
<path
    fillRule="evenodd"
    clipRule="evenodd"
    d="M175.941 157.418C168.236 154.458 183.491 147.348 186.873 146.288C189.235 154.789 181.807 153.975 175.941 157.418Z"
    fill="#32BDF3"
  />
<path
    fillRule="evenodd"
    clipRule="evenodd"
    d="M164.196 220.624C161.264 216.407 157.454 212.731 165.091 215.352C167.049 215.801 164.615 219.205 164.196 220.624Z"
    fill="#0C87DE"
  />
<path
    fillRule="evenodd"
    clipRule="evenodd"
    d="M153.97 158.713C152.056 157.374 150.225 159.462 148.374 158.857C149.122 157.696 150.72 157.636 150.964 156.01C151.641 156.789 155.526 157.59 153.97 158.713Z"
    fill="#32BDF3"
  />
<path
    fillRule="evenodd"
    clipRule="evenodd"
    d="M111.589 207.125C109.722 208.928 109.027 209.926 109.631 206.559C110.059 205.711 111.103 206.905 111.589 207.125Z"
    fill="#0C87DE"
  />
<path
    fillRule="evenodd"
    clipRule="evenodd"
    d="M156.558 208.531C156.287 208.27 156.177 208.1 156.524 208.005C156.766 208.125 156.828 208.3 156.558 208.531Z"
    fill="#0C87DE"
  />
<path
    fillRule="evenodd"
    clipRule="evenodd"
    d="M158.075 204.651C157.911 204.835 157.812 204.752 157.637 204.675C157.775 204.526 157.894 204.604 158.075 204.651Z"
    fill="#0C87DE"
  />
<path
    fillRule="evenodd"
    clipRule="evenodd"
    d="M173.196 163.663C173.088 163.762 173.051 163.5 173.179 163.591C173.193 163.602 173.191 163.638 173.196 163.663Z"
    fill="#0C87DE"
  />
<path
    fillRule="evenodd"
    clipRule="evenodd"
    d="M96.0967 229.049C96.0481 229.179 95.9995 229.309 95.9517 229.439C96.0007 229.309 96.0487 229.179 96.0967 229.049Z"
    fill="#0C87DE"
  />
<path
    fillRule="evenodd"
    clipRule="evenodd"
    d="M111.608 207.105C111.633 207.138 111.658 207.171 111.683 207.205C111.66 207.172 111.566 207.141 111.608 207.105Z"
    fill="#0C87DE"
  />
<path
    fillRule="evenodd"
    clipRule="evenodd"
    d="M154.762 156.781C154.75 156.809 154.738 156.837 154.726 156.865C154.735 156.838 154.78 156.805 154.762 156.781Z"
    fill="#0C87DE"
  />
<path
    fillRule="evenodd"
    clipRule="evenodd"
    d="M155.522 147.951C155.497 147.873 155.452 147.854 155.425 147.94C155.436 148.027 155.483 148.023 155.522 147.951ZM173.057 114.26C176.273 119.224 181.092 125.006 178.607 131.575C177.529 134.943 169.821 141.47 169.693 134.044C169.096 126.689 162.93 120.405 166.042 132.427C157.771 129.946 156.562 137.653 156.35 144.171C156.875 147.178 158.5 149.503 153.943 148.14C144.364 112.629 165.804 131.965 173.057 114.26Z"
    fill="#32BDF3"
  />
<path
    fillRule="evenodd"
    clipRule="evenodd"
    d="M188.407 154.734C188.545 156.249 187.967 157.936 189.199 158.711C177.109 162.755 175.329 157.537 188.407 154.734Z"
    fill="#32BDF3"
  />
<path
    fillRule="evenodd"
    clipRule="evenodd"
    d="M180.214 146.146C173.861 140.688 187.081 138.914 182.131 145.509C181.487 145.689 180.854 145.941 180.214 146.146Z"
    fill="#32BDF3"
  />
<path
    fillRule="evenodd"
    clipRule="evenodd"
    d="M181.598 160.813C182.591 160.648 183.389 160.317 183.602 161.611C183.122 162.21 182.029 161.774 181.598 160.813Z"
    fill="#023FA6"
  />
<path
    fillRule="evenodd"
    clipRule="evenodd"
    d="M171.859 155.004C171.879 155.04 171.957 155.004 172 155.012C171.947 155.055 171.907 155.052 171.859 155.004Z"
    fill="#023FA6"
  />
<path
    fillRule="evenodd"
    clipRule="evenodd"
    d="M151.513 137.931C151.494 137.981 151.468 137.997 151.418 137.981C151.437 137.909 151.457 137.838 151.513 137.931Z"
    fill="#32BDF3"
  />
<path
    fillRule="evenodd"
    clipRule="evenodd"
    d="M140.735 240.482C140.646 240.576 140.585 240.623 140.517 240.471C140.557 240.36 140.659 240.451 140.735 240.482Z"
    fill="#32BDF3"
  />
<path
    fillRule="evenodd"
    clipRule="evenodd"
    d="M215.076 186.265C215.09 186.237 215.105 186.21 215.119 186.182C215.103 186.206 215.096 186.251 215.076 186.265Z"
    fill="#023FA6"
  />
<path
    fillRule="evenodd"
    clipRule="evenodd"
    d="M202.567 175.517C202.587 175.497 202.607 175.477 202.627 175.457C202.607 175.474 202.588 175.544 202.567 175.517Z"
    fill="#023FA6"
  />
<path
    fillRule="evenodd"
    clipRule="evenodd"
    d="M188.407 154.734C154.594 165.74 205.042 143.157 214.38 147.129C219.534 149.997 191.425 151.966 188.407 154.734Z"
    fill="#0D0D0D"
  />
<path
    fillRule="evenodd"
    clipRule="evenodd"
    d="M176.178 158.267C176.224 158.278 176.244 158.308 176.239 158.355C176.227 158.322 176.207 158.293 176.178 158.267Z"
    fill="#32BDF3"
  />
<path
    fillRule="evenodd"
    clipRule="evenodd"
    d="M73.0528 235.35C73.0237 235.314 72.9947 235.279 72.9656 235.244C72.9916 235.279 73.0921 235.309 73.0528 235.35Z"
    fill="#32BDF3"
  />
<path
    fillRule="evenodd"
    clipRule="evenodd"
    d="M167.076 236.799C167.047 236.787 167.018 236.774 166.989 236.762C167.017 236.771 167.051 236.818 167.076 236.799Z"
    fill="#023FA6"
  />
<path
    fillRule="evenodd"
    clipRule="evenodd"
    d="M85.6604 127.763C87.456 125.641 87.0821 117.332 91.3221 120.623C98.9847 124.106 84.8445 134.542 85.6604 127.763Z"
    fill="#32BDF3"
  />
<path
    fillRule="evenodd"
    clipRule="evenodd"
    d="M123.295 103.416C120.828 103.024 119.994 100.071 119.327 97.9642C121.595 97.1828 126.902 102.321 123.295 103.416Z"
    fill="#0D0D0D"
  />
<path
    fillRule="evenodd"
    clipRule="evenodd"
    d="M101.11 103.751C97.0892 102.735 105.541 94.2107 105.131 98.5657C103.901 100.444 103.048 102.505 101.11 103.751Z"
    fill="#0D0D0D"
  />
<path
    fillRule="evenodd"
    clipRule="evenodd"
    d="M113.225 101.45C113.869 103.304 112.178 107.649 110.66 104.527C109.779 101.558 112.585 95.2324 113.225 101.45Z"
    fill="#0D0D0D"
  />
<path
    fillRule="evenodd"
    clipRule="evenodd"
    d="M125.905 111.103C128.757 109.878 126.073 114.832 124.869 115.068C123.668 115.47 123.604 114.351 123.345 113.744C122.324 112.13 124.967 111.846 125.926 111.088L125.905 111.103Z"
    fill="#32BDF3"
  />
<path
    fillRule="evenodd"
    clipRule="evenodd"
    d="M125.926 111.088C125.729 110.917 125.949 110.891 125.905 111.103L125.926 111.088Z"
    fill="#32BDF3"
  />
<path
    fillRule="evenodd"
    clipRule="evenodd"
    d="M49.7308 138.046C44.2473 144.656 37.859 119.171 35.0683 115.919C35.0855 113.201 28.6621 98.2934 32.42 99.1523C38.0763 112.105 42.1353 126.001 49.7308 138.046Z"
    fill="#0D0D0D"
  />
<path
    fillRule="evenodd"
    clipRule="evenodd"
    d="M48.8768 103.286C48.8008 103.292 48.7665 103.336 48.776 103.415C48.8096 103.372 48.8431 103.329 48.8768 103.286Z"
    fill="#0D0D0D"
  />
<path
    fillRule="evenodd"
    clipRule="evenodd"
    d="M35.076 115.881C35.0883 115.898 35.1006 115.914 35.1129 115.931C35.0808 115.921 35.0596 115.919 35.076 115.881Z"
    fill="#0D0D0D"
  />
<path
    fillRule="evenodd"
    clipRule="evenodd"
    d="M35.7947 117.507L35.8187 117.47C35.8422 117.499 35.8195 117.502 35.7947 117.507Z"
    fill="#0D0D0D"
  />
<path
    fillRule="evenodd"
    clipRule="evenodd"
    d="M93.7309 150.982C92.9051 147.006 95.9732 144.103 99.7073 144.499C108.489 148.835 100.971 166.478 93.7309 150.982Z"
    fill="#32BDF3"
  />
<path
    fillRule="evenodd"
    clipRule="evenodd"
    d="M112.847 132.727C109.259 132.115 108.515 125.679 111.046 123.447C118.755 119.736 120.118 131.705 112.847 132.727Z"
    fill="#32BDF3"
  />
<path
    fillRule="evenodd"
    clipRule="evenodd"
    d="M144.205 128.674C146.487 130.821 146.24 134.693 144.024 136.691C137.61 139.297 136.096 123.962 144.205 128.674Z"
    fill="#32BDF3"
  />
<path
    fillRule="evenodd"
    clipRule="evenodd"
    d="M143.998 128.488C144.237 128.318 144.221 128.431 144.203 128.674C144.136 128.612 144.067 128.55 143.998 128.488Z"
    fill="#32BDF3"
  />
<path
    fillRule="evenodd"
    clipRule="evenodd"
    d="M157.495 148.058C157.861 148.299 158.618 147.705 158.653 148.65C158.091 148.828 157.295 149.507 157.495 148.058Z"
    fill="#32BDF3"
  />
<path
    fillRule="evenodd"
    clipRule="evenodd"
    d="M159.902 149.06C160.057 149.154 160.213 149.249 160.368 149.342C160.212 149.248 160.057 149.154 159.902 149.06Z"
    fill="#023FA6"
  />
<path
    fillRule="evenodd"
    clipRule="evenodd"
    d="M135.237 146.26C136.049 147.422 137.78 148.35 135.943 149.018C135.159 148.897 134.194 147.123 135.237 146.26Z"
    fill="#32BDF3"
  />
<path
    fillRule="evenodd"
    clipRule="evenodd"
    d="M69.3873 176.773C69.3454 176.933 69.2851 176.961 69.1443 176.885C69.1998 176.753 69.2423 176.686 69.3873 176.773Z"
    fill="#023FA6"
  />
<path
    fillRule="evenodd"
    clipRule="evenodd"
    d="M113.357 46.4635C111.773 47.6286 110.446 47.6953 112.762 48.294C111.581 49.2525 112.452 49.8139 110.693 49.3738C109.126 49.8432 109.79 48.6358 108.957 48.1177C110.527 45.4527 109.809 43.5146 113.357 46.4635Z"
    fill="#0D0D0D"
  />
<path
    fillRule="evenodd"
    clipRule="evenodd"
    d="M96.0591 78.6402C95.4265 82.8462 90.251 75.6343 94.0293 76.6666C94.4553 76.8677 94.8234 76.8708 94.7377 76.2854C94.563 75.2587 96.5392 74.9024 96.6209 75.6051C94.73 76.9868 94.7197 75.851 96.0591 78.6402Z"
    fill="#0D0D0D"
  />
<path
    fillRule="evenodd"
    clipRule="evenodd"
    d="M110.003 53.0865C109.776 53.3484 109.889 53.516 110.134 53.5624C110.445 53.3867 110.341 53.2509 110.003 53.0865ZM110.115 51.1254C109.858 51.7813 109.356 52.0283 110.05 52.3619C110.381 51.8609 110.564 51.7767 110.115 51.1254ZM114.5 51.2309C114.517 51.5423 114.533 51.8536 114.55 52.1648C113.875 51.4813 114.135 52.5657 113.822 52.5729C111.4 50.8868 110.319 54.1863 109.332 55.0949C107.992 54.476 109.882 49.5061 111.476 51.4541C112.704 53.1044 113.344 49.0256 114.5 51.2309Z"
    fill="#023FA6"
  />
<path
    fillRule="evenodd"
    clipRule="evenodd"
    d="M106.294 67.3052C106.677 66.8731 107.046 66.7064 107.587 66.9565C107.065 67.2625 106.398 68.0071 107.225 68.2979C108.484 68.0675 107.467 68.6769 107.373 68.7891C106.563 69.3556 108.715 69.166 107.892 70.4996C106.99 72.0507 106.68 69.277 104.834 71.2179C105.661 69.8447 103.653 68.9978 105.507 68.3408C106.333 67.762 104.975 67.587 106.294 67.3052Z"
    fill="#023FA6"
  />
<path
    fillRule="evenodd"
    clipRule="evenodd"
    d="M113.628 59.7011C109.876 59.6794 114.744 58.6144 112.91 57.5312C112.681 57.2604 112.188 57.0778 113.029 56.9058C113.422 56.7026 114.041 55.8234 114.655 56.4486C114.302 56.4265 113.979 56.44 113.772 56.7792C115.048 56.7481 112.83 58.0989 114.24 58.0791C115.978 59.7565 112.571 58.3008 113.628 59.7011Z"
    fill="#0D0D0D"
  />
<path
    fillRule="evenodd"
    clipRule="evenodd"
    d="M114.533 52.1492C114.836 52.3284 115.141 52.5021 115.406 52.7441C114.441 52.5284 114.677 53.6059 115.305 53.7813C116.118 53.9178 116.711 53.583 116.532 54.4739C116.158 55.4141 115.81 54.0399 115.4 54.5923C116.042 54.942 115.717 56.8304 114.881 55.5853C115.362 54.993 114.505 54.9094 114.586 54.3653C114.619 54.3 114.35 54.0001 114.173 53.9026C113.102 53.5032 114.673 53.5312 113.822 52.5729C114.059 52.4316 114.296 52.2905 114.533 52.1492Z"
    fill="#0D0D0D"
  />
<path
    fillRule="evenodd"
    clipRule="evenodd"
    d="M106.294 67.3052C104.502 68.1414 106.133 66.6287 105.26 65.8542C104.857 63.9963 107.102 64.9007 107.868 65.7647C107.901 66.0125 107.961 66.7797 107.372 66.0464C107.181 66.6236 105.773 66.0635 106.294 67.3052Z"
    fill="#32BDF3"
  />
<path
    fillRule="evenodd"
    clipRule="evenodd"
    d="M103.639 60.2642C103.525 57.6142 105.414 59.774 105.637 57.4036C106.838 58.1964 105.06 59.9238 104.937 61.0973C104.555 62.2883 103.887 60.6079 103.639 60.2642Z"
    fill="#0D0D0D"
  />
<path
    fillRule="evenodd"
    clipRule="evenodd"
    d="M108.729 50.1644C106.382 52.1583 104.671 53.7643 106.732 49.4242C107.376 48.3532 107.589 50.0938 108.729 50.1644Z"
    fill="#0D0D0D"
  />
<path
    fillRule="evenodd"
    clipRule="evenodd"
    d="M105.664 41.7684C104.415 40.4717 105.535 39.0845 106.968 39.7149C106.434 40.2809 107.413 41.7082 105.664 41.7684Z"
    fill="#0D0D0D"
  />
<path
    fillRule="evenodd"
    clipRule="evenodd"
    d="M113.628 59.7011C114.531 59.4375 114.753 60.4154 115.306 60.7889C114.484 61.7729 113.358 61.0315 113.628 59.7011Z"
    fill="#023FA6"
  />
<path
    fillRule="evenodd"
    clipRule="evenodd"
    d="M116.444 35.7093C115.959 34.6543 116.172 34.3665 117.28 34.4461C116.1 34.9687 118.059 36.229 117.053 35.9681C116.859 35.8061 116.696 35.4825 116.444 35.7093Z"
    fill="#32BDF3"
  />
<path
    fillRule="evenodd"
    clipRule="evenodd"
    d="M116.435 35.6996C116.438 36.2319 116.14 36.5699 115.795 36.9163C115.257 36.4191 116.066 35.904 116.435 35.6996Z"
    fill="#32BDF3"
  />
<path
    fillRule="evenodd"
    clipRule="evenodd"
    d="M111.575 44.5226C111.767 44.7054 111.763 44.7858 111.619 44.9745C111.405 44.8161 111.332 44.7719 111.575 44.5226Z"
    fill="#0D0D0D"
  />
<path
    fillRule="evenodd"
    clipRule="evenodd"
    d="M98.4564 59.4857C98.4195 59.675 98.5462 59.9603 98.2576 59.8982C98.3036 59.7664 98.5016 59.5864 98.4564 59.4857Z"
    fill="#0D0D0D"
  />
<path
    fillRule="evenodd"
    clipRule="evenodd"
    d="M105.705 54.3005C105.647 54.2518 105.513 54.2472 105.543 54.1489C105.597 54.1994 105.651 54.2506 105.705 54.3005Z"
    fill="#0D0D0D"
  />
<path
    fillRule="evenodd"
    clipRule="evenodd"
    d="M90.1623 77.4757C90.1229 77.5471 90.0604 77.5557 90.0348 77.4782C90.058 77.398 90.1181 77.4058 90.1623 77.4757Z"
    fill="#0D0D0D"
  />
<path
    fillRule="evenodd"
    clipRule="evenodd"
    d="M93.2402 52.3542C92.8364 52.1405 92.9683 52.1015 93.3351 51.9884C93.3159 52.092 93.2009 52.3555 93.2402 52.3542Z"
    fill="#0D0D0D"
  />
<path
    fillRule="evenodd"
    clipRule="evenodd"
    d="M93.2542 47.09C93.1799 47.0123 93.1057 46.9346 93.0312 46.8569C93.1057 46.9346 93.1799 47.0123 93.2542 47.09Z"
    fill="#0D0D0D"
  />
<path
    fillRule="evenodd"
    clipRule="evenodd"
    d="M161.319 147.733C157.903 145.612 159.574 140.706 159.716 137.348C159.98 133.646 164.404 135.496 166.799 135.272C169.766 142.997 164.828 140.072 161.319 147.733Z"
    fill="#32BDF3"
  />
<path
    fillRule="evenodd"
    clipRule="evenodd"
    d="M167.688 143.739C167.203 145.613 165.976 147.094 164.217 147.503C163.88 145.717 166.496 144.659 167.688 143.739Z"
    fill="#32BDF3"
  />
<path
    fillRule="evenodd"
    clipRule="evenodd"
    d="M168.163 143.278C168.069 143.362 167.974 143.446 167.879 143.531C167.974 143.446 168.069 143.362 168.163 143.278Z"
    fill="#32BDF3"
  />
<path
    fillRule="evenodd"
    clipRule="evenodd"
    d="M167.885 143.519C167.817 143.593 167.748 143.668 167.68 143.743C167.748 143.668 167.817 143.593 167.885 143.519Z"
    fill="#32BDF3"
  />
<path
    fillRule="evenodd"
    clipRule="evenodd"
    d="M169.699 134.05C169.652 134.134 169.642 134.293 169.54 134.192C169.597 134.148 169.641 134.07 169.699 134.05Z"
    fill="#32BDF3"
  />
<path
    fillRule="evenodd"
    clipRule="evenodd"
    d="M155.523 147.952C155.484 148.024 155.436 148.029 155.425 147.941C155.452 147.854 155.498 147.873 155.523 147.952Z"
    fill="#0C87DE"
  />
</svg>
