<svg
  width="230"
  height="245"
  viewBox="0 0 230 245"
  fill="none"
  xmlns="http://www.w3.org/2000/svg"
>
<path
    fill-rule="evenodd"
    clip-rule="evenodd"
    d="M147.807 226.825C147.401 226.519 147.328 226.646 147.041 226.913C147.32 227.284 147.427 227.05 147.807 226.825ZM146.688 227.904C146.412 226.399 144.194 229.871 145.893 229.793C146.577 229.559 146.509 228.59 146.688 227.904ZM125.638 157.521C127.295 157.65 130.963 157.677 132.507 156.376C132.666 154.673 135.587 149.629 133.866 149.729C131.029 150.907 116.617 158.451 125.638 157.521ZM186.581 184.626C186.627 182.13 187.46 178.836 190.339 178.552C187.26 175.684 183.862 182.081 184.659 184.92C189.349 198.636 205.504 179.672 189.318 180.246C183.9 182.302 194.799 188.513 191.871 183.482C190.511 183.464 192.029 182.52 192.679 182.266C197.724 184.282 185.47 192.74 186.581 184.626ZM95.3479 192.423C100.675 190.362 111.248 189.686 113.982 186.895C100.88 180.981 101.731 177.626 95.3479 192.423ZM88.1901 197.979C77.504 200.173 77.2141 198.879 78.1745 210.238C78.9705 216.222 76.5077 219.548 83.959 215.635C85.9561 210.599 86.6209 203.621 88.1901 197.979ZM133.543 228.286C148.412 228.723 151.784 204.411 136.565 202.547C124.88 202.58 119.13 212.575 129.05 220.677C133.751 225.587 141.223 219.666 139.511 214.327C138.357 209.243 129.049 206.457 130.18 213.974C130.468 217.248 137.714 217.55 135.248 213.966C129.805 214.708 134.258 210.158 136.174 211.59C138.526 213.995 135.692 217.712 133.348 218.975C128.46 222.507 124.383 213.134 127.699 209.743C147.956 190.945 150.097 229.747 128.856 226.086C125.741 225.782 123.104 223.187 123.899 220.062C120.561 224.035 129.563 228.606 133.543 228.286ZM126.997 172.76C130.913 157.456 134.816 161.977 119.471 160.583C116.547 160.232 102.441 176.68 104.402 178.515C109.335 180.866 114.242 183.264 119.155 185.653C121.817 186.827 121.853 182.783 123.082 184.069C133.815 191.704 138.345 176.054 126.997 172.76ZM118.593 197.199C121.563 196.192 124.559 195.25 127.497 194.156C130.496 190.867 142.131 200.828 138.676 195.798C128.465 190.04 129.242 189.137 118.047 194.962C118.455 193.802 121.3 189.419 118.565 189.929C110.387 192.143 102.205 194.343 94.0361 196.592C91.3202 199.09 91.4751 204.031 90.04 207.442C90.0227 208.913 87.543 214.049 90.1558 213.376C95.1838 211.677 100.314 210.371 105.584 209.7C109.036 208.737 114.77 210.805 114.674 205.781C115.747 202.822 116.511 199.884 117.348 196.801C117.937 197.924 117.803 197.016 118.497 196.731C118.591 196.887 118.52 197.409 118.593 197.199ZM32.8515 211.387C32.9063 209.728 32.9612 208.068 33.0158 206.409C39.6594 205.427 46.7365 201.74 52.8789 206.047C48.1184 207.374 43.2392 208.242 38.4294 209.378C67.0237 231.083 48.6325 235.052 73.829 220.302C75.8306 215.184 73.3567 208.098 73.8082 202.344C73.6049 200.425 70.9171 202.262 69.7187 202.177C70.6772 197.48 73.6274 198.47 73.8304 196.398C73.4804 193.539 76.6153 191.95 77.9163 189.589C76.1439 201.18 81.6038 194.497 89.4344 193.846C93.0461 190.41 94.5046 184.686 97.3247 180.457C97.1271 178.096 90.7729 177.868 88.5663 176.481C88.8845 175.282 89.7762 174.22 89.4297 172.862C105.546 180.247 99.4927 172.072 113.389 160.045C105.608 155.218 94.3617 149.809 90.0535 139.076C96.0305 138.255 103.113 155.268 116.614 156.345C121.543 153.847 125.713 149.243 131.197 147.244C135.514 150.495 134.956 147.341 136.547 143.747C147.628 166.771 169.737 142.812 155.352 128.643C152.064 127.117 153.152 125.274 155.563 123.397C156.162 122.889 156.482 121.628 157.726 122.375C158.863 121.835 157.08 121.281 158.6 120.694C161.028 119.748 161.944 117.124 163.91 115.808C163.814 114.918 164.225 114.877 164.928 115.027C167.175 114.481 164.47 118.613 164.474 119.985C163.064 132.449 171.038 145.232 163.018 156.79C157.213 157.507 150.092 159.113 145.028 163.576C136.836 169.152 142.667 180.339 144.872 187.57C143.933 199.933 156.008 207.134 164.125 204.924C192.335 198.993 171.032 180.414 181.682 174.745C185.391 174.191 192.759 168.25 194.441 173.721C195.342 174.534 196.549 174.838 196.835 176.305C201.402 185.794 204.098 191.212 196.755 199.932C199.031 205.429 205.423 209.122 209.786 213.157C211.783 214.472 207.807 215.451 208.134 216.9C209.095 217.62 210.483 215.823 210.997 214.934C211.484 214.274 212.334 214.948 212.723 215.436C217.758 218.793 214.561 220.885 210.208 222.549C209.413 222.889 208.655 223.934 207.654 222.878C205.528 224.072 203.192 225.024 200.99 226.109C200.125 218.516 195.018 206.112 184.968 208.288C160.663 217.405 189.452 233.846 172.398 236.207C165.595 239.669 168.795 233.235 168.028 228.625C167.575 223.511 160.764 214.99 156.145 220.587C152.161 225.388 148.616 228.758 145.898 234.222C144.167 236.366 143.575 243.608 139.85 240.476C137.483 239.925 138.794 239.31 137.63 237.741C134.692 238.959 130.576 232.372 127.522 233.604C125.172 233.652 128.739 232.917 127.045 231.971C125.29 229.797 122.041 227.931 120.962 225.664C120.535 224.568 119.051 224.977 118.451 223.629C114.299 221.626 111.513 218.496 112.507 213.529C106.571 211.187 96.4145 215.849 89.6113 217.596C87.3863 224.933 94.3524 233.888 101.214 236.986C91.1022 239.245 86.1819 228.96 85.1133 220.334C84.4535 218.352 81.14 221.475 79.6879 221.72C77.0208 226.341 85.0496 238.128 76.4835 237.036C74.9705 216.944 74.9323 225.698 61.1223 233.114C60.6003 234.279 61.973 235.635 62.3497 236.742C59.0674 236.062 55.7252 236.817 52.3848 235.91C62.3189 230.837 38.5111 213.93 32.8515 211.387Z"
    fill="#2C13FF"
  />
<path
    fill-rule="evenodd"
    clip-rule="evenodd"
    d="M168.954 161.566C169.592 160.818 169.638 160.148 168.876 159.859C167.518 160.383 167.729 160.698 168.954 161.566ZM175.977 125.27C174.729 124.156 174.514 124.515 173.939 125.647C174.512 126.621 175.014 125.974 175.977 125.27ZM159.495 192.142C174.491 192.238 174.248 172.389 160.679 171.183C144.747 170.802 158.382 192.78 163.15 180.701C163.474 178.31 157.519 173.945 159.245 178.323C161.695 181.164 152.141 183.084 156.816 176.77C172.449 166.233 171.303 191.694 155.436 188.746C149.539 188.389 150.782 180.062 151.158 175.897C151.801 169.827 157.487 167.158 161.949 164.064C146.565 163.28 142.537 191.291 159.495 192.142ZM183.087 140.892C192.922 135.056 191.392 146.838 183.298 148.018C176.942 149.125 176.984 139.643 180.822 136.68C182.141 135.075 184.607 133.989 185.398 132.122C180.855 131.697 174.139 138.006 176.271 142.961C178.232 147.491 181.951 153.923 187.675 150.747C200.75 146.433 184.755 127.506 180.475 139.839C180.077 143.957 189.053 147.992 185.816 141.833C185.442 141.304 185.148 140.776 184.455 141.609C183.742 142.062 182.73 142.074 183.087 140.892ZM223.11 164.566C224.049 164.762 224.483 165.711 224.062 166.533C228.922 172.253 222.575 170.016 218.397 170.546C199.333 173.638 210.701 197.394 222.26 199.492C225.744 197.298 216.232 214.467 216.195 216.501C212.462 210.144 203.675 207.107 200.442 201.122C208.716 191.192 199.524 177.594 192.918 169.303C189.872 166.113 174.583 172.624 176.06 178.218C176.429 179.679 176.327 181.318 176.453 182.596C181.354 191.319 171.797 199.808 163.442 200.89C150.039 204.273 147.957 197.268 145.876 185.878C144.878 180.07 140.637 173.443 144.913 168.073C147.245 164.772 157.763 158.191 161.032 159.407C161.576 157.576 165.276 160.192 164.5 157.879C165.901 157.405 166.756 155.265 167.839 154.544C169.06 154.633 168.83 154.198 168.389 153.499C169.495 148.647 169.773 143.738 168.881 138.797C168.055 133.225 165.619 127.647 167.866 122.083C168.73 120.22 169.158 115.508 171.514 115.677C170.871 117.234 171.492 116.955 172.398 116.298C175.66 117.613 178.606 119.915 181.369 121.422C186.372 121.823 186.65 124.388 187.325 122.916C194.929 125.122 202.741 127.661 209.904 130.872C217.536 137.348 199.775 132.077 199.216 141.176C197.406 148.926 196.809 156.896 200.121 164.311C204.871 170.076 213.97 165.205 220.373 165.183C221.422 164.557 220.866 166.411 221.364 167.085C226.152 165.524 220.698 165.13 223.11 164.566Z"
    fill="#2C13FF"
  />
<path
    fill-rule="evenodd"
    clip-rule="evenodd"
    d="M49.4992 169.174C49.4511 169.141 49.4308 169.117 49.4281 169.194L49.4992 169.174ZM25.2272 170.341C25.1865 170.396 25.1822 170.406 25.2553 170.406C25.2553 170.407 25.2272 170.341 25.2272 170.341ZM55.6488 129.883C55.6089 129.932 55.6007 129.943 55.6716 129.947L55.6488 129.883ZM49.333 185.446C49.2611 185.291 49.1231 185.55 49.2543 185.603C49.2808 185.551 49.3069 185.499 49.333 185.446ZM54.4727 184.492C54.4396 184.42 54.4101 184.292 54.346 184.4C54.3737 184.482 54.3864 184.597 54.4727 184.492ZM25.1931 177.364C25.2479 177.481 25.3266 177.407 25.416 177.382C25.3628 177.275 25.2808 177.342 25.1931 177.364ZM52.6223 161.156C51.687 160.673 51.3782 160.084 50.6498 160.894C51.4497 161.786 51.5847 162.392 52.6223 161.156ZM50.1896 157.138C50.6375 157.837 49.9676 155.988 49.5736 156.932C50.6866 150.976 45.2753 153.573 41.8213 154.505C39.721 155.013 37.0183 155.523 34.1775 156.689C31.1668 158.52 31.9706 170.436 31.2233 174.389C30.3198 177.654 31.2054 180.938 30.2995 184.166C30.0612 186.116 28.5542 192.408 31.8899 188.716C32.5491 188.24 32.7964 187.048 34.0004 187.47C34.971 185.731 36.2286 184.224 37.8583 182.952C38.6602 182.14 39.1855 180.925 40.6814 181.298C42.9213 178.929 45.2112 176.463 48.0623 174.691C50.9963 170.13 47.5352 160.533 50.1896 157.138ZM52.8795 206.047C50.3281 205.563 48.005 201.663 50.3973 199.868C49.2081 197.035 49.1948 190.611 49.0095 186.071C50.665 177.75 45.6368 186.027 42.0929 187.465C40.5257 189.275 38.1333 191.377 35.9357 193.002C34.8088 193.828 34.3034 195.597 32.4369 195.318C31.2338 197.552 30.1161 197.394 27.8001 196.432C25.7105 195.733 22.8773 195.704 24.002 192.804C24.6678 189.228 24.0647 185.602 24.8114 182.081C25.3307 180.434 24.1132 164.598 26.2753 165.946C27.3147 165.663 25.5965 164.801 25.6573 164.312C25.675 163.315 25.873 162.321 26.0027 161.325C26.0148 161.233 26.0361 161.143 26.0532 161.051C26.9497 161.342 26.3521 160.774 26.3237 160.563C27.0824 156.748 17.0513 162.769 14.5226 162.659C8.92477 162.692 3.67989 169.782 6.77398 161.017C7.72674 153.924 17.4776 155.116 22.2658 151.389C23.9092 149.929 26.6487 150.735 27.1633 148.81C28.0963 143.775 27.9139 138.581 29.524 133.812C28.2321 130.085 32.1177 127.631 35.3677 126.796C33.5624 132.976 35.1547 140.279 33.1031 145.866C34.0197 146.099 33.5787 146.876 33.7486 147.408C36.0203 147.497 39.151 146.033 41.4743 145.34C42.4277 144.965 43.3287 145.334 44.0374 144.548C44.8694 144.377 45.8842 144.847 46.4826 143.816C47.665 143.251 49.8112 144.23 50.1416 142.292C50.2141 140.638 50.0514 138.863 50.7309 137.426C50.6697 135.649 50.0847 131.607 51.432 130.88C52.9166 130.174 50.1518 129.549 51.4251 128.625C50.3267 123.471 50.4935 121.719 55.7566 121.156C56.6979 127.943 54.4729 135.409 56.1633 141.843C57.4257 140.335 60.2817 140.799 62.2661 139.593C64.689 138.827 67.4857 138.749 69.8889 138.082C70.1652 138.912 70.127 138.857 70.868 138.348C74.0853 136.628 76.8666 136.726 75.4553 141.213C75.2735 139.317 74.1704 142.223 75.6607 141.886C78.5849 142.972 78.7258 147.492 74.9335 146.193C73.6182 146.983 72.5321 147.321 71.2034 146.742C68.9076 147.453 66.6467 149.563 64.1991 148.86C63.8472 149.972 62.7646 149.269 62.2474 149.961C61.2511 149.318 60.3988 151.28 59.3688 150.124C58.5701 151.206 57.2864 151.509 56.195 151.388C54.2057 151.687 54.9511 161.003 55.3885 162.968C55.6972 164.285 53.7061 169.529 56.3575 168.024L56.3435 168.037C63.1299 161.614 72.4506 155.717 79.5843 151.194C81.8366 152.719 83.9923 157.486 80.2291 158.374C79.7388 158.692 78.8758 158.725 79.0905 159.674C78.4535 159.455 76.7018 161.458 77.4541 160.027C72.9044 164.135 54.8129 174.207 55.0802 179.32C54.9355 183.587 55.4692 188.068 55.0617 192.214C55.6724 194.699 55.5294 197.821 55.6981 201.524C55.7151 204.416 56.5272 207 52.8795 206.047Z"
    fill="white"
  />
<path
    fill-rule="evenodd"
    clip-rule="evenodd"
    d="M74.5854 76.2872C74.5431 76.2161 74.4805 76.2073 74.4558 76.2872C74.4805 76.3667 74.5431 76.3582 74.5854 76.2872ZM72.7637 101.474C75.2268 101.702 74.964 96.7299 73.5865 99.1732C73.5464 99.6541 73.8287 100.237 73.0084 100.437C72.8326 100.5 72.2036 101.451 72.7637 101.474ZM78.5596 94.7194C81.726 99.3936 79.5212 88.7784 76.5532 94.1496C75.659 94.6405 76.3449 95.8137 77.052 96.0857C77.076 94.7615 77.6448 93.1058 78.5596 94.7194ZM68.326 71.5C69.5552 73.5926 71.039 81.8852 72.9254 76.4782C73.5817 75.825 75.1298 76.174 75.1547 75.1249C74.1783 72.9129 69.3065 68.8708 72.3558 73.6631C71.6516 74.6041 69.6074 74.1861 70.1955 73.0125C69.5203 72.0078 69.0111 71.9673 70.2845 71.2736C68.6508 70.4879 67.9022 67.9406 68.326 71.5ZM77.5487 78.0896C80.1304 78.1041 80.0555 75.675 77.2541 76.3276C75.567 75.9969 76.3745 77.5924 77.5347 77.7703C76.9043 78.393 77.5257 79.3102 77.5487 78.0896ZM55.7559 121.155C49.2976 124.353 73.8494 94.8842 75.3849 91.4819C73.7637 86.6284 57.5375 65.4211 70.3767 65.4741C72.9447 65.387 76.9495 73.8174 77.3907 70.5144C74.5454 62.7469 75.4675 29.3413 86.5614 50.1158C88.4176 50.8173 87.9702 39.4533 92.8535 43.2125C95.6492 45.3598 96.0421 48.8093 97.4628 51.7713C99.6056 50.5558 101.995 46.0455 104.454 50.292C106.807 52.5227 103.895 61.6707 107.779 60.049C108.585 59.7902 110.389 60.7101 110.733 61.7337C112.949 72.3658 107.653 83.8202 101.473 92.2535C99.506 96.166 94.2422 96.2897 92.7178 100.075C86.1767 111.196 80.1025 122.636 73.2381 133.54C70.7036 130.039 75.7352 124.773 77.9838 121.662C78.6261 117.784 82.4312 113.908 83.9815 109.867C87.7145 105.111 89.4493 97.6999 94.1812 94.2106C103.212 89.6648 105.356 76.5115 108.804 67.5388C109.158 64.4439 107.532 60.001 105.321 64.5706C105.633 66.7064 102.481 72.5645 101.933 67.6701C102.482 62.5838 104.402 55.0616 101.314 50.9981C96.5865 55.2697 99.7032 62.5743 98.1859 68.2005C92.4708 74.2744 97.0267 58.3235 94.3831 58.3724C92.9298 55.578 95.3523 58.3687 95.1906 56.7031C94.4047 53.539 94.3833 49.7405 91.8924 47.4254C90.8577 42.0338 88.4653 52.8307 89.1315 55.1633C89.4614 57.1583 89.81 58.9741 89.7771 61.131C89.522 62.9346 90.854 65.1226 90.1777 67.3346C88.0144 70.7896 87.4758 65.3346 86.1085 64.8332C86.7738 63.2518 86.5115 61.8492 85.9386 60.281C85.605 59.0515 84.3112 60.114 84.4275 60.9817C83.1282 60.812 82.6867 56.6785 84.4014 56.2791C84.5362 53.167 83.2859 48.8978 80.6304 47.0219C78.7746 49.8917 76.2274 61.9989 80.9733 62.9854C81.1812 63.3165 81.3597 64.5834 80.6635 64.4995C79.264 64.8609 80.5982 65.6417 79.9649 66.3319C77.0361 65.8097 81.0518 72.1524 79.8433 73.1588C80.402 74.1756 81.7488 73.3691 82.5532 73.6618C84.1366 73.8693 85.7779 73.9852 86.454 72.3681C85.6081 75.9125 90.8525 76.2697 91.704 79.8334C91.7223 84.357 88.0446 79.6473 86.4423 78.4616C85.6633 78.2615 85.3463 76.8081 84.6658 77.493C83.5557 78.3182 84.6863 79.0565 84.5935 79.9638C83.8671 80.1906 83.4094 79.6056 82.726 79.5534C86.4731 77.168 79.3205 74.4899 80.6136 78.1777C81.1705 78.5349 83.1777 79.2968 81.5565 79.7138C81.848 81.0756 85.4589 80.5283 81.3609 82.977C82.721 82.332 80.9406 81.8698 80.4844 82.667C79.2003 83.2827 79.0569 82.1052 79.0752 81.1267C81.1758 81.6658 81.1064 77.97 78.196 79.6074C78.2412 81 76.5183 80.0957 76.2952 81.1775C76.4723 81.7675 76.5189 81.7533 76.0561 82.2722C74.8539 81.5602 76.7469 80.1029 76.4217 79.0538C75.8886 79.3893 75.1191 79.0746 74.9071 78.4858C73.0524 78.8418 75.2077 83.2329 73.916 81.5236C72.5565 80.2919 74.0661 79.9273 73.4534 79.128C70.2179 80.4825 75.8757 87.8494 77.2422 90.024C77.697 90.5366 78.9059 89.8564 79.7089 90.0783C79.5405 89.569 78.8001 89.5035 79.1278 88.7753C79.0407 86.6666 81.2358 86.7013 81.9398 88.3846C82.7898 90.4117 80.5889 91.803 81.1473 93.8034C82.1391 94.1153 81.5867 94.4485 82.7683 93.8607C82.8412 94.4289 84.2492 94.5787 83.2835 95.4891C83.3554 96.2527 83.4951 97.3677 82.5546 97.0937C80.9776 96.0896 81.5805 98.6802 79.9507 98.3595C81.1902 97.1623 79.8997 96.3073 79.2946 97.8041C79.0764 98.3727 79.7952 100.321 78.691 99.8601C78.6855 99.0115 79.7814 98.7081 78.5655 98.0844C77.7814 96.6978 77.9513 97.4119 76.9423 97.8848C76.1082 97.7782 76.264 98.3934 76.3081 98.696C76.5935 99.5949 74.7654 99.6919 75.759 100.736C74.0924 100.096 74.9788 100.776 75.524 101.576C74.0637 105.801 72.7907 96.4698 66.3451 109.102C65.3545 110.29 54.2728 123.666 61.1074 117.949C62.1559 115.504 62.2974 118.776 63.556 118.115C63.8588 116.774 64.2713 117.432 65.304 117.266C67.4525 116.785 66.8568 116.229 67.1816 115.206C68.8623 114.933 68.8535 116.582 69.8547 117.521C69.1337 117.702 67.5466 118.625 67.5228 119.016C67.8578 120.427 66.0236 121.071 65.2457 120.464C64.334 118.732 62.1826 118.423 60.53 119.105C58.8765 119.534 57.5484 121.777 55.7559 121.155Z"
    fill="#021018"
  />
<path
    fill-rule="evenodd"
    clip-rule="evenodd"
    d="M127.666 78.1204C127.707 78.2028 127.749 78.307 127.801 78.1909C127.773 78.1026 127.746 78.0144 127.666 78.1204ZM141.294 34.5033C141.187 34.5602 141.252 34.6224 141.292 34.7015C141.398 34.645 141.335 34.5813 141.294 34.5033ZM151.789 119.389C151.09 119.08 150.84 118.621 150.241 119.049C150.86 119.311 151.066 119.993 151.789 119.389ZM129.501 75.141C128.628 75.6001 130.566 76.6562 131.27 76.916C130.479 77.301 130.401 78.1338 131.137 78.3719C132.282 77.8848 132.036 79.1393 132.891 79.3692C132.867 77.0563 131.566 75.9242 129.501 75.141ZM129.789 78.0818C127.763 78.7268 129.688 80.9949 130.922 81.0826C133.729 78.856 131.189 79.5485 129.789 78.0818ZM125.59 78.2478C124.306 75.898 127.218 81.1061 128.006 82.1519C128.451 81.7581 128.47 80.7996 129.425 81.083C128.466 79.9906 128.495 77.4781 127.008 79.6819C127.314 78.5109 127.337 77.6868 125.915 77.0473C125.88 77.5056 126.248 78.136 125.59 78.2478ZM136.496 51.0939C136.466 51.5279 136 52.0853 136.558 52.3256C136.544 51.9143 136.567 51.5004 136.496 51.0939ZM151.276 126.558C145.081 115.345 141.92 101.808 134.869 91.4308C125.862 86.0204 120.272 77.3392 117.786 67.7223C115.86 59.8199 121.999 66.8371 117.874 56.0049C117.187 52.8805 118.118 48.779 121.787 48.1545C122.329 47.9462 122.942 47.9971 122.847 46.9671C120.432 39.2463 131.671 30.9326 133.72 41.6333C134.579 44.7496 134.945 48.1939 136.321 51.0904C137.001 45.7584 134.814 39.0587 139.651 35.1573C151.571 32.4334 146.194 55.5731 149.728 62.4179C152.186 58.8176 153.476 52.2428 159.005 53.0261C161.263 53.2056 163.625 55.3905 162.788 58.0273C158.459 75.278 148.651 82.112 161.183 99.3384C163.371 103.94 166.03 108.301 168.256 112.877C167.338 112.983 166.298 112.62 165.601 113.57C163.295 111.665 162.163 107.273 160.873 104.277C157.958 99.8144 155.317 94.5535 153.734 89.4454C149.591 83.8417 154.209 76.2281 155.946 70.4195C156.026 67.3961 163.219 56.1631 158.353 56.1976C154.436 56.8149 154.147 61.8219 151.859 64.5111C150.595 65.8131 151.53 67.1726 151.382 68.5896C149.754 71.628 149.123 69.8454 146.961 71.6062C144.838 72.2077 142.148 79.0611 140.603 76.633C141.293 71.93 145.737 69.8819 148.415 66.794C145.76 59.3229 145.396 51.3505 145.16 43.4152C137.204 25.0671 138.127 56.1576 139.91 61.5255C137.805 64.2706 134.861 53.4476 133.835 51.2901C132.581 47.3488 130.433 32.5805 125.473 42.3289C123.829 45.977 127.576 47.9464 125.596 48.2553C125.343 50.5183 127.164 52.5306 126.393 54.4756C127.888 57.6428 129.102 60.7149 130.081 63.9378C130.442 65.3801 129.156 65.7133 128.403 64.9047C128.14 63.4236 125.496 63.18 126.468 61.1274C125.632 59.1818 124.917 57.1105 124.252 55.0857C123.881 48.4626 120.47 51.248 121.172 55.9717C120.866 60.8369 127.978 68.8217 126.366 71.076C123.58 71.5226 123.103 68.1475 121.692 66.4119C119.474 63.885 121.739 69.9606 121.915 71.3341C122.324 72.0265 123.327 71.8858 123.954 71.4232C124.228 74.0027 122.305 73.8145 124.34 76.415C124.517 75.7034 125.236 74.8686 124.647 74.189C123.543 73.3834 125.863 72.3723 126.168 73.5062C126.864 74.6182 127.103 73.2936 127.579 72.938C127.976 73.9902 129.11 73.0495 128.748 74.3943C129.018 75.5783 130.518 73.4509 128.906 72.0097C127.226 71.114 128.878 69.9353 129.739 69.3832C129.785 70.583 130.958 72.2747 132.23 71.2821C130.03 71.0091 131.982 67.9117 133.591 68.4645C132.704 70.0276 133.336 70.9624 133.365 72.5851C133.586 73.4244 134.773 73.7398 133.787 74.6422C133.829 75.5298 138.983 73.1451 136.515 74.9191C135.046 74.6654 136.33 76.86 134.284 76.0598C134.997 77.308 135.103 78.1858 134.033 78.7753C132.797 79.6397 133.594 79.9524 133.584 81.2018C131.891 81.151 132.609 83.9649 132.635 84.6792C133.799 85.301 132.194 85.9588 132.938 86.687C139.393 93.1605 138.555 88.0288 141.451 90.1418C142.852 91.6761 139.749 90.5619 141.159 92.0208C142.013 93.5523 141.132 93.2349 140.408 92.2556C138.428 92.724 138.689 95.1182 139.896 96.2924C140.368 96.9356 141.047 96.056 141.218 95.6681C141.783 94.2248 143.151 97.5952 144.799 95.8947C146.138 96.0679 144.559 97.3571 144.791 98.0106C146.722 100.142 142.747 100.821 142.185 101.332C141.85 102.649 143.656 102.707 143.85 104.565C143.966 105.453 144.521 105.295 145.268 105.062C144.618 104.711 143.509 104.818 144.114 104.048C146.464 104.302 147.483 106.932 144.703 105.813C144.274 106.616 146.784 110.925 146.168 109.636C147.571 112.33 148.404 116.011 150.183 118.703C149.751 118.128 150.856 118.029 150.89 117.753C150.824 115.185 153.05 119.71 150.846 119.903C150.8 121.998 154.864 125.937 151.276 126.558Z"
    fill="#021018"
  />
<path
    fill-rule="evenodd"
    clip-rule="evenodd"
    d="M165.601 113.57C170.39 110.808 178.678 121.084 184.792 121.365C190.714 122.37 196.411 125.653 202.475 126.857C208.355 128.686 213.523 131.429 213.851 138.245C212.861 137.177 212.798 136.5 211.384 137.672C209.788 137.482 208.46 138.04 206.99 138.652C198.502 141.479 200.223 154.228 201.457 161.278C206.908 162.309 213.058 160.718 218.672 160.366C219.53 160.611 220.632 159.444 221.502 159.823C222.072 161.37 224.637 164.322 222.051 164.985C224.597 165.332 222.904 166.778 221.364 167.085C220.877 166.413 221.417 164.556 220.373 165.182C213.982 165.207 204.86 170.074 200.12 164.312C196.808 156.896 197.407 148.926 199.216 141.175C199.386 131.727 221.591 137.644 206.861 129.366C200.381 127.127 193.885 124.747 187.325 122.915C186.657 124.192 186.4 122.924 185.968 122.716C184.831 121.687 182.286 121.91 181.369 121.423C178.606 119.91 175.658 117.611 172.398 116.298C171.492 116.955 170.871 117.234 171.514 115.678C171.521 115.663 171.319 115.504 171.239 115.521C163.012 123.649 169.759 136.31 169.465 146.42C169.431 148.773 168.664 151.176 168.389 153.499C168.83 154.198 169.06 154.633 167.839 154.544C166.766 155.268 165.897 157.403 164.5 157.879C165.259 160.193 161.581 157.574 161.033 159.408C159.892 158.875 158.944 159.094 157.903 159.685C136.131 167.517 144.215 177.483 148.349 195.775C153.171 209.876 185.019 196.7 176.453 182.597C175.975 178.754 175.55 173.283 180.401 171.659C184.279 170.888 189.365 166.311 192.918 169.302C215.987 198.24 193.233 198.512 204.176 205.416C208.873 207.369 223.804 224.661 211.778 214.673C210.546 214.948 209.975 216.68 208.673 217.191C207.049 216.712 209.336 215.285 209.871 214.708C211.184 211.959 196.675 204.346 196.758 199.932C204.095 191.205 201.406 185.774 196.834 176.304C196.544 174.825 195.346 174.543 194.44 173.723C192.774 168.223 185.372 174.232 181.683 174.744C171.015 180.468 192.358 198.96 164.125 204.924C155.941 207.162 143.557 199.699 144.963 187.212C137.455 171.685 139.878 162.059 157.416 157.506C160.439 156.512 162.8 158.99 163.537 155.085C172.262 142.588 160.094 127.805 165.91 114.558C165.598 115.654 163.616 114.18 163.91 115.808C161.944 117.124 161.027 119.749 158.6 120.694C157.14 121.214 158.806 121.918 157.726 122.375C155.735 121.819 153.861 125.24 152.852 126.727C150.923 125.036 157.093 122.589 158.173 120.443C160.524 118.547 164.11 113.235 165.601 113.57Z"
    fill="white"
  />
<mask
    id="mask0_1265_40321"
    style="mask-type:alpha"
    maskUnits="userSpaceOnUse"
    x="0"
    y="159"
    width="27"
    height="36"
  >
<path d="M0 159.189H26.6073V194.002H0V159.189Z" fill="white" />
</mask>
<g mask="url(#mask0_1265_40321)">
<path
      fill-rule="evenodd"
      clip-rule="evenodd"
      d="M5.51719 165.365C9.37258 164.082 14.2237 162.916 18.3046 161.403C19.8615 161.327 26.1629 158.017 26.1481 159.633C25.9379 160.127 27.1629 161.418 26.0534 161.051C25.8853 162.132 25.6888 163.224 25.6569 164.312C25.6082 164.786 27.3034 165.677 26.2757 165.946C24.0842 166.105 25.4546 174.034 24.8044 176.224C25.9379 176.334 25.1056 176.688 25.0419 177.157C24.5768 182.383 24.5534 187.575 24.0012 192.805C23.5304 197.592 5.49213 186.575 1.27355 185.084C-2.9062 179.797 4.44755 171.296 5.51719 165.365Z"
      fill="#2767F4"
    />
</g>
<path
    fill-rule="evenodd"
    clip-rule="evenodd"
    d="M82.6544 156.934C80.5256 151.501 81.4933 139.542 88.7101 139.347C95.7072 145.548 101.472 156.604 113.097 159.021C113.761 159.245 114.045 159.396 113.388 160.044C108.533 164.842 104.273 170.142 100.401 175.753C85.5377 176.058 88.74 165.791 82.6544 156.934Z"
    fill="#1088D8"
  />
<path
    fill-rule="evenodd"
    clip-rule="evenodd"
    d="M101.214 236.986C94.355 233.892 87.3784 224.929 89.6101 217.598C96.4096 215.842 106.564 211.191 112.506 213.528C111.222 221.216 116.678 221.808 120.963 225.663C122.038 227.932 125.296 229.795 127.044 231.972C125.014 238.584 107.764 236.905 101.214 236.986Z"
    fill="#1088D8"
  />
<path
    fill-rule="evenodd"
    clip-rule="evenodd"
    d="M131.196 147.244C125.714 149.243 121.542 153.847 116.613 156.349C107.969 153.937 94.1645 146.109 94.0681 137.908C104.109 136.842 116.866 129.204 124.692 138.644C126.418 141.091 131.409 144.141 131.196 147.244Z"
    fill="#1088D8"
  />
<path
    fill-rule="evenodd"
    clip-rule="evenodd"
    d="M51.037 122.42C51.1223 125.218 50.6893 128.413 51.8867 130.473C51.5031 131.242 50.4865 130.499 50.8854 131.682C50.6112 133.568 50.3783 135.493 50.7308 137.426C50.0471 138.862 50.2172 140.639 50.1422 142.292C49.8096 144.229 47.666 143.252 46.4824 143.816C45.8842 144.846 44.8694 144.377 44.0379 144.548C41.1323 145.517 36.9095 147.201 33.7488 147.409C33.7841 146.47 33.6387 146.274 33.0261 145.6C35.2691 142.788 33.2153 138.472 34.4212 135.055C32.4076 124.186 43.3012 124.839 51.037 122.42Z"
    fill="#2767F4"
  />
<path
    fill-rule="evenodd"
    clip-rule="evenodd"
    d="M31.7173 128.748C29.2021 129.229 29.1298 132.006 29.5226 133.812C29.2948 136.239 27.7362 138.468 28.1121 141.117C27.1604 143.765 28.9903 149.852 25.213 150.081C19.7348 152.611 14.1474 155.01 8.37524 156.944C8.80828 152.397 11.3218 148.33 12.7884 144.151C15.1185 140.845 14.4648 136.249 17.5642 133.442C18.6388 134.138 17.6417 131.636 19.5055 131.795C23.7315 131.398 27.3307 128.425 31.7173 128.748Z"
    fill="#2767F4"
  />
<path
    fill-rule="evenodd"
    clip-rule="evenodd"
    d="M55.7559 121.154C57.5446 121.773 58.8798 119.537 60.53 119.105C65.2457 117.572 67.8963 122.903 69.4419 126.611C70.2677 130.076 76.3234 135.402 73.408 137.342C72.3435 135.716 70.8613 137.197 69.8889 138.082C68.4072 138.878 66.7818 138.115 65.2406 138.992C49.9422 143.029 57.3476 143.506 55.7559 121.154Z"
    fill="#2767F4"
  />
<path
    fill-rule="evenodd"
    clip-rule="evenodd"
    d="M32.8516 211.387C41.4205 216.048 52.8527 224.181 55.1754 233.213C50.1732 239.274 38.6982 232.192 35.2787 226.709C32.3956 222.197 32.622 216.597 32.8516 211.387Z"
    fill="#305FCE"
  />
<mask
    id="mask1_1265_40321"
    style="mask-type:alpha"
    maskUnits="userSpaceOnUse"
    x="121"
    y="218"
    width="59"
    height="27"
  >
<path d="M121.915 218.539H179.673V244.692H121.915V218.539Z" fill="white" />
</mask>
<g mask="url(#mask1_1265_40321)">
<path
      fill-rule="evenodd"
      clip-rule="evenodd"
      d="M137.446 238.473C137.412 238.408 137.373 238.404 137.329 238.463C137.377 238.515 137.428 238.582 137.446 238.473ZM163.385 225.164C161.285 219.505 147.311 238.919 146.187 242.241C144.644 248.442 158.441 240.986 160.648 240.421C163.941 236.667 161.678 229.859 163.385 225.164ZM121.915 235.965C131.715 229.66 130.284 237.396 137.63 237.742C137.839 238.032 138.286 238.402 138.22 238.602C137.274 239.833 141.64 241.827 142.346 241.129C146.237 233.375 150.053 226.797 156.146 220.588C157.356 219.071 160.395 217.483 161.699 219.467C168.347 222.856 168.631 230.18 167.894 236.715C169.864 238.806 176.353 233.267 179.673 234.288C172.843 236.817 165.471 238.869 158.816 241.966C151.322 246.419 144.193 245.188 137.561 239.828C133.07 236.77 128.242 231.448 123.009 236.247C122.545 236.572 122.013 237.089 121.915 235.965Z"
      fill="#21D4F4"
    />
</g>
<mask
    id="mask2_1265_40321"
    style="mask-type:alpha"
    maskUnits="userSpaceOnUse"
    x="210"
    y="172"
    width="21"
    height="22"
  >
<path d="M210.306 172.693H230V193.997H210.306V172.693Z" fill="white" />
</mask>
<g mask="url(#mask2_1265_40321)">
<path
      fill-rule="evenodd"
      clip-rule="evenodd"
      d="M227.321 173.116C229.076 175.357 229.729 177.988 230 180.747C226.502 179.445 216.932 175.221 215.945 182.286C215.495 194.089 229.644 190.209 222.422 185.11C221.317 185.911 218.106 187.532 217.78 185.29C218.272 180.129 226.232 182.166 229.433 183.745C228.044 186.842 227.986 190.848 225.502 193.222C203.899 199.17 206.07 168.793 227.321 173.116Z"
      fill="#1AA9C4"
    />
</g>
<path
    fill-rule="evenodd"
    clip-rule="evenodd"
    d="M137.6 139.458C138.72 134.675 141.563 145.115 145.002 145.552C151.288 148.982 156.483 136.78 149.284 134.481C143.792 132.27 146.308 141.338 148.811 137.973C149.081 137.413 149.476 136.843 150.165 136.797C150.997 140.164 145.765 145.946 142.974 142.53C136.151 134.289 155.652 121.059 156.859 133.917C159.136 149.904 140.222 159.475 137.6 139.458Z"
    fill="#1AA9C4"
  />
<path
    fill-rule="evenodd"
    clip-rule="evenodd"
    d="M193.872 228.113C177.097 236.276 185.024 214.949 190.072 223.819C193.375 224.766 189.143 219.669 187.97 219.062C182.779 215.148 177.848 223.683 181.191 227.849C183.663 230.998 185.917 231.508 182.41 232.634C179.17 235.597 179.152 225.954 178.054 223.737C176.429 217.115 183.941 212.35 189.749 211.851C197.063 210.965 199.151 224.015 193.872 228.113Z"
    fill="#1AA9C4"
  />
<path
    fill-rule="evenodd"
    clip-rule="evenodd"
    d="M50.3973 199.869C48.4643 200.667 50.0876 203.072 50.0208 204.592C44.2159 202.961 38.6175 200.581 32.8831 198.448C28.1982 196.511 34.8462 195.128 35.9355 193.002C38.2942 191.392 40.1243 189.345 42.1831 187.538L42.1701 187.552C45.7915 185.543 50.6615 178.044 49.0085 186.071C49.111 190.548 49.3636 197.241 50.3386 199.825C50.3583 199.839 50.3776 199.854 50.3973 199.869Z"
    fill="#2767F4"
  />
<mask
    id="mask3_1265_40321"
    style="mask-type:alpha"
    maskUnits="userSpaceOnUse"
    x="95"
    y="0"
    width="15"
    height="26"
  >
<path d="M95.3937 0H109.349V25.8837H95.3937V0Z" fill="white" />
</mask>
<g mask="url(#mask3_1265_40321)">
<path
      fill-rule="evenodd"
      clip-rule="evenodd"
      d="M96.9377 -0.000106812C109.189 2.46107 115.237 3.19485 101.46 9.90028C110.303 12.2131 112.726 16.427 102.645 19.6581C103.999 20.7777 105.65 21.4693 107.095 22.4615C109.325 23.7483 106.876 26.9533 104.908 25.5238C100.923 23.5786 94.3377 19.1727 101.396 16.2544C102.085 15.5587 105.857 15.1398 104.117 14.1797C101.468 12.406 96.4178 13.4208 95.3937 9.89104C95.6142 7.58536 102.904 5.93643 104.989 4.60878C103.125 3.37952 93.3052 2.96888 96.9377 -0.000106812Z"
      fill="#021018"
    />
</g>
<path
    fill-rule="evenodd"
    clip-rule="evenodd"
    d="M221.04 159.706C214.812 161.093 207.681 162.046 201.459 161.28C200.222 154.23 198.5 141.482 206.989 138.651C208.456 138.048 209.795 137.471 211.384 137.672C212.61 136.741 212.935 136.807 213.667 138.175C214.049 139.13 213.299 140.576 214.464 141.542C212.199 142.404 209.741 142.898 207.637 144.054C201.055 147.588 206.289 155.821 211.065 158.479C215.917 163.53 221.818 153.983 221.04 159.706Z"
    fill="#1AA9C4"
  />
<path
    fill-rule="evenodd"
    clip-rule="evenodd"
    d="M176.237 83.1418C175.988 83.0378 175.8 82.9524 175.726 83.2215C175.852 83.5419 175.899 83.4146 176.237 83.1418ZM175.707 79.2979C182.573 83.3983 180.857 83.0612 181.029 75.4795C180.762 68.682 194.898 76.6241 193.481 80.1682C190.498 82.1136 187.417 77.8307 184.549 77.0522C183.714 79.9433 186.532 86.4787 182.263 86.9012C170.596 80.8739 179.243 85.5606 174.025 90.6584C173.297 88.3505 171.087 78.3157 175.479 79.2808C175.6 79.3996 175.668 79.5045 175.716 79.2794L175.707 79.2979Z"
    fill="#021018"
  />
<path
    fill-rule="evenodd"
    clip-rule="evenodd"
    d="M80.6019 236.708C80.5995 231.864 78.4043 226.209 79.6868 221.721C81.1461 221.451 84.4396 218.376 85.1134 220.333C85.1297 233.958 103.859 239.244 80.6019 236.708Z"
    fill="#1088D8"
  />
<path
    fill-rule="evenodd"
    clip-rule="evenodd"
    d="M62.3499 236.742C57.5681 231.71 71.056 227.811 74.2982 224.394C78.66 240.177 77.3999 237.47 62.3499 236.742Z"
    fill="#305FCE"
  />
<path
    fill-rule="evenodd"
    clip-rule="evenodd"
    d="M169.315 33.2102C168.963 36.4017 173.723 32.0722 174.867 31.7188C169.933 26.9623 168.735 24.6227 169.315 33.2102ZM167.508 39.1018C164.748 37.8216 166.318 33.5859 166.206 31.1451C165.702 26.0699 167.575 18.9349 173.123 24.9682C187.097 33.1601 175.785 34.1174 167.508 39.1018Z"
    fill="#021018"
  />
<path
    fill-rule="evenodd"
    clip-rule="evenodd"
    d="M42.7745 30.0049C40.9059 31.1347 36.7383 31.0692 36.2595 33.1869C37.628 34.6542 38.3353 37.9406 40.5113 38.0766C48.1607 35.5714 43.4657 35.5127 42.7745 30.0049ZM40.1249 42.2366C37.4405 42.3157 31.2272 31.9919 34.166 30.5193C37.6732 29.9917 43.52 24.3046 45.8076 28.7999C52.8604 39.2183 48.3899 37.1748 40.1249 42.2366Z"
    fill="#021018"
  />
<path
    fill-rule="evenodd"
    clip-rule="evenodd"
    d="M35.8827 93.1251C46.2855 90.6668 41.9671 94.7492 39.5205 100.699C41.2537 101.336 44.7023 99.8186 44.9618 102.913C43.961 105.669 38.2607 102.969 36.9948 103.777C30.4993 102.104 44.5616 92.433 34.1134 97.0503C24.6105 97.2946 41.8623 87.7826 29.1152 90.0616C25.6316 87.8654 31.6454 87.721 33.1929 87.267C41.3897 85.4457 37.0256 90.1756 35.8827 93.1251Z"
    fill="#021018"
  />
<path
    fill-rule="evenodd"
    clip-rule="evenodd"
    d="M113.02 119.38C114.799 125.497 124.952 120.455 120.485 115.85C117.873 111.979 112.049 115.015 113.02 119.38ZM110.606 119.307C109.996 110.416 123.032 108.685 124.297 117.713C124.47 126.22 111.773 128.494 110.606 119.307Z"
    fill="#021018"
  />
<path
    fill-rule="evenodd"
    clip-rule="evenodd"
    d="M218.156 152.141C214.161 162.828 196.582 147.959 215.471 144.131C219.07 151.852 212.828 145.064 212.33 150.489C214.219 155.91 213.297 149.196 217.522 151.18L217.497 151.172C217.833 151.414 217.99 151.774 218.156 152.141Z"
    fill="#1AA9C4"
  />
<path
    fill-rule="evenodd"
    clip-rule="evenodd"
    d="M32.8831 198.447C37.1695 200.583 42.1968 201.223 46.2258 203.673C38.3308 204.582 30.8063 210.444 32.8831 198.447Z"
    fill="#305FCE"
  />
<path
    fill-rule="evenodd"
    clip-rule="evenodd"
    d="M83.8877 140.697C83.1983 143.592 80.8242 157.415 80.2657 150.207C76.9536 146.937 78.5679 140.122 83.8877 140.697Z"
    fill="#1AA9C4"
  />
<path
    fill-rule="evenodd"
    clip-rule="evenodd"
    d="M217.522 151.18C215.622 150.652 214.137 150.669 213.74 152.961C208.595 148.562 218.314 145.423 217.522 151.18Z"
    fill="#305FCE"
  />
<path
    fill-rule="evenodd"
    clip-rule="evenodd"
    d="M79.4043 142.004C78.915 143.053 79.0798 145.117 78.1833 145.624C77.2901 143.504 76.6001 142.299 79.4043 142.004Z"
    fill="#305FCE"
  />
<path
    fill-rule="evenodd"
    clip-rule="evenodd"
    d="M214.463 141.543C213.849 140.668 213.323 139.777 213.897 138.668C214.086 139.627 214.275 140.584 214.463 141.543Z"
    fill="#21D4F4"
  />
<path
    fill-rule="evenodd"
    clip-rule="evenodd"
    d="M222.26 199.493C221.622 199.844 221.039 199.963 220.682 199.122C221.738 198.143 221.948 198.072 222.26 199.493Z"
    fill="#21D4F4"
  />
<path
    fill-rule="evenodd"
    clip-rule="evenodd"
    d="M220.247 197.98C221.193 197.163 221.681 198.652 220.482 198.836C219.339 198.843 220.534 198.208 220.247 197.98Z"
    fill="#21D4F4"
  />
<path
    fill-rule="evenodd"
    clip-rule="evenodd"
    d="M183.119 232.752C183.303 231.632 183.476 231.447 184.398 232.199C183.972 232.383 183.545 232.568 183.119 232.752Z"
    fill="#21D4F4"
  />
<path
    fill-rule="evenodd"
    clip-rule="evenodd"
    d="M73.78 137.364C73.4935 136.493 74.0726 136.58 74.6069 136.617C74.8984 137.173 74.1438 137.146 73.78 137.364Z"
    fill="#1AA9C4"
  />
<path
    fill-rule="evenodd"
    clip-rule="evenodd"
    d="M181.075 233.565C181.379 233.403 181.683 233.241 181.988 233.079C181.684 233.242 181.379 233.403 181.075 233.565Z"
    fill="#21D4F4"
  />
<path
    fill-rule="evenodd"
    clip-rule="evenodd"
    d="M223.261 199.769C223.234 199.521 223.206 199.274 223.179 199.027C223.743 199.187 223.749 199.244 223.261 199.769Z"
    fill="#21D4F4"
  />
<path
    fill-rule="evenodd"
    clip-rule="evenodd"
    d="M182.316 232.992C182.368 232.677 182.415 232.577 182.689 232.808C182.564 232.869 182.44 232.931 182.316 232.992Z"
    fill="#21D4F4"
  />
<path
    fill-rule="evenodd"
    clip-rule="evenodd"
    d="M137.713 138.622C137.692 138.757 137.67 138.892 137.65 139.026C137.671 138.891 137.692 138.756 137.713 138.622Z"
    fill="#305FCE"
  />
<path
    fill-rule="evenodd"
    clip-rule="evenodd"
    d="M175.489 79.2983C175.723 79.1083 175.474 79.106 175.707 79.2981C175.711 79.2654 175.486 79.2675 175.489 79.2983Z"
    fill="#021018"
  />
<path
    fill-rule="evenodd"
    clip-rule="evenodd"
    d="M217.844 151.496C217.728 151.388 217.613 151.28 217.497 151.172C217.613 151.28 217.728 151.388 217.844 151.496Z"
    fill="#305FCE"
  />
<path
    fill-rule="evenodd"
    clip-rule="evenodd"
    d="M177.993 80.5306L177.966 80.4933C177.993 80.5047 178.024 80.4964 177.993 80.5306Z"
    fill="#021018"
  />
<path
    fill-rule="evenodd"
    clip-rule="evenodd"
    d="M216.411 216.825C216.332 216.714 216.253 216.603 216.173 216.492C216.253 216.603 216.332 216.714 216.411 216.825Z"
    fill="#1AA9C4"
  />
<path
    fill-rule="evenodd"
    clip-rule="evenodd"
    d="M180.983 233.836C180.943 233.796 180.963 233.816 180.983 233.836C180.961 233.95 180.807 233.828 180.983 233.836Z"
    fill="#21D4F4"
  />
<path
    fill-rule="evenodd"
    clip-rule="evenodd"
    d="M82.6544 156.934C92.0474 176.353 91.6212 172.473 78.8906 188.109C77.5548 191.093 73.6408 193.055 73.8292 196.398C73.8132 197.154 73.6733 197.718 72.8471 197.755C68.8956 199.781 68.5116 208.132 62.7088 207.472C57.3894 206.727 54.7082 207.982 55.6996 201.523C55.5769 196.201 55.1346 191.349 55.1028 186.143C54.6008 179.927 54.8812 175.165 60.9286 172.33C66.557 168.325 71.6912 163.784 77.4541 160.027C75.9646 162.126 81.6969 156.999 82.6544 156.934Z"
    fill="#2767F4"
  />
<path
    fill-rule="evenodd"
    clip-rule="evenodd"
    d="M55.3336 206.451C58.8735 206.698 64.2043 209.162 66.6568 205.799C76.7844 192.982 73.5182 212.211 74.6116 218.725C71.3717 223.298 63.6044 225.159 59.3844 229.647C58.8419 230.075 58.5847 230.067 58.1981 229.487C52.9368 221.35 45.8123 214.934 37.7954 209.64C43.4852 208.664 49.7137 205.666 55.3336 206.451Z"
    fill="#1088D8"
  />
<path
    fill-rule="evenodd"
    clip-rule="evenodd"
    d="M123.329 182.799C126.76 183.709 131.242 179.392 129.184 176.202C125.097 174.794 123.716 178.497 122.8 181.695C122.46 182.461 122.681 182.655 123.329 182.799ZM126.997 172.76C138.399 176.336 133.998 191.587 123.081 184.07C121.84 182.771 121.872 186.81 119.154 185.653C114.243 183.264 109.335 180.865 104.403 178.516C102.289 176.823 116.65 160.169 119.47 160.581C126.814 162.996 133.6 156.443 127.942 166.558C128.663 168.677 125.734 170.827 126.997 172.76Z"
    fill="#1088D8"
  />
<path
    fill-rule="evenodd"
    clip-rule="evenodd"
    d="M117.347 196.801C112.834 217.142 112.584 204.815 90.1563 213.376C86.9621 215.022 92.442 197.072 94.0351 196.592C102.205 194.343 110.387 192.143 118.565 189.929C121.729 189.846 117.427 195.096 117.347 196.801Z"
    fill="#1088D8"
  />
<path
    fill-rule="evenodd"
    clip-rule="evenodd"
    d="M133.543 228.286C129.563 228.623 120.561 224.022 123.897 220.061C123.11 223.182 125.736 225.789 128.857 226.086C150.107 229.74 147.946 190.947 127.699 209.744C124.382 213.133 128.46 222.507 133.348 218.975C135.692 217.715 138.527 213.993 136.175 211.591C134.229 210.161 129.821 214.718 135.247 213.965C137.715 217.552 130.466 217.245 130.181 213.973C129.047 206.459 138.36 209.241 139.511 214.328C141.221 219.666 133.752 225.588 129.049 220.676C119.129 212.579 124.886 202.572 136.566 202.548C151.782 204.414 148.414 228.724 133.543 228.286Z"
    fill="#305FCE"
  />
<path
    fill-rule="evenodd"
    clip-rule="evenodd"
    d="M77.9164 189.589C80.8956 184.739 85.022 180.914 88.5657 176.481C90.7297 177.882 97.1874 178.074 97.325 180.455C94.5062 184.685 93.045 190.411 89.4345 193.846C81.6119 194.494 76.1543 201.178 77.9164 189.589Z"
    fill="#1088D8"
  />
<path
    fill-rule="evenodd"
    clip-rule="evenodd"
    d="M88.1902 197.979C86.622 203.619 85.9556 210.602 83.9611 215.636C76.5176 219.538 78.9658 216.242 78.1733 210.237C77.2093 198.881 77.5192 200.166 88.1902 197.979Z"
    fill="#1088D8"
  />
<path
    fill-rule="evenodd"
    clip-rule="evenodd"
    d="M95.3479 192.423C101.735 177.603 100.9 180.999 113.981 186.894C111.226 189.691 100.696 190.355 95.3479 192.423Z"
    fill="#1088D8"
  />
<path
    fill-rule="evenodd"
    clip-rule="evenodd"
    d="M186.58 184.627C185.477 192.739 197.72 184.283 192.68 182.266C192.028 182.52 190.512 183.464 191.87 183.482C194.8 188.515 183.899 182.3 189.319 180.247C205.509 179.676 189.341 198.634 184.659 184.92C183.857 182.083 187.263 175.683 190.34 178.552C187.459 178.837 186.629 182.129 186.58 184.627Z"
    fill="#305FCE"
  />
<path
    fill-rule="evenodd"
    clip-rule="evenodd"
    d="M117.347 196.801C118.42 193.163 123.852 192.945 126.835 191.011C131.495 189.572 135.367 195.081 139.27 196.345C140.011 199.012 135.907 195.753 134.845 195.187C129.513 190.377 121.4 198.311 117.347 196.801Z"
    fill="#21D4F4"
  />
<path
    fill-rule="evenodd"
    clip-rule="evenodd"
    d="M125.638 157.521C116.623 158.447 131.016 150.914 133.865 149.729C135.605 149.618 132.649 154.679 132.508 156.375C130.967 157.678 127.293 157.649 125.638 157.521Z"
    fill="#305FCE"
  />
<path
    fill-rule="evenodd"
    clip-rule="evenodd"
    d="M126.997 172.76C126.094 171.816 127.087 170.193 127.539 169.252C128.079 166.257 128.951 163.784 130.47 161.079C131.654 159.986 127.447 170.255 126.997 172.76Z"
    fill="#1183CD"
  />
<path
    fill-rule="evenodd"
    clip-rule="evenodd"
    d="M146.688 227.905C146.509 228.589 146.576 229.56 145.893 229.794C144.194 229.87 146.411 226.4 146.688 227.905Z"
    fill="#21D4F4"
  />
<path
    fill-rule="evenodd"
    clip-rule="evenodd"
    d="M147.807 226.825C147.427 227.05 147.32 227.284 147.041 226.913C147.328 226.646 147.4 226.519 147.807 226.825Z"
    fill="#21D4F4"
  />
<path
    fill-rule="evenodd"
    clip-rule="evenodd"
    d="M118.593 197.199C118.567 197.23 118.559 197.317 118.514 197.245L118.593 197.199Z"
    fill="#21D4F4"
  />
<path
    fill-rule="evenodd"
    clip-rule="evenodd"
    d="M159.495 192.142C142.537 191.29 146.566 163.278 161.949 164.064C157.488 167.158 151.799 169.827 151.159 175.897C150.776 180.061 149.544 188.389 155.437 188.748C171.317 191.684 172.439 166.236 156.815 176.768C152.142 183.086 161.695 181.162 159.247 178.323C157.518 173.944 163.476 178.312 163.148 180.7C158.376 192.783 144.753 170.794 160.681 171.185C174.248 172.387 174.489 192.243 159.495 192.142Z"
    fill="#305FCE"
  />
<path
    fill-rule="evenodd"
    clip-rule="evenodd"
    d="M183.087 140.892C182.732 142.072 183.741 142.064 184.455 141.609C185.148 140.776 185.442 141.304 185.815 141.834C189.056 147.993 180.073 143.955 180.477 139.839C184.758 127.501 200.748 146.444 187.674 150.746C181.952 153.924 178.23 147.49 176.271 142.961C174.136 138.008 180.858 131.695 185.397 132.121C173.684 140.457 177.483 155.259 189.282 144.144C192.301 140.264 187.719 138.031 184.393 140.081C183.366 137.869 180.861 140.164 183.087 140.892Z"
    fill="#305FCE"
  />
<path
    fill-rule="evenodd"
    clip-rule="evenodd"
    d="M183.087 140.892C182.717 140.607 181.831 140.705 182.219 139.859C183.019 137.824 185.428 140.316 183.087 140.892Z"
    fill="#21D4F4"
  />
<path
    fill-rule="evenodd"
    clip-rule="evenodd"
    d="M168.954 161.566C167.729 160.698 167.518 160.382 168.876 159.859C169.638 160.15 169.592 160.817 168.954 161.566Z"
    fill="#21D4F4"
  />
<path
    fill-rule="evenodd"
    clip-rule="evenodd"
    d="M49.5683 156.938C48.6468 162.624 50.4094 169.5 48.0628 174.691C45.4393 176.502 42.9773 178.472 41.0663 181.059C38.1951 181.689 35.7351 184.504 34.3257 187.151C32.9237 187.761 33.0488 187.212 31.8904 188.716C28.5496 192.415 30.0644 186.097 30.299 184.166C31.2053 180.938 30.3198 177.654 31.2244 174.389C31.9636 170.44 31.1782 158.502 34.1766 156.69C36.5901 154.788 39.4303 156.715 41.6026 155.055C42.3284 153.77 44.6419 153.939 46.0548 153.362C49.1033 152.011 49.942 154.203 49.5683 156.938Z"
    fill="#2767F4"
  />
<path
    fill-rule="evenodd"
    clip-rule="evenodd"
    d="M78.1828 145.623C79.1758 146.57 78.6015 149.119 80.1797 150.156C72.7904 156.354 63.2343 161.33 56.2666 167.938C53.9737 170.065 55.5858 164.094 55.3905 162.969C54.9239 161.064 54.2419 151.631 56.1937 151.388C57.2892 151.51 58.5675 151.206 59.3687 150.124C60.3987 151.28 61.251 149.318 62.2475 149.961C62.7658 149.267 63.8453 149.973 64.1986 148.859C65.6775 149.836 66.6493 147.994 68.0676 148.286C68.6717 148.28 68.9215 149.703 69.7672 148.713C70.4698 147.472 71.9905 147.858 72.7642 147.278C74.4887 145.879 76.3371 146.754 78.1828 145.623Z"
    fill="#1183CD"
  />
<path
    fill-rule="evenodd"
    clip-rule="evenodd"
    d="M72.7639 147.278C69.1608 147.902 70.1924 150.016 68.0675 148.286C69.6435 147.593 71.042 146.024 72.7639 147.278Z"
    fill="#1AA9C4"
  />
<path
    fill-rule="evenodd"
    clip-rule="evenodd"
    d="M69.8887 138.082C70.7293 136.266 75.0931 136.482 72.341 137.837C71.3821 137.745 70.1015 139.527 69.8887 138.082Z"
    fill="#1AA9C4"
  />
<path
    fill-rule="evenodd"
    clip-rule="evenodd"
    d="M41.791 154.532C41.7166 156.258 36.6048 156.178 39.7353 154.982C41.1231 155.324 39.7544 154.093 41.791 154.532Z"
    fill="#1AA9C4"
  />
<path
    fill-rule="evenodd"
    clip-rule="evenodd"
    d="M52.6222 161.156C51.5848 162.392 51.449 161.785 50.6495 160.894C51.3786 160.084 51.6867 160.673 52.6222 161.156Z"
    fill="#1AA9C4"
  />
<path
    fill-rule="evenodd"
    clip-rule="evenodd"
    d="M42.7936 154.221C42.4693 154.315 42.1451 154.41 41.8212 154.504C42.1457 154.41 42.4697 154.316 42.7936 154.221Z"
    fill="#1AA9C4"
  />
<path
    fill-rule="evenodd"
    clip-rule="evenodd"
    d="M78.9253 151.754C79.1398 151.57 79.3542 151.385 79.5687 151.201C79.6624 151.744 79.6517 152.166 78.9253 151.754Z"
    fill="#1AA9C4"
  />
<path
    fill-rule="evenodd"
    clip-rule="evenodd"
    d="M68.4724 138.482C68.8154 138.414 69.1585 138.346 69.5013 138.278C69.1583 138.346 68.8154 138.414 68.4724 138.482Z"
    fill="#1AA9C4"
  />
<path
    fill-rule="evenodd"
    clip-rule="evenodd"
    d="M49.5735 156.932C50.0464 156.244 50.045 156.89 50.1818 157.148C50.0275 157.055 49.7395 157.022 49.5735 156.932Z"
    fill="#1183CD"
  />
<path
    fill-rule="evenodd"
    clip-rule="evenodd"
    d="M55.3276 193.917C55.2317 194.017 55.1982 194.343 55.0433 194.233C55.1426 194.134 55.2258 193.985 55.3276 193.917Z"
    fill="#1183CD"
  />
<path
    fill-rule="evenodd"
    clip-rule="evenodd"
    d="M25.193 177.364C25.2809 177.342 25.3627 177.275 25.4159 177.382C25.3263 177.407 25.2483 177.481 25.193 177.364Z"
    fill="#1183CD"
  />
<path
    fill-rule="evenodd"
    clip-rule="evenodd"
    d="M50.1818 157.148C50.3119 157.179 50.514 157.151 50.3811 157.311C50.309 157.261 50.2519 157.165 50.1818 157.148Z"
    fill="#1183CD"
  />
<path
    fill-rule="evenodd"
    clip-rule="evenodd"
    d="M53.7458 205.91C53.5817 205.943 53.4174 205.976 53.2532 206.009C53.4172 205.976 53.5815 205.943 53.7458 205.91Z"
    fill="#1AA9C4"
  />
<path
    fill-rule="evenodd"
    clip-rule="evenodd"
    d="M54.4726 184.492C54.3863 184.597 54.3734 184.482 54.3459 184.4C54.41 184.292 54.4396 184.42 54.4726 184.492Z"
    fill="#1183CD"
  />
<path
    fill-rule="evenodd"
    clip-rule="evenodd"
    d="M49.3332 185.447C49.2921 185.527 49.251 185.662 49.1886 185.537C49.2231 185.448 49.2601 185.322 49.3332 185.447Z"
    fill="#1183CD"
  />
<path
    fill-rule="evenodd"
    clip-rule="evenodd"
    d="M42.1829 187.538C42.1529 187.514 42.1229 187.489 42.093 187.465C42.1688 187.442 42.1515 187.561 42.1829 187.538Z"
    fill="#1183CD"
  />
<path
    fill-rule="evenodd"
    clip-rule="evenodd"
    d="M55.6487 129.883L55.6715 129.947C55.6008 129.943 55.609 129.932 55.6487 129.883Z"
    fill="#1183CD"
  />
<path
    fill-rule="evenodd"
    clip-rule="evenodd"
    d="M25.227 170.341C25.2574 170.403 25.2599 170.413 25.1878 170.4L25.227 170.341Z"
    fill="#1183CD"
  />
<path
    fill-rule="evenodd"
    clip-rule="evenodd"
    d="M49.4992 169.174L49.4281 169.194C49.4306 169.117 49.4511 169.141 49.4992 169.174Z"
    fill="#1183CD"
  />
<path
    fill-rule="evenodd"
    clip-rule="evenodd"
    d="M63.1602 113.879C62.8099 111.428 68.274 109.772 68.0708 112.693C68.639 112.88 69.366 113.217 69.6742 112.258C70.457 112.206 71.1779 113.111 70.0752 113.413C69.2489 114.15 68.5784 112.627 68.2701 114.126C68.169 114.477 66.3757 114.764 66.8623 113.921C66.8293 113.837 66.2824 113.456 66.3492 113.264C67.1877 112.67 66.2175 111.762 65.3654 112.471C64.4176 112.806 64.2319 113.88 63.1602 113.879Z"
    fill="#305FCE"
  />
<path
    fill-rule="evenodd"
    clip-rule="evenodd"
    d="M89.8456 57.5636C91.5256 55.3555 90.27 58.0525 91.7863 58.1528C91.9112 58.139 92.2177 58.4977 92.184 58.5967C91.2604 59.4747 90.6262 60.3923 90.578 61.7247C89.2629 65.0669 89.6916 58.6057 89.8456 57.5636Z"
    fill="#305FCE"
  />
<path
    fill-rule="evenodd"
    clip-rule="evenodd"
    d="M67.3465 111.333C62.4256 112.534 67.5236 105.9 68.6304 108.001C69.0969 108.748 68.0224 108.185 67.812 107.818C67.7993 108.095 67.5684 108.681 67.607 108.752C68.2269 108.721 66.971 109.943 66.9057 110.32C66.8956 110.585 68.0657 110.903 67.3465 111.333Z"
    fill="#21D4F4"
  />
<path
    fill-rule="evenodd"
    clip-rule="evenodd"
    d="M82.989 81.8269C84.1823 81.7437 85.2746 81.875 85.9231 83.0902C86.2027 82.9918 87.3656 83.4331 86.6811 83.7246C84.2146 83.8259 85.6981 83.7911 84.5909 85.2616C84.3304 83.8784 84.1379 82.4775 82.989 81.8269Z"
    fill="#305FCE"
  />
<path
    fill-rule="evenodd"
    clip-rule="evenodd"
    d="M80.8923 87.1545C81.0061 86.9262 81.1197 86.698 81.2333 86.4696C81.1199 86.825 82.0913 86.4264 81.6394 87.0538C81.6651 88.3383 84.026 86.4973 83.0671 87.7802C81.6829 92.2814 83.0207 89.0287 80.8923 87.1545Z"
    fill="#305FCE"
  />
<path
    fill-rule="evenodd"
    clip-rule="evenodd"
    d="M74.1747 82.3313C74.2766 81.1294 76.1392 81.8025 76.2604 82.7578C76.2858 83.9157 75.4707 85.5519 75.1128 83.7785C75.4056 82.8637 75.4845 82.4418 74.1747 82.3313Z"
    fill="#305FCE"
  />
<path
    fill-rule="evenodd"
    clip-rule="evenodd"
    d="M72.7638 101.474C72.2025 101.452 72.8338 100.499 73.0084 100.437C73.8289 100.238 73.5466 99.6541 73.5867 99.1734C74.9647 96.7293 75.2258 101.703 72.7638 101.474Z"
    fill="#21D4F4"
  />
<path
    fill-rule="evenodd"
    clip-rule="evenodd"
    d="M72.3879 104.737C71.4168 105.843 72.6849 102.427 70.7942 102.532C74.2073 101.519 72.4448 102.078 72.3879 104.737Z"
    fill="#305FCE"
  />
<path
    fill-rule="evenodd"
    clip-rule="evenodd"
    d="M86.1782 61.2795C85.4136 61.0762 83.9025 61.275 84.6281 60.152C85.6036 59.1125 86.0741 60.274 86.1782 61.2795Z"
    fill="#305FCE"
  />
<path
    fill-rule="evenodd"
    clip-rule="evenodd"
    d="M69.1859 70.7663C68.1547 72.3032 67.8085 70.0783 68.5355 69.4105C68.7526 69.8626 68.9692 70.3143 69.1859 70.7663Z"
    fill="#21D4F4"
  />
<path
    fill-rule="evenodd"
    clip-rule="evenodd"
    d="M65.0742 110.415C65.0448 110.502 65.0156 110.588 64.9875 110.674C64.9322 110.53 64.8796 110.415 65.0742 110.415Z"
    fill="#305FCE"
  />
<path
    fill-rule="evenodd"
    clip-rule="evenodd"
    d="M125.313 65.6396C124.985 65.8637 124.969 65.9371 125.271 66.125C125.537 66.0642 125.437 65.8754 125.313 65.6396ZM123.418 63.0149C124.872 59.9991 123.61 61.7119 125.737 62.2043C125.187 63.5478 125.952 64.6622 126.242 65.8654C125.41 66.6425 126.62 66.5737 126.912 67.4323C125.264 67.9745 127.551 68.3344 127.122 69.4584C125.476 67.0291 124.401 66.3806 123.418 63.0149Z"
    fill="#305FCE"
  />
<path
    fill-rule="evenodd"
    clip-rule="evenodd"
    d="M129.739 69.3832C129.418 68.3154 129.13 68.0068 128.427 68.9764C130.447 66.663 126.853 65.9419 131.625 66.2086C130.616 66.3513 128.663 67.0939 130.285 67.6319C130.927 67.5272 132.316 65.772 132.385 66.9978C132.67 68.4577 129.846 70.9222 132.23 71.2821C130.957 72.2743 129.785 70.5835 129.739 69.3832Z"
    fill="#305FCE"
  />
<path
    fill-rule="evenodd"
    clip-rule="evenodd"
    d="M127.008 79.6816C127.266 80.0072 127.524 80.3328 127.85 80.7453C123.294 78.4835 127.82 74.9542 127.008 79.6816Z"
    fill="#305FCE"
  />
<path
    fill-rule="evenodd"
    clip-rule="evenodd"
    d="M142.957 102.459C143.473 100.921 143.954 102.13 144.649 102.874L144.634 102.862C145.229 103.813 144.067 103.804 143.863 104.552C143.545 103.928 143.264 103.139 142.957 102.459Z"
    fill="#305FCE"
  />
<path
    fill-rule="evenodd"
    clip-rule="evenodd"
    d="M144.799 95.8953C143.747 95.2932 144.443 92.6967 145.282 93.7908C144.145 94.5625 146.65 96.6229 144.799 95.8953Z"
    fill="#21D4F4"
  />
<path
    fill-rule="evenodd"
    clip-rule="evenodd"
    d="M143.264 88.7547C143.06 89.7438 140.575 90.6719 140.781 89.139C141.61 88.4225 142.17 90.2763 142.411 88.5376C142.499 89.3646 142.772 88.1844 143.264 88.7547Z"
    fill="#305FCE"
  />
<path
    fill-rule="evenodd"
    clip-rule="evenodd"
    d="M145.947 106.248C146.812 106.29 146.401 106.7 146.097 106.925C144.782 108.067 143.551 104.967 145.947 106.248Z"
    fill="#21D4F4"
  />
<path
    fill-rule="evenodd"
    clip-rule="evenodd"
    d="M128.906 72.0094C128.287 72.0938 127.594 72.0591 127.625 72.9272C126.659 72.4855 128.12 70.8163 128.906 72.0094Z"
    fill="#305FCE"
  />
<path
    fill-rule="evenodd"
    clip-rule="evenodd"
    d="M143.863 104.552C144.284 104.705 144.705 104.857 145.267 105.062C144.534 105.304 143.917 105.436 143.863 104.552Z"
    fill="#305FCE"
  />
<path
    fill-rule="evenodd"
    clip-rule="evenodd"
    d="M125.571 78.2655C125.294 77.8704 124.736 77.559 125.38 77.2587C125.428 77.5894 125.571 77.9512 125.571 78.2655Z"
    fill="#305FCE"
  />
<path
    fill-rule="evenodd"
    clip-rule="evenodd"
    d="M126.905 70.786C126.956 70.9489 126.82 70.8953 126.703 70.8828C126.771 70.8499 126.838 70.8181 126.905 70.786Z"
    fill="#305FCE"
  />
<path
    fill-rule="evenodd"
    clip-rule="evenodd"
    d="M126.433 71.1175C126.531 71.3396 126.243 71.1787 126.363 71.0764C126.363 71.0764 126.433 71.1175 126.433 71.1175Z"
    fill="#305FCE"
  />
<path
    fill-rule="evenodd"
    clip-rule="evenodd"
    d="M142.556 102.312L142.594 102.319C142.579 102.323 142.557 102.34 142.556 102.312Z"
    fill="#305FCE"
  />
<path
    fill-rule="evenodd"
    clip-rule="evenodd"
    d="M142.028 102.386L142.084 102.43C142.081 102.422 141.997 102.4 142.028 102.386Z"
    fill="#305FCE"
  />
<path
    fill-rule="evenodd"
    clip-rule="evenodd"
    d="M165.601 113.57C165.847 113.628 166.224 113.541 165.938 113.858C165.823 113.773 165.716 113.607 165.601 113.57Z"
    fill="#1AA9C4"
  />
<path
    fill-rule="evenodd"
    clip-rule="evenodd"
    d="M165.844 114.828C165.866 114.738 165.888 114.648 165.91 114.558L165.838 114.823L165.844 114.828Z"
    fill="#1AA9C4"
  />
<path
    fill-rule="evenodd"
    clip-rule="evenodd"
    d="M126.416 233.606C126.261 233.721 126.106 233.836 125.951 233.951C126.106 233.836 126.261 233.721 126.416 233.606Z"
    fill="#1AA9C4"
  />
<path
    fill-rule="evenodd"
    clip-rule="evenodd"
    d="M137.446 238.473C137.41 238.429 137.428 238.451 137.446 238.473C137.435 238.618 137.266 238.453 137.446 238.473Z"
    fill="#1AA9C4"
  />
<path
    fill-rule="evenodd"
    clip-rule="evenodd"
    d="M50.3981 199.869C50.3781 199.854 50.3585 199.84 50.3385 199.825C50.3583 199.837 50.3783 199.885 50.3981 199.869Z"
    fill="#21D4F4"
  />
<path
    fill-rule="evenodd"
    clip-rule="evenodd"
    d="M80.1783 150.158C80.2077 150.174 80.2366 150.19 80.2658 150.207C80.2362 150.192 80.2089 150.169 80.1783 150.158Z"
    fill="#1183CD"
  />
<path
    fill-rule="evenodd"
    clip-rule="evenodd"
    d="M125.186 176.689C125.295 179.025 123.803 180.669 123.328 182.799C121.784 182.545 124.196 177.249 125.186 176.689Z"
    fill="#1183CD"
  />
<path
    fill-rule="evenodd"
    clip-rule="evenodd"
    d="M117.744 195.764C117.63 195.964 117.516 196.164 117.403 196.364C117.517 196.164 117.63 195.964 117.744 195.764Z"
    fill="#1AA9C4"
  />
<path
    fill-rule="evenodd"
    clip-rule="evenodd"
    d="M56.3573 168.024C56.3082 168.009 56.2631 168 56.2665 167.938C56.2965 167.961 56.3243 168.05 56.3573 168.024Z"
    fill="#21D4F4"
  />
<path
    fill-rule="evenodd"
    clip-rule="evenodd"
    d="M82.488 66.7844C82.0618 67.1926 82.9484 67.5018 83.224 67.7626C83.9024 67.3832 82.8039 67.0889 82.488 66.7844ZM82.4198 64.5685C83.1536 65.8534 82.8781 63.7016 83.5749 64.4857C83.9217 64.8261 86.2653 65.2462 84.9619 65.8119C84.1653 65.9913 84.5519 65.9568 85.0893 66.48C83.0016 66.9239 83.9921 68.9038 84.4578 70.2939C83.5008 70.7041 82.1534 70.3984 83.0798 71.5765C82.7688 71.9923 81.5385 73.5519 81.6786 72.229C82.8635 71.1749 81.3159 70.5552 81.2924 69.7016C79.9656 70.2892 80.4268 68.9358 80.0246 68.5217C79.6505 67.4502 83.2358 67.7924 82.1287 66.6377C81.9839 66.3423 81.0825 65.7801 82.3565 65.9288C82.6411 65.7752 81.9264 64.9699 82.4198 64.5685Z"
    fill="#021018"
  />
<path
    fill-rule="evenodd"
    clip-rule="evenodd"
    d="M71.0263 108.863C70.91 109.128 70.7669 109.399 71.0649 109.504C71.5501 109.354 71.4374 109.311 71.0263 108.863ZM67.3466 111.333C67.8636 110.58 69.0653 110.887 69.7529 110.436C69.7356 110.46 69.7184 110.484 69.7013 110.509C70.0797 106.933 76.2266 108.806 71.6773 111.084C72.379 111.762 71.2056 112.28 71.635 113.098C68.4602 111.389 70.4439 113.425 68.0705 112.694C67.9158 112.376 68.4016 111.224 67.3466 111.333Z"
    fill="#021018"
  />
<path
    fill-rule="evenodd"
    clip-rule="evenodd"
    d="M73.5682 109.833C72.6531 107.281 75.931 106.643 76.4308 109.07C75.5265 109.743 74.2439 111.703 73.5682 109.833Z"
    fill="#305FCE"
  />
<path
    fill-rule="evenodd"
    clip-rule="evenodd"
    d="M72.4117 104.697C73.6623 105.044 74.2449 104.141 76.5689 104.633C75.9637 105.066 75.3739 105.257 75.5537 106.126C75.5243 107.157 74.7952 106.007 74.2363 106.038C73.4873 107.516 72.2379 105.734 72.4117 104.697Z"
    fill="#305FCE"
  />
<path
    fill-rule="evenodd"
    clip-rule="evenodd"
    d="M70.3077 109.589C69.8807 110.776 67.5709 111.45 66.9055 110.32C67.2656 108.771 69.574 108.032 70.3077 109.589Z"
    fill="#305FCE"
  />
<path
    fill-rule="evenodd"
    clip-rule="evenodd"
    d="M63.1603 113.879C65.2092 113.31 65.1387 115.153 63.6504 115.938C62.3468 116.155 62.7942 114.618 63.1603 113.879Z"
    fill="#021018"
  />
<path
    fill-rule="evenodd"
    clip-rule="evenodd"
    d="M77.7266 86.9169C78.2523 88.4555 76.7412 85.919 76.704 87.2949C76.5428 87.2195 76.3269 87.1842 76.2355 87.0584C76.2916 85.1577 79.4849 85.7193 77.7266 86.9169Z"
    fill="#305FCE"
  />
<path
    fill-rule="evenodd"
    clip-rule="evenodd"
    d="M87.4704 87.7338C86.7469 88.6945 86.2578 90.3227 85.1699 88.9597C85.2089 88.0033 86.8584 88.0836 87.4704 87.7338Z"
    fill="#21D4F4"
  />
<path
    fill-rule="evenodd"
    clip-rule="evenodd"
    d="M77.9741 83.3882C79.3381 82.5309 78.9782 84.0184 79.4166 84.2729C78.704 86.0829 78.0378 84.6172 77.9741 83.3882Z"
    fill="#21D4F4"
  />
<path
    fill-rule="evenodd"
    clip-rule="evenodd"
    d="M74.1747 82.3313C74.7238 82.4636 73.9089 83.0636 73.7983 83.403C73.9239 83.0458 74.0494 82.6885 74.1747 82.3313Z"
    fill="#021018"
  />
<path
    fill-rule="evenodd"
    clip-rule="evenodd"
    d="M78.0848 86.8125C78.0572 86.1436 78.1365 85.9411 78.8187 86.1728C78.5741 86.3858 78.3294 86.5992 78.0848 86.8125Z"
    fill="#21D4F4"
  />
<path
    fill-rule="evenodd"
    clip-rule="evenodd"
    d="M80.6547 86.317C80.2562 86.5333 80.1691 85.8233 79.9282 85.5935C80.3117 85.2931 80.3932 86.0474 80.6547 86.317Z"
    fill="#305FCE"
  />
<path
    fill-rule="evenodd"
    clip-rule="evenodd"
    d="M70.2353 109.273C69.8111 108.958 70.1307 108.68 70.3441 108.33C70.3489 108.674 70.7398 109.219 70.2353 109.273Z"
    fill="#21D4F4"
  />
<path
    fill-rule="evenodd"
    clip-rule="evenodd"
    d="M61.7997 116.548C61.9903 116.34 62.0674 116.326 62.2625 116.494C62.0943 116.695 62.0433 116.799 61.7997 116.548Z"
    fill="#021018"
  />
<path
    fill-rule="evenodd"
    clip-rule="evenodd"
    d="M82.3987 64.5505C82.5086 64.3124 82.222 64.416 82.4202 64.569C82.42 64.5686 82.3987 64.5505 82.3987 64.5505Z"
    fill="#021018"
  />
<path
    fill-rule="evenodd"
    clip-rule="evenodd"
    d="M85.8447 61.9724C85.8297 62.0145 85.7697 62.0624 85.8555 62.0603L85.8447 61.9724Z"
    fill="#305FCE"
  />
<path
    fill-rule="evenodd"
    clip-rule="evenodd"
    d="M86.4724 89.6544C86.4498 89.64 86.4268 89.6255 86.4042 89.6111C86.4268 89.6255 86.4498 89.64 86.4724 89.6544Z"
    fill="#21D4F4"
  />
<path
    fill-rule="evenodd"
    clip-rule="evenodd"
    d="M93.8584 56.9831C93.8535 56.8915 93.8486 56.7998 93.8436 56.7082C93.9262 56.812 93.9932 56.8991 93.8584 56.9831Z"
    fill="#021018"
  />
<path
    fill-rule="evenodd"
    clip-rule="evenodd"
    d="M134.109 66.1784C133.881 66.2203 133.672 66.1916 133.912 66.4298C134.212 66.6143 134.133 66.4216 134.109 66.1784ZM135.72 63.9851C136.801 65.5662 135.275 67.7203 137.175 69.2462C137.597 71.1858 134.263 68.5383 134.464 67.7735C135.362 66.5892 133.425 67.1708 133.639 66.4206C133.662 66.3415 133.25 66.1201 133.023 65.9952C131.516 65.998 131.44 64.2394 132.945 64.3906C133.249 64.2963 133.447 63.3181 132.971 63.201C131.782 62.9516 131.431 64.7501 130.863 63.5802C130.557 63.1714 130.15 60.9987 130.761 61.9763C131.022 62.3251 130.302 62.8169 130.999 63.14C132.476 63.935 131.242 60.8023 132.479 61.2271C132.546 62.3849 133.879 61.8699 134.263 62.5897C134.505 61.9385 135.154 61.738 135.699 61.4042C135.277 62.3869 136.082 63.5126 135.72 63.9851Z"
    fill="#021018"
  />
<path
    fill-rule="evenodd"
    clip-rule="evenodd"
    d="M143.264 88.7547C141.76 88.3412 142.701 87.8704 143.807 87.7504C145.206 87.8691 142.53 85.7179 143.877 86.0026C143.768 85.7313 146.148 81.7442 145.78 84.7323C144.844 85.6781 147.429 86.0994 146.014 87.3488C145.319 88.1538 146.396 90.175 144.676 90.0429C144.948 89.1929 143.826 89.0215 143.264 88.7547Z"
    fill="#21D4F4"
  />
<path
    fill-rule="evenodd"
    clip-rule="evenodd"
    d="M155.097 113.352C155.04 113.249 154.947 113.295 154.853 113.308C155.45 113.249 155.442 113.038 154.934 112.926C153.912 111.943 155.882 111.023 156.258 112.306C156.317 113.233 157.956 113.111 157.112 114.038C158.78 115.098 155.439 116.425 155.613 114.861C156.389 113.411 155.118 114.547 155.097 113.352Z"
    fill="#021018"
  />
<path
    fill-rule="evenodd"
    clip-rule="evenodd"
    d="M140.205 73.3258C140.95 74.2626 141.005 74.8575 139.828 73.9594C139.514 73.5383 139.556 73.5064 138.976 73.6116C138.538 73.225 138.379 72.1395 138.093 71.5029C138.32 69.7391 140.893 72.8226 140.205 73.3258Z"
    fill="#021018"
  />
<path
    fill-rule="evenodd"
    clip-rule="evenodd"
    d="M142.477 81.3265C139.192 80.9984 142.512 82.4053 140.127 82.7704C139.674 80.7367 141.4 81.9737 140.055 79.6297C140.564 78.847 141.861 79.7262 141.84 80.3464C141.308 80.8073 141.303 80.802 142.477 81.3265Z"
    fill="#21D4F4"
  />
<path
    fill-rule="evenodd"
    clip-rule="evenodd"
    d="M143.503 85.9934C142.476 86.5977 145.628 88.0528 143.445 87.4223C141.831 87.4784 141.519 85.8262 141.061 84.9126C141.692 84.503 142.645 84.4784 142.687 85.6727C142.697 85.8003 143.219 85.8876 143.503 85.9934Z"
    fill="#021018"
  />
<path
    fill-rule="evenodd"
    clip-rule="evenodd"
    d="M137.706 80.2349C137.76 81.709 135.541 81.0354 136.411 79.7324C135.84 77.2854 137.6 78.3848 137.706 80.2349Z"
    fill="#021018"
  />
<path
    fill-rule="evenodd"
    clip-rule="evenodd"
    d="M147.954 86.061C149.87 85.9827 148.033 86.3757 149.062 87.0782C150.12 87.2167 148.84 88.5565 148.189 88.6193C147.639 86.8046 146.033 88.3044 147.964 86.0501C147.964 86.0503 147.954 86.061 147.954 86.061Z"
    fill="#21D4F4"
  />
<path
    fill-rule="evenodd"
    clip-rule="evenodd"
    d="M145.23 90.5266C144.883 91.6745 143.833 92.458 142.716 92.3113C143.927 92.1693 140.882 91.5169 142.822 91.4214C143.04 91.4107 143.423 91.0401 143.42 90.8411C143.607 89.2478 144.608 91.1843 145.23 90.5266Z"
    fill="#305FCE"
  />
<path
    fill-rule="evenodd"
    clip-rule="evenodd"
    d="M146.24 86.1085C146.026 85.1491 148.308 83.6115 149.011 85.0247C149.136 85.2227 149.119 85.6701 148.774 85.5931C148.078 85.0265 148.166 85.8044 147.954 86.061C147.446 86.047 146.797 86.1005 146.24 86.1085Z"
    fill="#305FCE"
  />
<path
    fill-rule="evenodd"
    clip-rule="evenodd"
    d="M148.577 106.121C147.203 107.173 148.696 107.883 148.021 109.132C146.35 109.613 147.816 104.013 148.577 106.121Z"
    fill="#021018"
  />
<path
    fill-rule="evenodd"
    clip-rule="evenodd"
    d="M141.058 84.8483C141.033 85.0088 140.416 84.7386 140.41 84.6655C140.128 83.1786 138 85.6135 138.827 82.4504C139.231 85.0632 141.945 82.3625 141.058 84.8483Z"
    fill="#21D4F4"
  />
<path
    fill-rule="evenodd"
    clip-rule="evenodd"
    d="M134.372 85.8728C134.068 85.0808 134.02 83.2951 134.651 82.7536C135.937 83.0365 134.552 85.0225 134.372 85.8728Z"
    fill="#021018"
  />
<path
    fill-rule="evenodd"
    clip-rule="evenodd"
    d="M133.396 59.782C134.028 58.2783 133.15 59.5289 132.296 59.2093C132.61 58.3504 133.704 58.7951 134.423 58.6273C134.273 59.1745 133.545 60.8348 133.396 59.782Z"
    fill="#305FCE"
  />
<path
    fill-rule="evenodd"
    clip-rule="evenodd"
    d="M127.086 43.8862C126.712 43.4682 125.996 43.1767 126.835 43.0524C126.662 41.9511 129.933 41.8963 127.086 43.8862Z"
    fill="#21D4F4"
  />
<path
    fill-rule="evenodd"
    clip-rule="evenodd"
    d="M153.181 116.956C154.543 117.281 152.369 118.151 151.784 117.434C152.265 115.85 152.623 116.699 153.181 116.956Z"
    fill="#021018"
  />
<path
    fill-rule="evenodd"
    clip-rule="evenodd"
    d="M127.09 50.9616C127.563 50.2319 128.423 50.4277 129.122 50.0559C128.405 50.2691 127.741 51.7705 127.09 50.9616Z"
    fill="#305FCE"
  />
<path
    fill-rule="evenodd"
    clip-rule="evenodd"
    d="M130.495 50.3159C129.766 52.162 128.904 50.8146 130.504 50.3072L130.495 50.3159Z"
    fill="#305FCE"
  />
<path
    fill-rule="evenodd"
    clip-rule="evenodd"
    d="M139.424 79.4861C139.442 79.4876 139.47 79.4835 139.474 79.4915C139.546 79.6047 139.355 79.5926 139.424 79.4861Z"
    fill="#21D4F4"
  />
<path
    fill-rule="evenodd"
    clip-rule="evenodd"
    d="M140.945 89.0276C140.886 89.0681 140.827 89.1085 140.768 89.149C140.846 89.0173 140.918 88.7638 140.945 89.0276Z"
    fill="#021018"
  />
<path
    fill-rule="evenodd"
    clip-rule="evenodd"
    d="M130.504 50.3075L130.531 50.2921C130.529 50.2914 130.473 50.3342 130.504 50.3075Z"
    fill="#305FCE"
  />
<path
    fill-rule="evenodd"
    clip-rule="evenodd"
    d="M144.649 102.874C144.677 102.867 144.705 102.861 144.734 102.854C144.706 102.862 144.62 102.853 144.649 102.874Z"
    fill="#305FCE"
  />
<path
    fill-rule="evenodd"
    clip-rule="evenodd"
    d="M127.625 72.9271C127.608 72.1919 128.1 72.0681 128.68 72.0481C128.328 72.3411 127.977 72.634 127.625 72.9271Z"
    fill="#021018"
  />
<path
    fill-rule="evenodd"
    clip-rule="evenodd"
    d="M71.0263 108.863C71.4373 109.311 71.5501 109.354 71.0647 109.504C70.7668 109.398 70.91 109.128 71.0263 108.863Z"
    fill="#21D4F4"
  />
<path
    fill-rule="evenodd"
    clip-rule="evenodd"
    d="M69.7013 110.509C69.7183 110.484 69.7356 110.46 69.7529 110.436C69.7368 110.461 69.7208 110.487 69.7048 110.512L69.7013 110.509Z"
    fill="#305FCE"
  />
<path
    fill-rule="evenodd"
    clip-rule="evenodd"
    d="M77.7266 86.9169C77.6554 86.8062 77.4859 86.6987 77.6669 86.6287C77.679 86.7254 77.7536 86.8308 77.7266 86.9169Z"
    fill="#21D4F4"
  />
</svg>
