<svg width="172" height="145" viewBox="0 0 172 145" fill="none" xmlns="http://www.w3.org/2000/svg">
<path fill-rule="evenodd" clip-rule="evenodd" d="M110.193 29.717C107.029 26.554 103.011 24.5826 98.5737 24.0158L98.4579 24.0009L98.4777 23.8859C99.255 19.3675 97.7877 14.7392 94.5528 11.5052C92.0518 9.00481 88.7297 7.54234 85.1987 7.38723C81.6901 7.23253 78.2747 8.37664 75.5812 10.6075L75.5076 10.6685L75.4359 10.6052C67.6606 3.75386 57.656 0.150394 47.2642 0.456931C36.8277 0.765561 27.0121 5.00229 19.6254 12.3869L19.4673 12.2287C26.8943 4.80376 36.7638 0.54363 47.2577 0.233439C57.674 -0.0755552 67.7045 3.52639 75.5123 10.3746C78.237 8.14834 81.6749 7.00766 85.2085 7.16371C88.7956 7.32133 92.1702 8.80701 94.711 11.3471C97.9697 14.6049 99.4627 19.2557 98.7174 23.809C103.159 24.4013 107.179 26.3878 110.351 29.5589L110.193 29.717Z" fill="black"/>
<path fill-rule="evenodd" clip-rule="evenodd" d="M12.5088 60.3238C8.48635 50.6375 8.32384 39.907 12.051 30.1092C15.762 20.354 22.9597 12.4589 32.3181 7.87866L32.4166 8.07917C23.1094 12.6344 15.9509 20.4863 12.2602 30.1886C8.55333 39.9328 8.71501 50.6047 12.7154 60.2384L12.5088 60.3238Z" fill="black"/>
<path fill-rule="evenodd" clip-rule="evenodd" d="M106.636 52.8602L106.504 52.6785C109.364 50.6392 111.35 47.6255 112.096 44.1928C112.846 40.7378 112.27 37.1532 110.474 34.0994C108.151 30.1495 104.019 27.5558 99.4204 27.1609L99.4398 26.9381C104.111 27.3391 108.308 29.9741 110.668 33.9864C112.493 37.0889 113.078 40.7301 112.316 44.2398C111.558 47.727 109.541 50.7886 106.636 52.8602Z" fill="black"/>
<path fill-rule="evenodd" clip-rule="evenodd" d="M161.805 82.5291C176.934 62.5799 175.056 34.4675 157.296 16.7088C139.936 -0.651477 111.79 -0.651477 94.4293 16.7088C76.4913 34.6468 74.7556 63.1489 90.3845 83.131L125.863 128.492L161.342 83.131L161.805 82.5291ZM101.45 51.2987C101.45 37.7873 112.403 26.8341 125.915 26.8341C139.427 26.8341 150.38 37.7873 150.38 51.2987C150.38 64.8102 139.427 75.7634 125.915 75.7634C112.403 75.7634 101.45 64.8102 101.45 51.2987Z" fill="white"/>
<path fill-rule="evenodd" clip-rule="evenodd" d="M157.296 16.7088C139.936 -0.651477 111.79 -0.651477 94.4293 16.7088C76.4913 34.6468 74.7556 63.1489 90.3845 83.131L125.863 128.492L161.342 83.131L161.805 82.5291C176.934 62.5799 175.056 34.4675 157.296 16.7088ZM94.6502 16.9296C111.889 -0.30867 139.837 -0.30867 157.076 16.9296L157.606 17.4675L158.121 18.0062C174.964 35.8801 176.318 63.476 161.095 82.9386L125.863 127.985L90.6305 82.9386L90.1698 82.3403C75.1349 62.5153 77.0019 34.5778 94.6502 16.9296ZM125.915 26.5218C139.598 26.5218 150.692 37.6148 150.692 51.2987C150.692 64.9827 139.598 76.0757 125.915 76.0757C112.231 76.0757 101.138 64.9827 101.138 51.2987C101.138 37.6148 112.231 26.5218 125.915 26.5218ZM101.45 51.2987C101.45 37.7873 112.403 26.8341 125.915 26.8341C139.427 26.8341 150.38 37.7873 150.38 51.2987C150.38 64.8102 139.427 75.7634 125.915 75.7634C112.403 75.7634 101.45 64.8102 101.45 51.2987Z" fill="black"/>
<path fill-rule="evenodd" clip-rule="evenodd" d="M96.9736 138.122H154.752V144.785H96.9736V138.122ZM154.44 144.473V138.435H97.2859V144.473H154.44Z" fill="black"/>
<path fill-rule="evenodd" clip-rule="evenodd" d="M110.247 131.876H141.479C144.976 131.876 147.824 134.682 147.88 138.174L147.882 138.435H103.845V138.278C103.845 134.742 106.711 131.876 110.247 131.876ZM141.579 132.189L141.479 132.188H110.247C106.951 132.188 104.266 134.807 104.16 138.078L104.159 138.122H147.567L147.566 138.079C147.461 134.837 144.826 132.241 141.579 132.189Z" fill="black"/>
<path fill-rule="evenodd" clip-rule="evenodd" d="M45.6929 21.9636C44.0862 23.569 41.4812 23.569 39.8745 21.9636C38.2677 20.3582 38.2677 17.7554 39.8745 16.1499C41.4812 14.5445 44.0862 14.5445 45.6929 16.1499C47.2996 17.7554 47.2996 20.3582 45.6929 21.9636Z" fill="white"/>
<path fill-rule="evenodd" clip-rule="evenodd" d="M39.764 22.0742C41.415 23.7238 44.0815 23.7403 45.7528 22.1236L45.8032 22.0742L45.8528 22.0239C47.4708 20.3538 47.4542 17.6893 45.8032 16.0395C44.1355 14.3732 41.4318 14.3732 39.764 16.0395C38.0962 17.7059 38.0962 20.4078 39.764 22.0742ZM45.5824 16.2605C47.1127 17.7894 47.128 20.2589 45.6283 21.8066L45.5824 21.8533L45.5358 21.8991C43.9867 23.3976 41.5151 23.3823 39.9848 21.8533C38.4391 20.3089 38.4391 17.8049 39.9848 16.2605C41.5306 14.716 44.0367 14.716 45.5824 16.2605Z" fill="black"/>
<path fill-rule="evenodd" clip-rule="evenodd" d="M44.4225 20.1469C44.4826 20.0738 44.5907 20.0634 44.6638 20.1236C44.7369 20.1838 44.7473 20.2917 44.687 20.3647C44.6268 20.4377 44.5188 20.4481 44.4457 20.388C44.3727 20.3278 44.3622 20.2199 44.4225 20.1469Z" fill="black"/>
<path fill-rule="evenodd" clip-rule="evenodd" d="M42.4801 22.0881C42.5403 22.0151 42.6483 22.0047 42.7214 22.0649C42.7945 22.125 42.8048 22.233 42.7446 22.306C42.6844 22.379 42.5764 22.3894 42.5033 22.3293C42.4303 22.2691 42.4198 22.1612 42.4801 22.0881Z" fill="black"/>
<path fill-rule="evenodd" clip-rule="evenodd" d="M42.2516 19.6902C42.3118 19.6172 42.4198 19.6068 42.4928 19.6668C42.5659 19.7271 42.5763 19.835 42.5161 19.9081C42.456 19.981 42.3479 19.9914 42.2748 19.9313C42.2017 19.8711 42.1913 19.7631 42.2516 19.6902Z" fill="black"/>
<path fill-rule="evenodd" clip-rule="evenodd" d="M40.3086 21.6314C40.3689 21.5584 40.4769 21.548 40.55 21.6082C40.623 21.6683 40.6334 21.7763 40.5733 21.8493C40.5131 21.9223 40.405 21.9327 40.332 21.8725C40.2589 21.8124 40.2485 21.7044 40.3086 21.6314Z" fill="black"/>
<path fill-rule="evenodd" clip-rule="evenodd" d="M39.9654 19.4616C40.0257 19.3886 40.1337 19.3782 40.2067 19.4384C40.2798 19.4986 40.2902 19.6065 40.23 19.6795C40.1698 19.7525 40.0618 19.7629 39.9887 19.7027C39.9156 19.6426 39.9052 19.5346 39.9654 19.4616Z" fill="black"/>
<path fill-rule="evenodd" clip-rule="evenodd" d="M39.6231 17.1779C39.6834 17.105 39.7913 17.0945 39.8644 17.1547C39.9375 17.2149 39.9479 17.3228 39.8877 17.3958C39.8276 17.4688 39.7195 17.4792 39.6464 17.4191C39.5733 17.3589 39.5629 17.251 39.6231 17.1779Z" fill="black"/>
<path fill-rule="evenodd" clip-rule="evenodd" d="M16.9606 88.2786C24.0739 92.8903 32.6165 95.5052 41.1128 94.7041C46.5837 94.442 50.3332 90.7634 52.5575 85.9969L60.781 89.9625C57.9366 96.0895 52.7629 101.422 46.0654 103.107C34.385 105.71 21.9221 102.343 12.0127 95.9513L16.9606 88.2786Z" fill="white"/>
<path fill-rule="evenodd" clip-rule="evenodd" d="M61.0767 89.8299C58.4773 95.4396 54.0714 100.484 48.1569 102.651C45.3026 103.758 42.1693 104.099 39.1346 104.163C29.4248 104.444 19.8023 101.288 11.7153 96.0055L16.9209 88.0036C24.5522 92.9916 33.9986 95.752 43.0942 94.2203C47.5378 93.3448 50.6283 89.697 52.4494 85.7437L61.0767 89.8299ZM60.4859 90.0926L52.6642 86.2532C50.8161 90.1606 47.6201 93.742 43.2362 94.6136C41.4272 94.9873 39.4403 95.0596 37.5941 95.0438C30.2855 94.979 23.1303 92.4695 17.0011 88.5546L12.3082 95.8962C21.9999 102.095 34.0719 105.348 45.4918 103.032C52.2755 101.529 57.5858 96.2385 60.4859 90.0926Z" fill="black"/>
<path fill-rule="evenodd" clip-rule="evenodd" d="M10.5564 83.2365C12.4051 85.0558 14.4859 86.6446 16.655 88.0779L11.6438 95.714C10.4097 94.9048 9.20796 94.0474 8.04167 93.1375C7.95297 93.0647 7.80962 93.0732 7.73966 93.1651C5.82049 95.6568 2.43126 95.8046 0.225586 93.4234L10.5564 83.2365Z" fill="white"/>
<path fill-rule="evenodd" clip-rule="evenodd" d="M11.7133 96.0087C10.4094 95.1619 9.14198 94.2605 7.91312 93.3014C5.90723 95.905 2.51726 96.2924 0 93.4102C3.08702 90.5066 7.33576 85.8048 10.4386 82.8864C12.3334 84.7572 14.6897 86.5407 16.9209 88.0035L11.7133 96.0087ZM11.5747 95.4197L16.3864 88.1509C14.2982 86.7595 12.303 85.2289 10.5087 83.483C7.65942 86.3537 3.42127 90.6239 0.588162 93.4783C2.68515 95.6053 5.85799 95.2597 7.56531 93.0285C7.70522 92.8463 7.99245 92.8279 8.16922 92.9731C9.27346 93.8342 10.4101 94.6478 11.5747 95.4197Z" fill="black"/>
<path fill-rule="evenodd" clip-rule="evenodd" d="M2.33179 94.7932L2.02197 94.515L11.4221 84.0499L11.732 84.3282L2.33179 94.7932Z" fill="black"/>
<path fill-rule="evenodd" clip-rule="evenodd" d="M10.9638 95.5072L10.6169 95.2767C11.0357 94.6464 11.0573 93.7166 10.1614 93.06C9.53524 92.601 8.56196 92.4782 7.90475 93.2933L7.58057 93.0319C8.16147 92.3115 9.29392 91.9077 10.4075 92.7241C11.519 93.5386 11.4749 94.7377 10.9638 95.5072Z" fill="black"/>
<path fill-rule="evenodd" clip-rule="evenodd" d="M58.9984 98.3378L48.1553 89.0123C53.0563 82.8211 54.0583 74.3698 54.5487 66.4424C54.551 60.4809 62.6013 56.4192 66.8018 61.1985C70.1135 64.7224 68.4963 70.4901 68.1433 74.9296C66.9495 83.2696 64.6347 91.6751 58.9984 98.3378Z" fill="#2945FF"/>
<path fill-rule="evenodd" clip-rule="evenodd" d="M59.9865 64.2416C59.356 64.3042 59.2745 63.2741 59.9003 63.2226C60.5345 63.15 60.6158 64.1986 59.9865 64.2416Z" fill="black"/>
<path fill-rule="evenodd" clip-rule="evenodd" d="M66.688 64.3287C66.0522 64.3948 65.9821 63.2768 66.6025 63.2252C67.2418 63.1491 67.3126 64.2857 66.688 64.3287Z" fill="black"/>
<path fill-rule="evenodd" clip-rule="evenodd" d="M56.7403 68.7222C56.1099 68.747 56.0795 67.7551 56.7096 67.7391C57.3438 67.704 57.3735 68.7161 56.7403 68.7222Z" fill="black"/>
<path fill-rule="evenodd" clip-rule="evenodd" d="M63.4259 69.1951C62.7899 69.2231 62.776 68.1432 63.4007 68.1268C64.041 68.0884 64.0539 69.1881 63.4259 69.1951Z" fill="black"/>
<path fill-rule="evenodd" clip-rule="evenodd" d="M59.3159 73.5966C58.6832 73.5828 58.7246 72.5578 59.3509 72.5804C59.9892 72.5837 59.9476 73.6296 59.3159 73.5966Z" fill="black"/>
<path fill-rule="evenodd" clip-rule="evenodd" d="M65.9583 74.4916C65.3197 74.4813 65.385 73.3566 66.0056 73.3789C66.6514 73.379 66.5837 74.5237 65.9583 74.4916Z" fill="black"/>
<path fill-rule="evenodd" clip-rule="evenodd" d="M55.5369 77.5399C54.9115 77.4765 55.0078 76.5242 55.6339 76.5915C56.2661 76.6425 56.168 77.6215 55.5369 77.5399Z" fill="black"/>
<path fill-rule="evenodd" clip-rule="evenodd" d="M62.0929 78.9324C61.4595 78.8728 61.5946 77.8014 62.2135 77.8678C62.8555 77.9152 62.7164 79.0116 62.0929 78.9324Z" fill="black"/>
<path fill-rule="evenodd" clip-rule="evenodd" d="M57.3734 82.6145C56.7548 82.4934 56.9546 81.5198 57.5684 81.6418C58.198 81.7482 57.9926 82.7546 57.3734 82.6145Z" fill="black"/>
<path fill-rule="evenodd" clip-rule="evenodd" d="M63.7685 84.62C63.1401 84.5029 63.402 83.3818 64.0071 83.5025C64.6495 83.6059 64.3782 84.7566 63.7685 84.62Z" fill="black"/>
<path fill-rule="evenodd" clip-rule="evenodd" d="M52.9957 85.5508C52.4066 85.3521 52.6591 84.5182 53.26 84.7131C53.8632 84.8929 53.6019 85.7716 52.9957 85.5508Z" fill="black"/>
<path fill-rule="evenodd" clip-rule="evenodd" d="M59.0943 88.3302C58.4913 88.1354 58.8496 87.1183 59.439 87.3087C60.0613 87.4871 59.6881 88.5436 59.0943 88.3302Z" fill="black"/>
<path fill-rule="evenodd" clip-rule="evenodd" d="M53.6622 90.6372C53.1112 90.3444 53.5303 89.5209 54.0892 89.8028C54.6658 90.075 54.2209 90.9524 53.6622 90.6372Z" fill="black"/>
<path fill-rule="evenodd" clip-rule="evenodd" d="M59.2165 94.3882C58.662 94.1007 59.2137 93.0627 59.7906 93.3265C60.3914 93.6007 59.761 94.6933 59.2165 94.3882Z" fill="black"/>
<path fill-rule="evenodd" clip-rule="evenodd" d="M89.1768 135.044C89.1231 125.544 89.1548 115.56 88.8785 106.107C88.6223 99.8653 85.5364 94.114 81.6782 89.2783L88.8121 83.5809C93.701 89.6869 97.4609 97.0447 97.9556 104.98C98.3272 114.814 98.2303 125.152 98.3065 135.019L89.1768 135.044Z" fill="white"/>
<path fill-rule="evenodd" clip-rule="evenodd" d="M88.822 83.2633C93.3088 88.8198 96.8819 95.4091 97.9088 102.56C98.0556 103.523 98.1534 104.632 98.2016 105.604C98.5012 115.283 98.457 125.514 98.515 135.227L88.969 135.252C88.8435 125.129 89.091 114.526 88.5369 104.46C87.8285 98.7767 84.9473 93.6838 81.3872 89.251L88.822 83.2633ZM88.7978 83.8998L81.9663 89.3084C86.3517 94.7874 89.3291 101.123 89.1489 108.157C89.3359 116.82 89.3466 126.134 89.3842 134.835L98.0975 134.811C98.048 125.529 98.0665 115.799 97.8189 106.552C97.787 105.086 97.6573 103.6 97.4298 102.154C96.3522 95.4286 92.97 89.1452 88.7978 83.8998Z" fill="black"/>
<path fill-rule="evenodd" clip-rule="evenodd" d="M89.1917 144.578L89.1772 135.46L98.3109 135.436C98.4148 135.571 98.0757 140.023 98.5287 139.845C100.74 139.748 103.825 141.427 103.7 144.575L89.1917 144.578Z" fill="white"/>
<path fill-rule="evenodd" clip-rule="evenodd" d="M98.5192 135.227L98.529 139.637C98.8899 139.64 103.9 139.697 103.912 144.785H88.9842L88.9692 135.252L98.5192 135.227ZM98.1038 135.644L89.3867 135.667L89.4005 144.371C93.4452 144.369 99.4615 144.367 103.483 144.365C103.516 141.469 100.524 139.954 98.5301 140.054C98.3066 140.058 98.1087 139.861 98.1126 139.637L98.1038 135.644Z" fill="black"/>
<path fill-rule="evenodd" clip-rule="evenodd" d="M89.183 143.012L89.1826 142.595L103.249 142.583L103.251 142.999L89.183 143.012Z" fill="black"/>
<path fill-rule="evenodd" clip-rule="evenodd" d="M98.5248 140.052C97.241 140.048 96.5674 139.049 96.5654 138.064C96.5636 137.079 97.2331 136.077 98.5166 136.068L98.5194 136.485C97.4609 136.492 96.9804 137.308 96.9819 138.063C96.9833 138.818 97.4672 139.633 98.526 139.636L98.5248 140.052Z" fill="black"/>
<path fill-rule="evenodd" clip-rule="evenodd" d="M83.2819 95.2999C78.7945 87.8073 68.8642 80.0082 61.6786 75.0345C56.5508 71.8789 60.5569 64.8936 66.9243 63.8747C72.9494 62.7633 80.8137 71.4669 85.354 75.2585C89.2865 79.0831 92.8452 83.3243 95.629 88.0828L83.2819 95.2999Z" fill="black"/>
<path fill-rule="evenodd" clip-rule="evenodd" d="M54.7339 64.7321C54.7816 49.3183 82.3822 49.3199 82.4271 64.733C82.3795 80.1459 54.7789 80.1444 54.7339 64.7321Z" fill="black"/>
<path fill-rule="evenodd" clip-rule="evenodd" d="M120.188 36.0858C119.801 36.1991 119.457 36.4189 119.318 36.7913C118.934 37.8323 118.496 38.8093 118.021 39.7166C116.438 42.9236 114.24 44.6112 111.724 45.2591C104.796 47.0431 95.4481 40.9466 89.8287 36.989L82.5889 46.9176C100.275 60.3051 123.021 65.043 131.447 39.3181C130.433 39.1381 121.005 35.5138 120.188 36.0858Z" fill="white"/>
<path fill-rule="evenodd" clip-rule="evenodd" d="M82.879 46.8749C88.4211 51.0457 94.218 54.1723 99.6553 55.9222C105.768 57.8897 111.29 58.1297 116.066 56.6355C123.03 54.4574 128.113 48.6818 131.18 39.4669C130.706 39.3352 129.767 39.0118 128.547 38.592C126.98 38.0526 125.029 37.3812 123.4 36.8929C120.835 36.1236 120.384 36.2118 120.306 36.2572C120.289 36.2701 120.269 36.2793 120.247 36.2856C119.982 36.3635 119.639 36.5271 119.514 36.8638C119.141 37.8754 118.701 38.8679 118.207 39.8131C116.704 42.8556 114.532 44.7594 111.752 45.4672C108.674 46.251 104.782 45.5756 100.186 43.4599C96.3494 41.694 92.6789 39.245 89.8775 37.2772L82.879 46.8749ZM109.486 58.0181C106.375 58.0181 103.047 57.4513 99.5277 56.3187C93.993 54.5374 88.0927 51.344 82.4644 47.0837C82.3739 47.0152 82.3549 46.8867 82.4219 46.795L89.6617 36.8664C89.7287 36.7746 89.8569 36.7535 89.9498 36.8189C92.7571 38.7959 96.4773 41.2944 100.36 43.0816C104.868 45.1564 108.665 45.8232 111.649 45.0637C114.306 44.3872 116.388 42.5571 117.835 39.6244C118.324 38.6906 118.757 37.7147 119.124 36.7193C119.268 36.3306 119.607 36.0456 120.105 35.8936C120.733 35.5639 123.509 36.4176 128.683 38.1982C130.027 38.6609 131.188 39.0605 131.484 39.1131C131.543 39.1236 131.596 39.1595 131.627 39.2112C131.658 39.2629 131.664 39.3256 131.645 39.383C128.543 48.8572 123.343 54.7955 116.191 57.0329C114.091 57.6898 111.851 58.0181 109.486 58.0181Z" fill="black"/>
<path fill-rule="evenodd" clip-rule="evenodd" d="M124.251 37.5914C124.588 36.1646 125.866 33.5295 125.34 32.1981C124.788 31.1489 123.3 31.5771 123.077 32.7164C122.683 34.4279 122.199 36.0952 121.609 37.6828" fill="white"/>
<path fill-rule="evenodd" clip-rule="evenodd" d="M121.609 37.8909C121.586 37.8909 121.562 37.8868 121.538 37.8779C121.429 37.8378 121.375 37.718 121.415 37.6103C121.978 36.0939 122.468 34.4316 122.874 32.6695C123.003 32.0119 123.528 31.5014 124.179 31.4057C124.748 31.322 125.251 31.582 125.525 32.1008C125.529 32.1076 125.532 32.1145 125.534 32.1215C125.94 33.1508 125.383 34.7861 124.893 36.2289C124.714 36.7534 124.545 37.2489 124.454 37.6391C124.427 37.751 124.314 37.8203 124.203 37.7938C124.091 37.7674 124.022 37.6552 124.048 37.5433C124.144 37.1337 124.316 36.629 124.498 36.0947C124.942 34.793 125.493 33.1743 125.151 32.285C124.961 31.9308 124.629 31.7604 124.24 31.8176C123.843 31.8759 123.393 32.1888 123.281 32.7564C122.87 34.5425 122.374 36.222 121.805 37.7551C121.774 37.839 121.695 37.8909 121.609 37.8909Z" fill="black"/>
<path fill-rule="evenodd" clip-rule="evenodd" d="M124.25 37.5913C124.731 36.1807 125.135 34.7362 125.472 33.271C125.561 32.8824 125.775 32.5599 126.044 32.3472C126.589 31.8883 127.437 32.053 127.744 32.7075C128.255 34.1393 126.947 36.844 126.576 38.3858" fill="white"/>
<path fill-rule="evenodd" clip-rule="evenodd" d="M126.576 38.594C126.56 38.594 126.544 38.5921 126.527 38.5881C126.415 38.5612 126.346 38.4487 126.373 38.3369C126.481 37.8945 126.661 37.3619 126.852 36.7978C127.313 35.4394 127.887 33.7498 127.552 32.787C127.435 32.5454 127.218 32.374 126.953 32.316C126.676 32.2554 126.394 32.3248 126.179 32.5063C125.927 32.7057 125.75 32.9924 125.675 33.3177C125.327 34.8284 124.915 36.2889 124.447 37.6585C124.41 37.7673 124.292 37.8253 124.183 37.7883C124.075 37.7511 124.016 37.6329 124.054 37.524C124.516 36.1679 124.925 34.7213 125.269 33.2243C125.365 32.807 125.595 32.4375 125.915 32.1838C126.225 31.9223 126.638 31.8207 127.042 31.9093C127.437 31.9959 127.762 32.2546 127.933 32.6189C127.936 32.625 127.938 32.6311 127.941 32.6375C128.333 33.7353 127.756 35.4334 127.247 36.9317C127.058 37.4865 126.88 38.0104 126.778 38.4345C126.755 38.5298 126.67 38.594 126.576 38.594Z" fill="black"/>
<path fill-rule="evenodd" clip-rule="evenodd" d="M126.576 38.3858C127.088 36.8825 127.513 35.3589 127.866 33.8256C127.96 33.4188 128.177 33.0802 128.449 32.8566C129.44 32.0444 130.593 33.1106 130.259 34.3803C129.892 35.9818 129.446 37.5843 128.902 39.1803" fill="white"/>
<path fill-rule="evenodd" clip-rule="evenodd" d="M128.902 39.3885C128.879 39.3885 128.857 39.3848 128.834 39.3772C128.726 39.3402 128.668 39.2218 128.704 39.113C129.221 37.5993 129.676 35.9913 130.057 34.3336C130.231 33.666 129.944 33.1295 129.603 32.911C129.285 32.707 128.912 32.746 128.58 33.0177C128.33 33.224 128.148 33.5277 128.068 33.8723C127.703 35.4635 127.268 37.0047 126.773 38.4529C126.736 38.5618 126.618 38.6199 126.509 38.5827C126.4 38.5457 126.342 38.4273 126.38 38.3185C126.869 36.8837 127.301 35.3564 127.663 33.779C127.763 33.3452 127.995 32.9605 128.317 32.6958C128.791 32.3078 129.355 32.2573 129.827 32.5605C130.394 32.9238 130.655 33.6938 130.461 34.433C130.078 36.0985 129.619 37.7203 129.099 39.2474C129.07 39.334 128.988 39.3885 128.902 39.3885Z" fill="black"/>
<path fill-rule="evenodd" clip-rule="evenodd" d="M121.113 38.928C121.407 37.9521 122.262 36.847 121.872 35.802C121.531 34.9967 120.356 34.9162 119.842 35.5875C119.085 37.0945 118.617 38.8419 117.779 40.158" fill="white"/>
<path fill-rule="evenodd" clip-rule="evenodd" d="M117.779 40.3662C117.741 40.3662 117.702 40.3557 117.667 40.3336C117.57 40.2718 117.542 40.1431 117.603 40.0461C118.083 39.293 118.435 38.4044 118.808 37.4636C119.068 36.8069 119.337 36.1278 119.655 35.494C119.661 35.4822 119.668 35.4711 119.676 35.4607C119.974 35.0732 120.479 34.8736 120.994 34.9395C121.483 35.0021 121.883 35.2943 122.063 35.7211C122.373 36.5495 121.993 37.3898 121.658 38.131C121.523 38.4321 121.394 38.7165 121.312 38.9881C121.278 39.0982 121.163 39.1605 121.052 39.1274C120.942 39.0942 120.881 38.978 120.913 38.8678C121.003 38.5699 121.143 38.2596 121.279 37.9595C121.596 37.259 121.923 36.5345 121.676 35.875C121.555 35.5902 121.287 35.3968 120.941 35.3526C120.579 35.3062 120.227 35.4388 120.019 35.6994C119.712 36.3115 119.449 36.9751 119.195 37.6169C118.832 38.5345 118.456 39.4833 117.954 40.2698C117.915 40.3322 117.848 40.3662 117.779 40.3662Z" fill="black"/>
<path fill-rule="evenodd" clip-rule="evenodd" d="M128.901 39.1802C129.605 37.8599 129.686 33.8593 131.562 34.1937C133.535 34.8473 131.521 38.5098 131.227 39.9747" fill="white"/>
<path fill-rule="evenodd" clip-rule="evenodd" d="M131.227 40.183C131.214 40.183 131.2 40.1817 131.186 40.1788C131.073 40.1564 131 40.0466 131.023 39.9339C131.097 39.5624 131.27 39.079 131.469 38.5191C131.918 37.2611 132.476 35.6954 132.075 34.8747C131.962 34.6443 131.778 34.4877 131.512 34.3962C130.5 34.2299 130.085 35.6171 129.649 37.4467C129.477 38.1669 129.315 38.8471 129.085 39.2782C129.031 39.3797 128.905 39.4181 128.804 39.364C128.702 39.3099 128.663 39.1838 128.717 39.0823C128.922 38.6985 129.079 38.0435 129.244 37.3501C129.629 35.7342 130.109 33.7232 131.599 33.9888C131.608 33.9905 131.619 33.9929 131.628 33.996C132.008 34.1221 132.285 34.3564 132.448 34.692C132.926 35.6701 132.336 37.3273 131.861 38.6589C131.675 39.1808 131.5 39.6737 131.431 40.0156C131.412 40.1146 131.324 40.183 131.227 40.183Z" fill="black"/>
<path fill-rule="evenodd" clip-rule="evenodd" d="M91.4509 36.5704C89.7542 35.3677 88.0861 34.0838 86.4608 32.7436C83.5361 30.3946 80.6535 30.2263 78.4766 30.2263C74.6585 30.2263 73.9691 41.4694 77.1226 44.0627C79.0082 45.6176 80.9482 47.112 82.9642 48.5413L91.4509 36.5704Z" fill="black"/>
<path fill-rule="evenodd" clip-rule="evenodd" d="M127.687 41.9004L122.628 40.6009C121.705 40.3634 121.148 39.4216 121.385 38.4973L124.074 28.0289C124.313 27.1045 125.254 26.5478 126.178 26.7852L131.237 28.0849C132.16 28.3223 132.717 29.2641 132.48 30.1884L129.791 40.6568C129.552 41.5812 128.611 42.1379 127.687 41.9004Z" fill="white"/>
<path fill-rule="evenodd" clip-rule="evenodd" d="M125.746 26.9385C125.478 26.9385 125.212 27.0103 124.975 27.1506C124.626 27.3572 124.378 27.6875 124.277 28.0807L121.587 38.5491C121.378 39.3607 121.87 40.1907 122.681 40.3992L127.739 41.6988C128.132 41.7997 128.541 41.7415 128.89 41.535C129.24 41.3285 129.488 40.9981 129.589 40.6049L132.279 30.1366C132.487 29.3249 131.997 28.4949 131.185 28.2864L126.128 26.9869C126.001 26.9545 125.873 26.9385 125.746 26.9385ZM128.117 42.1632C127.958 42.1632 127.796 42.1434 127.635 42.1021L122.578 40.8025C121.544 40.5368 120.918 39.4795 121.184 38.4454L123.874 27.977C124.003 27.4762 124.318 27.0554 124.764 26.7921C125.208 26.5289 125.73 26.4549 126.231 26.5836L131.289 27.8831C132.323 28.1488 132.947 29.2062 132.682 30.2402L129.992 40.7086C129.768 41.5816 128.979 42.1632 128.117 42.1632Z" fill="black"/>
<path fill-rule="evenodd" clip-rule="evenodd" d="M128.401 39.9198L122.959 38.5216C122.653 38.4427 122.467 38.1306 122.547 37.8244L125.028 28.1647C125.108 27.8584 125.419 27.6738 125.726 27.7525L131.168 29.1509C131.475 29.2296 131.659 29.5417 131.58 29.8481L129.098 39.5076C129.02 39.814 128.708 39.9985 128.401 39.9198Z" fill="#2945FF"/>
<path fill-rule="evenodd" clip-rule="evenodd" d="M125.654 39.5718C126.114 40.0722 125.317 40.7833 124.872 40.2695C124.413 39.7692 125.209 39.0581 125.654 39.5718Z" fill="#2945FF"/>
<path fill-rule="evenodd" clip-rule="evenodd" d="M86.1353 64.0741C86.2415 65.2112 85.3468 66.1933 84.2047 66.1933H53.4168C52.4108 66.1933 51.5602 65.4486 51.4272 64.4514L53.0208 36.5778C52.5755 33.238 55.1739 30.2703 58.5432 30.2703H78.6797C83.045 30.3027 86.4858 34.2093 86.1258 38.553L86.1353 64.0741Z" fill="#2945FF"/>
<path fill-rule="evenodd" clip-rule="evenodd" d="M77.0718 30.2703C74.5509 19.6544 55.8079 27.1593 67.9794 36.0205C68.1979 36.198 68.5151 36.1808 68.7143 35.9816L70.1578 34.5381L71.5965 33.0993C72.2856 33.7689 73.7022 35.1446 74.3959 35.8187C75.4571 36.9129 77.1573 31.6211 77.0718 30.2703Z" fill="#2945FF"/>
<path fill-rule="evenodd" clip-rule="evenodd" d="M68.4303 36.2401C68.2466 36.2401 68.0281 36.1733 67.7756 36.0402C66.2007 35.2103 63.5384 31.9091 63.7901 30.2471C63.803 30.1618 63.8826 30.1033 63.9679 30.116C64.0531 30.1289 64.1118 30.2086 64.0988 30.2938C63.9983 30.958 64.4707 32.0781 65.3627 33.29C66.1722 34.3898 67.2003 35.384 67.9212 35.7639C68.1118 35.8643 68.4545 36.0114 68.6084 35.8677C69.0007 35.4748 69.6192 34.8563 70.2146 34.2612L71.4867 32.9891C71.547 32.9286 71.6447 32.9279 71.706 32.9874L74.5053 35.7068C74.6094 35.814 74.7035 35.8356 74.8235 35.7826C75.7261 35.3832 76.9925 31.4798 76.9166 30.2803C76.9111 30.1942 76.9764 30.1201 77.0625 30.1145C77.1487 30.1093 77.2228 30.1745 77.2283 30.2605C77.3053 31.4777 76.0351 35.588 74.9499 36.0682C74.7112 36.174 74.4748 36.1239 74.2844 35.9275L71.5988 33.3187L70.4354 34.482C69.8401 35.0771 69.2216 35.6955 68.8254 36.0923C68.7198 36.1909 68.5879 36.2401 68.4303 36.2401Z" fill="black"/>
<path fill-rule="evenodd" clip-rule="evenodd" d="M100.367 56.9633C94.7223 45.3996 98.9485 46.2158 87.4677 50.4155C81.2598 52.4552 71.6393 55.8815 65.5586 52.9508C62.9472 51.2542 63.0584 47.713 63.2358 44.7907L53.4028 43.911C52.8534 43.8583 52.3569 44.3618 52.3192 45.0484C51.9359 50.644 53.3939 57.0942 58.0143 60.8793C68.7868 69.5078 86.703 62.4724 97.9774 57.9856C97.378 58.2366 96.1675 58.732 95.5642 58.9734C96.5871 61.6393 101.552 59.5659 100.367 56.9633Z" fill="white"/>
<path fill-rule="evenodd" clip-rule="evenodd" d="M52.8783 44.2908C52.6722 44.468 52.5443 44.7483 52.5272 45.0596C52.323 48.0392 52.6556 50.9842 53.4886 53.5791C54.4493 56.5714 56.0164 58.9733 58.1464 60.7181C68.9015 69.3327 87.0544 62.1084 97.9006 57.792C98.0067 57.7498 98.1271 57.8009 98.1703 57.9067C98.2136 58.0125 98.1634 58.1333 98.058 58.1775C97.5234 58.4014 96.484 58.8273 95.8418 59.0861C96.1636 59.7175 96.728 59.9249 97.1633 59.9849C98.1615 60.1226 99.3676 59.6177 99.9686 58.8109C100.255 58.427 100.523 57.8103 100.179 57.0519C98.8786 54.3882 98.1022 52.3832 97.5351 50.919C97.2946 50.298 97.0914 49.7734 96.9031 49.342C96.5473 48.5272 96.5694 47.8814 96.166 47.707C95.4994 47.4192 94.2369 48.0185 91.8377 48.9369C90.6841 49.3785 89.317 49.9607 87.5394 50.6109C87.2382 50.7099 86.9358 50.81 86.6265 50.9122C83.5431 51.9314 79.7058 53.1997 75.9399 53.8539C71.4948 54.626 68.0695 54.3919 65.4683 53.1382C65.4604 53.1344 65.4527 53.1301 65.4453 53.1253C62.7043 51.3446 62.8603 47.5738 63.0159 44.9799L53.3844 44.1183C53.3649 44.1164 53.3455 44.1155 53.326 44.1155C53.1678 44.1155 53.0111 44.1766 52.8783 44.2908ZM57.8843 61.0417C55.6895 59.2437 54.0777 56.7762 53.0922 53.7064C52.2432 51.0617 51.904 48.063 52.1116 45.034C52.1346 44.6129 52.3152 44.2259 52.6068 43.9751C52.8427 43.7723 53.1326 43.6759 53.4228 43.7037L63.2545 44.5831C63.3667 44.5932 63.4505 44.6907 63.4437 44.8031C63.2513 47.9748 63.2642 51.2018 65.6611 52.7688C71.3779 55.5143 80.4746 52.5071 86.4957 50.5168C86.8053 50.4145 87.108 50.3144 87.4029 50.2175C89.167 49.5721 90.561 49.0059 91.6811 48.5511C94.0828 47.5757 95.5044 46.9677 96.3311 47.3247C96.8652 47.5554 96.8867 48.2552 97.298 49.2047C97.4852 49.6371 97.6858 50.1551 97.9234 50.7685C98.488 52.2263 99.2612 54.2227 100.554 56.8718C100.555 56.8735 100.556 56.8752 100.557 56.8769C100.892 57.614 100.802 58.3891 100.303 59.0597C99.6065 59.994 98.2625 60.5565 97.1065 60.3974C96.3389 60.2916 95.7538 59.8737 95.4406 59.2134C88.4842 61.9377 79.4158 65.1648 71.1284 65.1652C66.245 65.1655 61.6343 64.0454 57.8843 61.0417Z" fill="black"/>
<path fill-rule="evenodd" clip-rule="evenodd" d="M96.1358 49.6648C97.5179 49.0661 98.8944 48.4476 100.267 47.8164C100.995 47.4767 101.35 46.7033 101.061 46.0897H101.06C100.771 45.4759 99.954 45.2505 99.236 45.5853C97.575 46.3518 95.9081 47.0934 94.2363 47.8039" fill="white"/>
<path fill-rule="evenodd" clip-rule="evenodd" d="M96.1361 49.8729C96.0556 49.8729 95.979 49.826 95.945 49.7474C95.8993 49.6419 95.9478 49.5193 96.0532 49.4736C97.3471 48.9132 98.6969 48.3092 100.18 47.6271C100.518 47.4695 100.778 47.1973 100.892 46.881C100.979 46.6398 100.972 46.3903 100.872 46.1785C100.632 45.6694 99.9375 45.4879 99.3242 45.7739C97.617 46.5618 95.9329 47.309 94.318 47.9954C94.2122 48.0405 94.0899 47.9911 94.045 47.8853C94 47.7794 94.0493 47.6572 94.1551 47.6122C95.7661 46.9275 97.4463 46.1819 99.1489 45.3962C99.9686 45.0138 100.911 45.2849 101.249 46.0008C101.397 46.3135 101.409 46.6763 101.284 47.0224C101.132 47.4422 100.794 47.8003 100.355 48.005C98.868 48.6887 97.5155 49.294 96.2188 49.8558C96.1918 49.8674 96.1637 49.8729 96.1361 49.8729Z" fill="black"/>
<path fill-rule="evenodd" clip-rule="evenodd" d="M64.8602 45.9095C64.8602 45.9095 64.9404 43.6798 65.2159 39.6708C65.4913 35.6618 64.6861 32.3582 61.1906 30.7848C58.3403 29.4737 54.9805 30.6326 53.125 33.1101C50.7966 36.6011 50.6296 40.9473 50.2002 45.267L64.8602 45.9095Z" fill="black"/>
<path fill-rule="evenodd" clip-rule="evenodd" d="M71.4558 18.9449C71.4558 21.3074 70.105 23.2226 68.4388 23.2226C66.7725 23.2226 65.4219 21.3074 65.4219 18.9449C65.4219 16.5823 66.7725 14.6671 68.4388 14.6671C70.105 14.6671 71.4558 16.5823 71.4558 18.9449Z" fill="black"/>
<path fill-rule="evenodd" clip-rule="evenodd" d="M78.1343 18.9492C78.1343 21.3141 76.7241 23.2312 74.9844 23.2312C73.2448 23.2312 71.8345 21.3141 71.8345 18.9492C71.8345 16.5842 73.2448 14.6671 74.9844 14.6671C76.7241 14.6671 78.1343 16.5842 78.1343 18.9492Z" fill="black"/>
<path fill-rule="evenodd" clip-rule="evenodd" d="M71.5181 30.9634C69.5445 30.9634 67.7251 29.4499 67.7251 27.6429L69.4022 21.4317C69.4022 19.6248 68.9199 18.1599 70.8934 18.1599H72.9755C74.949 18.1599 74.4667 19.6248 74.4667 21.4317V27.6916C74.4667 29.4985 73.4916 30.9634 71.5181 30.9634Z" fill="white"/>
<path fill-rule="evenodd" clip-rule="evenodd" d="M67.9336 27.67C67.9516 29.3166 69.619 30.7551 71.5183 30.7551C73.5388 30.7551 74.2587 29.1726 74.2587 27.6915V21.4317C74.2587 21.1145 74.2731 20.8129 74.287 20.5213C74.3252 19.7189 74.3583 19.0261 74.0272 18.6789C73.8278 18.4698 73.4839 18.3681 72.9757 18.3681H70.8936C70.3854 18.3681 70.0414 18.4698 69.8421 18.6789C69.511 19.0261 69.544 19.7189 69.5823 20.5213C69.5962 20.8129 69.6106 21.1145 69.6106 21.4317V21.4594L67.9336 27.67ZM71.5183 31.1715C69.3867 31.1715 67.5171 29.5226 67.5171 27.6429V27.6153L69.1941 21.4042C69.1934 21.1067 69.1796 20.8192 69.1663 20.5411C69.1235 19.6433 69.0866 18.8679 69.5407 18.3916C69.8229 18.0955 70.2655 17.9517 70.8936 17.9517H72.9757C73.6039 17.9517 74.0464 18.0955 74.3286 18.3916C74.7828 18.8679 74.7457 19.6433 74.7029 20.5411C74.6893 20.8279 74.6751 21.1244 74.6751 21.4317V27.6915C74.6751 29.8056 73.436 31.1715 71.5183 31.1715Z" fill="black"/>
<path fill-rule="evenodd" clip-rule="evenodd" d="M78.4241 20.6054C78.4241 21.4812 77.7141 22.1912 76.8383 22.1912C75.9624 22.1912 75.2524 21.4812 75.2524 20.6054C75.2524 19.7295 75.9624 19.0195 76.8383 19.0195C77.7141 19.0195 78.4241 19.7295 78.4241 20.6054Z" fill="white"/>
<path fill-rule="evenodd" clip-rule="evenodd" d="M76.8385 19.2278C76.0789 19.2278 75.4609 19.8458 75.4609 20.6054C75.4609 21.3651 76.0789 21.9831 76.8385 21.9831C77.5982 21.9831 78.2161 21.3651 78.2161 20.6054C78.2161 19.8458 77.5982 19.2278 76.8385 19.2278ZM76.8385 22.3995C75.8493 22.3995 75.0444 21.5946 75.0444 20.6054C75.0444 19.6162 75.8493 18.8114 76.8385 18.8114C77.8277 18.8114 78.6326 19.6162 78.6326 20.6054C78.6326 21.5946 77.8277 22.3995 76.8385 22.3995Z" fill="black"/>
<path fill-rule="evenodd" clip-rule="evenodd" d="M72.726 25.5429C70.9075 25.5429 69.2666 24.4643 68.5455 22.7953L68.4777 22.6387C67.4824 20.3347 68.5469 17.6505 70.8509 16.655C71.426 16.4066 72.0326 16.2806 72.6541 16.2806C74.4724 16.2806 76.1133 17.3592 76.8345 19.0282L76.9021 19.1849C77.8976 21.4888 76.8329 24.1731 74.529 25.1685C73.954 25.4169 73.3474 25.5429 72.726 25.5429Z" fill="white"/>
<path fill-rule="evenodd" clip-rule="evenodd" d="M72.654 16.0724H72.6539C72.0039 16.0724 71.3694 16.2042 70.7682 16.4639C69.6011 16.9681 68.7001 17.8967 68.2315 19.0785C67.7627 20.2604 67.7822 21.554 68.2865 22.7212L68.3542 22.8778C69.1082 24.6233 70.8243 25.751 72.7259 25.751C73.3758 25.751 74.0102 25.6193 74.6115 25.3595C75.7787 24.8553 76.6796 23.9267 77.1483 22.7449C77.617 21.563 77.5975 20.2694 77.0932 19.1023L77.0255 18.9456C76.2715 17.2002 74.5555 16.0724 72.654 16.0724ZM72.6539 16.4888C74.3345 16.4888 75.9344 17.4699 76.6433 19.1108L76.7109 19.2674C77.6623 21.4695 76.6485 24.0259 74.4464 24.9773H74.4463C73.8851 25.2198 73.3007 25.3346 72.7259 25.3346C71.0453 25.3346 69.4453 24.3535 68.7365 22.7127L68.6688 22.5561C67.7174 20.3539 68.7313 17.7975 70.9334 16.8462C71.4946 16.6036 72.0791 16.4888 72.6539 16.4888Z" fill="black"/>
<path fill-rule="evenodd" clip-rule="evenodd" d="M68.4623 22.1912C67.5865 22.1912 66.8765 21.4812 66.8765 20.6054C66.8765 19.7295 67.5865 19.0195 68.4623 19.0195C68.5718 19.0195 68.6786 19.0307 68.7819 19.0518" fill="white"/>
<path fill-rule="evenodd" clip-rule="evenodd" d="M68.4625 22.3994C67.4733 22.3994 66.6685 21.5945 66.6685 20.6053C66.6685 19.6161 67.4733 18.8113 68.4625 18.8113C68.584 18.8113 68.7056 18.8236 68.8238 18.8477C68.9365 18.8708 69.0092 18.9808 68.9861 19.0935C68.963 19.206 68.8529 19.2786 68.7404 19.2557C68.6496 19.2372 68.5561 19.2277 68.4625 19.2277C67.7028 19.2277 67.0849 19.8457 67.0849 20.6053C67.0849 21.365 67.7028 21.983 68.4625 21.983C68.5774 21.983 68.6707 22.0762 68.6707 22.1912C68.6707 22.3061 68.5774 22.3994 68.4625 22.3994Z" fill="black"/>
<path fill-rule="evenodd" clip-rule="evenodd" d="M68.1822 17.6328H59.6885C59.4959 17.6328 59.3398 17.4768 59.3398 17.2842C59.3398 17.0917 59.4959 16.9355 59.6885 16.9355H68.1822C68.3747 16.9355 68.5309 17.0917 68.5309 17.2842C68.5309 17.4768 68.3747 17.6328 68.1822 17.6328Z" fill="black"/>
<path fill-rule="evenodd" clip-rule="evenodd" d="M77.8105 17.6328H66.0607C65.6156 17.6328 65.2549 17.2721 65.2549 16.827C65.2549 13.0969 68.2787 10.073 72.0089 10.073C75.658 10.073 78.6163 13.0312 78.6163 16.6803V16.827C78.6163 17.2721 78.2555 17.6328 77.8105 17.6328Z" fill="black"/>
<path d="M69.4384 19.4425C70.2434 19.4425 70.8959 18.79 70.8959 17.9851C70.8959 17.1801 70.2434 16.5276 69.4384 16.5276C68.6335 16.5276 67.981 17.1801 67.981 17.9851C67.981 18.79 68.6335 19.4425 69.4384 19.4425Z" fill="black"/>
<path fill-rule="evenodd" clip-rule="evenodd" d="M73.3048 22.3566H74.092C74.309 22.3566 74.4698 22.0411 74.4212 21.7101L74.0898 19.4469C74.0128 18.9217 73.5418 18.8924 73.4383 19.4062L72.9826 21.6694C72.9141 22.0099 73.0766 22.3566 73.3048 22.3566Z" fill="#2945FF"/>
<path fill-rule="evenodd" clip-rule="evenodd" d="M76.9398 18.7139C77.2588 18.7139 77.5188 18.9664 77.5308 19.2826L77.5312 19.3053V21.9206C77.5312 21.9664 77.5262 22.011 77.5166 22.0539L77.5059 22.1353C77.3712 23.1068 76.6005 27.0476 72.9638 27.0476C69.1475 27.0476 68.4874 22.8692 68.4062 22.2009C68.3998 22.1721 68.3965 22.1421 68.3965 22.1112V19.3053C68.3965 18.9786 68.6612 18.7139 68.9879 18.7139C69.3145 18.7139 69.5793 18.9786 69.5793 19.3053L69.5793 21.652C69.5793 22.1896 69.9488 22.9447 70.5284 23.6175C70.4464 22.9841 70.4575 22.2991 70.7603 21.8767C70.9582 21.6006 71.2582 21.4548 71.6275 21.4548C72.2692 21.4548 72.6539 21.6058 72.9547 21.7486L73.1704 21.8532C73.4865 22.0032 73.7158 22.0611 74.3468 21.7717L74.3852 21.754C75.1091 21.4148 75.5485 21.3636 75.8546 21.583C76.2505 21.8667 76.2091 22.4422 76.1217 23.2369C76.342 22.7352 76.3653 22.2935 76.3592 22.0719C76.3539 22.0449 76.3504 22.0172 76.349 21.989L76.3483 21.9606V19.3053C76.3483 18.9786 76.6132 18.7139 76.9398 18.7139ZM74.685 22.3034L74.6502 22.3196C73.7236 22.7539 73.3151 22.6202 72.7976 22.3666L72.7465 22.3417C72.4732 22.2088 72.1768 22.0794 71.6275 22.0794C71.4114 22.0794 71.3219 22.1655 71.268 22.2405C70.9924 22.6245 71.1148 23.5902 71.308 24.3611C71.6027 24.5898 71.9219 24.785 72.2547 24.9262L72.9479 24.2329C73.1597 24.0211 73.5034 24.0211 73.7152 24.2329L74.406 24.9236C74.8157 24.7189 75.1404 24.4877 75.3974 24.2469C75.414 23.9773 75.44 23.7196 75.4662 23.4802L75.5108 23.0739C75.5524 22.6749 75.5895 22.1878 75.4981 22.0969L75.4894 22.0898C75.4734 22.0813 75.3141 22.0137 74.685 22.3034Z" fill="black"/>
<path fill-rule="evenodd" clip-rule="evenodd" d="M73.4995 23.5426C72.9553 23.5426 72.4113 23.3355 71.997 22.9212C71.9157 22.8399 71.9157 22.7081 71.997 22.6268C72.0783 22.5455 72.2101 22.5455 72.2914 22.6268C72.9575 23.2928 74.0414 23.2928 74.7075 22.6268C74.7888 22.5455 74.9206 22.5455 75.0019 22.6268C75.0833 22.7081 75.0833 22.8399 75.0019 22.9212C74.5878 23.3354 74.0435 23.5426 73.4995 23.5426Z" fill="black"/>
<path fill-rule="evenodd" clip-rule="evenodd" d="M72.2622 19.8947C71.9943 19.9205 71.7561 19.7242 71.7303 19.4564C71.7045 19.1884 71.9007 18.9503 72.1686 18.9244C72.4366 18.8986 72.6746 19.0948 72.7005 19.3628C72.7264 19.6306 72.5301 19.8688 72.2622 19.8947Z" fill="black"/>
<path fill-rule="evenodd" clip-rule="evenodd" d="M74.9082 19.8947C74.6402 19.9205 74.4021 19.7242 74.3763 19.4564C74.3504 19.1884 74.5467 18.9503 74.8146 18.9244C75.0826 18.8986 75.3207 19.0948 75.3465 19.3628C75.3724 19.6306 75.1761 19.8688 74.9082 19.8947Z" fill="black"/>
<path fill-rule="evenodd" clip-rule="evenodd" d="M75.7048 17.5687C76.6785 17.5687 77.4707 18.3609 77.4707 19.3346C77.4707 20.3084 76.6785 21.1005 75.7048 21.1005C74.7311 21.1005 73.939 20.3084 73.939 19.3346C73.939 19.2756 73.9419 19.2174 73.9476 19.1599C73.8224 19.0699 73.7038 19.1037 73.6252 19.1491C73.6318 19.2101 73.6351 19.2719 73.6351 19.3346C73.6351 20.3084 72.8429 21.1005 71.8692 21.1005C70.8971 21.1005 70.1059 20.3109 70.1034 19.3392L68.9172 19.3392C68.8022 19.3392 68.709 19.246 68.709 19.131C68.709 19.0159 68.8022 18.9227 68.9172 18.9227L70.1519 18.9228C70.3379 18.147 71.0373 17.5687 71.8692 17.5687C72.633 17.5687 73.2851 18.0561 73.5307 18.7362C73.683 18.6785 73.8636 18.663 74.0428 18.7375C74.2881 18.0568 74.9405 17.5687 75.7048 17.5687ZM71.8692 17.9851C71.1252 17.9851 70.5198 18.5905 70.5198 19.3346C70.5198 20.0787 71.1252 20.6841 71.8692 20.6841C72.6134 20.6841 73.2186 20.0787 73.2186 19.3346C73.2186 18.5905 72.6134 17.9851 71.8692 17.9851ZM75.7048 17.9851C74.9608 17.9851 74.3554 18.5905 74.3554 19.3346C74.3554 20.0787 74.9608 20.6841 75.7048 20.6841C76.4489 20.6841 77.0542 20.0787 77.0542 19.3346C77.0542 18.5905 76.4489 17.9851 75.7048 17.9851Z" fill="#2945FF"/>
</svg>
