<svg width="161" height="193" viewBox="0 0 161 193" fill="none" xmlns="http://www.w3.org/2000/svg">
<path fill-rule="evenodd" clip-rule="evenodd" d="M15.0659 84.2353C15.3254 83.9689 15.775 83.7801 15.3461 83.5207C14.9086 83.6942 14.6786 83.7748 15.0659 84.2353ZM45.3343 119.905C45.4389 117.282 42.3638 112.005 39.2326 113.467C37.9357 114.439 37.6999 111.637 36.2521 112.63C31.7234 113.357 31.1943 118.17 32.4902 121.846C34.5102 129.508 45.7607 127.106 45.3343 119.905ZM6.01031 104.26C7.27808 115.384 16.8778 118.077 20.0582 106.327C22.1749 95.7787 6.19362 91.4967 6.01031 104.26ZM30.1777 153.629C30.7152 163.58 45.4795 158.82 45.0006 150.705C44.9093 146.087 40.6888 141.478 35.8694 142.194C30.7476 142.939 31.2273 149.521 30.1777 153.629ZM15.374 131.447C15.4061 131.466 15.4382 131.484 15.4704 131.503C11.882 125.384 26.8373 132.334 17.3171 135.093C15.121 135.512 14.1222 130.73 13.0447 132.299C12.958 139.053 21.487 138.69 23.1026 133.103C22.9486 122.275 7.19526 128.493 15.374 131.447ZM63.2333 128.821C64.2885 124.038 56.026 122.704 58.0172 125.562C60.5766 125.738 62.4205 129.421 58.7482 129.032C57.1388 128.929 58.1711 124.76 56.1267 127.148C54.9429 128.924 56.1241 131.3 58.3634 131.694C61.1714 131.77 62.8464 129.655 65.6966 131.144C66.468 131.093 65.6425 130.344 66.449 130.116C69.2243 127.477 64.6809 129.912 63.2333 128.821ZM18.9649 79.977C24.7923 76.9889 17.2117 85.6036 25.4962 89.3552C40.9313 89.0507 35.3981 67.6598 24.2957 77.0376C23.252 77.0971 22.7096 77.8899 22.0487 78.5134C19.8837 77.0046 18.097 81.1712 18.9649 79.977ZM17.6366 81.2656C15.0035 82.6141 16.7709 83.8799 17.8155 81.1257C17.7559 81.1723 17.6962 81.219 17.6366 81.2656ZM36.3289 177.431C27.6966 171.748 24.3401 160.766 18.2341 152.703C11.4729 141.926 5.56465 130.968 2.96234 118.453C-2.2395 96.728 -1.56306 97.2346 12.9323 80.6641C19.2697 70.5797 27.5596 65.4359 39.2762 70.498C43.8918 71.2704 45.7392 75.3793 48.0011 78.9021C49.1597 82.3318 52.7897 85.189 53.0498 88.396C56.7982 89.935 52.4679 90.8447 51.6429 92.7122C49.7571 96.1478 50.2023 102.248 54.8781 102.89C58.6617 103.849 61.3902 101.169 64.4765 99.493C66.9531 102.129 69.1939 104.915 72.6232 106.367C74.4042 107.643 81.4611 108.89 77.8635 111.458C75.9617 114.628 74.2229 118.659 74.5402 122.516C73.1983 125.066 75.056 127.642 75.5756 129.815C75.8874 134.245 89.1011 141.15 82.241 142.087C80.4819 142.979 75.0853 148.001 73.9199 146.135C74.0245 140.808 67.4888 137.456 64.3984 142.578C61.6601 145.715 65.1003 150.781 62.188 153.136C60.8475 153.751 58.8987 153.288 58.5197 155.049C57.4102 156.337 55.5855 157.34 55.5676 158.89C50.9659 163.01 58.6748 170.772 60.9791 174.803C61.1811 175.633 59.9909 176.376 61.2022 176.677C63.3608 179.648 64.9318 182.787 67.7384 185.199C63.5994 187.85 53.9948 186.699 48.4378 184.181C48.0255 181.512 48.69 179.007 46.523 176.964C42.9168 171.425 39.4207 179.709 36.3289 177.431Z" fill="#1F79E3"/>
<path fill-rule="evenodd" clip-rule="evenodd" d="M98.57 121.269C98.7691 122.445 101.411 119.106 100.711 118.42C99.0597 118.197 98.8015 119.934 98.57 121.269ZM134.387 143.125C134.71 141.699 134.014 139.239 133.492 137.605C132.784 138.865 134.347 148.169 134.387 143.125ZM94.9135 126.812C93.3025 126.049 89.2323 126.134 91.8106 128.431C92.9201 130.614 94.041 127.953 94.9135 126.812ZM131.951 121.255C131.231 121.735 128.225 127.015 130.218 127.181C134.157 128.204 131.775 123.618 131.951 121.255ZM132.27 106.249C132.517 109.636 136.021 105.143 137.991 106.181C141.096 103.802 135.129 103.314 133.469 102.462C131.806 102.03 132.674 105.232 132.27 106.249ZM90.7714 125.536C94.599 124.969 97.2228 126.1 97.4918 121.19C98.5456 117.207 89.6668 121.733 87.3854 121.197C84.928 121.432 89.3988 126.198 90.7714 125.536ZM132.718 89.9061C133.347 87.6362 118.804 98.9177 123.406 98.4231C135.188 102.599 130.71 99.583 132.718 89.9061ZM99.478 116.878C103.249 120.107 114.375 101.958 118.735 99.3619C119.66 97.2063 109.806 97.0798 107.868 96.1073C104.399 95.6352 100.969 113.241 99.478 116.878ZM133.155 136.833C136.443 132.439 133.561 145.195 137.087 143.779C139.882 142.552 158.034 136.866 155.045 134.652C148.384 132.395 141.619 130.262 134.677 129.086C132.517 128.506 135.551 136.367 133.336 133.792C133.259 130.659 132.921 127.501 128.923 128.399C131.867 130.249 132.898 133.292 133.155 136.833ZM131.369 105.116C131.369 104.093 131.997 101.906 130.463 101.546C127.152 101.011 123.614 98.895 120.337 99.3252C118.175 101.37 103.283 115.684 105.845 116.253C113.518 114.281 121.066 111.907 128.526 109.247C131.403 108.37 131.319 107.974 131.369 105.116ZM96.2711 126.857C94.9815 128.612 92.3681 130.794 95.4058 132.295C96.4461 130.717 95.7643 128.457 96.338 126.715C96.3157 126.762 96.2934 126.809 96.2711 126.857ZM77.9256 111.449C81.1963 110.46 82.3496 120.897 86.7673 120.661C103.918 118.458 97.0304 114.635 103.109 101.402C103.256 99.7949 106.045 96.4894 104.076 95.6817C100.727 95.3769 97.3812 95.0557 94.0343 94.7408C93.8497 93.245 95.4587 93.4055 96.3717 93.709C99.4055 93.3012 104.846 96.3455 106.336 92.9402C108.469 88.3962 109.92 83.2422 113.673 79.675C113.246 82.9567 105.111 93.36 108.005 95.0805C117.151 96.7847 120.482 99.922 127.364 91.7944C130.2 89.4721 133.83 88.1064 133.872 83.9202C134.097 80.1629 138.513 74.9327 134.265 72.5623C135.855 71.5905 136.693 74.3216 138.296 74.4415C138.513 74.4697 138.66 75.046 138.84 75.3696C135.385 75.0118 136.013 83.0185 134.594 85.5089C134.276 86.8983 135.671 85.7896 136.468 85.8172C136.177 86.2506 136.048 86.891 135.497 87.0678C132.21 89.9443 133.863 96.0741 132.665 100.131C132.235 101.424 140.157 104.212 140.613 102.526C142.464 100.702 148.998 86.8883 148.974 94.0683C147.216 92.0103 142.304 101.816 141.538 103.445C144.553 101.831 150.578 99.6811 149.376 95.3933C154.9 99.3833 141.255 103.829 143.474 104.695C146.49 106.546 151.904 106.508 152.893 109.82C148.994 108.578 143.091 103.392 139.484 106.402C135.853 112.412 131.322 118.478 133.483 125.758C133.729 127.75 133.745 127.807 135.795 128.189C143.191 129.498 150.323 131.791 157.411 134.221C159.404 134.937 158.067 132.222 158.331 131.253C157.972 128.21 156.719 125.297 155.732 122.407C155.959 120.608 157.615 122.92 157.079 123.9C158.177 127.688 159.447 131.819 159.125 136.017C151.703 138.044 144.62 143.256 136.755 145.125C135.146 147.844 137.693 152.803 137.715 156.193C138.2 158.781 138.299 158.763 140.455 159.231C133.983 163.525 137.779 143.364 133.677 146.758C132.416 155.017 134.975 163.553 132.52 171.664C132.967 174.337 130.849 176.151 130.099 178.384C127.957 178.497 128.326 181.033 126.832 181.762C125.519 184.556 122.356 185.307 119.86 186.636C120.853 176.289 125.249 162.94 126.089 151.325C126.158 146.391 130.66 130.289 127.072 127.763C124.558 129.134 126.95 134.56 125.81 137.229C125.675 139.623 124.284 141.729 124.918 144.194C125.188 146.742 123.042 148.705 123.923 151.38C123.18 153.592 121.689 155.514 122.944 157.656C121.9 159.935 121.818 162.889 120.282 164.881C116.207 170.793 116.31 180.938 114.062 188.293C109.96 191.006 108.274 172.93 106.971 169.375C105.886 164.301 104.917 159.667 107.544 154.897C107.682 151.458 118.371 129.651 113.066 131.311C111.708 132.283 113.105 134.7 111.355 134.727C111.258 135.957 111.886 136.085 110.793 137.395C110.384 138.829 111.375 140.353 110.095 141.478C109.078 142.544 109.426 143.798 108.85 145.034C108.395 145.884 107.436 146.79 107.542 147.554C104.515 159.726 103.828 149.321 103.64 143.799C103.868 139.974 102.184 135.3 103.69 131.857C107.032 130.836 110.078 128.54 113.513 128.211C114.846 127.897 114.028 129.148 114.676 129.969C114.851 129.271 115.964 130.194 116.024 129.151C117.875 125.598 115.054 127.585 113.221 126.1C117.611 123.945 124.407 128.398 128.379 126.024C129.468 122.768 131.991 119.859 131.66 116.274C131.159 115.211 130.608 108.5 132.303 112.047C132.335 119.954 135.728 110.394 137.536 107.681C138.162 106.03 132.607 108.882 132.279 109.73C131.918 110.527 131.72 110.892 131.255 109.786C128.019 109.46 124.804 112.803 121.182 112.524C120.419 113.035 119.484 113.472 118.568 113.712C113.394 115.203 107.846 116.017 103.028 118.24C102.337 119.837 96.5033 124.178 99.0093 125.102C102.962 125.511 109.252 123.935 112.248 126.19C110.094 126.933 107.534 126.097 105.237 126.264C102.768 126.478 99.698 125.632 97.4923 126.593C97.7994 128.501 95.2456 134.273 98.1367 134.06C100.089 132.658 101.539 134.124 101.318 136.207C101.741 139.272 100.482 142.949 101.031 145.666C101.962 146.345 102.149 147.274 102.035 148.394C101.322 151.783 103.021 155.198 102.13 158.587C102.253 159.298 103.011 160.026 101.727 160.411C101.932 162.964 99.6814 162.375 101.274 165.278C101.279 165.362 101.091 165.458 100.992 165.549C100.369 164.245 99.387 168.242 99.319 168.869C99.1008 171.076 97.2721 175.237 95.5495 175.807C95.0244 175.53 94.7795 175.845 95.1283 176.291C95.5459 176.768 96.0354 177.217 94.8922 177.321C95.0334 178.298 94.7933 179.307 94.7266 180.29C94.7024 180.487 94.4479 180.837 94.4036 180.821C93.1523 180.168 93.255 182.706 92.6043 181.968C91.1284 179.798 89.4869 188.15 88.589 189.402C88.7291 192.445 86.5016 191.813 84.0911 191.975C83.8499 188.123 83.604 184.271 83.3696 180.418C83.0397 169.881 81.4257 159.022 88.826 150.441C90.9783 145.751 95.2348 141.583 96.0393 136.495C93.5769 128.228 90.9072 133.634 88.2867 138.22C89.2012 137.445 96.6127 134.978 93.205 138.015C91.1086 138.389 91.8469 140.305 91.401 141.729C89.4874 145.035 87.6056 148.23 85.2953 151.275C82.4594 152.645 83.6247 148.224 83.4233 146.605C82.9021 140.533 88.445 136.844 91.2821 131.828C93.4011 121.775 72.6348 131.447 75.0984 127.613C77.0239 126.727 88.6083 126.902 87.1778 124.714C84.5445 119.434 78.7275 123.995 74.3245 122.922C87.5096 120.011 84.4299 122.805 77.9256 111.449Z" fill="#CCCCCC"/>
<path fill-rule="evenodd" clip-rule="evenodd" d="M62.1158 48.1374C62.1735 48.0619 62.1778 48.0501 62.0773 48.0478L62.1158 48.1374ZM51.7279 71.6786C51.9535 71.6233 52.0302 71.5406 51.9375 71.3098C51.7114 71.3977 51.5294 71.4345 51.7279 71.6786ZM50.716 73.6478C51.2981 75.2477 51.6055 75.3862 52.7398 74.0731C51.917 73.6097 51.1611 72.123 50.716 73.6478ZM80.6371 60.2864C75.0257 59.3378 78.4549 66.1877 79.7312 68.8886C87.6364 78.4862 96.0503 60.9333 80.6371 60.2864ZM68.8103 30.3116C69.4375 31.0284 69.3683 33.1772 70.8264 32.1523C71.4141 32.2478 71.9396 33.3468 72.5526 32.4506C73.5868 30.7572 76.3848 33.9831 76.7691 31.8379C76.7632 31.6531 77.1992 31.4548 77.4315 31.2628C77.806 31.622 77.2611 32.5506 78.2368 32.5449C80.2464 32.9893 81.3943 31.1204 81.8807 29.3627C88.3374 26.0101 65.2282 28.29 63.4657 27.8819C64.2234 29.342 64.9303 31.1381 66.8705 31.039C67.3126 30.4078 67.8206 29.931 68.8103 30.3116ZM113.671 79.6561C109.792 81.2405 115.353 74.352 116.059 72.7272C125.196 56.8063 108.986 61.2568 102.201 69.2597C96.5948 74.1458 92.9958 81.7349 90.7279 87.8741C90.3102 90.589 90.901 97.8631 88.4236 98.9893C87.7924 92.4041 88.9887 85.9742 91.8735 80.0706C93.2862 75.0123 99.3541 72.0711 99.4002 66.7994C99.2246 56.9895 99.1617 47.1799 99.5394 37.3748C99.5648 36.2854 99.4354 36.188 98.5012 36.7115C93.3544 39.5833 88.1429 42.5731 84.9324 47.655C83.5851 46.7911 83.483 48.2798 82.915 48.7848C81.6215 50.4888 75.9195 57.2066 78.8053 58.2228C83.8572 57.2643 90.9178 59.6515 91.944 65.1692C93.8914 74.2271 80.0391 78.2068 77.1336 69.2461C75.8393 67.8523 76.3089 60.6526 73.9336 62.4002C69.1028 65.6706 68.3518 72.0873 70.4671 77.1068C69.6342 78.0095 71.2549 77.7501 71.4523 78.3982C71.7647 80.3061 79.0813 84.1621 74.6324 83.9044C66.0525 80.9324 69.263 69.3564 65.1836 73.4283C65.213 71.5787 62.1341 73.5023 62.8389 71.2271C61.4283 72.0053 60.8315 71.6588 60.6896 70.023C61.2218 68.9708 63.7245 70.9112 63.5748 71.8406C64.8909 68.6668 67.4288 72.9884 67.436 68.4484C68.584 64.1037 71.5793 61.1731 75.2184 58.8366C76.1583 53.3816 79.1465 48.8563 83.2173 44.818C83.9179 44.0501 86.0643 43.2518 85.3752 41.9887C85.9787 41.7237 86.6871 41.5538 87.2437 41.2338C88.5074 40.0796 86.8869 40.762 87.0822 39.332C87.8878 39.5342 88.1745 40.6186 89.0242 39.8488C91.9726 36.9351 96.6702 35.8712 99.2567 32.9225C99.6338 27.0348 93.8181 26.7511 89.4647 27.6331C86.1817 27.2329 84.7161 31.27 83.0838 33.4756C81.8249 37.3631 77.9428 35.2651 75.6755 35.6041C74.802 34.6809 74.6489 35.2973 73.6681 35.4586C73.0928 35.3173 72.4351 34.7576 72.0845 35.7681C71.0394 35.7192 69.8315 35.7717 68.1372 35.5412C67.588 35.6282 66.7701 35.3307 66.908 36.4016C66.0455 36.9799 64.1139 38.3628 64.4428 36.2302C64.5033 36.0254 64.4784 35.6208 64.3695 35.5694C61.3643 35.7241 63.0248 31.0605 60.938 31.8783C59.7492 31.8981 61.1325 27.5758 59.9243 30.4483C58.6202 29.9163 59.823 27.6796 58.6583 27.7428C56.6793 28.723 59.2283 30.7284 58.4827 32.178C56.5684 28.5498 57.2825 31.0957 54.6136 30.5465C54.7327 29.8115 53.3091 28.9096 53.0356 28.9554C52.2378 29.4311 53.4741 29.6673 53.3644 30.1728C53.7314 32.7581 52.4136 29.5568 51.587 30.8973C51.5298 30.9696 51.265 30.9944 51.2142 30.9369C50.0877 29.65 50.3552 32.7457 50.6324 33.0135C51.7076 33.747 50.4313 34.6984 51.4211 35.3561C52.1416 35.619 52.6218 34.3648 53.0582 34.2242C54.1962 34.1682 53.4155 33.5358 53.4539 33.159C53.5681 32.2628 54.3888 32.7243 54.6152 33.3127C54.6614 32.59 55.5321 33.4741 55.6374 33.1135C53.4443 32.4021 57.6146 31.0161 56.1875 33.3852C58.5951 31.1926 58.8572 34.4381 57.0369 35.9912C57.5335 37.5709 55.7346 38.0302 55.7518 36.2307C56.7959 36.362 55.6968 35.7681 56.1297 35.2273C56.8826 34.7197 56.5103 34.299 55.8954 34.9641C53.5932 34.3515 55.4318 34.933 53.31 36.3076C54.1195 36.948 54.9979 36.0953 55.2302 37.3818C56.1153 38.6558 58.2748 37.9441 59.8359 38.4404C60.7356 38.4494 60.9466 37.9614 60.9162 37.2088C61.6852 37.7169 62.0674 36.9374 62.6118 36.6984C63.3785 37.6845 62.9795 38.1533 62.2542 39.0046C59.8479 38.6908 59.4189 41.9339 61.3128 42.3366C60.9323 44.1379 60.9331 44.1348 62.9898 44.7871C63.123 45.7162 61.7462 46.7867 62.7547 47.5908C63.298 48.6212 61.9857 49.5883 61.2786 48.5173C61.4355 47.7605 61.1693 45.862 60.3873 47.1721C59.6883 45.2636 60.6917 46.0354 60.5928 44.9593C59.985 44.6938 59.0923 45.4138 59.8125 44.3651C61.3863 42.9869 59.2839 42.2706 58.1279 41.7858C58.4291 42.7137 57.5091 43.7023 56.9252 44.3957C57.6187 43.6746 56.7835 40.928 56.0708 42.5445C55.5903 43.105 54.5447 42.4427 54.081 42.0958C54.1074 41.1894 55.4297 40.4332 54.1069 39.6204C54.5535 38.2281 52.4322 37.8046 51.5456 36.9392C50.4349 35.093 49.9683 43.0747 51.1528 42.7845C51.0469 44.2577 49.8039 45.2659 50.9367 46.707C51.0465 48.432 51.524 50.7451 50.6626 52.2765C51.3092 52.8636 50.8775 53.474 50.8508 54.0872C50.4292 55.5228 51.9075 56.4532 51.3873 57.7639C50.6474 58.2323 51.5412 58.3869 51.5677 58.7081C51.5944 60.0062 51.1219 61.2324 50.9076 62.5004C51.8275 63.6832 52.3635 62.0333 52.3936 61.3401C53.9987 61.4881 52.7732 65.141 51.8984 64.2846C51.3256 63.5707 51.0494 63.9402 51.2014 64.6361C52.6644 65.2998 51.6093 65.7542 51.0198 66.6403C51.1112 67.793 52.0996 69.5187 51.1453 70.3972C52.629 69.6845 53.7782 70.9454 52.5093 72.2618C53.0811 72.3098 53.3028 73.4425 54.1041 72.7771C55.6613 73.0626 53.8322 74.9295 55.6666 75.1854C56.0038 76.149 54.9158 76.3774 54.2658 76.363C53.3131 76.6342 53.9847 77.4309 53.7579 77.937C52.1405 80.9886 51.4039 79.7953 52.8267 77.1369C50.7228 73.8269 51.2061 82.5995 51.2839 83.973C46.2025 79.2816 48.4867 72.3335 47.9253 66.0816C47.8368 58.0355 47.6536 49.9792 47.5603 41.9051C47.0204 27.5951 46.5219 23.2078 62.7197 24.752C73.0496 24.9359 83.9125 24.5514 94.4863 24.2154C100.325 23.7277 100.741 29.5025 103.396 31.6187C106.974 30.988 113.031 26.4205 115.873 29.076C114.354 32.518 107.279 32.1854 104.061 34.3127C102.749 34.5452 102.537 35.3527 102.565 36.5265C102.817 46.341 102.817 56.2717 102.975 66.0139C121.914 50.494 127.176 67.1487 113.671 79.6561Z" fill="#0C46D0"/>
<path fill-rule="evenodd" clip-rule="evenodd" d="M100.683 167.063C100.465 166.916 100.393 166.974 100.334 167.209C100.553 167.359 100.626 167.304 100.683 167.063ZM88.2005 191.774C88.1622 190.69 91.2891 179.418 92.5668 181.995C92.8614 182.561 92.8575 182.002 92.9898 181.862C94.4921 179.555 94.9803 182.046 94.8545 177.35C96.8465 177.391 93.6648 175.415 95.511 175.834C97.1852 175.373 99.1084 170.985 99.2813 168.899C99.2969 168.457 100.387 164.103 100.952 165.578C101.052 165.488 101.24 165.392 101.234 165.307C99.6369 162.338 101.891 163.047 101.688 160.441C102.972 160.056 102.214 159.327 102.091 158.617C102.982 155.226 101.283 151.815 101.996 148.425C101.663 144.188 100.024 147.346 101.163 141.104C101.101 138.656 102.56 131.596 98.0995 134.091C95.1834 134.283 97.7861 128.56 97.4533 126.626C101.963 125.257 107.592 127.234 112.206 126.224C109.598 123.957 104.273 125.716 100.752 125.025C94.4947 126.562 102.405 118.668 104.11 117.701C113.066 115.315 122.568 112.119 131.209 109.818C131.675 110.926 131.872 110.561 132.232 109.764C133.436 108.228 135.827 107.632 137.644 107.124C136.745 108.641 133.54 116.947 132.551 114.999C132.606 113.81 131.769 108.651 131.006 112.308C132.567 117.362 130.521 121.599 128.333 126.056C124.56 128.016 118.561 124.993 114.051 125.601C111.174 127.272 117.518 126.038 116.583 127.672C115.383 129.851 116.759 129.165 114.634 130.001C114.006 125.573 109.013 130.445 106.319 130.793C105.159 131.366 103.128 131.459 103.047 133.082C103.628 139.751 103.1 146.818 104.749 153.272C104.831 153.365 105.566 153.545 105.579 153.12C105.911 151.186 107.817 149.851 107.502 147.585C107.365 146.549 109.092 145.296 109.168 144.141C108.678 141.976 111.684 140.948 110.632 138.714C110.304 136.833 111.836 137.132 111.312 134.759C113.082 134.701 111.646 132.338 113.024 131.344C117.716 129.872 110.634 144.04 110.197 146.582C108.773 150.791 107.565 155.071 105.971 159.221C103.061 162.769 115.084 193.175 110.227 188.593C107.06 181.992 105.621 174.873 104.354 167.715C101.493 162.577 96.4003 197.717 88.2005 191.774Z" fill="#20ACF3"/>
<path fill-rule="evenodd" clip-rule="evenodd" d="M155.967 121.477C154.959 123.292 161.024 134.231 157.334 134.076C150.231 131.65 143.085 129.362 135.673 128.055C133.619 127.675 133.603 127.617 133.356 125.63C133.274 123.174 132.299 120.524 132.887 118.149C135.883 114.444 136.91 104.998 142.523 105.38C157.1 110.019 151.016 109.989 155.967 121.477Z" fill="#20ACF3"/>
<path fill-rule="evenodd" clip-rule="evenodd" d="M113.619 79.5781C114.048 78.9083 113.81 77.3477 115.422 78.2178C119.418 74.073 125.734 72.0962 131.495 72.2073C140.152 71.7863 133.365 81.5242 133.269 86.2557C131.278 90.0757 126.138 91.7471 123.395 95.2638C119.39 99.7212 113.007 95.26 107.966 95.0105C105.058 93.2923 113.193 82.9027 113.619 79.5781Z" fill="#20ACF3"/>
<mask id="mask0_1279_44491" style="mask-type:alpha" maskUnits="userSpaceOnUse" x="136" y="135" width="25" height="25">
<path d="M136.033 135.926H160.022V159.252H136.033V135.926Z" fill="#CCCCCC"/>
</mask>
<g mask="url(#mask0_1279_44491)">
<path fill-rule="evenodd" clip-rule="evenodd" d="M147.023 146.101C147.848 145.023 147.981 144.759 147.008 143.996C145.97 144.763 146.118 145.004 147.023 146.101ZM140.382 159.166C135.735 158.336 137.484 149.81 136.033 146.087C138.294 143.126 144.367 143.05 147.804 140.886C151.648 139.753 155.1 135.975 159.05 135.926C163.273 148.293 153.133 160.388 140.382 159.166Z" fill="#20ACF3"/>
</g>
<path fill-rule="evenodd" clip-rule="evenodd" d="M129.803 14.4485C128.841 13.6177 128.644 13.9181 127.927 14.5895C128.659 15.2272 128.94 15.0008 129.803 14.4485ZM145.405 16.6233C146.306 16.4962 146.404 15.7986 146.609 15.177C140.945 18.3446 133.04 21.8033 126.602 25.3098C124.698 26.5681 128.655 30.3313 129.03 32.2454C129.339 32.8272 129.723 32.7641 130.167 32.3029C135.221 27.0521 140.314 21.8384 145.405 16.6233ZM143.76 14.0121C154.251 10.9178 124.28 16.9625 121.779 16.3982C120.067 17.0997 124.049 20.7627 124.233 22.3342C124.695 23.3115 124.973 23.0959 125.732 22.7193C131.685 19.7011 137.919 17.0025 143.76 14.0121ZM121.801 13.8425C129.51 13.6394 134.43 11.6158 140.749 10.9712C163.627 5.21386 148.823 16.0268 140.7 24.4965C137.153 26.9955 131.43 37.7035 126.982 35.1076C125.821 34.5894 125.43 31.8561 123.996 32.6167C116.177 39.1035 119.785 29.888 121.217 25.3077C122.115 21.4649 114.635 14.733 121.801 13.8425Z" fill="#0C46D0"/>
<path fill-rule="evenodd" clip-rule="evenodd" d="M82.9179 152.598C82.9555 152.539 82.9876 152.513 82.8935 152.511L82.9179 152.598ZM94.3427 136.082C94.2969 136.147 94.2767 136.167 94.3727 136.169L94.3427 136.082ZM83.7358 141.553C81.2142 159.322 87.8304 149.324 91.4748 140.461C91.2838 139.123 91.8583 138.346 93.0979 137.979C94.6797 137.562 93.7218 135.556 92.3987 136.568C91.0685 137.03 89.6123 137.68 88.2881 137.926C89.7588 136.312 91.1364 131.58 93.3634 132.035C100.981 137.401 86.3303 151.831 83.8247 158.723C81.2142 161.876 85.5071 196.709 82.9064 190.625C81.0941 181.946 81.4878 173.21 80.4561 164.423C76.813 171.498 71.2832 177.998 67.7559 185.149C62.0889 180.554 65.1812 180.144 68.2231 175.113C69.3521 174.187 71.4451 168.505 72.7001 169.908C72.7206 169.951 73.1956 169.814 73.4165 169.687C72.2048 166.276 74.9676 170.397 76.6247 164.581C77.2616 163.08 75.2043 163.173 77.62 162.162C77.8074 162.037 77.9196 161.798 78.0665 161.611C77.2405 160.676 79.3127 159.219 79.416 158.011C79.1686 155.552 81.3727 144.43 78.4876 144.711C80.2092 143.604 81.644 141.9 83.7358 141.553Z" fill="#20ACF3"/>
<path fill-rule="evenodd" clip-rule="evenodd" d="M137.538 85.4688C139.896 84.6808 139.654 83.1037 137.401 84.8369C137.215 85.0639 137.156 85.2952 137.538 85.4688ZM148.011 91.3139C145.533 94.992 143.034 98.6568 140.594 102.36C138.834 104.22 135.659 101.29 133.428 101.17C131.461 98.3027 134.128 92.9921 133.886 89.3457C133.771 87.3977 135.836 87.218 136.451 85.6817C132.207 87.168 136.964 78.8457 136.914 76.2714C137.951 73.3759 139.012 76.5426 140.349 77.0059C140.627 77.5719 140.617 78.4136 141.634 78.022C144.316 82.3293 146.965 86.3007 148.011 91.3139Z" fill="#20ACF3"/>
<path fill-rule="evenodd" clip-rule="evenodd" d="M67.7852 185.052C71.3077 177.92 76.8309 171.438 80.4697 164.382C81.9661 173.369 80.2944 183.812 83.7346 191.975C78.1447 191.711 71.3559 189.313 67.7852 185.052Z" fill="#CCCCCC"/>
<path fill-rule="evenodd" clip-rule="evenodd" d="M92.8259 191.879C96.4177 184.191 99.8004 176.407 102.494 168.353C104.92 163.13 105.317 175.726 106.242 177.592C106.49 181.506 110.596 187.14 110.181 189.809C104.444 191.059 98.8313 192.339 92.8259 191.879Z" fill="#CCCCCC"/>
<path fill-rule="evenodd" clip-rule="evenodd" d="M114.039 188.297C116.29 180.942 116.19 170.772 120.274 164.857C121.816 162.866 121.9 159.901 122.945 157.625C121.688 155.475 123.181 153.562 123.927 151.341C123.043 148.667 125.198 146.695 124.927 144.148C124.29 141.68 125.686 139.572 125.821 137.175C126.964 134.493 124.565 129.078 127.084 127.698C131.028 131.417 124.821 154.582 124.652 161.452C122.128 168.282 123.148 188.806 114.039 188.297Z" fill="#20ACF3"/>
<path fill-rule="evenodd" clip-rule="evenodd" d="M38.3979 48.3199C37.0372 45.6457 34.4085 48.5307 35.3606 50.4833C36.2586 53.1224 38.3646 49.8155 38.3979 48.3199ZM41.6239 48.5227C41.8828 56.9574 30.2171 57.2802 32.1059 48.5097C32.4406 41.9491 41.3267 42.5245 41.6239 48.5227Z" fill="#0C46D0"/>
<path fill-rule="evenodd" clip-rule="evenodd" d="M128.172 55.2069C127.873 58.7925 133.17 54.8144 131.016 53.2483C129.007 51.7672 128.26 52.7997 128.172 55.2069ZM129.236 59.9127C122.239 59.8731 125.295 47.9628 131.208 50.1279C137.423 51.6784 134.142 59.975 129.236 59.9127Z" fill="#0C46D0"/>
<mask id="mask1_1279_44491" style="mask-type:alpha" maskUnits="userSpaceOnUse" x="77" y="-1" width="12" height="12">
<path d="M77.1255 -0.00012207H88.4589V10.632H77.1255V-0.00012207Z" fill="#CCCCCC"/>
</mask>
<g mask="url(#mask1_1279_44491)">
<path fill-rule="evenodd" clip-rule="evenodd" d="M81.7626 7.20061C79.0177 8.74267 74.4239 6.78306 79.2012 5.19351C81.8687 4.6279 80.0961 2.94403 80.4265 1.10208C81.2734 -1.33819 83.2036 0.808094 83.4709 2.4052C83.9158 3.85769 85.3908 2.52072 86.3231 2.40635C88.8257 1.7681 89.2734 4.81868 86.8931 5.48503C83.6421 6.19345 87.0437 8.83995 85.0933 10.4152C83.106 11.5124 82.7315 8.13465 81.7626 7.20061Z" fill="#0C46D0"/>
</g>
<path fill-rule="evenodd" clip-rule="evenodd" d="M152.158 107.75C151.363 107.988 141.77 104.391 143.215 103.877C151.234 98.7435 150.86 96.8758 152.158 107.75Z" fill="#20ACF3"/>
<path fill-rule="evenodd" clip-rule="evenodd" d="M37.3218 178.111C40.3726 176.925 43.7124 172.662 46.5704 176.915C48.7382 178.968 48.076 181.478 48.4864 184.159C47.3879 183.474 46.2889 182.79 45.1901 182.105C46.7278 177.044 39.9511 176.405 41.0955 180.29C39.8375 179.564 38.5796 178.838 37.3218 178.111Z" fill="#CCCCCC"/>
<path fill-rule="evenodd" clip-rule="evenodd" d="M133.924 158.698C133.729 154.638 131.6 149.067 134.643 145.881C136.383 149.879 136.209 154.699 137.165 158.995C135.677 159.525 135.749 158.146 133.924 158.698Z" fill="#20ACF3"/>
<path fill-rule="evenodd" clip-rule="evenodd" d="M149.289 95.2778C150.496 99.5362 144.472 101.702 141.472 103.296C142.325 101.573 148.236 89.5045 149.289 95.2778Z" fill="#20ACF3"/>
<path fill-rule="evenodd" clip-rule="evenodd" d="M41.1624 180.234C40.6127 179.081 40.6811 178.874 41.8616 178.121C46.108 175.866 47.4241 185.736 41.1624 180.234Z" fill="#1F79E3"/>
<path fill-rule="evenodd" clip-rule="evenodd" d="M154.194 115.896C153.627 114.575 153.219 113.217 153.281 111.749C154.386 112.943 154.614 114.343 154.194 115.896Z" fill="#CCCCCC"/>
<path fill-rule="evenodd" clip-rule="evenodd" d="M153.242 11.7456C152.847 11.0482 152.722 10.3019 152.837 9.5127C153.975 10.481 153.983 10.5281 153.242 11.7456Z" fill="#20ACF3"/>
<path fill-rule="evenodd" clip-rule="evenodd" d="M140.329 76.979C139.682 76.6631 138.883 76.4864 138.921 75.5436C139.512 75.9118 140.534 75.8845 140.329 76.979Z" fill="#CCCCCC"/>
<path fill-rule="evenodd" clip-rule="evenodd" d="M124.406 13.7135C123.768 13.7487 123.13 13.784 122.492 13.8191C123.104 13.4668 123.737 13.3705 124.406 13.7135Z" fill="#CCCCCC"/>
<path fill-rule="evenodd" clip-rule="evenodd" d="M141.623 78.1535C140.641 78.5377 140.567 77.7493 140.355 77.1384C141.025 77.158 141.717 77.147 141.623 78.1535Z" fill="#CCCCCC"/>
<path fill-rule="evenodd" clip-rule="evenodd" d="M154.654 118.288C154.04 117.965 154.223 117.489 154.41 117.012C154.99 117.342 154.961 117.788 154.654 118.288Z" fill="#CCCCCC"/>
<path fill-rule="evenodd" clip-rule="evenodd" d="M137.644 11.4341C137.218 11.4824 136.793 11.5307 136.368 11.5787C136.793 11.5304 137.219 11.4822 137.644 11.4341Z" fill="#20ACF3"/>
<path fill-rule="evenodd" clip-rule="evenodd" d="M132.7 72.1515C132.327 72.1658 131.955 72.18 131.583 72.1942C131.924 71.5115 132.302 71.6159 132.7 72.1515Z" fill="#CCCCCC"/>
<path fill-rule="evenodd" clip-rule="evenodd" d="M147.214 9.84131C146.894 9.8882 146.575 9.93509 146.257 9.98166C146.576 9.93477 146.895 9.88804 147.214 9.84131Z" fill="#20ACF3"/>
<path fill-rule="evenodd" clip-rule="evenodd" d="M127.596 13.181C127.308 13.3639 127.161 13.9882 126.639 13.4373C126.958 13.3519 127.277 13.2665 127.596 13.181Z" fill="#CCCCCC"/>
<path fill-rule="evenodd" clip-rule="evenodd" d="M150.882 9.20642C150.669 9.25124 150.456 9.29606 150.244 9.34056C150.457 9.29558 150.67 9.25108 150.882 9.20642Z" fill="#20ACF3"/>
<path fill-rule="evenodd" clip-rule="evenodd" d="M43.542 181.608C43.7548 181.724 43.9675 181.841 44.18 181.958C43.6741 182.248 43.5493 182.009 43.542 181.608Z" fill="#CCCCCC"/>
<path fill-rule="evenodd" clip-rule="evenodd" d="M36.3647 177.301C36.5774 177.461 36.7904 177.62 37.0027 177.78C36.7898 177.62 36.5771 177.461 36.3647 177.301Z" fill="#CCCCCC"/>
<path fill-rule="evenodd" clip-rule="evenodd" d="M148.649 16.69C148.809 16.477 148.968 16.2643 149.128 16.052C148.968 16.2651 148.808 16.4776 148.649 16.69Z" fill="#20ACF3"/>
<path fill-rule="evenodd" clip-rule="evenodd" d="M121.694 13.8955C121.482 13.8977 121.269 13.8998 121.056 13.902C121.269 13.8998 121.482 13.8976 121.694 13.8955Z" fill="#CCCCCC"/>
<path fill-rule="evenodd" clip-rule="evenodd" d="M143.386 10.3102C143.173 10.4168 142.96 10.5232 142.748 10.6292C142.961 10.5224 143.173 10.4162 143.386 10.3102Z" fill="#20ACF3"/>
<path fill-rule="evenodd" clip-rule="evenodd" d="M141.312 10.7887C141.099 10.842 140.887 10.8951 140.674 10.9482C140.888 10.8949 141.1 10.8418 141.312 10.7887Z" fill="#20ACF3"/>
<path fill-rule="evenodd" clip-rule="evenodd" d="M130.945 12.5431C130.704 12.6864 130.749 13.3271 130.148 12.8443C130.414 12.7442 130.679 12.6437 130.945 12.5431Z" fill="#CCCCCC"/>
<path fill-rule="evenodd" clip-rule="evenodd" d="M134.454 158.662C135.04 158.29 134.972 158.514 134.85 159.119C134.718 158.967 134.586 158.814 134.454 158.662Z" fill="#CCCCCC"/>
<path fill-rule="evenodd" clip-rule="evenodd" d="M153.282 110.792C153.173 110.579 153.064 110.366 152.956 110.154C153.276 110.233 153.65 110.277 153.282 110.792Z" fill="#CCCCCC"/>
<path fill-rule="evenodd" clip-rule="evenodd" d="M155.826 120.84C155.667 120.627 155.507 120.415 155.348 120.202C155.508 120.415 155.667 120.627 155.826 120.84Z" fill="#CCCCCC"/>
<path fill-rule="evenodd" clip-rule="evenodd" d="M136.238 11.7456C136.21 11.9697 136.481 12.522 136.238 12.5431C136.229 12.2856 136.273 11.9727 136.238 11.7456Z" fill="#20ACF3"/>
<path fill-rule="evenodd" clip-rule="evenodd" d="M89.9551 192.177C90.2687 191.941 90.4001 191.835 90.4336 192.294C90.2741 192.254 90.1147 192.216 89.9551 192.177Z" fill="#CCCCCC"/>
<path fill-rule="evenodd" clip-rule="evenodd" d="M135.092 158.326C135.198 158.376 135.305 158.426 135.411 158.476C135.305 158.426 135.198 158.376 135.092 158.326Z" fill="#CCCCCC"/>
<path fill-rule="evenodd" clip-rule="evenodd" d="M70.3696 166.399C69.9093 166.873 69.6019 167.346 70.137 167.717C71.0327 167.36 71.1065 167.169 70.3696 166.399ZM78.5438 144.698C81.4997 144.531 79.1886 155.477 79.4786 157.96C79.3764 159.146 77.2812 160.647 78.1199 161.551C77.973 161.737 77.8602 161.976 77.6716 162.101C77.0283 162.527 75.7311 162.639 76.925 163.86C75.3043 170.039 72.2891 166.777 73.3144 169.039C73.746 169.656 73.0132 169.834 72.7282 169.825C72.3108 168.957 71.9623 169.493 71.6904 169.889C69.1033 173.41 67.0248 177.414 64.1168 180.651C59.4871 176.489 61.6428 171.501 63.1401 166.358C65.7598 160.41 64.6605 151.309 71.2512 149.009C72.3425 146.874 71.587 144.11 70.016 142.205C70.7749 142.418 71.5581 141.538 70.6654 141.027C69.9102 141.114 70.0126 141.698 70.0344 142.222C64.5946 141.08 64.5007 147.277 65.3583 150.857C62.8733 157.213 61.3161 163.938 60.2148 170.683C59.1276 175.318 53.4394 162.787 54.9342 162.928C53.504 159.946 56.4159 157.812 57.5287 155.858C58.4188 154.848 60.1196 154.084 61.4072 154.131C61.6622 154.473 61.7254 154.568 61.8642 154.1C65.0546 150.156 60.7931 139.865 69.1779 139.98C76.6179 140.766 70.1718 150.136 78.5438 144.698Z" fill="#CCCCCC"/>
<path fill-rule="evenodd" clip-rule="evenodd" d="M88.3707 98.8933C91.931 93.3146 98.1101 94.9144 104.079 95.5513C106.074 96.3469 103.238 99.6817 103.112 101.282C100.129 106.397 100.864 114.408 96.9225 118.333C92.76 118.336 86.4042 123.135 83.7972 118.51C81.3884 114.711 75.9936 109.85 81.5063 106.333C83.4782 103.494 85.7692 101.181 88.3707 98.8933Z" fill="#20ACF3"/>
<path fill-rule="evenodd" clip-rule="evenodd" d="M75.2815 128.728C79.7597 128.532 85.6416 125.504 89.5673 127.69C94.0188 130.914 89.1496 134.082 87.3036 137.414C84.8935 144.989 76.6335 132.605 75.2815 128.728Z" fill="#20ACF3"/>
<path fill-rule="evenodd" clip-rule="evenodd" d="M32.4694 151.707C31.9493 159.681 42.6083 155.882 42.1802 150.073C42.3933 146.035 35.0836 141.628 33.4888 146.75C33.0558 148.308 32.9636 150.151 32.4694 151.707ZM30.1445 153.528C31.194 149.427 30.7139 142.876 35.8351 142.126C40.6555 141.415 44.8736 146.006 44.9663 150.613C45.4426 158.703 30.682 163.451 30.1445 153.528Z" fill="#CCCCCC"/>
<path fill-rule="evenodd" clip-rule="evenodd" d="M17.7081 104.386C18.4103 100.04 11.7736 95.351 9.44274 99.9394C10.8689 102.755 7.75723 106.285 10.7739 109.044C11.7536 115.099 18.4065 108.184 17.7081 104.386ZM6.06079 104.133C6.24383 91.388 22.1759 95.6661 20.0628 106.198C16.8871 117.933 7.32427 115.237 6.06079 104.133Z" fill="#CCCCCC"/>
<path fill-rule="evenodd" clip-rule="evenodd" d="M88.041 99.4881C84.519 103.909 82.9753 92.9025 75.3827 89.8915C65.1434 86.2325 60.9726 94.2751 68.9551 101.416C69.368 102.528 69.4734 101.988 70.2342 101.642C71.1024 105.208 76.9334 105.875 79.7119 108.106C77.7026 110.31 73.1556 105.922 70.526 105.036C49.4089 87.447 77.3682 77.8595 88.041 99.4881Z" fill="#0C46D0"/>
<path fill-rule="evenodd" clip-rule="evenodd" d="M42.8244 120.405C42.6639 117.169 40.6773 115.182 37.4761 114.971C34.4372 114.824 36.7953 119.093 35.919 120.765C34.6512 120.143 34.6395 118.608 34.2975 117.421C32.3691 115.025 33.866 120.815 34.6171 121.684C36.5651 125.455 42.7448 124.673 42.8244 120.405ZM45.2848 119.901C45.7076 127.121 34.5189 129.535 32.5098 121.846C31.2234 118.16 31.7447 113.331 36.2519 112.604C37.6934 111.609 37.9244 114.418 39.2155 113.444C42.3382 111.976 45.3781 117.267 45.2848 119.901Z" fill="#CCCCCC"/>
<path fill-rule="evenodd" clip-rule="evenodd" d="M32.753 81.1977C32.8587 76.3515 25.2348 75.5449 23.5974 79.6347C21.0741 87.3701 31.9883 88.5341 32.753 81.1977ZM22.0877 78.4447C29.7221 69.4685 40.1676 78.6967 32.6545 86.3705C26.743 93.1656 18.0474 86.0451 22.0877 78.4447Z" fill="#CCCCCC"/>
<path fill-rule="evenodd" clip-rule="evenodd" d="M15.4237 131.377C7.27006 128.409 22.985 122.204 23.1268 133.037C21.5134 138.628 13.0169 138.994 13.1019 132.23C14.1677 130.657 15.1788 135.449 17.361 135.026C26.6863 132.456 12.3495 125.246 15.4237 131.377Z" fill="#CCCCCC"/>
<path fill-rule="evenodd" clip-rule="evenodd" d="M64.2728 98.654C65.7657 99.9886 56.5622 104.157 54.8694 102.904C49.0382 102.139 49.2828 91.6712 54.6461 90.3766C56.497 91.2653 50.0616 95.6748 54.235 99.5727C57.6628 102.781 60.7345 96.4905 64.2728 98.654Z" fill="#CCCCCC"/>
<path fill-rule="evenodd" clip-rule="evenodd" d="M77.8196 111.43C78.4044 113.387 85.4696 120.738 82.8257 121.305C70.8438 124.461 73.8691 119.596 77.8196 111.43Z" fill="#20ACF3"/>
<path fill-rule="evenodd" clip-rule="evenodd" d="M59.1726 172.059C61.5911 169.586 60.0687 165.673 61.8834 162.862C62.9234 161.09 61.946 158.472 63.2484 156.667C63.804 154.622 64.8572 152.925 65.3059 150.873C70.1088 149.943 63.0984 162.884 63.1052 166.358C61.783 169.054 61.9598 177.748 59.1726 172.059Z" fill="#20ACF3"/>
<path fill-rule="evenodd" clip-rule="evenodd" d="M74.2897 122.781C78.6925 123.868 84.5164 119.248 87.1482 124.594C88.5609 126.473 83.6918 125.831 82.6163 126.361C78.7153 126.923 72.6165 129.221 74.2897 122.781Z" fill="#20ACF3"/>
<path fill-rule="evenodd" clip-rule="evenodd" d="M62.397 130.322C58.5697 134.393 52.3322 128.211 57.4171 126.547C57.8027 128.422 58.6798 130.312 60.7089 128.32C61.626 126.575 59.1413 126.093 57.991 125.546C56.0647 122.014 66.3783 125.083 62.397 130.322Z" fill="#CCCCCC"/>
<path fill-rule="evenodd" clip-rule="evenodd" d="M62.522 130.212C63.1336 127.998 65.7155 129.257 67.6258 128.655C67.5296 129.561 65.6575 129.944 66.2806 130.754C65.1227 131.223 63.7492 130.323 62.522 130.212Z" fill="#20ACF3"/>
<path fill-rule="evenodd" clip-rule="evenodd" d="M52.9523 87.2052C55.5103 85.8632 57.019 92.6158 54.6115 90.4074C54.3833 89.4961 54.3303 88.5572 52.995 88.3812C52.3069 88.2905 52.7809 87.6201 52.9523 87.2052Z" fill="#0C46D0"/>
<path fill-rule="evenodd" clip-rule="evenodd" d="M62.203 153.058C61.9936 153.401 61.918 155.103 61.4091 154.198C56.631 155.511 58.9761 153.62 62.203 153.058Z" fill="#20ACF3"/>
<path fill-rule="evenodd" clip-rule="evenodd" d="M22.0104 78.4848C20.3356 80.5118 16.6988 79.7019 21.0135 78.1183C21.1675 78.0038 21.6689 78.3506 22.0104 78.4848Z" fill="#20ACF3"/>
<path fill-rule="evenodd" clip-rule="evenodd" d="M54.9541 159.119C55.0945 160.374 54.1484 161.65 55.0256 162.89C53.4749 163.439 54.0763 159.832 54.9541 159.119Z" fill="#20ACF3"/>
<path fill-rule="evenodd" clip-rule="evenodd" d="M17.7038 81.2854C17.1946 81.724 16.8006 83.5095 16.1089 82.9226C16.2571 82.161 16.7601 81.3209 17.7038 81.2854Z" fill="#20ACF3"/>
<path fill-rule="evenodd" clip-rule="evenodd" d="M56.461 157.525C56.2004 157.95 55.94 158.375 55.6794 158.8C55.6509 158.166 55.5678 157.493 56.461 157.525Z" fill="#20ACF3"/>
<path fill-rule="evenodd" clip-rule="evenodd" d="M58.5346 154.972C58.2157 155.291 57.8966 155.61 57.5776 155.929C57.8966 155.61 58.2157 155.291 58.5346 154.972Z" fill="#20ACF3"/>
<path fill-rule="evenodd" clip-rule="evenodd" d="M15.0252 84.1563C14.6481 83.7453 14.8722 83.6731 15.298 83.5183C15.7155 83.7502 15.2781 83.9182 15.0252 84.1563Z" fill="#20ACF3"/>
<path fill-rule="evenodd" clip-rule="evenodd" d="M60.975 175.547C61.0654 175.866 61.1557 176.185 61.2459 176.504C60.6374 176.303 60.3107 176.038 60.975 175.547Z" fill="#20ACF3"/>
<path fill-rule="evenodd" clip-rule="evenodd" d="M57.2505 156.248C57.2982 156.758 57.1404 157.014 56.6206 156.822C56.8304 156.63 57.0406 156.439 57.2505 156.248Z" fill="#20ACF3"/>
<path fill-rule="evenodd" clip-rule="evenodd" d="M18.9799 79.8499C18.8271 79.9725 18.6722 80.5136 18.5015 80.2627C18.6518 80.1228 18.8609 79.9918 18.9799 79.8499Z" fill="#20ACF3"/>
<path fill-rule="evenodd" clip-rule="evenodd" d="M15.3342 131.438C15.3722 131.449 15.4105 131.459 15.4484 131.47C15.4103 131.459 15.3641 131.393 15.3342 131.438Z" fill="#CCCCCC"/>
<path fill-rule="evenodd" clip-rule="evenodd" d="M17.7039 81.2609C17.757 81.2159 17.8102 81.1709 17.8634 81.1259C17.807 81.1752 17.7649 81.3487 17.7039 81.2609Z" fill="#20ACF3"/>
<path fill-rule="evenodd" clip-rule="evenodd" d="M131.296 105.014C131.241 107.881 131.333 108.276 128.453 109.157C120.991 111.825 113.444 114.205 105.77 116.183C104.955 116.323 104.668 115.991 105.266 115.314C110.21 109.882 114.635 103.968 120.263 99.2066C123.542 98.7738 127.076 100.898 130.389 101.433C131.929 101.791 131.292 103.989 131.296 105.014Z" fill="#20ACF3"/>
<path fill-rule="evenodd" clip-rule="evenodd" d="M133.09 136.756C132.835 133.218 131.806 130.179 128.872 128.33C132.869 127.439 133.184 130.584 133.27 133.718C135.476 136.286 132.459 128.445 134.607 129.017C141.528 130.192 148.272 132.322 154.912 134.576C157.59 137.016 140.012 142.319 137.012 143.696C133.495 145.118 136.368 132.361 133.09 136.756Z" fill="#20ACF3"/>
<path fill-rule="evenodd" clip-rule="evenodd" d="M99.3652 116.767C100.788 113.26 104.374 95.3411 107.747 95.9753C109.718 96.9418 119.485 97.0808 118.609 99.231C114.344 101.776 102.976 120.103 99.3652 116.767Z" fill="#20ACF3"/>
<path fill-rule="evenodd" clip-rule="evenodd" d="M112.018 79.8499C113.712 80.5945 106.794 89.1286 106.316 92.8065C105.586 94.4284 105.611 94.4606 103.811 94.3014C101.334 93.56 96.4103 94.7408 95.2183 92.6475C100.849 88.4108 106.452 84.2504 112.018 79.8499Z" fill="#20ACF3"/>
<path fill-rule="evenodd" clip-rule="evenodd" d="M95.2327 92.7526C91.5292 97.8462 95.113 86.3995 97.0708 84.039C98.154 81.6281 111.861 62.3913 112.284 69.9604C105.534 76.5119 98.7602 83.9448 95.2327 92.7526Z" fill="#0C46D0"/>
<path fill-rule="evenodd" clip-rule="evenodd" d="M132.681 89.8791C130.678 99.6107 135.139 102.61 123.393 98.4268C118.801 98.9269 133.289 87.615 132.681 89.8791Z" fill="#20ACF3"/>
<path fill-rule="evenodd" clip-rule="evenodd" d="M90.6879 125.402C89.3151 126.068 84.8912 121.298 87.322 121.067C89.5963 121.601 98.4013 117.079 97.3673 121.058C97.0997 125.963 94.4911 124.839 90.6879 125.402Z" fill="#20ACF3"/>
<path fill-rule="evenodd" clip-rule="evenodd" d="M132.221 106.159C132.617 105.143 131.767 101.949 133.408 102.378C135.05 103.225 140.964 103.718 137.887 106.091C135.937 105.056 132.466 109.539 132.221 106.159Z" fill="#20ACF3"/>
<path fill-rule="evenodd" clip-rule="evenodd" d="M131.972 121.159C131.793 123.517 134.23 128.095 130.199 127.073C128.156 126.904 131.233 121.65 131.972 121.159Z" fill="#20ACF3"/>
<path fill-rule="evenodd" clip-rule="evenodd" d="M94.8995 126.692C94.017 127.827 92.8802 130.476 91.7573 128.304C89.1464 126.016 93.2688 125.933 94.8995 126.692Z" fill="#20ACF3"/>
<path fill-rule="evenodd" clip-rule="evenodd" d="M96.1754 126.741C95.7118 127.97 96.5861 132.96 94.6988 131.843C92.2614 130.196 95.3705 128.337 96.1754 126.741Z" fill="#20ACF3"/>
<path fill-rule="evenodd" clip-rule="evenodd" d="M134.375 143.115C134.337 148.167 132.834 138.851 133.514 137.587C134.016 139.219 134.686 141.69 134.375 143.115Z" fill="#20ACF3"/>
<path fill-rule="evenodd" clip-rule="evenodd" d="M98.5782 121.184C98.4109 119.884 100.313 116.936 100.96 119.001C100.351 119.556 99.0241 122.385 98.5782 121.184Z" fill="#20ACF3"/>
<path fill-rule="evenodd" clip-rule="evenodd" d="M88.3527 137.952C88.3043 138.043 88.2562 138.134 88.208 138.225C88.2568 138.127 88.2645 137.783 88.3527 137.952Z" fill="#20ACF3"/>
<path fill-rule="evenodd" clip-rule="evenodd" d="M96.2297 126.731C96.2514 126.685 96.2731 126.638 96.2948 126.593C96.2732 126.64 96.1807 126.689 96.2297 126.731Z" fill="#20ACF3"/>
<path fill-rule="evenodd" clip-rule="evenodd" d="M51.3816 68.5258C50.1515 66.3102 52.5911 64.9883 53.0069 62.794C53.2963 62.0389 53.0051 61.5578 52.2765 61.2983C52.7252 60.2318 54.3923 60.6734 53.5904 59.1638C52.721 60.6375 50.1063 59.1378 52.053 58.6613C53.2207 58.6187 53.3692 57.7271 53.3279 56.787C56.0341 56.1225 53.5044 60.8692 56.9319 60.6685C56.8213 59.9991 55.6217 59.2172 56.8027 59.0001C60.9399 61.5884 59.6752 60.5824 57.2006 63.5362C56.244 62.604 54.183 61.4894 54.6091 63.9137L54.6249 63.8863C52.5967 65.0449 54.3903 64.3573 54.977 65.5019C54.0822 65.813 54.2133 67.1831 53.3831 65.6452C53.5651 66.9277 52.135 66.5548 51.9842 67.5497C51.9658 67.8854 51.5941 68.2011 51.3816 68.5258Z" fill="#CCCCCC"/>
<path fill-rule="evenodd" clip-rule="evenodd" d="M76.1862 28.4124C76.0807 28.1594 75.9689 28.1564 75.761 28.3081C75.9194 28.5203 76.0036 28.7153 76.1862 28.4124ZM74.6989 27.5336C76.414 27.9452 86.0734 26.1426 81.9006 29.2157C78.8754 29.1038 80.3764 30.7341 79.9705 32.4425C78.6111 32.4965 77.5211 32.6915 77.4302 31.1328C78.3452 29.7208 77.1764 29.6342 76.0501 29.418C73.1806 28.1562 77.8586 33.703 74.3148 32.0603C75.6719 31.4291 72.0153 30.9865 74.6989 27.5336Z" fill="#CCCCCC"/>
<path fill-rule="evenodd" clip-rule="evenodd" d="M64.8995 45.7016C64.9649 45.7768 64.9642 45.7543 64.98 45.6712L64.8995 45.7016ZM64.1471 42.8148C63.0974 42.2421 62.3265 44.0044 63.6882 43.9654C63.8508 44.828 65.2968 44.267 65.266 45.3445C65.3968 45.2622 65.6067 45.2056 65.6444 45.093C65.7862 44.6699 65.2369 43.9522 66.2014 43.8821C66.1037 43.023 65.0552 42.3637 64.1471 42.8148ZM67.0969 45.5859C67.3587 47.099 66.2892 46.0694 65.7423 46.0889C65.2834 46.6902 64.2635 47.1137 64.789 48.1581C62.3309 49.0261 62.343 47.6781 63.6242 45.9941C63.9407 45.1448 63.4326 45.115 62.7923 45.3799C62.7354 43.6221 60.2024 45.2816 61.1317 42.3571C63.4046 40.7937 68.3864 42.2619 67.0969 45.5859Z" fill="#CCCCCC"/>
<path fill-rule="evenodd" clip-rule="evenodd" d="M51.3454 68.4794C52.0295 67.942 51.7829 66.6976 52.7711 66.8422C54.0327 67.7588 55.2323 67.6647 54.8657 65.6057C54.8848 65.4063 55.0842 65.5449 55.2203 65.5113C56.3235 66.4698 56.6009 67.0062 55.5564 67.8393C56.3362 70.5122 58.1551 72.5751 53.9287 72.6726C56.53 69.4342 50.1649 71.4875 51.3454 68.4794Z" fill="#1F79E3"/>
<path fill-rule="evenodd" clip-rule="evenodd" d="M52.1599 48.2955C52.0987 48.3838 52.1043 48.3906 52.2112 48.386L52.1599 48.2955ZM52.2849 45.7835C52.0906 45.237 51.7313 44.8222 51.2669 44.4752C51.3313 44.9112 51.802 46.7405 52.2849 45.7835ZM51.1628 48.5656C50.9345 46.9108 49.7275 45.2401 50.916 43.7174C50.986 41.8136 53.7246 42.4187 54.3736 43.9657C54.5412 45.1631 53.169 45.5667 53.1789 47.0193C55.6491 47.1607 51.2556 53.8786 51.0521 50.2013C52.2649 49.9806 52.6932 48.5607 51.1628 48.5656Z" fill="#1F79E3"/>
<path fill-rule="evenodd" clip-rule="evenodd" d="M54.7049 73.0309C55.4571 72.1374 58.0621 71.2692 56.6142 73.1657C56.3882 73.3968 55.2186 73.7406 56.5821 74.1533C57.8321 75.1979 54.7934 76.996 57.3147 77.0172C57.3982 80.8649 58.5012 77.7198 60.2891 78.6554C59.034 79.357 58.4752 81.5643 56.4949 80.5403C56.7644 78.4756 54.3628 78.2626 54.2283 76.2747C54.9111 76.2588 55.9161 76.1031 55.626 75.1014C54.1656 74.9138 55.002 73.7182 54.7049 73.0309Z" fill="#CCCCCC"/>
<path fill-rule="evenodd" clip-rule="evenodd" d="M71.904 39.969C72.9466 42.3151 70.9453 42.7341 70.9858 40.9351C71.9005 39.8066 70.4038 39.161 69.779 38.5169C69.3147 39.1391 69.4072 41.0173 68.3557 39.9723C67.3262 38.7252 69.8266 38.4397 69.2699 37.0427C69.4026 37.0136 69.6431 36.9403 69.6519 36.9617C69.9196 37.6151 70.2046 38.2508 71.1002 37.9336C72.107 37.5771 70.9728 36.8518 71.3438 36.3754L71.3186 36.4C71.9749 35.1721 73.8163 34.4769 73.6793 36.3251C72.3463 37.902 73.5253 39.8481 71.904 39.969Z" fill="#1F79E3"/>
<path fill-rule="evenodd" clip-rule="evenodd" d="M51.1199 51.1134C53.3608 50.597 55.3017 51.688 56.7801 52.7757C55.8357 53.6559 55.1862 54.0419 54.8134 52.5322C53.9907 53.9329 53.6412 52.1485 52.6022 51.8074C51.2796 53.4432 52.4509 55.2373 53.3759 56.7243C49.9498 57.6813 51.2992 54.0648 50.5702 52.2003C50.4871 52.127 50.9238 51.4896 51.1199 51.1134Z" fill="#20ACF3"/>
<path fill-rule="evenodd" clip-rule="evenodd" d="M54.2698 42.3554C54.7242 42.5802 55.5222 43.0347 55.8964 42.5453C56.6127 40.9478 57.456 43.661 56.7564 44.376C57.7608 43.916 57.7478 41.2532 58.8536 42.3206C58.3527 43.4914 57.2978 44.5411 57.8661 45.8755C57.3868 45.8695 56.9589 45.9192 57.0844 46.5705C53.3459 47.0953 55.6933 45.5546 54.2283 43.946L54.2429 43.967C54.252 43.4299 54.2607 42.8925 54.2698 42.3554Z" fill="#1F79E3"/>
<path fill-rule="evenodd" clip-rule="evenodd" d="M54.3852 32.981C51.1561 29.5565 50.1729 34.4667 53.2987 33.0917C53.2607 33.4724 54.0395 34.112 52.9044 34.1688C52.4704 34.3099 51.9879 35.5822 51.271 35.3138C50.2839 34.6482 51.5563 33.6862 50.4842 32.9441C50.1956 32.6735 49.9511 29.5411 51.0644 30.8429C51.1153 30.9012 51.3794 30.8761 51.4365 30.803C52.3424 29.6532 52.4031 31.4062 53.2966 31.0456C54.7619 30.628 55.3694 32.9762 54.3852 32.981Z" fill="#CCCCCC"/>
<path fill-rule="evenodd" clip-rule="evenodd" d="M59.6434 31.7473C59.7024 31.6348 59.7617 31.5223 59.8206 31.4098C59.5678 31.5125 59.444 31.673 59.4213 31.947C59.4952 31.8804 59.5693 31.8138 59.6434 31.7473ZM59.7752 33.6693C58.52 34.6267 57.1903 32.5436 57.9689 31.6384C58.8981 32.6677 58.7055 31.0701 58.3248 30.1578C57.5135 29.375 57.8238 26.6588 59.1362 28.1194C58.6365 29.8795 60.6279 30.1441 60.5557 31.7176C60.5556 31.7172 60.608 31.7045 60.608 31.7045C60.5522 31.7056 60.4965 31.7068 60.4409 31.7079C60.5435 32.2409 59.9226 33.0487 59.7752 33.6693Z" fill="#CCCCCC"/>
<path fill-rule="evenodd" clip-rule="evenodd" d="M58.0081 45.8366C57.594 44.6916 58.3786 42.2455 59.5953 42.2091C60.5343 43.3185 60.5317 43.3842 59.7608 44.2933C58.7408 45.6504 60.804 44.13 60.5926 45.3103C59.6144 45.7766 60.3339 46.4917 60.3254 47.0946C59.6865 47.7222 59.6782 48.5634 59.5739 49.4085C58.3419 50.1971 59.3778 47.4014 58.0081 45.8366Z" fill="#20ACF3"/>
<path fill-rule="evenodd" clip-rule="evenodd" d="M52.5434 80.5238C51.7758 76.7163 57.7006 78.495 53.9038 80.1372C53.7206 80.2387 53.5587 80.754 53.5647 80.7571C54.9286 81.4864 53.9294 83.1169 54.8238 84.0201C54.7703 84.7018 53.916 84.4177 53.4369 84.4099C54.1237 83.4944 53.5336 83.103 52.7565 82.7884C52.6162 81.8901 53.5193 81.087 52.5434 80.5238Z" fill="#CCCCCC"/>
<path fill-rule="evenodd" clip-rule="evenodd" d="M50.4257 40.9798C50.1781 39.3809 51.8145 38.8216 52.3566 37.4243C54.8875 38.8916 53.165 43.1152 50.4257 40.9798Z" fill="#1F79E3"/>
<path fill-rule="evenodd" clip-rule="evenodd" d="M62.5757 36.5599C61.5862 34.5226 62.6995 34.574 64.3542 35.4355C64.3681 36.9733 64.3997 36.8247 65.5203 37.8124C65.4966 38.2411 65.8005 38.7612 64.918 38.8028C63.2549 39.1728 63.2266 37.6593 62.5757 36.5599Z" fill="#CCCCCC"/>
<path fill-rule="evenodd" clip-rule="evenodd" d="M71.4265 36.407C71.0519 36.8874 72.197 37.6184 71.1806 37.9775C70.2765 38.2972 69.9888 37.6565 69.7186 36.998C69.0147 37.16 68.1045 37.274 67.4243 37.5577C66.4955 38.1081 66.9397 36.9396 66.6687 36.4255C67.3261 36.2886 68.1734 36.6482 68.0863 35.5124C69.5565 35.4772 70.4608 35.9041 71.4265 36.407Z" fill="#CCCCCC"/>
<path fill-rule="evenodd" clip-rule="evenodd" d="M50.4549 40.9495C52.3486 41.9662 52.8344 41.7435 53.7333 39.6582C54.9932 39.6146 54.5359 41.0424 54.049 41.648C54.0401 42.3503 54.5518 43.0149 54.3164 43.9636C53.2723 41.1378 49.9357 44.3554 50.4549 40.9495Z" fill="#CCCCCC"/>
<path fill-rule="evenodd" clip-rule="evenodd" d="M67.516 38.2219C67.6225 38.1515 67.6241 38.1065 67.5219 38.0289C67.4538 38.1147 67.3776 38.185 67.516 38.2219ZM66.5868 36.3079C66.5283 38.4373 67.8568 37.053 69.1929 36.9753C69.7147 40.7578 62.6621 37.9479 66.5868 36.3079Z" fill="#20ACF3"/>
<path fill-rule="evenodd" clip-rule="evenodd" d="M67.4097 30.1057C66.4655 32.3571 64.3318 30.0309 63.7979 28.6252C64.5205 28.5519 65.2887 28.2157 65.8726 29.0152C66.7602 28.2599 67.7096 28.8496 67.4097 30.1057Z" fill="#1F79E3"/>
<path fill-rule="evenodd" clip-rule="evenodd" d="M73.304 30.2848C73.5525 30.7414 75.4664 32.1077 74.2324 32.1265C73.6039 31.9707 73.03 31.54 72.442 32.3933C71.3053 33.4959 68.8502 30.5065 72.1667 31.0107C70.9643 30.414 72.6207 29.3786 73.304 30.2848Z" fill="#20ACF3"/>
<path fill-rule="evenodd" clip-rule="evenodd" d="M58.5347 75.6153C58.8322 74.9566 60.1654 75.5141 60.0428 74.1854C60.4541 73.2359 60.2094 72.0001 60.9754 71.0776C61.4886 74.9558 63.0609 71.429 60.2833 76.5906C59.9328 77.2534 59.5039 76.9204 59.0905 76.6689C60.2743 76.2547 59.4563 75.5532 58.5347 75.6153Z" fill="#1F79E3"/>
<path fill-rule="evenodd" clip-rule="evenodd" d="M58.3306 35.6698C59.1699 35.9898 58.8049 36.5957 58.4582 37.172C58.8812 37.3504 59.287 37.7574 59.6891 37.0667C59.7986 36.8954 60.4418 37.0155 60.7629 36.9616C60.9746 39.9682 53.6867 37.5493 58.3306 35.6698Z" fill="#CCCCCC"/>
<path fill-rule="evenodd" clip-rule="evenodd" d="M57.8965 31.6597C57.2937 32.3416 55.727 34.1456 56.3326 32.3344C54.2196 30.4905 57.7763 28.7046 57.8965 31.6597Z" fill="#20ACF3"/>
<path fill-rule="evenodd" clip-rule="evenodd" d="M62.1448 38.9206C62.5608 40.6284 60.5887 40.2097 61.3216 41.642C60.4533 43.9971 58.778 38.2106 62.1448 38.9206Z" fill="#CCCCCC"/>
<path fill-rule="evenodd" clip-rule="evenodd" d="M80.1298 31.6825C79.3139 29.975 79.7699 29.3299 81.8207 29.29C81.386 30.174 81.4752 31.4056 80.1298 31.6825Z" fill="#20ACF3"/>
<path fill-rule="evenodd" clip-rule="evenodd" d="M56.7801 37.3331C55.9349 39.6487 55.1501 35.6307 53.9081 36.4973C53.7902 36.5581 53.488 36.2763 53.2712 36.1531C54.9668 33.9344 55.4123 36.9842 56.7801 37.3331Z" fill="#1F79E3"/>
<path fill-rule="evenodd" clip-rule="evenodd" d="M51.9039 79.0214C50.367 79.3871 51.1085 76.402 52.3326 76.1815C53.0622 77.1881 52.2823 78.0603 51.9039 79.0214Z" fill="#CCCCCC"/>
<path fill-rule="evenodd" clip-rule="evenodd" d="M53.1012 70.4397C56.0386 70.4445 54.4084 74.2726 52.4739 72.2344C52.8703 71.6901 53.1085 71.1202 53.1012 70.4397Z" fill="#CCCCCC"/>
<path fill-rule="evenodd" clip-rule="evenodd" d="M76.0604 29.4496C77.9713 29.5184 78.1575 30.6681 76.765 31.743C76.7926 32.6431 76.2858 32.5157 75.7416 32.3954C75.0863 31.0009 76.9796 30.6849 76.0604 29.4496Z" fill="#20ACF3"/>
<path fill-rule="evenodd" clip-rule="evenodd" d="M59.5129 49.4795C59.3188 48.0046 60.5001 47.5545 60.6692 48.965C61.5294 47.1833 63.1619 51.6033 61.4561 50.4755C61.0452 49.2613 60.1075 50.6998 59.5129 49.4795Z" fill="#CCCCCC"/>
<path fill-rule="evenodd" clip-rule="evenodd" d="M52.3143 37.3298C51.1291 39.7106 50.1809 39.9918 50.71 36.9921C50.805 35.6758 51.7329 37.2396 52.3143 37.3298Z" fill="#CCCCCC"/>
<path fill-rule="evenodd" clip-rule="evenodd" d="M51.4928 59.7535C51.8727 59.8125 52.2526 59.8712 52.6333 59.9302C52.5429 60.2603 51.561 60.3285 52.3581 60.9198C51.7956 64.7318 50.2885 62.4729 51.4928 59.7535Z" fill="#20ACF3"/>
<path fill-rule="evenodd" clip-rule="evenodd" d="M86.092 29.1306C87.1045 29.2801 87.9612 30.1048 87.3672 30.9856C86.9671 31.8858 86.0155 30.9583 85.9557 30.4698C84.3712 30.6016 85.5911 29.8941 86.092 29.1306Z" fill="#CCCCCC"/>
<path fill-rule="evenodd" clip-rule="evenodd" d="M50.5598 73.6381C51.0159 72.1688 51.7906 73.6012 52.6332 74.0484C51.4701 75.3132 51.1564 75.1796 50.5598 73.6381Z" fill="#CCCCCC"/>
<path fill-rule="evenodd" clip-rule="evenodd" d="M66.4201 28.6512C65.6007 29.2345 64.9711 27.9949 63.7254 28.5758C62.3498 27.1183 67.2198 26.8129 66.4201 28.6512Z" fill="#20ACF3"/>
<path fill-rule="evenodd" clip-rule="evenodd" d="M61.884 73.4701C61.9402 72.1896 64.6158 71.9004 65.0739 73.1847C64.0951 73.6009 62.932 73.3341 61.884 73.4701Z" fill="#20ACF3"/>
<path fill-rule="evenodd" clip-rule="evenodd" d="M71.9065 30.7611C72.0214 30.8262 72.1362 30.8914 72.2511 30.9565C71.2746 31.0181 70.0163 30.8116 70.7766 32.0765C69.2368 33.1234 68.6912 30.5078 69.8224 29.7686C70.2624 31.1313 70.8749 30.1109 71.9065 30.7611Z" fill="#CCCCCC"/>
<path fill-rule="evenodd" clip-rule="evenodd" d="M62.7541 72.3867C62.4493 72.6414 62.1448 72.8962 61.8406 73.1511C59.0888 72.4576 63.5028 69.7078 62.7541 72.3867Z" fill="#CCCCCC"/>
<path fill-rule="evenodd" clip-rule="evenodd" d="M53.2577 33.1143C51.8232 34.0359 51.0524 32.8191 51.8184 31.5229C52.4958 31.7975 53.9247 32.2477 53.2577 33.1143Z" fill="#1F79E3"/>
<path fill-rule="evenodd" clip-rule="evenodd" d="M67.3851 28.9593C68.1495 29.0842 69.4206 28.4383 69.8588 29.157C69.6253 29.4754 68.8304 28.5766 68.9261 29.609C68.6285 30.8049 66.9256 30.1653 67.3851 28.9593Z" fill="#CCCCCC"/>
<path fill-rule="evenodd" clip-rule="evenodd" d="M62.7787 45.2494C64.8637 44.1557 62.5437 48.7946 62.2029 46.8155C62.3216 46.2761 62.5768 45.769 62.7787 45.2494Z" fill="#1F79E3"/>
<path fill-rule="evenodd" clip-rule="evenodd" d="M59.6511 33.7885C59.9634 33.1557 60.1425 32.4213 60.5298 31.8419C62.2807 31.889 60.3594 35.4619 59.6511 33.7885Z" fill="#1F79E3"/>
<path fill-rule="evenodd" clip-rule="evenodd" d="M72.4107 27.6951C71.6136 28.3208 69.7333 28.7247 69.0613 27.7414C70.1779 27.7257 71.2942 27.7104 72.4107 27.6951Z" fill="#CCCCCC"/>
<path fill-rule="evenodd" clip-rule="evenodd" d="M67.3068 73.5013C66.8344 74.0844 65.7077 73.7065 65.8914 73.0349C66.934 71.7811 67.1089 71.9239 67.3068 73.5013Z" fill="#1F79E3"/>
<path fill-rule="evenodd" clip-rule="evenodd" d="M54.6248 78.255C53.6887 78.234 53.0963 76.8866 54.1499 76.3411C54.2212 76.9219 54.9469 77.7979 54.6248 78.255Z" fill="#1F79E3"/>
<path fill-rule="evenodd" clip-rule="evenodd" d="M51.1134 48.466C51.8351 48.2711 51.9559 48.9048 52.3144 49.211C51.4373 50.1689 50.4078 49.6345 51.1134 48.466Z" fill="#CCCCCC"/>
<path fill-rule="evenodd" clip-rule="evenodd" d="M58.3752 35.7812C57.9179 36.1164 57.4607 36.4513 57.0038 36.7863C56.6431 35.6468 57.9018 34.0823 58.3752 35.7812Z" fill="#1F79E3"/>
<path fill-rule="evenodd" clip-rule="evenodd" d="M61.2073 48.4151C59.6176 48.5759 59.6602 47.3472 60.7639 46.5155C61.3666 47.0445 61.2514 47.7155 61.2073 48.4151Z" fill="#1F79E3"/>
<path fill-rule="evenodd" clip-rule="evenodd" d="M52.3143 64.4793C52.1116 65.7223 50.6079 64.5496 51.159 63.5814C51.5169 63.9196 51.8801 64.2457 52.3143 64.4793Z" fill="#1F79E3"/>
<path fill-rule="evenodd" clip-rule="evenodd" d="M85.0022 30.4799C86.3698 30.0223 86.1161 31.8804 85.2807 31.2198C84.6728 31.0692 84.4617 31.2432 85.0022 30.4799Z" fill="#20ACF3"/>
<path fill-rule="evenodd" clip-rule="evenodd" d="M54.8662 30.5185C54.6799 31.3111 53.9631 30.9792 53.3045 30.9557C53.0471 30.2051 54.3519 30.4048 54.8662 30.5185Z" fill="#20ACF3"/>
<path fill-rule="evenodd" clip-rule="evenodd" d="M65.0185 69.4828C65.3122 70.4565 64.3781 70.5833 63.6384 70.3207C63.9075 69.7391 64.4564 69.6414 65.0185 69.4828Z" fill="#CCCCCC"/>
<path fill-rule="evenodd" clip-rule="evenodd" d="M77.3495 35.7569C77.4142 36.1674 76.8951 36.5537 76.7269 36.9458C76.6745 36.3247 76.8238 34.1845 77.3495 35.7569Z" fill="#1F79E3"/>
<path fill-rule="evenodd" clip-rule="evenodd" d="M61.5749 32.7902C60.9874 32.0418 60.759 31.7283 61.8799 31.5229C61.8594 32.027 62.4202 32.8953 61.5749 32.7902Z" fill="#CCCCCC"/>
<path fill-rule="evenodd" clip-rule="evenodd" d="M68.0984 35.5104C68.1758 36.4057 67.4849 36.3184 66.8439 36.2935C66.7044 35.319 67.5384 35.5896 68.0984 35.5104Z" fill="#20ACF3"/>
<path fill-rule="evenodd" clip-rule="evenodd" d="M75.6004 35.5103C75.1749 35.4251 74.7496 35.3398 74.3245 35.2546C74.6348 34.3898 75.1055 35.2225 75.6004 35.5103Z" fill="#1F79E3"/>
<path fill-rule="evenodd" clip-rule="evenodd" d="M68.7422 30.1468C68.9003 29.4619 69.2484 29.5515 69.8587 29.7617C69.4136 30.2399 69.1658 31.0753 68.7422 30.1468Z" fill="#1F79E3"/>
<path fill-rule="evenodd" clip-rule="evenodd" d="M55.7096 36.1483C55.111 35.9316 53.431 34.3673 55.1202 34.7828C56.1569 34.8131 56.1308 35.4599 55.7096 36.1483Z" fill="#20ACF3"/>
<path fill-rule="evenodd" clip-rule="evenodd" d="M51.3267 57.6802C51.6262 58.1547 52.5619 58.7627 51.5048 58.6144C51.4788 58.2964 50.5972 58.1433 51.3267 57.6802Z" fill="#20ACF3"/>
<path fill-rule="evenodd" clip-rule="evenodd" d="M60.1772 30.4015C59.2511 30.525 60.3608 28.3161 60.4485 29.8115C60.4523 30.0065 60.2748 30.2048 60.1772 30.4015Z" fill="#20ACF3"/>
<path fill-rule="evenodd" clip-rule="evenodd" d="M62.1164 49.5459C61.5135 48.9784 62.2217 48.7953 62.6832 48.4294C63.1917 49.1179 62.3268 49.1837 62.1164 49.5459Z" fill="#1F79E3"/>
<path fill-rule="evenodd" clip-rule="evenodd" d="M71.2942 36.2922C70.4047 36.4384 70.527 35.5239 71.1606 35.1914C71.3066 35.5225 71.2702 36.0611 71.2942 36.2922Z" fill="#1F79E3"/>
<path fill-rule="evenodd" clip-rule="evenodd" d="M60.7674 70.798C60.5537 70.5156 59.9758 71.7114 59.97 70.5836C60.5077 69.9775 60.6922 69.8864 60.7674 70.798Z" fill="#20ACF3"/>
<path fill-rule="evenodd" clip-rule="evenodd" d="M62.8782 38.0623C63.0706 38.8368 63.1534 39.577 62.2029 38.9336C62.4283 38.6431 62.6532 38.3526 62.8782 38.0623Z" fill="#CCCCCC"/>
<path fill-rule="evenodd" clip-rule="evenodd" d="M54.0046 39.5707C53.9388 39.6364 53.8066 39.674 53.7155 39.6498C52.8066 37.9947 54.3988 37.9496 54.0046 39.5707Z" fill="#20ACF3"/>
<path fill-rule="evenodd" clip-rule="evenodd" d="M63.3193 70.7587C64.2327 70.8872 64.0282 71.1323 63.5559 71.7156C63.4772 71.3966 63.3982 71.0777 63.3193 70.7587Z" fill="#CCCCCC"/>
<path fill-rule="evenodd" clip-rule="evenodd" d="M66.3838 28.6521C66.3809 27.9644 66.1393 27.3069 66.9878 27.6127C66.7865 27.9214 66.7898 28.6286 66.3838 28.6521Z" fill="#CCCCCC"/>
<path fill-rule="evenodd" clip-rule="evenodd" d="M78.7903 35.7405C78.5774 35.7465 78.3647 35.7526 78.1523 35.7587C78.3652 35.7526 78.5778 35.7465 78.7903 35.7405Z" fill="#1F79E3"/>
<path fill-rule="evenodd" clip-rule="evenodd" d="M51.5979 71.5562C51.4085 71.3451 51.5824 71.3131 51.7991 71.2372C51.8877 71.437 51.8143 71.5086 51.5979 71.5562Z" fill="#1F79E3"/>
<path fill-rule="evenodd" clip-rule="evenodd" d="M59.1117 28.1736C58.9191 27.9694 58.7264 27.7653 58.5347 27.5614C59.0129 27.4773 59.3065 27.5786 59.1117 28.1736Z" fill="#20ACF3"/>
<path fill-rule="evenodd" clip-rule="evenodd" d="M55.8232 34.8143C56.0954 34.6485 56.4497 34.1153 56.6207 34.5792C56.3376 34.8305 56.0918 35.3142 55.8232 34.8143Z" fill="#20ACF3"/>
<path fill-rule="evenodd" clip-rule="evenodd" d="M55.8232 36.0727C55.8624 35.832 55.9015 35.5912 55.9402 35.3508C56.0251 35.7773 56.4091 36.3572 55.8232 36.0727Z" fill="#1F79E3"/>
<path fill-rule="evenodd" clip-rule="evenodd" d="M54.8662 32.8937C54.9069 32.6342 55.3229 32.9888 55.5042 32.9985C55.49 33.3131 55.0526 32.9085 54.8662 32.8937Z" fill="#1F79E3"/>
<path fill-rule="evenodd" clip-rule="evenodd" d="M71.3058 36.3078C71.2355 35.8166 71.4893 35.7345 71.9322 35.6698C71.7234 35.8825 71.5145 36.0951 71.3058 36.3078Z" fill="#CCCCCC"/>
<path fill-rule="evenodd" clip-rule="evenodd" d="M61.8984 69.9605C61.9484 69.7473 61.7113 69.3431 62.203 69.5315C62.1016 69.6384 62.0053 69.9793 61.8984 69.9605Z" fill="#20ACF3"/>
<path fill-rule="evenodd" clip-rule="evenodd" d="M65.7119 70.8611C65.9247 70.8458 66.1375 70.8306 66.3499 70.8158C66.1371 70.8313 65.9245 70.8461 65.7119 70.8611Z" fill="#CCCCCC"/>
<path fill-rule="evenodd" clip-rule="evenodd" d="M51.3573 70.1207C51.251 70.1739 51.1446 70.227 51.0383 70.2802C51.1354 70.2247 51.2955 70.1799 51.3573 70.1207Z" fill="#1F79E3"/>
<path fill-rule="evenodd" clip-rule="evenodd" d="M66.5093 70.4903C66.7208 70.3669 66.9326 70.2435 67.1442 70.1207C67.1798 70.6632 66.9043 70.6782 66.5093 70.4903Z" fill="#CCCCCC"/>
<path fill-rule="evenodd" clip-rule="evenodd" d="M50.8789 49.7053C50.9479 49.8448 50.9742 50.0715 51.0384 50.1838C50.9853 50.0243 50.9321 49.8649 50.8789 49.7053Z" fill="#1F79E3"/>
<path fill-rule="evenodd" clip-rule="evenodd" d="M54.4043 32.9777C54.603 32.885 54.5191 33.1488 54.475 33.2774C54.4515 33.1774 54.4277 33.0776 54.4043 32.9777Z" fill="#1F79E3"/>
<path fill-rule="evenodd" clip-rule="evenodd" d="M64.7549 73.2758C64.8561 73.234 64.9574 73.1923 65.0587 73.1511C65.1345 73.3564 64.9093 73.3211 64.7549 73.2758Z" fill="#1F79E3"/>
<path fill-rule="evenodd" clip-rule="evenodd" d="M61.9625 48.0743L61.925 47.9871C62.0231 47.9893 62.0187 48.0009 61.9625 48.0743Z" fill="#1F79E3"/>
<path fill-rule="evenodd" clip-rule="evenodd" d="M58.217 42.0496C58.1634 41.9431 58.1098 41.8369 58.0562 41.7306C58.3201 41.8242 58.5334 41.8449 58.217 42.0496Z" fill="#1F79E3"/>
<path fill-rule="evenodd" clip-rule="evenodd" d="M59.4916 42.1496C59.3851 42.1364 59.2789 42.1232 59.1726 42.1091C59.2791 42.122 59.3853 42.1359 59.4916 42.1496Z" fill="#1F79E3"/>
<path fill-rule="evenodd" clip-rule="evenodd" d="M100.641 167.018C100.589 167.265 100.522 167.322 100.322 167.168C100.376 166.925 100.442 166.865 100.641 167.018Z" fill="#CCCCCC"/>
<path fill-rule="evenodd" clip-rule="evenodd" d="M147.01 146.04C146.085 144.96 145.934 144.722 146.995 143.967C147.989 144.719 147.853 144.978 147.01 146.04Z" fill="#CCCCCC"/>
<path fill-rule="evenodd" clip-rule="evenodd" d="M143.594 13.9785C142.63 12.7662 145.296 13.1826 145.858 12.8621C146.383 13.6591 144.156 13.6582 143.594 13.9785Z" fill="#20ACF3"/>
<path fill-rule="evenodd" clip-rule="evenodd" d="M129.829 14.4466C128.949 14.9589 128.661 15.1688 127.915 14.5771C128.647 13.9546 128.847 13.6762 129.829 14.4466Z" fill="#20ACF3"/>
<path fill-rule="evenodd" clip-rule="evenodd" d="M145.3 16.6899C145.348 16.2473 146.107 14.7057 146.576 15.187C146.359 15.833 146.255 16.5578 145.3 16.6899Z" fill="#20ACF3"/>
<path fill-rule="evenodd" clip-rule="evenodd" d="M143.067 13.6595C142.748 13.6301 142.428 13.6006 142.11 13.5711C142.495 12.9393 142.679 13.1529 143.067 13.6595Z" fill="#20ACF3"/>
<path fill-rule="evenodd" clip-rule="evenodd" d="M94.3557 136.031C94.3829 136.103 94.3975 136.127 94.3059 136.105L94.3557 136.031Z" fill="#CCCCCC"/>
<path fill-rule="evenodd" clip-rule="evenodd" d="M83.0108 152.542L82.9871 152.458C83.0791 152.459 83.0474 152.485 83.0108 152.542Z" fill="#CCCCCC"/>
<path fill-rule="evenodd" clip-rule="evenodd" d="M137.444 85.5917C137.069 85.4154 137.124 85.1807 137.309 84.9501C139.528 83.1889 139.759 84.7939 137.444 85.5917Z" fill="#CCCCCC"/>
<path fill-rule="evenodd" clip-rule="evenodd" d="M67.4564 150.765C62.7002 151.759 64.6475 140.036 70.003 142.149L69.9849 142.132C71.3085 143.888 72.5274 146.755 71.1983 148.689C69.6253 148.989 68.264 149.226 67.4564 150.765Z" fill="#1F79E3"/>
<path fill-rule="evenodd" clip-rule="evenodd" d="M67.7852 150.666C68.4069 149.092 69.9301 149.13 71.294 148.752C70.8553 149.817 69.0318 150.58 67.7852 150.666Z" fill="#20ACF3"/>
<path fill-rule="evenodd" clip-rule="evenodd" d="M70.3439 166.456C71.0375 167.201 70.9677 167.386 70.1246 167.732C69.6215 167.372 69.9105 166.915 70.3439 166.456Z" fill="#20ACF3"/>
<path fill-rule="evenodd" clip-rule="evenodd" d="M70.0716 142.212C69.8027 141.601 70.6135 140.521 71.1076 141.472C71.2952 142.316 70.4652 142.102 70.0716 142.212Z" fill="#20ACF3"/>
<path fill-rule="evenodd" clip-rule="evenodd" d="M71.2942 148.592C71.3559 148.498 71.4625 148.445 71.6132 148.433C71.5064 148.486 71.4003 148.539 71.2942 148.592Z" fill="#20ACF3"/>
<path fill-rule="evenodd" clip-rule="evenodd" d="M73.8763 95.3739C76.7715 97.2349 84.2977 101.124 82.9328 104.897C80.6834 108.501 78.5086 100.774 75.8398 99.667C73.5158 97.6587 67.3675 94.9043 73.8763 95.3739Z" fill="#0C46D0"/>
<path fill-rule="evenodd" clip-rule="evenodd" d="M78.9921 102.947C85.7592 111.257 73.7311 106.113 70.3508 102.849C69.9911 100.581 76.8209 103.773 78.9921 102.947Z" fill="#1F79E3"/>
<path fill-rule="evenodd" clip-rule="evenodd" d="M83.4158 103.455C83.5022 102.908 83.536 102.78 84.2132 102.826L83.4158 103.455Z" fill="#1F79E3"/>
<path fill-rule="evenodd" clip-rule="evenodd" d="M32.5552 151.709C33.0488 150.154 33.1409 148.314 33.5738 146.757C35.1673 141.64 42.4648 146.043 42.2536 150.077C42.6789 155.879 32.0366 159.674 32.5552 151.709Z" fill="#1F79E3"/>
<path fill-rule="evenodd" clip-rule="evenodd" d="M17.8111 104.373C18.5172 108.176 11.7897 115.101 10.798 109.037C7.74794 106.273 10.8953 102.741 9.45296 99.9206C11.8103 95.3265 18.5208 100.02 17.8111 104.373Z" fill="#1F79E3"/>
<path fill-rule="evenodd" clip-rule="evenodd" d="M69.0613 101.499C69.492 101.182 69.899 101.017 70.1777 101.682C69.5248 102.382 69.4032 102.362 69.0613 101.499Z" fill="#1F79E3"/>
<path fill-rule="evenodd" clip-rule="evenodd" d="M42.9042 120.347C42.8218 124.591 36.581 125.37 34.6116 121.619C33.8451 120.757 32.347 114.995 34.2888 117.379C34.6339 118.559 34.6461 120.087 35.9272 120.704C36.8113 119.043 34.4305 114.797 37.5001 114.942C40.7347 115.153 42.742 117.129 42.9042 120.347Z" fill="#1F79E3"/>
<path fill-rule="evenodd" clip-rule="evenodd" d="M32.6953 81.1627C31.9263 88.4859 20.9716 87.3238 23.5065 79.6019C25.1501 75.5203 32.8013 76.325 32.6953 81.1627Z" fill="#1F79E3"/>
<path fill-rule="evenodd" clip-rule="evenodd" d="M55.6015 91.1741C56.1294 91.3087 57.1228 91.3269 57.2739 91.9412C57.0884 94.5608 60.3251 95.487 61.7244 97.311C57.4242 104.801 48.1411 97.1842 55.6015 91.1741Z" fill="#1F79E3"/>
<path fill-rule="evenodd" clip-rule="evenodd" d="M56.7789 82.4517C56.4403 81.8469 56.1495 80.5834 55.7119 81.7029C55.9903 82.0638 56.3343 83.1121 56.7789 82.4517ZM56.1222 85.3001C56.2395 84.9258 56.1573 84.898 55.7998 85.0117C55.6939 85.4589 55.6828 85.5706 56.1222 85.3001ZM53.4307 84.5034C53.903 84.5095 54.7528 84.7956 54.8036 84.1165C53.9182 83.2198 54.9074 81.6012 53.5571 80.8772C53.5512 80.8741 53.7115 80.3626 53.8926 80.2612C56.4882 78.6642 57.5077 82.0931 57.4381 84.1142C58.4471 85.0483 57.56 85.1702 56.9736 85.4963C56.6513 85.6278 56.3897 86.2038 56.0042 86.097C54.7469 84.9038 54.4925 88.7256 53.4307 84.5034Z" fill="#1F79E3"/>
<path fill-rule="evenodd" clip-rule="evenodd" d="M53.4459 84.4752C52.4365 84.3593 52.5816 83.5524 52.7633 82.8802C53.5429 83.1895 54.1345 83.5746 53.4459 84.4752Z" fill="#0C46D0"/>
<path fill-rule="evenodd" clip-rule="evenodd" d="M54.1484 86.5608C54.6979 86.4905 54.5696 86.731 54.4078 87.1795C53.7717 87.2217 53.8131 87.0863 54.1484 86.5608Z" fill="#20ACF3"/>
<path fill-rule="evenodd" clip-rule="evenodd" d="M53.1119 81.4448C52.9891 81.7638 52.8664 82.0828 52.7439 82.4018C52.3821 81.8265 52.2778 81.5696 53.1119 81.4448Z" fill="#20ACF3"/>
<path fill-rule="evenodd" clip-rule="evenodd" d="M52.4739 80.6473C52.6334 80.8068 52.7929 80.9663 52.9524 81.1258C52.7929 80.9663 52.6334 80.8068 52.4739 80.6473Z" fill="#20ACF3"/>
<path fill-rule="evenodd" clip-rule="evenodd" d="M54.3877 87.1924C54.8566 85.0519 59.7515 90.7592 56.0334 89.7851C55.4199 88.9623 55.4405 87.7349 54.3877 87.1924Z" fill="#CCCCCC"/>
<path fill-rule="evenodd" clip-rule="evenodd" d="M59.332 80.1544C59.3795 77.2636 61.7779 79.9136 61.653 78.1978C61.5487 77.1908 63.1335 77.3294 63.4789 77.912C62.6896 78.5745 63.4105 79.5955 62.9152 80.3026C61.8865 80.5792 60.3402 80.9809 59.332 80.1544Z" fill="#1F79E3"/>
<path fill-rule="evenodd" clip-rule="evenodd" d="M64.7212 85.4307C62.6185 85.49 62.0646 83.679 63.4201 82.8802C64.4413 83.5766 66.0705 84.1069 64.7212 85.4307Z" fill="#CCCCCC"/>
<path fill-rule="evenodd" clip-rule="evenodd" d="M85.1702 91.1741C87.0434 91.5039 86.8468 92.3106 86.631 93.7178C85.7767 93.863 85.7639 92.043 85.1702 91.1741Z" fill="#CCCCCC"/>
<path fill-rule="evenodd" clip-rule="evenodd" d="M63.1496 77.5262C61.1319 78.1286 62.2691 75.5107 63.4485 76.1125C64.1781 76.6153 63.6096 77.1072 63.1496 77.5262Z" fill="#CCCCCC"/>
<path fill-rule="evenodd" clip-rule="evenodd" d="M59.1726 78.3492C58.6499 78.475 58.5318 79.1505 58.2071 79.5309C56.9428 78.3839 57.7467 77.6947 59.1726 78.3492Z" fill="#1F79E3"/>
<path fill-rule="evenodd" clip-rule="evenodd" d="M58.4775 75.7414C59.0565 75.7153 59.4802 75.8778 59.8106 76.3466C58.922 77.4078 55.8065 75.4059 58.4775 75.7414Z" fill="#CCCCCC"/>
<path fill-rule="evenodd" clip-rule="evenodd" d="M61.7245 77.6452C61.5066 78.6297 61.4219 79.3812 60.5425 78.5073C59.7404 77.577 61.038 77.5712 61.7245 77.6452Z" fill="#CCCCCC"/>
<path fill-rule="evenodd" clip-rule="evenodd" d="M57.3951 75.671C57.502 76.7995 57.2602 77.3823 56.1421 76.6622C56.4243 76.1509 56.8676 74.7968 57.3951 75.671Z" fill="#1F79E3"/>
<path fill-rule="evenodd" clip-rule="evenodd" d="M61.4806 89.8981C61.6768 90.4672 62.1087 90.9285 61.7395 91.493C60.7929 90.9559 60.6303 90.7315 61.4806 89.8981Z" fill="#CCCCCC"/>
<path fill-rule="evenodd" clip-rule="evenodd" d="M67.0573 41.0534C67.6851 40.5177 68.6701 41.2487 68.6999 40.3295C69.6933 40.3002 69.2377 39.1638 69.7914 38.5408C72.3057 40.4148 70.6373 39.9949 71.2154 41.9118C72.4208 42.4395 72.2355 41.4392 72.118 40.6706C72.4138 40.7641 72.7248 40.9684 73.0013 40.9291C75.112 40.2208 73.5365 41.9759 74.9625 41.9896C74.7762 42.418 74.4904 42.9713 74.4736 43.4439C74.4605 44.1388 73.0862 44.4976 74.0264 45.3741C73.7933 45.9735 71.9989 46.6083 72.4341 45.8485C74.4774 45.3503 71.0686 43.6234 73.201 43.5968C73.491 42.5896 72.2506 42.2376 71.5233 43.316C70.3892 41.9564 68.5571 44.4197 68.4861 42.7982C69.5596 40.9482 66.4951 43.1561 67.0573 41.0534Z" fill="#CCCCCC"/>
<path fill-rule="evenodd" clip-rule="evenodd" d="M59.5423 49.3991C61.191 50.7476 59.6543 53.0345 59.2442 54.4556C58.4087 54.5007 58.2082 55.0301 58.2787 55.7662C56.9363 55.6737 56.6508 54.2178 55.6636 53.6672C57.5899 52.5917 58.5821 49.6575 57.6379 47.99C59.8696 44.4005 57.8568 50.4137 59.5423 49.3991Z" fill="#0C46D0"/>
<path fill-rule="evenodd" clip-rule="evenodd" d="M58.784 70.4662C56.5876 71.8219 54.6317 68.0919 56.7011 66.8822C57.9888 67.2163 57.3056 63.6651 58.5908 65.5942C60.8279 65.9225 57.1395 68.5691 58.6857 69.0626C59.6963 69.4979 58.6476 70.014 58.784 70.4662Z" fill="#CCCCCC"/>
<path fill-rule="evenodd" clip-rule="evenodd" d="M58.8875 65.5328C58.7984 65.5405 58.5199 65.5226 58.5573 65.5473C57.1189 64.0139 57.976 67.1718 56.6119 66.916C55.5271 65.9828 55.0617 65.3247 56.0368 64.0964C57.015 65.1524 56.7582 63.579 57.2269 63.5498C57.4135 62.7805 58.664 62.7633 58.521 61.7611C58.7643 61.7575 59.0663 61.8413 59.2373 61.7295C60.0745 59.2837 61.6571 61.155 60.5432 62.7511C58.5758 62.7883 59.1854 64.1172 58.8875 65.5328Z" fill="#0C46D0"/>
<path fill-rule="evenodd" clip-rule="evenodd" d="M67.0059 41.0927C66.7602 42.6008 67.724 41.8693 68.8354 42.0765C67.9934 43.0218 68.9888 44.7463 69.7234 45.4679C70.985 45.6206 70.4276 46.1041 69.9706 46.588C68.5495 47.5556 68.3547 45.3467 67.0231 45.5706C66.8205 44.8378 67.6281 44.1109 67.0776 43.4358C65.7849 42.3357 64.4483 41.3434 67.0059 41.0927Z" fill="#1F79E3"/>
<path fill-rule="evenodd" clip-rule="evenodd" d="M64.4729 54.4248C62.5216 53.3111 66.7871 52.5286 66.0942 54.0981C67.5269 54.8867 65.5846 57.1548 67.3067 57.3391C66.8389 59.2853 64.5937 56.4228 64.9535 55.2376C64.9849 54.9915 64.6426 54.6969 64.4729 54.4248Z" fill="#CCCCCC"/>
<path fill-rule="evenodd" clip-rule="evenodd" d="M66.6689 62.5641C64.642 62.9375 63.6257 61.546 64.3501 59.275C66.2712 59.7403 65.654 61.1056 66.6689 62.5641Z" fill="#20ACF3"/>
<path fill-rule="evenodd" clip-rule="evenodd" d="M67.4398 58.2715C68.4261 58.5215 69.3661 58.4396 70.3371 58.1586C69.4959 58.6794 70.1521 61.1595 68.8848 59.565C67.1098 60.6881 65.7514 60.4798 67.4398 58.2715Z" fill="#20ACF3"/>
<path fill-rule="evenodd" clip-rule="evenodd" d="M64.4842 54.4902C65.2164 55.7391 65.0432 57.1404 66.3499 58.0252C65.5408 59.1354 65.4897 59.072 65.1672 57.6737C64.2301 56.6367 63.9731 56.5761 63.611 58.1283C63.0634 56.5642 64.3907 55.6729 64.4842 54.4902Z" fill="#20ACF3"/>
<path fill-rule="evenodd" clip-rule="evenodd" d="M66.8096 54.8093C65.4551 53.7599 67.5093 52.7924 67.668 51.5786C67.6181 50.6927 67.6021 50.6936 68.462 51.0292C68.4617 51.0289 68.4321 51.002 68.4321 51.002C69.8718 52.9508 68.5095 52.0817 67.6313 53.3025C67.9171 54.148 67.2418 54.4018 66.8096 54.8093Z" fill="#20ACF3"/>
<path fill-rule="evenodd" clip-rule="evenodd" d="M68.4233 49.8489C72.386 48.883 72.3445 53.1642 71.412 51.5846C70.5245 50.5757 68.1937 51.4197 68.4883 50.7263C69.2801 50.409 68.6167 50.039 68.4233 49.8489Z" fill="#20ACF3"/>
<path fill-rule="evenodd" clip-rule="evenodd" d="M67.3069 52.1635C66.8971 52.7793 66.4875 53.3952 66.0777 54.0118C66.5595 52.7675 63.1483 53.3373 65.3333 51.1409C66.2244 51.5528 66.2263 52.7145 67.3069 52.1635Z" fill="#1F79E3"/>
<path fill-rule="evenodd" clip-rule="evenodd" d="M59.0167 64.774C58.9837 62.8115 59.1347 63.0385 60.7674 62.465C60.4143 65.8081 61.3857 65.3452 59.0167 64.774Z" fill="#CCCCCC"/>
<path fill-rule="evenodd" clip-rule="evenodd" d="M69.2865 44.7611C68.0135 43.1956 70.1889 42.2783 71.6133 43.2402C70.855 43.7731 70.136 44.3593 69.2865 44.7611Z" fill="#20ACF3"/>
<path fill-rule="evenodd" clip-rule="evenodd" d="M61.9825 58.2583C63.2254 59.6622 62.0469 61.7665 61.1877 59.1375C60.8194 58.4992 60.3612 58.6099 59.8858 59.0068C59.5192 56.6353 60.5357 57.6716 61.9825 58.2583Z" fill="#20ACF3"/>
<path fill-rule="evenodd" clip-rule="evenodd" d="M59.1726 54.4935C59.5479 53.905 60.0823 50.8021 60.9073 52.7113C60.3346 53.238 60.8449 53.4531 61.2238 53.7059C61.4353 54.8197 60.0901 55.4646 59.1726 54.4935Z" fill="#1F79E3"/>
<path fill-rule="evenodd" clip-rule="evenodd" d="M61.9064 58.3181C59.2605 57.6259 60.9992 57.1067 61.1265 55.2877C63.0895 55.3352 62.198 57.0906 61.9064 58.3181Z" fill="#1F79E3"/>
<path fill-rule="evenodd" clip-rule="evenodd" d="M58.7681 70.5255C58.6352 70.0716 59.6568 69.5536 58.6726 69.1172C57.0262 65.0316 62.94 71.3409 58.7681 70.5255Z" fill="#1F79E3"/>
<path fill-rule="evenodd" clip-rule="evenodd" d="M64.8347 48.0497C64.4031 46.5684 65.8005 45.4073 67.1473 46.4166C66.3994 47.1101 66.0919 48.8884 64.8347 48.0497Z" fill="#1F79E3"/>
<path fill-rule="evenodd" clip-rule="evenodd" d="M69.329 54.6467C68.9266 53.7521 69.7591 52.8329 69.9807 51.9384C70.2203 53.1085 71.6995 54.7299 69.329 54.6467Z" fill="#CCCCCC"/>
<path fill-rule="evenodd" clip-rule="evenodd" d="M65.4611 51.2096C63.6722 53.1456 64.0341 47.4797 65.7118 49.5163C65.3946 50.6153 64.507 49.9909 65.4611 51.2096Z" fill="#CCCCCC"/>
<path fill-rule="evenodd" clip-rule="evenodd" d="M63.2455 65.4953C62.9168 65.2036 62.9214 64.6556 62.6939 64.2987C62.5104 64.0069 61.7289 63.8736 62.6244 63.4501C64.2719 62.1677 64.2865 64.7992 63.2455 65.4953Z" fill="#20ACF3"/>
<path fill-rule="evenodd" clip-rule="evenodd" d="M65.434 58.3761C65.8843 59.5403 65.5334 58.315 66.4164 58.3181C69.5846 58.4894 63.0972 61.782 65.434 58.3761Z" fill="#CCCCCC"/>
<path fill-rule="evenodd" clip-rule="evenodd" d="M64.7549 67.0405C64.1917 67.7263 63.9476 69.261 63.227 69.3232C62.9231 68.5259 63.6903 65.5054 64.7549 67.0405Z" fill="#20ACF3"/>
<path fill-rule="evenodd" clip-rule="evenodd" d="M60.9419 52.6614C60.6758 49.7233 64.094 53.0578 61.6152 53.3738C62.3271 52.2477 61.1119 52.9506 60.9419 52.6614Z" fill="#20ACF3"/>
<path fill-rule="evenodd" clip-rule="evenodd" d="M75.4202 36.9064C75.5855 37.8767 74.7195 40.2757 74.3245 38.5996C74.546 38.1208 74.6721 36.307 75.4202 36.9064Z" fill="#CCCCCC"/>
<path fill-rule="evenodd" clip-rule="evenodd" d="M58.9327 64.7785C59.7012 64.4672 59.9888 65.1358 60.4485 65.4535C60.3407 67.1836 58.4482 65.8752 58.9327 64.7785Z" fill="#1F79E3"/>
<path fill-rule="evenodd" clip-rule="evenodd" d="M65.0492 69.4465C62.7109 70.4037 65.3811 67.4752 66.4363 68.648C66.8259 69.6014 65.5548 69.0722 65.0492 69.4465Z" fill="#1F79E3"/>
<path fill-rule="evenodd" clip-rule="evenodd" d="M61.9039 60.3915C62.7133 60.3935 63.2295 62.4062 61.6905 61.6617C60.4238 62.3111 60.9014 60.6737 61.9039 60.3915Z" fill="#CCCCCC"/>
<path fill-rule="evenodd" clip-rule="evenodd" d="M69.8786 47.5146C70.3004 48.0575 70.1502 48.733 70.1574 49.3863C69.8131 48.6578 68.4079 47.2069 69.8786 47.5146Z" fill="#20ACF3"/>
<path fill-rule="evenodd" clip-rule="evenodd" d="M61.8847 55.276C60.7934 55.4077 61.0412 54.3999 61.349 53.6927C62.374 53.8492 62.374 53.8492 61.8847 55.276Z" fill="#CCCCCC"/>
<path fill-rule="evenodd" clip-rule="evenodd" d="M67.3794 57.2017C66.2288 57.1815 66.8231 56.0596 66.815 55.2877C67.4417 55.7842 67.5829 56.4375 67.3794 57.2017Z" fill="#1F79E3"/>
<path fill-rule="evenodd" clip-rule="evenodd" d="M70.3245 58.2506C69.2981 58.4044 68.3502 58.8911 69.2826 57.6802C69.632 57.8669 70.4493 57.3144 70.3245 58.2506Z" fill="#CCCCCC"/>
<path fill-rule="evenodd" clip-rule="evenodd" d="M79.1094 46.9704C78.7039 47.3402 78.3074 48.0184 77.9929 47.3477C78.4157 46.853 78.6543 45.9741 79.1094 46.9704Z" fill="#CCCCCC"/>
<path fill-rule="evenodd" clip-rule="evenodd" d="M69.9466 47.5944C69.0869 47.7899 68.8092 47.1917 68.4233 46.5155C69.3087 47.2234 70.2946 46.0893 69.9466 47.5944Z" fill="#CCCCCC"/>
<path fill-rule="evenodd" clip-rule="evenodd" d="M87.071 33.2774C86.3927 32.5478 86.4998 32.3825 87.1097 31.8419C87.5301 32.396 87.4826 32.6222 87.071 33.2774Z" fill="#CCCCCC"/>
<path fill-rule="evenodd" clip-rule="evenodd" d="M60.8442 52.5763C61.0113 52.8654 62.2063 52.1627 61.5064 53.2881C61.1667 53.9278 60.1523 53.1817 60.8442 52.5763Z" fill="#CCCCCC"/>
<path fill-rule="evenodd" clip-rule="evenodd" d="M75.7601 48.4775C75.0411 48.7776 74.9859 48.8906 74.4841 48.4892C74.9677 47.9417 75.0186 48.0322 75.7601 48.4775Z" fill="#CCCCCC"/>
<path fill-rule="evenodd" clip-rule="evenodd" d="M74.9626 41.8901C74.9957 41.4227 75.2324 41.3911 75.6006 41.4188C75.4817 41.7414 75.2146 41.8373 74.9626 41.8901Z" fill="#CCCCCC"/>
<path fill-rule="evenodd" clip-rule="evenodd" d="M87.1609 33.9154C86.9263 33.877 86.8402 33.7368 87.0235 33.5971C87.2659 33.585 87.3023 33.7457 87.1609 33.9154Z" fill="#CCCCCC"/>
<path fill-rule="evenodd" clip-rule="evenodd" d="M71.9754 39.9761C71.8124 39.6703 72.1433 39.8852 72.4106 39.9588C72.2654 39.9644 72.1204 39.9703 71.9754 39.9761Z" fill="#CCCCCC"/>
<path fill-rule="evenodd" clip-rule="evenodd" d="M63.16 58.7438C63.1177 58.8838 63.0595 59.0737 63.0005 58.8601C63.0382 58.6856 63.0698 58.5234 63.16 58.7438Z" fill="#20ACF3"/>
<path fill-rule="evenodd" clip-rule="evenodd" d="M64.4355 59.2335C64.3975 59.2743 64.3339 59.2866 64.2766 59.2636C64.2937 59.0743 64.3104 59.0692 64.4355 59.2335Z" fill="#CCCCCC"/>
<path fill-rule="evenodd" clip-rule="evenodd" d="M66.6821 62.5695C66.7263 62.553 66.7706 62.5364 66.8148 62.52C66.77 62.5344 66.7064 62.5226 66.6821 62.5695Z" fill="#20ACF3"/>
<path fill-rule="evenodd" clip-rule="evenodd" d="M68.4232 49.7044C68.37 49.6515 68.3167 49.5988 68.2637 49.5459C68.3182 49.5882 68.3595 49.718 68.4232 49.7044Z" fill="#20ACF3"/>
<path fill-rule="evenodd" clip-rule="evenodd" d="M57.779 57.0923C57.7172 57.183 57.7081 57.1997 57.826 57.198L57.779 57.0923ZM56.8672 59.0238C55.6943 59.2432 56.8855 60.0334 56.9951 60.7105C54.6385 60.5461 54.7918 58.5899 54.7068 56.6812C56.4096 56.7445 59.6382 55.7313 58.4297 58.6918C57.7266 57.9066 57.2599 58.2835 56.8672 59.0238Z" fill="#20ACF3"/>
<path fill-rule="evenodd" clip-rule="evenodd" d="M57.2587 63.4617C56.7984 63.491 57.0506 65.0556 56.0897 64.0055C55.4515 65.8018 54.6256 65.8209 54.7132 63.8066C55.5602 62.925 56.2105 62.2011 57.2587 63.4617Z" fill="#20ACF3"/>
<path fill-rule="evenodd" clip-rule="evenodd" d="M56.78 59.0617C57.1867 58.3449 57.6701 57.9798 58.3984 58.7399C61.4941 61.459 58.8297 60.7341 56.78 59.0617Z" fill="#1F79E3"/>
<path fill-rule="evenodd" clip-rule="evenodd" d="M55.0257 66.8986C54.2925 68.3087 53.5383 67.0818 52.7927 66.9155C53.2485 65.8471 54.2794 66.3667 55.0257 66.8986Z" fill="#0C46D0"/>
<path fill-rule="evenodd" clip-rule="evenodd" d="M52.3128 60.87C51.4961 60.2956 52.5023 60.2292 52.5947 59.9085C53.989 58.4807 54.3739 60.7198 52.3128 60.87Z" fill="#1F79E3"/>
<path fill-rule="evenodd" clip-rule="evenodd" d="M53.4245 56.7231C51.9382 54.9595 54.4077 55.1155 54.7066 56.63C54.3497 56.6354 53.8357 56.699 53.4245 56.7231Z" fill="#1F79E3"/>
<path fill-rule="evenodd" clip-rule="evenodd" d="M55.9826 62.6281C55.5151 63.0522 55.0477 63.4763 54.5802 63.9004C54.4374 62.5035 54.7298 62.2383 55.9826 62.6281Z" fill="#0C46D0"/>
<path fill-rule="evenodd" clip-rule="evenodd" d="M55.0257 66.7713C54.4052 66.5551 53.9922 65.4618 54.979 65.4962C54.9943 65.9218 55.01 66.3467 55.0257 66.7713Z" fill="#20ACF3"/>
<path fill-rule="evenodd" clip-rule="evenodd" d="M54.6634 63.9004C54.85 64.9548 54.4311 64.9865 53.4307 64.7099C53.8155 64.4041 54.2068 64.1113 54.6634 63.9004Z" fill="#0C46D0"/>
<path fill-rule="evenodd" clip-rule="evenodd" d="M53.7497 66.2929C53.2083 66.2857 53.2356 66.0538 53.3141 65.6549C53.4593 65.8675 53.6046 66.0803 53.7497 66.2929Z" fill="#1F79E3"/>
<path fill-rule="evenodd" clip-rule="evenodd" d="M69.6992 28.5828C71.2008 27.6156 71.4723 29.8238 72.6731 29.0654C76.6569 28.1872 70.5167 32.1232 69.6992 28.5828Z" fill="#1F79E3"/>
<path fill-rule="evenodd" clip-rule="evenodd" d="M64.2053 42.6764C65.0817 42.2189 66.097 42.8876 66.1903 43.7579C65.2582 43.8287 65.789 44.5558 65.652 44.9847C65.6155 45.0986 65.4128 45.1561 65.2864 45.2395C64.9257 43.884 62.9625 44.6816 64.2053 42.6764Z" fill="#0C46D0"/>
<path fill-rule="evenodd" clip-rule="evenodd" d="M61.2654 41.6192C61.1841 41.1189 60.7139 40.4917 61.7322 40.377C62.8783 37.7915 62.8221 43.118 61.2654 41.6192Z" fill="#1F79E3"/>
<path fill-rule="evenodd" clip-rule="evenodd" d="M64.117 42.7783C64.0706 43.659 62.9688 44.7022 63.0012 43.2169C63.1935 42.4969 63.6683 42.6916 64.117 42.7783Z" fill="#20ACF3"/>
<path fill-rule="evenodd" clip-rule="evenodd" d="M61.3739 41.5712C61.7459 41.8217 61.5045 41.9738 61.2461 42.2091C61.2887 41.9965 61.3314 41.7838 61.3739 41.5712Z" fill="#0C46D0"/>
<path fill-rule="evenodd" clip-rule="evenodd" d="M64.9553 45.6308L65.0328 45.601C65.0177 45.6826 65.0182 45.7041 64.9553 45.6308Z" fill="#0C46D0"/>
<path fill-rule="evenodd" clip-rule="evenodd" d="M54.5393 48.2699C51.6839 45.4937 59.6582 46.6627 56.2232 47.4041C55.2708 46.9882 54.9242 47.6346 54.5393 48.2699Z" fill="#20ACF3"/>
<path fill-rule="evenodd" clip-rule="evenodd" d="M54.5226 46.1702C54.0128 48.329 52.5757 46.3988 53.6757 45.441C54.5434 45.0767 54.2397 44.3771 54.3864 43.8041C55.0501 44.5557 55.3508 45.3291 54.5226 46.1702Z" fill="#CCCCCC"/>
<path fill-rule="evenodd" clip-rule="evenodd" d="M52.3144 45.7618C51.8597 46.7252 51.4189 44.8845 51.3574 44.442C51.7939 44.7919 52.1317 45.2105 52.3144 45.7618Z" fill="#20ACF3"/>
<path fill-rule="evenodd" clip-rule="evenodd" d="M50.9982 50.1838C50.568 49.4517 51.4074 49.7998 51.8359 49.7208C51.557 49.8754 51.2775 50.0296 50.9982 50.1838Z" fill="#0C46D0"/>
<path fill-rule="evenodd" clip-rule="evenodd" d="M52.0694 48.1458L52.1188 48.2336C52.0156 48.2383 52.0103 48.2314 52.0694 48.1458Z" fill="#CCCCCC"/>
<path fill-rule="evenodd" clip-rule="evenodd" d="M56.4365 80.6474C55.6538 80.0612 54.4799 79.0244 54.745 78.0955C55.8393 78.611 56.6115 79.33 56.4365 80.6474Z" fill="#0C46D0"/>
<path fill-rule="evenodd" clip-rule="evenodd" d="M58.5346 74.8057C58.3311 74.8984 58.0638 74.994 58.0562 74.7565C58.3024 74.5777 58.4409 74.4675 58.5346 74.8057Z" fill="#CCCCCC"/>
<path fill-rule="evenodd" clip-rule="evenodd" d="M67.2078 38.8765C68.2818 38.7805 68.0981 39.0915 68.0834 39.9751C67.3776 39.9958 66.9899 39.7191 67.2078 38.8765Z" fill="#CCCCCC"/>
<path fill-rule="evenodd" clip-rule="evenodd" d="M68.7422 40.2616C68.658 40.6078 68.6076 41.0159 68.1058 40.5939C68.0838 40.0189 68.2965 39.7181 68.7422 40.2616Z" fill="#20ACF3"/>
<path fill-rule="evenodd" clip-rule="evenodd" d="M62.5808 40.2952C62.3722 39.8267 62.7673 39.9706 63.0005 40.1236C62.8606 40.1808 62.7208 40.238 62.5808 40.2952Z" fill="#CCCCCC"/>
<path fill-rule="evenodd" clip-rule="evenodd" d="M62.546 41.2522C62.4325 40.7573 62.7444 40.9524 63.0005 41.0856C62.8487 41.1412 62.6973 41.1966 62.546 41.2522Z" fill="#CCCCCC"/>
<path fill-rule="evenodd" clip-rule="evenodd" d="M54.5471 48.1951C54.9846 46.9324 57.31 46.7725 57.712 47.9643C56.3445 47.9795 57.4163 48.814 57.7035 49.5096C58.3336 50.4293 57.2815 53.3913 56.551 52.3618C57.3661 48.0667 55.8402 50.3027 54.5471 48.1951Z" fill="#1F79E3"/>
<path fill-rule="evenodd" clip-rule="evenodd" d="M54.5012 55.0626C55.424 55.1803 54.9488 54.2725 55.6472 53.6927C56.4349 54.7516 58.1927 55.4575 58.3751 56.5875C56.9153 56.3775 53.7506 57.6612 54.5012 55.0626Z" fill="#CCCCCC"/>
<path fill-rule="evenodd" clip-rule="evenodd" d="M54.8429 49.0757C56.9192 48.9217 56.7432 50.9444 56.4347 52.3535C55.5444 52.7483 55.0296 51.1859 55.1185 50.692C55.6214 49.7419 54.2928 49.7506 54.8429 49.0757Z" fill="#CCCCCC"/>
<path fill-rule="evenodd" clip-rule="evenodd" d="M54.5938 49.3864C55.4936 50.0914 54.779 51.2959 55.6636 52.4168C54.6592 51.6027 53.3101 50.5882 54.5938 49.3864Z" fill="#1F79E3"/>
<path fill-rule="evenodd" clip-rule="evenodd" d="M55.0258 53.0548C54.6734 52.976 54.6067 52.9037 54.8569 52.5763C54.9132 52.7358 54.9694 52.8952 55.0258 53.0548Z" fill="#CCCCCC"/>
<path fill-rule="evenodd" clip-rule="evenodd" d="M57.5794 47.9509C57.1241 47.2989 56.6451 45.5494 57.9147 45.7312C58.5015 46.5949 58.1435 47.1947 57.5794 47.9509Z" fill="#CCCCCC"/>
<path fill-rule="evenodd" clip-rule="evenodd" d="M60.608 36.9875C60.2952 37.0125 59.7895 36.9271 59.7029 37.0819C57.2776 38.8707 59.8958 32.8652 60.608 36.9875Z" fill="#1F79E3"/>
<path fill-rule="evenodd" clip-rule="evenodd" d="M61.246 34.8011C61.1167 35.1086 60.9883 35.1143 60.927 34.7845C61.0152 34.4569 61.1436 34.4912 61.246 34.8011Z" fill="#CCCCCC"/>
<path fill-rule="evenodd" clip-rule="evenodd" d="M60.7676 33.7559C60.821 33.6496 60.8742 33.5432 60.9271 33.4369C60.8736 33.5433 60.8207 33.6496 60.7676 33.7559Z" fill="#CCCCCC"/>
<path fill-rule="evenodd" clip-rule="evenodd" d="M58.4255 31.6825C58.8231 31.7587 58.7407 31.8086 58.4283 32.0015C58.3964 31.8873 58.3277 31.7815 58.4255 31.6825Z" fill="#20ACF3"/>
<path fill-rule="evenodd" clip-rule="evenodd" d="M59.4915 31.7201C59.598 31.6543 59.7041 31.5887 59.8104 31.5229C59.7 31.7007 59.6666 32.0167 59.4915 31.7201Z" fill="#20ACF3"/>
<path fill-rule="evenodd" clip-rule="evenodd" d="M60.608 31.739C60.5569 31.8079 60.5067 31.7928 60.4485 31.7424C60.5014 31.7412 60.5547 31.7401 60.608 31.739Z" fill="#0C46D0"/>
<path fill-rule="evenodd" clip-rule="evenodd" d="M59.4915 31.8006C59.4383 31.8676 59.3851 31.9345 59.332 32.0015C59.3774 31.8176 59.3544 31.5133 59.4915 31.8006Z" fill="#20ACF3"/>
<path fill-rule="evenodd" clip-rule="evenodd" d="M67.5441 38.2218C67.4077 38.1912 67.4825 38.1332 67.5501 38.0623C67.6506 38.1264 67.6493 38.1636 67.5441 38.2218Z" fill="#CCCCCC"/>
<path fill-rule="evenodd" clip-rule="evenodd" d="M71.5516 28.8116C70.8383 28.1709 71.0897 28.1798 71.9322 28.1736C71.8052 28.3862 71.6784 28.5989 71.5516 28.8116Z" fill="#20ACF3"/>
<path fill-rule="evenodd" clip-rule="evenodd" d="M71.2941 90.7133C70.2107 92.1669 69.8738 92.7956 68.7422 91.1686C69.6424 90.674 70.2512 89.9399 71.2941 90.7133Z" fill="#1F79E3"/>
<path fill-rule="evenodd" clip-rule="evenodd" d="M73.8709 95.4705C73.4237 95.524 72.9688 95.5427 72.5306 95.6398C69.9512 95.4033 74.8645 93.0001 73.8709 95.4705Z" fill="#CCCCCC"/>
<path fill-rule="evenodd" clip-rule="evenodd" d="M67.6257 98.572C67.7909 98.2939 68.2384 98.3165 68.5267 98.1918C68.8268 98.5229 67.8325 98.8349 67.6257 98.572Z" fill="#CCCCCC"/>
<path fill-rule="evenodd" clip-rule="evenodd" d="M74.8618 91.8121C74.637 91.62 73.8883 91.5113 74.2732 91.1741C74.4615 91.3216 75.2359 91.5299 74.8618 91.8121Z" fill="#CCCCCC"/>
<path fill-rule="evenodd" clip-rule="evenodd" d="M75.0745 91.6525C75.1164 91.9316 75.494 92.293 75.1129 92.4499C75.1046 92.1902 74.8057 91.8121 75.0745 91.6525Z" fill="#CCCCCC"/>
<path fill-rule="evenodd" clip-rule="evenodd" d="M67.7853 98.6166C67.6789 98.7407 67.5727 98.8649 67.4663 98.9892C67.5628 98.7857 67.5194 98.2964 67.7853 98.6166Z" fill="#CCCCCC"/>
<path fill-rule="evenodd" clip-rule="evenodd" d="M83.4101 102.845C83.412 102.995 83.4138 103.145 83.4157 103.296C83.2801 103.057 82.7744 102.718 83.4101 102.845Z" fill="#20ACF3"/>
<path fill-rule="evenodd" clip-rule="evenodd" d="M56.78 82.3436C56.315 83.0164 55.9551 81.9485 55.6636 81.581C56.122 80.441 56.4256 81.7276 56.78 82.3436Z" fill="#CCCCCC"/>
<path fill-rule="evenodd" clip-rule="evenodd" d="M58.2682 56.5637C58.2256 55.7047 57.9658 54.5209 59.1733 54.4902C60.8715 55.071 59.5126 56.4621 58.2682 56.5637Z" fill="#20ACF3"/>
<path fill-rule="evenodd" clip-rule="evenodd" d="M57.5655 49.5459C57.4434 49.3281 57.3606 49.073 57.1921 48.8991C56.0556 47.2478 59.2229 48.5487 57.5655 49.5459Z" fill="#20ACF3"/>
<path fill-rule="evenodd" clip-rule="evenodd" d="M58.6298 65.525C58.5714 65.4968 58.6148 65.5936 58.6092 65.6304C58.616 65.5953 58.6229 65.5602 58.6298 65.525Z" fill="#1F79E3"/>
<path fill-rule="evenodd" clip-rule="evenodd" d="M58.741 57.3741C60.3402 57.1986 60.0739 58.8354 59.6292 59.913C58.7164 59.1685 58.232 58.5339 58.741 57.3741Z" fill="#CCCCCC"/>
<path fill-rule="evenodd" clip-rule="evenodd" d="M57.83 57.0717C57.8785 57.1662 57.8852 57.1835 57.7705 57.1662L57.83 57.0717Z" fill="#CCCCCC"/>
<path fill-rule="evenodd" clip-rule="evenodd" d="M54.5457 55.0345C54.5738 56.1052 54.1858 55.7949 53.4307 55.3932C53.5496 54.412 53.8084 54.5218 54.5457 55.0345Z" fill="#20ACF3"/>
</svg>
