<svg width="109" height="126" viewBox="0 0 109 126" fill="none" xmlns="http://www.w3.org/2000/svg">
<path fill-rule="evenodd" clip-rule="evenodd" d="M28.6442 28.2302C28.5156 30.3325 28.3869 32.4346 28.2583 34.537C29.0857 34.2986 34.3494 32.7499 34.0243 34.3202C33.791 35.4465 32.3111 36.6649 31.5572 37.449C30.8633 38.171 30.1487 38.874 29.4159 39.5566C30.7627 39.0411 32.1207 38.5529 33.4885 38.0961C34.5234 37.7506 35.5659 37.4132 36.6264 37.1542C37.0201 37.058 38.083 36.6654 38.4549 36.9331C39.4321 37.6364 34.13 42.8163 33.4036 43.5464C34.4306 43.0688 35.4822 42.635 36.5518 42.2627C37.3239 41.9939 39.7096 40.9667 40.393 41.8438C41.1244 42.7824 39.3124 44.9375 38.8099 45.6209C38.0898 46.6 37.3096 47.5393 36.4908 48.4374C39.8937 51.4938 43.8924 54.2141 48.148 55.905C51.2684 57.1447 54.3334 57.4603 57.626 56.78C61.0086 56.081 64.2526 54.7404 67.3364 53.2078C69.1474 52.3075 70.9346 51.3335 72.6372 50.2393C71.9353 49.3854 71.2539 48.514 70.5917 47.6291C69.6467 46.3656 68.4853 44.9851 67.9465 43.4811C67.4191 42.009 69.3976 42.2964 70.3465 42.3764C71.7208 42.4921 73.0912 42.7378 74.438 43.0317C73.4858 42.3694 72.5508 41.6805 71.6346 40.9693C70.4405 40.0426 68.8477 38.9945 68.0661 37.6612C67.3788 36.4887 68.8873 36.7848 69.5848 36.9384C71.2478 37.3048 72.8659 37.9291 74.452 38.5379C75.6136 38.9839 76.768 39.4509 77.9113 39.9427C77.2016 39.3259 76.5158 38.6795 75.8567 38.0092C74.9706 37.1084 73.7759 36.0082 73.3787 34.7677C72.5698 32.2414 78.0113 34.1471 78.9404 34.537C78.7686 31.9199 78.5973 29.3028 78.4257 26.6858C71.2205 28.603 64.0152 30.5204 56.8098 32.4379C56.0312 32.6451 55.0567 33.0964 54.2446 33.1204C53.509 33.1424 52.6206 32.8113 51.9034 32.6743L38.8646 30.183C35.4578 29.5321 32.051 28.8811 28.6442 28.2302Z" fill="#CCCCCC"/>
<path fill-rule="evenodd" clip-rule="evenodd" d="M49.1405 0.325268C49.6765 -0.227952 49.9557 -0.0227684 50.304 0.54523C50.5227 0.901602 50.7135 1.53705 51.0601 1.72632C51.8281 2.14597 52.0445 1.36994 52.4521 1.05431C53.0259 0.610214 53.5457 1.18863 54.111 1.34664C54.6752 1.50446 55.4123 1.22861 55.9229 1.55126C56.6215 1.99289 56.4263 2.81968 56.6201 3.4646C56.8051 4.07921 57.2255 3.80733 57.6812 4.05515C58.1554 4.31281 58.0602 4.6671 58.0623 5.17314C58.0634 5.42058 58.0962 5.69946 58.0699 5.94273C58.0206 6.39515 57.8669 6.36408 57.6924 6.67612C57.2486 7.4692 58.1193 7.49761 58.4612 8.19255C58.6357 8.54779 58.5501 8.45893 58.5234 8.74804C58.5338 8.63456 58.3135 9.17736 58.3449 9.12582C58.2202 9.33006 58.4615 9.28933 58.1992 9.46211C58.1304 9.50739 57.9538 9.42669 57.8751 9.45283C57.5847 9.54908 57.5078 9.6332 57.257 9.82398C56.6633 10.2758 56.5092 10.0665 55.9774 9.59379C55.8691 9.85107 55.8173 10.2307 55.9085 10.5049C55.9509 10.6322 56.2476 10.9134 56.2375 11.0121C56.229 11.0964 55.8754 11.2231 55.8006 11.3135C55.6514 11.4933 55.6202 11.6435 55.5816 11.8762C55.0542 11.646 54.7761 11.9258 55.3393 12.1947C55.9577 12.4897 56.9692 12.3982 57.6462 12.4961C58.4044 12.6056 59.2116 12.7411 59.8959 13.1031C60.5712 13.4606 61.0626 14.0747 61.6041 14.6004C62.1184 15.0998 62.5714 15.5627 62.7723 16.2692C62.9283 16.8188 62.8713 17.5194 63.4951 17.7424C64.052 17.9415 65.0268 17.6572 65.615 17.6717C66.563 17.6951 67.5052 17.8201 68.4355 18.0003C74.6079 19.1965 80.1706 22.6801 85.3181 26.1692C87.8126 27.8599 90.197 29.9074 91.9064 32.3921C92.8168 33.7155 94.0038 34.8422 94.9426 36.1535C95.8439 37.4126 96.7243 38.7059 97.5422 40.0213C98.3725 41.3568 98.9033 42.8313 99.5443 44.2616C100.211 45.7488 100.912 47.2198 101.511 48.7362C101.82 49.5187 102.092 50.3123 102.367 51.1071C102.485 51.4473 102.643 51.788 102.738 52.1345C102.81 52.3981 102.742 52.612 102.786 52.8503C102.892 53.4238 103.188 54.002 103.312 54.6185C103.463 55.3686 103.655 56.1041 103.77 56.8621C104.01 58.4469 104.171 60.0946 104.118 61.698C104.092 62.5148 104.01 63.3293 103.994 64.1464C103.982 64.7356 104.142 65.4599 103.928 66.0274C103.819 66.3157 103.559 66.4584 103.443 66.723C103.315 67.0148 103.394 67.2878 103.364 67.5974C103.311 68.1339 103.085 68.4816 102.863 68.9265C102.341 69.9704 101.557 70.6757 101.496 71.9639C101.242 71.8322 100.989 71.7005 100.735 71.5688C100.735 72.0036 100.866 72.1759 100.552 72.4989C100.401 72.5029 100.257 72.5377 100.121 72.6033C100.078 72.6715 100.049 72.7452 100.034 72.824C100.065 72.8022 99.8243 73.007 99.8464 72.9879L99.8164 73.014C99.5557 73.2438 99.5525 73.3421 99.4833 73.769C99.0814 73.7594 99.199 73.3441 98.9605 73.1461C98.9353 73.2751 98.9239 73.4054 98.9262 73.5367C98.9186 73.5513 98.6833 73.805 98.6704 73.8236C98.629 73.8821 98.702 73.9551 98.6364 74.0388C98.4281 74.3058 98.1349 74.4111 97.8186 74.5079C97.1304 74.7188 96.3936 74.6636 95.7119 74.7822C95.0969 74.8893 94.4509 74.5795 93.8603 74.6392C93.5333 74.6722 93.5006 74.615 93.3478 75.0196C93.2147 75.3717 93.2393 75.8502 93.1754 76.2197C92.8482 78.1074 92.3494 80.0248 91.6883 81.8229C91.4632 82.4351 90.0995 84.33 91.0284 84.7002C91.5062 84.8906 92.2759 84.4932 92.7871 84.4922C93.6547 84.4903 94.5567 84.7459 95.4041 84.913C97.2338 85.2737 99.1111 85.764 100.854 86.4362C101.605 86.7259 102.263 87.1791 102.8 87.7841C103.035 88.0491 103.2 88.3701 103.493 88.5555C103.79 88.7433 104 88.6842 104.249 88.9816C105.175 90.0882 104.014 91.7415 102.785 91.9571C102.515 92.0044 102.206 91.7398 101.991 91.911C101.836 92.0344 101.778 92.3508 101.634 92.5158C101.445 92.7342 100.826 93.2869 100.649 92.8557C100.547 92.6069 101.024 92.5274 100.79 92.2773C100.636 92.1123 100.298 92.4538 100.223 92.5637C99.8958 93.0408 100.079 93.4917 99.3005 93.0883C99.591 92.9847 99.6295 92.9006 99.4157 92.836C99.3764 92.7528 99.3164 92.6905 99.2352 92.6492C98.8395 92.8267 99.1793 93.051 98.9639 93.2575C98.7666 93.4466 98.4361 93.2996 98.1992 93.3244C97.7989 93.3665 97.7156 93.5584 97.2697 93.4112C97.4912 92.9248 97.2016 93.0023 96.7586 92.8345C96.6284 93.0542 96.854 93.187 96.9888 93.3074C96.76 93.4618 96.4971 93.5317 96.2332 93.5939L96.1013 93.6247C96.0084 93.2085 96.0061 92.889 95.4823 93.1177C95.4238 93.1431 95.2695 93.1082 95.2222 93.1579C95.1148 93.27 95.3388 93.4837 95.2695 93.5618C94.9713 93.8977 95.0794 93.6484 94.7209 93.6012C94.3137 93.5476 93.9635 93.6406 93.5536 93.67C92.4333 93.7499 91.3036 93.6133 90.1782 93.7024C89.707 93.7397 89.4083 93.8473 88.9946 93.9964C88.5793 94.1461 88.584 94.2869 88.4118 93.778C88.2276 94.1469 88.1304 93.8714 87.8616 94.0491C87.71 94.1491 87.5777 94.3424 87.4213 94.4263C86.9075 94.7016 86.5556 94.4426 86.0431 94.4557C86.2004 94.737 86.4806 94.7171 86.2169 94.9424C86.1204 95.025 85.4833 94.9509 85.3118 95.0172C85.0705 95.1106 84.9078 95.3543 84.6689 95.4386C84.5127 95.4939 84.3297 95.4308 84.1752 95.4712C83.8023 95.5685 83.7504 95.5752 83.3053 95.5864C83.4731 96.1814 82.2462 95.8569 82.0504 95.8787C81.456 95.9446 81.0772 96.5909 80.4112 96.6998C80.5704 97.2659 81.4297 97.8275 81.8299 98.2143C82.2605 98.6306 82.6816 99.0953 83.1582 99.4589C84.2434 100.286 85.5061 100.998 86.6603 101.735C89.027 103.247 91.7629 104.137 94.2709 105.415C95.5936 106.089 96.7931 106.952 97.974 107.846C99.0186 108.637 100.158 109.23 101.192 110.021C103.474 111.767 105.889 113.572 107.598 115.896C109.812 118.906 106.779 121.084 104.116 121.988C101.464 122.888 98.823 123.197 96.0807 123.218C94.5126 123.23 92.966 123.484 91.3955 123.437C90.4143 123.407 89.1414 124.106 88.6202 122.926C88.3033 122.209 88.4854 122.092 87.6254 121.872C87.0771 121.732 86.6201 121.655 86.06 121.594C84.7539 121.452 83.5535 120.777 82.257 120.528C79.3336 119.968 76.6104 118.729 73.8278 117.718C73.1254 117.463 72.3953 117.267 71.7022 116.988C71.0595 116.73 70.4899 116.324 69.8528 116.054C68.6144 115.53 67.2426 115.346 65.9707 114.913C64.8059 114.517 63.6626 113.925 62.5624 113.378C61.4509 112.826 60.2316 112.831 59.2818 111.94C58.2614 110.984 57.367 109.557 56.7456 108.31C56.4891 107.796 56.4009 107.196 56.1292 106.695C55.7932 106.076 55.2368 106.035 54.7098 105.635C53.8407 104.977 53.3367 103.695 52.4105 103.172C51.2371 102.509 50.3036 103.381 49.4552 104.072C48.9181 104.509 48.2746 104.865 47.8515 105.428C47.4574 105.952 47.5232 106.382 47.4566 106.981C47.3877 107.599 47.2382 109.294 46.4732 108.596C46.4052 109.157 46.3444 109.1 46.0981 109.505C45.831 109.944 45.7322 110.409 45.8361 110.913C45.6852 110.813 45.5344 110.714 45.3837 110.614C45.4293 110.875 45.4976 111.079 45.3193 111.308C45.1088 111.066 45.0123 110.021 44.4521 110.675C44.125 111.057 44.4135 111.525 44.7287 111.707C44.3614 111.707 44.2151 111.656 43.887 111.779C43.7575 111.828 43.6125 111.989 43.4628 112.04C43.2681 112.107 43.1782 111.885 42.843 112.104C42.6457 112.232 42.5156 112.468 42.3411 112.625C41.168 113.675 39.6707 114.258 38.2164 114.768C35.0904 115.866 32.2689 117.602 29.4175 119.241C27.1401 120.55 25.1634 122.248 22.8513 123.517C21.5659 124.223 20.2845 125.198 18.7893 125.354C17.5234 125.486 16.1261 125.568 14.8686 125.414C11.9197 125.051 8.89225 125.311 5.95133 124.665C3.61298 124.152 0.694779 123.058 0.314078 120.371C-0.0668115 117.681 2.40424 115.696 3.95658 113.84C5.79761 111.639 8.0962 110.291 10.4707 108.732C13.086 107.015 15.5834 105.06 18.0223 103.102C20.2832 101.287 22.369 99.2149 24.0989 96.8699C23.8602 96.8332 23.4352 96.6238 23.201 96.7117C23.0403 96.772 22.8318 97.1835 22.7122 97.1727C22.6079 97.1632 22.6126 97.0166 22.3945 97.0009C22.1242 96.9815 21.8416 97.0209 21.526 96.9624C21.3034 96.9213 20.9075 96.9201 20.7074 96.8349C20.5757 96.7786 20.4361 96.606 20.3332 96.5659C20.0467 96.4539 19.7696 96.6756 19.4682 96.559C19.2668 96.481 19.1886 96.2218 18.9559 96.2133C18.7503 96.2059 18.703 96.4664 18.5264 96.4797C18.3045 96.4961 18.0491 96.2515 17.8407 96.1752C17.3165 95.9833 16.6727 95.8472 16.1401 95.6951C15.6979 95.5685 15.2237 95.4668 14.7794 95.3694C13.9086 95.1783 13.0463 95.5208 12.183 95.5375C11.5596 95.5496 9.59307 95.5996 9.50807 94.7503C9.20745 94.8912 8.76636 95.1695 8.43052 94.9465C8.16549 94.7707 8.32243 94.6089 8.22531 94.3534C7.97656 94.5248 8.00817 94.7978 7.98621 95.0606C7.65833 94.852 7.40901 94.5981 7.0054 94.5563C6.89295 94.6159 6.7788 94.6726 6.66332 94.7262C6.48707 94.6834 6.32313 94.612 6.1715 94.5121C5.89056 94.4608 5.68308 94.582 5.40593 94.5352C5.17516 94.4962 4.88003 94.3588 4.65437 94.3014C3.93708 94.1188 3.58061 93.4684 2.85499 93.2077C2.55777 93.101 2.33552 93.1063 2.06405 92.9553C1.7534 92.7825 1.76646 92.584 1.34108 92.4967C1.39523 92.5726 1.69093 92.8468 1.5887 92.9762C1.08267 92.6344 0.496573 92.4849 0.17134 91.8968C-0.31961 91.0091 0.334078 90.3693 1.00304 89.8237L1.07472 89.7656C2.55209 88.5739 4.32744 87.9161 6.1732 87.5641C8.14618 87.1878 10.0415 86.9309 11.9163 86.174C13.7849 85.4194 15.4952 85.0473 17.489 84.8041C17.0589 82.8867 16.331 81.0641 15.9938 79.1131C15.8335 78.1855 15.7464 77.242 15.6275 76.3083C15.5503 75.7024 15.682 74.5155 14.8969 74.4299C14.6446 74.4024 14.1607 74.5164 13.9281 74.5447C13.7654 74.5644 13.6742 74.4799 13.5048 74.5316C13.231 74.6151 13.068 74.866 12.7235 74.9439C12.0054 75.106 11.5426 74.9217 10.8639 74.8702C10.2443 74.823 9.69643 74.9141 9.10617 74.6191C7.82076 73.9767 6.81723 73.2457 6.08952 71.9915C5.25429 70.552 4.72082 68.9774 4.47131 67.3358C4.19586 65.523 4.09572 63.6909 4.06714 61.8589C4.04025 60.1244 3.96207 58.1909 4.4573 56.5087C4.82645 55.2549 5.10284 53.8605 5.82127 52.7616C5.98749 52.5074 6.03822 52.1889 6.19592 51.9519C6.34339 51.7302 6.48745 51.7656 6.60577 51.4995C6.70005 51.2874 6.68528 50.9434 6.77918 50.7011C6.92627 50.3212 7.13167 49.9563 7.30148 49.5853C7.39519 49.7286 7.48871 49.872 7.58242 50.0154C7.67215 49.4277 7.65246 48.9353 7.98603 48.4255C8.24633 48.0274 8.53956 47.6695 8.78623 47.2525C9.38748 46.2363 9.89426 45.202 10.4298 44.1509C10.8489 43.3288 11.4767 42.56 11.8377 41.7764C12.2832 40.8098 12.9624 40.0029 13.6723 39.1823C14.9698 37.6824 15.9991 35.8979 17.3985 34.484C18.5839 33.2866 19.6282 31.9937 20.8182 30.7959C22.2902 29.3142 23.7131 27.8069 25.4078 26.5816C27.121 25.3428 28.8483 24.1052 30.624 22.9196C32.3213 21.7864 34.0193 20.8247 35.8472 19.8878C36.9804 19.307 38.1178 18.738 39.2716 18.1992C40.2165 17.758 41.0324 17.6869 42.0456 17.5101C42.8577 17.3684 43.2682 17.0513 43.6914 16.3685C44.0653 15.7652 44.3192 14.7391 44.9293 14.325C45.2826 14.0851 45.7568 14.1211 46.1464 13.9661C46.576 13.7952 46.9636 13.5126 47.3854 13.3214C48.0775 13.008 49.3859 12.8925 49.8622 12.2743C49.649 12.1134 49.1248 11.47 48.7965 11.5492C48.4882 11.6233 48.6936 11.7902 48.5438 11.9239C48.3151 12.1282 48.3047 12.0842 48.0143 12.1331C47.5825 12.206 46.8859 12.1227 46.6394 11.7212C46.3673 11.2779 46.6871 11.0018 46.9201 10.5712C46.2219 10.2757 45.0706 9.97365 44.676 9.24746C44.3239 8.59951 44.9274 8.00953 44.921 7.32653C44.9117 6.33074 45.2642 6.01169 45.9266 5.27261C46.4565 4.68131 46.1025 4.3399 46.5599 3.72189C47.021 3.09895 47.3398 3.32402 47.9079 3.0171C48.4791 2.70866 48.0242 2.49078 48.0709 1.96939C48.1135 1.49707 48.8102 0.666484 49.1405 0.325268ZM31.2423 91.2839C30.7949 90.9619 29.9236 90.6849 29.445 91.1443C29.2381 91.343 29.2841 91.6143 29.1483 91.8389C29.0045 92.0772 28.7771 92.2469 28.6156 92.4754C28.1484 93.1366 27.9888 94.0061 27.6428 94.733C27.2742 95.5072 26.8479 96.2536 26.395 96.9812C24.4593 100.09 22.1219 103.031 19.4977 105.588C18.1839 106.867 16.6929 107.949 15.2657 109.095C13.7747 110.293 12.2619 111.46 10.6379 112.473C9.12263 113.419 7.83022 114.315 6.53459 115.548C5.12443 116.889 3.92591 118.422 2.71888 119.944C3.35041 120.137 4.56691 120.761 5.22154 120.717C5.72227 120.683 5.80348 120.231 6.06208 119.823C6.84544 118.59 7.98167 117.525 9.16353 116.68C9.43405 116.487 10.132 115.77 10.4826 115.812C11.3334 115.915 10.9692 117.035 10.6899 117.46C9.828 118.771 8.60828 119.986 7.51692 121.106C8.13482 121.18 8.749 121.283 9.36217 121.39L9.9751 121.496C10.7462 121.629 10.9392 121.68 11.3584 121.015C12.1463 119.766 12.9367 118.627 14.1367 117.729C14.5888 117.391 15.279 116.823 15.8893 117.093C16.4349 117.333 16.4459 117.969 16.2198 118.433C15.9035 119.082 15.1088 119.589 14.5893 120.058C13.9741 120.614 13.3626 121.174 12.7462 121.729C13.6477 121.959 14.5783 122.509 15.3151 121.692C15.9453 120.993 16.4033 120.359 17.2311 119.835C17.7777 119.489 18.7216 119.089 18.6258 120.174C18.5521 121.006 17.584 121.587 17.1109 122.191C18.7649 122.942 20.6192 121.623 21.9936 120.85C22.6645 120.473 23.3002 120.161 23.9075 119.68C24.4819 119.226 25.1234 119.001 25.6302 118.49C26.1707 117.944 26.8354 117.609 27.4637 117.176C28.1774 116.683 28.8386 116.063 29.6411 115.714C30.3114 115.422 30.8273 115.024 31.4799 114.696C32.1108 114.38 32.7952 114.204 33.429 113.907C34.1376 113.575 34.7383 113.152 35.4834 112.872C36.3116 112.562 37.1599 112.309 37.9985 112.029C39.1406 111.649 40.6116 111.354 41.3682 110.327C41.8481 109.675 41.8019 108.927 41.8926 108.164C41.9998 107.263 42.1613 106.393 42.1881 105.481C42.2464 103.503 42.4079 101.531 42.4678 99.554C42.4944 98.6643 42.7676 97.5656 42.5545 96.692C42.379 95.9721 41.8491 95.8461 42.0649 95.046C39.9683 94.7419 37.9281 94.3314 35.8701 93.831C34.9897 93.6167 34.1294 93.2998 33.3342 92.8638C32.5436 92.4304 31.9617 91.8017 31.2423 91.2839ZM72.0852 91.0484C71.3967 91.8337 70.9355 92.742 70.2233 93.5086C69.5233 94.262 68.7581 94.9558 67.8785 95.4941C66.9062 96.0892 65.8539 96.668 64.7922 97.0823C63.8707 97.4417 62.7265 97.9936 61.746 98.1266C60.9269 98.2376 60.5494 98.2217 60.971 99.198C61.333 100.036 61.7922 100.843 62.0694 101.716C62.3838 102.706 62.4711 103.842 62.3602 104.874C62.2657 105.751 61.6241 106.696 61.8002 107.574C62.1338 109.236 64.3263 110.182 65.7215 110.657C67.636 111.309 69.4356 112.142 71.273 112.975C75.1291 114.722 79.0499 116.455 83.0513 117.833C84.0709 118.184 85.1297 118.324 86.1404 118.724C87.0408 119.081 87.9531 119.342 88.8686 119.651C89.8539 119.984 90.7459 120.572 91.8163 120.483C92.7013 120.41 93.5854 120.285 94.4727 120.213C93.8571 119.501 93.1816 118.869 92.4429 118.288C91.889 117.851 91.1399 117.373 90.8766 116.683C90.7022 116.226 90.6786 115.527 91.2258 115.343C91.8034 115.149 92.7452 115.921 93.1884 116.2C94.404 116.964 95.8827 117.691 96.6115 118.991C96.9231 119.547 96.9922 120.033 97.675 120.194C98.1222 120.3 99.7328 120.354 100.026 119.902C98.8726 118.662 97.1069 117.227 96.5237 115.582C96.3404 115.065 96.3228 114.053 97.0539 113.983C97.6404 113.926 98.2485 114.782 98.5813 115.148C99.2838 115.921 99.9551 116.714 100.6 117.536C100.866 117.875 101.151 118.206 101.35 118.59C101.477 118.832 101.526 119.25 101.74 119.434C102.186 119.818 103.024 119.399 103.532 119.264C104.396 119.033 105.307 118.69 106.085 118.245C107.297 117.551 103.729 115.347 103.293 114.969C101.894 113.754 100.56 112.644 98.9711 111.676C95.6862 109.674 92.3257 107.978 88.8046 106.426C87.8862 106.022 86.8875 105.746 85.9939 105.303C85.2795 104.949 84.6288 104.437 83.973 103.988C82.4025 102.915 81.0166 101.748 79.7422 100.337C77.0418 97.3466 74.6265 94.1738 72.0852 91.0484ZM31.634 48.107C31.7305 47.3478 28.58 47.0765 28.123 47.5263C27.7823 47.8616 27.8173 48.577 27.6233 49.0001C27.3363 49.6251 26.7519 50.2577 26.1294 50.5563C25.4434 50.885 24.5544 50.8223 24.048 50.2011C23.6031 49.6553 23.6474 48.8711 23.5826 48.2118C21.7009 48.3514 20.542 50.9441 20.018 52.4191C20.5885 52.6152 21.2524 52.4803 21.7655 52.8512C21.6068 52.8764 21.4482 52.9016 21.2895 52.9268C21.7373 54.6437 20.6688 55.8555 19.3576 56.8519C18.809 57.2685 18.3337 57.4839 18.1849 58.1909C18.0016 59.0623 18.0215 60.0204 17.9227 60.9072C17.8184 61.846 17.7394 62.7541 17.7106 63.6985C17.6982 64.1026 17.4736 65.4683 17.8239 65.765C18.115 66.0118 19.3699 65.9512 19.8061 66.0448C20.4935 66.1924 21.3291 65.9499 21.8588 66.4476C21.5332 66.5012 21.2074 66.5546 20.8818 66.6082C21.9534 67.8145 21.504 69.3597 20.7256 70.5838C20.3952 71.1035 20.0083 71.6054 19.5564 72.0252C19.1587 72.3947 18.5837 72.6918 18.38 73.2245C17.9588 74.3266 18.9033 76.2371 19.1515 77.3074C19.5157 78.8795 19.8033 80.4696 20.3996 81.977C21.2723 81.0081 23.0295 79.8349 24.0584 81.2606C23.4566 81.0926 22.7487 80.7606 22.1778 81.2011C24.0304 81.3046 25.2209 82.7202 24.5267 84.5415C24.2808 85.1868 23.0388 86.3493 23.1639 86.9749C23.2368 87.3383 23.8967 87.7818 24.1591 88.0415C24.5074 88.386 24.8363 88.7768 25.265 89.0241C25.9558 89.4225 27.2397 89.5737 28.0026 89.2935C28.3773 89.1559 28.2983 89.2906 28.4486 88.8452C28.6135 88.357 28.5353 87.9981 28.8593 87.5433C29.2896 86.9389 30.292 86.3279 30.4042 85.5522C30.4635 85.1413 30.1856 84.729 30.1299 84.3338C30.054 83.7948 30.1725 83.2317 30.1725 82.6897C29.9183 82.8244 27.6865 84.2925 27.6399 84.2546C27.2303 83.9202 28.5785 82.9409 28.8261 82.7899C29.5258 82.3629 30.2359 82.2062 30.7806 81.5567C31.1571 81.1077 31.6213 80.297 32.2017 81.0058C31.6466 80.9493 31.3752 81.2394 31.1495 81.7045C32.1619 81.7045 32.9493 81.9199 33.5829 81.0547C34.2958 80.081 34.9096 79.0674 35.7316 78.1766C36.3606 77.4949 37.0897 76.9472 36.5645 75.9974C36.1393 75.2284 35.3796 74.5981 34.8604 73.8895C33.6872 72.2892 32.6918 70.5602 31.5465 68.9382C31.0575 68.2457 30.738 67.3727 29.8287 67.3388C29.0902 67.3111 28.5062 67.2585 28.3224 66.3953C28.1988 65.8133 28.6232 64.9181 28.1319 64.4495C27.7715 64.1057 26.3528 64.0894 25.8949 64.2355C25.2508 64.4408 24.8132 65.2913 24.0493 65.1284C23.3557 64.9804 23.3632 64.1297 22.8199 63.7847C22.4324 63.5386 21.7445 63.6261 21.4508 63.2107C21.0398 62.6292 21.6795 62.4113 22.1588 62.3094C22.9089 62.1501 23.2474 62.2079 23.6614 61.501C23.9838 60.95 24.6483 60.2727 24.4788 59.6007C24.3105 58.9331 23.5423 58.5617 23.3534 57.9083C23.0931 57.0091 23.7697 57.2387 24.3073 57.3882C24.7299 57.5059 24.8448 57.3469 25.2595 57.3837C25.6192 57.4155 26.1457 57.7635 26.413 57.9877C26.7803 58.2959 26.6973 58.5013 26.9116 58.8558C27.0033 59.0073 26.8838 59.444 27.1829 59.0382C27.3575 59.2682 27.6159 59.4052 27.78 59.5789C27.9118 59.7184 27.7783 59.2694 28.0214 59.6619C28.1338 59.8438 27.8644 60.7382 28.3746 59.9198C29.0014 60.4597 29.0283 61.0054 29.4071 61.7028C29.852 61.102 31.758 58.1658 32.5877 59.3751C31.8473 58.9022 30.2503 60.7297 30.0778 61.4298C29.7579 62.7277 31.3214 60.6924 31.5857 60.4815C32.8847 59.4454 34.9533 60.2274 34.9465 61.9731C34.9431 62.8823 34.3362 63.784 33.7484 64.4329C33.2478 64.9855 32.8857 65.0992 33.1339 65.8555C32.5211 65.7642 33.2005 66.4629 33.3366 66.5982C33.6976 66.9565 33.8508 67.2016 34.101 67.6415C34.2358 67.8786 34.4236 68.1205 34.6179 68.312C34.7833 68.4755 35.2299 68.6824 35.3408 68.862C35.5731 69.2383 35.2271 70.0573 36.0456 69.7296C36.5009 69.5471 36.8443 68.5953 37.2152 68.2393C37.7519 67.7245 38.4343 67.2907 39.1537 67.0868C40.8132 66.6168 42.0428 67.8126 43.5394 68.2573C47.5725 69.4556 45.1635 73.378 42.6226 74.8567C42.073 75.1765 41.5316 75.3508 40.9387 75.5388C40.2812 75.7468 40.0806 75.8447 40.459 76.4262C40.8191 76.9794 41.3673 77.4642 41.7749 77.9888C41.9879 78.2632 42.0214 78.5682 42.19 78.8279C42.2101 78.9952 42.2803 79.1373 42.4009 79.2544C42.5613 79.2988 42.7214 79.3437 42.8816 79.3893C43.1852 79.6824 43.062 80.247 43.2462 80.5698C43.4529 80.9321 43.8535 80.8881 44.0939 81.1808C44.2692 81.394 44.2552 81.7593 44.3962 82.0056C44.7048 82.5436 45.1001 82.9805 45.5336 83.4363C45.8117 83.7289 45.6866 83.81 45.8164 84.0504C45.7129 84.1716 45.7426 84.2726 45.906 84.3533C46.0406 84.4322 46.1623 84.5271 46.2717 84.6383C46.398 84.8338 46.3581 85.1902 46.4802 85.3465C46.6485 85.5617 46.8927 85.2785 47.0935 85.5195C47.2363 85.6911 47.0776 86.0774 47.153 86.2953C47.2717 86.639 47.624 86.8957 47.8515 87.1617C48.2975 87.6833 48.251 88.217 48.6078 88.7456C49.0254 89.3639 49.3187 89.769 49.7367 89.0407C50.1499 88.3208 50.4007 87.6834 51.0387 87.0997C51.5966 86.5891 52.2673 86.1725 52.9441 85.8376C54.3745 85.129 56.52 85.4973 57.1424 87.1935C57.6943 88.698 56.7536 90.4444 55.8763 91.6102C54.7732 93.076 53.3455 93.9742 51.6718 94.6699C51.8855 94.97 52.4237 96.124 52.7955 96.2481C53.1709 96.3734 54.2091 95.8126 54.5939 95.7343C55.5399 95.5415 56.4136 95.5667 57.3577 95.2832C58.1897 95.0335 59.0009 95.0015 59.8287 94.747C60.4888 94.5441 61.3544 94.3384 61.9562 93.9885C62.6805 93.5673 62.8378 92.522 63.1221 91.8C62.8728 91.9556 61.47 93.0198 61.7298 92.1346C61.9181 91.4927 63.6153 90.7131 64.1306 90.4996C64.5883 90.3097 65.2123 90.0928 65.7049 90.2639C66.2457 90.4518 66.157 90.8705 66.4947 91.1907C67.1665 91.8279 68.1737 90.509 68.6829 90.0235C69.1662 89.5625 69.7533 89.1573 70.1828 88.6762C70.5487 88.2664 70.8225 87.904 71.2757 87.5656C71.3819 87.4864 72.1173 87.0776 72.0115 86.8383C71.8847 86.5518 71.2043 87.0565 71.0163 87.0329C69.7847 86.8773 70.4444 85.0111 70.3019 84.2486C70.0789 83.055 68.873 81.7043 68.1015 80.8108C67.4859 81.5526 66.6003 82.3379 65.6055 82.4684C64.6733 82.5908 64.0102 82.0647 64.0931 81.0992C64.1262 80.7108 64.5471 79.9424 63.9907 80.3343C63.8421 80.4391 63.2477 81.6634 63.0447 81.573C62.3323 81.2559 64.4537 79.2603 64.6538 79.0847C65.0347 78.7499 65.9533 78.1936 65.872 77.6097C65.8156 77.2031 65.1205 76.6033 64.8865 76.2962C62.7736 73.5237 60.4018 70.9652 58.1579 68.3014C57.6526 67.7016 56.9313 65.9989 56.03 66.2314C55.5452 66.3566 55.0826 66.8608 54.6186 67.0656C54.0215 67.3291 53.4074 67.4464 52.7628 67.2999C51.6102 67.0381 50.8509 66.03 50.9196 64.8472C50.9594 64.1618 51.3039 63.6368 51.554 63.0199C51.9065 62.1506 51.7651 62.0241 52.5574 61.5368C51.2494 59.9158 49.5846 58.5773 47.97 57.2761C46.3649 55.9826 44.7048 54.6799 42.8893 53.6964C41.9947 53.2118 41.1653 52.6587 40.3318 52.0764C39.8201 51.7188 39.2273 51.011 38.6227 51.4282C38.3667 51.6048 38.2005 51.985 37.9927 52.2209C37.711 52.5403 37.3899 52.8298 37.0704 53.1106C36.4704 53.6384 35.8344 54.1411 35.1776 54.5965C33.9818 55.426 32.2045 56.3862 30.7463 55.631C29.4641 54.9671 29.325 53.3003 29.5652 52.0377C29.7235 51.2062 30.0684 50.4231 30.4992 49.6992C30.7347 49.3036 31.5772 48.5534 31.634 48.107ZM25.461 94.4839C25.2425 95.017 24.898 95.3641 24.776 95.9513C25.1212 95.5117 25.7143 95.1303 25.461 94.4839ZM55.7097 86.6494C54.0077 86.3919 52.1467 87.9271 51.0893 89.0506C50.7532 89.4075 50.1221 89.9577 50.0255 90.4526C49.943 90.8747 50.2236 91.1526 50.3638 91.5331C50.6082 92.196 50.5706 93.3293 51.2706 93.7194C52.6183 94.4706 55.0411 91.7413 55.6698 90.8874C56.4075 89.8859 57.8762 86.9773 55.7097 86.6494ZM65.4635 90.9459C64.2107 90.7722 63.2335 92.3517 63.0614 93.3989C63.6685 93.2335 64.2109 92.8987 64.7799 92.6408C65.1852 92.4574 65.9018 92.3621 66.093 91.8964C66.3033 91.384 65.9423 91.0122 65.4635 90.9459ZM39.4897 87.7547C39.279 87.6988 38.3457 89.6474 38.1909 89.9583C37.7221 90.9003 38.4086 90.8777 39.2279 91.0302C41.5388 91.4603 43.8737 91.6697 46.2166 91.8262C46.4571 91.336 45.5529 90.5414 45.2932 90.1998C44.7499 89.4852 44.3586 88.6779 43.8181 87.9512C43.1434 88.8405 42.3174 90.4973 41.036 90.5687C40.2528 90.6125 39.7883 89.97 39.6228 89.2806C39.5861 89.1271 39.6147 87.7878 39.4897 87.7547ZM38.5229 79.0185C37.714 78.5517 37.4707 80.1828 37.2621 80.6784C36.7179 81.9718 35.8139 82.7274 35.6698 84.1671C35.5563 85.3037 34.9427 86.2411 33.8292 86.6329C33.3516 86.801 32.8147 86.7574 32.3772 87.041C31.916 87.3398 31.6737 87.8953 31.4055 88.3494C32.1065 88.7374 33.5837 90.1068 34.4162 89.8164C35.295 89.51 35.9868 88.1342 37.0107 89.1538C36.1556 89.0155 35.3948 89.4316 34.9597 90.1663C35.3376 89.9598 35.8607 89.4615 36.3207 89.7234C36.6851 89.9308 36.6232 90.5359 37.1768 90.5407C37.8761 90.5466 38.1471 89.3975 38.3762 88.9121C38.944 87.709 39.6234 86.5761 40.1406 85.3459C40.3596 84.8251 40.7337 84.2366 40.8499 83.6843C40.9832 83.0508 40.5304 82.5218 40.2282 81.9955C39.8572 81.3493 39.4594 80.7112 39.1096 80.053C38.965 79.7809 38.8004 79.1786 38.5229 79.0185ZM42.6122 86.0543C41.9343 84.906 40.527 85.9035 40.133 86.8464C39.8572 87.5063 39.6506 89.119 40.2437 89.7056C40.9537 90.4077 42.0392 89.3928 42.5291 88.864C42.8252 88.5444 43.2398 88.0743 43.2962 87.6156C43.3706 87.0103 42.8965 86.5363 42.6122 86.0543ZM81.8257 49.5279C79.9932 49.9717 78.2661 50.6535 76.5527 51.4904C75.7176 51.8983 75.9094 52.457 75.7351 53.2603C75.5412 54.1549 75.0123 54.9862 74.4618 55.7011C73.6485 56.7569 72.3353 58.3507 70.8702 58.3601C70.1008 58.3651 69.5632 57.8677 69.3779 57.1404C69.3158 56.8968 69.2525 55.1897 69.3294 55.1787C68.9279 55.2363 68.76 56.576 68.6539 56.8767C68.4262 56.354 68.7653 55.814 68.8043 55.293C66.5399 56.5023 64.3862 57.83 62.257 59.2459C61.1073 60.0105 59.9889 60.7928 58.7559 61.4188C58.454 61.5718 57.6167 61.8659 57.4974 62.2404C57.4088 62.5191 57.7399 62.8685 57.8105 63.1601C57.9701 63.8181 57.897 64.2919 58.3033 64.8819C58.5999 65.3127 58.9653 65.6975 59.2892 66.1077C60.1536 67.202 61.0185 68.294 61.9018 69.3732C63.6706 71.5344 65.498 73.65 67.1752 75.8845C67.7614 75.2082 67.8876 74.4118 68.482 73.7207C69.0233 73.0909 69.6705 72.5415 70.1695 71.8759C71.1816 70.5261 71.5632 68.7933 72.6739 67.4983C73.1652 66.9254 73.8382 66.3547 74.6304 66.3316C75.4411 66.3077 75.7 67.0315 76.3628 67.1436C76.9199 67.238 77.7084 66.216 78.1785 65.9504C78.8469 65.5723 79.3056 65.1388 79.8993 64.6595C80.5978 64.0954 83.1323 62.2196 83.9117 63.198C84.8164 64.3338 83.1333 65.7138 82.3728 66.3197C81.8804 66.7119 81.2281 67.015 81.2722 67.6931C81.3132 68.327 81.682 68.9723 81.7284 69.6365C81.7609 70.1026 81.7805 70.8771 81.1258 70.729C80.5643 70.6016 80.0735 68.9573 79.82 68.4981C78.842 69.3179 77.9886 70.2741 77.0034 71.0855C76.0308 71.8867 75.0691 72.6654 74.1356 73.5133C73.2398 74.3272 72.2292 74.9221 71.3529 75.7523C70.7731 76.3017 69.9874 76.591 69.3701 77.113C69.2054 77.2524 68.6981 77.5734 68.646 77.7996C68.5848 78.0663 68.8167 78.2168 68.9938 78.4507C69.6374 79.3016 70.2585 80.2066 70.8026 81.1231C70.9906 81.4398 71.2187 82.015 71.6562 82.0304C71.9746 82.0416 72.4435 81.6018 72.7394 81.49C73.3282 81.2674 74.5023 80.9628 74.8485 81.7144C74.5958 81.6475 74.3433 81.5808 74.0907 81.5141C74.4256 82.3047 74.4309 82.8716 74.0313 83.636C73.739 84.1946 73.2443 84.7415 73.3882 85.4105C73.526 86.0516 74.1337 86.5312 74.2431 87.2053C74.3173 87.6617 74.1541 87.7884 73.9538 88.1548C73.8247 88.3915 73.679 88.8952 73.4683 89.0604C73.3929 88.9204 73.3176 88.7802 73.2424 88.64C73.1222 89.1595 73.0967 89.2175 73.6254 89.3674C74.1492 89.5157 74.6749 89.3335 75.202 89.3571C75.7652 89.3827 76.285 89.6383 76.8406 89.7037C77.5221 89.7842 77.7915 89.4284 78.3911 89.3065C78.9448 89.194 79.5377 89.3645 80.109 89.2709C80.768 89.1629 81.4001 88.9456 82.0351 88.7454C82.7365 88.5239 83.9026 88.5195 84.048 87.6609C84.1383 87.1278 84.0427 86.555 84.1313 86.0077C84.2307 85.3935 84.3988 84.7976 84.6087 84.2128C85.0356 83.0218 85.5526 81.7579 86.2919 80.7229C86.4422 80.5126 86.9459 79.741 87.2964 79.9787C87.6971 80.2508 86.9937 80.4827 86.8789 80.6002C86.3826 81.1087 86.1987 81.8724 85.9023 82.4991C86.7557 82.0577 87.4258 81.2345 88.3953 81.0281C89.3615 80.8224 89.6809 81.0963 89.9891 80.0346C90.582 77.9921 91.1768 75.9421 91.4818 73.8325C90.6312 74.2031 89.6767 74.8688 88.7164 74.484C87.8817 74.1496 87.7032 73.2742 87.5258 72.4851C87.2297 72.8653 87.1239 73.378 86.7686 73.7152C86.4318 73.165 86.9821 72.4796 87.243 72.0122C87.6335 71.3125 87.9572 70.5793 88.3183 69.8648C88.9941 68.5275 89.9196 67.5135 91.0284 66.5258C92.1376 65.5378 91.6143 64.2072 91.5577 62.8556C91.4805 61.0103 91.4377 59.1788 91.2463 57.3391C90.7035 57.7664 89.6769 58.8918 88.9167 58.3001C88.7976 58.2074 88.3588 57.5604 88.3201 57.4517C88.2013 57.1169 88.3618 56.9038 88.5301 56.577C88.9679 55.7268 89.3237 54.9629 89.8702 54.1803C90.3579 53.4819 89.8996 53.0301 89.4785 52.4035C89.0007 51.6927 88.4067 50.6223 87.5531 50.2998C86.6853 49.972 85.546 51.1004 84.8071 51.5112C84.0613 51.9259 83.0246 52.4846 82.2323 51.8577C81.5147 51.2897 81.7435 50.3176 81.8257 49.5279ZM55.3256 85.8413C53.5304 84.978 50.69 87.7382 50.2084 89.2863C51.5731 87.7117 53.2334 86.2798 55.3256 85.8413ZM89.0073 82.4595C89.2604 81.9182 89.4766 81.5438 88.7256 81.657C88.028 81.7619 87.3335 82.306 86.7924 82.7318C85.4852 83.7601 84.9243 84.7745 84.6 86.3866C84.536 86.7041 84.3342 87.4453 84.7009 87.5719C85.1331 87.7208 86.2686 86.8316 86.5359 86.6039C87.753 85.5666 88.3483 83.8681 89.0073 82.4595ZM61.2351 83.7525C63.8344 82.6918 62.9456 86.476 61.5355 87.3012C60.3012 88.0234 59.7579 84.3551 61.2351 83.7525ZM62.5919 84.5323C62.5128 83.8621 61.96 83.8147 61.4261 84.1416C60.8674 84.4834 60.7414 85.1097 60.6662 85.7212L60.653 85.8322C60.7431 86.483 60.8755 87.0724 61.5623 86.5996C62.0556 86.2601 62.6654 85.1547 62.5919 84.5323ZM70.774 84.8499C70.7044 85.284 70.3447 86.3696 71.065 86.3288C71.8654 86.2835 70.9484 85.1523 70.774 84.8499ZM23.5137 82.045C22.744 81.663 21.3255 81.8189 20.9234 82.6952C20.6847 83.2149 21.0309 83.6713 21.3102 84.0962C21.7689 84.794 22.1852 85.5189 22.6518 86.2121C23.6381 85.3965 25.2637 82.9134 23.5137 82.045ZM35.2759 83.6491C34.5622 84.468 33.6397 85.2633 33.1005 86.2002C34.3547 85.9166 35.3198 84.995 35.2759 83.6491ZM79.3031 78.1745C79.7593 77.483 80.4992 76.5212 81.4476 76.9108C82.1989 77.2195 82.6485 78.2791 82.8118 79.0089C82.0445 77.787 81.2302 76.6098 80.0032 78.1644C79.8543 78.3532 78.407 80.5103 78.6063 80.7104C78.6273 80.7316 80.922 79.1203 81.1965 79.0554C82.4722 78.7535 83.6727 79.9488 83.6801 81.1696C83.687 82.3379 82.8175 83.3787 82.0097 84.1378C81.2431 84.8582 80.0055 85.919 78.8589 85.7325C78.2437 85.6323 77.846 85.1768 77.7003 84.5947C77.6423 84.363 77.7404 83.4528 77.455 83.3372C77.1992 83.7013 76.9834 84.1432 76.5773 84.369C76.5035 83.7769 77.0033 83.261 77.2891 82.793C77.5784 82.3188 77.7731 81.8419 77.944 81.3159C78.3024 80.2131 78.658 79.1519 79.3031 78.1745ZM40.9682 84.2855C40.8346 84.6237 40.7147 84.9681 40.6067 85.3154C41.3147 85.0284 41.1975 85.007 40.9682 84.2855ZM32.4809 82.6294C32.7295 82.0592 31.2345 82.3674 30.9555 82.5514C30.2181 83.0379 30.4368 84.5485 30.7476 85.2065C31.2974 84.3893 32.0879 83.5315 32.4809 82.6294ZM41.3592 83.8448C41.0576 83.9442 41.3504 84.8962 41.242 85.049L41.2329 85.0587L41.2588 85.0426C41.8752 84.6491 41.6407 84.4717 41.3751 83.8808L41.3592 83.8448ZM81.9535 79.7268C81.1256 79.5741 80.3667 80.0688 79.7593 80.573C78.7779 81.3876 77.5193 82.9197 78.0999 84.3269C79.0786 86.6989 82.9653 82.4578 83.2035 81.2399C83.3547 80.4664 82.6563 79.8565 81.9535 79.7268ZM73.6756 82.0952C73.2651 81.8612 72.2851 82.4097 72.1764 82.8176C72.0344 83.3511 72.6624 83.9684 72.8954 84.3831C73.4304 84.4519 74.2206 82.4063 73.6756 82.0952ZM49.5646 75.545L49.6138 75.5479C50.0614 75.5908 50.3374 75.9271 49.9877 76.3326C49.8244 75.3088 48.6066 76.6223 48.3316 76.9286C49.2615 77.0308 50.5622 77.1482 50.8266 78.2664C51.0419 79.177 50.2921 80.0887 49.7259 80.7096C48.8408 81.6803 46.7831 83.5624 45.3695 82.5433C44.0616 81.6005 45.5561 79.4529 46.1421 78.5027C46.6738 77.6408 47.2912 77.0112 48.0934 76.3965C48.4832 76.0977 49.0737 75.4963 49.6138 75.5479L49.5646 75.545ZM48.4053 77.4595C47.198 77.4511 46.4051 79.0288 45.9429 79.9459C45.4202 80.9833 44.9288 82.4288 46.6779 81.9752C48.029 81.6247 49.1976 80.5573 49.9641 79.4225C50.3675 78.8254 50.6453 78.3115 49.9375 77.8795C49.5784 77.6604 48.8151 77.4622 48.4053 77.4595ZM67.6001 80.3823C67.9382 79.5733 66.7169 79.2395 66.1649 79.2753C65.2083 79.3376 64.9692 79.9586 64.7157 80.779C64.1433 82.631 67.2161 81.301 67.6001 80.3823ZM56.1487 72.416C57.3963 71.7552 58.8834 72.1405 59.9597 72.9734C61.3808 74.0729 61.8924 75.5639 60.9844 77.2042C60.3043 78.4325 59.058 79.5252 57.6324 79.7142C56.0753 79.9207 55.0695 78.7539 54.969 77.2522C54.9127 76.4085 55.1011 75.5298 55.4454 74.7621C55.74 74.1049 56.5761 73.4978 56.7225 72.8229C55.852 72.9957 55.2737 73.7161 54.6037 74.2352C54.1069 73.5883 55.7397 72.6326 56.1487 72.416ZM29.195 72.2721C29.8688 72.193 29.605 72.6606 29.9401 73.0228C30.1947 73.2982 30.6474 73.3786 30.9214 73.6684C31.6911 74.482 31.3138 75.5114 30.7689 76.3416C29.9901 77.5285 26.8762 80.9267 25.6594 78.5471C25.2431 77.7328 25.413 76.7012 25.7184 75.8848C25.8407 75.5581 26.9521 74.1261 26.7836 73.8656C26.4022 74.1418 25.8231 74.9527 25.3176 74.9073C24.6932 74.8512 26.1032 73.6853 26.2103 73.6089C26.6858 73.2701 27.1754 73.0806 27.7201 72.8978C28.1721 72.746 28.7302 72.3266 29.195 72.2721ZM58.2422 72.8736C56.7513 72.6421 55.7064 74.7427 55.4507 75.9517C55.1511 77.3694 55.7007 79.148 57.3984 79.0833C59.1031 79.0181 60.7232 77.341 61.0408 75.706C61.3131 74.3045 59.4143 73.0553 58.2422 72.8736ZM30.9162 74.5379C30.7247 73.4581 28.1906 73.3362 27.5949 73.9397C26.7468 74.7991 26.0007 75.9589 25.8577 77.2045C25.6686 78.8535 26.9703 78.7304 28.0367 78.0737C28.8654 77.5634 31.1297 75.743 30.9162 74.5379ZM42.1103 68.0377C41.0924 67.0131 39.531 67.285 38.394 67.9394C37.8554 68.2495 37.3573 68.6591 36.9799 69.1561C36.7904 69.4054 36.5407 69.7413 36.4835 70.056C36.3962 70.5359 36.6384 70.5196 36.744 70.9078C36.7995 71.1117 36.6416 71.2568 36.7656 71.4561C36.8483 71.5887 37.1561 71.5832 37.2684 71.7193C37.5024 72.0017 37.6254 72.4203 37.8783 72.7325C38.1309 73.0445 38.2268 73.377 38.4326 73.7188C38.5619 73.9337 38.9674 74.6839 39.1575 74.8001C39.3754 74.9334 39.2987 74.6366 39.5632 74.7243C39.6696 74.7595 39.7733 74.9241 39.8621 74.942C40.3361 75.0367 40.632 75.0159 41.1142 74.8273C42.1562 74.42 43.1093 73.8296 43.9042 73.0388C45.2432 71.7069 46.2297 69.6564 43.8573 68.8618C42.9906 68.5714 42.0458 68.5521 41.1746 68.8272C40.1131 69.1621 39.2809 70.2252 38.2227 70.429C38.2412 69.1273 41.1587 68.1879 42.1103 68.0377ZM91.7993 68.2694C91.2395 68.0769 90.3541 69.272 89.9925 69.606C89.2105 70.329 88.2993 71.0069 88.0846 72.1116C87.6466 74.3664 90.8756 74.1921 91.61 72.6685C91.8699 72.1293 91.7254 71.4247 91.7243 70.851C91.7224 69.9916 91.773 69.1286 91.7993 68.2694ZM29.6877 72.6972C29.6104 72.362 28.9647 72.6865 29.0386 72.8383C29.1954 72.9175 29.765 73.031 29.6877 72.6972ZM32.9762 34.4908C31.7313 34.7825 30.4871 35.0717 29.2517 35.4017C28.2397 35.6722 27.2433 36.1607 26.2347 36.3871C25.9106 36.46 25.4808 36.3329 25.1857 36.4718C24.7558 36.6739 24.6274 37.1705 24.1004 37.32C23.8075 37.403 23.6445 37.3741 23.4123 37.5079C23.1043 37.6856 22.8076 38.0335 22.4939 38.2443C22.0598 38.5359 21.7142 38.5503 21.2704 38.7547C20.9495 38.9025 20.6892 39.2996 20.4149 39.5236C19.9943 39.8672 19.5846 40.0878 19.1221 40.347C18.7316 40.566 18.7286 40.8344 18.4164 41.0887C18.257 41.2185 17.9878 41.2425 17.8239 41.3678C17.6321 41.5144 17.6448 41.6819 17.4043 41.8372C17.1134 42.0254 16.6808 41.9577 16.4163 42.2211C16.2577 42.3793 16.2829 42.5776 16.1727 42.7722C16.1176 42.8696 15.9238 42.891 15.8598 42.9874C15.5745 43.4177 15.7231 43.6487 15.127 43.3133C15.2012 43.5748 14.853 44.2862 14.6224 44.415C14.3199 44.584 14.0316 44.2426 13.8391 44.3533C13.6023 44.4897 13.8345 44.9876 13.6774 45.1977C13.5404 45.3807 13.1474 45.2839 12.9925 45.4421C12.747 45.6929 12.8462 45.9324 12.9395 46.2287C12.283 46.3634 12.7666 46.6 12.4431 47.0773C12.1947 47.4435 11.808 47.6902 11.5655 48.1142C11.2914 48.5941 11.0318 48.9391 10.6468 49.3275C10.5171 49.4584 10.3143 49.5675 10.2456 49.7523C10.1192 50.0925 10.3552 50.138 10.3475 50.4332C10.3316 51.0381 10.1642 50.8845 9.77916 51.2513C9.47343 51.5426 9.44371 51.9081 9.32539 52.2884C9.28242 52.4268 9.12605 52.4873 9.10882 52.6737C9.09614 52.8115 9.38066 52.7904 9.35189 52.9733C9.30835 53.2491 8.9108 53.4846 8.74875 53.6936C8.51495 53.9952 8.18461 54.4423 8.02105 54.7879C7.83931 55.1727 7.8872 55.6014 7.781 56.0069C7.73935 56.1653 7.57939 56.2407 7.58298 56.4121C7.58544 56.5294 7.77059 56.5698 7.76586 56.6912C7.7492 57.1239 7.50991 57.5049 7.42094 57.9257C7.31114 58.4454 7.37872 58.8764 7.50101 59.3753C7.5739 59.6725 7.82132 60.2214 7.78819 60.5005C7.75336 60.7932 7.69279 60.6439 7.58734 60.8796C7.53907 60.9874 7.48492 61.1785 7.42813 61.3064C7.22765 61.7585 7.10801 61.9612 7.66363 62.2079C7.53338 62.3066 7.03796 62.3395 7.24791 62.587C7.35468 62.713 7.78441 62.5377 7.92582 62.5125C7.88228 62.6533 7.79236 62.7535 7.65587 62.8132C8.09866 63.1173 8.32602 63.0707 8.49129 63.6413C8.63365 64.1328 8.66337 64.6924 8.68401 65.2C8.70218 65.6499 8.63479 66.1065 8.66924 66.5546C8.709 67.0688 8.93409 67.1268 9.16713 67.4987C9.62014 68.222 9.83823 69.2972 10.6822 69.8018C10.7783 69.6585 10.8698 69.6458 10.9565 69.764C11.0326 69.8175 11.1024 69.8783 11.1658 69.9467C11.3756 70.0782 11.5064 70.3292 11.7075 70.4768C12.1226 70.7812 12.3712 70.6458 12.2635 71.2649C13.0126 70.937 14.7376 73.1717 15.127 72.3581C15.2262 72.1509 15.0656 71.68 15.038 71.4589C14.9698 70.9112 14.9361 70.3578 14.9062 69.8067C14.8464 68.6989 14.8354 67.5892 14.811 66.4802C14.7633 64.3036 14.7642 62.1362 14.8776 59.9611C14.9299 58.9607 15.0707 57.9738 15.24 56.9873C15.3812 56.1647 15.6729 55.2765 15.7297 54.4512C15.4955 54.6178 15.2687 54.7905 14.9789 54.8464C14.9698 54.4302 15.2451 54.3637 15.4764 54.1003C15.7528 53.7853 15.9274 53.5121 16.0758 53.1146C16.4107 52.2167 16.6846 51.2967 17.0263 50.4C17.5637 48.9893 18.4387 47.9037 19.3431 46.7457C19.5965 46.4212 19.67 46.2581 19.9928 46.0118C20.2349 45.8271 20.5681 45.6145 20.8377 45.4656C21.3954 45.1577 22.0651 45.1431 22.6713 44.958C23.4374 44.7238 24.1882 44.4571 24.9856 44.3443C25.7188 44.2411 26.4558 44.3298 27.1924 44.2826C28.8367 44.1772 30.2573 44.6528 31.839 45.0552C31.308 43.3088 33.0046 42.308 34.1306 41.241C35.3558 40.08 36.6931 39.0249 37.7644 37.7106C36.0045 37.6167 33.9422 38.7849 32.3586 39.4417C31.3793 39.8479 30.4108 40.25 29.4758 40.7522C29.0115 41.0015 27.762 42.0218 27.1869 41.7059C25.7542 40.9189 28.4123 39.0761 28.8973 38.6718C30.3751 37.4403 31.8322 36.0413 32.9762 34.4908ZM73.9467 34.4843C74.1698 35.1096 74.9242 35.4076 75.4045 35.8314C76.1163 36.4596 76.7509 37.1455 77.3985 37.8379C77.8154 38.2836 80.704 40.464 79.4463 41.2149C78.8677 41.5602 77.897 40.8392 77.4165 40.5726C76.5612 40.0978 75.661 39.7206 74.7503 39.3637C72.7597 38.5833 70.7113 37.89 68.6609 37.2847C69.3631 38.4418 70.8058 39.2416 71.8968 39.993C72.9238 40.7001 74.044 41.291 75.0073 42.0868C75.5728 42.5538 77.1166 43.9438 76.1006 44.7526C75.4352 45.2824 74.1341 44.3983 73.4686 44.1799C72.1316 43.7407 70.8195 43.4819 69.4242 43.3182C68.8817 43.2548 68.6541 43.0691 68.7338 43.6371C68.7796 43.9643 69.1395 44.3582 69.316 44.613C69.8186 45.3388 70.2873 46.1207 70.8539 46.7954C71.2973 47.3232 72.325 48.5016 73.0194 48.6786C73.7367 48.8612 75.0797 47.8467 75.7262 47.543C76.6765 47.0966 77.7396 46.8912 78.6551 46.3928C79.5742 45.8926 80.7042 45.5647 81.7303 45.2767C82.8325 44.9675 83.8532 45.1014 84.9514 45.26C85.7187 45.3708 86.3195 45.317 87.0251 45.7058C87.4834 45.9583 87.8951 46.3003 88.3067 46.6201C89.0999 47.2366 89.852 47.8952 90.4629 48.6992C91.9668 50.6793 92.7827 53.4016 93.1966 55.822C93.6613 58.5396 93.6318 61.2877 93.6568 64.0348C93.6818 66.7761 93.4502 69.6225 93.7671 72.3466C94.2423 71.7115 94.7896 72.0656 95.3657 71.9028C95.8865 71.7558 96.4461 71.3582 96.9822 71.1789C98.172 70.7805 99.4332 69.9651 100.315 69.0176C101.246 68.0159 101.708 66.6245 101.649 65.2581C101.623 64.6343 101.373 64.0602 101.29 63.4433C101.182 62.6324 101.23 61.8089 101.168 60.9948C101.037 59.2623 99.8958 57.8482 99.0199 56.425C98.1604 55.0283 97.4977 53.4937 96.6992 52.0741C96.333 51.4229 95.7168 50.8991 95.2932 50.2676C94.708 49.3955 94.1353 48.5013 93.4387 47.7125C92.2061 46.317 90.702 45.0662 89.2529 43.9023C87.9936 42.8912 86.6022 42.053 85.291 41.1266C83.9051 40.1473 82.2516 39.3106 81.0155 38.1417C80.8451 37.9806 80.7413 37.7654 80.5662 37.6093C80.4494 37.5629 80.3309 37.5221 80.2105 37.4867C80.1028 37.3476 79.9987 37.2061 79.8978 37.0621C79.7003 36.934 79.3058 36.9221 79.08 36.853C78.7631 36.7559 78.473 36.5654 78.1908 36.4227C77.8282 36.2399 77.7733 36.1665 77.3133 36.1006C76.8817 36.039 76.5252 35.9233 76.1345 35.7221C75.3881 35.338 74.7436 34.7729 73.9467 34.4843ZM11.9288 71.7049C11.9854 71.9337 12.0302 72.1166 12.0796 72.317C12.4321 72.0148 12.4321 72.0148 11.9288 71.7049ZM49.8175 70.4857C50.5491 69.7513 50.7468 69.7264 51.5936 70.2631C50.8302 70.3977 50.424 71.8341 49.694 72.1622C49.346 72.3188 48.9624 72.3476 48.8687 71.8452C48.7662 71.2947 49.4982 70.8062 49.8175 70.4857ZM21.0605 68.439C21.1797 67.5159 20.4763 66.8238 19.6026 67.3303C18.3768 68.0407 17.8587 69.002 18.0198 70.3571C18.0908 70.9523 18.1544 71.5486 18.2294 72.1433C19.3762 71.4095 20.8789 69.8453 21.0605 68.439ZM50.4198 70.8025C49.9689 71.0019 49.7145 71.1531 49.4922 71.6089C49.812 71.3485 50.1192 71.0863 50.4198 70.8025ZM74.4532 68.6635C73.154 68.438 72.3761 69.5196 71.6986 70.4882C72.0346 70.7574 74.1093 69.0117 74.4532 68.6635ZM91.8354 66.6617C90.9744 67.0961 89.6271 68.2465 89.3884 69.2317C90.2454 68.4672 91.4015 67.7351 91.8354 66.6617ZM19.5818 66.5844C19.1628 66.5593 18.1945 66.1931 17.8329 66.4802C17.4994 66.745 17.8155 67.7492 17.8532 68.0945C18.4295 67.5911 19.0057 67.0878 19.5818 66.5844ZM76.0018 67.2982C75.2885 66.1998 73.618 67.1957 73.1122 67.9324C73.4722 67.9966 73.8422 67.6997 74.2206 67.7152C74.515 67.7274 74.7365 67.8892 75.0072 67.9625C75.5115 68.0985 76.3454 67.8274 76.0018 67.2982ZM66.3152 60.5956L66.3644 60.5961C67.2097 60.6339 66.8605 61.4551 67.0321 61.9788C67.2775 62.7282 67.8529 63.0751 67.8176 63.9381C67.7947 64.5007 67.5432 65.0265 67.2372 65.4859C66.6321 66.3933 65.6412 67.2924 64.5418 67.4885C63.3455 67.7019 62.4937 66.9094 62.5335 65.7061C62.5423 65.4428 63.5612 62.815 63.509 62.7794C63.0816 63.233 62.8815 63.0889 63.1618 62.5426C63.4645 61.9527 64.01 61.534 64.5897 61.2597C65.0079 61.0617 65.8853 60.5747 66.3644 60.5961L66.3152 60.5956ZM28.6169 65.1229C28.5887 65.7217 28.4839 66.904 29.4287 66.7439C30.1655 66.619 28.8163 65.3661 28.6169 65.1229ZM65.9503 62.1C65.3744 61.8126 65.0942 62.0423 64.6811 62.4864C64.0096 63.208 62.5989 65.1078 63.0373 66.1908C63.353 66.9707 64.5955 66.6179 65.16 66.3583C66.0429 65.9523 67.6407 64.559 67.262 63.4829C67.0856 62.9815 66.41 62.3295 65.9503 62.1ZM53.4276 62.4833C53.0645 62.1014 53.1692 62.129 52.7915 62.3581C52.6564 62.4401 52.4875 62.6932 52.3927 62.8154C52.1081 63.1813 51.8622 63.5854 51.6864 64.0149C50.5293 66.8424 53.9671 66.9815 55.6747 65.6964C56.1893 65.5048 53.7409 62.8128 53.4276 62.4833ZM8.07026 65.4463C8.03051 65.5224 7.78271 65.8809 7.87698 65.973C7.95271 66.0471 8.21339 66.0196 8.27548 65.9338C8.39456 65.7685 8.16852 65.5217 8.07026 65.4463ZM7.41166 63.9463C7.47489 64.5335 7.37569 65.2026 8.06686 65.4315C8.04963 64.7752 7.98924 64.3266 7.41166 63.9463ZM34.4912 61.5616C34.2866 60.7672 33.3275 60.6175 32.6386 60.7272C31.928 60.8403 31.0352 61.2685 30.8534 62.0354C30.6469 62.906 31.4081 64.8963 32.5601 64.7019C33.3279 64.5723 34.672 62.2637 34.4912 61.5616ZM25.1727 64.2383C25.1011 63.8116 23.8284 63.9812 23.5482 64.0375C23.9264 64.8019 24.5275 64.5945 25.1727 64.2383ZM44.9206 59.4044C45.5004 59.2085 45.3433 59.3791 45.8416 59.6288C47.7941 60.6071 44.8026 63.1036 43.7924 63.533C43.0432 63.8517 42.2789 63.7487 42.5252 62.7749C42.5912 62.5134 43.7016 60.9244 43.4844 60.7475C43.3578 60.9101 42.8758 61.756 42.7324 61.204C42.6534 60.9002 43.2996 60.3033 43.5072 60.135C43.8876 59.8264 44.4638 59.5586 44.9206 59.4044ZM7.39784 62.8765C7.3312 63.1212 7.26438 63.3658 7.19774 63.6106C7.27062 63.6423 7.86184 63.7135 7.85673 63.5703C7.84859 63.3541 7.47962 63.1032 7.39784 62.8765ZM56.6188 62.7073C56.7445 62.8727 57.2524 63.7603 57.429 63.405C57.6076 63.0466 56.8532 62.7065 56.6188 62.7073ZM82.6818 56.2435C83.4043 56.1309 84.5382 56.4176 84.7909 57.2149C83.7669 56.8236 82.8448 56.3378 81.8721 57.1202C81.1573 57.6951 80.6497 58.656 80.4253 59.5392C81.419 58.7704 82.4937 57.807 83.8263 57.8573C86.0625 57.9418 84.4298 60.5979 83.6002 61.3351C82.9577 61.9059 81.9558 62.6526 81.0773 62.7197C79.9773 62.8035 79.781 61.8224 79.6028 60.9608C78.9161 61.6898 78.2293 62.4187 77.5426 63.1478C77.1262 62.5568 78.9649 61.1111 79.2617 60.7247C79.9102 59.8806 80.0988 58.8201 80.6497 57.9201C81.1116 57.1657 81.7683 56.386 82.6818 56.2435ZM45.9 60.771C45.9364 60.2668 45.4319 60.118 44.9895 60.2316C44.0291 60.478 43.2191 62.2465 42.8563 63.0559C43.7138 62.8847 44.4651 62.3832 45.0668 61.7685C45.3043 61.5258 45.8737 61.1354 45.9 60.771ZM26.4405 62.2853C26.1135 61.8479 25.585 60.5001 24.9012 60.8623C24.7463 60.9445 24.3039 61.4426 24.1703 61.5845C23.9987 61.767 23.6001 61.9259 24.0985 62.0771C24.8521 62.3056 25.6664 62.2166 26.4405 62.2853ZM84.3048 59.4857C85.205 58.108 82.7204 58.7172 82.1875 58.979C81.5156 59.3087 80.4907 59.7821 80.1898 60.5318C79.8338 61.4187 80.4186 62.0758 81.3051 61.9061C82.5129 61.6748 83.6543 60.4813 84.3048 59.4857ZM73.8793 59.5804C75.8832 60.4961 72.9145 62.7088 72.3059 61.5374C71.8421 60.644 72.917 59.1406 73.8793 59.5804ZM66.4551 61.1566C65.8654 61.0237 65.9655 61.4519 66.3963 61.6198C66.9711 61.844 66.9147 61.2602 66.4551 61.1566ZM74.106 60.3712C73.8911 60.3799 72.5315 60.9051 72.7316 61.261C73.0062 61.7494 73.9985 60.5677 74.106 60.3712ZM40.0243 56.2001C40.9249 55.6911 41.2889 55.8131 42.2156 56.1333C45.6469 57.3196 40.6706 61.6125 38.5788 61.3094C36.6715 61.0331 37.4206 58.8244 38.1633 57.8425C38.6596 57.1865 39.301 56.6088 40.0243 56.2001ZM56.1342 60.5618C55.9841 60.3504 55.3249 60.7325 55.1685 60.7833C54.994 61.5165 56.2862 60.7759 56.1342 60.5618ZM42.6612 56.9794C42.2456 56.5731 41.5503 56.5622 41.0138 56.5854C39.771 56.6393 38.9108 57.5649 38.2689 58.5508C37.8414 59.2068 37.3699 60.5623 38.5776 60.7036C39.9017 60.8585 41.5086 59.5435 42.2997 58.6409C42.7176 58.1642 43.2286 57.5343 42.6612 56.9794ZM60.3338 57.0771C58.9104 57.3861 57.5644 57.9966 56.1207 58.2065C54.858 58.3903 53.875 58.1557 52.7274 57.6868C51.4683 57.1722 52.4565 58.0659 52.8567 58.4365C53.2487 58.7997 53.5904 59.2191 53.9382 59.6231C54.4525 60.2206 54.7174 60.3688 55.4966 60.2047C56.5461 59.9836 57.171 59.8498 57.997 59.1305C58.7788 58.4496 59.5535 57.7599 60.3338 57.0771ZM7.47471 59.1369C7.46971 58.8919 8.32262 58.3394 8.37635 58.7199C8.48827 59.5129 7.61573 58.8547 7.47471 59.1369ZM90.6767 55.1075C90.3588 55.4086 88.1085 57.2416 89.2888 57.6625C89.6565 57.7938 90.4694 57.2027 90.7187 56.9326C91.2715 56.3339 90.9746 55.7767 90.6767 55.1075ZM75.4289 52.0286C74.0078 52.6034 72.4363 53.2815 71.1131 54.0535C70.6593 54.318 70.2375 54.422 70.0143 54.923C69.8413 55.3116 69.7446 55.9955 69.7287 56.4206C69.6855 57.5839 70.658 57.766 71.5477 57.3515C72.3706 56.968 73.1025 56.277 73.7094 55.6107C74.4601 54.7869 75.6788 53.2326 75.4289 52.0286ZM18.4916 56.6345C19.3364 56.1442 22.6927 53.0153 19.7771 53.3944C18.9667 53.4999 18.629 55.9688 18.4916 56.6345ZM77.446 28.0234C73.9559 29.3868 70.1629 30.0857 66.5166 30.9032C63.3569 31.6114 60.2024 32.359 57.0468 33.0888C55.638 33.4146 54.1576 34.0582 52.7141 33.7646C51.2333 33.4633 49.8008 33.0706 48.3055 32.8347C46.6666 32.5761 45.0592 32.161 43.4234 31.8899C41.8014 31.6209 40.2954 31.0231 38.6954 30.676C35.5347 29.9904 32.3393 29.5506 29.1983 28.7473C29.3223 29.1228 29.239 29.5211 29.363 29.8966C29.4242 29.738 29.4978 29.5855 29.5837 29.4389C29.9597 30.0842 29.4987 30.975 29.4925 31.6688C29.4895 32.0127 29.5173 32.1301 29.4274 32.4668C29.3765 32.657 29.136 32.9285 29.2846 33.1422C29.6903 33.7256 31.8502 32.8664 32.3337 32.7663C33.5918 32.5062 35.0468 32.0776 35.1093 33.8502C35.1604 35.3064 33.5998 36.3992 32.6966 37.3607C33.9606 36.9619 35.157 36.3888 36.4437 36.0578C37.169 35.8714 38.1962 35.5235 38.919 35.8795C41.4334 37.118 37.1824 40.605 36.3364 41.4361C37.9363 41.317 41.1184 39.8864 41.079 42.7536C41.0523 44.7022 39.2281 46.2071 38.0981 47.6013C41.4453 49.9072 44.9655 51.9115 48.2085 54.354C48.9622 54.9218 49.4981 54.9694 50.4148 54.9192C51.2875 54.8714 51.9576 55.0971 52.7804 55.351C54.5851 55.9078 56.0263 55.4938 57.7918 55.063C59.5627 54.6308 61.2908 54.3072 63.0854 53.9975C64.8286 53.6964 66.1178 52.8217 67.5929 51.8799C68.2371 51.4686 68.8419 50.9525 69.5463 50.6452C70.1105 50.3991 70.8359 50.3574 70.4764 49.6761C70.2979 49.3383 69.8172 49.0096 69.5624 48.6956C69.3084 48.3827 69.0723 48.0557 68.8306 47.7332C68.3734 47.1235 67.8897 46.5313 67.4596 45.9021C66.666 44.7407 65.8912 43.2085 66.5344 41.8005C67.2788 40.1717 68.9763 41.1851 70.2439 41.4333C68.9674 40.2348 66.3569 38.8593 66.892 36.73C67.6498 33.7151 71.9068 36.6978 73.5571 37.1208C73.0149 36.4932 72.1931 36.1059 71.9248 35.2721C71.6783 34.5061 71.8705 33.6054 72.4941 33.0839C74.0523 31.78 76.3397 32.7301 77.8811 33.4588C77.659 31.6542 77.5136 29.8405 77.446 28.0234ZM35.1015 49.1596C34.5334 48.9332 33.191 48.0623 32.5665 48.3218C32.0241 48.5473 31.8068 49.4351 31.5221 49.8909C31.4924 49.6947 31.4626 49.4986 31.4331 49.3023C30.5407 50.4495 29.0253 53.1773 30.2859 54.516C31.2892 55.5813 33.082 54.9084 34.1457 54.3216C35.7624 53.4298 37.123 52.1605 38.3243 50.7721C37.3405 50.0698 36.2179 49.6049 35.1015 49.1596ZM84.9476 49.1314C84.6882 49.096 84.6587 49.1456 84.3789 49.163C84.098 49.1803 83.822 49.138 83.5376 49.1536C82.0792 49.2339 81.6088 51.5677 83.3118 51.2316C84.3893 51.0188 85.4591 50.282 86.3379 49.6482C86.0123 49.4643 85.7908 49.4137 85.4502 49.3379C85.2054 49.5467 85.0652 49.5177 85.0298 49.2508C85.0023 49.211 84.975 49.1712 84.9476 49.1314ZM27.5388 47.9166C27.7626 46.9998 25.8703 47.5958 25.4125 47.6493C24.61 47.7432 24.0603 47.664 24.072 48.6428C24.1038 51.2696 27.1473 49.5202 27.5388 47.9166ZM50.6615 34.3428C51.7754 34.3078 51.533 41.5058 51.5367 42.3642C51.5434 44.0301 51.568 45.6977 51.5484 47.3634C51.5428 47.8571 51.8286 49.8623 51.0288 49.6397C50.8002 49.576 50.1559 48.5927 50.0847 48.3659C49.9233 47.8509 50.0517 47.0845 50.0398 46.5468C50.0061 45.0171 49.9703 43.4875 49.9297 41.9577C49.8874 40.3645 49.8046 38.7689 49.7895 37.1755C49.7843 36.6232 49.702 35.8551 49.9257 35.3369C49.9969 35.172 50.4696 34.349 50.6615 34.3428ZM99.1471 48.6261C98.5906 48.0128 98.5905 48.0128 98.1684 48.2724C98.5258 48.2968 98.65 48.8633 99.1471 48.6261ZM57.0662 35.6211C57.6878 35.5583 57.7277 36.9073 57.7678 37.2427C57.8591 38.0068 57.7404 38.7403 57.7976 39.4706C57.9276 41.135 58.1157 42.7986 58.1288 44.4692C58.1354 45.3122 58.264 46.5586 57.9077 47.3739C57.7527 47.7283 57.5939 47.9552 57.1797 47.7645C56.7036 47.5452 56.7365 46.8399 56.6738 46.417C56.2251 43.3899 56.2693 40.4885 56.5242 37.456C56.5547 37.0918 56.5041 35.6779 57.0662 35.6211ZM66.5365 19.6728C67.1582 21.0172 67.7564 22.4041 67.1622 23.8758C66.9337 24.4417 66.5702 24.9515 66.0356 25.2611C65.5996 25.5133 64.9637 25.5765 64.6991 26.0642C67.2023 25.1929 69.6259 24.8924 72.269 24.9945C73.2551 25.0326 75.4806 24.71 76.2102 25.5576C76.7374 26.1697 76.2346 26.7019 75.5747 26.6959C74.4284 26.6854 73.3062 26.6495 72.1471 26.7065C69.5284 26.8351 67.1737 27.3116 64.6574 28.0181C62.5892 28.5986 60.5566 29.3282 58.5333 30.0444C58.1647 30.1747 57.0637 30.3293 56.8999 30.7442C56.5446 31.6438 58.2841 31.2455 58.5959 31.1567C62.6898 29.9917 66.8036 28.6795 70.9895 27.8754C73.09 27.4719 75.1558 27.0346 77.2469 26.575C78.3023 26.3433 78.651 26.8577 78.9151 27.8415C79.1383 28.674 79.2259 29.5514 79.2998 30.4076C79.3692 31.2143 79.1424 32.6184 79.5017 33.3377C79.7071 33.7489 79.9249 33.6913 80.3126 33.8032C80.7198 33.9209 80.6452 33.9844 80.8987 34.1734C81.3638 34.5207 81.721 34.4324 82.2891 34.6058C82.9396 34.8043 83.6207 35.4845 84.1834 35.8611C84.8403 36.3007 85.4419 36.7503 86.1226 37.1153C86.4026 37.2656 86.7173 37.4505 86.9812 37.6269C87.0766 37.6905 87.0773 37.8842 87.1854 37.9389C87.2384 37.9656 87.5 37.9024 87.4999 37.9022C87.6704 38.0477 87.6825 38.2815 87.8516 38.4027C88.0076 38.5145 88.189 38.4471 88.3448 38.5215C88.7052 38.6941 89.4183 39.142 89.3884 39.6181C90.1457 38.8902 91.1176 40.7801 91.7186 40.9765C92.2839 41.1611 92.2474 40.8827 92.6973 41.3926C93.1466 41.9015 93.738 42.2709 94.1662 42.797C94.5533 43.2728 94.6571 43.4607 95.1254 43.8586C95.54 44.2108 95.6924 44.775 96.0442 45.1369C96.2274 45.3252 96.4724 45.3384 96.6507 45.5072C96.8182 45.6658 96.851 45.9993 96.9456 46.2022C97.1721 46.6872 97.4526 47.1877 98.0652 47.1392C97.9861 46.7639 97.9053 46.5445 97.7578 46.2063C97.5694 45.7746 97.5132 46.1571 97.4909 45.6626C97.4725 45.2547 97.7782 45.3561 97.4301 44.9535C97.2207 44.7115 96.9797 44.534 96.9193 44.9946C96.6556 44.5908 96.6897 44.1619 96.6384 43.7161C96.628 43.6255 96.5396 43.1346 96.6032 43.0689C95.5186 43.0272 95.3208 41.4433 94.7391 40.7242C94.3741 40.2723 93.9555 39.8761 93.6403 39.3826C93.3088 38.8637 93.0943 38.3141 92.6979 37.8361C92.3405 37.4056 92.1595 36.9401 91.7873 36.5718C91.4424 36.2306 91.1999 35.87 90.8722 35.4504C90.7513 35.2956 90.6303 35.0389 90.4817 34.926C90.3518 34.8273 90.25 34.9729 90.1718 34.9119C90.0646 34.8284 89.4306 34.3714 89.8395 34.3131C89.824 34.2865 89.6099 34.1537 89.6131 34.167C89.4698 33.5666 89.4011 33.5926 88.9814 33.2352C88.5314 32.8518 88.1373 32.6778 88.0538 32.1394C87.6583 32.6424 86.8984 31.1626 88.0532 32.1369C87.9945 31.8018 87.3798 31.7957 87.2314 31.6538C87.0349 31.4661 87.0113 31.1491 86.9376 30.9041C86.5418 31.2353 86.5393 31.0394 86.265 30.7215C85.9852 30.3971 85.826 30.4182 85.5208 30.2312C85.2102 30.0411 85.34 30.1467 85.2422 29.6963C85.1734 29.3801 85.1494 29.2123 84.8696 28.9961C84.8376 29.2513 84.8054 29.5067 84.7732 29.7619C84.6322 29.5031 84.334 29.4603 84.1616 29.2445C84.0698 29.1297 84.0289 28.8119 83.9462 28.7454C83.8522 28.6698 83.6559 28.6145 83.5478 28.5387C83.493 28.5003 83.3216 28.2665 83.2501 28.2078C83.1679 28.1405 82.9981 28.272 82.8932 28.1562C82.7431 27.9906 82.823 27.7587 82.823 27.5647C81.9347 27.7686 81.1249 26.6413 80.7497 25.9305C80.6953 26.1366 80.641 26.3431 80.5865 26.5494C80.4596 26.4064 80.3474 26.1099 80.1791 26.0131C79.9339 25.8719 79.9654 25.9875 79.6956 25.9244C79.1746 25.8026 79.0135 24.6965 78.5934 25.357C78.3778 24.6548 78.3958 24.9006 77.805 24.695C77.4633 24.5762 77.0844 24.292 76.8406 24.0228C76.7081 23.876 76.5695 23.4732 76.3072 23.4135C76.3113 23.4144 76.0395 23.3489 76.0811 23.3657C76.143 23.3911 75.8842 23.4993 75.9289 23.5442C75.4746 23.3258 75.0119 22.955 74.674 22.6193C74.5691 22.5151 74.3226 22.344 74.2039 22.3334C74.0084 22.316 73.9506 22.5588 73.7206 22.48C73.413 22.3747 73.5571 22.1187 73.4556 21.9262C73.3605 21.7455 73.3857 21.3781 73.1006 21.3118C72.9439 21.2754 72.9675 21.4001 72.8651 21.4084C72.7847 21.4149 72.6192 21.651 72.4666 21.6762C72.1225 21.7336 72.1376 21.5773 71.95 21.4558C71.7136 21.3027 72.0093 21.2747 71.6354 21.169C71.5407 21.1423 71.3397 21.3313 71.256 21.3103C71.0828 21.2669 71.0387 21.0682 70.899 21.0108C70.6712 20.917 70.5061 20.9416 70.2487 20.9034C69.021 20.7207 67.7578 20.0013 66.5365 19.6728ZM39.9335 42.5754C38.7603 42.3793 37.133 42.9005 36.0613 43.348C34.7667 43.8883 33.5049 44.5204 32.2515 45.1492C32.7706 45.71 33.7086 45.8291 34.3903 46.0845C35.0107 46.3172 35.7425 46.8723 36.3716 46.5218C37.0643 46.1357 37.7795 45.3007 38.352 44.7475C38.9992 44.1219 39.6027 43.4249 39.9335 42.5754ZM17.456 38.0475C17.3354 38.0928 16.911 38.243 16.9689 38.3531C17.1503 38.697 17.3977 38.2053 17.456 38.0475ZM28.4664 27.5149C28.1367 27.4768 28.0634 27.8222 27.8073 27.9404C27.6049 28.0338 27.2965 27.8584 27.1373 28.0751C26.997 28.2663 27.1636 28.4666 26.9713 28.6916C26.8575 28.8246 26.554 28.8627 26.4052 28.9529C25.7427 29.3545 25.1893 30.0108 24.5483 30.4595C23.938 30.8867 23.6716 31.417 23.3066 32.0589C23.2142 31.9338 23.1215 31.8088 23.0289 31.6838C22.9804 31.7398 22.9401 32.0445 22.8884 32.1206C22.8479 32.1809 22.6329 32.1807 22.5659 32.251C22.4108 32.4135 22.3256 32.6388 22.1579 32.7999C22.018 32.9344 21.8452 32.955 21.7251 33.1219C21.4821 33.4601 21.5038 33.6816 21.2078 33.991C20.9509 34.2596 20.7061 34.4531 20.3903 34.6111C19.9324 34.8403 19.8419 34.8983 19.5579 35.399C19.32 35.8183 19.1064 36.2306 18.7282 36.5441C18.5928 36.6563 18.3499 36.7338 18.2386 36.8581C18.1756 36.9287 18.0217 37.2402 18.0111 37.2489C17.9579 37.2921 17.9954 37.366 17.8822 37.4389C17.7207 37.543 17.4329 37.3829 17.2902 37.5115C17.0496 37.7286 17.2792 37.9137 17.4636 38.0265C17.758 38.2063 18.1404 37.9878 18.3872 37.8374C19.0513 37.4327 19.5471 36.9666 20.2731 36.6389C21.0964 36.267 21.7844 35.7048 22.6399 35.3839C23.467 35.0734 24.334 34.8839 25.1446 34.5277C25.7902 34.2441 26.5601 34.372 27.1061 33.941C27.748 33.4344 27.3132 33.0863 27.3382 32.3959C27.3957 30.7937 27.3821 28.7977 28.4664 27.5149ZM55.5515 32.1309C55.5628 31.8647 53.4235 32.1413 53.2266 32.1529C53.4412 32.3027 55.5178 32.931 55.5515 32.1309ZM39.2699 27.8542C37.1165 27.8252 34.9094 27.5509 32.7655 27.8294C32.7397 28.1852 36.1437 28.4974 36.574 28.5817C38.0485 28.8705 39.4454 29.2846 40.8789 29.7219C42.2758 30.1482 43.724 30.3712 45.1423 30.7113C46.5934 31.0595 48.0323 31.4295 49.5017 31.6964C50.4405 31.867 51.512 32.0594 51.9643 30.9449C52.1257 30.547 52.0576 30.5682 51.6036 30.3649C51.1269 30.1512 50.594 30.0843 50.1075 29.8951C48.768 29.3741 47.3841 28.9745 45.9906 28.5969C43.82 28.0084 41.5079 27.8843 39.2699 27.8542ZM58.5392 21.0799C57.7312 20.4178 57.7567 19.863 56.8853 20.8181C56.2845 21.4767 55.7141 22.0924 54.7568 21.8827C54.3514 21.7938 53.8166 21.6349 53.4689 21.4058C53.1917 21.223 52.9905 20.726 52.716 20.6027C52.1399 20.3441 51.2593 21.6006 50.7112 21.9081C49.8128 22.4122 49.0124 22.4387 48.1663 21.8628C47.1904 21.1987 47.0187 21.567 46.249 22.2733C45.445 23.0113 44.8693 22.7756 44.2315 21.9884C44.1363 22.7502 44.1257 23.519 44.099 24.2854C44.0663 25.2202 44.4988 26.2512 45.4121 26.5632C46.5943 26.9672 47.9515 27.2851 49.1772 27.5028C48.5781 26.9378 47.9439 25.1279 49.0336 24.6643C49.7658 24.3526 50.0717 25.4612 50.181 25.9928C50.3252 26.693 49.6435 27.7362 50.2228 28.1339C50.5344 28.3478 51.1048 28.3055 51.4609 28.4222C52.0689 28.6213 52.5954 29.0272 53.1156 29.3845C53.5952 29.7139 54.1744 30.213 54.7706 30.291C55.396 30.3729 55.7951 29.9328 56.2529 29.5734C57.4277 28.6509 58.7775 27.9304 60.1822 27.4224C60.5754 27.2803 61.268 27.2703 61.5944 27.0132C62.0575 26.6487 61.8805 25.9166 61.8331 25.4011C61.6927 23.8743 61.5068 22.2837 61.0096 20.8274C60.1937 21.4577 59.4403 21.8186 58.5392 21.0799ZM53.9331 24.8931C54.7245 24.4086 56.1079 29.8867 55.0221 29.9666C54.0257 30.0397 53.0753 25.4181 53.9331 24.8931ZM37.7572 21.1332C37.6495 21.2444 37.4115 21.1135 37.3049 21.2305C37.2178 21.3262 37.4936 21.4518 37.4511 21.5001C37.2635 21.7131 36.9954 21.8459 36.6944 22.0128C36.6783 21.9414 36.6597 21.8703 36.6395 21.8001C36.6238 21.7938 36.2272 22.4488 36.1833 22.4863C35.8966 22.7324 35.6013 22.6339 35.3037 22.8144C35.1328 22.9181 35.0849 23.0797 34.9397 23.1901C34.4424 23.5685 33.5751 24.002 33.0697 24.1266C32.614 24.2388 32.0983 24.8278 31.9662 25.3571C31.5847 25.1292 31.0789 25.7029 30.7372 25.9378C30.5095 26.0941 29.5839 26.5731 29.5368 26.7554C29.2808 26.9975 28.9543 27.1748 28.7402 27.4603C29.2797 27.937 29.9728 26.9552 30.5148 26.6811C31.3994 26.2338 32.388 25.9426 33.3605 25.7651C35.3921 25.3945 37.3522 25.9979 39.3591 25.781C37.6716 24.9377 37.4221 22.7966 37.7572 21.1332ZM57.0499 27.4086C55.8149 27.2316 56.3484 24.0285 57.3584 24.8002C57.9055 25.2183 58.0672 27.5543 57.0499 27.4086ZM63.0371 25.6868V26.5369L63.9542 26.1872C63.6484 26.0203 63.3429 25.8535 63.0371 25.6868ZM42.3097 21.0174C41.1632 20.6887 40.0249 21.0519 39.2745 21.9698C38.4205 23.0145 39.2896 23.7663 40.3322 24.1473C41.3637 24.5245 42.47 24.5893 42.2186 25.9272C42.5183 25.9718 42.8178 26.0163 43.1173 26.0608C43.0552 25.4875 43.2028 24.6925 42.8176 24.2064C42.4217 23.7068 41.4735 23.6302 40.9205 23.3555C40.3123 23.0531 39.9295 22.2093 40.9423 22.2334C41.6567 22.2504 42.4958 22.8137 42.8831 23.3815C43.0858 22.3402 43.6519 21.4024 42.3097 21.0174ZM65.0234 20.9822C64.5923 20.945 64.1011 21.1002 63.7152 21.2809C63.4894 21.3868 62.9493 21.9094 62.6837 21.6923C62.4823 21.5278 62.6526 21.1559 62.2648 21.2201C62.4255 21.7055 62.5862 22.1909 62.7469 22.6763C63.1543 21.9168 64.9772 22.0033 64.3046 22.9586C64.0373 23.3387 63.4756 23.3127 63.1859 23.67C62.8524 24.0815 63.0063 24.6535 63.0402 25.1292C64.0948 24.6044 66.0076 23.9696 66.2541 22.627C66.3996 21.8336 65.8183 21.0509 65.0234 20.9822ZM42.636 18.6751L41.384 19.2031C41.8014 19.4411 42.2188 19.6789 42.636 19.9168V18.6751ZM64.5651 19.0645C63.8796 18.8394 63.2384 18.9512 63.4265 19.8005C63.8059 19.5552 64.1855 19.3098 64.5651 19.0645Z" fill="#0C46D0"/>
</svg>
