<svg width="109" height="112" viewBox="0 0 109 112" fill="none" xmlns="http://www.w3.org/2000/svg">
<path fill-rule="evenodd" clip-rule="evenodd" d="M26.1997 58.7411C26.1799 59.1272 27.3609 59.4182 27.7294 59.2049C27.4582 58.6335 26.7174 58.8762 26.1997 58.7411ZM43.9994 75.617C45.7109 76.8535 44.7497 73.9834 44.1663 73.2133C42.9379 72.0716 42.9072 75.1997 42.2301 75.8022C40.3664 74.0519 39.3189 74.6315 38.9192 77.043C36.3863 75.0971 35.19 75.3628 35.481 78.773C36.77 82.0043 35.956 75.9437 37.1046 77.1928C39.4035 78.848 39.7914 79.468 40.6569 76.4008C42.0191 78.1491 43.5957 77.8173 43.9994 75.617ZM13.9181 69.5159C16.1155 69.7097 12.0555 72.6115 15.7844 73.4131C16.2863 74.38 17.0262 74.7949 18.1196 74.6777C18.7615 74.6089 18.8083 74.674 18.6289 75.3385C18.0142 76.3073 19.6821 78.9092 20.1292 77.218C19.607 75.4728 21.1596 72.2058 17.8754 73.1411C16.7942 73.469 19.0155 69.8199 15.9394 71.3177C14.343 70.6395 17.3231 67.5847 12.3877 68.7028C11.6816 68.7591 12.4789 69.8376 11.5239 69.7227C10.7155 69.6789 11.4289 70.8594 10.5854 70.1972C10.1711 70.2728 10.6447 71.0586 11.0558 71.0043C12.1798 71.0689 11.6436 69.3641 13.9181 69.5159ZM9.2995 78.9872C14.4469 75.5856 5.09461 78.6722 7.95192 85.8746C11.3366 95.2797 22.6208 90.4182 19.8304 81.331C18.2252 77.2313 11.024 78.4302 10.3752 82.4199C9.20297 85.7585 13.8953 88.7466 16.0971 85.7826C17.8629 83.8875 14.021 80.5871 12.8936 82.996C12.7026 83.6243 14.233 85.0696 14.261 83.9186C14.2096 83.498 14.5194 83.2842 14.8043 83.5385C16.3864 86.3147 10.3347 86.3678 11.4107 83.1618C13.659 76.9638 22.3687 79.5427 18.0999 87.6393C12.8317 94.3839 4.97127 84.567 9.30544 78.9789L9.2995 78.9872ZM0.110266 79.1802C0.142055 78.4441 1.17663 78.0681 1.17512 77.1496C1.89251 77.1036 1.71385 76.1486 2.88401 76.1608C2.81697 75.3215 3.47291 75.2066 4.00898 75.0334C4.63074 74.6037 3.87516 74.3188 5.02446 74.6536C4.86596 73.0006 7.07727 73.0932 7.88842 71.7762C8.30586 70.8931 9.4255 70.9826 9.99513 70.2804C9.58098 69.2664 10.4144 69.9663 10.6473 68.9749C10.8975 68.7464 11.262 68.6937 11.598 68.8249C11.9804 67.3383 14.0145 66.7277 14.6767 65.3058C15.022 65.1745 15.311 65.1501 15.4116 64.7171C16.4839 64.5286 15.2829 65.4473 16.0021 65.314C16.3904 64.9226 16.3844 64.4428 16.3216 63.9316C16.9513 63.6626 17.3148 63.1106 17.831 62.5463C19.1557 61.7639 20.9606 60.7368 21.5888 59.3396C23.2505 59.2499 23.8213 56.6929 25.5031 57.3568C23.3403 58.5589 21.9858 60.8112 21.4465 63.1728C20.7288 67.7925 24.9925 72.1998 29.6825 70.9689C37.9456 69.0591 34.0727 57.42 26.4691 60.2894C24.3112 61.1205 23.4019 64.5577 24.9024 66.2888C26.7159 69.0745 32.6968 66.7547 30.2846 63.5574C28.3041 61.7512 26.3306 65.3385 28.2153 64.9248C30.8477 62.386 29.7553 67.5828 26.4629 66.2026C20.1645 61.5502 34.5494 57.4133 33.2952 66.2176C30.8718 72.3783 22.0025 70.2985 22.1477 64.0103C22.1026 63.5767 22.1037 62.9498 22.8478 62.8001C23.6783 62.1002 23.2182 61.8724 22.364 62.6599C22.6666 60.7731 23.9221 59.4818 25.2499 58.2172C26.1245 56.3771 28.0476 57.5569 29.706 58.0237C29.5303 58.711 30.0266 58.5841 30.4085 58.584C34.8323 59.9161 38.2569 63.5027 42.1249 66.0257C48.5008 72.2954 53.5422 66.1882 50.1638 72.1592C49.5593 74.4944 50.2946 76.7983 51.6624 78.7358C51.8529 79.8504 54.5799 80.369 53.6496 81.3442C50.9241 83.2243 51.9554 87.4305 50.2614 89.6908C49.3359 89.3724 48.7613 89.6708 47.8704 90.1233C47.1672 89.4477 47.4672 90.4732 46.7585 90.4486C44.5999 89.796 42.6336 91.6012 40.2666 91.5779C40.0833 87.1528 33.2796 82.8566 30.9491 88.0612C29.3739 90.2052 31.2805 94.5389 27.5187 94.0529C27.3459 94.085 27.2334 94.4426 27.0932 94.6505C25.8992 94.9657 25.0884 94.2566 23.6116 95.6376C23.0032 94.7233 20.459 92.6203 20.4331 94.9061C20.6837 96.7062 19.4815 96.7886 18.1644 96.0802C15.4426 95.3818 17.7417 99.1443 16.7368 99.7919C11.4232 97.0885 14.6268 102.344 13.0162 101.941C12.9514 101.267 12.1184 101.597 12.0288 100.857C11.1451 100.278 9.58125 100.749 9.21159 99.4982C6.71071 98.4848 6.15467 95.6802 4.30823 94.441C3.34931 92.1775 2.98 89.6444 1.7428 87.5027C1.65871 86.345 0.762301 85.0215 1.22689 84.0203C1.93868 83.3371 0.0536138 83.2489 0.571566 81.9383C0.799862 81.2161 0.171181 80.5959 0.09375 79.9077C0.623334 79.6771 0.358365 79.4285 0.110266 79.1802Z" fill="#0C4468"/>
<path fill-rule="evenodd" clip-rule="evenodd" d="M69.4457 95.1564C69.0126 94.6743 68.8504 94.7656 68.5808 95.2065C68.7625 95.6725 69.0927 95.4739 69.4457 95.1564ZM30.1168 97.6482C30.6182 97.2802 31.4252 96.3021 31.4894 95.7429C30.9821 96.132 30.1149 96.987 30.1168 97.6482ZM18.917 106.27C18.477 105.755 17.205 107.41 17.3361 108.002C18.1238 107.827 18.3823 106.818 18.917 106.27ZM73.2617 92.3649C72.7248 92.3831 71.1132 94.1523 71.3914 94.9614C72.2107 94.3089 72.8686 93.3553 73.2617 92.3649ZM52.6062 105C52.2058 104.503 50.2602 107.046 50.134 107.602C51.1363 106.98 51.7666 105.828 52.6062 105ZM74.1774 102.524C73.4014 102.693 71.9827 104.378 71.7161 105.349C72.8255 104.83 73.3293 103.406 74.1774 102.524ZM23.5481 103.628C24.0304 103.357 25.6422 101.857 25.1437 101.453C24.6469 101.613 22.7996 103.056 23.5481 103.628ZM18.1542 104.986C17.1457 105.335 15.6165 106.531 16.1099 107.6C17.0268 107 17.4497 105.821 18.1542 104.986ZM27.3204 102.451C26.3728 102.253 24.6556 104.135 23.9238 105.017C25.4466 105.348 26.2194 103.239 27.3204 102.451ZM59.2601 91.9372C60.3155 90.9377 61.403 89.6118 62.0368 88.3212C61.1492 88.7737 60.5754 89.7593 59.8287 90.429C59.5617 90.8088 58.4183 91.6386 59.2601 91.9372ZM25.329 106.507C26.1504 106.296 28.7724 103.683 27.794 103.467C27.1682 104.424 24.8849 105.338 25.329 106.507ZM42.8173 107.223C41.6415 107.116 40.2499 109.545 39.0428 110.332C39.2011 111.774 42.132 107.84 42.8173 107.223ZM52.6851 106.473C51.0475 107.607 49.3723 109.155 48.1761 110.762C49.983 109.853 51.3478 108 52.6851 106.473ZM50.623 95.6208C50.3609 95.3968 50.0822 95.5389 49.8614 95.6926C44.1904 100.957 47.0747 100.241 50.623 95.6208ZM74.2033 89.5754C72.8603 90.6485 70.6129 92.8004 70.0748 94.6301C71.7869 93.4628 73.0204 91.312 74.2033 89.5754ZM70.5928 105.203C73.8105 102.487 76.6884 97.1644 71.1713 103.518C70.7823 104.066 70.209 104.446 70.5928 105.203ZM40.1217 98.9075C38.6487 99.0926 37.5182 101.528 36.2368 102.524C35.6958 105.127 39.6589 99.6736 40.1217 98.9075ZM48.9823 106.77C50.4393 105.531 52.1083 104.036 53.1573 102.463C52.3445 102.351 47.4689 106.226 48.9823 106.77ZM17.2684 101.906C17.8355 101.416 22.9908 96.5171 21.1025 97.5286C20.0804 98.5125 16.3366 100.415 17.2684 101.906ZM41.5771 105.08C40.2246 104.943 39.2186 106.779 38.0931 107.464C33.5159 112.419 40.5984 106.956 41.5771 105.08ZM73.4159 88.4406C71.8238 89.0062 69.6742 91.5934 69.0589 93.355C69.9596 94.5871 72.829 89.3596 73.4159 88.4406ZM61.4165 99.1702C62.3702 97.9144 63.6599 96.6004 64.4699 95.2748C63.3183 95.3925 58.6563 99.9278 59.704 100.931C61.0432 101.918 62.0754 98.9227 63.1163 98.2209C63.0449 97.5516 61.8371 98.9913 61.4165 99.1702ZM77.3702 104.192C68.7218 110.567 71.9159 112.923 77.4064 104.143L77.3702 104.192ZM36.3948 99.74C36.7991 98.5179 39.0654 97.7241 38.9824 96.686C38.0888 97.2101 32.9684 101.116 34.9223 101.401C34.3976 102.172 34.5127 102.918 35.4174 102.153C36.8306 100.483 38.8707 99.0688 39.9461 97.2435C38.4948 97.4248 37.794 99.2764 36.3948 99.74ZM73.6626 98.9994C67.0694 104.022 69.4839 106.007 73.7 98.9489L73.6626 98.9994ZM49.0018 99.3667C54.5263 93.3868 49.2046 97.1326 47.8644 99.9264C48.6244 99.6344 48.491 100.858 49.1723 100.19C51.1914 98.4041 51.6855 97.0889 49.0018 99.3667ZM63.6515 99.3695C58.0261 104.185 59.8858 105.256 63.6975 99.3184L63.6515 99.3695ZM41.5914 106.415C40.359 107.428 38.6243 108.709 38.0433 110.171C39.2556 109.704 41.7966 106.594 41.5914 106.415ZM20.6452 99.9254C17.0243 101.987 18.2014 104.146 20.6853 99.8809L20.6452 99.9254ZM47.8975 90.1074C49.1462 90.1231 57.8024 87.5714 57.1855 88.6889C56.2092 89.2998 54.911 92.1174 56.8953 90.456C57.8076 89.6376 58.5292 87.8204 59.8873 87.9331C59.8038 88.4803 56.7412 91.0006 59.0053 90.1329C62.5953 84.5936 76.687 82.6329 79.6731 91.1189C80.7465 92.5065 78.4775 93.2782 77.8208 94.3501C77.5078 94.6835 76.8509 95.0678 77.3138 95.5421C78.4162 96.094 79.2006 94.0139 80.0198 93.4535C81.1899 93.3104 78.8056 95.2546 78.6963 95.8847C78.3925 96.4591 79.1912 96.4881 79.244 96.8816C79.2993 97.2948 79.5685 97.2487 79.8515 97.2546C80.5701 97.2905 80.1381 95.8799 80.9967 96.2096C81.1868 97.045 81.6007 97.9658 80.3383 98.0508C82.4003 98.4246 80.9169 100.514 81.8643 101.804C82.0485 104.385 81.2527 107.886 78.3859 108.681C77.6069 109.58 76.6074 108.795 77.5177 107.944C78.6039 105.954 77.0679 107.542 76.4683 108.415C74.9107 111.049 74.3769 109.512 76.2906 107.744C76.7206 107.001 78.6729 105.164 77.0987 106.12C75.3486 107.122 74.1459 110.607 72.4011 110.574C69.1058 110.53 60.882 113.571 65.787 108.41C64.6955 108.501 63.6508 110.664 62.5989 111.47C59.991 111.661 64.5015 108.905 63.9344 107.896C62.9759 108.519 61.4901 110.57 62.3207 108.347C61.3616 108.774 59.8597 110.648 59.0846 111.661C56.8294 111.911 54.6928 111.147 52.4901 111.783C52.0909 111.957 51.4691 112.195 51.1397 111.505C49.6721 112.036 48.0045 111.802 46.4273 111.942C45.9893 111.977 45.6686 112.141 45.3096 111.691C44.8789 111.151 44.2325 111.442 43.6915 111.549C41.8883 111.647 39.8463 111.321 37.9199 111.266C36.341 111.149 34.5421 111.393 33.1358 110.789C27.4902 112.218 34.1155 107.776 32.9946 107.161C31.7906 107.946 28.8089 111.634 30.3468 108.566C29.4977 108.945 28.9323 109.901 28.1974 110.497C26.1877 110.813 32.024 105.915 30.3439 106.162C25.351 112.281 26.4652 109.782 19.4477 109.331C14.6039 108.277 11.2484 104.599 15.6504 100.616C18.3145 98.8303 20.2942 96.483 23.6137 95.7952C24.696 95.6037 25.8036 94.865 26.8475 94.8898C26.9626 95.8684 24.5076 97.8212 26.9057 97.2812C28.5375 94.3558 33.2651 91.1462 28.5196 96.4542C27.8866 97.5949 29.8172 96.5683 29.9031 96.1987C30.3491 94.964 31.0734 94.0608 32.2226 93.4663C32.7919 92.9646 33.8784 93.7313 34.519 92.8704C35.0507 92.9485 35.5122 93.3182 36.0654 92.9852C37.3644 92.057 38.868 92.1084 40.2949 91.5633C42.9724 91.0464 45.6983 90.9753 47.8975 90.1074Z" fill="#A7D455"/>
<path fill-rule="evenodd" clip-rule="evenodd" d="M105.038 74.4172C104.755 74.2206 104.507 73.5424 104.142 73.7612C104.012 74.2564 104.709 74.9386 105.038 74.4172ZM99.6224 72.203C99.5319 71.1192 98.1098 71.2852 98.1327 72.385C98.1029 73.4577 99.7 73.116 99.6224 72.203ZM90.6125 62.3832C90.1775 61.7548 89.8375 60.8404 88.9935 61.2562C88.0182 62.234 89.8442 63.9419 90.6125 62.3832ZM83.1141 64.3351C83.1871 63.2103 81.3109 62.7083 81.2429 63.9609C81.3098 65.0803 83.0596 65.8953 83.1141 64.3351ZM92.3357 82.4889C91.4669 82.4775 91.0704 82.7768 91.0765 83.4393C91.3185 85.9404 95.1066 82.7934 92.3357 82.4889ZM76.6953 80.0771C74.8805 79.9959 75.2036 81.8763 76.6499 81.9667C77.8848 81.9743 78.2514 79.9783 76.6953 80.0771ZM97.8894 61.4372C97.4251 59.4412 95.6481 60.0988 95.4279 61.8142C95.7544 63.5292 97.957 63.3682 97.8894 61.4372ZM103.891 70.2173C108.409 80.6727 100.764 70.4059 93.6967 86.4364C91.6628 87.8108 88.1304 85.526 86.3081 84.1541C85.7386 83.7494 86.0817 83.5816 86.5864 83.3696C90.3025 81.827 93.6074 79.0772 95.4932 75.6107C105.673 56.8149 71.6207 64.493 84.0302 83.0044C84.6311 83.8048 82.6489 83.6427 82.1911 83.9654C78.9197 84.6723 75.6498 84.2606 72.677 82.7574C69.5503 82.3401 78.5032 77.9662 79.3302 71.9582C81.3461 65.9991 74.4122 62.703 69.7102 65.4203C69.4656 65.0591 69.6728 64.9954 69.9912 64.8691C73.5177 63.6235 70.6934 62.702 68.5696 63.1537C70.471 62.0297 72.4417 64.2579 74.1406 62.68C76.2734 60.5624 79.7417 60.4328 81.5069 58.1828C81.5286 58.083 81.2381 57.9335 81.1237 57.7814C80.7639 57.3027 80.5214 57.9535 80.2066 57.8651C77.1068 57.4614 81.3463 55.1452 78.2717 55.565C79.4875 55.221 80.4592 55.9858 81.6243 55.7859C81.8887 55.0234 83.6807 55.6971 82.343 56.0516C82.2511 56.1333 82.3043 56.6248 82.2679 56.6771C81.5577 57.2701 81.3534 55.8224 81.0361 56.473C80.0635 57.5462 82.5754 58.1235 83.1743 57.8758C83.4353 58.0527 83.4926 58.3538 83.9035 58.0982C86.9389 56.5771 84.9026 57.759 85.8539 58.1635C85.6734 57.2976 86.4432 57.4941 86.7706 57.4815C89.2743 57.5027 91.5598 56.1858 94.0765 56.7111C95.3439 56.6515 95.7165 57.1389 96.5013 58.1592C97.2334 57.9555 97.3604 58.6118 97.5904 58.997C99.824 62.7181 101.769 66.4819 103.891 70.2173Z" fill="#2A6F64"/>
<path fill-rule="evenodd" clip-rule="evenodd" d="M24.3091 23.355C23.3841 23.3542 24.7442 21.8773 23.7627 22.035C21.5579 22.3977 22.2788 25.2786 21.9278 26.9163C21.1563 37.3224 26.2954 34.0775 33.7296 34.3079C37.0282 34.8002 49.2614 32.9778 50.4612 35.2731C53.6116 37.4601 55.0194 41.0586 55.0298 34.7355C54.4478 31.3501 56.4065 23.693 53.6693 21.7267C47.9318 21.2826 42.1271 21.8092 36.3678 21.5714C32.5725 21.6147 28.7748 21.6748 24.9813 21.794C23.6434 22.0111 25.5538 22.8953 24.3091 23.355ZM26.4244 56.9651C16.2319 60.9419 9.99031 52.6651 23.0725 51.4586C20.6849 48.9445 17.885 46.6863 17.1178 43.142C17.5061 38.4376 24.4981 42.2134 26.7317 43.7594C30.0635 45.9666 32.3373 49.3685 34.5643 52.6156C34.8554 53.0237 35.5461 54.9545 35.7838 53.9353C35.7303 48.1939 35.7934 42.4492 35.7399 36.7096C35.702 35.6128 35.58 35.4862 34.5281 35.5034C23.1241 36.0021 19.1253 37.006 21.1429 23.5167C22.3067 19.0432 28.8236 21.4442 32.2845 20.7177C35.3062 20.7887 35.8644 20.7893 35.4405 17.5746C35.0316 11.7413 41.0524 7.70965 46.4576 8.41938C51.9178 8.39762 57.3795 8.37658 62.8397 8.28681C63.8025 8.51944 66.0958 7.69643 66.0303 9.10272C66.0868 9.57732 65.7724 9.56356 65.4375 9.56089C58.9052 9.48578 52.373 9.58141 45.8407 9.61248C39.0559 9.31103 35.903 14.5114 36.7938 20.6353C40.174 20.7349 43.5554 20.7777 46.9326 20.6126C49.9231 21.055 55.7067 19.0886 55.9758 23.5346C56.5167 27.7763 56.3188 32.0453 56.1217 36.3026C56.3367 42.1362 54.8541 40.5541 51.4649 37.6243C49.4804 34.9886 46.6371 35.1413 43.6639 35.4802C43.3539 36.0989 43.1394 35.8185 42.8854 35.4414C41.2023 35.8287 37.1383 34.3975 36.7831 36.3543C37.0507 43.0489 36.7323 50.0049 36.9724 56.7848C37.0036 57.0848 37.0115 57.392 37.0338 57.6936C37.0265 58.1556 37.0075 58.8194 36.9809 59.3608C36.819 60.667 37.7949 62.9551 35.8041 61.1464C35.7354 59.7362 36.1953 57.9234 35.7328 56.6327C34.0865 54.4621 33.0087 51.9792 31.2731 49.8477C28.2727 43.4395 10.6722 36.6428 22.2268 48.6622C24.8199 50.7668 28.2049 55.6718 31.205 56.3803C31.312 57.2956 31.6458 56.4586 31.9382 56.7006C32.218 58.8554 31.6497 59.7554 29.712 58.0009C25.8676 53.8608 22.2494 49.4658 16.9797 54.7352C16.6762 56.6787 20.7399 57.0457 22.3004 56.7689C23.3339 56.9202 26.5962 55.5814 26.4244 56.9651Z" fill="#141313"/>
<mask id="mask0_1428_24822" style="mask-type:alpha" maskUnits="userSpaceOnUse" x="57" y="64" width="52" height="39">
<path d="M57.8289 64.4683H108.827V102.101H57.8289V64.4683Z" fill="white"/>
</mask>
<g mask="url(#mask0_1428_24822)">
<path fill-rule="evenodd" clip-rule="evenodd" d="M94.609 100.629C96.2031 100.161 93.5829 98.061 93.3944 96.9428C92.437 93.0022 87.08 99.2513 85.8622 100.768C85.385 101.764 88.0185 101 88.559 101.339C88.7948 100.632 89.3227 101.115 89.7108 101.059C91.448 101.13 92.6967 100.314 94.609 100.629ZM105.042 76.2274C99.9771 77.3833 96.4505 81.6796 94.6097 86.3262C94.3746 86.8919 94.443 86.9928 95.0349 86.9492C99.4642 86.5636 103.841 84.7728 106.934 81.5312C108.078 80.3581 106.163 78.8603 106.384 77.4137C106.38 76.5524 105.952 76.3155 105.042 76.2274ZM66.3704 73.4026C66.1306 76.5561 68.3761 80.5487 71.1269 81.5333C77.8359 78.4044 84.0628 63.3617 71.7854 65.2639C68.253 66.2136 66.1196 69.8679 66.3704 73.4026ZM90.8144 65.4324C82.4528 65.9078 79.6949 76.8253 84.772 82.6569C91.7483 83.3948 104.523 65.2909 90.8144 65.4324ZM103.465 97.7082C103.489 97.7357 103.513 97.7631 103.537 97.7905C109.358 94.7999 96.4349 93.5498 94.3355 94.7451C92.9443 95.937 95.3245 98.5092 96.2072 99.6395C97.4722 100.674 99.3102 99.2641 100.802 99.2752C102.023 99.2118 102.681 98.5464 103.465 97.7082ZM105.694 74.9192C102.106 68.1594 105.464 71.3038 106.462 75.8159C106.864 78.1751 107.81 80.2684 108.043 82.689C107.988 84.9243 109.212 87.307 108.704 89.3988C108.406 90.1633 107.575 93.5791 107.585 91.4883C108.364 91.0702 108.284 79.2106 106.57 83.4351C95.8725 90.6912 93.2354 83.9745 93.4532 93.2859C93.5885 94.9042 95.946 93.1906 96.9648 93.5113C98.4018 93.5447 99.85 93.6936 101.263 93.9563C103.162 93.8818 106.094 96.8681 106.878 94.0358C106.921 93.6152 107.101 93.3174 107.434 93.0581C107.339 95.9691 104.976 97.3723 102.891 98.8672C99.1916 100.895 94.595 100.434 90.5353 101.628C88.7355 101.858 86.8418 101.551 85.021 101.516C84.0781 101.644 82.4769 102.552 81.8292 101.816C84.005 102.054 84.8468 100.469 86.0353 98.9659C86.5783 98.5472 86.794 97.6228 87.7483 97.7994C88.5626 96.2222 90.4151 95.6855 91.8572 94.815C92.313 94.5795 92.5829 94.3683 92.5416 93.7891C92.1363 86.9491 95.5706 88.8082 88.2861 86.5086C81.9878 81.4005 80.0767 88.3197 71.1204 82.8972C63.4504 84.7091 58.7399 85.4698 58.0057 75.6503C57.7506 74.2672 57.5028 73.3743 59.3226 73.6802C57.8374 76.4251 59.1176 81.4199 61.9896 82.9086C63.5456 83.8081 72.4108 83.3696 68.6296 80.7755C64.5029 77.0532 64.3033 68.1526 69.7806 65.7663C70.8658 64.3176 74.8734 63.9896 76.7755 65.2525C83.315 69.3169 77.0506 78.0849 72.5891 81.3505C69.7927 82.6857 75.7116 83.7358 76.6711 84.2787C78.362 84.0752 83.6725 84.682 83.9917 83.0232C73.2876 67.8517 97.4051 57.666 97.4417 70.6125C96.2165 76.372 91.9788 81.1611 86.5455 83.3882C86.0406 83.585 85.6988 83.782 86.2674 84.1712C98.0628 92.4668 90.917 79.3202 105.768 75.0122C105.743 74.9812 105.718 74.9502 105.694 74.9192Z" fill="#57BFAE"/>
</g>
<path fill-rule="evenodd" clip-rule="evenodd" d="M63.9355 44.2788C50.5283 43.5542 56.0209 46.5098 55.2407 57.8609C55.4637 59.0618 57.8492 55.9168 58.6074 55.6179C59.1922 55.1272 59.7047 54.3801 60.6456 54.9423C64.2707 54.7235 67.9229 54.5591 71.5579 54.3886C73.8968 53.7138 83.7113 55.3376 83.7504 52.822C83.4075 49.1793 84.789 42.5479 79.0633 43.8944C73.7494 44.2846 69.3526 44.1727 63.9355 44.2788ZM78.0874 60.3792C75.6767 62.215 78.3267 55.3146 76.4713 55.445C71.4449 55.6923 66.4111 55.9047 61.3789 55.7576C58.8379 56.0426 57.5382 58.6967 55.3658 59.7589C52.7051 60.3447 54.32 54.1045 53.7767 52.4376C54.0218 49.2299 52.2642 43.7399 57.0275 43.2054C63.277 43.3875 69.5214 42.9551 75.7673 42.8391C77.9747 42.9641 74.8729 26.2757 76.9198 25.8894C77.3627 25.9133 77.5284 26.1281 77.5258 26.6083C77.5089 31.6764 77.5026 36.7457 77.6342 41.8125C77.6799 43.8156 80.6019 42.248 81.8442 42.8107C86.0143 43.0803 83.9129 49.9689 85.3872 50.2855C87.8273 48.0552 95.8515 45.6669 94.8405 51.3384C94.0597 53.7279 92.9049 56.901 90.0285 56.941C96.2793 50.0511 94.1805 46.1509 85.6069 51.0616C84.032 51.9051 85.4134 55.1474 83.0704 55.1983C77.5076 56.2723 78.1167 53.668 78.0874 60.3792Z" fill="#141313"/>
<path fill-rule="evenodd" clip-rule="evenodd" d="M103.268 90.4793C102.781 89.5448 101.89 89.3153 101.982 90.4566C102.275 91.3159 102.658 91.1069 103.268 90.4793ZM96.6767 89.8005C95.5465 89.5739 97.2923 91.1481 98.0144 90.8602C99.5386 89.659 98.0042 89.0779 96.6767 89.8005ZM107.415 93.0858C105.615 97.2501 104.713 94.3366 101.246 93.9869C99.8341 93.7234 98.3867 93.574 96.9504 93.5402C95.9309 93.2264 93.574 94.9291 93.4403 93.3151C93.2136 83.9822 95.8813 90.7004 106.55 83.4316C108.686 79.0418 107.902 92.3612 107.415 93.0858Z" fill="#2A6F64"/>
<path fill-rule="evenodd" clip-rule="evenodd" d="M76.3521 20.7388C72.68 20.249 73.5103 22.2667 76.2033 22.8172C78.8245 22.4699 79.8555 20.1666 76.3521 20.7388ZM70.6817 8.7C70.1927 9.11109 68.6999 11.7897 70.5186 10.5443C70.8796 10.6924 71.3734 11.9305 70.6972 11.9773C70.3104 11.9021 70.2093 11.1004 69.7585 11.5037C69.4359 11.8154 68.9042 12.1369 69.278 12.8165C69.5537 13.6589 68.8354 14.4817 69.053 15.3845C68.5354 16.4252 69.6701 16.2454 70.0741 17.0013C70.7355 17.8324 70.6148 16.1695 71.0752 17.4372C70.6057 18.1394 71.4783 18.2354 70.5089 18.4427C70.3069 18.1265 69.5871 18.4522 69.6634 17.7596C69.5888 17.5503 69.0659 17.463 68.9966 17.8012C68.9897 18.6081 68.7071 19.5434 69.8501 19.368C74.2145 19.2769 78.5806 19.3059 82.9433 19.4547C84.603 19.3802 83.2989 13.0563 83.337 11.7822C83.4542 6.35191 75.4522 3.85772 71.7975 7.49492L71.8093 7.48611C71.3214 7.73412 70.9203 8.21902 70.6817 8.7ZM67.7237 17.4167C67.2613 12.4283 68.4233 6.69542 73.8865 5.16097C74.9212 4.67367 73.2272 2.69105 75.4098 1.70943C80.1853 0.493684 78.1245 4.97476 79.4478 5.31676C85.2678 7.21383 84.7563 13.6868 84.7724 18.656C85.1011 21.4344 82.12 20.607 80.3161 20.7206C78.9881 21.6578 79.577 23.6938 76.5575 23.9863C72.9484 24.3589 73.5546 20.7645 71.7941 20.7555C68.2591 20.6573 67.8459 21.1944 67.7237 17.4167Z" fill="#141313"/>
<path fill-rule="evenodd" clip-rule="evenodd" d="M69.7463 65.6778C68.0675 65.0238 69.5279 65.9218 67.9446 66.8987C66.1531 68.0404 63.5666 70.1099 61.7126 71.6635C61.4911 73.3421 59.901 69.6486 55.6784 70.6448C52.7692 71.569 53.634 76.7303 56.4341 77.4497C51.9001 84.6635 47.2245 69.1418 55.0165 68.3922C60.9295 67.6594 65.5173 62.1132 71.4692 63.2931C72.8296 64.4963 68.9085 64.3636 69.7463 65.6778Z" fill="#0C4468"/>
<path fill-rule="evenodd" clip-rule="evenodd" d="M30.3619 4.85262C27.7517 4.84891 28.1103 8.37512 30.4658 8.30682C32.5111 8.21778 32.6668 4.84421 30.3619 4.85262ZM27.3963 6.59547C27.3603 2.68061 33.5524 2.61853 33.3906 6.77499C33.2423 10.5227 27.1745 10.2787 27.3963 6.59547Z" fill="#141313"/>
<path fill-rule="evenodd" clip-rule="evenodd" d="M53.8075 68.7444C49.1848 70.564 50.0647 77.9667 54.3115 79.7318C53.2631 82.8716 47.4816 73.9583 51.3356 69.7895C51.323 68.9463 49.9014 69.3482 50.1865 68.518C48.8485 66.905 49.4604 68.9709 48.7194 68.3144C48.6456 67.8243 48.5165 67.4627 49.1015 67.3745C48.6912 67.1404 47.8368 67.6996 48.4016 66.874C48.5118 66.0208 48.7665 66.9479 49.1762 66.7313C49.6408 66.6699 50.1007 66.4235 49.6222 66.9916C49.2905 67.1362 49.242 67.276 49.6295 67.4076C50.2021 66.8796 50.7458 67.9896 51.1499 68.7225C51.3316 68.2757 51.5793 67.9442 50.9393 67.7481C51.4498 67.8731 52.219 67.6289 51.8231 68.2863C51.1581 69.1958 53.6349 68.3016 53.8075 68.7444Z" fill="#57BFAE"/>
<path fill-rule="evenodd" clip-rule="evenodd" d="M89.6395 30.76C89.4687 31.5101 88.3788 32.3342 89.1096 32.9098C89.9321 33.1507 91.8997 35.26 89.9981 35.0392C87.0877 32.7443 88.8144 34.3321 86.7156 35.3635C85.6349 34.46 88.1279 33.023 86.6198 32.2469C86.3332 31.9981 85.7691 31.6402 85.9623 31.2131C86.4012 30.7739 86.8885 31.2196 87.2797 31.4909C88.3458 32.7526 88.6341 28.8005 89.6395 30.76Z" fill="#141313"/>
<path fill-rule="evenodd" clip-rule="evenodd" d="M93.1859 56.1149C93.1528 56.0521 93.1038 56.0418 93.0803 56.1115C93.0993 56.1819 93.1489 56.1751 93.1859 56.1149ZM92.02 56.5778C92.2181 55.9394 93.8779 55.3032 94.0507 56.0692C94.0505 56.1051 94.3007 56.1878 94.3132 56.1689C94.752 55.5045 94.771 56.1283 94.9435 56.3549C96.1959 56.7967 97.0715 57.6549 97.9618 58.6604C98.4105 59.8152 98.8718 60.8831 99.9378 61.6324C100.892 64.6369 102.97 67.1349 103.839 70.258C101.711 66.5219 99.7611 62.7573 97.5208 59.0358C97.3223 58.4247 96.9721 58.1787 96.2965 58.09C95.3763 56.2471 93.6598 56.9037 92.02 56.5778Z" fill="#57BFAE"/>
<path fill-rule="evenodd" clip-rule="evenodd" d="M42.9759 60.0345C42.1526 58.204 41.2287 61.1412 40.8971 60.0607C40.7768 59.3728 40.4992 60.1817 40.6383 60.4287C39.7828 60.1224 40.1572 59.211 40.9093 59.221C42.3876 59.5428 41.7436 59.0695 42.6305 58.5248C42.9035 58.3645 43.3081 58.7089 43.4933 58.4367C43.4192 57.6932 44.7378 57.9181 44.4652 57.0485C45.7382 55.6257 44.6657 58.6642 46.5953 56.9751C47.1199 57.1887 46.1961 57.4914 46.9162 57.954C47.4534 58.5847 46.5888 58.6133 46.3334 58.3605C45.787 58.262 46.0549 58.9949 45.7406 58.9832C44.8369 58.4044 44.5956 58.8158 44.1633 59.6173C44.0792 60.1943 44.6279 60.8543 43.8167 61.1591C43.5428 61.0197 44.0693 60.5659 43.5405 60.4982C43.2944 60.4667 43.5262 59.7681 42.9759 60.0345Z" fill="#141313"/>
<path fill-rule="evenodd" clip-rule="evenodd" d="M89.8541 9.33722C90.5806 9.3517 91.3313 9.31294 92.0496 9.34271C94.9628 11.1304 89.2023 10.6345 88.2194 10.6069C87.1901 10.9748 84.8827 10.0895 86.9313 9.46054C87.8553 9.51631 89.0783 9.1575 89.8541 9.33722Z" fill="#141313"/>
<path fill-rule="evenodd" clip-rule="evenodd" d="M88.7369 0.620272C87.4829 2.14811 86.4535 4.68389 84.6786 5.34673C84.1532 3.54141 86.7798 1.95136 87.5105 0.334273C87.9301 -0.302687 88.4382 0.0709635 88.7369 0.620272Z" fill="#141313"/>
<path fill-rule="evenodd" clip-rule="evenodd" d="M92.2076 5.01629C91.1431 6.4618 82.1445 8.99847 87.7449 6.03855C88.976 5.87369 91.5379 3.47627 92.2076 5.01629Z" fill="#141313"/>
<path fill-rule="evenodd" clip-rule="evenodd" d="M36.7988 17.4024C36.2707 15.7475 37.5681 15.0573 38.5439 14.074C38.862 13.0973 39.1039 14.2454 39.3332 14.8723C41.2356 15.9174 36.2641 19.6386 37.4998 17.5945C38.7932 17.3167 39.4295 14.297 37.9983 16.2779C37.3033 16.2101 37.2797 17.5778 36.7988 17.4024Z" fill="#2A6F64"/>
<path fill-rule="evenodd" clip-rule="evenodd" d="M36.958 61.9776C37.2205 61.9192 37.7074 62.2169 37.724 61.727C37.7556 60.9178 36.7377 61.3275 37.0567 60.3149C37.6786 61.0754 39.0546 60.2473 38.3245 61.5964C38.3062 61.6762 38.4217 61.8581 38.4992 61.8728C39.0959 61.6336 39.3265 62.4378 39.2668 62.7322C38.9656 63.1264 39.2786 63.2715 39.4371 63.4697C40.4608 64.8384 40.4155 63.5929 41.4984 64.737C42.0939 67.003 37.7544 62.603 36.958 61.9776Z" fill="#57BFAE"/>
<path fill-rule="evenodd" clip-rule="evenodd" d="M44.7436 13.9043C44.1789 14.6581 43.9499 12.4658 43.5557 13.6797C43.2613 14.4028 42.3051 14.5191 42.4667 15.3835C40.5787 15.2274 41.0978 10.9004 42.8543 12.6375C43.3718 13.1445 43.601 11.7305 44.0684 12.196C43.9474 12.9765 44.6385 12.5503 44.7436 13.9043Z" fill="#141313"/>
<path fill-rule="evenodd" clip-rule="evenodd" d="M29.4033 110.295C29.3008 110.202 29.2433 110.228 29.1703 110.333C29.293 110.408 29.3716 110.478 29.4033 110.295ZM28.1406 110.43C28.6548 110.127 30.1783 107.956 30.2717 108.83C28.4748 111.477 31.9957 107.842 32.9685 107.123C33.9039 107.085 31.7901 108.846 31.554 109.407C30.9347 111.172 29.6978 110.677 28.1406 110.43Z" fill="#2A6F64"/>
<path fill-rule="evenodd" clip-rule="evenodd" d="M54.2898 66.54C54.0207 67.0293 53.7972 67.0291 54.1444 67.3192C54.4576 67.0516 54.5379 67.0132 54.2898 66.54ZM60.1272 66.421C59.2717 67.505 57.4915 67.5722 56.2602 68.1973C54.9064 68.6904 55.341 68.1462 54.8746 67.1507C54.4122 66.9992 53.8418 67.479 53.3657 67.5311C52.8168 67.6036 52.3514 66.9084 53.1266 66.798C53.4475 66.6188 54.8597 66.734 54.5863 66.3182C53.5633 67.1536 55.6612 66.9563 55.8799 67.6072C56.4445 67.9967 56.6161 66.642 57.0588 67.5102C57.3691 67.3786 57.4296 67.0825 57.5537 66.8007C58.0133 66.1558 58.3026 67.78 60.1272 66.421Z" fill="#2A6F64"/>
<path fill-rule="evenodd" clip-rule="evenodd" d="M53.8425 20.7131C48.1479 20.5279 42.4635 20.871 36.7705 20.6576C37.5986 20.1253 38.2618 20.8162 39.1991 20.5629C39.5152 20.2555 39.2353 18.3095 39.7866 19.5386C39.3425 21.8554 51.6431 19.5341 53.8425 20.7131Z" fill="#2A6F64"/>
<path fill-rule="evenodd" clip-rule="evenodd" d="M16.7907 99.7457C15.8097 101.243 14.4181 99.3646 14.3365 100.82C14.1865 105.422 11.2191 96.3377 16.7907 99.7457Z" fill="#57BFAE"/>
<path fill-rule="evenodd" clip-rule="evenodd" d="M41.4777 15.5291C41.3416 15.5968 41.3615 15.6664 41.4302 15.7765C41.5638 15.71 41.5461 15.6427 41.4777 15.5291ZM41.1348 12.9134C41.4814 13.8082 41.1812 15.299 42.4926 15.4438C42.2297 18.354 38.1641 12.1709 41.1348 12.9134Z" fill="#57BFAE"/>
<path fill-rule="evenodd" clip-rule="evenodd" d="M26.9214 109.946C27.7734 109.372 30.134 105.426 30.6735 106.445C29.9838 106.883 27.2359 111.928 26.9214 109.946Z" fill="#2A6F64"/>
<path fill-rule="evenodd" clip-rule="evenodd" d="M41.7796 51.2457C42.0996 50.7675 42.0264 50.3222 41.3669 50.4564C41.6476 50.2272 42.2494 50.1542 42.3241 50.6362C42.6524 51.8895 44.2483 50.0333 43.6874 51.3264C42.2243 52.1149 45.2642 52.7889 42.2351 52.7832C41.6562 53.0833 41.5227 52.7911 41.47 52.2971C42.2779 52.7394 42.246 51.6938 41.7796 51.2457Z" fill="#57BFAE"/>
<path fill-rule="evenodd" clip-rule="evenodd" d="M77.7622 105.809C76.6339 107.214 75.5769 108.779 74.3955 110.078C72.2896 110.617 76.5794 106.211 77.7622 105.809Z" fill="#2A6F64"/>
<path fill-rule="evenodd" clip-rule="evenodd" d="M41.7475 51.2248C43.0299 52.6388 40.5821 52.5837 40.3588 51.7498C40.0904 51.82 39.8178 51.8777 39.5543 51.9638C39.0042 52.3968 40.3845 53.0804 39.0721 53.7488C38.8219 53.2354 39.6066 53.0286 39.1919 52.5557C38.9509 52.1201 39.5598 51.6811 39.1798 51.2172C39.533 50.5605 40.2849 51.1882 40.541 51.6875C41.0724 52.4548 41.0089 50.7629 41.7475 51.2248Z" fill="#2A6F64"/>
<path fill-rule="evenodd" clip-rule="evenodd" d="M61.9436 109.532C66.8964 104.905 59.6682 114.539 60.4718 111.022C60.4905 111.009 60.6272 110.864 60.6501 110.843C61.3517 110.676 61.7021 110.153 61.95 109.525L61.9436 109.532Z" fill="#2A6F64"/>
<path fill-rule="evenodd" clip-rule="evenodd" d="M42.5863 58.5745C42.4731 58.6107 42.2685 58.6326 42.2601 58.6853C41.9755 60.1385 39.8583 58.9815 39.9003 58.1261C40.1941 57.7787 39.9211 57.7906 39.6785 57.7833C40.0685 56.7874 41.0991 55.9325 40.6091 57.5988C40.2107 59.7118 41.9764 57.1058 42.5863 58.5745Z" fill="#57BFAE"/>
<path fill-rule="evenodd" clip-rule="evenodd" d="M75.6985 109.655C75.9857 108.604 78.7341 105.503 77.4517 107.941C77.2779 108.258 76.7754 108.514 77.2379 108.949C77.7272 109.408 77.9835 108.844 78.325 108.677C77.9601 109.365 76.4224 109.027 75.6985 109.655Z" fill="#2A6F64"/>
<path fill-rule="evenodd" clip-rule="evenodd" d="M9.85709 69.6013C9.96189 69.9029 10.2226 70.3478 9.81784 70.5286C7.85911 70.874 7.38362 73.1601 5.44043 73.3534C6.92855 72.128 8.19224 70.5823 9.85709 69.6013Z" fill="#2A6F64"/>
<path fill-rule="evenodd" clip-rule="evenodd" d="M39.9301 43.2423C40.0359 43.279 40.2365 43.3375 40.2339 43.3493C40.1116 44.3481 41.1108 45.6869 39.4971 45.6817C40.3023 45.3906 40.1053 44.5998 39.3453 44.5752C39.8048 43.9103 39.2288 43.4249 39.0315 42.8969C38.599 42.3535 39.6608 41.9135 39.6755 42.4652C39.8898 42.9075 39.4146 43.4596 39.9301 43.2423Z" fill="#57BFAE"/>
<path fill-rule="evenodd" clip-rule="evenodd" d="M46.5932 58.6065C47.9226 58.4382 45.9863 57.7269 46.8349 57.2036C46.5865 56.8778 46.4754 57.048 46.2764 57.2828C46.1794 56.5554 45.1218 56.5678 45.8313 55.6248C46.2535 55.8889 46.5124 56.6084 46.9276 56.7388C47.6072 56.8933 47.4229 57.3557 47.4523 57.7604C47.333 58.2773 47.4024 58.1918 47.7453 58.5591C47.3598 58.5413 46.9894 58.8951 46.5932 58.6065Z" fill="#2A6F64"/>
<path fill-rule="evenodd" clip-rule="evenodd" d="M62.5662 111.488C63.6161 110.685 64.6664 108.527 65.7554 108.436C64.8476 109.413 63.9518 111.886 62.5662 111.488Z" fill="#2A6F64"/>
<path fill-rule="evenodd" clip-rule="evenodd" d="M59.0955 111.597C60.4656 109.266 64.3386 106.444 60.6215 110.828C60.5868 110.862 60.4922 110.954 60.4325 111.012C60.2834 111.469 59.6499 111.949 59.0955 111.597Z" fill="#2A6F64"/>
<path fill-rule="evenodd" clip-rule="evenodd" d="M40.0474 59.4491C40.0434 60.1942 40.6092 60.6001 41.0855 61.2018C40.7152 61.3093 40.271 62.0894 40.0052 61.5096C38.3473 59.6849 39.8696 60.5532 39.4094 59.3731C38.9754 58.7177 40.3187 58.2719 40.0637 59.4684L40.0474 59.4491Z" fill="#57BFAE"/>
<path fill-rule="evenodd" clip-rule="evenodd" d="M43.8994 62.8245C43.9828 62.2423 44.9779 61.5736 44.8731 62.4868C45.3194 62.5456 45.3543 61.8576 44.9438 61.8423C46.8116 61.6186 45.4814 62.8574 45.7789 63.7856C45.0371 63.7739 45.0861 62.5661 43.8994 62.8245Z" fill="#57BFAE"/>
<path fill-rule="evenodd" clip-rule="evenodd" d="M5.44043 95.866C6.48952 95.9068 7.3108 99.0959 9.24619 99.4768C9.7294 100.955 5.69495 97.0403 5.44043 95.866Z" fill="#2A6F64"/>
<path fill-rule="evenodd" clip-rule="evenodd" d="M39.7445 55.4379C39.5281 55.198 39.4455 55.2598 39.2036 55.3346C39.3265 55.679 39.4258 55.5825 39.7445 55.4379ZM39.6992 56.1876C37.2993 55.7175 41.345 52.4527 40.4976 55.8108C40.2665 55.9314 39.826 56.0873 39.6992 56.1876Z" fill="#57BFAE"/>
<path fill-rule="evenodd" clip-rule="evenodd" d="M39.3347 44.5562C39.7812 44.6719 40.2748 44.7539 39.9474 45.4268C39.4874 44.9074 38.5934 45.4973 39.4926 45.6898C39.4926 45.6898 39.4551 45.6919 39.4549 45.6914C39.3943 46.2135 38.329 46.6236 38.0837 46.3389C38.9539 46.1961 37.5919 45.5777 38.3049 45.3252C38.6897 45.1888 38.9941 44.82 39.3347 44.5562Z" fill="#2A6F64"/>
<path fill-rule="evenodd" clip-rule="evenodd" d="M47.7236 64.3565C47.7247 65.2443 47.8057 65.5657 46.7842 65.3653C46.314 65.8292 46.4033 65.4062 46.5479 64.9954C47.1784 64.4792 46.1056 64.0308 46.6251 63.7189C47.6624 63.5494 47.4551 64.2261 47.7454 64.3424L47.7236 64.3565Z" fill="#141313"/>
<path fill-rule="evenodd" clip-rule="evenodd" d="M47.9329 68.901C46.5951 69.1253 45.2432 68.4529 44.2747 67.6269C44.5313 66.7432 44.7682 67.7295 45.0164 67.6346C45.0514 68.5585 46.1021 67.5458 46.432 68.0268C46.3372 68.1897 46.0455 68.4016 46.4685 68.4584C47.4518 68.447 47.7007 67.5929 47.9329 68.901Z" fill="#57BFAE"/>
<path fill-rule="evenodd" clip-rule="evenodd" d="M47.651 64.028C46.8642 63.6089 47.5287 63.5867 47.7369 62.9685C46.884 61.9992 47.4846 62.1011 48.4797 62.3958C48.9282 63.3245 47.8396 62.7359 48.1365 63.7882C48.7842 64.7597 47.9259 63.9881 47.7137 64.3484C47.7587 64.2723 47.6595 64.1273 47.651 64.028Z" fill="#2A6F64"/>
<path fill-rule="evenodd" clip-rule="evenodd" d="M14.6332 65.2864C13.8787 66.7149 12.2397 67.2271 11.5198 68.7571C10.2708 68.5379 13.8249 65.9211 14.6332 65.2864Z" fill="#2A6F64"/>
<path fill-rule="evenodd" clip-rule="evenodd" d="M48.5896 39.7207C48.079 40.2294 47.7928 41.2831 46.9015 41.171C46.8748 40.4651 48.2736 37.9845 48.5896 39.7207Z" fill="#57BFAE"/>
<path fill-rule="evenodd" clip-rule="evenodd" d="M36.8643 35.6471C38.0293 35.6693 42.8418 34.7372 42.5756 36.1373C41.7805 35.8359 41.6076 35.3751 40.5398 35.5779C38.6164 35.6845 37.1901 35.0218 38.5264 37.521C37.2564 37.116 38.2757 35.4453 36.8643 35.6471Z" fill="#57BFAE"/>
<path fill-rule="evenodd" clip-rule="evenodd" d="M39.6697 56.1876C40.7628 56.6088 40.3129 56.7507 39.713 57.7951C39.3124 58.2136 39.8958 58.0076 39.9391 58.1446C40.0482 58.6132 40.132 58.8946 39.5479 58.9079C39.4282 58.7027 39.3519 58.37 39.1812 58.3125C38.4121 58.053 39.1538 58.1586 39.208 58.057C39.3684 57.6396 39.0179 57.1984 38.8482 56.8265C39.2193 56.6874 39.6775 56.6973 39.6697 56.1876Z" fill="#2A6F64"/>
<path fill-rule="evenodd" clip-rule="evenodd" d="M0.10689 80.2948C1.14244 81.1929 -0.108925 82.8062 1.16397 83.4024C1.57087 83.5988 1.62198 83.7061 1.24665 84.0188C0.748951 85.7663 -0.0158464 81.3315 0.10689 80.2948Z" fill="#2A6F64"/>
<path fill-rule="evenodd" clip-rule="evenodd" d="M9.75537 100.275C10.488 100.496 11.4351 100.433 12.0599 100.838C12.174 101.287 12.4859 101.459 12.9251 101.522C13.2068 102.699 10.3665 100.528 9.75537 100.275Z" fill="#2A6F64"/>
<path fill-rule="evenodd" clip-rule="evenodd" d="M45.0318 67.6315C44.0094 66.7348 44.7513 68.1137 43.7401 67.2383C42.5403 66.3878 43.7922 66.8628 44.5583 66.7612C45.5737 65.4582 46.0274 66.8378 45.0318 67.6315Z" fill="#2A6F64"/>
<path fill-rule="evenodd" clip-rule="evenodd" d="M36.7888 17.3985C37.3036 17.5318 37.0258 16.9585 37.2968 16.8361C37.5594 16.7174 37.5345 16.2302 37.9982 16.277C38.1661 16.1673 38.3957 15.6163 38.673 15.4774C39.5562 16.3302 36.5083 19.0397 36.7888 17.3985Z" fill="#57BFAE"/>
<path fill-rule="evenodd" clip-rule="evenodd" d="M1.78223 87.5176C2.72783 88.8606 2.99471 90.5727 3.47067 92.1139C2.47944 90.7247 2.41714 89.0554 1.78223 87.5176Z" fill="#2A6F64"/>
<path fill-rule="evenodd" clip-rule="evenodd" d="M38.3652 38.8552C38.6555 36.6861 39.4731 38.7302 39.4909 39.7681C38.9882 39.8354 38.6606 39.0481 38.3652 38.8552Z" fill="#57BFAE"/>
<path fill-rule="evenodd" clip-rule="evenodd" d="M42.8955 60.0953C43.429 59.8228 43.2043 60.5373 43.4428 60.5696C43.9556 60.6387 43.4451 61.1029 43.7108 61.2455C43.7503 62.0146 42.7353 61.7387 42.3049 62.0033C43.7038 61.5158 41.8879 61.0359 42.8955 60.0953Z" fill="#57BFAE"/>
<path fill-rule="evenodd" clip-rule="evenodd" d="M19.417 57.9823C21.4798 57.7644 25.7398 57.747 21.6365 59.2831C24.6201 57.4477 20.9297 58.391 19.417 57.9823Z" fill="#2A6F64"/>
<path fill-rule="evenodd" clip-rule="evenodd" d="M38.7405 18.7605C38.8526 18.4462 39.0731 18.125 39.0545 17.8188C39.1319 17.0914 40.2806 17.1295 40.6002 17.6131C40.7398 18.2585 39.9416 17.8785 39.8394 18.463C39.5904 18.7711 39.0922 18.6598 38.7405 18.7605Z" fill="#2A6F64"/>
<path fill-rule="evenodd" clip-rule="evenodd" d="M44.7383 13.8828C44.6384 12.5435 43.951 12.9582 44.0663 12.1778C43.924 12.0434 43.2111 11.9318 43.6842 11.6363C44.7035 11.2052 44.0124 12.3219 44.8271 12.4222C44.4623 12.8891 45.2831 13.4265 44.7383 13.8828Z" fill="#2A6F64"/>
<path fill-rule="evenodd" clip-rule="evenodd" d="M50.373 59.327C50.3202 58.7573 52.0994 57.7035 51.8484 58.8757C51.846 58.932 51.8546 59.4055 51.4712 59.1682C50.8728 58.8271 50.9235 59.8291 50.373 59.327Z" fill="#2A6F64"/>
<path fill-rule="evenodd" clip-rule="evenodd" d="M20.9178 60.0334C20.2969 61.0531 19.1403 61.9369 18.1038 62.2847C18.9639 61.4277 19.8681 60.6417 20.9178 60.0334Z" fill="#2A6F64"/>
<path fill-rule="evenodd" clip-rule="evenodd" d="M38.7446 18.7244C39.8291 18.8291 39.721 18.0325 40.5226 18.01C39.9208 18.1288 40.0809 18.7693 39.8079 19.1122C38.9186 19.5041 37.1076 19.9125 38.7446 18.7244Z" fill="#57BFAE"/>
<path fill-rule="evenodd" clip-rule="evenodd" d="M49.0586 65.6614C49.2274 65.3599 49.1696 64.302 49.5363 64.4578C50.0249 65.2968 50.1662 67.1557 49.0586 65.6614Z" fill="#2A6F64"/>
<path fill-rule="evenodd" clip-rule="evenodd" d="M50.3745 59.2831C50.9474 59.9169 51.5448 60.3149 52.4355 60.6903C51.6506 61.5832 50.3044 60.1398 50.3745 59.2831Z" fill="#57BFAE"/>
<path fill-rule="evenodd" clip-rule="evenodd" d="M44.2683 13.8827C45.2844 14.1758 43.9722 15.0045 43.7751 15.4796C42.2854 15.9665 43.8707 14.3767 44.2683 13.8827Z" fill="#2A6F64"/>
<path fill-rule="evenodd" clip-rule="evenodd" d="M62.0971 65.7017C61.7545 66.1601 59.6545 66.804 60.6959 66.1001C60.9533 65.8775 60.8242 65.2387 61.2318 65.1926C61.7939 65.4078 61.1196 65.9862 62.0971 65.7017Z" fill="#2A6F64"/>
<path fill-rule="evenodd" clip-rule="evenodd" d="M45.5582 56.0285C45.9307 56.483 42.6565 57.9128 43.6029 56.8124C44.6318 57.1665 44.4769 55.7871 45.5582 56.0285Z" fill="#57BFAE"/>
<path fill-rule="evenodd" clip-rule="evenodd" d="M4.20024 74.479C4.43247 75.4175 2.64126 74.9066 2.8734 76.1331C1.18868 76.7908 3.36863 74.715 4.20024 74.479Z" fill="#2A6F64"/>
<path fill-rule="evenodd" clip-rule="evenodd" d="M60.9773 64.3484C60.4688 63.9026 62.0768 61.8375 62.0007 62.8353C61.5757 63.3554 61.0769 63.5942 60.9773 64.3484Z" fill="#57BFAE"/>
<path fill-rule="evenodd" clip-rule="evenodd" d="M44.7438 42.1322C44.2986 42.8696 44.1442 42.8262 43.6182 42.22C44.1133 41.8872 44.368 41.3811 44.7438 42.1322Z" fill="#57BFAE"/>
<path fill-rule="evenodd" clip-rule="evenodd" d="M38.3652 13.9951C37.732 15.5981 36.251 15.4814 37.8958 13.5076C37.8964 13.8155 37.6699 14.3359 38.3652 13.9951Z" fill="#57BFAE"/>
<path fill-rule="evenodd" clip-rule="evenodd" d="M64.7236 64.4423C63.3319 64.9695 63.5692 65.5605 62.6599 64.5427C63.4049 64.5522 64.0047 64.8849 64.7236 64.4423Z" fill="#2A6F64"/>
<path fill-rule="evenodd" clip-rule="evenodd" d="M45.8694 9.61726C46.9512 9.44688 49.5564 9.73381 47.0961 10.2245C46.8747 9.53331 46.2709 9.81586 45.8694 9.61726Z" fill="#57BFAE"/>
<path fill-rule="evenodd" clip-rule="evenodd" d="M1.21763 77.1993C1.29065 78.3881 -0.890864 79.3303 0.420448 77.8416C0.725628 77.7092 0.954605 77.4189 1.21763 77.1993Z" fill="#2A6F64"/>
<path fill-rule="evenodd" clip-rule="evenodd" d="M54.3115 60.783C53.9638 61.0999 53.5997 61.4101 53.4673 60.8477C53.7141 60.1714 53.8999 60.1271 54.3115 60.783Z" fill="#57BFAE"/>
<path fill-rule="evenodd" clip-rule="evenodd" d="M16.3561 63.8794C16.607 64.2938 15.9948 65.8571 15.7857 65.0664C16.2399 64.2656 14.7085 65.1273 16.3561 63.8794Z" fill="#2A6F64"/>
<path fill-rule="evenodd" clip-rule="evenodd" d="M43.9421 62.7687C44.4373 62.7166 44.6527 62.786 44.2577 63.2191C44.0418 63.4014 44.8054 63.6367 44.2161 63.7397C43.4693 64.0062 43.4747 63.0372 43.9421 62.7687Z" fill="#2A6F64"/>
<path fill-rule="evenodd" clip-rule="evenodd" d="M48.5396 62.3701C47.4191 62.4987 47.0009 61.1169 48.1329 61.8375C48.3009 61.9777 48.7359 61.9607 48.5396 62.3701Z" fill="#57BFAE"/>
<path fill-rule="evenodd" clip-rule="evenodd" d="M52.4156 60.6902C51.7902 60.5181 51.9412 60.1233 52.1376 59.6583C52.4286 59.9285 53.3202 60.6543 52.4156 60.6902Z" fill="#2A6F64"/>
<path fill-rule="evenodd" clip-rule="evenodd" d="M43.7119 64.3467C43.3262 64.8335 42.9859 65.2601 42.7739 64.4841C42.7884 63.9663 43.4553 64.188 43.7119 64.3467Z" fill="#57BFAE"/>
<path fill-rule="evenodd" clip-rule="evenodd" d="M3.4707 92.4891C4.09996 92.992 4.07118 93.7859 4.31492 94.459C4.03346 93.8023 3.75208 93.1456 3.4707 92.4891Z" fill="#2A6F64"/>
<path fill-rule="evenodd" clip-rule="evenodd" d="M5.25291 73.541C5.0578 73.8871 5.08949 74.2849 5.04362 74.6666C3.75862 74.5596 4.73736 74.1163 5.25291 73.541Z" fill="#2A6F64"/>
<path fill-rule="evenodd" clip-rule="evenodd" d="M68.382 63.1859C67.7253 63.3858 67.0686 63.5858 66.4121 63.7856C66.9592 63.1742 67.6314 63.0329 68.382 63.1859Z" fill="#2A6F64"/>
<path fill-rule="evenodd" clip-rule="evenodd" d="M49.7153 69.18C49.3288 69.9091 48.6065 69.2037 48.0269 69.1323C48.5902 69.1484 49.1527 69.1642 49.7153 69.18Z" fill="#57BFAE"/>
<path fill-rule="evenodd" clip-rule="evenodd" d="M46.7052 54.3115C47.0033 54.6799 46.9579 54.8771 46.5931 55.1557C46.0606 54.7862 46.1705 54.6716 46.7052 54.3115Z" fill="#57BFAE"/>
<path fill-rule="evenodd" clip-rule="evenodd" d="M52.7948 57.7822C52.8731 58.2527 53.313 58.7578 52.951 59.1893C52.6183 58.9598 52.4918 57.9399 52.7948 57.7822Z" fill="#57BFAE"/>
<path fill-rule="evenodd" clip-rule="evenodd" d="M39.1144 60.216C39.1399 60.498 38.7386 60.5905 38.5484 60.784C38.2719 60.26 38.6865 59.3233 39.1144 60.216Z" fill="#2A6F64"/>
<path fill-rule="evenodd" clip-rule="evenodd" d="M49.6214 51.1204C49.3093 51.2044 48.8847 51.4839 48.6833 51.1499C49.1183 50.5316 49.2264 50.222 49.6214 51.1204Z" fill="#2A6F64"/>
<path fill-rule="evenodd" clip-rule="evenodd" d="M43.1491 11.3255C42.7594 12.0814 42.5327 11.5754 42.0234 11.3439C42.4632 10.9527 42.6771 10.7678 43.1491 11.3255Z" fill="#57BFAE"/>
<path fill-rule="evenodd" clip-rule="evenodd" d="M45.017 18.4791C44.1224 17.6319 45.1392 16.8246 45.1787 18.1466C45.262 18.2889 45.1864 18.4474 45.017 18.4791Z" fill="#2A6F64"/>
<path fill-rule="evenodd" clip-rule="evenodd" d="M1.06091 84.8911C1.50727 85.3737 1.4162 86.0827 1.59455 86.6734C1.10077 86.1617 0.963876 85.5569 1.06091 84.8911Z" fill="#2A6F64"/>
<path fill-rule="evenodd" clip-rule="evenodd" d="M36.958 59.445C36.9697 59.2313 37.6336 59.2428 37.8599 59.0955C38.0681 59.7014 37.3249 59.6021 36.958 59.445Z" fill="#57BFAE"/>
<path fill-rule="evenodd" clip-rule="evenodd" d="M49.2759 66.0369C49.5249 66.2021 49.882 66.2618 49.9028 66.6038C49.3499 66.8391 48.9351 66.5979 49.2759 66.0369Z" fill="#141313"/>
<path fill-rule="evenodd" clip-rule="evenodd" d="M42.6738 61.1592C43.4248 61.6321 42.5248 61.9679 42.0258 61.7457C41.9894 61.3192 42.3765 61.2719 42.6738 61.1592Z" fill="#2A6F64"/>
<path fill-rule="evenodd" clip-rule="evenodd" d="M45.7925 63.7708C45.1994 62.2388 47.2255 63.2843 46.2613 63.3565C45.8094 63.1578 46.1676 63.898 45.7925 63.7708Z" fill="#2A6F64"/>
<path fill-rule="evenodd" clip-rule="evenodd" d="M66.2245 63.8794C65.9593 64.3308 65.605 64.501 65.0989 64.1904C65.4742 64.0867 65.8494 63.9831 66.2245 63.8794Z" fill="#2A6F64"/>
<path fill-rule="evenodd" clip-rule="evenodd" d="M43.0552 15.2938C43.0479 15.3995 43.0528 15.5105 43.0396 15.6133C43.0307 17.2056 41.8026 15.1883 43.0552 15.2938Z" fill="#141313"/>
<path fill-rule="evenodd" clip-rule="evenodd" d="M42.9093 36.9581C41.8436 36.9276 43.121 36.119 43.4305 36.4945C43.2456 36.6592 43.0607 36.8235 42.9093 36.9581Z" fill="#57BFAE"/>
<path fill-rule="evenodd" clip-rule="evenodd" d="M42.8639 66.5058C42.6149 66.348 42.3661 66.1902 42.1172 66.0325C42.5858 65.8559 42.906 65.9051 42.8639 66.5058Z" fill="#2A6F64"/>
<path fill-rule="evenodd" clip-rule="evenodd" d="M4.50244 94.5527C4.86225 94.7796 5.37682 94.8945 5.22582 95.4908C4.98461 95.1781 4.74357 94.8653 4.50244 94.5527Z" fill="#2A6F64"/>
<path fill-rule="evenodd" clip-rule="evenodd" d="M17.0721 63.3165C17.0203 63.6826 16.7709 63.8 16.4155 63.7841C16.6344 63.6282 16.8533 63.4724 17.0721 63.3165Z" fill="#2A6F64"/>
<path fill-rule="evenodd" clip-rule="evenodd" d="M10.5998 69.0386C10.5039 69.4487 10.3166 69.7443 9.84937 69.6884C10.0996 69.4717 10.3497 69.2551 10.5998 69.0386Z" fill="#2A6F64"/>
<path fill-rule="evenodd" clip-rule="evenodd" d="M44.7547 65.2865C44.6689 64.8674 45.1105 64.1397 45.1189 64.5779C44.8964 64.8196 44.9027 64.8355 44.7547 65.2865Z" fill="#57BFAE"/>
<path fill-rule="evenodd" clip-rule="evenodd" d="M0.108734 79.1692C0.336346 79.4253 0.579267 79.6817 0.09375 79.9196C0.0987176 79.6694 0.103767 79.4193 0.108734 79.1692Z" fill="#2A6F64"/>
<path fill-rule="evenodd" clip-rule="evenodd" d="M21.5745 59.3768C21.5693 59.758 21.4573 60.0439 21.0117 60.0331C21.1994 59.8143 21.387 59.5956 21.5745 59.3768Z" fill="#2A6F64"/>
<path fill-rule="evenodd" clip-rule="evenodd" d="M53.7488 68.7571C53.7935 68.4783 54.5601 68.5931 54.8744 68.4757C54.499 68.5695 54.1239 68.6633 53.7488 68.7571Z" fill="#2A6F64"/>
<path fill-rule="evenodd" clip-rule="evenodd" d="M17.8223 62.5662C17.6347 62.7851 17.4471 63.004 17.2595 63.2228C17.4472 63.0039 17.6348 62.785 17.8223 62.5662Z" fill="#2A6F64"/>
<path fill-rule="evenodd" clip-rule="evenodd" d="M1.68316 76.6365C1.72209 76.9787 1.54596 77.1142 1.21948 77.1051C1.37418 76.9488 1.52863 76.7926 1.68316 76.6365Z" fill="#2A6F64"/>
<path fill-rule="evenodd" clip-rule="evenodd" d="M42.1173 65.943C41.8982 65.8624 41.6791 65.7819 41.4607 65.702C41.6801 65.7824 42.035 65.4391 42.1173 65.943Z" fill="#57BFAE"/>
<path fill-rule="evenodd" clip-rule="evenodd" d="M49.2461 65.9822C49.2007 66.0318 49.1554 66.0813 49.1099 66.1307C48.3608 66.0423 49.0881 65.4334 49.2461 65.9822Z" fill="#57BFAE"/>
<path fill-rule="evenodd" clip-rule="evenodd" d="M37.2395 18.1976C37.4272 18.2031 37.615 18.2086 37.8023 18.2146C37.5978 18.6041 37.413 18.5333 37.2395 18.1976Z" fill="#57BFAE"/>
<path fill-rule="evenodd" clip-rule="evenodd" d="M15.3836 64.7236C15.2564 64.947 15.2026 65.2562 14.8208 65.1812C15.0085 65.0286 15.196 64.8761 15.3836 64.7236Z" fill="#2A6F64"/>
<path fill-rule="evenodd" clip-rule="evenodd" d="M42.68 57.2479C42.6229 57.2949 42.5614 57.2889 42.4924 57.2733C42.5539 57.2569 42.6162 57.2487 42.68 57.2479Z" fill="#57BFAE"/>
<path fill-rule="evenodd" clip-rule="evenodd" d="M65.352 111.283C65.352 111.283 65.3178 111.25 65.3178 111.25C65.3168 111.281 65.3157 111.312 65.3145 111.343C65.327 111.323 65.3395 111.303 65.352 111.283Z" fill="#2A6F64"/>
<path fill-rule="evenodd" clip-rule="evenodd" d="M62.9414 65.474C62.9259 65.8045 62.778 65.6233 62.5662 65.4966C62.6913 65.4891 62.8164 65.4816 62.9414 65.474Z" fill="#2A6F64"/>
<path fill-rule="evenodd" clip-rule="evenodd" d="M43.7138 36.0201C43.8812 36.1471 43.7909 36.2006 43.6734 36.3015C43.5783 36.1875 43.6152 36.1121 43.7138 36.0201Z" fill="#57BFAE"/>
<path fill-rule="evenodd" clip-rule="evenodd" d="M13.0386 101.963C13.1636 102.026 13.2887 102.088 13.4138 102.151C13.2887 102.088 13.1636 102.026 13.0386 101.963Z" fill="#57BFAE"/>
<path fill-rule="evenodd" clip-rule="evenodd" d="M54.3116 20.9179C54.2488 20.8866 54.186 20.8552 54.124 20.8241C54.1871 20.8555 54.2494 20.8867 54.3116 20.9179Z" fill="#2A6F64"/>
<path fill-rule="evenodd" clip-rule="evenodd" d="M43.0709 15.7588C42.8982 15.6885 42.9377 15.6791 43.1339 15.665C43.1675 15.705 43.1446 15.7393 43.0709 15.7588Z" fill="#2A6F64"/>
<path fill-rule="evenodd" clip-rule="evenodd" d="M77.1684 59.0017C77.2061 59.0708 77.1986 59.1336 77.1457 59.1893C77.1299 59.1131 77.0691 59.0389 77.1684 59.0017Z" fill="#2A6F64"/>
<path fill-rule="evenodd" clip-rule="evenodd" d="M10.7872 68.851C10.774 68.9115 10.7427 68.9428 10.6934 68.9448C10.7247 68.9135 10.7559 68.8822 10.7872 68.851Z" fill="#2A6F64"/>
<path fill-rule="evenodd" clip-rule="evenodd" d="M36.8078 36.4875L36.7732 36.4263C36.8341 36.3258 36.9186 36.5061 36.8078 36.4875Z" fill="#57BFAE"/>
<path fill-rule="evenodd" clip-rule="evenodd" d="M46.4321 58.4388C46.4946 58.5013 46.5572 58.5639 46.6197 58.6264C46.5572 58.5639 46.4946 58.5013 46.4321 58.4388Z" fill="#2A6F64"/>
<path fill-rule="evenodd" clip-rule="evenodd" d="M40.5876 60.2211C40.4746 60.179 40.5254 60.0735 40.6165 60.1612C40.6164 60.1612 40.5876 60.2211 40.5876 60.2211Z" fill="#57BFAE"/>
<path fill-rule="evenodd" clip-rule="evenodd" d="M77.1305 60.2211C77.1771 60.3005 77.2493 60.3579 77.1479 60.4087C77.0979 60.354 77.0921 60.2915 77.1305 60.2211Z" fill="#2A6F64"/>
<path fill-rule="evenodd" clip-rule="evenodd" d="M42.0857 61.632L42.1172 61.6864C42.0845 61.8012 41.9437 61.5984 42.0857 61.632Z" fill="#57BFAE"/>
<path fill-rule="evenodd" clip-rule="evenodd" d="M37.0081 57.7823C36.943 57.7525 36.9491 57.7274 36.9993 57.6885C37.0658 57.7209 37.0645 57.7413 37.0081 57.7823Z" fill="#57BFAE"/>
<path fill-rule="evenodd" clip-rule="evenodd" d="M1.7415 87.3457C1.7415 87.3457 1.76008 87.4083 1.76008 87.4082C1.71214 87.3876 1.68644 87.3844 1.7415 87.3457Z" fill="#2A6F64"/>
<path fill-rule="evenodd" clip-rule="evenodd" d="M42.3042 61.9498C42.2672 61.9657 42.2357 61.9921 42.2109 61.9418C42.2405 61.9419 42.3116 61.9788 42.3042 61.9498Z" fill="#57BFAE"/>
<path fill-rule="evenodd" clip-rule="evenodd" d="M36.9782 56.8236C36.957 56.7446 36.9855 56.7732 37.0388 56.792L36.9782 56.8236Z" fill="#57BFAE"/>
<path fill-rule="evenodd" clip-rule="evenodd" d="M74.3853 110.124C74.4478 110.061 74.5103 109.999 74.5729 109.936C74.5104 109.999 74.4478 110.061 74.3853 110.124Z" fill="#A7D455"/>
<path fill-rule="evenodd" clip-rule="evenodd" d="M74.1978 110.086C74.2603 110.08 74.3228 110.074 74.3854 110.068C74.3228 110.074 74.2603 110.08 74.1978 110.086Z" fill="#A7D455"/>
<path fill-rule="evenodd" clip-rule="evenodd" d="M40.4443 55.8334C40.4653 55.8509 40.4862 55.8683 40.507 55.886C40.485 55.8711 40.466 55.8258 40.4443 55.8334Z" fill="#57BFAE"/>
<path fill-rule="evenodd" clip-rule="evenodd" d="M61.3467 111.531C61.4405 111.5 61.5342 111.468 61.6281 111.437C61.5342 111.468 61.4405 111.5 61.3467 111.531Z" fill="#A7D455"/>
<path fill-rule="evenodd" clip-rule="evenodd" d="M84.3947 94.415C84.0159 94.3926 83.4819 94.2594 83.4525 94.976C83.7875 97.5098 87.5463 94.5186 84.3947 94.415ZM86.3984 89.3539C86.2689 87.9322 84.3929 88.3758 84.4415 89.8093C84.4921 90.954 86.5702 90.5067 86.3984 89.3539ZM57.1099 83.4186C55.7222 83.1602 54.1898 85.3412 55.7831 85.6168C55.9462 85.1865 56.1331 85.4042 56.4099 85.514C57.7083 85.9756 58.4199 83.7306 57.1099 83.4186ZM79.7676 96.285C80.2164 96.0437 81.2808 95.7387 80.5395 95.1821C80.1878 95.0853 79.3928 96.4019 79.7676 96.285ZM53.7717 80.5715C54.694 79.5991 55.5601 78.1183 56.7153 77.1664C57.5588 77.2676 57.2034 76.8012 57.0771 76.439C59.4626 73.9025 56.7364 85.4564 65.3847 84.0703C67.055 83.8754 68.6385 83.4777 70.1662 82.7809C73.341 83.6591 76.3257 85.6666 79.9087 85.0584C81.7375 85.2502 83.9803 83.488 85.5434 84.6778C87.4271 86.4755 90.04 87.4204 92.5631 87.7057C92.9578 87.7698 93.1204 87.8929 93.0254 88.2951C91.6383 98.1156 93.9772 91.8332 87.7219 97.8093C86.5167 97.8136 85.8717 99.1665 85.2044 99.9757C84.1748 102.258 80.772 102.633 81.4266 99.5531C81.3807 98.4663 81.396 98.4655 80.2827 98.077C81.987 98.2406 80.83 94.901 80.2368 96.8196C80.2749 97.3849 79.2619 97.5137 79.1891 96.9072C79.1365 96.5134 78.3384 96.4843 78.6415 95.9097C79.0522 94.9798 80.1084 94.3465 80.3451 93.376C79.1585 93.5227 78.5536 96.1995 77.2604 95.567C76.7979 95.0921 77.4542 94.7076 77.7669 94.3739C78.2777 93.44 80.3292 92.6892 79.8213 91.5537C79.2323 89.6041 78.1442 88.2122 76.4146 87.1431C72.5828 84.5859 65.7508 84.8121 62.4836 87.5409C60.9432 87.0819 60.5178 88.4189 58.9659 90.1544C56.7261 90.9934 59.728 88.546 59.8478 87.9537C58.4918 87.8362 57.767 89.6643 56.8574 90.477C54.4869 92.2476 56.6954 89.0105 57.3497 88.3325C55.8956 88.2743 54.4486 88.9677 52.9975 89.1765C51.9016 89.227 49.441 90.4096 50.9331 88.7675C50.4453 88.2626 51.0481 87.965 51.139 87.5727C51.7053 85.466 51.6401 82.6438 53.6403 81.3424C53.9609 81.1134 54.0391 80.882 53.7717 80.5715Z" fill="#2A6F64"/>
<path fill-rule="evenodd" clip-rule="evenodd" d="M9.2915 78.9312C4.9601 84.5078 12.8166 94.3012 18.0835 87.5717C22.3504 79.4877 13.6394 76.9248 11.395 83.1046C10.3228 86.3042 16.3683 86.2496 14.7887 83.4803C14.5035 83.2266 14.1938 83.44 14.245 83.8595C14.0393 85.2287 12.0167 82.8337 13.2868 82.3146C17.041 81.0254 17.5762 87.3113 13.6095 86.9075C6.67502 85.7536 11.706 76.5028 17.4033 79.0471C22.4536 80.9646 20.2525 90.3539 15.1423 90.9099C9.1596 91.9461 4.73101 82.4216 9.2915 78.9312Z" fill="#57BFAE"/>
<path fill-rule="evenodd" clip-rule="evenodd" d="M25.5599 57.3426C27.0827 56.8116 19.7921 63.6669 23.4317 62.1228C23.055 62.9368 21.893 63.0423 22.2063 64.0066C22.062 70.3026 30.9257 72.3889 33.3473 66.216C33.8959 64.9871 33.0485 63.6743 32.7178 62.6576C35.8346 62.8593 34.5345 69.2824 31.6459 70.0819C22.94 75.1234 17.4019 61.6683 25.5599 57.3426Z" fill="#57BFAE"/>
<path fill-rule="evenodd" clip-rule="evenodd" d="M32.6017 62.7381C30.7164 59.921 25.6081 60.4169 24.9957 63.898C24.7436 66.4742 28.7452 67.3536 29.7244 65.0077C30.3274 64.0287 28.3759 63.9713 28.2717 64.9078C28.1701 65.2547 27.9636 65.176 27.7781 64.9329C26.6578 63.41 29.541 62.5141 30.3317 63.5413C31.9642 65.3141 29.7177 67.8361 27.5858 67.5087C19.3577 65.5041 27.5783 55.3576 33.206 61.9502C32.294 61.7195 32.9146 62.4741 32.6017 62.7381Z" fill="#57BFAE"/>
<path fill-rule="evenodd" clip-rule="evenodd" d="M44.053 75.6176C43.6406 77.8094 42.0699 78.1367 40.6969 76.3976C39.8299 79.4516 39.432 78.8313 37.1296 77.1859C35.9222 76.458 36.8349 79.1996 36.1633 79.6301C35.6947 79.7162 35.5402 79.0994 35.4991 78.7586C35.2127 75.3583 36.4026 75.1019 38.9516 77.037C39.3524 74.6364 40.4074 74.06 42.2765 75.8027C42.962 75.1992 42.9816 72.0917 44.2206 73.2247C44.8085 73.9898 45.7701 76.8496 44.053 75.6176Z" fill="#57BFAE"/>
<path fill-rule="evenodd" clip-rule="evenodd" d="M14.5037 69.5329C7.76149 69.6457 16.9733 66.2604 15.4851 71.0467C15.3145 72.1513 18.5008 69.3364 17.5132 72.7461C17.3224 73.5866 18.7891 72.848 19.2605 73.0451C21.1345 73.5515 19.3998 75.9751 20.1395 77.2047C19.6924 78.8942 18.0169 76.295 18.6349 75.3297C18.8145 74.6664 18.7676 74.6013 18.1235 74.6701C16.5397 75.0454 16.2821 73.5357 15.1323 73.055C12.9134 72.8203 15.0405 70.4803 14.5037 69.5329Z" fill="#57BFAE"/>
<path fill-rule="evenodd" clip-rule="evenodd" d="M40.2412 91.6033C38.5908 92.6172 39.6068 90.5126 38.8597 89.6507C37.6162 87.4216 33.9229 85.3201 32.1167 88.0144C30.4132 89.4658 31.6044 94.1329 29.7409 93.6775C29.4889 84.1962 37.8507 82.6022 40.2412 91.6033Z" fill="#57BFAE"/>
<path fill-rule="evenodd" clip-rule="evenodd" d="M23.6381 95.7571C21.679 96.0563 19.8101 98.0393 18.0291 97.3984C18.418 98.5351 17.9979 99.0911 17.0433 99.7118C17.1938 98.4616 15.8372 95.4613 18.2008 96.0295C22.4108 98.592 18.5855 89.9537 23.6381 95.7571Z" fill="#57BFAE"/>
<path fill-rule="evenodd" clip-rule="evenodd" d="M29.5477 93.8029C28.3808 94.8298 27.6629 97.5427 25.9494 97.3579C25.2627 96.5423 27.1175 95.8138 26.8041 94.8873C27.6338 94.0369 27.5516 93.7888 29.5477 93.8029Z" fill="#2A6F64"/>
<path fill-rule="evenodd" clip-rule="evenodd" d="M12.1495 69.3199C13.7497 69.6837 12.158 69.6674 11.8235 70.4434C11.8667 71.3621 10.5056 71.0452 10.4121 70.313C10.8395 70.0713 11.2403 70.8064 11.1019 69.9043C11.3246 69.644 12.1193 69.8588 12.1495 69.3199Z" fill="#2A6F64"/>
<path fill-rule="evenodd" clip-rule="evenodd" d="M23.5444 95.7722C24.0955 95.0262 25.5638 94.3086 26.5461 94.818C25.5764 95.2203 24.553 95.4752 23.5444 95.7722Z" fill="#2A6F64"/>
<path fill-rule="evenodd" clip-rule="evenodd" d="M46.2446 90.3435C45.6576 90.9756 44.4026 91.0325 43.6182 90.9675C44.1523 90.3283 45.6054 89.8602 46.2446 90.3435Z" fill="#2A6F64"/>
<path fill-rule="evenodd" clip-rule="evenodd" d="M9.36985 78.9719C8.09996 79.14 10.4938 77.0547 11.2564 77.6983C10.7509 78.2828 9.88707 78.42 9.3639 78.9804L9.36985 78.9719Z" fill="#2A6F64"/>
<path fill-rule="evenodd" clip-rule="evenodd" d="M26.2649 58.7202C26.7729 58.8621 27.4991 58.6071 27.7655 59.2071C27.4044 59.4314 26.2459 59.126 26.2649 58.7202Z" fill="#2A6F64"/>
<path fill-rule="evenodd" clip-rule="evenodd" d="M26.4521 57.0332C26.9379 57.0112 27.9614 57.2697 28.2344 57.5009C27.6115 57.4006 26.8229 57.6899 26.4521 57.0332Z" fill="#57BFAE"/>
<path fill-rule="evenodd" clip-rule="evenodd" d="M29.1447 57.3132C29.3416 57.532 29.5385 57.751 29.7355 57.9698C29.2351 57.7866 28.7349 57.6035 28.2346 57.4201C28.4823 57.2596 28.8983 57.7265 29.1447 57.3132Z" fill="#57BFAE"/>
<path fill-rule="evenodd" clip-rule="evenodd" d="M49.7152 89.6554C49.382 90.0065 48.9973 90.0131 48.5896 89.8649C49.0367 89.4346 49.3149 89.3828 49.7152 89.6554Z" fill="#2A6F64"/>
<path fill-rule="evenodd" clip-rule="evenodd" d="M29.6772 58.0636C29.9155 58.2482 30.1538 58.4329 30.392 58.6174C30.0041 58.6147 29.503 58.7493 29.6772 58.0636Z" fill="#57BFAE"/>
<path fill-rule="evenodd" clip-rule="evenodd" d="M47.8392 90.0998C47.6202 90.177 47.4013 90.2542 47.1826 90.3317C47.3155 89.7774 47.4302 89.7333 47.8392 90.0998Z" fill="#2A6F64"/>
<path fill-rule="evenodd" clip-rule="evenodd" d="M47.1826 90.3317C47.098 90.5935 46.9963 90.7587 46.8074 90.4311C46.9324 90.3979 47.0575 90.3648 47.1826 90.3317Z" fill="#2A6F64"/>
<path fill-rule="evenodd" clip-rule="evenodd" d="M27.1329 94.6466C27.2706 95.0489 27.2218 95.0879 26.8274 94.9493C26.9293 94.8484 27.0312 94.7476 27.1329 94.6466Z" fill="#A7D455"/>
<path fill-rule="evenodd" clip-rule="evenodd" d="M11.5471 68.7834C11.5721 68.7971 11.5969 68.811 11.6219 68.8247C11.5957 68.8126 11.5724 68.7873 11.5471 68.7834Z" fill="#2A6F64"/>
<path fill-rule="evenodd" clip-rule="evenodd" d="M13.7891 69.5669C13.849 69.5409 13.9117 69.5353 13.9767 69.5498C13.9139 69.5556 13.8515 69.5612 13.7891 69.5669Z" fill="#2A6F64"/>
<path fill-rule="evenodd" clip-rule="evenodd" d="M14.5393 69.5076C14.6018 69.5703 14.6643 69.6328 14.7269 69.6952C14.6645 69.6323 14.6019 69.57 14.5393 69.5076Z" fill="#2A6F64"/>
<path fill-rule="evenodd" clip-rule="evenodd" d="M46.5259 90.4763C46.4946 90.4759 46.4632 90.4756 46.4321 90.4752C46.4636 90.4659 46.4948 90.4664 46.5259 90.4763Z" fill="#2A6F64"/>
<path fill-rule="evenodd" clip-rule="evenodd" d="M9.28638 78.9816C9.34894 78.919 9.41151 78.8564 9.47398 78.7939C9.41132 78.8565 9.34885 78.919 9.28638 78.9816Z" fill="#57BFAE"/>
<path fill-rule="evenodd" clip-rule="evenodd" d="M30.8621 93.052C30.7301 80.0694 43.622 91.0617 37.7863 92.0766C36.7999 91.3638 37.3466 89.6398 35.9028 89.3409C34.6259 88.9039 33.0879 89.1702 32.4533 90.5128C31.904 91.7625 32.6326 92.9767 30.8621 93.052Z" fill="#0C4468"/>
<path fill-rule="evenodd" clip-rule="evenodd" d="M32.1934 92.6445C31.2716 89.5116 36.2642 87.5086 37.132 90.8109C37.1825 91.3351 37.382 91.7472 37.8023 92.0535C36.8348 92.4449 35.7775 93.5444 34.7258 92.8183C37.7026 91.3586 35.541 89.0437 33.4966 91.1222C34.1473 90.5893 35.8875 90.8836 34.6947 91.6958C34.1061 92.1557 34.0854 92.3005 34.5411 92.8251C33.9022 93.4352 32.3922 93.6303 32.1934 92.6445Z" fill="#57BFAE"/>
<path fill-rule="evenodd" clip-rule="evenodd" d="M61.394 99.1285C61.9714 98.7543 62.453 98.1469 63.1019 97.9278C62.6486 99.0796 61.3953 99.9747 60.6496 101.019C60.1872 101.656 58.9793 100.563 59.5085 100.071C60.9202 98.3797 62.3417 95.8837 64.4423 95.2094C63.8366 96.2467 59.3472 101.726 61.394 99.1285Z" fill="#2A6F64"/>
<path fill-rule="evenodd" clip-rule="evenodd" d="M77.2932 104.214C75.887 105.99 74.0904 109.936 71.665 109.841C72.9204 107.677 75.299 105.785 77.2932 104.214Z" fill="#2A6F64"/>
<path fill-rule="evenodd" clip-rule="evenodd" d="M73.3535 88.4556C72.7738 89.3637 69.9355 94.5549 69.0386 93.3368C69.6459 91.5879 71.7772 89.0163 73.3535 88.4556Z" fill="#2A6F64"/>
<path fill-rule="evenodd" clip-rule="evenodd" d="M36.3807 99.7109C37.3983 99.5999 39.4455 96.362 39.8659 97.5247C39.1513 98.0823 33.5659 104.791 34.9166 101.372L34.9072 101.381C35.0948 101.193 35.2824 101.004 35.4701 100.815L35.4602 100.824C35.8825 100.573 36.3467 100.217 36.3807 99.7109Z" fill="#2A6F64"/>
<path fill-rule="evenodd" clip-rule="evenodd" d="M41.5545 105.066C40.5824 106.94 33.5564 112.392 38.0973 107.446C39.2147 106.761 40.2116 104.931 41.5545 105.066Z" fill="#2A6F64"/>
<path fill-rule="evenodd" clip-rule="evenodd" d="M17.2211 101.869C16.2825 100.389 20.0423 98.483 21.0648 97.504C22.9595 96.4945 17.7999 101.371 17.2211 101.869Z" fill="#2A6F64"/>
<path fill-rule="evenodd" clip-rule="evenodd" d="M48.9754 106.747C47.4505 106.206 52.3527 102.331 53.1859 102.434C52.1285 104.01 50.4451 105.506 48.9754 106.747Z" fill="#2A6F64"/>
<path fill-rule="evenodd" clip-rule="evenodd" d="M40.1475 98.8677C39.6936 99.6218 35.713 105.091 36.2591 102.483C37.5406 101.488 38.6742 99.0518 40.1475 98.8677Z" fill="#2A6F64"/>
<path fill-rule="evenodd" clip-rule="evenodd" d="M70.5729 105.152C70.1877 104.402 70.7628 104.024 71.153 103.481C72.2763 102.428 73.1598 100.945 74.4791 100.181C73.9467 102.148 71.9845 103.644 70.5729 105.152Z" fill="#2A6F64"/>
<path fill-rule="evenodd" clip-rule="evenodd" d="M73.6349 98.9614C72.5269 100.547 71.2313 103.081 69.4138 103.652C69.7793 101.854 72.1719 100.186 73.6349 98.9614Z" fill="#2A6F64"/>
<path fill-rule="evenodd" clip-rule="evenodd" d="M32.0929 92.6768C32.674 93.8355 29.9546 94.509 29.8581 96.189C26.8098 98.5144 29.421 95.1308 30.3428 94.2932C30.8477 93.3886 30.8812 92.7716 32.0929 92.6768Z" fill="#2A6F64"/>
<path fill-rule="evenodd" clip-rule="evenodd" d="M74.1976 89.5813C73.015 91.3209 71.7813 93.476 70.0703 94.6466C70.6053 92.8149 72.8562 90.6547 74.1976 89.5813Z" fill="#2A6F64"/>
<path fill-rule="evenodd" clip-rule="evenodd" d="M50.5596 95.6063C47.0194 100.22 44.1812 100.902 49.8031 95.6776C50.0223 95.525 50.2985 95.3835 50.5596 95.6063Z" fill="#2A6F64"/>
<path fill-rule="evenodd" clip-rule="evenodd" d="M34.8675 101.4C32.9118 101.12 38.0272 97.2362 38.925 96.7102C39.0238 97.7253 36.7002 98.5779 36.3484 99.738C35.8831 99.9552 35.4575 100.339 35.4237 100.846C35.0506 100.827 34.7857 101.037 34.8675 101.4Z" fill="#2A6F64"/>
<path fill-rule="evenodd" clip-rule="evenodd" d="M34.5348 92.8643C33.4875 92.0007 35.2478 91.909 35.0448 91.1266C34.6776 90.4913 34.0012 91.0647 33.4875 91.1684C35.7801 88.9611 37.7203 91.6863 34.5348 92.8643Z" fill="#0C4468"/>
<path fill-rule="evenodd" clip-rule="evenodd" d="M52.6231 106.466C51.2881 108.001 49.9242 109.865 48.1206 110.781C49.3147 109.163 50.9874 107.607 52.6231 106.466Z" fill="#2A6F64"/>
<path fill-rule="evenodd" clip-rule="evenodd" d="M48.4243 99.8995C46.5033 99.7473 50.7879 96.6472 51.4976 96.0536C51.3455 97.4057 48.8018 98.6374 48.4243 99.8995Z" fill="#2A6F64"/>
<path fill-rule="evenodd" clip-rule="evenodd" d="M63.5979 99.3367C62.4416 100.781 61.5178 102.986 59.6582 103.558C60.5897 101.923 62.2719 100.654 63.5979 99.3367Z" fill="#2A6F64"/>
<path fill-rule="evenodd" clip-rule="evenodd" d="M42.7738 107.22C42.0988 107.838 39.1768 111.828 39.0217 110.368C40.2202 109.571 41.6061 107.111 42.7738 107.22Z" fill="#2A6F64"/>
<path fill-rule="evenodd" clip-rule="evenodd" d="M25.2894 106.466C24.8481 105.312 27.1167 104.41 27.7384 103.464C28.7117 103.677 26.1082 106.256 25.2894 106.466Z" fill="#2A6F64"/>
<path fill-rule="evenodd" clip-rule="evenodd" d="M59.1903 91.9264C58.211 91.2475 61.3312 88.8282 62.0034 88.2681C61.362 89.5741 60.2598 90.9151 59.1903 91.9264Z" fill="#2A6F64"/>
<path fill-rule="evenodd" clip-rule="evenodd" d="M27.2966 102.447C26.2022 103.237 25.4335 105.355 23.9197 105.024C24.6458 104.138 26.3544 102.248 27.2966 102.447Z" fill="#2A6F64"/>
<path fill-rule="evenodd" clip-rule="evenodd" d="M41.546 106.372C38.1769 111.626 36.0524 110.592 41.5544 106.382L41.546 106.372Z" fill="#2A6F64"/>
<path fill-rule="evenodd" clip-rule="evenodd" d="M20.6366 99.8995C19.8193 100.695 19.4591 102.408 18.1978 102.432C18.5974 101.357 19.5546 100.341 20.6366 99.8995Z" fill="#2A6F64"/>
<path fill-rule="evenodd" clip-rule="evenodd" d="M18.1037 104.965C17.3933 105.805 16.9668 106.988 16.0425 107.591C15.5456 106.516 17.0851 105.318 18.1037 104.965Z" fill="#2A6F64"/>
<path fill-rule="evenodd" clip-rule="evenodd" d="M23.5339 103.558C22.7812 102.991 24.6384 101.559 25.1368 101.4C25.6407 101.798 24.0183 103.29 23.5339 103.558Z" fill="#2A6F64"/>
<path fill-rule="evenodd" clip-rule="evenodd" d="M48.9872 99.3554C49.688 98.8315 50.3308 98.2192 51.1223 97.8358C50.8075 98.9053 47.4588 101.933 48.9872 99.3554Z" fill="#2A6F64"/>
<path fill-rule="evenodd" clip-rule="evenodd" d="M74.1039 102.526C73.2633 103.405 72.7641 104.823 71.665 105.34C71.9271 104.375 73.3357 102.693 74.1039 102.526Z" fill="#2A6F64"/>
<path fill-rule="evenodd" clip-rule="evenodd" d="M52.5293 104.954C50.0541 108.163 49.1748 108.063 52.2036 104.843C52.3331 104.758 52.4839 104.719 52.5293 104.954Z" fill="#2A6F64"/>
<path fill-rule="evenodd" clip-rule="evenodd" d="M73.2596 92.3953C72.9769 93.0426 71.7825 95.4081 71.2898 94.7049C71.6411 93.9664 72.6331 92.3841 73.2596 92.3953Z" fill="#2A6F64"/>
<path fill-rule="evenodd" clip-rule="evenodd" d="M14.3885 101.869C14.4315 101.259 14.0361 99.7853 15.1111 100.281C16.1727 100.548 15.1696 101.817 14.3885 101.869Z" fill="#2A6F64"/>
<path fill-rule="evenodd" clip-rule="evenodd" d="M18.9482 106.279C18.4118 106.813 18.1528 107.795 17.363 107.966C17.2312 107.39 18.5056 105.779 18.9482 106.279Z" fill="#2A6F64"/>
<path fill-rule="evenodd" clip-rule="evenodd" d="M30.1106 97.6483C30.1081 96.9981 30.9982 96.1556 31.5176 95.7722C31.4521 96.3239 30.6255 97.2851 30.1106 97.6483Z" fill="#2A6F64"/>
<path fill-rule="evenodd" clip-rule="evenodd" d="M18.2607 98.6801C17.9589 97.4542 17.9987 97.3952 19.2294 97.7286C18.9913 98.1266 18.7555 98.525 18.2607 98.6801Z" fill="#2A6F64"/>
<path fill-rule="evenodd" clip-rule="evenodd" d="M69.4138 95.161C69.0696 95.4822 68.7464 95.6832 68.5696 95.2116C68.8331 94.7657 68.9909 94.6734 69.4138 95.161Z" fill="#2A6F64"/>
<path fill-rule="evenodd" clip-rule="evenodd" d="M41.5544 106.372C41.6625 106.294 41.7645 106.058 41.8359 106.271C41.7543 106.31 41.5894 106.321 41.5544 106.372Z" fill="#2A6F64"/>
<path fill-rule="evenodd" clip-rule="evenodd" d="M77.6703 105.809C77.6978 105.75 77.742 105.527 77.7611 105.667C77.7446 105.715 77.6582 105.769 77.6703 105.809Z" fill="#2A6F64"/>
<path fill-rule="evenodd" clip-rule="evenodd" d="M73.6652 98.9412L73.7047 98.8879C73.7033 98.8953 73.639 98.9341 73.6652 98.9412Z" fill="#2A6F64"/>
<path fill-rule="evenodd" clip-rule="evenodd" d="M63.6238 99.3167L63.6724 99.2628C63.6712 99.27 63.5953 99.3083 63.6238 99.3167Z" fill="#2A6F64"/>
<path fill-rule="evenodd" clip-rule="evenodd" d="M20.6654 99.8762L20.7078 99.8291C20.7061 99.836 20.6387 99.8676 20.6654 99.8762Z" fill="#2A6F64"/>
<path fill-rule="evenodd" clip-rule="evenodd" d="M77.3242 104.193L77.3624 104.141C77.3609 104.149 77.2982 104.186 77.3242 104.193Z" fill="#2A6F64"/>
<path fill-rule="evenodd" clip-rule="evenodd" d="M83.2026 57.8834C84.5008 56.4381 86.138 55.0624 87.8338 54.1239C89.691 54.3943 87.4217 55.8992 86.7702 56.3437C86.172 56.4951 83.7554 58.9674 83.2026 57.8834Z" fill="#141313"/>
<path fill-rule="evenodd" clip-rule="evenodd" d="M97.8343 61.4601C97.9012 63.4056 95.7201 63.5682 95.397 61.8397C95.6153 60.1113 97.3755 59.4494 97.8343 61.4601Z" fill="#57BFAE"/>
<path fill-rule="evenodd" clip-rule="evenodd" d="M76.6505 80.1107C78.1887 80.0129 77.8264 81.9909 76.6055 81.9832C75.1759 81.8933 74.8565 80.0303 76.6505 80.1107Z" fill="#57BFAE"/>
<path fill-rule="evenodd" clip-rule="evenodd" d="M92.2686 82.468C93.9306 82.3611 93.1992 84.4747 92.0094 84.3202C90.552 84.3217 90.669 82.2529 92.2686 82.468Z" fill="#57BFAE"/>
<path fill-rule="evenodd" clip-rule="evenodd" d="M83.1069 64.3292C83.0522 65.8872 81.2993 65.0732 81.2329 63.9553C81.3011 62.7049 83.1801 63.2061 83.1069 64.3292Z" fill="#57BFAE"/>
<path fill-rule="evenodd" clip-rule="evenodd" d="M85.6463 57.2917C86.084 57.0677 86.1226 56.3581 86.7586 56.3756C85.9134 57.6084 89.3975 56.7209 90.0504 56.7514C89.5135 58.0664 85.7505 56.6208 85.8023 58.1762C85.3691 58.5303 85.6129 57.5306 85.6463 57.2917Z" fill="#57BFAE"/>
<path fill-rule="evenodd" clip-rule="evenodd" d="M90.5194 62.4008C89.7596 63.972 87.9568 62.2504 88.9196 61.2645C89.7543 60.8461 90.0888 61.7671 90.5194 62.4008Z" fill="#57BFAE"/>
<path fill-rule="evenodd" clip-rule="evenodd" d="M99.6153 72.2166C99.6932 73.1372 98.0878 73.4819 98.1176 72.4C98.0948 71.2911 99.5245 71.1237 99.6153 72.2166Z" fill="#57BFAE"/>
<path fill-rule="evenodd" clip-rule="evenodd" d="M80.8729 58.7191C80.6175 58.4312 80.3621 58.1432 80.1072 57.8557C80.4317 57.9448 80.6815 57.293 81.052 57.7724C81.5775 58.055 81.5607 58.7526 80.8729 58.7191Z" fill="#57BFAE"/>
<path fill-rule="evenodd" clip-rule="evenodd" d="M104.965 74.3945C104.627 74.8913 103.909 74.2415 104.043 73.7697C104.419 73.561 104.674 74.2071 104.965 74.3945Z" fill="#57BFAE"/>
<path fill-rule="evenodd" clip-rule="evenodd" d="M80.5762 58.9079C80.6389 58.8764 80.7016 58.845 80.7638 58.8141C80.7009 58.8457 80.6385 58.8768 80.5762 58.9079Z" fill="#57BFAE"/>
<path fill-rule="evenodd" clip-rule="evenodd" d="M28.5159 54.7923C28.8077 54.7391 29.1455 54.8068 29.3479 54.5463C28.5961 53.7982 29.8065 54.1042 29.786 53.7488C30.7464 54.4698 31.1581 55.8447 31.8928 56.7171C31.7524 56.4413 31.113 57.324 31.2314 56.4396C29.8759 56.6481 29.4313 55.4162 28.5159 54.7923Z" fill="#57BFAE"/>
<path fill-rule="evenodd" clip-rule="evenodd" d="M23.9709 24.3707C23.5071 23.9587 23.7692 23.3706 24.322 23.3568C24.4214 23.9949 24.4562 24.015 25.026 23.7643C25.3031 24.1501 25.0481 24.733 25.5515 25.0768C25.7549 25.2157 25.3812 25.4958 24.8685 25.4014C24.8724 24.78 24.4516 24.5478 23.9709 24.3707Z" fill="#2A6F64"/>
<path fill-rule="evenodd" clip-rule="evenodd" d="M33.2788 57.3485C33.4214 57.6514 33.6669 57.6374 33.9565 57.6145C33.7991 57.9747 33.8114 58.4979 33.3499 58.1202C33.0053 57.722 32.6621 58.2124 32.3371 57.8075C32.2308 57.7674 32.039 57.8642 31.9902 57.6701C31.8453 57.4594 31.8874 56.8481 31.9545 56.7504C32.4903 56.947 32.6598 57.677 33.2788 57.3485Z" fill="#57BFAE"/>
<path fill-rule="evenodd" clip-rule="evenodd" d="M33.9564 53.9013C33.5864 53.9914 33.2062 53.8819 32.8308 53.8619C32.9987 53.0117 33.7285 53.1516 33.9564 53.9013Z" fill="#57BFAE"/>
<path fill-rule="evenodd" clip-rule="evenodd" d="M25.0117 23.7682C24.4314 24.0221 24.3962 24.0017 24.2949 23.3555C24.8121 22.6573 25.6291 23.0185 25.0117 23.7682Z" fill="#57BFAE"/>
<path fill-rule="evenodd" clip-rule="evenodd" d="M37.2394 14.4456C37.184 14.6333 37.1287 14.8211 37.0733 15.0084C36.9011 14.7316 36.8953 14.5204 37.2394 14.4456Z" fill="#2A6F64"/>
<path fill-rule="evenodd" clip-rule="evenodd" d="M33.3936 52.9045C33.3623 52.8731 33.3309 52.8417 33.2998 52.8107C33.3312 52.842 33.3624 52.8733 33.3936 52.9045Z" fill="#57BFAE"/>
<path fill-rule="evenodd" clip-rule="evenodd" d="M88.6618 70.6131C88.5999 69.1482 86.6273 69.6737 86.679 71.0217C86.8782 72.4499 88.6484 71.8558 88.6618 70.6131ZM90.8323 65.3811C104.502 65.2402 91.7643 83.355 84.8064 82.618C79.7436 76.7825 82.4946 65.8548 90.8323 65.3811Z" fill="#2A6F64"/>
<path fill-rule="evenodd" clip-rule="evenodd" d="M71.3224 74.543C71.3248 76.0202 73.2497 74.8515 72.645 73.9098C71.8816 72.8746 71.2409 73.4655 71.3224 74.543ZM73.1605 68.2025C73.0536 69.9935 75.0495 69.8668 75.0733 68.4351C74.9818 67.3849 73.2398 66.8921 73.1605 68.2025ZM66.3383 73.3934C66.0874 69.8629 68.2248 66.2116 71.7661 65.2642C84.0712 63.3652 77.8284 78.3907 71.105 81.5143C68.3458 80.53 66.1017 76.545 66.3383 73.3934Z" fill="#2A6F64"/>
<path fill-rule="evenodd" clip-rule="evenodd" d="M60.5838 76.9623C61.1251 76.2723 61.4707 76.0816 60.7619 75.5061C60.2384 76.0604 59.9393 76.1642 60.5838 76.9623ZM63.8619 78.8265C63.6956 80.5211 65.5535 80.1112 65.4285 78.6798C65.3014 77.7378 63.4908 77.5647 63.8619 78.8265ZM60.9077 72.1366C61.2354 72.1448 61.6346 72.4865 61.7001 71.7285C62.831 70.6609 64.5222 69.5451 65.8249 68.492C69.1463 65.283 63.9548 72.959 66.0915 76.5719C65.9556 78.486 70.7431 82.077 69.4838 82.3665C66.3985 83.6458 61.4181 84.344 59.8247 80.6159C58.5572 77.829 57.7918 73.9506 60.9077 72.1366Z" fill="#2A6F64"/>
<path fill-rule="evenodd" clip-rule="evenodd" d="M102.375 81.7807C103.509 81.1444 103.372 79.7338 101.876 80.0306C100.492 80.4989 100.983 81.7261 102.375 81.7807ZM105.045 76.1675C105.958 76.2553 106.387 76.4914 106.39 77.3497C106.171 78.7896 108.088 80.2852 106.942 81.4528C103.841 84.6831 99.4527 86.4678 95.0115 86.852C94.418 86.8954 94.3496 86.7949 94.5853 86.2311C96.4306 81.6011 99.9672 77.3189 105.045 76.1675Z" fill="#2A6F64"/>
<path fill-rule="evenodd" clip-rule="evenodd" d="M103.418 97.6897C102.636 98.5243 101.983 99.1902 100.764 99.2513C99.2766 99.2422 97.4481 100.645 96.1858 99.6155C95.2968 98.4918 92.9409 95.9218 94.3191 94.7356C96.2215 93.4626 109.408 94.9247 103.415 97.6934L103.418 97.6897Z" fill="#2A6F64"/>
<path fill-rule="evenodd" clip-rule="evenodd" d="M94.6064 100.591C92.7003 100.274 91.4532 101.096 89.7218 101.025C89.3347 101.081 88.8083 100.595 88.5734 101.307C88.0214 100.964 85.4229 101.736 85.8835 100.732C87.0889 99.2097 92.4453 92.9063 93.3949 96.8775C93.5882 98.0018 96.191 100.121 94.6064 100.591Z" fill="#2A6F64"/>
<path fill-rule="evenodd" clip-rule="evenodd" d="M60.1274 72.6806C59.6164 74.2403 57.024 72.9779 57.9492 75.0336C56.0504 80.8014 51.317 67.8308 60.1274 72.6806Z" fill="#0C4468"/>
<path fill-rule="evenodd" clip-rule="evenodd" d="M68.8136 66.0368C68.7249 65.7932 68.7632 65.5404 68.7786 65.2864C69.3036 65.5273 69.4296 65.8454 68.8136 66.0368Z" fill="#2A6F64"/>
<path fill-rule="evenodd" clip-rule="evenodd" d="M67.3701 67.5377C67.283 67.0974 67.4838 66.9319 67.9129 66.9842C67.7321 67.1687 67.551 67.3532 67.3701 67.5377Z" fill="#2A6F64"/>
<path fill-rule="evenodd" clip-rule="evenodd" d="M103.47 97.6536C103.514 97.6701 103.554 97.6818 103.551 97.7367C103.521 97.7107 103.501 97.6646 103.47 97.6536Z" fill="#2A6F64"/>
<path fill-rule="evenodd" clip-rule="evenodd" d="M69.7041 65.7019C69.6967 65.7087 69.7806 65.7132 69.7806 65.7151L69.7041 65.7019Z" fill="#2A6F64"/>
<path fill-rule="evenodd" clip-rule="evenodd" d="M105.725 74.8542C105.752 74.8855 105.778 74.9167 105.804 74.9481C105.781 74.9156 105.699 74.8851 105.725 74.8542Z" fill="#2A6F64"/>
<path fill-rule="evenodd" clip-rule="evenodd" d="M73.2597 44.316C73.1372 44.7746 72.9887 44.8353 73.1947 45.3488C72.8588 45.7163 73.1968 45.7861 73.1533 46.1701C72.9333 46.0844 72.6678 46.4558 72.4623 46.0534C72.3305 45.464 70.8729 44.1596 71.9897 44.1847C72.1905 44.2357 72.403 44.6844 72.4712 44.0872C72.734 44.1634 72.9969 44.2397 73.2597 44.316Z" fill="#2A6F64"/>
<path fill-rule="evenodd" clip-rule="evenodd" d="M66.0369 44.3315C65.1875 44.2013 64.9951 45.1373 64.3443 45.4003C64.0274 43.6995 64.541 44.471 66.0369 44.3315Z" fill="#57BFAE"/>
<path fill-rule="evenodd" clip-rule="evenodd" d="M78.2684 57.1256C78.3917 57.5524 78.6148 57.7509 79.053 57.4566C79.2986 59.7506 77.4109 58.4768 78.2684 57.1256Z" fill="#2A6F64"/>
<path fill-rule="evenodd" clip-rule="evenodd" d="M78.3473 59.0017C78.6361 59.2602 78.5344 59.3735 78.1375 59.3769C78.2074 59.2518 78.2774 59.1268 78.3473 59.0017Z" fill="#2A6F64"/>
<path fill-rule="evenodd" clip-rule="evenodd" d="M90.144 56.74C90.1755 56.7153 90.207 56.6908 90.2378 56.6671C90.2062 56.6919 90.1751 56.7159 90.144 56.74Z" fill="#57BFAE"/>
<path fill-rule="evenodd" clip-rule="evenodd" d="M78.1632 56C78.1986 56.0623 78.2655 56.1076 78.21 56.1876C78.1733 56.1229 78.0978 56.0808 78.1632 56Z" fill="#2A6F64"/>
<path fill-rule="evenodd" clip-rule="evenodd" d="M96.7061 89.7093C98.0359 88.9888 99.5704 89.5695 98.0453 90.7659C97.3215 91.0511 95.5754 89.4841 96.7061 89.7093Z" fill="#57BFAE"/>
<path fill-rule="evenodd" clip-rule="evenodd" d="M103.276 90.4513C102.657 91.0657 102.267 91.2707 101.97 90.4288C101.877 89.3114 102.782 89.5362 103.276 90.4513Z" fill="#57BFAE"/>
<path fill-rule="evenodd" clip-rule="evenodd" d="M74.2326 9.26708C73.6224 8.28197 73.0241 10.2292 72.587 9.16192C72.4823 9.00825 72.4896 9.1459 72.4312 9.22601C71.5044 10.0699 71.3758 9.55494 70.7271 8.77625C70.8165 8.78466 71.3286 8.56275 71.548 8.36075C72.0103 8.3457 72.0103 8.34571 71.8385 8.05077C71.5632 7.19215 72.9497 8.18593 74.0235 7.43345C74.4154 6.96086 75.2093 6.26998 75.332 7.25429C74.656 7.56985 74.9037 8.15176 75.5269 8.22187C75.4219 8.67419 75.9743 9.34143 75.1066 9.61778C75.4144 10.6267 74.5322 9.53077 74.2326 9.26708Z" fill="#0C4468"/>
<path fill-rule="evenodd" clip-rule="evenodd" d="M71.367 13.1578C71.4842 14.0084 70.9437 13.732 70.9369 13.081C71.0348 12.6662 70.4504 12.7736 70.2549 12.3732C69.0031 11.4776 69.7011 13.8271 69.4685 14.6331C68.9262 14.5957 68.9374 14.2441 69.2771 13.8898C69.2805 13.525 69.4113 13.0884 69.2622 12.8097C68.896 12.1257 69.4168 11.8023 69.7328 11.4885C70.3819 11.1772 71.1293 12.5742 71.367 13.1578Z" fill="#57BFAE"/>
<path fill-rule="evenodd" clip-rule="evenodd" d="M73.1015 6.56616C73.3055 6.95326 73.5847 6.90242 73.8897 6.70258C74.6536 7.48839 73.169 7.67477 72.623 7.78559C71.1325 7.65199 72.4792 7.07059 73.1015 6.56616Z" fill="#57BFAE"/>
<path fill-rule="evenodd" clip-rule="evenodd" d="M70.1656 15.3893C70.933 15.7443 70.6723 15.7802 69.9842 15.9337C69.367 15.9723 70.2191 16.9755 69.4601 16.4522C68.4951 16.3266 68.8237 14.9357 69.4325 15.7561C69.5494 15.4139 69.809 15.133 70.1656 15.3893Z" fill="#57BFAE"/>
<path fill-rule="evenodd" clip-rule="evenodd" d="M71.4 13.2262C71.1948 12.651 70.6402 12.1163 71.0794 11.5377C71.9276 11.8058 72.3606 12.2956 71.4 13.2262Z" fill="#2A6F64"/>
<path fill-rule="evenodd" clip-rule="evenodd" d="M70.7271 16.8768C71.153 16.788 72.0296 16.6103 71.9401 17.3295C71.6943 18.0205 70.8297 17.3937 70.7271 16.8768Z" fill="#2A6F64"/>
<path fill-rule="evenodd" clip-rule="evenodd" d="M69.1276 15.4774C68.1846 13.8137 71.2658 15.079 69.9055 15.3292C69.5104 14.9559 69.3381 14.9889 69.1276 15.4774Z" fill="#2A6F64"/>
<path fill-rule="evenodd" clip-rule="evenodd" d="M70.5116 10.5997C70.4623 10.316 70.0669 9.48437 70.7418 9.74909C72.2018 9.09669 71.144 10.4005 70.5116 10.5997Z" fill="#2A6F64"/>
<path fill-rule="evenodd" clip-rule="evenodd" d="M69.32 13.8827C69.2261 14.0079 69.1323 14.1331 69.0386 14.2579C69.1325 14.1326 69.2263 14.0077 69.32 13.8827Z" fill="#2A6F64"/>
<path fill-rule="evenodd" clip-rule="evenodd" d="M70.6911 8.53601C70.7658 8.59852 70.8406 8.66102 70.9145 8.72362C70.7199 8.71719 70.5359 8.73835 70.6911 8.53601Z" fill="#57BFAE"/>
<path fill-rule="evenodd" clip-rule="evenodd" d="M70.6332 12.0066C70.5705 11.9754 70.5079 11.944 70.4456 11.9128C70.5083 11.9442 70.5707 11.9755 70.6332 12.0066Z" fill="#2A6F64"/>
<path fill-rule="evenodd" clip-rule="evenodd" d="M70.7123 8.81348C70.451 8.81573 70.5103 8.66808 70.7269 8.75466L70.7123 8.81348Z" fill="#57BFAE"/>
<path fill-rule="evenodd" clip-rule="evenodd" d="M71.5711 7.69177C71.5086 7.72309 71.446 7.75433 71.3835 7.78557C71.4462 7.75426 71.5087 7.72302 71.5711 7.69177Z" fill="#57BFAE"/>
<path fill-rule="evenodd" clip-rule="evenodd" d="M60.1471 72.6595C54.9998 68.8291 52.8047 75.7645 57.0815 76.4456C57.6175 77.4683 56.8827 76.8634 56.3935 77.4807C53.8803 76.7356 53.1375 73.2098 54.5534 71.3005C55.6548 69.7852 62.3739 70.6844 60.1471 72.6595Z" fill="#57BFAE"/>
<path fill-rule="evenodd" clip-rule="evenodd" d="M29.454 110.373C29.4284 110.572 29.3651 110.496 29.2664 110.414C29.3251 110.301 29.3715 110.272 29.454 110.373Z" fill="#A7D455"/>
<path fill-rule="evenodd" clip-rule="evenodd" d="M29.7355 109.961C29.6729 109.984 29.6104 110.007 29.5479 110.03C29.5902 109.819 29.6123 109.773 29.7355 109.961Z" fill="#A7D455"/>
<path fill-rule="evenodd" clip-rule="evenodd" d="M60.6902 110.874C60.9411 110.151 61.3924 109.7 62.0034 109.561C61.753 110.187 61.399 110.709 60.6902 110.874Z" fill="#A7D455"/>
<path fill-rule="evenodd" clip-rule="evenodd" d="M60.3149 111.437C60.3774 111.312 60.44 111.187 60.5025 111.062C60.44 111.187 60.3774 111.312 60.3149 111.437Z" fill="#A7D455"/>
<path fill-rule="evenodd" clip-rule="evenodd" d="M60.5024 111.062C60.565 110.999 60.6275 110.937 60.69 110.874C60.6275 110.937 60.565 110.999 60.5024 111.062Z" fill="#A7D455"/>
<path fill-rule="evenodd" clip-rule="evenodd" d="M40.0684 59.2831C40.0897 59.3769 40.1111 59.4707 40.1326 59.5645C40.1111 59.4707 40.0897 59.3769 40.0684 59.2831Z" fill="#141313"/>
<path fill-rule="evenodd" clip-rule="evenodd" d="M57.0811 83.4118C58.3996 83.7292 57.6839 86.0055 56.3761 85.5375C56.0975 85.4262 55.9092 85.2054 55.7451 85.6415C54.1409 85.3622 55.6836 83.1497 57.0811 83.4118Z" fill="#57BFAE"/>
<path fill-rule="evenodd" clip-rule="evenodd" d="M86.3819 89.3155C86.5536 90.4562 84.4738 90.8988 84.423 89.766C84.3747 88.3477 86.2523 87.9089 86.3819 89.3155Z" fill="#57BFAE"/>
<path fill-rule="evenodd" clip-rule="evenodd" d="M84.4112 94.3892C87.5128 94.4929 83.8124 97.4714 83.4841 94.9477C83.5131 94.2342 84.0385 94.3668 84.4112 94.3892Z" fill="#57BFAE"/>
<path fill-rule="evenodd" clip-rule="evenodd" d="M79.7319 96.103C79.9584 95.6217 80.5597 94.5084 80.8576 95.5397C80.699 95.7838 79.9799 96.3017 79.7319 96.103Z" fill="#A7D455"/>
<path fill-rule="evenodd" clip-rule="evenodd" d="M61.7219 87.2147C61.8157 87.1905 61.9096 87.1664 62.0033 87.1423C61.8945 87.2898 61.8362 87.4405 61.7219 87.2147Z" fill="#A7D455"/>
<path fill-rule="evenodd" clip-rule="evenodd" d="M79.8258 96.2188C79.7633 96.2263 79.7007 96.2337 79.6382 96.2413C79.7002 96.1289 79.7381 96.1127 79.8258 96.2188Z" fill="#A7D455"/>
<path fill-rule="evenodd" clip-rule="evenodd" d="M33.2059 57.3093C31.4153 57.4355 31.122 54.5307 29.7865 53.6748C28.6215 51.5206 25.6305 50.4061 25.1389 48.0269C28.4535 48.9924 30.7388 52.5434 32.7172 55.2743C32.9713 55.7443 33.1125 56.6514 33.2059 57.3093Z" fill="#141313"/>
<path fill-rule="evenodd" clip-rule="evenodd" d="M33.2372 57.0319C32.876 55.4951 32.9635 55.1721 33.4873 56.7906C33.404 56.8709 33.3206 56.9513 33.2372 57.0319Z" fill="#57BFAE"/>
<path fill-rule="evenodd" clip-rule="evenodd" d="M32.8135 55.3123C32.7476 55.3552 32.7497 55.3349 32.7535 55.2688C32.8084 55.2508 32.8226 55.2494 32.8135 55.3123Z" fill="#57BFAE"/>
<path fill-rule="evenodd" clip-rule="evenodd" d="M60.8777 99.8995C61.048 99.6514 61.3209 99.391 61.4405 99.149C61.2694 99.3982 60.9996 99.6529 60.8777 99.8995Z" fill="#A7D455"/>
<path fill-rule="evenodd" clip-rule="evenodd" d="M60.7838 99.8995C60.6984 99.9641 60.5617 100.304 60.5024 100.134C60.5786 100.052 60.7582 99.9851 60.7838 99.8995Z" fill="#A7D455"/>
<path fill-rule="evenodd" clip-rule="evenodd" d="M35.4573 100.838C35.5384 100.27 35.9143 99.9471 36.3953 99.7119C36.3136 100.279 35.8972 100.568 35.4573 100.838Z" fill="#A7D455"/>
<path fill-rule="evenodd" clip-rule="evenodd" d="M34.8997 101.4C34.8569 100.982 35.0823 100.834 35.4573 100.838C35.2715 101.025 35.0856 101.213 34.8997 101.4Z" fill="#A7D455"/>
<path fill-rule="evenodd" clip-rule="evenodd" d="M48.9649 99.3418C48.9639 99.7129 48.7889 99.911 48.4021 99.899C48.4176 99.5424 48.5456 99.2976 48.9649 99.3418Z" fill="#A7D455"/>
<path fill-rule="evenodd" clip-rule="evenodd" d="M83.953 56.9782C83.6349 57.571 83.0546 56.1978 83.4055 56C83.8863 56.0846 83.8239 56.6211 83.953 56.9782Z" fill="#57BFAE"/>
<path fill-rule="evenodd" clip-rule="evenodd" d="M27.8031 31.1042C25.6999 31.3981 26.7919 29.8826 28.3773 30.3738C28.8171 30.8942 28.9039 30.8648 29.1721 30.1033C31.1583 30.4304 47.389 28.0539 45.4232 30.4252C39.5773 30.9775 33.6671 30.7648 27.8031 31.1042Z" fill="#141313"/>
<path fill-rule="evenodd" clip-rule="evenodd" d="M28.4192 25.3992C29.4359 25.5992 42.7868 24.2107 38.5794 26.3512C37.3958 26.3076 20.6176 26.9666 28.4192 25.3992Z" fill="#141313"/>
<path fill-rule="evenodd" clip-rule="evenodd" d="M28.392 30.3664C25.1182 29.9286 27.9389 31.8826 25.8724 31.0082C25.5132 30.2309 26.1289 29.8573 25.411 29.1554C25.0685 28.6095 24.9026 27.5862 25.8242 27.9274C26.0592 28.8865 26.7198 27.8749 27.2696 28.4392C27.7072 29.3982 26.4521 28.5592 26.5412 29.5995C26.5177 29.6599 26.5873 29.7573 26.6142 29.8376C27.0115 29.6484 27.4654 30.3436 27.8692 29.7162C28.0435 29.4454 28.2661 29.5031 28.2048 29.9225C28.1562 30.0577 28.5277 30.217 28.392 30.3664Z" fill="#2A6F64"/>
<path fill-rule="evenodd" clip-rule="evenodd" d="M23.732 25.4338C23.3622 25.4839 22.9874 25.5131 23.1023 26.0491C23.1779 26.4014 22.753 26.7314 23.0312 27.1152C21.8866 28.5278 22.1424 23.9664 23.732 25.4338Z" fill="#2A6F64"/>
<path fill-rule="evenodd" clip-rule="evenodd" d="M23.7182 25.4702C22.3747 24.8609 22.8238 24.9897 23.9133 24.3885C25.1057 24.7734 25.0474 25.7295 23.7182 25.4702Z" fill="#141313"/>
<path fill-rule="evenodd" clip-rule="evenodd" d="M28.4859 25.3925C28.0262 25.4331 27.5665 25.4738 27.1089 25.5143C27.7123 25.4292 27.6551 24.9225 27.7098 24.4875C29.0131 23.9021 29.611 24.2189 28.4859 25.3925Z" fill="#57BFAE"/>
<path fill-rule="evenodd" clip-rule="evenodd" d="M27.8594 31.0486C28.8599 31.0174 29.8604 30.9861 30.8611 30.9548C29.8606 30.9861 28.86 31.0173 27.8594 31.0486Z" fill="#2A6F64"/>
<path fill-rule="evenodd" clip-rule="evenodd" d="M28.4221 30.396C28.5821 30.1771 28.9408 30.2217 29.1725 30.1106C28.9186 30.9136 28.8368 30.9447 28.4221 30.396Z" fill="#57BFAE"/>
<path fill-rule="evenodd" clip-rule="evenodd" d="M28.1995 24.3399C27.6085 24.7819 27.1611 24.0758 27.7866 23.843C28.0163 23.7678 28.3425 23.9407 28.1995 24.3399Z" fill="#2A6F64"/>
<path fill-rule="evenodd" clip-rule="evenodd" d="M26.9214 31.1423C27.0465 31.1736 27.1715 31.2049 27.2966 31.2361C27.1716 31.2049 27.0465 31.1736 26.9214 31.1423Z" fill="#2A6F64"/>
<path fill-rule="evenodd" clip-rule="evenodd" d="M21.6035 54.3115C22.4294 54.752 26.4116 54.9397 25.3291 56C24.0074 55.7367 18.1851 55.308 21.6035 54.3115Z" fill="#141313"/>
<path fill-rule="evenodd" clip-rule="evenodd" d="M88.6432 70.5901C88.6295 71.8553 86.872 72.4602 86.6743 71.0059C86.6233 69.6338 88.5819 69.0986 88.6432 70.5901Z" fill="#57BFAE"/>
<path fill-rule="evenodd" clip-rule="evenodd" d="M73.1698 68.1554C73.2476 66.8185 74.9528 67.321 75.0418 68.393C75.0184 69.8537 73.0653 69.9828 73.1698 68.1554Z" fill="#57BFAE"/>
<path fill-rule="evenodd" clip-rule="evenodd" d="M71.3904 74.5267C71.3111 73.4482 71.9347 72.8567 72.6766 73.8932C73.2635 74.8356 71.3929 76.0052 71.3904 74.5267Z" fill="#57BFAE"/>
<path fill-rule="evenodd" clip-rule="evenodd" d="M63.8348 78.8324C63.4701 77.5948 65.2499 77.7641 65.3744 78.6887C65.4971 80.0928 63.6714 80.495 63.8348 78.8324Z" fill="#57BFAE"/>
<path fill-rule="evenodd" clip-rule="evenodd" d="M60.5854 76.918C59.945 76.0959 60.2422 75.988 60.7625 75.4171C61.4665 76.0106 61.1232 76.2068 60.5854 76.918Z" fill="#57BFAE"/>
<path fill-rule="evenodd" clip-rule="evenodd" d="M102.342 81.7957C100.956 81.7411 100.468 80.5195 101.846 80.0536C103.333 79.7586 103.47 81.1631 102.342 81.7957Z" fill="#57BFAE"/>
<path fill-rule="evenodd" clip-rule="evenodd" d="M77.4807 50.6917C76.5813 52.5083 75.0066 49.9724 74.1482 49.2991C73.1261 47.9758 72.2201 50.8595 71.3134 51.3769C70.0425 52.8566 68.979 49.9659 67.9263 49.3616C64.9947 50.9847 65.73 54.135 62.2646 50.0605C61.0542 48.517 60.6348 51.7685 59.2996 51.6663C58.9986 51.05 59.3695 50.6412 59.7382 50.1757C62.7293 44.7513 62.6198 51.0407 65.2204 50.147C66.1696 49.4619 67.34 46.7696 68.5904 48.0765C73.1561 54.3094 70.6905 41.5746 77.4807 50.6917Z" fill="#141313"/>
<path fill-rule="evenodd" clip-rule="evenodd" d="M77.515 47.2105C76.8238 47.1342 76.9823 46.7181 77.1858 46.315C77.4101 46.3489 77.6692 46.5293 77.6616 46.0493C77.6574 45.7804 77.8005 45.3959 78.2172 45.5171C79.2255 45.898 77.8802 46.9328 78.3097 47.649C78.6993 47.5067 78.9616 47.4159 78.9039 46.9518C79.7252 46.3722 79.8532 48.6761 77.6298 47.8432C77.2363 47.6934 77.4921 47.2646 77.8277 47.1684C77.9924 46.571 77.514 46.769 77.515 47.2105Z" fill="#57BFAE"/>
<path fill-rule="evenodd" clip-rule="evenodd" d="M75.8333 46.2446C73.6838 45.9622 75.584 43.8905 76.69 45.1423C76.9386 45.6929 75.9617 45.6988 75.8333 46.2446Z" fill="#2A6F64"/>
<path fill-rule="evenodd" clip-rule="evenodd" d="M66.4121 46.591C66.0209 46.9781 65.2183 48.1658 64.818 47.1684C65.5016 47.1706 65.4403 47.0648 64.8691 46.7784C62.7332 46.7455 66.0778 45.303 66.4121 46.591Z" fill="#57BFAE"/>
<path fill-rule="evenodd" clip-rule="evenodd" d="M80.0703 45.225C77.682 45.4595 80.2544 44.1115 80.9515 44.9003C80.4615 45.6183 80.1498 45.15 80.0703 45.225Z" fill="#57BFAE"/>
<path fill-rule="evenodd" clip-rule="evenodd" d="M66.3555 46.5147C66.2182 46.3364 66.0808 46.1583 65.9431 45.9803C66.4705 45.2652 67.3039 46.6641 66.3555 46.5147Z" fill="#2A6F64"/>
<path fill-rule="evenodd" clip-rule="evenodd" d="M71.196 45.0122C70.7531 45.2987 70.6725 44.939 70.3518 44.7466C70.7431 44.3184 70.8152 44.7031 71.196 45.0122Z" fill="#57BFAE"/>
<path fill-rule="evenodd" clip-rule="evenodd" d="M80.3886 44.76C79.9821 44.8169 79.5758 44.8739 79.1692 44.9313C79.5374 44.3542 79.7474 44.3247 80.3886 44.76Z" fill="#141313"/>
<path fill-rule="evenodd" clip-rule="evenodd" d="M64.3497 46.7247C64.7618 46.6641 65.0597 46.8634 65.3802 47.0561C65.0039 47.0582 64.3149 47.2397 64.3497 46.7247Z" fill="#2A6F64"/>
<path fill-rule="evenodd" clip-rule="evenodd" d="M79.0373 45.2252C79.0299 45.2482 79.0225 45.2711 79.0151 45.2941C79.0203 45.2717 79.0543 45.2433 79.0373 45.2252Z" fill="#57BFAE"/>
<path fill-rule="evenodd" clip-rule="evenodd" d="M77.1054 46.3339L77.0117 46.249C77.0369 46.2789 77.109 46.2978 77.1054 46.3339Z" fill="#57BFAE"/>
<path fill-rule="evenodd" clip-rule="evenodd" d="M64.4421 46.995C64.4735 47.0263 64.505 47.0577 64.5359 47.0888C64.5044 47.0575 64.4733 47.0262 64.4421 46.995Z" fill="#57BFAE"/>
<path fill-rule="evenodd" clip-rule="evenodd" d="M78.4378 6.15405C78.5552 6.63241 79.3355 7.30232 78.7901 7.67596C77.0217 8.56135 77.3239 8.97087 76.3822 7.2652C76.5393 7.16747 76.9973 7.18971 76.8052 6.95164C75.9771 7.72442 76.4676 6.55648 75.2486 7.24739C74.4762 5.98243 76.0877 6.95111 76.513 6.09717C76.6557 6.17478 76.865 6.21705 76.9295 6.33639C77.3288 7.3398 77.637 6.06722 78.4378 6.15405Z" fill="#2A6F64"/>
<path fill-rule="evenodd" clip-rule="evenodd" d="M75.2748 7.26216C76.8464 6.458 75.6938 8.0057 77.1993 8.56447C76.8502 8.84891 76.5525 8.71853 76.2926 8.43656C75.8636 7.94525 74.0442 8.27478 75.2748 7.26216Z" fill="#57BFAE"/>
<path fill-rule="evenodd" clip-rule="evenodd" d="M72.6034 13.6952C72.4013 13.35 72.7763 12.9187 72.3718 12.5599C72.1677 12.3788 72.6275 11.9551 72.9872 11.998C73.0666 11.5602 73.4584 11.7625 73.8224 11.8396C73.091 12.3479 73.408 13.3198 72.6034 13.6952Z" fill="#2A6F64"/>
<path fill-rule="evenodd" clip-rule="evenodd" d="M74.9624 11.658C75.5684 12.3439 75.023 12.6602 74.518 13.1323C74.0013 12.717 74.0825 11.4318 74.9624 11.658Z" fill="#2A6F64"/>
<path fill-rule="evenodd" clip-rule="evenodd" d="M74.4782 11.7079C74.2398 12.3629 73.6889 11.7362 73.1585 11.7403C72.8376 11.2139 73.5093 11.487 73.5617 11.2622C73.901 11.0949 74.5051 11.0755 74.4782 11.7079Z" fill="#141313"/>
<path fill-rule="evenodd" clip-rule="evenodd" d="M74.1704 9.28638C75.2974 9.86458 74.8584 11.8171 74.0942 10.089C73.9145 9.79765 73.7757 9.51842 74.1704 9.28638Z" fill="#141313"/>
<path fill-rule="evenodd" clip-rule="evenodd" d="M74.4695 10.6935C74.9455 10.9917 75.4684 11.8545 74.484 11.7089C74.4413 11.3729 74.3588 11.0765 73.9163 11.1402C74.101 10.9909 74.2853 10.8422 74.4695 10.6935Z" fill="#57BFAE"/>
<path fill-rule="evenodd" clip-rule="evenodd" d="M71.3583 13.8131C71.322 13.1955 71.9787 13.6451 71.831 14.0165C71.331 14.6198 70.7607 14.6178 71.3583 13.8131Z" fill="#2A6F64"/>
<path fill-rule="evenodd" clip-rule="evenodd" d="M69.9217 16.4904C69.4322 15.9043 70.4265 15.9051 70.8209 15.7588C70.7845 16.3158 70.5066 16.5855 69.9217 16.4904Z" fill="#2A6F64"/>
<path fill-rule="evenodd" clip-rule="evenodd" d="M71.7588 14.0915C72.0839 13.4627 72.9086 13.8974 72.646 14.6332C72.5026 14.1966 72.1855 14.1127 71.7588 14.0915Z" fill="#57BFAE"/>
<path fill-rule="evenodd" clip-rule="evenodd" d="M80.5761 8.91695C80.3475 9.01782 80.0636 9.43746 79.8264 9.22924C79.8025 8.74846 80.3514 8.54183 80.5761 8.91695Z" fill="#2A6F64"/>
<path fill-rule="evenodd" clip-rule="evenodd" d="M70.623 12.7581C70.8429 12.7593 71.0875 12.7165 70.9837 13.0775C71.0919 13.8803 70.284 13.4338 70.623 12.7581Z" fill="#2A6F64"/>
<path fill-rule="evenodd" clip-rule="evenodd" d="M78.8877 7.58255C79.174 7.21433 79.0785 6.5808 79.7319 6.66807C79.5596 7.07679 79.6173 7.70421 78.8877 7.58255Z" fill="#57BFAE"/>
<path fill-rule="evenodd" clip-rule="evenodd" d="M78.6064 7.67009C78.6691 7.65312 78.7318 7.63633 78.7941 7.61963C78.7311 7.63651 78.6688 7.6533 78.6064 7.67009Z" fill="#57BFAE"/>
<path fill-rule="evenodd" clip-rule="evenodd" d="M72.5093 10.4583C73.0432 10.0633 73.2256 9.58611 73.6349 10.3454C73.2137 10.4587 72.9475 10.7848 72.5093 10.4583Z" fill="#2A6F64"/>
<path fill-rule="evenodd" clip-rule="evenodd" d="M72.4154 10.8082C72.0196 11.4071 71.5287 10.8441 71.878 10.4121C72.0379 10.5299 72.1976 10.6477 72.4154 10.8082Z" fill="#2A6F64"/>
<path fill-rule="evenodd" clip-rule="evenodd" d="M73.6174 11.206C73.6122 11.2852 73.5988 11.2561 73.5583 11.2147C73.5783 11.1478 73.5799 11.1467 73.6174 11.206Z" fill="#57BFAE"/>
<path fill-rule="evenodd" clip-rule="evenodd" d="M71.5713 8.34842C71.663 8.25449 71.7547 8.16055 71.8464 8.06702C72.0094 8.33471 72.0094 8.33471 71.5713 8.34842Z" fill="#57BFAE"/>
<path fill-rule="evenodd" clip-rule="evenodd" d="M74.2451 6.85247C74.4169 6.85088 74.5888 6.8492 74.7606 6.84753C74.5237 6.89825 74.0462 7.24004 74.2451 6.85247Z" fill="#2A6F64"/>
<path fill-rule="evenodd" clip-rule="evenodd" d="M74.1977 6.86059C74.1564 7.26155 74.0423 6.868 73.9163 6.70923C74.1675 6.38537 74.1549 6.6888 74.1977 6.86059Z" fill="#0C4468"/>
<path fill-rule="evenodd" clip-rule="evenodd" d="M76.7346 8.2546C76.5583 8.02379 75.8195 7.40752 76.365 7.22278C76.7155 7.48422 76.9658 7.78209 76.7346 8.2546Z" fill="#141313"/>
<path fill-rule="evenodd" clip-rule="evenodd" d="M76.449 7.22281C76.6089 7.14988 76.8492 6.75171 76.918 7.05212C76.7659 7.11092 76.587 7.15971 76.449 7.22281Z" fill="#141313"/>
</svg>
