<svg width="40" height="40" viewBox="0 0 40 40" fill="none" xmlns="http://www.w3.org/2000/svg">
<circle cx="20" cy="20" r="20" fill="#EEF8FF"/>
<path fill-rule="evenodd" clip-rule="evenodd" d="M26.6668 27.4074C26.6668 27.9185 26.2411 28.3333 25.7144 28.3333C25.1878 28.3333 24.7621 27.9185 24.7621 27.4074C24.7621 24.8546 22.6259 22.7777 20.0002 22.7777C17.3744 22.7777 15.2383 24.8546 15.2383 27.4074C15.2383 27.9185 14.8125 28.3333 14.2859 28.3333C13.7592 28.3333 13.3335 27.9185 13.3335 27.4074C13.3335 23.8333 16.3249 20.9259 20.0002 20.9259C23.6754 20.9259 26.6668 23.8333 26.6668 27.4074ZM20.0002 13.5185C21.0506 13.5185 21.9049 14.349 21.9049 15.3703C21.9049 16.3916 21.0506 17.2222 20.0002 17.2222C18.9497 17.2222 18.0954 16.3916 18.0954 15.3703C18.0954 14.349 18.9497 13.5185 20.0002 13.5185ZM20.0002 19.074C22.1011 19.074 23.8097 17.4129 23.8097 15.3703C23.8097 13.3277 22.1011 11.6666 20.0002 11.6666C17.8992 11.6666 16.1906 13.3277 16.1906 15.3703C16.1906 17.4129 17.8992 19.074 20.0002 19.074Z" fill="#279AED"/>
</svg>
