<svg width="40" height="40" viewBox="0 0 40 40" fill="none" xmlns="http://www.w3.org/2000/svg">
<path d="M20 40C31.0457 40 40 31.0457 40 20C40 8.9543 31.0457 0 20 0C8.9543 0 0 8.9543 0 20C0 31.0457 8.9543 40 20 40Z" fill="#EEF8FF"/>
<path d="M31.9192 13.6099C31.8656 13.4883 31.7879 13.3796 31.6912 13.2887C31.6849 13.2827 31.6786 13.2817 31.6734 13.2768C31.5788 13.1928 31.4706 13.1226 31.3488 13.0751C31.249 13.0366 31.144 13.0247 31.0389 13.0158C31.0075 13.0138 30.9812 13 30.9496 13H22.5464C21.9655 13 21.496 13.4418 21.496 13.9885C21.496 14.5352 21.9655 14.977 22.5464 14.977H28.4245L20.1094 22.8464L16.9456 19.0348C16.7628 18.8143 16.4908 18.6779 16.1967 18.6571C15.891 18.6364 15.6095 18.7342 15.3952 18.925L7.32812 26.1124C6.90689 26.488 6.88907 27.1137 7.28716 27.5101C7.49516 27.7147 7.77245 27.8175 8.05082 27.8175C8.31029 27.8175 8.56971 27.7275 8.77244 27.5476L16.0003 21.1076L19.1861 24.9459C19.3721 25.1703 19.6504 25.3077 19.9519 25.3245C20.2534 25.3403 20.5464 25.2355 20.7597 25.0349L29.8992 16.3846V21.8964C29.8992 22.443 30.3687 22.8849 30.9496 22.8849C31.5305 22.8849 32.0001 22.4431 32.0001 21.8964V13.9886V13.9875C31.999 13.8581 31.9716 13.7305 31.9192 13.6099Z" fill="#279AED"/>
</svg>
