<svg width="40" height="40" viewBox="0 0 40 40" fill="none" xmlns="http://www.w3.org/2000/svg">
<circle cx="20" cy="20" r="20" fill="#EEF8FF"/>
<path fill-rule="evenodd" clip-rule="evenodd" d="M20.0002 13.3334C22.2977 13.3334 24.1668 15.2025 24.1668 17.5C24.1668 19.5117 22.7327 21.1959 20.8335 21.5817V22.5C20.8335 22.9609 20.461 23.3334 20.0002 23.3334C19.5393 23.3334 19.1668 22.9609 19.1668 22.5V20.8334C19.1668 20.3725 19.5393 20 20.0002 20C21.3785 20 22.5002 18.8784 22.5002 17.5C22.5002 16.1217 21.3785 15 20.0002 15C18.6218 15 17.5002 16.1217 17.5002 17.5C17.5002 17.9609 17.1277 18.3334 16.6668 18.3334C16.206 18.3334 15.8335 17.9609 15.8335 17.5C15.8335 15.2025 17.7027 13.3334 20.0002 13.3334ZM19.1668 25.8334C19.1668 25.3725 19.5393 25 20.0002 25C20.461 25 20.8335 25.3725 20.8335 25.8334C20.8335 26.2942 20.461 26.6667 20.0002 26.6667C19.5393 26.6667 19.1668 26.2942 19.1668 25.8334Z" fill="#279AED"/>
<mask id="mask0_1463_24521" style="mask-type:alpha" maskUnits="userSpaceOnUse" x="15" y="13" width="10" height="14">
<path fill-rule="evenodd" clip-rule="evenodd" d="M20.0002 13.3334C22.2977 13.3334 24.1668 15.2025 24.1668 17.5C24.1668 19.5117 22.7327 21.1959 20.8335 21.5817V22.5C20.8335 22.9609 20.461 23.3334 20.0002 23.3334C19.5393 23.3334 19.1668 22.9609 19.1668 22.5V20.8334C19.1668 20.3725 19.5393 20 20.0002 20C21.3785 20 22.5002 18.8784 22.5002 17.5C22.5002 16.1217 21.3785 15 20.0002 15C18.6218 15 17.5002 16.1217 17.5002 17.5C17.5002 17.9609 17.1277 18.3334 16.6668 18.3334C16.206 18.3334 15.8335 17.9609 15.8335 17.5C15.8335 15.2025 17.7027 13.3334 20.0002 13.3334ZM19.1668 25.8334C19.1668 25.3725 19.5393 25 20.0002 25C20.461 25 20.8335 25.3725 20.8335 25.8334C20.8335 26.2942 20.461 26.6667 20.0002 26.6667C19.5393 26.6667 19.1668 26.2942 19.1668 25.8334Z" fill="white"/>
</mask>
<g mask="url(#mask0_1463_24521)">
</g>
</svg>
