<svg width="40" height="40" viewBox="0 0 40 40" fill="none" xmlns="http://www.w3.org/2000/svg">
<circle cx="20" cy="20" r="20" fill="#EEF8FF"/>
<path fill-rule="evenodd" clip-rule="evenodd" d="M24.9998 25.8333C24.5398 25.8333 24.1665 25.46 24.1665 25C24.1665 24.54 24.5398 24.1667 24.9998 24.1667C25.4598 24.1667 25.8332 24.54 25.8332 25C25.8332 25.46 25.4598 25.8333 24.9998 25.8333M14.1665 20.8333C13.7065 20.8333 13.3332 20.46 13.3332 20C13.3332 19.54 13.7065 19.1667 14.1665 19.1667C14.6265 19.1667 14.9998 19.54 14.9998 20C14.9998 20.46 14.6265 20.8333 14.1665 20.8333M24.9998 14.1667C25.4598 14.1667 25.8332 14.54 25.8332 15C25.8332 15.46 25.4598 15.8333 24.9998 15.8333C24.5398 15.8333 24.1665 15.46 24.1665 15C24.1665 14.54 24.5398 14.1667 24.9998 14.1667M24.9998 22.5C24.319 22.5 23.7023 22.775 23.2507 23.2175L16.6382 20.2792C16.649 20.1867 16.6665 20.095 16.6665 20C16.6665 19.905 16.649 19.8133 16.6382 19.7208L23.2507 16.7825C23.7023 17.225 24.319 17.5 24.9998 17.5C26.3782 17.5 27.4998 16.3783 27.4998 15C27.4998 13.6217 26.3782 12.5 24.9998 12.5C23.6215 12.5 22.4998 13.6217 22.4998 15C22.4998 15.095 22.5173 15.1867 22.5282 15.2792L15.9157 18.2175C15.464 17.775 14.8473 17.5 14.1665 17.5C12.7882 17.5 11.6665 18.6217 11.6665 20C11.6665 21.3783 12.7882 22.5 14.1665 22.5C14.8473 22.5 15.464 22.225 15.9157 21.7825L22.5282 24.7208C22.5173 24.8133 22.4998 24.905 22.4998 25C22.4998 26.3783 23.6215 27.5 24.9998 27.5C26.3782 27.5 27.4998 26.3783 27.4998 25C27.4998 23.6217 26.3782 22.5 24.9998 22.5" fill="#279AED"/>
<mask id="mask0_1463_24514" style="mask-type:alpha" maskUnits="userSpaceOnUse" x="11" y="12" width="17" height="16">
<path fill-rule="evenodd" clip-rule="evenodd" d="M24.9998 25.8333C24.5398 25.8333 24.1665 25.46 24.1665 25C24.1665 24.54 24.5398 24.1667 24.9998 24.1667C25.4598 24.1667 25.8332 24.54 25.8332 25C25.8332 25.46 25.4598 25.8333 24.9998 25.8333M14.1665 20.8333C13.7065 20.8333 13.3332 20.46 13.3332 20C13.3332 19.54 13.7065 19.1667 14.1665 19.1667C14.6265 19.1667 14.9998 19.54 14.9998 20C14.9998 20.46 14.6265 20.8333 14.1665 20.8333M24.9998 14.1667C25.4598 14.1667 25.8332 14.54 25.8332 15C25.8332 15.46 25.4598 15.8333 24.9998 15.8333C24.5398 15.8333 24.1665 15.46 24.1665 15C24.1665 14.54 24.5398 14.1667 24.9998 14.1667M24.9998 22.5C24.319 22.5 23.7023 22.775 23.2507 23.2175L16.6382 20.2792C16.649 20.1867 16.6665 20.095 16.6665 20C16.6665 19.905 16.649 19.8133 16.6382 19.7208L23.2507 16.7825C23.7023 17.225 24.319 17.5 24.9998 17.5C26.3782 17.5 27.4998 16.3783 27.4998 15C27.4998 13.6217 26.3782 12.5 24.9998 12.5C23.6215 12.5 22.4998 13.6217 22.4998 15C22.4998 15.095 22.5173 15.1867 22.5282 15.2792L15.9157 18.2175C15.464 17.775 14.8473 17.5 14.1665 17.5C12.7882 17.5 11.6665 18.6217 11.6665 20C11.6665 21.3783 12.7882 22.5 14.1665 22.5C14.8473 22.5 15.464 22.225 15.9157 21.7825L22.5282 24.7208C22.5173 24.8133 22.4998 24.905 22.4998 25C22.4998 26.3783 23.6215 27.5 24.9998 27.5C26.3782 27.5 27.4998 26.3783 27.4998 25C27.4998 23.6217 26.3782 22.5 24.9998 22.5" fill="white"/>
</mask>
<g mask="url(#mask0_1463_24514)">
</g>
</svg>
