<svg width="40" height="40" viewBox="0 0 40 40" fill="none" xmlns="http://www.w3.org/2000/svg">
<circle cx="20" cy="20" r="20" fill="#EEF8FF"/>
<path fill-rule="evenodd" clip-rule="evenodd" d="M20.0002 23.3333C19.5402 23.3333 19.1668 22.96 19.1668 22.5C19.1668 22.04 19.5402 21.6666 20.0002 21.6666C20.4602 21.6666 20.8335 22.04 20.8335 22.5C20.8335 22.96 20.4602 23.3333 20.0002 23.3333ZM20.0002 20C18.6218 20 17.5002 21.1216 17.5002 22.5C17.5002 23.8783 18.6218 25 20.0002 25C21.3785 25 22.5002 23.8783 22.5002 22.5C22.5002 21.1216 21.3785 20 20.0002 20ZM25.0002 25.8333C25.0002 26.2933 24.6268 26.6666 24.1668 26.6666H15.8335C15.3735 26.6666 15.0002 26.2933 15.0002 25.8333V19.1666C15.0002 18.7066 15.3735 18.3333 15.8335 18.3333H16.6668H18.3335H21.6668H23.3335H24.1668C24.6268 18.3333 25.0002 18.7066 25.0002 19.1666V25.8333ZM18.3335 15.0925C18.3335 14.1225 19.081 13.3333 20.0002 13.3333C20.9193 13.3333 21.6668 14.1225 21.6668 15.0925V16.6666H18.3335V15.0925ZM24.1668 16.6666H23.3335V15.0925C23.3335 13.2041 21.8385 11.6666 20.0002 11.6666C18.1618 11.6666 16.6668 13.2041 16.6668 15.0925V16.6666H15.8335C14.4552 16.6666 13.3335 17.7883 13.3335 19.1666V25.8333C13.3335 27.2116 14.4552 28.3333 15.8335 28.3333H24.1668C25.5452 28.3333 26.6668 27.2116 26.6668 25.8333V19.1666C26.6668 17.7883 25.5452 16.6666 24.1668 16.6666Z" fill="#279AED"/>
<mask id="mask0_1463_24500" style="mask-type:alpha" maskUnits="userSpaceOnUse" x="13" y="11" width="14" height="18">
<path fill-rule="evenodd" clip-rule="evenodd" d="M20.0002 23.3333C19.5402 23.3333 19.1668 22.96 19.1668 22.5C19.1668 22.04 19.5402 21.6666 20.0002 21.6666C20.4602 21.6666 20.8335 22.04 20.8335 22.5C20.8335 22.96 20.4602 23.3333 20.0002 23.3333ZM20.0002 20C18.6218 20 17.5002 21.1216 17.5002 22.5C17.5002 23.8783 18.6218 25 20.0002 25C21.3785 25 22.5002 23.8783 22.5002 22.5C22.5002 21.1216 21.3785 20 20.0002 20ZM25.0002 25.8333C25.0002 26.2933 24.6268 26.6666 24.1668 26.6666H15.8335C15.3735 26.6666 15.0002 26.2933 15.0002 25.8333V19.1666C15.0002 18.7066 15.3735 18.3333 15.8335 18.3333H16.6668H18.3335H21.6668H23.3335H24.1668C24.6268 18.3333 25.0002 18.7066 25.0002 19.1666V25.8333ZM18.3335 15.0925C18.3335 14.1225 19.081 13.3333 20.0002 13.3333C20.9193 13.3333 21.6668 14.1225 21.6668 15.0925V16.6666H18.3335V15.0925ZM24.1668 16.6666H23.3335V15.0925C23.3335 13.2041 21.8385 11.6666 20.0002 11.6666C18.1618 11.6666 16.6668 13.2041 16.6668 15.0925V16.6666H15.8335C14.4552 16.6666 13.3335 17.7883 13.3335 19.1666V25.8333C13.3335 27.2116 14.4552 28.3333 15.8335 28.3333H24.1668C25.5452 28.3333 26.6668 27.2116 26.6668 25.8333V19.1666C26.6668 17.7883 25.5452 16.6666 24.1668 16.6666Z" fill="white"/>
</mask>
<g mask="url(#mask0_1463_24500)">
</g>
</svg>
