<svg width="40" height="40" viewBox="0 0 40 40" fill="none" xmlns="http://www.w3.org/2000/svg">
<circle cx="20" cy="20" r="20" fill="#EEF8FF"/>
<path fill-rule="evenodd" clip-rule="evenodd" d="M26.6665 24.5003C26.6665 24.4078 26.6607 24.3162 26.649 24.227L22.7982 23.3428C22.7223 23.4895 22.639 23.6495 22.5607 23.797C22.1815 24.522 21.9098 25.0487 21.2048 24.7662C18.4498 23.7995 16.2007 21.5503 15.2215 18.7612C14.924 18.1078 15.4907 17.8112 16.209 17.4353C16.3548 17.3595 16.5123 17.277 16.6565 17.2012L15.7732 13.3512C15.6807 13.3387 15.5907 13.3337 15.4998 13.3337C14.3057 13.3337 13.3332 14.3053 13.3332 15.4995C13.3332 21.657 18.3423 26.667 24.4998 26.667C25.6948 26.667 26.6665 25.6953 26.6665 24.5003ZM28.2798 23.8653C28.3148 24.072 28.3332 24.2845 28.3332 24.5003C28.3332 26.6137 26.614 28.3337 24.4998 28.3337C17.424 28.3337 11.6665 22.5762 11.6665 15.4995C11.6665 13.3862 13.3857 11.667 15.4998 11.667C15.7165 11.667 15.9307 11.6853 16.1382 11.7212C16.3407 11.7537 16.5448 11.8053 16.7423 11.8737C17.014 11.9678 17.2173 12.1945 17.2815 12.4745L18.4223 17.4445C18.4857 17.7178 18.4065 18.0053 18.2115 18.2078C18.0982 18.327 18.0957 18.3295 17.0623 18.8695C17.899 20.682 19.3532 22.1303 21.1282 22.9395C21.6707 21.9053 21.6732 21.902 21.7915 21.7878C21.9948 21.5937 22.2807 21.5162 22.5548 21.577L27.5248 22.7178C27.8048 22.782 28.0323 22.9862 28.1257 23.257C28.194 23.4528 28.2465 23.657 28.2798 23.8653ZM20.8332 13.3337C24.049 13.3337 26.6665 15.9503 26.6665 19.167C26.6665 19.627 27.039 20.0003 27.4998 20.0003C27.9607 20.0003 28.3332 19.627 28.3332 19.167C28.3332 15.0312 24.969 11.667 20.8332 11.667C20.3732 11.667 19.9998 12.0395 19.9998 12.5003C19.9998 12.9603 20.3732 13.3337 20.8332 13.3337ZM19.9998 15.8337C19.9998 15.3728 20.3732 15.0003 20.8332 15.0003C23.1307 15.0003 24.9998 16.8695 24.9998 19.167C24.9998 19.627 24.6273 20.0003 24.1665 20.0003C23.7057 20.0003 23.3332 19.627 23.3332 19.167C23.3332 17.7878 22.2115 16.667 20.8332 16.667C20.3732 16.667 19.9998 16.2937 19.9998 15.8337Z" fill="#279AED"/>
</svg>
