<svg width="40" height="40" viewBox="0 0 40 40" fill="none" xmlns="http://www.w3.org/2000/svg">
<circle cx="20" cy="20" r="20" fill="#EEF8FF"/>
<path fill-rule="evenodd" clip-rule="evenodd" d="M24.8004 22.95L20.0004 25.7058L15.2004 22.95L16.612 22.3491L19.5854 24.0558C19.7137 24.13 19.857 24.1666 20.0004 24.1666C20.1437 24.1666 20.2862 24.13 20.4154 24.0558L23.3887 22.3483L24.8004 22.95ZM19.5854 20.7225C19.7137 20.7966 19.857 20.8333 20.0004 20.8333C20.1437 20.8333 20.2862 20.7966 20.4154 20.7225L23.3887 19.015L24.8004 19.6166L20.0004 22.3725L15.2004 19.6166L16.612 19.015L19.5854 20.7225ZM20.0004 14.2391L24.8004 16.2833L20.0004 19.0391L15.2004 16.2833L20.0004 14.2391ZM27.4987 19.4566C27.4795 19.1408 27.2837 18.8633 26.9929 18.7391L25.1995 17.9758L27.082 16.895C27.3562 16.7383 27.517 16.4391 27.4987 16.1233C27.4795 15.8083 27.2837 15.53 26.9929 15.4058L20.3262 12.5666C20.1179 12.4775 19.882 12.4775 19.6737 12.5666L13.007 15.4058C12.7162 15.53 12.5204 15.8083 12.502 16.1233C12.4829 16.4391 12.6445 16.7383 12.9187 16.895L14.8004 17.9758L13.007 18.7391C12.7162 18.8633 12.5204 19.1408 12.502 19.4566C12.4829 19.7725 12.6445 20.0716 12.9187 20.2283L14.8004 21.3091L13.007 22.0725C12.7162 22.1966 12.5204 22.4741 12.502 22.79C12.4829 23.1058 12.6445 23.405 12.9187 23.5616L19.5854 27.3891C19.7137 27.4633 19.857 27.5 20.0004 27.5C20.1437 27.5 20.2862 27.4633 20.4154 27.3891L27.082 23.5616C27.3562 23.405 27.517 23.1058 27.4987 22.79C27.4795 22.475 27.2837 22.1966 26.9937 22.0725L25.2004 21.3083L27.082 20.2283C27.3562 20.0716 27.517 19.7725 27.4987 19.4566Z" fill="#279AED"/>
<mask id="mask0_1463_24546" style="mask-type:alpha" maskUnits="userSpaceOnUse" x="12" y="12" width="16" height="16">
<path fill-rule="evenodd" clip-rule="evenodd" d="M24.8004 22.95L20.0004 25.7058L15.2004 22.95L16.612 22.3491L19.5854 24.0558C19.7137 24.13 19.857 24.1666 20.0004 24.1666C20.1437 24.1666 20.2862 24.13 20.4154 24.0558L23.3887 22.3483L24.8004 22.95ZM19.5854 20.7225C19.7137 20.7966 19.857 20.8333 20.0004 20.8333C20.1437 20.8333 20.2862 20.7966 20.4154 20.7225L23.3887 19.015L24.8004 19.6166L20.0004 22.3725L15.2004 19.6166L16.612 19.015L19.5854 20.7225ZM20.0004 14.2391L24.8004 16.2833L20.0004 19.0391L15.2004 16.2833L20.0004 14.2391ZM27.4987 19.4566C27.4795 19.1408 27.2837 18.8633 26.9929 18.7391L25.1995 17.9758L27.082 16.895C27.3562 16.7383 27.517 16.4391 27.4987 16.1233C27.4795 15.8083 27.2837 15.53 26.9929 15.4058L20.3262 12.5666C20.1179 12.4775 19.882 12.4775 19.6737 12.5666L13.007 15.4058C12.7162 15.53 12.5204 15.8083 12.502 16.1233C12.4829 16.4391 12.6445 16.7383 12.9187 16.895L14.8004 17.9758L13.007 18.7391C12.7162 18.8633 12.5204 19.1408 12.502 19.4566C12.4829 19.7725 12.6445 20.0716 12.9187 20.2283L14.8004 21.3091L13.007 22.0725C12.7162 22.1966 12.5204 22.4741 12.502 22.79C12.4829 23.1058 12.6445 23.405 12.9187 23.5616L19.5854 27.3891C19.7137 27.4633 19.857 27.5 20.0004 27.5C20.1437 27.5 20.2862 27.4633 20.4154 27.3891L27.082 23.5616C27.3562 23.405 27.517 23.1058 27.4987 22.79C27.4795 22.475 27.2837 22.1966 26.9937 22.0725L25.2004 21.3083L27.082 20.2283C27.3562 20.0716 27.517 19.7725 27.4987 19.4566Z" fill="white"/>
</mask>
<g mask="url(#mask0_1463_24546)">
</g>
</svg>
